<?xml version="1.0" encoding="UTF-8"?>
<svg baseProfile="full" fill="#d0d0d0" height="400.0" stroke="#ffffff" stroke-width="1" version="1.1" width="254.88606480281686" xmlns="http://www.w3.org/2000/svg" xmlns:ev="http://www.w3.org/2001/xml-events" xmlns:xlink="http://www.w3.org/1999/xlink">
	<defs/>
	<g id="counties"><path d="M 27.344064079997523,45.63806628202354 L 28.632783273106472,35.74274188298505 L 70.77752093541135,37.800674306487565 L 70.40629285585453,59.73971462804381 L 63.126753078898844,59.413868257266884 L 25.798890236791056,57.47876396177875 L 27.344064079997523,45.63806628202354 z" id="c01059"/>
		<path d="M 186.7563122094721,128.06057896929977 L 190.02112631495737,125.01502174431133 L 190.663355960091,123.25752060636047 L 200.4644153919042,117.31922707369759 L 201.68282977563325,105.10280238811255 L 209.17482834781822,91.03911439835424 L 211.59461025364172,89.73739133617364 L 218.30603235800623,89.1089438165625 L 219.1782297912236,94.32188696264724 L 221.05089772000443,105.4897645933829 L 222.66127819555663,115.07877870384183 L 224.3948638697797,125.37419661296698 L 225.05199340560068,129.30228978646417 L 222.04791631217572,127.76093086392649 L 201.3462501754767,128.28726476875838 L 192.80911738565712,128.071590274036 L 191.59866818965696,130.51581419190362 L 184.24242728455644,130.50916046996034 L 186.7563122094721,128.06057896929977 z" id="c01029"/>
		<path d="M 109.27514822395858,97.59000905231017 L 112.03741097669725,93.35730726841676 L 121.16182177291665,89.86835034035498 L 128.7956806898678,80.98667342087472 L 128.32458544170635,78.20264021076258 L 134.69086828868097,76.02734336594693 L 134.47478982737871,75.518260868542 L 135.64336564066178,74.42223849881975 L 136.60796137151925,72.16405999749944 L 137.31390657805184,71.74652220505655 L 140.480309718413,64.92991471785308 L 145.05738946914303,64.37458885017162 L 148.0849924668306,68.93153781611572 L 155.36933239424553,77.82127083935772 L 153.33789633230177,82.70653594650986 L 150.66711895626483,91.11065697593693 L 153.76871722580188,91.09470468795544 L 152.17999495213115,96.02957642988646 L 148.1233041480616,99.7772688383139 L 136.14021228852482,102.5351251217057 L 136.09917144723084,105.5985086695848 L 131.39393046258363,104.91984160204704 L 123.49454932823284,99.20547222770577 L 114.79877930020159,98.90088282836278 L 109.91194255703137,101.18445988710316 L 109.27514822395858,97.59000905231017 z" id="c01009"/>
		<path d="M 111.45274570384768,256.0969333268534 L 115.11079111563615,256.09114747204137 L 144.26802472773403,256.10626010080193 L 144.0907760394278,281.9198787782941 L 140.45374794599107,281.92944086832387 L 140.41054096548334,292.7819928053946 L 125.93133491436775,292.7963342002409 L 116.06953839554454,292.6068924608062 L 111.3359401318335,283.5835551337124 L 111.49702448085148,273.5290226254017 L 111.4896379694505,267.04614359821636 L 111.45274570384768,256.0969333268534 z" id="c01013"/>
		<path d="M 23.239725453992584,77.03354056741559 L 25.798890236791056,57.47876396177875 L 63.126753078898844,59.413868257266884 L 62.57996735998449,84.8872065933991 L 62.46515492046909,92.15477857151326 L 55.25826016732051,92.06806769017994 L 40.46366576138855,91.34330806314723 L 40.63033556865561,82.79470370922947 L 38.246926036633376,80.24463141877185 L 22.931441758011395,79.38449666804284 L 23.239725453992584,77.03354056741559 z" id="c01093"/>
		<path d="M 29.077116883814128,32.32673713042733 L 32.098842482796485,9.850744826392019 L 40.668591630206514,10.846508740800404 L 44.179004471794435,17.450699906551087 L 51.874028334214735,23.66143223058005 L 71.51695296084569,15.631164144057275 L 78.21822828634485,18.446614457732547 L 76.74541561059156,30.737867779072836 L 70.77752093541135,37.800674306487565 L 28.632783273106472,35.74274188298505 L 29.077116883814128,32.32673713042733 z" id="c01033"/>
		<path d="M 191.21416979185582,285.1883696272728 L 194.13706432778915,285.1796242752637 L 214.2375982935377,284.9277787510452 L 217.854858984442,285.00670410659455 L 217.8799711892841,310.4415521802703 L 212.99158200215894,316.2117108767279 L 200.05233945660052,314.4694013363717 L 196.88696722786347,320.49945300606373 L 191.06605525193336,320.4055654173994 L 191.21416979185582,285.1883696272728 z" id="c01045"/>
		<path d="M 175.68850296490703,162.18069737450514 L 178.11346918453293,160.92891349215236 L 200.69013882253762,160.8121645378501 L 204.94266312624157,160.74466667631816 L 205.01659124347017,192.39400627557862 L 198.89571443524343,193.74212368199883 L 197.70360893230188,195.00538988376758 L 197.77823397149595,203.48484805102947 L 190.51325247584367,204.73086801335103 L 190.61679566415535,211.9868827822384 L 184.3159196314752,212.08522322355395 L 184.77069307077645,190.2404577128836 L 175.7817737672939,190.19300702160209 L 175.34586390509273,184.82692580579146 L 175.68850296490703,162.18069737450514 z" id="c01123"/>
		<path d="M 164.20654088479432,153.34422715258376 L 167.87763565770155,153.45297813233483 L 168.06724118695405,144.94689456285892 L 177.74339367873478,145.1448830468229 L 178.01785184268357,137.81916301495184 L 181.71749691595676,136.6254608848298 L 183.04473963947893,128.0662371800027 L 186.7563122094721,128.06057896929977 L 184.24242728455644,130.50916046996034 L 191.59866818965696,130.51581419190362 L 192.80911738565712,128.071590274036 L 201.3462501754767,128.28726476875838 L 201.5380437837818,142.94132243254006 L 200.69013882253762,160.8121645378501 L 178.11346918453293,160.92891349215236 L 175.68850296490703,162.18069737450514 L 175.5675259249666,160.97935166923483 L 164.07353298937494,160.97115954249531 L 164.20654088479432,153.34422715258376 z" id="c01027"/>
		<path d="M 139.90950130835023,167.85744211284356 L 140.3826431792551,162.18992462310263 L 141.8048893714654,160.9863108471754 L 164.07353298937494,160.97115954249531 L 175.5675259249666,160.97935166923483 L 175.68850296490703,162.18069737450514 L 175.34586390509273,184.82692580579146 L 175.7817737672939,190.19300702160209 L 152.5245442585474,189.02029795148218 L 149.81621518963468,190.22259190016155 L 144.0538398951985,185.15110989739162 L 144.46558492461767,180.9931777991874 L 139.95757326993925,175.47846180385346 L 139.90950130835023,167.85744211284356 z" id="c01037"/>
		<path d="M 200.05233945660052,314.4694013363717 L 212.99158200215894,316.2117108767279 L 217.8799711892841,310.4415521802703 L 234.97284638829402,310.9682105675962 L 241.44858354306083,310.8458763343277 L 241.388550982471,311.98417212440825 L 240.08745082143216,315.03640258044373 L 240.17552928552277,321.06192600917217 L 245.38589060060102,327.56331347565344 L 246.4485597608204,330.2894910454205 L 247.16061429068617,332.11512057033576 L 247.83313135174427,336.52600334066017 L 245.7619609440341,336.54412879431226 L 237.51105133237928,336.59552461860113 L 224.03097797593352,336.762523104897 L 212.88068070916918,336.9377105692651 L 213.01046542070523,320.07149224622066 L 196.88696722786347,320.49945300606373 L 200.05233945660052,314.4694013363717 z" id="c01069"/>
		<path d="M 100.25971779268981,28.289895581426887 L 118.5771175383395,39.32168152642611 L 121.90078697405811,39.83405792233126 L 128.88955047506545,36.91834893936724 L 131.83366728034446,40.07727838197686 L 136.5239158584944,37.40266628619716 L 138.48598013064438,40.37487239838824 L 136.22366541650663,54.973500420081635 L 136.14007993823603,60.522294430213876 L 99.5191554079796,59.39640657770351 L 100.25971779268981,28.289895581426887 z" id="c01103"/>
		<path d="M 68.47483056321803,197.54397372145192 L 72.10012134220467,197.58800609619445 L 72.44916261043895,182.98736430433607 L 76.10048022347833,179.37493118934762 L 83.27430595890429,179.4279313614425 L 83.24341587411469,183.07159576675835 L 104.41391157731756,182.87863017103805 L 104.41175768204495,191.86203427804216 L 97.59925929652671,211.80382301553485 L 75.47248251487899,212.08995834149437 L 75.35520096268168,226.7023644023288 L 71.71178795389429,226.68819334064955 L 68.0774556129481,226.6585473419538 L 68.29456620852423,212.05786872912884 L 68.47483056321803,197.54397372145192 z" id="c01105"/>
		<path d="M 13.529704758660936,152.27733427147172 L 14.627756350407488,143.5891928196682 L 17.210640489148865,123.10316972019793 L 40.15282180306708,124.43801831183167 L 47.562791979387654,124.5205261774336 L 47.18747670427335,155.5480671611547 L 37.862046751322964,161.6680506196283 L 25.047611144844307,164.81931491619227 L 23.389632868661124,168.24762867786734 L 11.531431382844474,168.35874207456294 L 13.529704758660936,152.27733427147172 z" id="c01107"/>
		<path d="M 111.43002303832074,197.3990036538288 L 125.86014206294773,197.73614715738688 L 125.83204970755204,194.06263158426037 L 147.10228425056795,194.06776735498468 L 147.10472009924737,218.91921834604983 L 143.6738386023941,219.2755241290603 L 141.00418184793386,224.35614627756317 L 125.36199938214524,219.3656247010961 L 120.85667617949711,220.18928291835942 L 118.32988376085542,227.06166233223743 L 118.43827028900492,224.4864506210366 L 112.11353811165993,208.05620653781375 L 111.43002303832074,197.3990036538288 z" id="c01001"/>
		<path d="M 162.2293336282168,300.00605900841475 L 162.19441294742253,292.4983570443294 L 165.83331406858196,291.86414907814736 L 165.71327050424816,285.1756875673097 L 191.21416979185582,285.1883696272728 L 191.06605525193336,320.4055654173994 L 167.08125838656142,321.57221458900943 L 162.19571196421242,320.7095086613855 L 162.06787812208387,302.4884036098858 L 162.2293336282168,300.00605900841475 z" id="c01031"/>
		<path d="M 174.6146681044469,218.17912116664894 L 186.68919063711525,213.5318259497066 L 184.3159196314752,212.08522322355395 L 190.61679566415535,211.9868827822384 L 190.51325247584367,204.73086801335103 L 197.77823397149595,203.48484805102947 L 212.4096047487515,211.72238872652613 L 216.004320511605,211.6971556363529 L 216.35230668280894,218.98515441727645 L 216.44248761463692,233.62091618496436 L 186.43039348347293,233.8968715469577 L 183.4290330202415,227.7709540522141 L 183.41684799633902,230.30239927323638 L 181.95447115907254,230.35191020021253 L 176.8526535294194,225.19028290309177 L 174.6146681044469,218.17912116664894 z" id="c01087"/>
		<path d="M 201.5380437837818,142.94132243254006 L 201.3462501754767,128.28726476875838 L 222.04791631217572,127.76093086392649 L 225.05199340560068,129.30228978646417 L 225.81770893778437,133.87436691817558 L 230.0064535981862,158.78941306019627 L 230.30879232601959,160.5815603013 L 204.94266312624157,160.74466667631816 L 200.69013882253762,160.8121645378501 L 201.5380437837818,142.94132243254006 z" id="c01111"/>
		<path d="M 71.71178795389429,226.68819334064955 L 75.35520096268168,226.7023644023288 L 75.47248251487899,212.08995834149437 L 97.59925929652671,211.80382301553485 L 104.41175768204495,191.86203427804216 L 104.35713229398173,197.39862801670506 L 111.43002303832074,197.3990036538288 L 112.11353811165993,208.05620653781375 L 118.43827028900492,224.4864506210366 L 114.87763809727508,229.957971493518 L 118.67614969919475,234.1854343648886 L 111.71745718958528,234.09550292842025 L 111.66558574746666,248.88878835046233 L 92.38850643372412,248.7110030926634 L 82.1088437877374,235.91112034624567 L 71.71928729214955,230.2565423845551 L 71.71178795389429,226.68819334064955 z" id="c01047"/>
		<path d="M 18.938072658240124,109.3627695269261 L 19.451576538954125,105.51686031613423 L 22.931441758011395,79.38449666804284 L 38.246926036633376,80.24463141877185 L 40.63033556865561,82.79470370922947 L 40.46366576138855,91.34330806314723 L 40.15282180306708,124.43801831183167 L 17.210640489148865,123.10316972019793 L 18.938072658240124,109.3627695269261 z" id="c01075"/>
		<path d="M 216.35230668280894,218.98515441727645 L 223.71535901632086,218.87036108231143 L 223.43056467384136,214.0429944805217 L 242.8726659545892,213.57023493353122 L 246.96760746526792,210.4274529026093 L 247.06477612938355,210.6846887309234 L 249.08723811915746,216.03468791076992 L 248.4695030758443,221.37048248072688 L 248.31584940836396,222.69632915431953 L 246.5864576045787,224.92469685614557 L 250.32360698126004,227.46559687622442 L 254.88606480281686,230.97883724855953 L 252.91439717611232,233.71544056100254 L 252.19943997352843,234.7071457011359 L 247.41757852680723,237.5535707438833 L 243.11462078891728,241.7152484819372 L 243.97494878101367,245.77178407377176 L 243.68091821777156,247.8736687068955 L 234.17278417077716,247.9824549232412 L 228.95763251683613,240.8087227872218 L 218.1259796223935,240.9658830979034 L 216.90353921212372,240.9789427692959 L 216.44248761463692,233.62091618496436 L 216.35230668280894,218.98515441727645 z" id="c01113"/>
		<path d="M 47.562791979387654,124.5205261774336 L 59.73945769326666,125.01119713433658 L 62.3133756742629,117.68564379812258 L 76.84941770492792,118.57041088447936 L 80.51341430334573,119.8821989905837 L 84.18636481420936,119.90839603972553 L 84.11932622106535,126.0281702071177 L 87.70992846203441,126.18206647490727 L 82.42399957948305,129.65348475830635 L 92.56990901551481,140.44443371227396 L 93.61181706049696,141.71656944381502 L 93.61251192471849,142.29309735100142 L 94.83751777600865,142.31716761511834 L 94.8339485600993,143.52271961613917 L 97.27969450963067,143.60143289084996 L 97.2910666271716,144.86933159886476 L 100.04602650972285,144.9170796046017 L 100.03153440643061,145.8369727679603 L 100.94005035820534,145.8464938247987 L 100.93416421501958,146.15263748476326 L 101.55736946879253,146.1667895513755 L 101.5298707481412,148.59259191480197 L 92.10733875799527,152.6837586611851 L 92.02398913586995,158.190092715349 L 86.21736365589717,157.91128802967947 L 83.49455963069376,168.47777816161812 L 76.2109749870888,168.60535493318255 L 55.53044809814736,167.97606906071366 L 47.342064611580604,166.9526424890689 L 47.51837914872757,160.55217261774698 L 47.12367200554103,156.94912699086774 L 47.18747670427335,155.5480671611547 L 47.562791979387654,124.5205261774336 z" id="c01125"/>
		<path d="M 92.65041061532742,292.82836175828965 L 95.02896198923891,282.5919546495038 L 101.09969781218699,276.3184729808592 L 111.49702448085148,273.5290226254017 L 111.3359401318335,283.5835551337124 L 116.06953839554454,292.6068924608062 L 125.93133491436775,292.7963342002409 L 128.67936924000807,302.93816460836257 L 125.7495068739923,307.71072054217774 L 125.80414648169364,320.5073374720451 L 120.62407439016772,319.6275026637588 L 121.28008825641746,314.7001350601843 L 73.66682406950028,314.23142974843137 L 92.65041061532742,292.82836175828965 z" id="c01035"/>
		<path d="M 136.22366541650663,54.973500420081635 L 138.48598013064438,40.37487239838824 L 139.617281927021,43.99066424294882 L 147.184099424204,45.97905627425699 L 153.68338729454604,43.24742953903452 L 153.9501980359649,36.00124765805387 L 153.94308126443838,35.97271377178064 L 154.54480830591237,35.97178717777833 L 154.69864879829908,35.970435464104185 L 163.8930236138371,36.03986568017105 L 166.27791595947212,36.07856047497501 L 169.76426652059033,43.31940911492951 L 170.4542024363485,47.16453501993996 L 172.52660847794357,46.38086017847854 L 168.2753305030345,52.39969106578991 L 169.11697730256284,69.3739076938663 L 168.91832591480576,70.5805029530444 L 162.16347339270771,71.70064787670889 L 155.36933239424553,77.82127083935772 L 148.0849924668306,68.93153781611572 L 145.05738946914303,64.37458885017162 L 143.38003522606456,60.73368985137934 L 136.14007993823603,60.522294430213876 L 136.22366541650663,54.973500420081635 z" id="c01095"/>
		<path d="M 99.05211177512744,86.2564700146969 L 99.5178043781323,60.60842554864052 L 99.5191554079796,59.39640657770351 L 136.14007993823603,60.522294430213876 L 143.38003522606456,60.73368985137934 L 145.05738946914303,64.37458885017162 L 140.480309718413,64.92991471785308 L 137.31390657805184,71.74652220505655 L 136.60796137151925,72.16405999749944 L 135.64336564066178,74.42223849881975 L 134.47478982737871,75.518260868542 L 134.69086828868097,76.02734336594693 L 128.32458544170635,78.20264021076258 L 128.7956806898678,80.98667342087472 L 121.16182177291665,89.86835034035498 L 112.03741097669725,93.35730726841676 L 109.27514822395858,97.59000905231017 L 100.35033400254339,94.82243910153333 L 96.33511095154518,86.15183477158975 L 99.05211177512744,86.2564700146969 z" id="c01043"/>
		<path d="M 29.85034551409689,355.85765971131417 L 35.867048742956804,349.8145361095402 L 32.888573749726554,345.73429046780194 L 37.4971813019115,340.78872948510565 L 34.60357005688408,338.0276202457989 L 36.46132209615342,331.3450282714394 L 34.00529590191965,327.8398510699434 L 36.69277278583666,323.06847487422124 L 34.364439619212654,321.7318684095026 L 36.3009661289954,319.2418496826483 L 44.30738535089409,316.2045886245423 L 46.72869677606966,308.89635282923416 L 49.48506311513841,310.7563362399012 L 52.90123278050573,310.33257019833337 L 60.121987205058986,315.355298506252 L 59.83113179759363,335.76386783393326 L 61.017842934162545,336.01333317131633 L 61.01006645010943,336.0132245054948 L 61.444013144643016,339.8608250788462 L 58.24112076309069,346.962945125008 L 64.79413819770691,355.2862011225548 L 66.10248578152489,357.7455977676812 L 71.91645902681927,361.64323077166864 L 74.91452887667582,364.6483789824018 L 74.78078132407377,369.05948112591307 L 72.53003336850091,373.55050516270825 L 71.5194465351445,377.1094170820129 L 73.6332808589041,381.3330782734601 L 77.08952240668128,383.1056193089835 L 72.33202216467657,385.83443911795854 L 70.77728475984448,390.7497615887455 L 65.91352118891403,395.9979138959145 L 55.826472685278866,398.40947836387664 L 44.047671916799594,400.0 L 38.67173489835725,398.9916031135493 L 45.02192900311791,395.71474090180396 L 45.792932607040534,392.0178536159686 L 40.931795948643334,386.98069422908975 L 37.470443521992834,381.6784222945536 L 36.1433025200691,378.2095755717442 L 38.53019780231322,372.9449561946408 L 37.626571888756445,370.00207173117104 L 36.56595927295316,364.39948754424006 L 31.032756590770123,361.59781164515374 L 29.85034551409689,355.85765971131417 z" id="c01003"/>
		<path d="M 125.7495068739923,307.71072054217774 L 128.67936924000807,302.93816460836257 L 125.93133491436775,292.7963342002409 L 140.41054096548334,292.7819928053946 L 147.51458394022876,292.6718335711614 L 147.5824140577081,299.0043320733605 L 156.08577643758971,292.59602856868094 L 156.284660323413,298.6870419204249 L 162.2293336282168,300.00605900841475 L 162.06787812208387,302.4884036098858 L 162.19571196421242,320.7095086613855 L 162.35712312981204,335.6264968641978 L 162.59010997952413,337.26127381393763 L 149.80218451580288,337.17945518686525 L 148.09902107500272,337.16351670593724 L 135.51816449055218,337.03455629903374 L 126.5426048088001,336.88709402731996 L 125.68668887503044,335.8196704361268 L 125.80414648169364,320.5073374720451 L 125.7495068739923,307.71072054217774 z" id="c01039"/>
		<path d="M 141.00418184793386,224.35614627756317 L 143.6738386023941,219.2755241290603 L 147.10472009924737,218.91921834604983 L 157.7067890472422,211.30358084070738 L 162.62447948818803,216.79894238667762 L 172.95493837224575,219.33155937307671 L 174.6146681044469,218.17912116664894 L 176.8526535294194,225.19028290309177 L 181.95447115907254,230.35191020021253 L 177.18023718304042,230.5170122364263 L 176.28313163058573,232.33678200720144 L 176.36135598073102,241.43756374750328 L 176.42138792950212,249.0025677377482 L 176.50269979817648,255.97764128121983 L 162.5579327232548,256.0360958744122 L 154.66427886308898,256.1218899747852 L 154.5961237420067,248.887129521827 L 147.29165340078177,248.92978291789964 L 147.22019387776712,235.7091704775018 L 147.20056136646062,232.75720145739749 L 146.24887249570307,231.9660547031996 L 144.37161502917516,231.13026707099667 L 143.68349353761937,230.2493139716401 L 142.1123192146865,230.46005701448078 L 141.82997839976213,229.3694103254664 L 142.57892493989922,225.44265470164507 L 141.00418184793386,224.35614627756317 z" id="c01101"/>
		<path d="M 48.35860054760475,184.2837977589829 L 47.0959619495444,181.72457057141685 L 51.251806214855186,174.53590627938718 L 54.441611502516835,172.76877501287439 L 55.53044809814736,167.97606906071366 L 76.2109749870888,168.60535493318255 L 76.10048022347833,179.37493118934762 L 72.44916261043895,182.98736430433607 L 72.10012134220467,197.58800609619445 L 68.47483056321803,197.54397372145192 L 68.29456620852423,212.05786872912884 L 53.825959336866305,211.9073752282237 L 53.90655476156798,208.26313894072896 L 47.95707494289861,208.15260314562636 L 53.40876557606766,202.8077587202812 L 48.06752253156213,199.01651244935215 L 48.61378719566957,189.1208209350511 L 44.23899785843232,188.19607350245295 L 48.35860054760475,184.2837977589829 z" id="c01065"/>
		<path d="M 70.77752093541135,37.800674306487565 L 76.74541561059156,30.737867779072836 L 78.21822828634485,18.446614457732547 L 83.8872423826555,18.829316067561454 L 87.02527043191888,22.694846265454046 L 89.60289411271313,22.07868131870072 L 92.22279391412249,21.730849225630955 L 100.25971779268981,28.289895581426887 L 99.5191554079796,59.39640657770351 L 99.5178043781323,60.60842554864052 L 70.40629285585453,59.73971462804381 L 70.77752093541135,37.800674306487565 z" id="c01079"/>
		<path d="M 111.71745718958528,234.09550292842025 L 118.67614969919475,234.1854343648886 L 114.87763809727508,229.957971493518 L 118.43827028900492,224.4864506210366 L 118.32988376085542,227.06166233223743 L 120.85667617949711,220.18928291835942 L 125.36199938214524,219.3656247010961 L 141.00418184793386,224.35614627756317 L 142.57892493989922,225.44265470164507 L 141.82997839976213,229.3694103254664 L 142.1123192146865,230.46005701448078 L 143.68349353761937,230.2493139716401 L 144.37161502917516,231.13026707099667 L 146.24887249570307,231.9660547031996 L 147.20056136646062,232.75720145739749 L 147.22019387776712,235.7091704775018 L 147.29165340078177,248.92978291789964 L 147.3436667348191,256.1944639438928 L 144.26802472773403,256.10626010080193 L 115.11079111563615,256.09114747204137 L 115.25066862083757,248.89168610058786 L 111.66558574746666,248.88878835046233 L 111.71745718958528,234.09550292842025 z" id="c01085"/>
		<path d="M 168.2753305030345,52.39969106578991 L 172.52660847794357,46.38086017847854 L 175.44235601296126,45.91496062483022 L 177.61227623733586,45.51070786740521 L 191.36192259902472,33.979441693517124 L 202.2696456520548,16.641212655882942 L 205.31346310215713,14.247645738118438 L 206.81186791683206,23.46685297861159 L 208.7069837833253,34.015944661003765 L 209.23476014940488,36.94816679539305 L 210.2091979423477,42.3555652573232 L 207.01591563370985,44.177745336983676 L 202.31339447465243,53.07536060735731 L 192.1608349274407,64.5229308822624 L 187.32892441332606,65.73572658608123 L 187.34131755784287,69.46188438100754 L 169.11697730256284,69.3739076938663 L 168.2753305030345,52.39969106578991 z" id="c01049"/>
		<path d="M 0.20977313209496523,259.8593083292308 L 0.2899042755500402,256.5733695500009 L 1.6212816367659262,246.5810910522363 L 3.55665274291082,232.0280400632489 L 3.8058336792305356,230.15191281667907 L 4.4186674698456105,225.27156072351772 L 39.24468658321846,225.87464642151667 L 32.922059223783265,227.86622206571315 L 33.60967052674762,236.23414937123394 L 25.723977171249974,251.0419868306606 L 28.551107511592335,252.4435969876975 L 25.067430793428482,255.70856266958393 L 20.62025439971142,266.9593940668214 L 26.992215473369797,276.7286209531076 L 0.17261339744055215,276.2412266819801 L 0.0,268.47862263892085 L 0.20977313209496523,259.8593083292308 z" id="c01023"/>
		<path d="M 1.2782592148988714,325.06980618633423 L 8.683411990224618,322.77176326332545 L 30.7572988965308,323.20157342355054 L 34.364439619212654,321.7318684095026 L 36.69277278583666,323.06847487422124 L 34.00529590191965,327.8398510699434 L 36.46132209615342,331.3450282714394 L 34.60357005688408,338.0276202457989 L 37.4971813019115,340.78872948510565 L 32.888573749726554,345.73429046780194 L 35.867048742956804,349.8145361095402 L 29.85034551409689,355.85765971131417 L 31.032756590770123,361.59781164515374 L 27.095736941374074,364.8692987466111 L 26.792392031915533,369.59396352869095 L 25.513881287708248,373.07690080512435 L 23.83564544069677,376.83910546150094 L 23.529534264516023,385.11081245238046 L 21.18476107745052,391.8450144989992 L 16.873568044943656,391.71347876798194 L 12.368176898318284,391.8114186441022 L 8.556465358915597,387.55146255614585 L 4.794637237000054,385.8717367252134 L 2.513829662684063,387.37379150640413 L 2.1991554978808723,372.8255924418403 L 1.9574148855379323,357.0680823829499 L 1.9505240314399572,356.74801119390406 L 1.4821628476079731,334.7748015353421 L 1.2782592148988714,325.06980618633423 z" id="c01097"/>
		<path d="M 140.9948106255468,154.61408330941023 L 144.19479834371228,149.42903316578492 L 151.28745216131298,144.8319875574021 L 152.44952976608752,140.01794606775604 L 149.83224651992595,136.96451334945 L 156.6506610321294,127.06089931750317 L 159.91248470643177,128.35798568625617 L 164.55619259075758,117.95432593276418 L 162.88361963177942,111.37957407281522 L 166.24335067707582,112.95753064094721 L 172.8717122236539,113.35120576627367 L 176.75394158694615,120.72112938296809 L 190.76702585793404,120.80547634145577 L 190.663355960091,123.25752060636047 L 190.02112631495737,125.01502174431133 L 186.7563122094721,128.06057896929977 L 183.04473963947893,128.0662371800027 L 181.71749691595676,136.6254608848298 L 178.01785184268357,137.81916301495184 L 177.74339367873478,145.1448830468229 L 168.06724118695405,144.94689456285892 L 167.87763565770155,153.45297813233483 L 164.20654088479432,153.34422715258376 L 164.07353298937494,160.97115954249531 L 141.8048893714654,160.9863108471754 L 140.9948106255468,154.61408330941023 z" id="c01121"/>
		<path d="M 153.33789633230177,82.70653594650986 L 155.36933239424553,77.82127083935772 L 162.16347339270771,71.70064787670889 L 168.91832591480576,70.5805029530444 L 169.11697730256284,69.3739076938663 L 187.34131755784287,69.46188438100754 L 187.49709733896844,76.92524419481308 L 190.57619345258996,77.8035897705732 L 194.62497225661863,88.8080016898347 L 194.48870618288797,91.57899608659208 L 187.16122546152653,89.74687595200633 L 178.59190175268907,93.30562974083699 L 171.8830108794246,99.34355072012707 L 166.49738059968266,94.55016001906533 L 162.5907843612802,87.05603727262636 L 156.25709061991995,87.4650783748608 L 153.76871722580188,91.09470468795544 L 150.66711895626483,91.11065697593693 L 153.33789633230177,82.70653594650986 z" id="c01055"/>
		<path d="M 40.46366576138855,91.34330806314723 L 55.25826016732051,92.06806769017994 L 62.46515492046909,92.15477857151326 L 62.394182702944946,95.76956239677106 L 69.66902580605027,96.25972451176257 L 69.6551629834134,110.93661974605175 L 76.95136303695982,111.29820844310487 L 76.84941770492792,118.57041088447936 L 62.3133756742629,117.68564379812258 L 59.73945769326666,125.01119713433658 L 47.562791979387654,124.5205261774336 L 40.15282180306708,124.43801831183167 L 40.46366576138855,91.34330806314723 z" id="c01057"/>
		<path d="M 76.2109749870888,168.60535493318255 L 83.49455963069376,168.47777816161812 L 86.21736365589717,157.91128802967947 L 92.02398913586995,158.190092715349 L 92.10733875799527,152.6837586611851 L 101.5298707481412,148.59259191480197 L 104.26016009651865,148.66172593991925 L 104.27110223915624,155.40303173996514 L 114.3232968848768,165.1953732324286 L 114.50295169061792,183.04938443952602 L 104.41391157731756,182.87863017103805 L 83.24341587411469,183.07159576675835 L 83.27430595890429,179.4279313614425 L 76.10048022347833,179.37493118934762 L 76.2109749870888,168.60535493318255 z" id="c01007"/>
		<path d="M 88.4049898766501,20.81281504779769 L 92.82559446704524,17.326394063464402 L 93.32255552173658,2.0311733777075114 L 119.07282537369842,2.8601488319619124 L 122.69267856749707,2.968928347033012 L 122.69405296896012,2.9689479413109323 L 121.90078697405811,39.83405792233126 L 118.5771175383395,39.32168152642611 L 100.25971779268981,28.289895581426887 L 92.22279391412249,21.730849225630955 L 89.60289411271313,22.07868131870072 L 88.4049898766501,20.81281504779769 z" id="c01083"/>
		<path d="M 147.10657198555936,190.45797624318797 L 149.81621518963468,190.22259190016155 L 152.5245442585474,189.02029795148218 L 175.7817737672939,190.19300702160209 L 184.77069307077645,190.2404577128836 L 184.3159196314752,212.08522322355395 L 186.68919063711525,213.5318259497066 L 174.6146681044469,218.17912116664894 L 172.95493837224575,219.33155937307671 L 162.62447948818803,216.79894238667762 L 157.7067890472422,211.30358084070738 L 147.10472009924737,218.91921834604983 L 147.10228425056795,194.06776735498468 L 147.10657198555936,190.45797624318797 z" id="c01051"/>
		<path d="M 162.19571196421242,320.7095086613855 L 167.08125838656142,321.57221458900943 L 191.06605525193336,320.4055654173994 L 196.88696722786347,320.49945300606373 L 213.01046542070523,320.07149224622066 L 212.88068070916918,336.9377105692651 L 212.1825484600024,336.9481622553207 L 206.3190338358389,337.0335400598847 L 194.07186463317015,337.19800914139176 L 183.7166723935466,337.3516922568018 L 173.542064886949,337.3151061718852 L 162.59010997952413,337.26127381393763 L 162.35712312981204,335.6264968641978 L 162.19571196421242,320.7095086613855 z" id="c01061"/>
		<path d="M 63.126753078898844,59.413868257266884 L 70.40629285585453,59.73971462804381 L 99.5178043781323,60.60842554864052 L 99.05211177512744,86.2564700146969 L 96.33511095154518,86.15183477158975 L 95.02431317826114,85.1335741430709 L 91.76249614280052,86.03455534309296 L 62.57996735998449,84.8872065933991 L 63.126753078898844,59.413868257266884 z" id="c01133"/>
		<path d="M 0.17261339744055215,276.2412266819801 L 26.992215473369797,276.7286209531076 L 27.625338669507403,279.2232772547307 L 26.84351346918148,280.115932027259 L 27.959514970905232,285.5097246744998 L 29.427473359518803,286.4588580038394 L 31.12800915732024,286.4307261575406 L 30.83175503696345,288.41069405930716 L 35.14014199814751,290.9993870705231 L 37.128122085674086,291.35781861216236 L 38.38391915979327,293.362732103672 L 39.675988645957815,294.32919933722445 L 37.52328585429186,298.4135248752323 L 40.87020565890114,302.6728439568194 L 39.27203996085398,308.4231263409895 L 35.56341794034726,308.92371909728274 L 36.3009661289954,319.2418496826483 L 34.364439619212654,321.7318684095026 L 30.7572988965308,323.20157342355054 L 8.683411990224618,322.77176326332545 L 1.2782592148988714,325.06980618633423 L 0.6891641464117311,299.3880965769566 L 0.661820615074003,298.16999583062943 L 0.31545705034338356,282.62412162551493 L 0.17261339744055215,276.2412266819801 z" id="c01129"/>
		<path d="M 195.0314445299929,284.6405128463643 L 200.01951366078023,271.12344275254804 L 200.57662326700802,263.26709142278804 L 205.56705054714763,253.4769053764321 L 216.8712366409912,251.97293500474547 L 218.1259796223935,240.9658830979034 L 228.95763251683613,240.8087227872218 L 234.17278417077716,247.9824549232412 L 243.68091821777156,247.8736687068955 L 242.85636120441924,253.76107678208407 L 242.5690838235345,255.8098632775862 L 239.3198774033511,262.01414711925656 L 237.367331055386,266.54634953424807 L 238.30290730933726,271.4677959502956 L 238.57767744886826,272.91205840571246 L 232.13757133338737,278.010326796326 L 217.8555316659382,277.72264444558454 L 217.854858984442,285.00670410659455 L 214.2375982935377,284.9277787510452 L 194.13706432778915,285.1796242752637 L 195.0314445299929,284.6405128463643 z" id="c01005"/>
		<path d="M 151.74074198699444,33.214794559658145 L 154.17729562703656,7.759918927245107 L 158.89894423665405,7.743753318717192 L 155.18264056906932,3.270287439352948 L 185.94972162452714,3.6885098435540375 L 203.7499384978344,3.867560155351259 L 204.44983415216055,8.922949575167358 L 205.31346310215713,14.247645738118438 L 202.2696456520548,16.641212655882942 L 191.36192259902472,33.979441693517124 L 177.61227623733586,45.51070786740521 L 175.44235601296126,45.91496062483022 L 172.52660847794357,46.38086017847854 L 170.4542024363485,47.16453501993996 L 169.76426652059033,43.31940911492951 L 166.27791595947212,36.07856047497501 L 163.8930236138371,36.03986568017105 L 154.69864879829908,35.970435464104185 L 154.54480830591237,35.97178717777833 L 153.94308126443838,35.97271377178064 L 153.9501980359649,36.00124765805387 L 151.74074198699444,33.214794559658145 z" id="c01071"/>
		<path d="M 217.854858984442,285.00670410659455 L 217.8555316659382,277.72264444558454 L 232.13757133338737,278.010326796326 L 238.57767744886826,272.91205840571246 L 239.0589580513587,275.4405708360751 L 238.608203513422,278.5928704972063 L 243.46373265232148,284.80345791307036 L 243.50792464901474,288.9288975219161 L 244.6736800835994,291.1055988480439 L 243.987550677798,293.21099333456067 L 242.5903881726565,297.49431416740185 L 243.01408844995947,300.58399244532666 L 241.15584228358964,306.31746351580415 L 241.5058560517991,309.7595138602773 L 241.44858354306083,310.8458763343277 L 234.97284638829402,310.9682105675962 L 217.8799711892841,310.4415521802703 L 217.854858984442,285.00670410659455 z" id="c01067"/>
		<path d="M 204.94266312624157,160.74466667631816 L 230.30879232601959,160.5815603013 L 233.68849778175684,180.44232337121502 L 233.8141186283876,181.17860242510488 L 235.48520525782808,184.0628684431356 L 238.0970666553833,190.3158703525975 L 226.77385330210993,192.12917188620065 L 206.30004054021882,191.7378968831189 L 205.01659124347017,192.39400627557862 L 204.94266312624157,160.74466667631816 z" id="c01017"/>
		<path d="M 187.32892441332606,65.73572658608123 L 192.1608349274407,64.5229308822624 L 202.31339447465243,53.07536060735731 L 207.01591563370985,44.177745336983676 L 210.2091979423477,42.3555652573232 L 210.95404121122183,46.48332873874367 L 212.88372809243504,57.41128591584569 L 213.733483909297,62.212968424114834 L 216.1203795358586,75.66643976031537 L 216.72087651379965,79.3645944924529 L 218.30603235800623,89.1089438165625 L 211.59461025364172,89.73739133617364 L 209.17482834781822,91.03911439835424 L 208.32708364076598,89.76228678335475 L 194.62497225661863,88.8080016898347 L 190.57619345258996,77.8035897705732 L 187.49709733896844,76.92524419481308 L 187.34131755784287,69.46188438100754 L 187.32892441332606,65.73572658608123 z" id="c01019"/>
		<path d="M 140.45374794599107,281.92944086832387 L 144.0907760394278,281.9198787782941 L 144.26802472773403,256.10626010080193 L 147.3436667348191,256.1944639438928 L 147.29165340078177,248.92978291789964 L 154.5961237420067,248.887129521827 L 154.66427886308898,256.1218899747852 L 162.5579327232548,256.0360958744122 L 161.93869125034456,270.73678522461245 L 165.58037696277052,270.70633623936027 L 165.63467498010542,281.3822933339835 L 163.29850675818133,285.2792571017116 L 165.71327050424816,285.1756875673097 L 165.83331406858196,291.86414907814736 L 162.19441294742253,292.4983570443294 L 162.2293336282168,300.00605900841475 L 156.284660323413,298.6870419204249 L 156.08577643758971,292.59602856868094 L 147.5824140577081,299.0043320733605 L 147.51458394022876,292.6718335711614 L 140.41054096548334,292.7819928053946 L 140.45374794599107,281.92944086832387 z" id="c01041"/>
		<path d="M 23.02614532244762,173.5717217765307 L 23.389632868661124,168.24762867786734 L 25.047611144844307,164.81931491619227 L 37.862046751322964,161.6680506196283 L 47.18747670427335,155.5480671611547 L 47.12367200554103,156.94912699086774 L 47.51837914872757,160.55217261774698 L 47.342064611580604,166.9526424890689 L 55.53044809814736,167.97606906071366 L 54.441611502516835,172.76877501287439 L 51.251806214855186,174.53590627938718 L 47.0959619495444,181.72457057141685 L 48.35860054760475,184.2837977589829 L 44.23899785843232,188.19607350245295 L 48.61378719566957,189.1208209350511 L 48.06752253156213,199.01651244935215 L 53.40876557606766,202.8077587202812 L 47.95707494289861,208.15260314562636 L 47.10953950238515,206.4457721543641 L 45.076177824920606,207.46938053767488 L 41.99284277925794,202.37469181527072 L 46.08048368292277,201.39004542141697 L 39.912719363525575,198.99305331975683 L 31.00200438896622,202.09206755478573 L 25.850924362299132,181.93206577843648 L 20.757876273875784,174.1322964280471 L 23.02614532244762,173.5717217765307 z" id="c01063"/>
		<path d="M 122.69405296896012,2.9689479413109323 L 144.41658351764755,3.244287327507305 L 154.66768932433394,3.269427906817794 L 155.18264056906932,3.270287439352948 L 158.89894423665405,7.743753318717192 L 154.17729562703656,7.759918927245107 L 151.74074198699444,33.214794559658145 L 153.9501980359649,36.00124765805387 L 153.68338729454604,43.24742953903452 L 147.184099424204,45.97905627425699 L 139.617281927021,43.99066424294882 L 138.48598013064438,40.37487239838824 L 136.5239158584944,37.40266628619716 L 131.83366728034446,40.07727838197686 L 128.88955047506545,36.91834893936724 L 121.90078697405811,39.83405792233126 L 122.69405296896012,2.9689479413109323 z" id="c01089"/>
		<path d="M 104.26016009651865,148.66172593991925 L 107.67343502933676,147.8840211175305 L 114.46618161353655,141.56528637070636 L 118.10750283643613,141.65718101605458 L 129.1530352996901,130.51455390750846 L 140.1952431763659,125.78109665792458 L 140.23633993837004,123.96302902822985 L 142.7016971978744,123.96407114323046 L 142.65166817769608,127.60115520368635 L 149.9121016611552,127.65401001144055 L 149.83224651992595,136.96451334945 L 152.44952976608752,140.01794606775604 L 151.28745216131298,144.8319875574021 L 144.19479834371228,149.42903316578492 L 140.9948106255468,154.61408330941023 L 141.8048893714654,160.9863108471754 L 140.3826431792551,162.18992462310263 L 139.90950130835023,167.85744211284356 L 133.41783896101487,163.68147922638462 L 114.30952554771319,163.36014780477302 L 114.3232968848768,165.1953732324286 L 104.27110223915624,155.40303173996514 L 104.26016009651865,148.66172593991925 z" id="c01117"/>
		<path d="M 197.70360893230188,195.00538988376758 L 198.89571443524343,193.74212368199883 L 205.01659124347017,192.39400627557862 L 206.30004054021882,191.7378968831189 L 226.77385330210993,192.12917188620065 L 238.0970666553833,190.3158703525975 L 238.8350976701026,192.08077149130233 L 240.69373322018154,198.12461430648625 L 241.6041126946603,202.28665601504895 L 242.05921968286617,204.36564533735836 L 246.53615171412363,209.2850364393173 L 246.96760746526792,210.4274529026093 L 242.8726659545892,213.57023493353122 L 223.43056467384136,214.0429944805217 L 223.71535901632086,218.87036108231143 L 216.35230668280894,218.98515441727645 L 216.004320511605,211.6971556363529 L 212.4096047487515,211.72238872652613 L 197.77823397149595,203.48484805102947 L 197.70360893230188,195.00538988376758 z" id="c01081"/>
		<path d="M 136.14021228852482,102.5351251217057 L 148.1233041480616,99.7772688383139 L 152.17999495213115,96.02957642988646 L 153.76871722580188,91.09470468795544 L 156.25709061991995,87.4650783748608 L 162.5907843612802,87.05603727262636 L 166.49738059968266,94.55016001906533 L 171.8830108794246,99.34355072012707 L 173.35329589178085,105.91490549420303 L 166.24335067707582,112.95753064094721 L 162.88361963177942,111.37957407281522 L 164.55619259075758,117.95432593276418 L 159.91248470643177,128.35798568625617 L 156.6506610321294,127.06089931750317 L 149.83224651992595,136.96451334945 L 149.9121016611552,127.65401001144055 L 142.65166817769608,127.60115520368635 L 142.7016971978744,123.96407114323046 L 140.23633993837004,123.96302902822985 L 138.54464672898823,105.62770436224604 L 136.09917144723084,105.5985086695848 L 136.14021228852482,102.5351251217057 z" id="c01115"/>
		<path d="M 166.24335067707582,112.95753064094721 L 173.35329589178085,105.91490549420303 L 171.8830108794246,99.34355072012707 L 178.59190175268907,93.30562974083699 L 187.16122546152653,89.74687595200633 L 194.48870618288797,91.57899608659208 L 194.62497225661863,88.8080016898347 L 208.32708364076598,89.76228678335475 L 209.17482834781822,91.03911439835424 L 201.68282977563325,105.10280238811255 L 200.4644153919042,117.31922707369759 L 190.663355960091,123.25752060636047 L 190.76702585793404,120.80547634145577 L 176.75394158694615,120.72112938296809 L 172.8717122236539,113.35120576627367 L 166.24335067707582,112.95753064094721 z" id="c01015"/>
		<path d="M 87.70992846203441,126.18206647490727 L 87.40261880115106,124.79943637912314 L 93.43587104199187,122.66888409234163 L 93.94404179182668,117.83514446242441 L 102.49336163076623,114.38347817437854 L 106.23703797242814,103.48873863777165 L 109.91194255703137,101.18445988710316 L 114.79877930020159,98.90088282836278 L 123.49454932823284,99.20547222770577 L 131.39393046258363,104.91984160204704 L 136.09917144723084,105.5985086695848 L 138.54464672898823,105.62770436224604 L 140.23633993837004,123.96302902822985 L 140.1952431763659,125.78109665792458 L 129.1530352996901,130.51455390750846 L 118.10750283643613,141.65718101605458 L 114.46618161353655,141.56528637070636 L 107.67343502933676,147.8840211175305 L 104.26016009651865,148.66172593991925 L 101.5298707481412,148.59259191480197 L 101.55736946879253,146.1667895513755 L 100.93416421501958,146.15263748476326 L 100.94005035820534,145.8464938247987 L 100.03153440643061,145.8369727679603 L 100.04602650972285,144.9170796046017 L 97.2910666271716,144.86933159886476 L 97.27969450963067,143.60143289084996 L 94.8339485600993,143.52271961613917 L 94.83751777600865,142.31716761511834 L 93.61251192471849,142.29309735100142 L 93.61181706049696,141.71656944381502 L 92.56990901551481,140.44443371227396 L 82.42399957948305,129.65348475830635 L 87.70992846203441,126.18206647490727 z" id="c01073"/>
		<path d="M 176.28313163058573,232.33678200720144 L 177.18023718304042,230.5170122364263 L 181.95447115907254,230.35191020021253 L 183.41684799633902,230.30239927323638 L 183.4290330202415,227.7709540522141 L 186.43039348347293,233.8968715469577 L 216.44248761463692,233.62091618496436 L 216.90353921212372,240.9789427692959 L 218.1259796223935,240.9658830979034 L 216.8712366409912,251.97293500474547 L 205.56705054714763,253.4769053764321 L 200.57662326700802,263.26709142278804 L 191.06948767227647,263.269791715387 L 191.13779547732227,256.01074494500864 L 184.42236469602364,256.01058860480356 L 183.7636844860305,249.3191008242786 L 180.01918714417997,248.1015409053269 L 176.42138792950212,249.0025677377482 L 176.36135598073102,241.43756374750328 L 176.28313163058573,232.33678200720144 z" id="c01011"/>
		<path d="M 162.5579327232548,256.0360958744122 L 176.50269979817648,255.97764128121983 L 176.42138792950212,249.0025677377482 L 180.01918714417997,248.1015409053269 L 183.7636844860305,249.3191008242786 L 184.42236469602364,256.01058860480356 L 191.13779547732227,256.01074494500864 L 191.06948767227647,263.269791715387 L 200.57662326700802,263.26709142278804 L 200.01951366078023,271.12344275254804 L 195.0314445299929,284.6405128463643 L 194.13706432778915,285.1796242752637 L 191.21416979185582,285.1883696272728 L 165.71327050424816,285.1756875673097 L 163.29850675818133,285.2792571017116 L 165.63467498010542,281.3822933339835 L 165.58037696277052,270.70633623936027 L 161.93869125034456,270.73678522461245 L 162.5579327232548,256.0360958744122 z" id="c01109"/>
		<path d="M 7.233766890294155,202.80658790134427 L 8.627104209251641,191.65869999289774 L 10.885567450613843,173.54760457564282 L 11.531431382844474,168.35874207456294 L 23.389632868661124,168.24762867786734 L 23.02614532244762,173.5717217765307 L 20.757876273875784,174.1322964280471 L 25.850924362299132,181.93206577843648 L 31.00200438896622,202.09206755478573 L 39.912719363525575,198.99305331975683 L 46.08048368292277,201.39004542141697 L 41.99284277925794,202.37469181527072 L 45.076177824920606,207.46938053767488 L 32.29101621495851,215.44911231222392 L 31.150524165391207,220.15114379453425 L 39.24468658321846,225.87464642151667 L 4.4186674698456105,225.27156072351772 L 7.233766890294155,202.80658790134427 z" id="c01119"/>
		<path d="M 25.090903741420163,0.0 L 39.04525616286994,0.49180262348449144 L 40.08494095378124,0.5167042558725325 L 49.23471072015679,0.7290551084408553 L 64.8354571446177,1.1876276905438818 L 66.13696033044226,1.2286247884410237 L 92.40833359205025,2.003325170456036 L 92.9151890307156,2.0172816593735425 L 93.32255552173658,2.0311733777075114 L 92.82559446704524,17.326394063464402 L 88.4049898766501,20.81281504779769 L 89.60289411271313,22.07868131870072 L 87.02527043191888,22.694846265454046 L 83.8872423826555,18.829316067561454 L 78.21822828634485,18.446614457732547 L 71.51695296084569,15.631164144057275 L 51.874028334214735,23.66143223058005 L 44.179004471794435,17.450699906551087 L 40.668591630206514,10.846508740800404 L 32.098842482796485,9.850744826392019 L 28.249811478360787,7.237360146571792 L 25.265473507635924,1.040887808134681 L 25.090903741420163,0.0 z" id="c01077"/>
		<path d="M 25.067430793428482,255.70856266958393 L 28.551107511592335,252.4435969876975 L 57.44587470153145,252.89009379445787 L 57.34875520341802,262.5508470732404 L 60.61321836905123,266.6691287725987 L 69.11772639673023,266.6265299197327 L 67.86358784854083,277.5905262657489 L 64.24025445605542,277.5930020613839 L 64.1520970916587,289.5874539164876 L 60.210785401260196,292.4093180238199 L 63.399711930312506,299.47718334328084 L 56.80414901297406,300.3662468750538 L 48.116164860011814,308.4484209341524 L 49.48506311513841,310.7563362399012 L 46.72869677606966,308.89635282923416 L 44.30738535089409,316.2045886245423 L 36.3009661289954,319.2418496826483 L 35.56341794034726,308.92371909728274 L 39.27203996085398,308.4231263409895 L 40.87020565890114,302.6728439568194 L 37.52328585429186,298.4135248752323 L 39.675988645957815,294.32919933722445 L 38.38391915979327,293.362732103672 L 37.128122085674086,291.35781861216236 L 35.14014199814751,290.9993870705231 L 30.83175503696345,288.41069405930716 L 31.12800915732024,286.4307261575406 L 29.427473359518803,286.4588580038394 L 27.959514970905232,285.5097246744998 L 26.84351346918148,280.115932027259 L 27.625338669507403,279.2232772547307 L 26.992215473369797,276.7286209531076 L 20.62025439971142,266.9593940668214 L 25.067430793428482,255.70856266958393 z" id="c01025"/>
		<path d="M 25.723977171249974,251.0419868306606 L 33.60967052674762,236.23414937123394 L 32.922059223783265,227.86622206571315 L 39.24468658321846,225.87464642151667 L 31.150524165391207,220.15114379453425 L 32.29101621495851,215.44911231222392 L 45.076177824920606,207.46938053767488 L 47.10953950238515,206.4457721543641 L 47.95707494289861,208.15260314562636 L 53.90655476156798,208.26313894072896 L 53.825959336866305,211.9073752282237 L 68.29456620852423,212.05786872912884 L 68.0774556129481,226.6585473419538 L 71.71178795389429,226.68819334064955 L 71.71928729214955,230.2565423845551 L 68.74887830027987,230.1208321405072 L 68.01464175975572,241.2396953627006 L 60.75777540447443,241.16183121412965 L 60.67075035783843,251.76343506099295 L 57.44587470153145,252.89009379445787 L 28.551107511592335,252.4435969876975 L 25.723977171249974,251.0419868306606 z" id="c01091"/>
		<path d="M 57.44587470153145,252.89009379445787 L 60.67075035783843,251.76343506099295 L 60.75777540447443,241.16183121412965 L 68.01464175975572,241.2396953627006 L 68.74887830027987,230.1208321405072 L 71.71928729214955,230.2565423845551 L 82.1088437877374,235.91112034624567 L 92.38850643372412,248.7110030926634 L 111.66558574746666,248.88878835046233 L 115.25066862083757,248.89168610058786 L 115.11079111563615,256.09114747204137 L 111.45274570384768,256.0969333268534 L 111.4896379694505,267.04614359821636 L 69.11772639673023,266.6265299197327 L 60.61321836905123,266.6691287725987 L 57.34875520341802,262.5508470732404 L 57.44587470153145,252.89009379445787 z" id="c01131"/>
		<path d="M 48.116164860011814,308.4484209341524 L 56.80414901297406,300.3662468750538 L 63.399711930312506,299.47718334328084 L 60.210785401260196,292.4093180238199 L 64.1520970916587,289.5874539164876 L 64.24025445605542,277.5930020613839 L 67.86358784854083,277.5905262657489 L 69.11772639673023,266.6265299197327 L 111.4896379694505,267.04614359821636 L 111.49702448085148,273.5290226254017 L 101.09969781218699,276.3184729808592 L 95.02896198923891,282.5919546495038 L 92.65041061532742,292.82836175828965 L 73.66682406950028,314.23142974843137 L 64.16253243103154,316.85405177848844 L 60.121987205058986,315.355298506252 L 52.90123278050573,310.33257019833337 L 49.48506311513841,310.7563362399012 L 48.116164860011814,308.4484209341524 z" id="c01099"/>
		<path d="M 62.57996735998449,84.8872065933991 L 91.76249614280052,86.03455534309296 L 95.02431317826114,85.1335741430709 L 96.33511095154518,86.15183477158975 L 100.35033400254339,94.82243910153333 L 109.27514822395858,97.59000905231017 L 109.91194255703137,101.18445988710316 L 106.23703797242814,103.48873863777165 L 102.49336163076623,114.38347817437854 L 93.94404179182668,117.83514446242441 L 93.43587104199187,122.66888409234163 L 87.40261880115106,124.79943637912314 L 87.70992846203441,126.18206647490727 L 84.11932622106535,126.0281702071177 L 84.18636481420936,119.90839603972553 L 80.51341430334573,119.8821989905837 L 76.84941770492792,118.57041088447936 L 76.95136303695982,111.29820844310487 L 69.6551629834134,110.93661974605175 L 69.66902580605027,96.25972451176257 L 62.394182702944946,95.76956239677106 L 62.46515492046909,92.15477857151326 L 62.57996735998449,84.8872065933991 z" id="c01127"/>
		<path d="M 104.41391157731756,182.87863017103805 L 114.50295169061792,183.04938443952602 L 114.3232968848768,165.1953732324286 L 114.30952554771319,163.36014780477302 L 133.41783896101487,163.68147922638462 L 139.90950130835023,167.85744211284356 L 139.95757326993925,175.47846180385346 L 144.46558492461767,180.9931777991874 L 144.0538398951985,185.15110989739162 L 149.81621518963468,190.22259190016155 L 147.10657198555936,190.45797624318797 L 147.10228425056795,194.06776735498468 L 125.83204970755204,194.06263158426037 L 125.86014206294773,197.73614715738688 L 111.43002303832074,197.3990036538288 L 104.35713229398173,197.39862801670506 L 104.41175768204495,191.86203427804216 L 104.41391157731756,182.87863017103805 z" id="c01021"/>
		<path d="M 60.121987205058986,315.355298506252 L 64.16253243103154,316.85405177848844 L 73.66682406950028,314.23142974843137 L 121.28008825641746,314.7001350601843 L 120.62407439016772,319.6275026637588 L 125.80414648169364,320.5073374720451 L 125.68668887503044,335.8196704361268 L 126.5426048088001,336.88709402731996 L 119.5310277046568,336.7648919550318 L 116.2006951343199,336.7046957856742 L 109.30238872666389,336.6127287559456 L 92.4085499562171,336.3160519692602 L 92.33649333819785,336.31553839364676 L 81.64547245896331,336.2321503597083 L 73.47127368253261,336.14819964983286 L 66.72460238699477,336.0910392724274 L 61.017842934162545,336.01333317131633 L 59.83113179759363,335.76386783393326 L 60.121987205058986,315.355298506252 z" id="c01053"/>
	</g>
</svg>