<?xml version="1.0" encoding="UTF-8"?>
<svg baseProfile="full" fill="#d0d0d0" height="400.0" stroke="#ffffff" stroke-width="1" version="1.1" width="344.97227208131505" xmlns="http://www.w3.org/2000/svg" xmlns:ev="http://www.w3.org/2001/xml-events" xmlns:xlink="http://www.w3.org/1999/xlink">
	<defs/>
	<g id="counties"><path d="M 90.95589828573117,105.14318537102612 L 100.10275646368197,106.78354724067475 L 101.59414855156348,108.75802237538305 L 111.4189491038632,114.88896169736455 L 112.68223553936176,117.48583340602475 L 124.07349196612674,121.09082979665348 L 127.52891441815281,120.74794513314609 L 136.30241672631192,126.09296375498143 L 142.13187405347284,124.43264919429588 L 142.00144472413683,132.22884802683072 L 148.14665249063782,132.3372733867689 L 148.16314658523828,144.6405120593245 L 167.02480258336448,144.48898971897717 L 180.30338969895314,144.12505124333106 L 180.32597056618536,156.5726538222666 L 193.4261903181271,156.6216018485 L 193.35196062109586,179.8418508313738 L 193.38710599708142,182.10871289261254 L 187.2653915457198,185.8607122146052 L 186.4194244863377,191.48433483416713 L 183.75041255698417,201.64905009442882 L 197.91535943428536,202.32942000585015 L 196.97152029631917,212.95255140887681 L 183.49507314688245,212.9906347813472 L 157.81416300765528,209.5919698914959 L 155.99475431921533,214.75792173532315 L 151.27173459234737,221.21384217360986 L 123.94708773705808,212.80239515191585 L 89.46545492959379,212.47179942074624 L 89.79042036624502,190.10364328988388 L 90.93930853399836,106.520861593358 L 90.95589828573117,105.14318537102612 z" id="c04025"/>
		<path d="M 205.34877781331045,386.8422710638516 L 217.56161991711096,386.7442112935253 L 217.43495997979238,372.4193977203783 L 223.80032848457466,372.34847571345335 L 260.12445340204056,371.6110539237791 L 259.7274300546908,379.85149908184167 L 260.0490898716078,399.5501608974907 L 223.00611805461514,400.0 L 205.39111071023635,393.6194540607854 L 205.34877781331045,386.8422710638516 z" id="c04023"/>
		<path d="M 155.28260586929503,305.35286316909105 L 155.47799529408533,265.8251688193376 L 155.44154800988076,261.37396535700816 L 156.09922213002812,264.57503719362836 L 162.55786140492893,268.8002346219151 L 173.70004225750833,268.806165698687 L 175.06526093153008,268.88472791354195 L 185.92264734957047,268.79636224635095 L 192.015687353441,268.7258078241631 L 192.07460462962143,250.4510242586019 L 223.87723763386663,250.2500476454314 L 227.79539087554664,258.91397778351023 L 228.9676572852697,263.3221233676838 L 239.49744897419072,283.95536919306335 L 242.68836861477797,277.8679746906735 L 248.12454649006426,272.68846021173505 L 250.43924963912286,273.28054657018674 L 258.9088774834916,268.9136318280561 L 259.58465129850686,315.2353422205287 L 259.42402509554836,316.6780713101276 L 236.20131189453724,316.96389383488804 L 235.21320003551202,317.15920165120156 L 205.9115167371103,318.07230616377143 L 179.6896792542994,317.78837261953436 L 155.2461523529044,317.7643041316974 L 155.28260586929503,305.35286316909105 z" id="c04021"/>
		<path d="M 237.97882739023035,1.7493398224301784 L 253.78351408443288,1.8977076965308814 L 280.23190293392406,1.4325737935814966 L 282.0899342125907,95.17633436085772 L 292.0447059439796,94.98742153881695 L 291.2964636455829,105.19067353965417 L 292.2645393532795,154.01415781115574 L 292.1770595697155,166.31670676135263 L 291.4514196858705,171.98927639540204 L 292.5581980957533,178.53349505720723 L 292.41723068657245,202.94355385236767 L 292.9013398213423,227.38999617101868 L 290.99640818588597,227.42114049968018 L 291.2905561894075,242.15638070386314 L 290.59046507193943,241.66145023872528 L 284.87494157110046,241.6424928382255 L 284.32169701211683,211.93971117213317 L 240.4717416342691,212.59923944363433 L 240.26034991769077,194.11945075394308 L 239.62398402835902,140.23143814400422 L 237.97882739023035,1.7493398224301784 z" id="c04017"/>
		<path d="M 88.03470241614534,317.33467587677774 L 130.17774137170267,317.74312613717757 L 155.2461523529044,317.7643041316974 L 179.6896792542994,317.78837261953436 L 205.9115167371103,318.07230616377143 L 235.21320003551202,317.15920165120156 L 236.20131189453724,316.96389383488804 L 259.42402509554836,316.6780713101276 L 259.53828555852743,322.7446339457126 L 260.12445340204056,371.6110539237791 L 223.80032848457466,372.34847571345335 L 217.43495997979238,372.4193977203783 L 217.56161991711096,386.7442112935253 L 205.34877781331045,386.8422710638516 L 205.39111071023635,393.6194540607854 L 145.42447063870685,371.45061931856645 L 87.61121495614115,349.96291298600823 L 88.03470241614534,317.33467587677774 z" id="c04019"/>
		<path d="M 314.4376689908488,235.70133428107687 L 315.27217761004215,232.96223558446886 L 321.9694125460631,229.4741982110084 L 322.84140457117957,226.68680299701393 L 340.5487906669026,226.2695668629926 L 341.2242630847017,252.0842047414109 L 341.6159782285874,266.18449735789255 L 341.61611424355203,266.18941008607396 L 342.4493809384869,296.4577289744422 L 342.449811421627,296.47345604624024 L 343.08625709238436,321.1310935485945 L 339.1225426976025,321.23806033893453 L 332.2783062085736,314.19654772700227 L 333.2661529870678,306.67532192538675 L 330.7760648838654,299.2792113061194 L 325.35625736983053,292.29914086059944 L 315.3575367996349,276.0197325528028 L 314.4376689908488,235.70133428107687 z" id="c04011"/>
		<path d="M 92.34275626514194,65.22125714012842 L 97.7541968613627,65.691758776802 L 99.41668366993224,61.37333366023682 L 102.82659709295206,60.47090476276288 L 110.17416687913985,55.45887717145945 L 116.21927531576533,54.48993594632603 L 118.3952848266016,52.5018655740722 L 122.52412705570568,52.35432237489647 L 126.45080585756865,48.1080340728831 L 128.85800417817154,48.43166649445867 L 131.8424148105273,44.947030318966206 L 132.25262358897692,39.112918288854864 L 130.1892946334824,34.2644116734478 L 132.4323519131404,30.602878129038654 L 131.46976101795238,25.080652244595754 L 133.71498364705712,14.040241778988404 L 137.78173617066358,5.605039571648523 L 137.28132222908133,2.2093699249953564 L 147.469230624852,2.2465205729049957 L 200.6886295664808,2.197161327737909 L 201.07809913807208,2.194853102536311 L 208.26441946759292,2.222828726387537 L 220.19210848590347,1.9944547161264976 L 237.97882739023035,1.7493398224301784 L 239.62398402835902,140.23143814400422 L 240.26034991769077,194.11945075394308 L 238.34153322383082,191.57536576650503 L 234.58205257111902,193.90863912389727 L 228.09345102577754,190.65527376650124 L 220.02109656707808,184.9722208715495 L 217.09788320359945,186.4865637448746 L 211.05504616952888,181.04769165489296 L 202.5215686292996,183.00781437559417 L 201.2992409277645,186.4376995497741 L 201.0149448969236,182.23175717516713 L 195.5157053168618,182.73561905143538 L 198.15869630302572,180.48730450123435 L 196.3827715495996,177.98242327741903 L 193.35196062109586,179.8418508313738 L 193.4261903181271,156.6216018485 L 180.32597056618536,156.5726538222666 L 180.30338969895314,144.12505124333106 L 167.02480258336448,144.48898971897717 L 148.16314658523828,144.6405120593245 L 148.14665249063782,132.3372733867689 L 142.00144472413683,132.22884802683072 L 142.13187405347284,124.43264919429588 L 136.30241672631192,126.09296375498143 L 127.52891441815281,120.74794513314609 L 124.07349196612674,121.09082979665348 L 112.68223553936176,117.48583340602475 L 111.4189491038632,114.88896169736455 L 101.59414855156348,108.75802237538305 L 100.10275646368197,106.78354724067475 L 90.95589828573117,105.14318537102612 L 91.24230827168039,85.83497083934493 L 92.64787731249474,81.54873738728172 L 91.30791682114076,78.05241466524735 L 92.368414079631,74.7299200552275 L 90.33497748633943,69.15316101085696 L 92.34275626514194,65.22125714012842 z" id="c04005"/>
		<path d="M 186.4194244863377,191.48433483416713 L 187.2653915457198,185.8607122146052 L 193.38710599708142,182.10871289261254 L 193.35196062109586,179.8418508313738 L 196.3827715495996,177.98242327741903 L 198.15869630302572,180.48730450123435 L 195.5157053168618,182.73561905143538 L 201.0149448969236,182.23175717516713 L 201.2992409277645,186.4376995497741 L 202.5215686292996,183.00781437559417 L 211.05504616952888,181.04769165489296 L 217.09788320359945,186.4865637448746 L 220.02109656707808,184.9722208715495 L 228.09345102577754,190.65527376650124 L 234.58205257111902,193.90863912389727 L 238.34153322383082,191.57536576650503 L 240.26034991769077,194.11945075394308 L 240.4717416342691,212.59923944363433 L 284.32169701211683,211.93971117213317 L 284.87494157110046,241.6424928382255 L 285.01908872163904,249.43538596625677 L 275.13162057369476,250.60808457607266 L 265.0398350622196,252.49884480531372 L 259.16445411608953,255.77203867378537 L 258.32781494685787,261.8494971635694 L 261.7574317469892,268.57198738825065 L 258.9088774834916,268.9136318280561 L 250.43924963912286,273.28054657018674 L 248.12454649006426,272.68846021173505 L 242.68836861477797,277.8679746906735 L 239.49744897419072,283.95536919306335 L 228.9676572852697,263.3221233676838 L 227.79539087554664,258.91397778351023 L 223.87723763386663,250.2500476454314 L 217.09857533122843,235.4524515052064 L 213.10267678626616,240.75602487854138 L 209.29492436787044,236.9250531203326 L 203.63203072179914,229.8770111812777 L 204.19584388159046,225.26431045886162 L 199.56180110586084,218.5522591602953 L 199.8764030523695,212.84449788105644 L 196.97152029631917,212.95255140887681 L 197.91535943428536,202.32942000585015 L 183.75041255698417,201.64905009442882 L 186.4194244863377,191.48433483416713 z" id="c04007"/>
		<path d="M 280.23190293392406,1.4325737935814966 L 308.69862532621215,0.7039384675242657 L 334.0584123383896,0.0 L 334.3101618803508,8.745676831000816 L 335.8806386843508,61.95911361408449 L 336.1095708121008,69.98947624889236 L 336.3549194242294,78.62204222536742 L 336.88569809553155,97.27355510040819 L 337.3693477785569,114.87808458719077 L 337.77712802957166,128.08784182929762 L 338.2426660903711,143.23479813460375 L 338.24288252903705,143.24185686823463 L 338.99019054947286,169.9587036479163 L 339.10131559286,173.95446222688201 L 340.36815255966417,219.41269976429987 L 340.5487906669026,226.2695668629926 L 322.84140457117957,226.68680299701393 L 321.9694125460631,229.4741982110084 L 315.27217761004215,232.96223558446886 L 314.4376689908488,235.70133428107687 L 296.60916091980533,248.1001799204272 L 291.2905561894075,242.15638070386314 L 290.99640818588597,227.42114049968018 L 292.9013398213423,227.38999617101868 L 292.41723068657245,202.94355385236767 L 292.5581980957533,178.53349505720723 L 291.4514196858705,171.98927639540204 L 292.1770595697155,166.31670676135263 L 292.2645393532795,154.01415781115574 L 291.2964636455829,105.19067353965417 L 292.0447059439796,94.98742153881695 L 282.0899342125907,95.17633436085772 L 280.23190293392406,1.4325737935814966 z" id="c04001"/>
		<path d="M 1.0178058497735738,309.36676440521586 L 0.4856121226240849,307.7013002040193 L 3.1871685091034654,305.50690441197486 L 6.00762256210631,300.70812194466066 L 6.875735977859622,299.12792167446764 L 9.130315637734558,299.703642462156 L 12.115777810355732,299.30090898082983 L 14.898507005993427,298.9242066137002 L 17.268962180844614,296.5185173437382 L 21.09798069798869,292.2111198401515 L 21.540440127268255,288.23691658824146 L 20.777240954347825,286.6910155748225 L 20.58327746439869,283.28386056371744 L 18.89535769987323,279.63235509981394 L 18.53387595596451,279.5348349212522 L 33.24970234101618,279.5133078050016 L 33.93606187909207,249.0143847982911 L 52.25230052770159,249.40099632974528 L 52.13383482785688,255.5118747537551 L 88.7903562730687,256.1133327066069 L 88.29163037972397,298.9008528245762 L 88.03470241614534,317.33467587677774 L 87.61121495614115,349.96291298600823 L 62.83905552219098,340.5513004038396 L 0.0,316.31909718688763 L 0.1780717236418845,314.31750590605213 L 1.177298277600073,312.3687457119687 L 0.1007048541945153,311.36766913309054 L 1.0178058497735738,309.36676440521586 z" id="c04027"/>
		<path d="M 259.7274300546908,379.85149908184167 L 260.12445340204056,371.6110539237791 L 259.53828555852743,322.7446339457126 L 320.192935096911,321.62109866296237 L 332.36323680684075,321.5241403881087 L 333.2339311855227,321.3893360197449 L 339.1225426976025,321.23806033893453 L 343.08625709238436,321.1310935485945 L 343.68811148297544,345.1625398115839 L 344.1692950049285,365.350350617243 L 344.97227208131505,397.9279861134219 L 297.9989265379968,398.874706864416 L 260.0490898716078,399.5501608974907 L 259.7274300546908,379.85149908184167 z" id="c04003"/>
		<path d="M 88.97105952156758,242.84223629117372 L 89.46545492959379,212.47179942074624 L 123.94708773705808,212.80239515191585 L 151.27173459234737,221.21384217360986 L 155.99475431921533,214.75792173532315 L 157.81416300765528,209.5919698914959 L 183.49507314688245,212.9906347813472 L 196.97152029631917,212.95255140887681 L 199.8764030523695,212.84449788105644 L 199.56180110586084,218.5522591602953 L 204.19584388159046,225.26431045886162 L 203.63203072179914,229.8770111812777 L 209.29492436787044,236.9250531203326 L 213.10267678626616,240.75602487854138 L 217.09857533122843,235.4524515052064 L 223.87723763386663,250.2500476454314 L 192.07460462962143,250.4510242586019 L 192.015687353441,268.7258078241631 L 185.92264734957047,268.79636224635095 L 175.06526093153008,268.88472791354195 L 173.70004225750833,268.806165698687 L 162.55786140492893,268.8002346219151 L 156.09922213002812,264.57503719362836 L 155.44154800988076,261.37396535700816 L 155.47799529408533,265.8251688193376 L 155.28260586929503,305.35286316909105 L 155.2461523529044,317.7643041316974 L 130.17774137170267,317.74312613717757 L 88.03470241614534,317.33467587677774 L 88.29163037972397,298.9008528245762 L 88.7903562730687,256.1133327066069 L 88.97105952156758,242.84223629117372 z" id="c04013"/>
		<path d="M 259.16445411608953,255.77203867378537 L 265.0398350622196,252.49884480531372 L 275.13162057369476,250.60808457607266 L 285.01908872163904,249.43538596625677 L 284.87494157110046,241.6424928382255 L 290.59046507193943,241.66145023872528 L 291.2905561894075,242.15638070386314 L 296.60916091980533,248.1001799204272 L 314.4376689908488,235.70133428107687 L 315.3575367996349,276.0197325528028 L 325.35625736983053,292.29914086059944 L 330.7760648838654,299.2792113061194 L 333.2661529870678,306.67532192538675 L 332.2783062085736,314.19654772700227 L 339.1225426976025,321.23806033893453 L 333.2339311855227,321.3893360197449 L 332.36323680684075,321.5241403881087 L 320.192935096911,321.62109866296237 L 259.53828555852743,322.7446339457126 L 259.42402509554836,316.6780713101276 L 259.58465129850686,315.2353422205287 L 258.9088774834916,268.9136318280561 L 261.7574317469892,268.57198738825065 L 258.32781494685787,261.8494971635694 L 259.16445411608953,255.77203867378537 z" id="c04009"/>
		<path d="M 11.16446147843914,65.29868075531311 L 11.642646927461037,62.93427537163793 L 15.6370175987376,62.136629139732584 L 17.88787708054613,60.53617865480895 L 21.088508326371574,59.87972821827346 L 24.522601261819602,60.01858202338529 L 25.888705603440528,61.5702441192474 L 28.069981962713697,61.837407890792676 L 29.91140330102083,60.52513439701335 L 32.46116324815305,60.77624094826059 L 34.38398843059936,63.29076909198542 L 35.512274100736484,66.47481211897862 L 38.058181775369924,68.46167126666296 L 41.27363675044082,69.95136944885758 L 44.82346131404269,69.40509460379569 L 45.64069929893849,67.41438341076095 L 47.93472064907405,62.65377748709993 L 51.067920420685155,57.63534512644208 L 51.1044789813577,52.380196231712254 L 51.228697330367176,48.39909977867313 L 51.55311484959316,28.838500908948998 L 51.889351768178045,12.046146827054729 L 52.111783101198405,1.0008017640088567 L 56.882260506537754,1.1317232621547717 L 113.17973229880975,2.0346304888172884 L 116.96937628431513,2.069308340448949 L 120.89467111873982,2.102403175620952 L 136.91391892311742,2.2076685410320653 L 137.28132222908133,2.2093699249953564 L 137.78173617066358,5.605039571648523 L 133.71498364705712,14.040241778988404 L 131.46976101795238,25.080652244595754 L 132.4323519131404,30.602878129038654 L 130.1892946334824,34.2644116734478 L 132.25262358897692,39.112918288854864 L 131.8424148105273,44.947030318966206 L 128.85800417817154,48.43166649445867 L 126.45080585756865,48.1080340728831 L 122.52412705570568,52.35432237489647 L 118.3952848266016,52.5018655740722 L 116.21927531576533,54.48993594632603 L 110.17416687913985,55.45887717145945 L 102.82659709295206,60.47090476276288 L 99.41668366993224,61.37333366023682 L 97.7541968613627,65.691758776802 L 92.34275626514194,65.22125714012842 L 90.33497748633943,69.15316101085696 L 92.368414079631,74.7299200552275 L 91.30791682114076,78.05241466524735 L 92.64787731249474,81.54873738728172 L 91.24230827168039,85.83497083934493 L 90.95589828573117,105.14318537102612 L 90.93930853399836,106.520861593358 L 89.79042036624502,190.10364328988388 L 87.60937464480082,191.89199234185452 L 77.77782708138352,190.73145902780567 L 73.80997511339638,196.0768172389859 L 69.3146133021275,197.38449538166432 L 66.55545541290061,195.18530198388854 L 49.06959748595599,193.47355862225749 L 42.74208596762204,190.2965129411697 L 42.73980108345593,190.10037772769925 L 40.94124775697866,187.31693250412252 L 35.705735235630456,183.23960503480131 L 31.652036890796264,179.72226066762747 L 29.123529804768822,179.6375526610669 L 29.27315821479198,174.99397726977753 L 26.818448896000803,170.42361011889946 L 24.525314463895512,162.60262541895034 L 23.093738909595583,160.20199027434015 L 18.306021151001808,153.72114561336005 L 15.060659690137038,149.58694411184715 L 15.461233017616737,144.6678822960795 L 15.35858200465726,140.5315654359909 L 15.97207071493559,135.86623852246262 L 16.37155875595432,132.1415023363576 L 17.569746582853742,132.21482614936696 L 19.12459807150759,131.01439408036768 L 18.52841432422277,122.30853540084851 L 16.506875153086405,111.91335483791075 L 14.436800111205557,109.04528694960256 L 14.663642243253445,103.78060567517466 L 15.38902156527904,97.73524861413658 L 13.404766737798106,94.82432834444039 L 13.115537982693969,89.03312287707861 L 12.91068583252206,83.34081523770364 L 14.956888402153274,79.84915362877035 L 13.281830120893524,77.2228237908585 L 11.6021351061259,74.21217991801853 L 11.072998433736043,69.5540443730276 L 11.157507727885859,65.62183346013698 L 11.16446147843914,65.29868075531311 z" id="c04015"/>
		<path d="M 6.961967182133868,252.51435822937975 L 10.012441885329254,251.66494363378396 L 12.30027280027179,251.4141564809994 L 12.675504006706618,250.66381697809157 L 14.654774777275067,246.70284562772306 L 19.039441911196235,242.48838927729008 L 18.866215028675267,238.66077210395673 L 19.19766010479821,234.80974661252475 L 20.439441379698813,232.63221072795483 L 20.979960866136004,230.80975436495413 L 20.565920287629556,227.89709443328817 L 19.770499550963265,223.14779687706493 L 20.703874874875552,220.60709271107177 L 20.588494048436417,218.04931588086947 L 19.099807275143025,216.05416781297754 L 20.638638480721706,214.07225068428485 L 23.93608232428034,210.381706006044 L 25.119456315226383,208.187544810324 L 25.498524673712172,205.6454256715423 L 25.64309260794681,204.67553974317786 L 26.9652763073282,203.39040501796075 L 30.384390426098147,201.86274079694627 L 33.662672090979534,199.67320013247155 L 37.37692933501181,198.33939917396108 L 40.47408728435067,194.68303513566536 L 42.77786127880402,193.35918425287275 L 42.74208596762204,190.2965129411697 L 49.06959748595599,193.47355862225749 L 66.55545541290061,195.18530198388854 L 69.3146133021275,197.38449538166432 L 73.80997511339638,196.0768172389859 L 77.77782708138352,190.73145902780567 L 87.60937464480082,191.89199234185452 L 89.79042036624502,190.10364328988388 L 89.46545492959379,212.47179942074624 L 88.97105952156758,242.84223629117372 L 88.7903562730687,256.1133327066069 L 52.13383482785688,255.5118747537551 L 52.25230052770159,249.40099632974528 L 33.93606187909207,249.0143847982911 L 33.24970234101618,279.5133078050016 L 18.53387595596451,279.5348349212522 L 15.144199974643758,278.61918747494377 L 11.992247172584532,278.9242996921781 L 9.490952696826374,278.37219159551586 L 7.524906739805169,273.58820966406824 L 9.20984270506959,269.82588155979084 L 9.415604743890363,264.85823007642864 L 9.675286171371306,263.08770984158224 L 6.859778535615906,260.7303867286391 L 7.828260041135426,258.27312870196073 L 7.964564934367719,254.5382628119054 L 6.961967182133868,252.51435822937975 z" id="c04012"/>
	</g>
</svg>