<?xml version="1.0" encoding="UTF-8"?>
<svg baseProfile="full" fill="#d0d0d0" height="349.2793868133271" stroke="#ffffff" stroke-width="1" version="1.1" width="400.0" xmlns="http://www.w3.org/2000/svg" xmlns:ev="http://www.w3.org/2001/xml-events" xmlns:xlink="http://www.w3.org/1999/xlink">
	<defs/>
	<g id="counties"><path d="M 310.4847292039127,23.811536629515285 L 310.4070112059942,10.677906323397512 L 307.44733550204916,2.200115463297341 L 308.93674642833054,2.179132003240966 L 324.1336148374479,1.9905698460699288 L 330.6779531667946,1.900701118707167 L 352.64119713934855,1.78977746072959 L 358.0054510883696,1.7537577570679608 L 359.0695933326728,5.25856369560345 L 359.9820841871086,9.693321505492506 L 365.2458505110953,12.456445386097954 L 365.5105923703704,15.368318150822436 L 365.57531332577753,20.71892936540242 L 361.5491056220163,24.51356597935417 L 358.34372321286924,29.689675776868377 L 355.69873050212783,31.235517714822333 L 345.0859629942211,31.258664618586337 L 345.08224692301854,25.441138939211637 L 305.9214011513085,25.22389356200314 L 310.4847292039127,23.811536629515285 z" id="c05021"/>
		<path d="M 51.685658690390106,183.23806665184887 L 56.71460717328433,178.65810415159442 L 61.06991234270355,178.87528557006848 L 69.86811473356565,175.65323295600928 L 95.74482830573733,176.23449154492005 L 95.0187368826658,181.99996009026617 L 94.21390041211298,210.54129345115476 L 94.06060308456793,216.28616126583304 L 88.25931962251052,216.07298946579664 L 50.69534997488822,214.52911341337676 L 51.685658690390106,183.23806665184887 z" id="c05097"/>
		<path d="M 258.17786510998496,130.3053270237561 L 255.6789100830407,121.93773909075166 L 255.61480817936172,114.76467977516506 L 262.2248715926222,110.88588489681716 L 262.96427234427995,107.79997403658916 L 270.6217551188333,107.07869590392724 L 270.79725786682025,115.84043288980426 L 288.0189795133872,116.02475211503364 L 287.9754927541547,136.47788603046212 L 287.88669187441707,151.08234242574613 L 279.35998414436307,151.01559164701087 L 272.20175639237334,150.89126085362065 L 267.6736647359198,152.82913377730767 L 267.5861974369649,160.03814346806527 L 261.5560586622122,160.04942848559148 L 261.86234372630406,146.23849250376625 L 253.57208369497337,142.557731457113 L 258.17786510998496,130.3053270237561 z" id="c05147"/>
		<path d="M 200.17333319656117,144.94464572919097 L 208.8621598482341,143.98032286136498 L 219.82890581338228,149.1041715406711 L 226.0625089328886,148.5141308940782 L 225.9854415783848,159.32107823807726 L 234.97645341925895,159.48943491350033 L 234.46605196862566,184.05736710382945 L 239.5889070366634,188.5987154205819 L 240.08403224565905,195.8393525143595 L 236.39365643704443,202.9141179364325 L 234.16299647134835,202.84642509802867 L 212.01133710652726,202.28445879835405 L 207.47727436779064,202.2179765367954 L 207.51859391885418,189.13143386032002 L 200.9958039362035,188.9641965909914 L 203.49360185141919,178.34031362806982 L 204.16059298215663,150.37577162406836 L 200.03501329176353,150.3314114191329 L 200.17333319656117,144.94464572919097 z" id="c05085"/>
		<path d="M 262.25562016761575,29.1824981194379 L 269.55133729679346,26.459952237205382 L 277.30239405469257,31.561098956202123 L 284.5968314859194,40.53806812687525 L 286.8385765624771,36.895175939679596 L 305.79940166907545,36.87539114878732 L 310.82470139989385,36.86022299523758 L 304.9976066292358,43.81639349829457 L 302.5989483908797,54.93387115185364 L 301.02184754817773,63.61231817116777 L 288.1132367565164,63.327359214506835 L 279.52039117239457,62.91469778854737 L 274.69268575959074,62.95142078670264 L 261.8727311133258,62.982575627241566 L 262.25562016761575,29.1824981194379 z" id="c05075"/>
		<path d="M 86.83274154802461,63.12591961614216 L 92.84540117024515,54.68315168249716 L 93.41551043495195,43.443900486147136 L 90.74603092494475,39.00381296479393 L 105.138042306266,39.54905633597645 L 108.00964733013907,39.707700596089914 L 133.8255250750962,40.50197632485022 L 134.2820195953953,44.81586498773768 L 134.01224402370522,52.922219026119556 L 132.92952856428414,79.26456517485619 L 115.68079332572869,78.672503112982 L 86.9442022811452,77.74065471269641 L 87.01710016897754,74.85250587454127 L 86.83274154802461,63.12591961614216 z" id="c05101"/>
		<path d="M 125.07175338723111,140.30542065642828 L 136.91717167894262,134.29125645469338 L 140.26882291133094,134.11160188165766 L 140.8647151393614,105.31528069484749 L 171.00865052526524,106.24623451955178 L 170.7983088008838,114.89582113123363 L 166.86792756822922,132.6159811336725 L 167.4200541439628,140.05828553492984 L 164.7087466969828,140.1849592934945 L 159.45708198369078,143.65433276564235 L 125.05445166003014,143.48387853043855 L 125.07175338723111,140.30542065642828 z" id="c05029"/>
		<path d="M 170.99568470838142,245.01739144905508 L 182.13541475609574,244.80552191388028 L 190.67264885582114,244.56352006264086 L 213.75604274205534,244.40317413764154 L 211.8887766442609,253.01925350079458 L 211.93152724700826,271.4226028826328 L 211.9443401531744,280.0902459484632 L 182.511914503826,279.70966410467906 L 181.6110435831987,276.2256653686374 L 182.25745891665218,271.0524529303029 L 182.00820118002113,267.77145969199864 L 172.24125387210248,253.39927192072952 L 170.99568470838142,245.01739144905508 z" id="c05025"/>
		<path d="M 235.5775088839848,52.19214995729789 L 236.16805312442722,31.531529929388153 L 234.76292212533198,27.09308362585665 L 244.8481832743003,27.389820282026328 L 244.82840139495408,18.703724784991806 L 253.783755713337,18.85306762639654 L 254.05342694161297,2.7522052122659058 L 257.4917718708979,2.7726989000011124 L 268.15323699201815,14.88356627066946 L 269.55133729679346,26.459952237205382 L 262.25562016761575,29.1824981194379 L 261.8727311133258,62.982575627241566 L 253.19081272317072,62.84626350782789 L 253.28731106360985,58.44583476289849 L 233.31817315340643,58.03512673616839 L 235.5775088839848,52.19214995729789 z" id="c05135"/>
		<path d="M 287.91723089930287,80.86837173711346 L 348.67231243404086,80.91846564926874 L 349.0932256085182,106.85759092118276 L 331.5829211189746,106.81920167588669 L 322.77529083999235,106.24424349270498 L 287.9796765284328,107.04587004537817 L 287.91723089930287,80.86837173711346 z" id="c05111"/>
		<path d="M 104.71463990878965,104.24487767848193 L 110.5816187105201,104.44831305934022 L 110.9359473212869,91.5129629036207 L 115.26128548030927,91.68683383455998 L 115.68079332572869,78.672503112982 L 132.92952856428414,79.26456517485619 L 144.38657693024126,79.58768824923267 L 143.95399529878583,96.79852747449749 L 140.8647151393614,105.31528069484749 L 140.26882291133094,134.11160188165766 L 136.91717167894262,134.29125645469338 L 128.43520339955364,134.4342178514414 L 123.08607632723096,139.3686522526845 L 115.80541263478685,127.66516126417805 L 105.9689266318478,119.38969949535726 L 104.28375065237744,118.36188940417341 L 104.71463990878965,104.24487767848193 z" id="c05115"/>
		<path d="M 143.95399529878583,96.79852747449749 L 144.38657693024126,79.58768824923267 L 158.8390223281522,80.09009747126196 L 158.99419440159576,72.89734791169275 L 176.22186393223757,73.20701989161293 L 176.0661553309012,80.40863937994449 L 190.46747265358948,80.83779960727809 L 189.3911197280683,115.4264169600269 L 170.7983088008838,114.89582113123363 L 171.00865052526524,106.24623451955178 L 140.8647151393614,105.31528069484749 L 143.95399529878583,96.79852747449749 z" id="c05141"/>
		<path d="M 209.93036302029415,302.9552633430032 L 211.92882289491826,297.4235355425953 L 211.9443401531744,280.0902459484632 L 211.93152724700826,271.4226028826328 L 237.79319150373266,271.3315591110744 L 246.58409509339717,272.17727198826384 L 255.47578848153003,272.42872619205195 L 255.33269491804373,293.9281427948278 L 255.09802915748548,311.26308541989425 L 210.75970057819913,310.46609920794685 L 209.93036302029415,302.9552633430032 z" id="c05043"/>
		<path d="M 94.21390041211298,210.54129345115476 L 131.96479356368144,211.78840246590832 L 134.78187604211382,200.2193391417159 L 144.79045886748662,200.55169389040523 L 153.6516487781466,203.64225708440406 L 154.95732138914676,209.4913287964345 L 153.98809194569873,235.73828914908015 L 136.84596867428527,234.98671758854863 L 124.32127821695865,234.95014641754904 L 124.6590424661327,226.85718604904508 L 111.25670297643062,222.6755588828229 L 98.2028720290262,222.2180612845927 L 94.06060308456793,216.28616126583304 L 94.21390041211298,210.54129345115476 z" id="c05059"/>
		<path d="M 164.7087466969828,140.1849592934945 L 167.4200541439628,140.05828553492984 L 166.86792756822922,132.6159811336725 L 170.7983088008838,114.89582113123363 L 189.3911197280683,115.4264169600269 L 200.87897175015172,115.54541310487367 L 200.17333319656117,144.94464572919097 L 200.03501329176353,150.3314114191329 L 191.36440789944473,150.09097248208747 L 191.15301271078204,158.7165942869033 L 175.67702766085802,158.25898118979694 L 174.2636585870324,167.13006264106207 L 170.4365360454238,156.3244224104703 L 165.46785161332312,156.06310017848793 L 161.12793718202676,151.8205515278828 L 164.7087466969828,140.1849592934945 z" id="c05045"/>
		<path d="M 154.95732138914676,209.4913287964345 L 161.50069455512033,205.42355965806308 L 176.68166923857686,205.8668522715999 L 176.79676187911338,201.52239655413575 L 189.74809234849124,201.78194644357927 L 192.85123617929716,201.86234515841815 L 192.39744777746628,227.89153100616568 L 190.67264885582114,244.56352006264086 L 182.13541475609574,244.80552191388028 L 176.4504799780486,239.23899083062523 L 169.2204411638855,236.36003109612633 L 153.98809194569873,235.73828914908015 L 154.95732138914676,209.4913287964345 z" id="c05053"/>
		<path d="M 192.718833781805,34.87896055222689 L 197.0677719722516,35.01779205207509 L 197.3141947671753,26.331531953915476 L 234.76292212533198,27.09308362585665 L 236.16805312442722,31.531529929388153 L 235.5775088839848,52.19214995729789 L 233.31817315340643,58.03512673616839 L 229.85707539340297,57.93248603934463 L 222.10849482283942,65.44113745745547 L 213.73530742718697,59.071553733508026 L 201.16985360630682,59.09914681778118 L 204.8132306199867,49.863375249177544 L 198.7327226053382,41.133745084971395 L 194.19796820528657,39.0829011563564 L 192.61878919876958,38.54009632153658 L 192.718833781805,34.87896055222689 z" id="c05065"/>
		<path d="M 105.45720594348946,3.700849122221508 L 106.20473741506932,2.1438983215336775 L 119.63576963822824,2.3431901803829267 L 141.44403003012118,2.5369762078858784 L 138.99996829057136,3.2424520789024336 L 138.17324139782505,40.63936781075028 L 133.8255250750962,40.50197632485022 L 108.00964733013907,39.707700596089914 L 105.138042306266,39.54905633597645 L 105.45720594348946,3.700849122221508 z" id="c05009"/>
		<path d="M 255.09802915748548,311.26308541989425 L 255.33269491804373,293.9281427948278 L 263.9612041661705,293.88335005645075 L 263.8835210388689,298.265678653363 L 272.61381290546944,298.43678181849504 L 275.92407536532147,295.4524303486949 L 275.10463043453404,297.200326445822 L 277.3179004911737,300.7959273442482 L 278.80333522013785,303.82596124854626 L 280.83915663891173,307.29829898161256 L 283.6880570405745,310.6518573660605 L 281.3569671562887,315.0501581983622 L 282.8038891505345,321.8567361013656 L 286.0927293173545,322.48306850541684 L 287.58177420988216,326.50895263282484 L 286.3226380176621,331.68702145687615 L 284.7011456745743,336.5881306597397 L 280.63371448071695,336.27602167133955 L 278.34088698807443,339.9384673414967 L 283.42623115380957,344.24495378179114 L 280.18447514504163,348.56669957743645 L 279.64972866954986,349.2790586515418 L 271.41653029932564,349.2793868133271 L 257.0915402787899,349.26107569809074 L 255.04682924380438,349.2565061991531 L 255.09802915748548,311.26308541989425 z" id="c05017"/>
		<path d="M 35.36855280628531,139.83185157770004 L 35.5622111815007,135.4997762621015 L 44.36528265198146,135.92261137083074 L 44.690965041407466,128.91209828970588 L 44.700262815570845,128.68962927258627 L 53.58386113797461,127.29816481434146 L 53.99683390167112,118.42537382555037 L 62.69236953545746,119.18078863911562 L 63.160591864595006,107.57639357106137 L 70.93047039512977,113.1468718071126 L 80.3305275537604,112.46018781829984 L 93.32523701815003,108.26656523719743 L 94.61338862532456,118.31941745421366 L 104.28375065237744,118.36188940417341 L 105.9689266318478,119.38969949535726 L 105.69285325467601,129.80296309617125 L 91.27431677842664,129.29000888165646 L 85.24798373799666,136.1845990325182 L 70.79570939714073,136.99730102519263 L 70.76480034069245,148.43355444244673 L 40.61305492317584,147.21022927746992 L 35.17985671775757,144.1947072581438 L 35.36855280628531,139.83185157770004 z" id="c05083"/>
		<path d="M 0.0,0.0 L 20.58367005044104,0.48219334652762275 L 43.36379210035315,1.038095488864094 L 52.817281024064656,1.2502160449420503 L 60.23513906589394,1.3740140592951813 L 58.10059451432042,13.347406587228196 L 64.03517663706201,20.54819263130473 L 59.69741857583196,20.380824927141745 L 58.06107250703812,27.54309163278394 L 51.121462421537395,30.51077463933012 L 22.154780236586785,28.821077347636503 L 21.76000072621455,36.01191641531038 L 17.25614164492227,40.16451681404349 L 4.3105853798394005,39.580934682923875 L 3.623143379585367,33.61849406115857 L 2.042697888060854,19.86922740959394 L 0.0,0.0 z" id="c05007"/>
		<path d="M 4.389102792055869,269.20672061066165 L 5.1325917597763695,254.15094849095132 L 10.81282463787974,253.85287170218885 L 12.36023747525044,258.8611428598967 L 24.65560579113239,268.37741505338676 L 40.89412324454858,270.7040603192866 L 47.62829125225088,273.9166681654267 L 47.753544379117564,273.92442214524215 L 46.90937882050613,281.96536686103593 L 58.39342240208596,288.11960000954616 L 58.12748273624479,288.7812984120912 L 55.801374862336885,287.9354510262494 L 54.95144148007383,288.18619114572186 L 55.17789014611341,289.135772056584 L 54.20776330016554,289.90703324551595 L 53.086195610659644,289.72219725729485 L 52.374434715596735,291.78171400386594 L 51.664752590735645,291.81148986950126 L 50.63856436611398,290.7851425737847 L 49.69809872820304,290.64234573396806 L 48.777956877289625,291.7021750279349 L 49.25227577447566,293.302241864101 L 48.8917512365529,294.1000911724027 L 48.0898321055968,294.07583357920754 L 47.32399994625061,293.22489389458997 L 46.593357990061484,290.75855819019273 L 44.93680690206711,295.42752880689665 L 40.19076201600947,293.544074434532 L 37.83730275683297,291.46068859008875 L 32.00769844509003,290.7958044965455 L 28.686875255022326,289.2881613379745 L 26.13307013490992,291.3755717826731 L 24.04890296244265,290.7249655927425 L 18.636015117634994,291.8189830881024 L 15.762525821468348,291.4962258655029 L 14.431232842651806,292.5205011317002 L 11.638431344549401,291.556891354978 L 9.091700725946952,290.33550774173347 L 3.691089952443361,284.1877716927435 L 4.389102792055869,269.20672061066165 z" id="c05081"/>
		<path d="M 53.25233465111895,41.750549224207845 L 58.06107250703812,27.54309163278394 L 59.69741857583196,20.380824927141745 L 64.03517663706201,20.54819263130473 L 76.68026515066683,21.10729288629508 L 79.55180480551822,31.272412005895415 L 84.97937908393568,38.79936430563494 L 90.74603092494475,39.00381296479393 L 93.41551043495195,43.443900486147136 L 92.84540117024515,54.68315168249716 L 86.83274154802461,63.12591961614216 L 87.01710016897754,74.85250587454127 L 72.72309510867152,74.1188488266833 L 56.13407509100452,73.28679701466257 L 55.325028563778986,74.69575318183895 L 51.115636894218795,74.49912912240053 L 53.25233465111895,41.750549224207845 z" id="c05087"/>
		<path d="M 60.23513906589394,1.3740140592951813 L 73.58886669594762,1.579978593263025 L 82.88352416322984,1.7522800991045022 L 95.49557345808029,1.9692448771994397 L 104.45010654935253,2.116239623395821 L 106.20473741506932,2.1438983215336775 L 105.45720594348946,3.700849122221508 L 105.138042306266,39.54905633597645 L 90.74603092494475,39.00381296479393 L 84.97937908393568,38.79936430563494 L 79.55180480551822,31.272412005895415 L 76.68026515066683,21.10729288629508 L 64.03517663706201,20.54819263130473 L 58.10059451432042,13.347406587228196 L 60.23513906589394,1.3740140592951813 z" id="c05015"/>
		<path d="M 247.24336194768682,252.986653251095 L 257.71461030151943,249.19657618728382 L 263.872620572735,255.06546476830746 L 272.8025857635599,253.1368520978364 L 280.11230693276394,256.66775369560685 L 276.45914511878516,243.46795687335108 L 282.7229139878365,238.63764348709896 L 294.653203363681,238.56788576365506 L 297.0081669284316,238.74532019129512 L 296.8895737505136,239.4691289609656 L 300.63436310724427,240.88887947107293 L 302.8534186054108,243.10956048365117 L 301.425975381821,247.60764164880717 L 297.28523850358505,248.52548072146743 L 294.2232356630007,250.33679024326904 L 292.17697892727034,252.6481914341463 L 288.5839163411711,251.88202913937917 L 285.27220926538865,254.2677898873586 L 289.6477128967204,255.97141024252707 L 290.4734318803338,259.5130965082719 L 287.61741067404154,262.5631532563355 L 288.3636992513113,267.8464423084483 L 290.66981084272896,269.6331514540347 L 290.57647198992214,273.8316112379251 L 285.6994432252916,272.609901500176 L 283.54852434471997,272.81158249927125 L 280.9375106743423,275.55477575729236 L 286.59341932439145,278.7533854289358 L 284.5188498399373,284.1143231540483 L 278.11159293813574,285.104873496364 L 282.0785590983127,289.05918175451797 L 277.2884827989877,292.5403207921619 L 275.92407536532147,295.4524303486949 L 272.61381290546944,298.43678181849504 L 263.8835210388689,298.265678653363 L 263.9612041661705,293.88335005645075 L 255.33269491804373,293.9281427948278 L 255.47578848153003,272.42872619205195 L 246.58409509339717,272.17727198826384 L 247.24336194768682,252.986653251095 z" id="c05041"/>
		<path d="M 122.10586514628751,165.17028190865074 L 149.42884342636108,165.87197279217187 L 156.66930206672427,166.09750085194716 L 156.36242046880005,174.74252839334378 L 164.91513989148254,175.07483684384383 L 164.7039417327098,182.24446897453174 L 173.60503440260712,184.01334352594353 L 173.43121814209215,188.48763671770925 L 181.51125926385367,188.6515435857165 L 181.3225736060732,192.94845668590355 L 189.90095074588504,193.11220888067515 L 189.74809234849124,201.78194644357927 L 176.79676187911338,201.52239655413575 L 176.68166923857686,205.8668522715999 L 161.50069455512033,205.42355965806308 L 154.95732138914676,209.4913287964345 L 153.6516487781466,203.64225708440406 L 144.79045886748662,200.55169389040523 L 143.64028254511726,191.93027304197597 L 138.1456778802216,187.44799586516385 L 129.58233997224755,187.16221791369637 L 130.58272225593868,173.77154797768662 L 121.90962361970891,173.72205288625065 L 122.10586514628751,165.17028190865074 z" id="c05125"/>
		<path d="M 233.84052147134958,220.2005446262403 L 234.16299647134835,202.84642509802867 L 236.39365643704443,202.9141179364325 L 243.17369044252416,203.02995756156096 L 243.22891664012903,194.34414980432643 L 261.0097680366608,194.7083298750142 L 268.0973457639537,194.8328250361217 L 277.7681694121936,205.80534408622643 L 283.35719476303126,215.38644126829885 L 287.6088460187282,217.0150550132892 L 285.94157592003677,236.166301405239 L 282.7229139878365,238.63764348709896 L 276.45914511878516,243.46795687335108 L 280.11230693276394,256.66775369560685 L 272.8025857635599,253.1368520978364 L 263.872620572735,255.06546476830746 L 257.71461030151943,249.19657618728382 L 256.4806631436026,247.64451036526637 L 255.70500919885862,242.69221461528142 L 255.1550265480658,237.36587416778895 L 249.9998009108328,236.55576634146405 L 248.01519932966914,228.47794974234148 L 233.68941174673776,227.52722593517822 L 233.84052147134958,220.2005446262403 z" id="c05001"/>
		<path d="M 178.40656247016003,318.6893190967107 L 184.0874856409269,300.35111723372154 L 182.511914503826,279.70966410467906 L 211.9443401531744,280.0902459484632 L 211.92882289491826,297.4235355425953 L 209.93036302029415,302.9552633430032 L 210.75970057819913,310.46609920794685 L 211.8338037439394,320.0079899999535 L 199.22851971341532,329.25223495939684 L 198.46662404108832,333.79664671570174 L 191.39820842917496,329.1909024369188 L 191.2658415175454,324.9720977034405 L 180.2733270529676,322.0266627944484 L 180.74863659169569,320.26427330645055 L 178.40656247016003,318.6893190967107 z" id="c05011"/>
		<path d="M 5.517477632049606,246.3461408723758 L 6.317995228817086,229.44343038501043 L 24.9833417456191,229.64269298587678 L 37.663156912368784,230.47335528451782 L 36.975739281759566,241.20467311044138 L 39.883442487789345,252.21101448014056 L 38.775586495108485,256.3004643432927 L 47.23140170017173,269.42823186867196 L 47.62829125225088,273.9166681654267 L 40.89412324454858,270.7040603192866 L 24.65560579113239,268.37741505338676 L 12.36023747525044,258.8611428598967 L 10.81282463787974,253.85287170218885 L 5.1325917597763695,254.15094849095132 L 5.517477632049606,246.3461408723758 z" id="c05133"/>
		<path d="M 55.55296940584796,334.1565073991252 L 63.9541627794294,330.473809112418 L 68.03017883033628,324.4024972898627 L 68.41820759356793,317.761255418715 L 71.24608203527846,316.4003577389639 L 65.75831807607467,306.9969560137597 L 66.72947796445344,300.9529387418842 L 86.65021006146607,301.84906762254224 L 86.53582036511197,304.709882924316 L 96.37665553072857,305.1210758963157 L 89.76033980084237,323.5128574247843 L 86.45108400258876,323.2844341121587 L 85.37310252016897,347.21479876096777 L 82.82600840700063,347.1666458301267 L 65.92340531865153,346.82787794235503 L 59.10157416697434,346.71633969570945 L 54.59569727205832,339.3721364725578 L 55.55296940584796,334.1565073991252 z" id="c05073"/>
		<path d="M 150.35035255993867,294.95741004789187 L 148.88967302100565,287.8191020231934 L 156.1947036597074,283.9508855336572 L 161.45360307734703,276.7675285500756 L 161.65448640445976,270.2525215372485 L 182.25745891665218,271.0524529303029 L 181.6110435831987,276.2256653686374 L 182.511914503826,279.70966410467906 L 184.0874856409269,300.35111723372154 L 178.40656247016003,318.6893190967107 L 180.74863659169569,320.26427330645055 L 174.01708378394767,323.1304523809276 L 162.73202869375075,313.4120151713973 L 155.61125440112343,306.7459342543247 L 151.29419950961838,306.99040226615705 L 150.3931925936481,301.9872274096409 L 145.4159730701617,296.38922882005306 L 150.35035255993867,294.95741004789187 z" id="c05013"/>
		<path d="M 200.87897175015172,115.54541310487367 L 221.97873610861382,115.98213411870142 L 222.11487584730224,108.22453432220502 L 226.52118564261886,106.31788278201257 L 226.6595595196305,98.52152835255278 L 243.8687865312391,98.83306984414212 L 243.67651330356233,107.5824625518701 L 262.96427234427995,107.79997403658916 L 262.2248715926222,110.88588489681716 L 255.61480817936172,114.76467977516506 L 255.6789100830407,121.93773909075166 L 258.17786510998496,130.3053270237561 L 253.57208369497337,142.557731457113 L 243.8733625451203,142.39139178143944 L 241.88390634139367,149.43550445921653 L 234.79062602665564,145.3251387151458 L 226.0625089328886,148.5141308940782 L 219.82890581338228,149.1041715406711 L 208.8621598482341,143.98032286136498 L 200.17333319656117,144.94464572919097 L 200.87897175015172,115.54541310487367 z" id="c05145"/>
		<path d="M 138.99996829057136,3.2424520789024336 L 141.44403003012118,2.5369762078858784 L 142.66094277222086,2.5460830700564006 L 147.99776628144383,2.5830997032624397 L 164.68763204382424,2.6764733725912673 L 167.50282518166378,2.6988901301409407 L 167.1211937282332,13.78298889332787 L 162.14061562983855,16.92125946525795 L 166.2676455875758,25.421494882944657 L 172.19236693788994,27.282035080444924 L 171.2799407586205,32.39595775001067 L 176.77513614172824,36.11898703945565 L 176.76365591937582,45.9867398787239 L 142.5016777030442,45.05207631658978 L 142.51069090618702,40.71479701987038 L 138.17324139782505,40.63936781075028 L 138.99996829057136,3.2424520789024336 z" id="c05089"/>
		<path d="M 72.72309510867152,74.1188488266833 L 87.01710016897754,74.85250587454127 L 86.9442022811452,77.74065471269641 L 115.68079332572869,78.672503112982 L 115.26128548030927,91.68683383455998 L 110.9359473212869,91.5129629036207 L 110.5816187105201,104.44831305934022 L 104.71463990878965,104.24487767848193 L 104.28375065237744,118.36188940417341 L 94.61338862532456,118.31941745421366 L 93.32523701815003,108.26656523719743 L 80.3305275537604,112.46018781829984 L 70.93047039512977,113.1468718071126 L 72.72309510867152,74.1188488266833 z" id="c05071"/>
		<path d="M 88.25931962251052,216.07298946579664 L 94.06060308456793,216.28616126583304 L 98.2028720290262,222.2180612845927 L 111.25670297643062,222.6755588828229 L 124.6590424661327,226.85718604904508 L 124.32127821695865,234.95014641754904 L 136.84596867428527,234.98671758854863 L 136.13322252883742,252.10356835011135 L 130.48023127092455,252.95764799594568 L 136.06153703790994,260.0925095423457 L 135.94858556074723,269.2987793289697 L 124.59537852020118,273.1665547672065 L 118.46140218472621,272.39524939637886 L 115.60474995397718,268.6129464804321 L 105.25910184000253,266.7590681206813 L 96.40850207873615,254.2645071081379 L 91.51495333827143,245.00324192848166 L 89.46321092990142,229.49505789568687 L 86.1359559750788,228.61790604481655 L 88.25931962251052,216.07298946579664 z" id="c05019"/>
		<path d="M 348.00103686450274,51.47739263448653 L 362.93204359605096,51.05252562656742 L 374.58505254857545,50.74191802764709 L 379.27881350755274,50.612157444931135 L 392.8356666056159,50.19958452638089 L 396.6787783979151,55.36682764449733 L 399.53500052341263,57.90928530994851 L 399.8481929680737,59.67772924994657 L 400.0,60.53466027612599 L 393.9597850749834,62.776929247036904 L 393.4611474567516,65.37863724565564 L 394.0378394190879,69.16438962561071 L 388.1420007698381,71.94824606752479 L 382.81014009702034,75.54239793358873 L 378.6187481705013,74.90144112687544 L 375.4113328348713,80.86745571430649 L 380.17171826402443,85.19780416251561 L 382.03365253447595,87.56732306567592 L 377.53739227982953,89.52484741034627 L 376.63896386630955,94.26477958222316 L 375.5611877826092,96.13355747379828 L 369.12710026141616,95.40297024266215 L 368.56475279028456,100.75471521237343 L 370.56668142825515,104.60385029182787 L 368.7589478520913,108.80225923828249 L 366.69352117630376,108.06153764269423 L 363.3094557127377,109.42890696554713 L 361.0068919682536,106.84196325293536 L 349.0932256085182,106.85759092118276 L 348.67231243404086,80.91846564926874 L 348.00103686450274,51.47739263448653 z" id="c05093"/>
		<path d="M 86.45108400258876,323.2844341121587 L 89.76033980084237,323.5128574247843 L 96.37665553072857,305.1210758963157 L 108.37116896046592,305.6709604587809 L 117.11086200174674,304.53411909816384 L 116.8115196898439,311.73492997770563 L 128.50514414168182,312.1536418339203 L 127.30808220427593,347.8598925438189 L 109.86752639199918,347.6042112688415 L 106.42402677085369,347.5568016482672 L 94.84748334498433,347.3872528542302 L 85.37310252016897,347.21479876096777 L 86.45108400258876,323.2844341121587 z" id="c05027"/>
		<path d="M 198.46662404108832,333.79664671570174 L 199.22851971341532,329.25223495939684 L 211.8338037439394,320.0079899999535 L 210.75970057819913,310.46609920794685 L 255.09802915748548,311.26308541989425 L 255.04682924380438,349.2565061991531 L 252.64071263800886,349.2505032606399 L 220.37926832897506,349.1972993452182 L 204.16532751198042,349.12688870468423 L 204.16174716490218,349.12686976366916 L 197.95123826940952,340.21582681406096 L 198.46662404108832,333.79664671570174 z" id="c05003"/>
		<path d="M 285.94157592003677,236.166301405239 L 287.6088460187282,217.0150550132892 L 292.01876985495943,216.99824845460884 L 292.07373795389196,203.79712984533538 L 287.6094499167804,203.69249105756555 L 287.6834587993398,186.3435424971416 L 325.60387520163295,186.33604870237522 L 326.94524541340206,187.08386927309706 L 325.8270319842228,188.87942627395685 L 329.00917702211905,193.56132305618993 L 327.41932120940305,197.87373384290586 L 326.3300511775782,204.44159027534758 L 327.07905320309527,208.76503353730976 L 321.6888740258732,211.9423138936134 L 320.1881445522911,216.73554724946456 L 314.4972839625769,213.98567404781963 L 311.55772812376887,216.14377509219875 L 312.6504845963344,221.44391436764977 L 307.70920479555133,222.47778804392823 L 305.5219433931028,226.801344273158 L 301.0376245811952,228.01516573348658 L 302.05818035100265,231.97428146414998 L 301.1200042176482,234.30717954030882 L 297.530545084242,235.55549217759352 L 297.06365378272915,238.40662156160127 L 297.0081669284316,238.74532019129512 L 294.653203363681,238.56788576365506 L 282.7229139878365,238.63764348709896 L 285.94157592003677,236.166301405239 z" id="c05107"/>
		<path d="M 192.39744777746628,227.89153100616568 L 192.85123617929716,201.86234515841815 L 207.47727436779064,202.2179765367954 L 212.01133710652726,202.28445879835405 L 234.16299647134835,202.84642509802867 L 233.84052147134958,220.2005446262403 L 233.68941174673776,227.52722593517822 L 248.01519932966914,228.47794974234148 L 249.9998009108328,236.55576634146405 L 255.1550265480658,237.36587416778895 L 255.70500919885862,242.69221461528142 L 242.76510233506733,241.96774953716636 L 233.6683682563749,233.52560521711942 L 232.51215372846423,244.2773699166887 L 230.98874436335984,241.41351708353238 L 213.76876467906024,241.50245695758795 L 213.75604274205534,244.40317413764154 L 190.67264885582114,244.56352006264086 L 192.39744777746628,227.89153100616568 z" id="c05069"/>
		<path d="M 211.8887766442609,253.01925350079458 L 213.75604274205534,244.40317413764154 L 213.76876467906024,241.50245695758795 L 230.98874436335984,241.41351708353238 L 232.51215372846423,244.2773699166887 L 233.6683682563749,233.52560521711942 L 242.76510233506733,241.96774953716636 L 255.70500919885862,242.69221461528142 L 256.4806631436026,247.64451036526637 L 257.71461030151943,249.19657618728382 L 247.24336194768682,252.986653251095 L 246.58409509339717,272.17727198826384 L 237.79319150373266,271.3315591110744 L 211.93152724700826,271.4226028826328 L 211.8887766442609,253.01925350079458 z" id="c05079"/>
		<path d="M 70.76480034069245,148.43355444244673 L 70.79570939714073,136.99730102519263 L 85.24798373799666,136.1845990325182 L 91.27431677842664,129.29000888165646 L 105.69285325467601,129.80296309617125 L 105.9689266318478,119.38969949535726 L 115.80541263478685,127.66516126417805 L 123.08607632723096,139.3686522526845 L 128.43520339955364,134.4342178514414 L 136.91717167894262,134.29125645469338 L 125.07175338723111,140.30542065642828 L 125.05445166003014,143.48387853043855 L 103.16875768988137,163.21343585445683 L 104.50455946759067,173.39206593516096 L 95.77029576424499,173.36079359257184 L 95.74482830573733,176.23449154492005 L 69.86811473356565,175.65323295600928 L 70.76480034069245,148.43355444244673 z" id="c05149"/>
		<path d="M 279.35998414436307,151.01559164701087 L 287.88669187441707,151.08234242574613 L 287.9754927541547,136.47788603046212 L 331.9689025738516,136.3450062664048 L 340.3217088227456,135.81996148593763 L 340.0379544242565,160.05213091344325 L 283.57407712157874,159.97782849536645 L 283.550931800891,164.41145280334493 L 279.22091766507606,160.0099412772602 L 279.35998414436307,151.01559164701087 z" id="c05123"/>
		<path d="M 24.43867249471873,213.45742004429317 L 50.69534997488822,214.52911341337676 L 51.17498420647578,230.77203539219633 L 59.83445405622616,231.19782630774225 L 59.33139894125887,248.54386524918684 L 58.17597868461065,274.4378922610975 L 47.753544379117564,273.92442214524215 L 47.62829125225088,273.9166681654267 L 47.23140170017173,269.42823186867196 L 38.775586495108485,256.3004643432927 L 39.883442487789345,252.21101448014056 L 36.975739281759566,241.20467311044138 L 37.663156912368784,230.47335528451782 L 24.9833417456191,229.64269298587678 L 24.43867249471873,213.45742004429317 z" id="c05061"/>
		<path d="M 190.46747265358948,80.83779960727809 L 223.12568067970187,81.57073729292568 L 226.97326987115287,80.88348415633939 L 226.6595595196305,98.52152835255278 L 226.52118564261886,106.31788278201257 L 222.11487584730224,108.22453432220502 L 221.97873610861382,115.98213411870142 L 200.87897175015172,115.54541310487367 L 189.3911197280683,115.4264169600269 L 190.46747265358948,80.83779960727809 z" id="c05023"/>
		<path d="M 117.11086200174674,304.53411909816384 L 118.46140218472621,272.39524939637886 L 124.59537852020118,273.1665547672065 L 135.94858556074723,269.2987793289697 L 161.65448640445976,270.2525215372485 L 161.45360307734703,276.7675285500756 L 156.1947036597074,283.9508855336572 L 148.88967302100565,287.8191020231934 L 150.35035255993867,294.95741004789187 L 145.4159730701617,296.38922882005306 L 150.3931925936481,301.9872274096409 L 151.29419950961838,306.99040226615705 L 155.61125440112343,306.7459342543247 L 162.73202869375075,313.4120151713973 L 154.9766664898173,314.5149980178685 L 128.50514414168182,312.1536418339203 L 116.8115196898439,311.73492997770563 L 117.11086200174674,304.53411909816384 z" id="c05103"/>
		<path d="M 176.22186393223757,73.20701989161293 L 176.49537133064862,54.6205247763899 L 185.14504624002902,54.82736009474802 L 185.35393376295292,46.1832308817229 L 194.00511503977492,46.38251629746032 L 194.19796820528657,39.0829011563564 L 198.7327226053382,41.133745084971395 L 204.8132306199867,49.863375249177544 L 201.16985360630682,59.09914681778118 L 213.73530742718697,59.071553733508026 L 222.10849482283942,65.44113745745547 L 220.37523938727676,71.08776658345296 L 223.12568067970187,81.57073729292568 L 190.46747265358948,80.83779960727809 L 176.0661553309012,80.40863937994449 L 176.22186393223757,73.20701989161293 z" id="c05137"/>
		<path d="M 41.419400840340025,105.63608047893986 L 45.88523928118153,92.93771194345966 L 41.57456302898316,92.72381012586001 L 41.931984937148904,84.09536449949097 L 49.19871420799367,84.40622814575937 L 55.325028563778986,74.69575318183895 L 56.13407509100452,73.28679701466257 L 72.72309510867152,74.1188488266833 L 70.93047039512977,113.1468718071126 L 63.160591864595006,107.57639357106137 L 62.69236953545746,119.18078863911562 L 53.99683390167112,118.42537382555037 L 53.58386113797461,127.29816481434146 L 44.700262815570845,128.68962927258627 L 41.74171008749597,130.0194933189903 L 40.699033279645974,121.35687675756355 L 41.419400840340025,105.63608047893986 z" id="c05047"/>
		<path d="M 288.1132367565164,63.327359214506835 L 301.02184754817773,63.61231817116777 L 302.5989483908797,54.93387115185364 L 340.1094412274679,54.764121817944 L 341.5663027682923,51.652163075152714 L 348.00103686450274,51.47739263448653 L 348.67231243404086,80.91846564926874 L 287.91723089930287,80.86837173711346 L 288.1132367565164,63.327359214506835 z" id="c05031"/>
		<path d="M 130.48023127092455,252.95764799594568 L 136.13322252883742,252.10356835011135 L 136.84596867428527,234.98671758854863 L 153.98809194569873,235.73828914908015 L 169.2204411638855,236.36003109612633 L 176.4504799780486,239.23899083062523 L 182.13541475609574,244.80552191388028 L 170.99568470838142,245.01739144905508 L 172.24125387210248,253.39927192072952 L 182.00820118002113,267.77145969199864 L 182.25745891665218,271.0524529303029 L 161.65448640445976,270.2525215372485 L 135.94858556074723,269.2987793289697 L 136.06153703790994,260.0925095423457 L 130.48023127092455,252.95764799594568 z" id="c05039"/>
		<path d="M 40.19076201600947,293.544074434532 L 44.93680690206711,295.42752880689665 L 46.593357990061484,290.75855819019273 L 47.32399994625061,293.22489389458997 L 48.0898321055968,294.07583357920754 L 48.8917512365529,294.1000911724027 L 49.25227577447566,293.302241864101 L 48.777956877289625,291.7021750279349 L 49.69809872820304,290.64234573396806 L 50.63856436611398,290.7851425737847 L 51.664752590735645,291.81148986950126 L 52.374434715596735,291.78171400386594 L 53.086195610659644,289.72219725729485 L 54.20776330016554,289.90703324551595 L 55.17789014611341,289.135772056584 L 54.95144148007383,288.18619114572186 L 55.801374862336885,287.9354510262494 L 58.12748273624479,288.7812984120912 L 58.39342240208596,288.11960000954616 L 59.38005541689708,288.38816275434317 L 62.617147582084236,299.24069187771374 L 66.72947796445344,300.9529387418842 L 65.75831807607467,306.9969560137597 L 71.24608203527846,316.4003577389639 L 68.41820759356793,317.761255418715 L 68.03017883033628,324.4024972898627 L 63.9541627794294,330.473809112418 L 55.55296940584796,334.1565073991252 L 54.59569727205832,339.3721364725578 L 59.10157416697434,346.71633969570945 L 58.29557289726215,346.7028019804593 L 39.20885247375651,346.3600193992712 L 39.5085642848027,332.36825011680236 L 39.70927932087419,321.3633745887264 L 39.81649492505246,315.48601153691385 L 40.03157843922106,305.0396659615885 L 40.22388523835678,293.57338459022014 L 40.19076201600947,293.544074434532 z" id="c05091"/>
		<path d="M 257.6700318871788,2.7737221244148205 L 279.9960357536266,2.5462577627755127 L 288.7028012030185,2.441093305606096 L 307.44733550204916,2.200115463297341 L 310.4070112059942,10.677906323397512 L 310.4847292039127,23.811536629515285 L 305.9214011513085,25.22389356200314 L 305.79940166907545,36.87539114878732 L 286.8385765624771,36.895175939679596 L 284.5968314859194,40.53806812687525 L 277.30239405469257,31.561098956202123 L 269.55133729679346,26.459952237205382 L 268.15323699201815,14.88356627066946 L 257.4917718708979,2.7726989000011124 L 257.6700318871788,2.7737221244148205 z" id="c05121"/>
		<path d="M 331.6351376167675,132.92550848660187 L 331.5829211189746,106.81920167588669 L 349.0932256085182,106.85759092118276 L 361.0068919682536,106.84196325293536 L 363.3094557127377,109.42890696554713 L 365.39508444580025,114.04441320324516 L 362.7413129820697,119.92416504545993 L 359.15582989116194,122.96191170136822 L 364.78750163469687,125.30157912455363 L 365.2533145940465,129.92865325502936 L 364.7960566216793,133.7893173529392 L 365.62850459739315,138.3583434348937 L 359.94770077301075,137.41590312854362 L 358.2749656172196,141.16088777827275 L 357.0608067779707,145.21905932200477 L 351.51761893055675,146.35084686184052 L 348.6476132584404,147.5403808694414 L 347.9999446707568,150.83618575725015 L 353.3914140590718,156.5115677083906 L 352.9836646623579,159.52335382708068 L 348.02731785024196,163.0274661499096 L 347.861433200385,163.14464345096636 L 340.7091473591248,166.87113343922732 L 340.18975536207273,166.8830999965249 L 340.0379544242565,160.05213091344325 L 340.3217088227456,135.81996148593763 L 331.9689025738516,136.3450062664048 L 331.6351376167675,132.92550848660187 z" id="c05035"/>
		<path d="M 4.3105853798394005,39.580934682923875 L 17.25614164492227,40.16451681404349 L 21.76000072621455,36.01191641531038 L 22.154780236586785,28.821077347636503 L 51.121462421537395,30.51077463933012 L 58.06107250703812,27.54309163278394 L 53.25233465111895,41.750549224207845 L 51.115636894218795,74.49912912240053 L 38.06827076876918,73.87063199444033 L 30.904016742435022,74.8822767638146 L 8.222436837339595,73.74058707991992 L 8.122470539147967,72.83080992651658 L 5.62652406538382,50.964378016081994 L 4.3105853798394005,39.580934682923875 z" id="c05143"/>
		<path d="M 9.718160690481719,160.01433668738568 L 9.947735263464043,155.70991755504747 L 27.75006835001096,152.6872474753511 L 28.128646043612683,143.85459378720165 L 35.36855280628531,139.83185157770004 L 35.17985671775757,144.1947072581438 L 40.61305492317584,147.21022927746992 L 70.76480034069245,148.43355444244673 L 69.86811473356565,175.65323295600928 L 61.06991234270355,178.87528557006848 L 56.71460717328433,178.65810415159442 L 51.685658690390106,183.23806665184887 L 51.156761433471985,181.744727655222 L 20.024961394491985,179.425079673816 L 8.897502336455299,176.0342379439582 L 9.718160690481719,160.01433668738568 z" id="c05127"/>
		<path d="M 10.626556824895262,142.96770478437094 L 11.751064512640834,121.8110932907966 L 12.28120639800563,112.52132786605267 L 12.12584401257059,110.85257557695711 L 12.06265489468503,110.17361264581771 L 14.568757697814746,104.66435997403366 L 19.522673980991645,112.46761949053959 L 27.625664501696306,114.29674425737602 L 28.32023021319762,114.42759010986134 L 36.43367215434702,110.11596507698088 L 35.94450351539068,105.04307055198854 L 41.419400840340025,105.63608047893986 L 40.699033279645974,121.35687675756355 L 41.74171008749597,130.0194933189903 L 44.700262815570845,128.68962927258627 L 44.690965041407466,128.91209828970588 L 44.36528265198146,135.92261137083074 L 35.5622111815007,135.4997762621015 L 35.36855280628531,139.83185157770004 L 28.128646043612683,143.85459378720165 L 27.75006835001096,152.6872474753511 L 9.947735263464043,155.70991755504747 L 10.626556824895262,142.96770478437094 z" id="c05131"/>
		<path d="M 134.01224402370522,52.922219026119556 L 134.2820195953953,44.81586498773768 L 133.8255250750962,40.50197632485022 L 138.17324139782505,40.63936781075028 L 142.51069090618702,40.71479701987038 L 142.5016777030442,45.05207631658978 L 176.76365591937582,45.9867398787239 L 176.49537133064862,54.6205247763899 L 176.22186393223757,73.20701989161293 L 158.99419440159576,72.89734791169275 L 158.8390223281522,80.09009747126196 L 144.38657693024126,79.58768824923267 L 132.92952856428414,79.26456517485619 L 134.01224402370522,52.922219026119556 z" id="c05129"/>
		<path d="M 7.111564285855525,212.65428414477438 L 7.8144364069002785,197.9921839656062 L 8.419303981038954,185.35376919004605 L 8.897502336455299,176.0342379439582 L 20.024961394491985,179.425079673816 L 51.156761433471985,181.744727655222 L 51.685658690390106,183.23806665184887 L 50.69534997488822,214.52911341337676 L 24.43867249471873,213.45742004429317 L 24.9833417456191,229.64269298587678 L 6.317995228817086,229.44343038501043 L 7.111564285855525,212.65428414477438 z" id="c05113"/>
		<path d="M 304.9976066292358,43.81639349829457 L 310.82470139989385,36.86022299523758 L 305.79940166907545,36.87539114878732 L 305.9214011513085,25.22389356200314 L 345.08224692301854,25.441138939211637 L 345.0859629942211,31.258664618586337 L 355.69873050212783,31.235517714822333 L 353.2044399836401,32.69195975128582 L 352.0616378380778,37.21015799622261 L 347.36112496854497,39.92432285029491 L 343.85367344900453,46.52070366245074 L 341.5663027682923,51.652163075152714 L 340.1094412274679,54.764121817944 L 302.5989483908797,54.93387115185364 L 304.9976066292358,43.81639349829457 z" id="c05055"/>
		<path d="M 47.753544379117564,273.92442214524215 L 58.17597868461065,274.4378922610975 L 59.33139894125887,248.54386524918684 L 73.74143991400804,251.36057108280673 L 83.60514454021573,255.47781656892363 L 89.52235827621409,254.19243146122588 L 88.13632560514074,267.2305049872452 L 86.65021006146607,301.84906762254224 L 66.72947796445344,300.9529387418842 L 62.617147582084236,299.24069187771374 L 59.38005541689708,288.38816275434317 L 58.39342240208596,288.11960000954616 L 46.90937882050613,281.96536686103593 L 47.753544379117564,273.92442214524215 z" id="c05057"/>
		<path d="M 148.3384179573589,160.12941678134527 L 165.46785161332312,156.06310017848793 L 170.4365360454238,156.3244224104703 L 174.2636585870324,167.13006264106207 L 175.67702766085802,158.25898118979694 L 191.15301271078204,158.7165942869033 L 191.36440789944473,150.09097248208747 L 200.03501329176353,150.3314114191329 L 204.16059298215663,150.37577162406836 L 203.49360185141919,178.34031362806982 L 200.9958039362035,188.9641965909914 L 207.51859391885418,189.13143386032002 L 207.47727436779064,202.2179765367954 L 192.85123617929716,201.86234515841815 L 189.74809234849124,201.78194644357927 L 189.90095074588504,193.11220888067515 L 181.3225736060732,192.94845668590355 L 181.51125926385367,188.6515435857165 L 173.43121814209215,188.48763671770925 L 173.60503440260712,184.01334352594353 L 164.7039417327098,182.24446897453174 L 164.91513989148254,175.07483684384383 L 156.36242046880005,174.74252839334378 L 156.66930206672427,166.09750085194716 L 149.42884342636108,165.87197279217187 L 148.1901180450251,164.04339879232748 L 148.3384179573589,160.12941678134527 z" id="c05119"/>
		<path d="M 86.65021006146607,301.84906762254224 L 88.13632560514074,267.2305049872452 L 89.52235827621409,254.19243146122588 L 92.62063024686046,255.03393698011988 L 96.40850207873615,254.2645071081379 L 105.25910184000253,266.7590681206813 L 115.60474995397718,268.6129464804321 L 118.46140218472621,272.39524939637886 L 117.11086200174674,304.53411909816384 L 108.37116896046592,305.6709604587809 L 96.37665553072857,305.1210758963157 L 86.53582036511197,304.709882924316 L 86.65021006146607,301.84906762254224 z" id="c05099"/>
		<path d="M 103.16875768988137,163.21343585445683 L 125.05445166003014,143.48387853043855 L 159.45708198369078,143.65433276564235 L 164.7087466969828,140.1849592934945 L 161.12793718202676,151.8205515278828 L 165.46785161332312,156.06310017848793 L 148.3384179573589,160.12941678134527 L 148.1901180450251,164.04339879232748 L 149.42884342636108,165.87197279217187 L 122.10586514628751,165.17028190865074 L 121.90962361970891,173.72205288625065 L 104.50455946759067,173.39206593516096 L 103.16875768988137,163.21343585445683 z" id="c05105"/>
		<path d="M 50.69534997488822,214.52911341337676 L 88.25931962251052,216.07298946579664 L 86.1359559750788,228.61790604481655 L 89.46321092990142,229.49505789568687 L 91.51495333827143,245.00324192848166 L 96.40850207873615,254.2645071081379 L 92.62063024686046,255.03393698011988 L 89.52235827621409,254.19243146122588 L 83.60514454021573,255.47781656892363 L 73.74143991400804,251.36057108280673 L 59.33139894125887,248.54386524918684 L 59.83445405622616,231.19782630774225 L 51.17498420647578,230.77203539219633 L 50.69534997488822,214.52911341337676 z" id="c05109"/>
		<path d="M 288.0189795133872,116.02475211503364 L 287.9796765284328,107.04587004537817 L 322.77529083999235,106.24424349270498 L 331.5829211189746,106.81920167588669 L 331.6351376167675,132.92550848660187 L 331.9689025738516,136.3450062664048 L 287.9754927541547,136.47788603046212 L 288.0189795133872,116.02475211503364 z" id="c05037"/>
		<path d="M 95.0187368826658,181.99996009026617 L 95.74482830573733,176.23449154492005 L 95.77029576424499,173.36079359257184 L 104.50455946759067,173.39206593516096 L 121.90962361970891,173.72205288625065 L 130.58272225593868,173.77154797768662 L 129.58233997224755,187.16221791369637 L 138.1456778802216,187.44799586516385 L 143.64028254511726,191.93027304197597 L 144.79045886748662,200.55169389040523 L 134.78187604211382,200.2193391417159 L 131.96479356368144,211.78840246590832 L 94.21390041211298,210.54129345115476 L 95.0187368826658,181.99996009026617 z" id="c05051"/>
		<path d="M 128.50514414168182,312.1536418339203 L 154.9766664898173,314.5149980178685 L 162.73202869375075,313.4120151713973 L 174.01708378394767,323.1304523809276 L 180.74863659169569,320.26427330645055 L 180.2733270529676,322.0266627944484 L 191.2658415175454,324.9720977034405 L 191.39820842917496,329.1909024369188 L 198.46662404108832,333.79664671570174 L 197.95123826940952,340.21582681406096 L 204.16174716490218,349.12686976366916 L 191.31637278035112,349.04926931529747 L 168.0343547387404,348.66136156311336 L 149.4664779518568,348.3351901725562 L 149.3670138417791,348.33312070970385 L 128.77648486089018,347.8797964359942 L 127.30808220427593,347.8598925438189 L 128.50514414168182,312.1536418339203 z" id="c05139"/>
		<path d="M 162.14061562983855,16.92125946525795 L 167.1211937282332,13.78298889332787 L 167.50282518166378,2.6988901301409407 L 181.8478150294617,2.7981241560343446 L 197.88634238000904,2.8022379417502923 L 197.17066050327188,24.38714141389337 L 197.3141947671753,26.331531953915476 L 197.0677719722516,35.01779205207509 L 192.718833781805,34.87896055222689 L 192.61878919876958,38.54009632153658 L 194.19796820528657,39.0829011563564 L 194.00511503977492,46.38251629746032 L 185.35393376295292,46.1832308817229 L 185.14504624002902,54.82736009474802 L 176.49537133064862,54.6205247763899 L 176.76365591937582,45.9867398787239 L 176.77513614172824,36.11898703945565 L 171.2799407586205,32.39595775001067 L 172.19236693788994,27.282035080444924 L 166.2676455875758,25.421494882944657 L 162.14061562983855,16.92125946525795 z" id="c05005"/>
		<path d="M 222.10849482283942,65.44113745745547 L 229.85707539340297,57.93248603934463 L 233.31817315340643,58.03512673616839 L 253.28731106360985,58.44583476289849 L 253.19081272317072,62.84626350782789 L 261.8727311133258,62.982575627241566 L 274.69268575959074,62.95142078670264 L 272.0166136190601,70.65291712168357 L 265.7428354324918,75.31338759389548 L 261.0929983420951,87.86836259793866 L 261.09845719738195,99.15032987248735 L 243.8687865312391,98.83306984414212 L 226.6595595196305,98.52152835255278 L 226.97326987115287,80.88348415633939 L 223.12568067970187,81.57073729292568 L 220.37523938727676,71.08776658345296 L 222.10849482283942,65.44113745745547 z" id="c05063"/>
		<path d="M 197.17066050327188,24.38714141389337 L 197.88634238000904,2.8022379417502923 L 200.2826135401104,2.800162433037176 L 211.08023588291732,2.7821344899440175 L 236.2205550662743,2.658140012746009 L 238.60674885332955,2.6423708555414502 L 254.05342694161297,2.7522052122659058 L 253.783755713337,18.85306762639654 L 244.82840139495408,18.703724784991806 L 244.8481832743003,27.389820282026328 L 234.76292212533198,27.09308362585665 L 197.3141947671753,26.331531953915476 L 197.17066050327188,24.38714141389337 z" id="c05049"/>
		<path d="M 8.222436837339595,73.74058707991992 L 30.904016742435022,74.8822767638146 L 38.06827076876918,73.87063199444033 L 51.115636894218795,74.49912912240053 L 55.325028563778986,74.69575318183895 L 49.19871420799367,84.40622814575937 L 41.931984937148904,84.09536449949097 L 41.57456302898316,92.72381012586001 L 45.88523928118153,92.93771194345966 L 41.419400840340025,105.63608047893986 L 35.94450351539068,105.04307055198854 L 36.43367215434702,110.11596507698088 L 28.32023021319762,114.42759010986134 L 27.625664501696306,114.29674425737602 L 19.522673980991645,112.46761949053959 L 14.568757697814746,104.66435997403366 L 12.06265489468503,110.17361264581771 L 11.105465294265176,99.87115441265453 L 9.54470295616679,85.75071766459902 L 8.222436837339595,73.74058707991992 z" id="c05033"/>
		<path d="M 243.8687865312391,98.83306984414212 L 261.09845719738195,99.15032987248735 L 261.0929983420951,87.86836259793866 L 265.7428354324918,75.31338759389548 L 272.0166136190601,70.65291712168357 L 274.69268575959074,62.95142078670264 L 279.52039117239457,62.91469778854737 L 288.1132367565164,63.327359214506835 L 287.91723089930287,80.86837173711346 L 287.9796765284328,107.04587004537817 L 288.0189795133872,116.02475211503364 L 270.79725786682025,115.84043288980426 L 270.6217551188333,107.07869590392724 L 262.96427234427995,107.79997403658916 L 243.67651330356233,107.5824625518701 L 243.8687865312391,98.83306984414212 z" id="c05067"/>
		<path d="M 283.550931800891,164.41145280334493 L 283.57407712157874,159.97782849536645 L 340.0379544242565,160.05213091344325 L 340.18975536207273,166.8830999965249 L 335.62442863488917,166.98689616532286 L 334.89646487596167,171.5715150219633 L 332.31503063999116,174.01779990543793 L 329.0822597586937,180.2657631461017 L 328.8001913604097,184.10323474838566 L 326.94524541340206,187.08386927309706 L 325.60387520163295,186.33604870237522 L 287.6834587993398,186.3435424971416 L 287.80235888578034,177.56447099775767 L 283.4548995313757,177.5362363767619 L 283.550931800891,164.41145280334493 z" id="c05077"/>
		<path d="M 255.27718638982566,184.4170514855242 L 261.1984133267431,184.53845953777494 L 261.5560586622122,160.04942848559148 L 267.5861974369649,160.03814346806527 L 267.6736647359198,152.82913377730767 L 272.20175639237334,150.89126085362065 L 279.35998414436307,151.01559164701087 L 279.22091766507606,160.0099412772602 L 283.550931800891,164.41145280334493 L 283.4548995313757,177.5362363767619 L 287.80235888578034,177.56447099775767 L 287.6834587993398,186.3435424971416 L 287.6094499167804,203.69249105756555 L 292.07373795389196,203.79712984533538 L 292.01876985495943,216.99824845460884 L 287.6088460187282,217.0150550132892 L 283.35719476303126,215.38644126829885 L 277.7681694121936,205.80534408622643 L 268.0973457639537,194.8328250361217 L 261.0097680366608,194.7083298750142 L 255.2418479644513,190.20650303884392 L 255.27718638982566,184.4170514855242 z" id="c05095"/>
		<path d="M 226.0625089328886,148.5141308940782 L 234.79062602665564,145.3251387151458 L 241.88390634139367,149.43550445921653 L 243.8733625451203,142.39139178143944 L 253.57208369497337,142.557731457113 L 261.86234372630406,146.23849250376625 L 261.5560586622122,160.04942848559148 L 261.1984133267431,184.53845953777494 L 255.27718638982566,184.4170514855242 L 255.2418479644513,190.20650303884392 L 261.0097680366608,194.7083298750142 L 243.22891664012903,194.34414980432643 L 243.17369044252416,203.02995756156096 L 236.39365643704443,202.9141179364325 L 240.08403224565905,195.8393525143595 L 239.5889070366634,188.5987154205819 L 234.46605196862566,184.05736710382945 L 234.97645341925895,159.48943491350033 L 225.9854415783848,159.32107823807726 L 226.0625089328886,148.5141308940782 z" id="c05117"/>
	</g>
</svg>