<?xml version="1.0" encoding="UTF-8"?>
<svg baseProfile="full" fill="#d0d0d0" height="400.0" stroke="#ffffff" stroke-width="1" version="1.1" width="337.6294418352947" xmlns="http://www.w3.org/2000/svg" xmlns:ev="http://www.w3.org/2001/xml-events" xmlns:xlink="http://www.w3.org/1999/xlink">
	<defs/>
	<g id="counties"><path d="M 49.691016016973784,111.67498493670183 L 51.17969461002426,111.73341461507125 L 68.86143336539061,112.43636268603562 L 70.72813276989842,111.29303694508923 L 74.84195785630762,111.49870838640294 L 78.63614608698495,112.88770289536437 L 78.29897388708204,113.9839562846935 L 77.91603877165223,116.19810692871519 L 76.50727280366469,121.31906903892116 L 78.163230770059,125.86757421560911 L 81.08630902157508,129.1784085030456 L 79.66896425242771,132.094584851652 L 63.25116912958913,131.43633810947168 L 61.07906697418218,129.7336023983649 L 61.044403463147624,127.3361564455219 L 58.57605009428093,125.85925635234355 L 59.254804868716406,120.8417300486912 L 52.778661776159275,117.8427844505166 L 49.874833686734675,114.65640277480352 L 51.007013276322006,112.35725015965765 L 49.691016016973784,111.67498493670183 z" id="c06011"/>
		<path d="M 55.508027012153256,179.1642838828581 L 57.1004677656823,177.99614023302544 L 59.32795205198701,177.89649422954884 L 59.72368322857027,178.53474109177284 L 59.921562571014846,180.71638185340373 L 60.55494923107754,181.12100857164697 L 60.36483364313513,181.71652395312705 L 59.42537890815471,181.9538025498187 L 55.76376408006833,181.8000313036506 L 55.65231891351841,180.65220766910676 L 55.508027012153256,179.1642838828581 z" id="c06075"/>
		<path d="M 60.8768670697536,203.72798533400783 L 66.40853183127341,202.77480347254163 L 66.54630862520807,199.8409747673779 L 71.66499909305047,205.9505273869572 L 76.40716828911064,208.1020862717378 L 77.60233581745565,209.30123268281795 L 79.8234359616569,212.68517307354637 L 84.93406231579752,216.6512023439169 L 82.8355042045022,216.79027715064157 L 81.00728431801782,215.65464015146677 L 77.13482583460248,218.407305095861 L 75.61100470247558,214.95766468814196 L 74.19696627547604,213.3467048497177 L 72.69395838333895,213.18388521595165 L 70.14288241878467,213.92739322057983 L 68.80835243194288,213.77184800392874 L 67.52323663856839,213.62154848690182 L 64.28296347203442,211.07362253294218 L 62.57698968586753,208.5626430367045 L 61.816336231527906,207.31486193624525 L 61.50858080096324,207.16042362788951 L 60.8768670697536,203.72798533400783 z" id="c06087"/>
		<path d="M 86.74929845288048,166.9553189148866 L 90.53421304708003,160.20373740865247 L 91.31495239057618,160.42440790670764 L 92.91522891073144,161.62805316945696 L 96.75127756369913,160.8219620500662 L 98.67158521469906,161.10797627433442 L 105.18969464759701,158.9864651118667 L 106.13290828510245,162.1329320687464 L 107.72835571840947,167.556456202098 L 108.22057078424734,168.35829337003284 L 107.98948748279085,182.4874414241806 L 105.54929912913758,181.49004941763485 L 101.74965590273024,182.12611865309566 L 97.31226280341554,185.2382959951012 L 89.4231232788741,192.56096593520533 L 86.70535836320403,189.92857575835478 L 86.99019442468658,181.59802977442448 L 87.09706743357626,178.54368318893737 L 87.90036253240466,177.20394312811243 L 86.43975140312567,176.195988712789 L 86.74929845288048,166.9553189148866 z" id="c06077"/>
		<path d="M 61.46086670524888,177.81560876219487 L 62.479405458565004,177.01417504835922 L 61.77627373004841,174.3283912920738 L 63.6967461646556,173.9110160565444 L 67.83374055311606,178.30246175514566 L 70.95032740382467,178.69750834825572 L 72.24644664995822,179.8971161755586 L 72.46661074154343,180.21175689745363 L 72.02400964602523,180.5314720698366 L 71.97821036726488,180.85029662633863 L 72.67522250124341,181.45279714748847 L 73.24479739684872,181.68776945513815 L 73.61498208595026,182.11464592080583 L 76.52941769015767,181.366704444366 L 86.42955269811868,178.72658444579832 L 87.09706743357626,178.54368318893737 L 86.99019442468658,181.59802977442448 L 86.70535836320403,189.92857575835478 L 89.4231232788741,192.56096593520533 L 89.39972294478237,192.54404702248075 L 76.71002002279194,191.98271461021213 L 74.3656083347998,193.15557519004614 L 69.92055547061311,192.56669861541988 L 69.22144157392367,191.96581602061224 L 68.08573583672866,190.71682092795268 L 67.71462160636658,190.0936024213198 L 68.29698750259995,189.80397792799593 L 67.31530224939738,187.5559902567351 L 67.13501757608684,185.09546256867307 L 66.85345831448303,183.9800861034997 L 66.84644937257742,183.95230889441177 L 65.22369458363829,182.60345731038413 L 64.08196784282832,181.40118007597258 L 64.0452725514555,180.20324844745855 L 62.086831578853925,179.19857636011366 L 61.46086670524888,177.81560876219487 z" id="c06001"/>
		<path d="M 218.58221440530377,364.6754663728644 L 219.18764620970921,361.8914071858381 L 221.6171499693241,361.22874829752465 L 221.571404075612,359.75828025425096 L 226.63277956988412,359.7296815399021 L 230.30075532943812,361.8028173913944 L 230.60850420356152,361.9203376177443 L 230.91670402765075,362.03022577206525 L 230.93583777075762,362.73356491945157 L 234.40783146725653,362.6800044424307 L 236.23887453568105,362.76042870947975 L 238.26591704700104,362.8808406947937 L 245.5464003237863,362.8054816655018 L 267.2851365996693,362.3992353124565 L 271.2026145996322,362.4498087717167 L 271.6229445515217,377.0295042976532 L 271.0412235741532,391.7199074710999 L 271.1029689898275,395.99881043674554 L 255.8479406141326,397.700793924391 L 252.8127469987888,398.0546476548726 L 244.72663902082888,398.93717084367404 L 235.31483829668142,400.0 L 235.04376135162707,397.864599880019 L 234.8692331888784,396.48850202559976 L 233.71861646966113,394.2877097117843 L 233.41958286726262,394.0772642258515 L 232.73251567428773,393.59355028794596 L 231.00637306517416,394.41712884701394 L 230.67712000467588,393.14400759325036 L 230.65735042861212,389.5335882602497 L 229.73436884333228,388.07367880496747 L 229.6871750998944,387.35523040056745 L 229.97470719419806,386.8587431160252 L 230.3598646625646,386.94310742405224 L 230.5929473055735,386.5218389659332 L 230.59320951913887,386.51242251782134 L 230.64001564675604,384.8305462131753 L 229.99806724874148,381.7035282136603 L 229.68490985246677,380.1761365284857 L 228.4541147974465,376.81291999583476 L 226.78060184312122,373.71094559088596 L 223.85750824692286,369.57073038394566 L 220.27616106217462,365.56028341509534 L 218.59302732381113,364.68938008866843 L 218.58221440530377,364.6754663728644 z" id="c06073"/>
		<path d="M 136.68532991798963,151.0526805519983 L 136.85401044604313,143.01841678384915 L 140.42086370411465,140.03861349990646 L 143.35302923477073,136.16813288375695 L 142.52247118920505,133.52093464698524 L 152.6845812553893,142.80797312375918 L 152.75772657141752,142.87509689936462 L 151.58549337718947,147.42410971835378 L 154.01544573905127,152.55780010783138 L 150.73933182280996,158.93477887268884 L 148.63166057901975,155.183418011203 L 142.7084701666709,157.5734019828524 L 138.34041612930767,154.2670767128152 L 136.6287261692945,153.66733295411163 L 136.68532991798963,151.0526805519983 z" id="c06003"/>
		<path d="M 106.13290828510245,162.1329320687464 L 109.49802895544582,162.39098698770522 L 112.28508102913491,159.95250033663612 L 118.21640098080164,157.68635449196478 L 118.80765562264997,155.65439399832778 L 125.17249863795678,152.317848115175 L 128.1819773176876,152.72775629743856 L 132.31817914272938,151.32761553330675 L 136.68532991798963,151.0526805519983 L 136.6287261692945,153.66733295411163 L 138.34041612930767,154.2670767128152 L 133.1698442359536,156.63803449802958 L 124.12080950601018,169.5609759844666 L 123.40609551408059,171.49293547985823 L 121.02909254699719,172.3700765687941 L 121.62796470123806,173.88633354799146 L 116.93696113000982,178.8258004027817 L 108.22057078424734,168.35829337003284 L 107.72835571840947,167.556456202098 L 106.13290828510245,162.1329320687464 z" id="c06009"/>
		<path d="M 42.516910275698756,71.6514024704548 L 44.9340301816191,68.17860471485272 L 48.0174409440826,67.20397407754506 L 49.98112256056673,64.78432422932012 L 54.913147646810046,62.20119819762721 L 53.331728173238105,57.25258988704508 L 56.11407291794886,53.84267877280514 L 56.335641910523954,51.66321453301628 L 58.55872125886688,48.672823190900694 L 58.450973197617145,46.239292003187124 L 61.079703635528354,43.986593505356424 L 61.67419045166181,40.92107998444788 L 63.46747303002128,40.649984129095614 L 63.95063225804055,38.102854999405956 L 62.324712061979646,36.993841298427746 L 95.55896461539392,38.274062361997984 L 99.18438262693206,38.37951328119785 L 99.1734856818855,50.01692948475486 L 98.2872155583168,69.25110253096614 L 97.216186562203,69.15461672663594 L 92.86942051706089,69.0577218996542 L 88.10879603587308,69.34278085573958 L 83.01301768375859,68.7262541277893 L 78.6752785029482,69.79759139941886 L 76.48155377498595,69.24128541977184 L 66.80728501049256,71.16137661343701 L 62.514051290773835,70.87666816513634 L 60.032517082010955,69.88330785420271 L 55.84056702938004,72.4611215782328 L 52.78233371708693,70.76068510516178 L 48.81014975266738,71.26786257803377 L 47.26494586012751,72.95306974900637 L 45.4271164174381,72.51102045104814 L 42.529048571434025,73.54531101019126 L 42.516910275698756,71.6514024704548 z" id="c06089"/>
		<path d="M 58.70817762610038,171.61827273318022 L 60.647943660166156,170.76586079326466 L 60.6587176077525,169.52550681672804 L 61.519484725029294,169.50841930718073 L 62.215612318964745,169.49443596985566 L 64.22460059586692,167.86514553342766 L 64.027902963109,167.48588844375396 L 68.12906191300523,168.84981670767598 L 69.71619807955018,168.22352116863965 L 71.22765788178916,167.7913719271115 L 76.87214873306282,168.4673888564572 L 77.41773226721736,167.79216750772628 L 79.36036719687756,169.7162851399223 L 81.4559944247326,169.58628934810173 L 83.68872589966789,166.88217519014867 L 86.74929845288048,166.9553189148866 L 86.43975140312567,176.195988712789 L 87.90036253240466,177.20394312811243 L 87.09706743357626,178.54368318893737 L 86.42955269811868,178.72658444579832 L 76.52941769015767,181.366704444366 L 73.61498208595026,182.11464592080583 L 73.24479739684872,181.68776945513815 L 72.67522250124341,181.45279714748847 L 71.97821036726488,180.85029662633863 L 72.02400964602523,180.5314720698366 L 72.46661074154343,180.21175689745363 L 72.24644664995822,179.8971161755586 L 70.95032740382467,178.69750834825572 L 67.83374055311606,178.30246175514566 L 63.6967461646556,173.9110160565444 L 61.77627373004841,174.3283912920738 L 61.61146676472546,173.6980891897076 L 60.149382936692184,173.78466249106833 L 58.70817762610038,171.61827273318022 z" id="c06013"/>
		<path d="M 96.32434226273952,6.174938555474524 L 96.69485036096623,4.205511427976895 L 96.94259205744666,4.218618742381134 L 102.83649843601219,4.394291153618839 L 109.58111924779269,4.783437090032895 L 114.43618023375082,4.919608448263684 L 120.30577373286711,5.074213380566213 L 126.28321630486,5.224132419039347 L 136.2756220903175,5.423244742783726 L 141.97974063750337,5.543898892639089 L 141.87659334031994,10.559251066814223 L 141.69442482839463,21.29119191956032 L 141.28237604966236,39.49257999266916 L 125.4285745319413,39.13896735233462 L 99.18438262693206,38.37951328119785 L 95.55896461539392,38.274062361997984 L 96.33226573744658,13.454621265443173 L 96.32434226273952,6.174938555474524 z" id="c06049"/>
		<path d="M 59.6812309653765,163.32866018612143 L 66.03004323153115,163.62848280700996 L 66.6183372146665,163.31902391405956 L 66.55555398835712,156.95158365517005 L 71.31553887978194,156.65988426227318 L 69.35818701643701,152.34917054665175 L 70.25814246821258,148.86641550731628 L 73.21330924307132,150.00115144710338 L 75.6210124327004,148.24584066365156 L 83.09080371876186,148.33947783478837 L 83.34722631671536,157.6943164980391 L 86.6390252531765,157.84048257457138 L 85.73728640924612,162.69954757275946 L 83.37602854003302,164.11581408940353 L 82.39200946451217,167.16771290668402 L 77.41773226721736,167.79216750772628 L 76.87214873306282,168.4673888564572 L 71.22765788178916,167.7913719271115 L 69.71619807955018,168.22352116863965 L 68.12906191300523,168.84981670767598 L 64.027902963109,167.48588844375396 L 63.03940198037912,165.5782886466569 L 60.09254299341185,163.85440007475404 L 59.958736629201105,163.90878112095237 L 59.6812309653765,163.32866018612143 z" id="c06095"/>
		<path d="M 215.8355076747419,344.5794806651195 L 216.4432111033765,342.36199550957934 L 217.98141082869205,342.3243574527967 L 219.7882512734827,338.42114421811357 L 226.11326953125163,337.7658369986478 L 226.24462647766046,338.36629799206275 L 231.30172048641268,338.3594143126579 L 234.90671708029322,338.94447090757455 L 235.47937065439788,338.93530535922713 L 241.5454976681558,338.83864061862596 L 241.52562977943288,337.62598740592176 L 263.27290584892836,337.39151282232257 L 297.3047557463426,336.58433599746127 L 297.2613407440238,334.7683777622312 L 327.8657571923208,333.7707858268193 L 327.73227851030947,335.2848932592985 L 327.11161804000284,336.6221494156861 L 325.2960634253537,338.91771078976694 L 324.4579727447563,340.1422104079498 L 325.40748545810936,341.2671820670898 L 325.5662484902445,342.77298982186477 L 325.105267447656,344.3058864464381 L 325.7429887452691,347.0813754670786 L 326.0904907737289,348.7861943322906 L 325.8358662521841,349.8812039962827 L 325.17978225237914,351.21062933920473 L 325.1202235187415,353.49582414012633 L 325.35769698384945,355.7494116840924 L 322.917864995795,358.3922626964202 L 321.8890366542028,360.8004873705938 L 314.87290837502997,361.1722437265088 L 292.71006495295757,361.92989448426823 L 271.2026145996322,362.4498087717167 L 267.2851365996693,362.3992353124565 L 245.5464003237863,362.8054816655018 L 238.26591704700104,362.8808406947937 L 236.23887453568105,362.76042870947975 L 234.40783146725653,362.6800044424307 L 230.93583777075762,362.73356491945157 L 230.91670402765075,362.03022577206525 L 230.60850420356152,361.9203376177443 L 230.30075532943812,361.8028173913944 L 226.63277956988412,359.7296815399021 L 221.571404075612,359.75828025425096 L 221.54855690192542,358.5545971961985 L 223.35165956955265,355.7128355113656 L 224.9002353398068,353.3424492788624 L 220.68706642834093,351.23322344536854 L 215.76932587914672,344.6743979026726 L 215.8355076747419,344.5794806651195 z" id="c06065"/>
		<path d="M 39.505897033960025,168.72572274831128 L 41.39692595347377,164.25448586429624 L 41.76405380583016,161.6586108989667 L 40.791447237279186,159.03128314892848 L 40.892232596889635,157.55098417331314 L 40.387222244134726,156.58605186581974 L 43.448983655552375,155.67382534326651 L 48.8421050960039,160.6934158639753 L 54.53223205322894,161.99072423817356 L 56.35751765532273,164.852630369154 L 56.91098637318579,165.1454402070705 L 56.81764593227418,165.18325385320352 L 56.40733013662883,168.32874647393427 L 57.86955343652539,169.89391727872052 L 56.64095678780002,171.0664711286415 L 56.63308124094818,172.9341360402063 L 57.831115625877075,174.17363191112167 L 58.743381245779545,175.90906803165257 L 56.55175073401659,176.89483733429438 L 54.78419905717373,176.66549089183636 L 52.75887771513506,174.70692939965386 L 50.27611407175375,173.28066754559805 L 49.45513286927261,173.77501075021223 L 47.82506597943698,171.9603705305219 L 46.497395197562284,170.18326202454853 L 44.630614077167856,168.4240391746426 L 41.92693531600134,167.65905564082485 L 40.7051571666799,169.24418232818775 L 39.505897033960025,168.72572274831128 z" id="c06041"/>
		<path d="M 201.28158292058515,348.1208723736742 L 202.31718643902033,346.54516569113974 L 202.47763781956027,345.63063591365716 L 203.5155609557462,344.7955883948123 L 205.32116515120688,343.27674864850053 L 205.663517944528,341.4803108717315 L 207.28925583949558,341.4125197780605 L 212.01225791454578,341.45775292848634 L 215.8355076747419,344.5794806651195 L 215.76932587914672,344.6743979026726 L 220.68706642834093,351.23322344536854 L 224.9002353398068,353.3424492788624 L 223.35165956955265,355.7128355113656 L 221.54855690192542,358.5545971961985 L 221.571404075612,359.75828025425096 L 221.6171499693241,361.22874829752465 L 219.18764620970921,361.8914071858381 L 218.58221440530377,364.6754663728644 L 216.8531241556868,362.4486947489775 L 214.4211562780976,361.63278769420157 L 214.03081598018696,360.68383543285967 L 213.8293963061747,360.49628923755074 L 210.97285168242004,357.83310310771327 L 210.0636781068858,356.9499478076157 L 207.04458503157917,355.62431621346826 L 204.48988292038035,353.59829190610486 L 201.4252836704532,350.46096744537954 L 200.5173287075178,349.8791000027717 L 201.28158292058515,348.1208723736742 z" id="c06059"/>
		<path d="M 99.18438262693206,38.37951328119785 L 125.4285745319413,39.13896735233462 L 141.28237604966236,39.49257999266916 L 141.03778621186825,52.797904829814264 L 140.9712759243207,58.85738002736004 L 140.68334527741172,75.56177289941387 L 140.49063861782668,83.69992883645958 L 140.33334764675018,90.79070886325104 L 140.0650172139298,100.55862678203673 L 139.54454374633335,101.11947296212776 L 135.30879149154927,101.07611822929285 L 136.53663269323266,98.67603456942894 L 136.74884403894146,91.42714165018765 L 133.8444952704406,88.27611916278639 L 133.64219100448108,85.24221185685343 L 129.4460347083681,83.92603477644099 L 126.15880874329903,81.27391428782747 L 124.1546372363433,78.21241562109789 L 119.69690572497227,75.64450131580803 L 116.1178974239528,75.19891716170241 L 110.71868246123876,80.23109816179009 L 106.54534225369747,77.41195168723455 L 106.78965918196704,69.47254346115865 L 98.2872155583168,69.25110253096614 L 99.1734856818855,50.01692948475486 L 99.18438262693206,38.37951328119785 z" id="c06035"/>
		<path d="M 115.88254079280469,215.37853419522608 L 118.06368367189962,215.44341504583113 L 119.79070444076328,211.66611678719295 L 122.69998548211676,217.28462134969743 L 122.45379123448568,219.28794419336919 L 125.24955476343622,222.5959588999531 L 129.95228279814614,223.3379150101185 L 135.72953286482772,221.24980763852864 L 136.71285177851095,221.61808894827755 L 139.9381071495392,220.48234931241143 L 143.8831779359512,220.27246995237817 L 147.36593237563238,214.4488118258983 L 147.63270369349706,214.11413428782734 L 150.4600438916034,213.04582365904105 L 151.02988424684818,211.20782489371086 L 152.42250133079776,211.51763344879157 L 152.31433083204053,209.35929817559403 L 154.35071509726308,207.95093042043763 L 155.5210427237987,209.632285947166 L 156.8096491417116,207.53092537364515 L 159.1530460803466,207.32704994767263 L 160.24519977341856,205.73651037576994 L 160.14964703986303,201.3681327150147 L 161.7961372355934,198.72008044388417 L 170.65903142711227,190.05151061936792 L 174.132177520351,191.558028949758 L 176.31159501204246,194.67854901850384 L 178.80945755116355,195.22895438903134 L 178.38177517585976,200.20418833813588 L 180.72595728319968,200.85284929045108 L 182.71578329550434,208.61891469102378 L 184.7768842646569,208.78471510491795 L 189.94109973333343,212.06879865163157 L 192.45860981366008,219.23478810096583 L 191.48385502816114,221.4460513403658 L 192.4454694633176,225.178893143007 L 171.63771985103014,225.1698935544938 L 171.5250750861129,228.68198413792803 L 168.0580762757999,228.63097266330007 L 165.1616853684761,228.5416561224949 L 160.81415147483526,228.41618934953829 L 160.75128161036625,232.02750939348743 L 155.34696231615075,231.8900987394873 L 152.62891907016171,234.60472020376017 L 151.707779120333,235.42722008050768 L 148.53148545821827,238.28424938852652 L 145.56966770799247,238.93462957527086 L 138.68126179602544,238.85094268607833 L 138.50936416911034,247.96106287627038 L 126.25449817571884,259.1128853677484 L 122.32912595202808,256.45359133014557 L 114.59674951206313,249.22683995730733 L 116.03707451235454,246.55539555744593 L 114.36816314259237,243.84666284671817 L 117.19342588901841,241.37757272688094 L 117.34503555695393,234.73922472460177 L 106.85953421052972,223.96527937140146 L 115.88254079280469,215.37853419522608 z" id="c06019"/>
		<path d="M 130.23433900405826,264.10582750452386 L 152.44036810225452,264.50305226535 L 168.84806761377826,264.66550214831545 L 177.3011887130772,264.7602577353637 L 202.21794443745807,264.8188224930051 L 204.23818882439767,264.91830933616416 L 207.0676163534666,264.543897192677 L 216.9340249535857,264.55949085700325 L 216.30375361393843,268.18981215001685 L 217.5212232493246,269.3935581447358 L 217.06682815229024,274.2474723553112 L 217.11565215755894,305.063177430568 L 215.90709903904715,305.0567561180911 L 212.23924109125764,305.0347512415546 L 193.3336376398783,305.17378260116567 L 173.8642536177191,305.1283979911093 L 174.30885515922137,306.2681308307898 L 171.0500685457874,305.34200791923587 L 161.9072455785408,305.15881578185986 L 160.8010832143633,302.4241266036189 L 155.15253568621225,301.45045053211163 L 154.11217813924623,301.43951794581153 L 154.22031133846195,294.1414334600405 L 151.2137541525312,293.64787395896786 L 151.52340305515912,289.8179220076413 L 147.65215695169687,289.9705261029864 L 147.72597725652142,286.3272912623972 L 142.8624423518844,286.19926976335506 L 142.93121556274454,282.57401288926525 L 140.52126877155675,282.51540231091013 L 140.59390491954605,278.8634736386305 L 139.4513563606629,278.83654981248077 L 133.64541443944154,275.09369133184157 L 133.74679004168712,271.4401165131733 L 130.0835063546952,271.368973381256 L 130.23433900405826,264.10582750452386 z" id="c06029"/>
		<path d="M 28.256796977647976,45.024636842643574 L 30.67237872517143,46.627873967806856 L 33.27917200381113,42.63700262871542 L 31.588500016830498,39.92435054377798 L 33.583170527541384,35.69078492486918 L 37.717127876422175,38.30164740616407 L 38.68633040388612,40.327125130526944 L 42.8091409938305,40.55353553916629 L 44.94494491331032,43.651322173009206 L 48.70004119471405,44.259126378246194 L 49.40723392534094,42.849227835386245 L 47.176147030622055,39.237434534762826 L 50.1300497479499,35.482837236549706 L 52.4793192056256,35.709007676992314 L 57.62551620634882,32.31475350282002 L 59.91754565431306,29.496079591775587 L 62.451121051576166,30.282243248620347 L 61.61648791862951,35.6695540283454 L 62.324712061979646,36.993841298427746 L 63.95063225804055,38.102854999405956 L 63.46747303002128,40.649984129095614 L 61.67419045166181,40.92107998444788 L 61.079703635528354,43.986593505356424 L 58.450973197617145,46.239292003187124 L 58.55872125886688,48.672823190900694 L 56.335641910523954,51.66321453301628 L 56.11407291794886,53.84267877280514 L 53.331728173238105,57.25258988704508 L 54.913147646810046,62.20119819762721 L 49.98112256056673,64.78432422932012 L 48.0174409440826,67.20397407754506 L 44.9340301816191,68.17860471485272 L 42.516910275698756,71.6514024704548 L 42.529048571434025,73.54531101019126 L 45.24235008961674,75.59179286766177 L 44.657844386991755,79.5685608844998 L 46.095072435552765,86.63675885149453 L 26.508481310301953,85.66156845200307 L 26.569182661158244,84.62338937897223 L 28.280596177467363,53.85840298010441 L 27.987675692504883,50.064693094346616 L 26.198210678614455,45.766076699588524 L 28.256796977647976,45.024636842643574 z" id="c06105"/>
		<path d="M 153.6154977587127,323.1306497441784 L 154.73093098640896,322.0988458112809 L 154.89474237234828,319.613706801079 L 154.94975481480338,315.57878672251763 L 155.15253568621225,301.45045053211163 L 160.8010832143633,302.4241266036189 L 161.9072455785408,305.15881578185986 L 171.0500685457874,305.34200791923587 L 174.30885515922137,306.2681308307898 L 179.11120454722965,318.42176702451115 L 182.0326178824841,325.7348449581902 L 182.66718697429033,327.9764585926547 L 181.47722500329147,329.3323894967293 L 181.45872673664104,330.8909547977154 L 180.55646203841596,332.15622625700007 L 179.53642824650962,332.17794459735615 L 177.27472173359416,332.14626834946796 L 174.92682353309658,333.84870692184523 L 171.99397273184826,335.9740214523756 L 171.85582103376746,337.1452418566738 L 171.50226874283655,337.0825844478046 L 167.5369517033717,335.28548488631753 L 166.1626912325188,335.1004446805969 L 162.12096763859014,332.26366211326524 L 161.1361865329679,330.1091009163788 L 160.70494299916405,328.4587929155377 L 160.48361804119355,328.31320296315664 L 159.23817062306557,327.49344267511515 L 157.10069861866293,325.57777419096016 L 154.19491648305356,323.33741430213877 L 153.6154977587127,323.1306497441784 z M 153.66635715342198,336.6252319224769 L 154.63721678394037,336.6326821311272 L 157.34686007976256,336.81017294021296 L 157.3582809337943,338.89751366463867 L 156.36828871274005,339.12952895435484 L 153.0439564276085,339.00385311796094 L 153.66635715342198,336.6252319224769 z M 149.42004757423337,368.77137142297045 L 151.8261168401685,367.6184455454466 L 154.70763903023916,369.37412479496055 L 154.60194788585557,370.9453628496108 L 153.36661527708824,371.45666165168524 L 150.5449021618477,370.66765264286954 L 149.42004757423337,368.77137142297045 z" id="c06111"/>
		<path d="M 271.0412235741532,391.7199074710999 L 271.6229445515217,377.0295042976532 L 271.2026145996322,362.4498087717167 L 292.71006495295757,361.92989448426823 L 314.87290837502997,361.1722437265088 L 321.8890366542028,360.8004873705938 L 321.6939565486092,361.25669047377005 L 320.35213834949957,361.4853621865494 L 318.5812041011895,362.0942649411828 L 319.2443545370441,363.253777016424 L 319.29534121868227,365.4635091298643 L 318.8100144954567,366.9482794520894 L 320.55516070519354,368.2410031366012 L 320.4640970321066,369.29545750532475 L 320.5171813857547,372.2356778488696 L 319.6544480434992,374.5162374403651 L 320.98317061533425,377.2719590353971 L 322.4794961912325,377.51020761694156 L 324.32999091178675,377.2194152897483 L 326.3637815683515,377.6410994910779 L 326.5806696041423,377.68599314769733 L 327.70566278353795,379.78307687329027 L 327.9397967290655,381.78839596060084 L 328.44476550884417,382.67458521092027 L 328.32284997860546,385.0372233526123 L 326.2123802760733,387.7153473129616 L 324.89660991201174,389.2191359289425 L 323.26632647788074,389.53897632779837 L 321.5172539665153,389.8812255816672 L 320.1656510214686,389.62003710795364 L 319.7081987664605,390.5835765091018 L 309.86102265106445,391.6847072733897 L 293.5876372891177,393.4868325301268 L 273.1928584365905,395.7603984567466 L 271.1029689898275,395.99881043674554 L 271.0412235741532,391.7199074710999 z" id="c06025"/>
		<path d="M 105.43675001851065,150.3254787894359 L 112.49920125639846,148.28451981155234 L 118.51457225665682,150.90801713909158 L 122.35184043331701,150.65927471839532 L 129.22187675955288,149.25532767389478 L 132.2040021894178,145.9778690081519 L 134.58731307392335,145.65431919607875 L 136.01305347329475,142.74000364771445 L 136.85401044604313,143.01841678384915 L 136.68532991798963,151.0526805519983 L 132.31817914272938,151.32761553330675 L 128.1819773176876,152.72775629743856 L 125.17249863795678,152.317848115175 L 118.80765562264997,155.65439399832778 L 118.21640098080164,157.68635449196478 L 112.28508102913491,159.95250033663612 L 109.49802895544582,162.39098698770522 L 106.13290828510245,162.1329320687464 L 105.18969464759701,158.9864651118667 L 105.43675001851065,150.3254787894359 z" id="c06005"/>
		<path d="M 61.178905912299065,131.30263485898269 L 63.25116912958913,131.43633810947168 L 79.66896425242771,132.094584851652 L 82.37569158739277,134.41712609562998 L 84.65237467286484,139.84304523816584 L 86.95461653532539,140.23090985033204 L 85.87269049641604,142.2629819394435 L 88.36688104959504,145.80556991680356 L 88.65402335904076,146.05006644987526 L 89.21626942217016,145.7822277531123 L 89.73689762796373,145.9546989592239 L 89.88874650346293,146.568548838213 L 89.37919860749099,147.38856296796155 L 89.66645678697095,148.22871516319108 L 89.5784671902358,148.48335491481745 L 89.00080255046711,148.91084156546958 L 89.21321285362599,149.27245836832722 L 88.29490790202111,149.53217694295495 L 88.05103235783905,150.0204563662073 L 89.75773493576504,151.42983032481538 L 89.05640714521743,155.9669278984151 L 86.6390252531765,157.84048257457138 L 83.34722631671536,157.6943164980391 L 83.09080371876186,148.33947783478837 L 75.6210124327004,148.24584066365156 L 73.21330924307132,150.00115144710338 L 70.25814246821258,148.86641550731628 L 68.37715595680108,142.87066641443323 L 66.63063340354137,140.9342264321407 L 64.79838123191529,135.01991335070952 L 61.35669012633551,133.85696157291775 L 60.555213021653586,132.17296370482333 L 61.178905912299065,131.30263485898269 z" id="c06113"/>
		<path d="M 97.08220023923647,207.25868756429054 L 106.09439624902122,198.74042501297322 L 105.2928493316598,196.64717414442146 L 125.50550657898717,187.30356054909407 L 132.1190184082528,202.92708054202427 L 136.22654551350055,206.27589171666315 L 134.40502328211554,206.90194017164035 L 130.37833524643648,206.97125094410043 L 122.01013372573003,209.56309338303126 L 119.79070444076328,211.66611678719295 L 118.06368367189962,215.44341504583113 L 115.88254079280469,215.37853419522608 L 106.85953421052972,223.96527937140146 L 99.53308702883176,219.73964865092066 L 96.5418297023686,215.89068871758474 L 97.23073502812485,214.48352383050656 L 96.24336231464059,213.54527968661313 L 97.08220023923647,207.25868756429054 z" id="c06047"/>
		<path d="M 54.94196229327707,187.26104696578378 L 55.71366549622499,185.79634511928475 L 55.8519918359995,182.707873588715 L 55.76376408006833,181.8000313036506 L 59.42537890815471,181.9538025498187 L 59.312842874143854,181.9822054416717 L 60.19430444227426,186.8116613409807 L 63.96599090835697,188.40418690929206 L 66.38544579377782,190.75405106987503 L 67.71462160636658,190.0936024213198 L 68.08573583672866,190.71682092795268 L 69.22144157392367,191.96581602061224 L 67.08542865433182,192.69604673241918 L 65.53243299716027,193.74451737318222 L 65.26060577791586,198.45721768132753 L 66.54630862520807,199.8409747673779 L 66.40853183127341,202.77480347254163 L 60.8768670697536,203.72798533400783 L 61.50858080096324,207.16042362788951 L 60.57320383230576,206.69076944858816 L 59.92395304248388,205.47056704990896 L 58.23830505341921,203.60087695673224 L 57.63929384779885,201.02365254492992 L 58.18764887640357,198.28129793826602 L 58.36942129376932,197.37141657545234 L 58.175063553009,195.78912541543122 L 57.145566063056364,193.19800318331232 L 57.11643324574777,192.13065299386358 L 55.59001197146636,190.78007436743704 L 54.885829601646364,189.54078223627312 L 54.94196229327707,187.26104696578378 z" id="c06081"/>
		<path d="M 77.91603877165223,116.19810692871519 L 86.66688495518105,116.45630403877807 L 87.11513290510322,116.88750404740802 L 88.03454913128931,125.5123341546221 L 88.11993946103945,132.66017350459992 L 89.24550704628268,130.44747696889374 L 93.4589423021263,129.5903984223019 L 93.37186986044134,132.5166923607277 L 91.5834062092131,132.46468622438286 L 90.81762450814209,140.4188528898664 L 88.35857053305254,140.26160768023973 L 86.95461653532539,140.23090985033204 L 84.65237467286484,139.84304523816584 L 82.37569158739277,134.41712609562998 L 79.66896425242771,132.094584851652 L 81.08630902157508,129.1784085030456 L 78.163230770059,125.86757421560911 L 76.50727280366469,121.31906903892116 L 77.91603877165223,116.19810692871519 z" id="c06101"/>
		<path d="M 101.9695834381499,141.73117757514373 L 104.86974201210965,136.15475787702715 L 105.52451830515355,133.352215409181 L 105.62263871987709,133.34888664335907 L 108.84368045866485,131.4994974219516 L 111.47876970553084,131.99597046930765 L 113.05086997832944,130.0439504017841 L 115.20512378491604,129.67740693055578 L 118.51182617189724,132.51587300168495 L 121.04027672359487,133.86128841552815 L 124.11286298090616,131.77850845552487 L 125.3370066460445,129.19593321792243 L 133.5049705012862,129.26477675897485 L 134.85156317872358,127.78142303397208 L 139.45529026639315,127.86758014012992 L 139.4301621478557,130.69897266678095 L 142.52247118920505,133.52093464698524 L 143.35302923477073,136.16813288375695 L 140.42086370411465,140.03861349990646 L 136.85401044604313,143.01841678384915 L 136.01305347329475,142.74000364771445 L 134.58731307392335,145.65431919607875 L 132.2040021894178,145.9778690081519 L 129.22187675955288,149.25532767389478 L 122.35184043331701,150.65927471839532 L 118.51457225665682,150.90801713909158 L 112.49920125639846,148.28451981155234 L 105.43675001851065,150.3254787894359 L 102.71290022032025,141.50738593499415 L 102.23644886797342,142.01317640959394 L 101.9695834381499,141.73117757514373 z" id="c06017"/>
		<path d="M 65.53243299716027,193.74451737318222 L 67.08542865433182,192.69604673241918 L 69.22144157392367,191.96581602061224 L 69.92055547061311,192.56669861541988 L 74.3656083347998,193.15557519004614 L 76.71002002279194,191.98271461021213 L 89.39972294478237,192.54404702248075 L 91.37505585693336,199.73694552764908 L 89.56481614341918,200.85092375016146 L 91.35844588025046,206.42030083747247 L 95.30261835020022,205.16615064815775 L 97.08220023923647,207.25868756429054 L 96.24336231464059,213.54527968661313 L 97.23073502812485,214.48352383050656 L 90.46466518969838,214.28926056304113 L 89.38027061128129,213.07504684719706 L 87.70493449133731,213.7221425308931 L 87.39188076603581,214.37180291316042 L 87.25509136136048,214.8190569965247 L 86.54549659864239,215.38592142256073 L 86.34535074336735,215.80194601024812 L 86.07370529590796,215.932749515333 L 84.93406231579752,216.6512023439169 L 79.8234359616569,212.68517307354637 L 77.60233581745565,209.30123268281795 L 76.40716828911064,208.1020862717378 L 71.66499909305047,205.9505273869572 L 66.54630862520807,199.8409747673779 L 65.26060577791586,198.45721768132753 L 65.53243299716027,193.74451737318222 z" id="c06085"/>
		<path d="M 92.86942051706089,69.0577218996542 L 97.216186562203,69.15461672663594 L 98.2872155583168,69.25110253096614 L 106.78965918196704,69.47254346115865 L 106.54534225369747,77.41195168723455 L 110.71868246123876,80.23109816179009 L 116.1178974239528,75.19891716170241 L 119.69690572497227,75.64450131580803 L 124.1546372363433,78.21241562109789 L 126.15880874329903,81.27391428782747 L 129.4460347083681,83.92603477644099 L 133.64219100448108,85.24221185685343 L 133.8444952704406,88.27611916278639 L 136.74884403894146,91.42714165018765 L 136.53663269323266,98.67603456942894 L 135.30879149154927,101.07611822929285 L 118.96818718340892,100.72872694495477 L 118.08010824049342,101.94896349062758 L 114.51713015623008,100.47597653152599 L 112.06774620449745,97.6085923280482 L 107.43825378001739,103.20779707772232 L 105.21689239990597,104.90188778357108 L 103.32073387498728,103.55317237491481 L 101.0589734436339,99.41193522018348 L 96.69095268872411,95.09131910188421 L 94.25181710727706,91.89291509027684 L 94.75242040831391,87.08711571803374 L 96.54041021326549,84.21086225705137 L 94.38828624188535,81.38638815814515 L 96.66641158845405,78.94253228263874 L 97.63815328499665,74.89899812413421 L 93.600982159377,73.07073272122769 L 92.86942051706089,69.0577218996542 z" id="c06063"/>
		<path d="M 91.5834062092131,132.46468622438286 L 93.37186986044134,132.5166923607277 L 93.4589423021263,129.5903984223019 L 95.10553263363589,128.17405182004651 L 96.2085564287078,127.78213483896006 L 97.07292735384443,127.35514395083325 L 97.90756213598847,128.1467966421311 L 102.51160429377218,128.15647989121217 L 104.71827442573583,129.58977741467154 L 107.51848257535855,125.62635312142001 L 116.12081694871343,118.1188286949448 L 121.7637957191826,117.11930167211501 L 129.2851516800925,117.26713618155466 L 138.53865232084934,117.47169166867239 L 139.5706957911413,117.48656013634381 L 139.53849719530757,118.53774260945796 L 139.49170033788326,123.77637804622739 L 139.4720431042696,125.98348180419221 L 139.45529026639315,127.86758014012992 L 134.85156317872358,127.78142303397208 L 133.5049705012862,129.26477675897485 L 125.3370066460445,129.19593321792243 L 124.11286298090616,131.77850845552487 L 121.04027672359487,133.86128841552815 L 118.51182617189724,132.51587300168495 L 115.20512378491604,129.67740693055578 L 113.05086997832944,130.0439504017841 L 111.47876970553084,131.99597046930765 L 108.84368045866485,131.4994974219516 L 105.62263871987709,133.34888664335907 L 105.52451830515355,133.352215409181 L 104.86974201210965,136.15475787702715 L 101.9695834381499,141.73117757514373 L 96.52787570356223,141.10416396560046 L 94.15906029624152,140.81660222590457 L 90.81762450814209,140.4188528898664 L 91.5834062092131,132.46468622438286 z" id="c06061"/>
		<path d="M 82.8355042045022,216.79027715064157 L 84.93406231579752,216.6512023439169 L 86.07370529590796,215.932749515333 L 86.34535074336735,215.80194601024812 L 86.54549659864239,215.38592142256073 L 87.25509136136048,214.8190569965247 L 87.39188076603581,214.37180291316042 L 87.70493449133731,213.7221425308931 L 89.38027061128129,213.07504684719706 L 90.46466518969838,214.28926056304113 L 97.23073502812485,214.48352383050656 L 96.5418297023686,215.89068871758474 L 99.53308702883176,219.73964865092066 L 106.85953421052972,223.96527937140146 L 117.34503555695393,234.73922472460177 L 117.19342588901841,241.37757272688094 L 114.36816314259237,243.84666284671817 L 111.73181281255506,242.0588007838874 L 113.04396812140213,244.11491302256994 L 112.9484175647787,246.73845890880372 L 111.50621861722706,246.4192478001639 L 108.12351019100511,242.62419139509456 L 106.28013428007968,241.80463389355853 L 102.62495448960577,243.81425420006158 L 102.25325687966549,241.1464126188736 L 97.28175035017705,235.9278440600742 L 95.66447505898167,233.3324370669035 L 93.38819630771316,233.43182134917893 L 93.31454068671533,228.96688428978274 L 92.30515485772054,227.3389956754116 L 88.40799206088435,225.66096069075655 L 89.02443829599201,224.04836364766174 L 84.29663470821703,219.1998157122484 L 82.8355042045022,216.79027715064157 z" id="c06069"/>
		<path d="M 39.78746932156682,119.9223895682553 L 42.60554264716042,117.46974664622245 L 40.36717510883677,110.18552635859184 L 40.95411641213797,106.21163044389534 L 46.585582164736735,105.42663508993226 L 46.849128218956594,103.30530896842656 L 51.67817366903742,103.51320134170757 L 51.17969461002426,111.73341461507125 L 49.691016016973784,111.67498493670183 L 51.007013276322006,112.35725015965765 L 49.874833686734675,114.65640277480352 L 52.778661776159275,117.8427844505166 L 59.254804868716406,120.8417300486912 L 58.57605009428093,125.85925635234355 L 61.044403463147624,127.3361564455219 L 61.07906697418218,129.7336023983649 L 63.25116912958913,131.43633810947168 L 61.178905912299065,131.30263485898269 L 60.555213021653586,132.17296370482333 L 61.35669012633551,133.85696157291775 L 61.15140823575601,136.36091919983727 L 58.82190669451851,140.37889251964063 L 53.41696398206745,141.706517787289 L 48.25690355188515,134.31279388160002 L 47.445750775629335,133.80718132079838 L 43.40581915330283,131.52111410335476 L 42.37772069724276,127.41974604975881 L 40.16750095889536,126.31538902505928 L 40.22874822827332,125.1615368153556 L 39.78746932156682,119.9223895682553 z" id="c06033"/>
		<path d="M 11.15648773430811,83.7614769128335 L 26.569182661158244,84.62338937897223 L 26.508481310301953,85.66156845200307 L 46.095072435552765,86.63675885149453 L 46.787175014841246,88.41562359514073 L 45.435019141860806,89.54743809816702 L 45.60936234040553,94.13481381387628 L 46.87442542280266,97.9262712278766 L 46.849128218956594,103.30530896842656 L 46.585582164736735,105.42663508993226 L 40.95411641213797,106.21163044389534 L 40.36717510883677,110.18552635859184 L 42.60554264716042,117.46974664622245 L 39.78746932156682,119.9223895682553 L 40.22874822827332,125.1615368153556 L 40.16750095889536,126.31538902505928 L 42.37772069724276,127.41974604975881 L 43.40581915330283,131.52111410335476 L 47.445750775629335,133.80718132079838 L 39.00741241700725,133.2953032170905 L 37.116952265075724,135.00598220185506 L 29.492186023208077,135.94540165241207 L 23.846189645026023,136.03139421837363 L 22.904827781350587,134.70506305310957 L 20.841513984508012,132.68350699777977 L 20.21862258891432,131.45202128371838 L 18.666045545970086,129.66512628032748 L 18.038631341376167,127.88587059066118 L 19.56459574488939,125.20471512271257 L 18.812556167541103,120.81804842040412 L 17.536862482108795,117.89152320790166 L 16.651507448925173,114.59532258882759 L 16.015263514268206,110.8214983222785 L 16.565918413250017,107.27192382155266 L 18.376795116849298,102.93605106311799 L 18.030594964338146,100.04581096961553 L 17.848130299213874,97.41736177117342 L 16.755057208127052,95.72602327020493 L 16.306467706025664,91.14429872819773 L 14.585029553283237,89.7478489894993 L 13.213218209342264,87.18517697117052 L 11.15648773430811,83.7614769128335 z" id="c06045"/>
		<path d="M 53.41696398206745,141.706517787289 L 58.82190669451851,140.37889251964063 L 61.15140823575601,136.36091919983727 L 61.35669012633551,133.85696157291775 L 64.79838123191529,135.01991335070952 L 66.63063340354137,140.9342264321407 L 68.37715595680108,142.87066641443323 L 70.25814246821258,148.86641550731628 L 69.35818701643701,152.34917054665175 L 71.31553887978194,156.65988426227318 L 66.55555398835712,156.95158365517005 L 66.6183372146665,163.31902391405956 L 66.03004323153115,163.62848280700996 L 59.6812309653765,163.32866018612143 L 61.62970802288336,161.81574052806147 L 55.863873137800454,147.97096104630816 L 54.01432732488734,146.3217971693829 L 53.08389084344853,145.7839945536906 L 53.41696398206745,141.706517787289 z" id="c06055"/>
		<path d="M 74.46719498471637,91.84795152509773 L 82.20682998609912,92.1263445139058 L 85.59975802331188,88.0802231239329 L 87.43334313647935,88.21843373488593 L 89.52288680537549,83.36351035332856 L 94.38828624188535,81.38638815814515 L 96.54041021326549,84.21086225705137 L 94.75242040831391,87.08711571803374 L 94.25181710727706,91.89291509027684 L 96.69095268872411,95.09131910188421 L 101.0589734436339,99.41193522018348 L 103.32073387498728,103.55317237491481 L 105.21689239990597,104.90188778357108 L 102.76232821360533,107.78180162568039 L 97.74093516951193,107.90688489938702 L 94.23144101131801,115.26081026912331 L 87.11513290510322,116.88750404740802 L 86.66688495518105,116.45630403877807 L 77.91603877165223,116.19810692871519 L 78.29897388708204,113.9839562846935 L 78.63614608698495,112.88770289536437 L 79.96386857670093,106.55035530239955 L 75.52102599821966,106.50110204811088 L 75.7385998948867,100.76695095489941 L 77.27256093702371,98.25738891370537 L 76.67555964041996,98.67673421260824 L 74.91757966186552,95.35978018819101 L 74.27091387969878,95.43776575352945 L 74.46719498471637,91.84795152509773 z" id="c06007"/>
		<path d="M 42.529048571434025,73.54531101019126 L 45.4271164174381,72.51102045104814 L 47.26494586012751,72.95306974900637 L 48.81014975266738,71.26786257803377 L 52.78233371708693,70.76068510516178 L 55.84056702938004,72.4611215782328 L 60.032517082010955,69.88330785420271 L 62.514051290773835,70.87666816513634 L 66.80728501049256,71.16137661343701 L 76.48155377498595,69.24128541977184 L 78.6752785029482,69.79759139941886 L 83.01301768375859,68.7262541277893 L 88.10879603587308,69.34278085573958 L 92.86942051706089,69.0577218996542 L 93.600982159377,73.07073272122769 L 97.63815328499665,74.89899812413421 L 96.66641158845405,78.94253228263874 L 94.38828624188535,81.38638815814515 L 89.52288680537549,83.36351035332856 L 87.43334313647935,88.21843373488593 L 85.59975802331188,88.0802231239329 L 82.20682998609912,92.1263445139058 L 74.46719498471637,91.84795152509773 L 74.27091387969878,95.43776575352945 L 45.60936234040553,94.13481381387628 L 45.435019141860806,89.54743809816702 L 46.787175014841246,88.41562359514073 L 46.095072435552765,86.63675885149453 L 44.657844386991755,79.5685608844998 L 45.24235008961674,75.59179286766177 L 42.529048571434025,73.54531101019126 z" id="c06103"/>
		<path d="M 150.73933182280996,158.93477887268884 L 154.01544573905127,152.55780010783138 L 151.58549337718947,147.42410971835378 L 152.75772657141752,142.87509689936462 L 161.0382964093933,150.44476732707892 L 162.63759798377006,151.90012899982466 L 166.59089033486643,155.51039269269856 L 173.33446717727003,161.63872359162445 L 187.9983969815601,175.06405254249353 L 190.39394831374247,177.2726492430099 L 203.77618906789675,189.52264681024087 L 210.03174512358098,195.2449683489896 L 178.80945755116355,195.22895438903134 L 176.31159501204246,194.67854901850384 L 174.132177520351,191.558028949758 L 170.65903142711227,190.05151061936792 L 167.3605098294148,183.85483044582884 L 162.57435514125092,183.57187013838535 L 164.84388082010986,180.89036423811078 L 164.9173030196718,177.49906287981693 L 161.38450046980256,174.91588446483556 L 161.55134813569816,171.7097458118864 L 160.22340850482414,169.2266137743928 L 156.1863353010455,167.28934608463504 L 152.6857073970459,166.0130254081791 L 150.86706389117487,164.26848413738506 L 151.827015031954,162.7804811619533 L 150.30810477875784,160.6110702240024 L 150.73933182280996,158.93477887268884 z" id="c06051"/>
		<path d="M 98.66552058268722,118.23920450163007 L 103.29677040541377,113.90024831304909 L 106.72081730706087,113.53262297985513 L 115.40725850137311,111.23256793088804 L 118.76678885879839,108.2255219068682 L 121.32207456399766,108.48434805702513 L 123.49132931055094,111.7173244508151 L 139.73476323266428,112.12636256429413 L 139.5706957911413,117.48656013634381 L 138.53865232084934,117.47169166867239 L 129.2851516800925,117.26713618155466 L 121.7637957191826,117.11930167211501 L 116.12081694871343,118.1188286949448 L 107.51848257535855,125.62635312142001 L 104.71827442573583,129.58977741467154 L 102.51160429377218,128.15647989121217 L 97.90756213598847,128.1467966421311 L 98.66552058268722,118.23920450163007 z" id="c06057"/>
		<path d="M 126.25449817571884,259.1128853677484 L 138.50936416911034,247.96106287627038 L 138.68126179602544,238.85094268607833 L 145.56966770799247,238.93462957527086 L 148.53148545821827,238.28424938852652 L 151.707779120333,235.42722008050768 L 153.21413866023113,235.50409103103465 L 153.14273804444673,239.08151036460498 L 154.953345166007,239.12984909860896 L 154.88247983323762,244.61285533419849 L 153.0404924132143,244.5510365277454 L 152.67242470369624,253.65083357089367 L 152.44036810225452,264.50305226535 L 130.23433900405826,264.10582750452386 L 129.56312705793147,264.0881148792478 L 127.58176545007971,259.19744180097786 L 126.25449817571884,259.1128853677484 z" id="c06031"/>
		<path d="M 138.27100294643793,336.1849449056696 L 140.3171649476748,335.6855030622036 L 144.37351711334986,336.67196905394957 L 150.34876274693076,336.59772595881805 L 153.66635715342198,336.6252319224769 L 153.0439564276085,339.00385311796094 L 150.73572475770465,338.91471682420365 L 146.97953940395792,339.350223235886 L 144.94114034932872,340.40869913279033 L 142.3574877167047,340.2244930413992 L 139.69198022687019,339.4510845602724 L 139.60235298987425,337.65675719451195 L 138.27100294643793,336.1849449056696 z M 122.66452945898055,335.09974248720687 L 126.99339855620443,336.0005973910996 L 130.6512334012802,337.37171094926055 L 133.45297405863357,336.9464660727158 L 135.85622909536858,339.2290364216552 L 136.1899731102538,340.95830240877297 L 133.53621228615404,342.0650132243012 L 131.02223374318788,342.7960016616864 L 129.06939921560456,341.4130491427523 L 128.3675060753691,340.1966736713373 L 122.70057688924548,338.61895894840444 L 119.64892718620315,337.03762002826426 L 122.66452945898055,335.09974248720687 z M 113.90413997892193,297.54062934497193 L 119.1892419734755,296.92848051310006 L 121.25880365730654,297.24502485415405 L 125.74917586376789,300.7242406446487 L 124.72695050961619,296.51476131876717 L 129.74310598635532,295.62781972669916 L 130.49274711657873,293.7777016294578 L 133.44687117164162,292.2038968992334 L 136.87974756626102,294.64590751546757 L 138.6472051838351,294.587997710302 L 144.82959119084916,298.27888364085493 L 147.31144503585375,298.333596083887 L 151.95406811476641,301.5566904927826 L 154.11217813924623,301.43951794581153 L 155.15253568621225,301.45045053211163 L 154.94975481480338,315.57878672251763 L 154.89474237234828,319.613706801079 L 154.73093098640896,322.0988458112809 L 153.6154977587127,323.1306497441784 L 151.59413694219054,322.4083801814532 L 148.86033190511907,321.306201915064 L 146.51798713766271,321.79522038575084 L 145.66898416248296,322.3167713788541 L 143.0401712756629,321.41530384349164 L 141.32263155781772,321.39270884043174 L 140.00250460297332,321.6591852832831 L 136.65935396645258,320.1060631835453 L 133.96514987653524,319.34548241309676 L 130.8633118443352,318.7924782079276 L 125.5685243761133,318.7911994974406 L 120.16699036484255,319.6412090862706 L 118.18191458660844,316.4403712779429 L 116.87381094527423,315.58305341200895 L 115.8168966051213,314.967520246667 L 114.39557278433684,315.05296028094966 L 113.62934722350033,313.91026789253215 L 115.25187312277596,309.3380207462528 L 114.85178472855118,307.7231905942474 L 114.46664643096774,307.40720617585674 L 115.14647813703704,302.4342407544352 L 113.12403801814168,300.4723864127197 L 113.90413997892193,297.54062934497193 z" id="c06083"/>
		<path d="M 121.62796470123806,173.88633354799146 L 121.02909254699719,172.3700765687941 L 123.40609551408059,171.49293547985823 L 124.12080950601018,169.5609759844666 L 133.1698442359536,156.63803449802958 L 138.34041612930767,154.2670767128152 L 142.7084701666709,157.5734019828524 L 148.63166057901975,155.183418011203 L 150.73933182280996,158.93477887268884 L 150.30810477875784,160.6110702240024 L 151.827015031954,162.7804811619533 L 150.86706389117487,164.26848413738506 L 152.6857073970459,166.0130254081791 L 156.1863353010455,167.28934608463504 L 160.22340850482414,169.2266137743928 L 161.55134813569816,171.7097458118864 L 161.38450046980256,174.91588446483556 L 164.9173030196718,177.49906287981693 L 164.84388082010986,180.89036423811078 L 162.57435514125092,183.57187013838535 L 161.27301756703326,181.9421845031557 L 157.43473202041488,178.19643615476028 L 155.86074637679363,178.6357993054532 L 153.86549121941792,176.58709499299948 L 150.18249815220457,178.91395432157896 L 149.45804368756706,180.8000502413923 L 144.7281619326481,182.64118464943095 L 141.50602295288917,182.4608636237613 L 135.86888577216567,179.39855584973785 L 134.25240946975651,181.33127376033949 L 126.99144818787522,183.5331792529741 L 128.22766059261343,186.0329301534835 L 125.41424032987592,185.21211854464127 L 125.50772830075402,187.28946186083803 L 116.93696113000982,178.8258004027817 L 121.62796470123806,173.88633354799146 z" id="c06109"/>
		<path d="M 183.83202695291394,361.309823596374 L 187.63719312013563,360.4876182447457 L 191.60913692478692,363.7528056036622 L 194.53084677872533,366.1642655734004 L 193.16478374004535,368.3363298783674 L 191.44046420458636,367.4583872996864 L 188.2819657142991,367.19631779213023 L 187.6894817900201,365.3716431799854 L 184.8871422174913,362.67910403002594 L 183.83202695291394,361.309823596374 z M 183.7239285599352,379.2240061501691 L 185.59995068394514,381.5203143981208 L 188.85096908418075,385.0888271079004 L 192.1092678590985,388.15393075773574 L 189.5751422530367,389.03186321491785 L 187.39885916090543,387.1940773732681 L 184.13696373160192,383.558741073538 L 182.05525267427146,379.9957077502626 L 183.7239285599352,379.2240061501691 z M 171.99397273184826,335.9740214523756 L 174.92682353309658,333.84870692184523 L 177.27472173359416,332.14626834946796 L 179.53642824650962,332.17794459735615 L 180.55646203841596,332.15622625700007 L 181.45872673664104,330.8909547977154 L 181.47722500329147,329.3323894967293 L 182.66718697429033,327.9764585926547 L 182.0326178824841,325.7348449581902 L 179.11120454722965,318.42176702451115 L 174.30885515922137,306.2681308307898 L 173.8642536177191,305.1283979911093 L 193.3336376398783,305.17378260116567 L 212.23924109125764,305.0347512415546 L 215.90709903904715,305.0567561180911 L 216.3806908143569,322.72085915894667 L 216.70156156494323,327.207756662814 L 215.64819223331594,332.32295505073535 L 215.09658670879796,334.1720155238627 L 214.72866210948973,335.2768003601425 L 214.49633818268384,335.92206657914943 L 213.35262378879366,338.40417677268135 L 212.54301182237478,338.4237112761098 L 211.34345045486475,340.2487780873865 L 212.01225791454578,341.45775292848634 L 207.28925583949558,341.4125197780605 L 205.663517944528,341.4803108717315 L 205.32116515120688,343.27674864850053 L 203.5155609557462,344.7955883948123 L 202.47763781956027,345.63063591365716 L 202.31718643902033,346.54516569113974 L 201.28158292058515,348.1208723736742 L 200.5173287075178,349.8791000027717 L 199.9063883123362,349.48733413887174 L 198.13552516824564,350.19478341969096 L 196.45993477925546,351.0562220427967 L 195.52978880729088,351.53389006442 L 193.49944778804647,351.1510419325076 L 192.94204419686017,350.801704605877 L 192.20058565943253,350.33677014727715 L 190.74702523516044,350.1818045417525 L 189.6503068880158,348.56575286185534 L 190.83795194213508,347.341124936253 L 190.21347855341304,344.03239684490677 L 188.5702530863187,340.4864567457776 L 186.54436794699492,338.0509555932947 L 183.6403391583475,337.55544631769334 L 181.0179669976219,337.7793308779094 L 178.74968446887578,337.81110998339113 L 176.65902847834826,339.0769806619642 L 174.95700268920984,337.693205604559 L 171.85582103376746,337.1452418566738 L 171.99397273184826,335.9740214523756 z" id="c06037"/>
		<path d="M 77.41773226721736,167.79216750772628 L 82.39200946451217,167.16771290668402 L 83.37602854003302,164.11581408940353 L 85.73728640924612,162.69954757275946 L 86.6390252531765,157.84048257457138 L 89.05640714521743,155.9669278984151 L 89.75773493576504,151.42983032481538 L 88.05103235783905,150.0204563662073 L 88.29490790202111,149.53217694295495 L 89.21321285362599,149.27245836832722 L 89.00080255046711,148.91084156546958 L 89.5784671902358,148.48335491481745 L 89.66645678697095,148.22871516319108 L 89.37919860749099,147.38856296796155 L 89.88874650346293,146.568548838213 L 89.73689762796373,145.9546989592239 L 89.21626942217016,145.7822277531123 L 88.65402335904076,146.05006644987526 L 88.36688104959504,145.80556991680356 L 85.87269049641604,142.2629819394435 L 86.95461653532539,140.23090985033204 L 88.35857053305254,140.26160768023973 L 90.81762450814209,140.4188528898664 L 94.15906029624152,140.81660222590457 L 96.52787570356223,141.10416396560046 L 101.9695834381499,141.73117757514373 L 102.23644886797342,142.01317640959394 L 102.71290022032025,141.50738593499415 L 105.43675001851065,150.3254787894359 L 105.18969464759701,158.9864651118667 L 98.67158521469906,161.10797627433442 L 96.75127756369913,160.8219620500662 L 92.91522891073144,161.62805316945696 L 91.31495239057618,160.42440790670764 L 90.53421304708003,160.20373740865247 L 86.74929845288048,166.9553189148866 L 83.68872589966789,166.88217519014867 L 81.4559944247326,169.58628934810173 L 79.36036719687756,169.7162851399223 L 77.41773226721736,167.79216750772628 z" id="c06067"/>
		<path d="M 91.22636056475152,262.78169893690784 L 113.72625768160873,263.6385089605709 L 129.56312705793147,264.0881148792478 L 130.23433900405826,264.10582750452386 L 130.0835063546952,271.368973381256 L 133.74679004168712,271.4401165131733 L 133.64541443944154,275.09369133184157 L 139.4513563606629,278.83654981248077 L 140.59390491954605,278.8634736386305 L 140.52126877155675,282.51540231091013 L 142.93121556274454,282.57401288926525 L 142.8624423518844,286.19926976335506 L 147.72597725652142,286.3272912623972 L 147.65215695169687,289.9705261029864 L 151.52340305515912,289.8179220076413 L 151.2137541525312,293.64787395896786 L 154.22031133846195,294.1414334600405 L 154.11217813924623,301.43951794581153 L 151.95406811476641,301.5566904927826 L 147.31144503585375,298.333596083887 L 144.82959119084916,298.27888364085493 L 138.6472051838351,294.587997710302 L 136.87974756626102,294.64590751546757 L 133.44687117164162,292.2038968992334 L 130.49274711657873,293.7777016294578 L 129.74310598635532,295.62781972669916 L 124.72695050961619,296.51476131876717 L 125.74917586376789,300.7242406446487 L 121.25880365730654,297.24502485415405 L 119.1892419734755,296.92848051310006 L 113.90413997892193,297.54062934497193 L 114.53916569634482,295.15059137505926 L 114.72454074134792,293.2740025294139 L 114.56225111427915,291.3813866004048 L 113.2542062819524,290.1310826188881 L 111.94603850314827,289.14283544901616 L 110.49970704034087,289.74921624813766 L 107.46226319343566,287.83726204778077 L 105.80619627585743,285.9842896925328 L 106.44788606159504,284.07823341083287 L 107.12028129405874,281.33040959255163 L 106.43343452527331,278.4250524853989 L 104.04539778433532,277.3769826118558 L 102.44020797324819,277.0398139372983 L 98.81592869494412,272.3153214262627 L 97.11899717223041,269.6152850087149 L 93.58107623252779,268.20029525759134 L 92.21114841956457,266.21820299026183 L 91.7038591866892,263.29979307576644 L 91.22636056475152,262.78169893690784 z" id="c06079"/>
		<path d="M 125.41424032987592,185.21211854464127 L 128.22766059261343,186.0329301534835 L 126.99144818787522,183.5331792529741 L 134.25240946975651,181.33127376033949 L 135.86888577216567,179.39855584973785 L 141.50602295288917,182.4608636237613 L 144.7281619326481,182.64118464943095 L 149.45804368756706,180.8000502413923 L 150.18249815220457,178.91395432157896 L 153.86549121941792,176.58709499299948 L 155.86074637679363,178.6357993054532 L 157.43473202041488,178.19643615476028 L 161.27301756703326,181.9421845031557 L 152.06103028682688,190.8674166051996 L 151.99696031920436,193.59769810028214 L 149.75505216661819,194.94906354348652 L 149.7246828094234,196.75928304685303 L 146.05426623532153,196.7268372688711 L 136.22654551350055,206.27589171666315 L 132.1190184082528,202.92708054202427 L 125.50550657898717,187.30356054909407 L 125.50772830075402,187.28946186083803 L 125.41424032987592,185.21211854464127 z" id="c06043"/>
		<path d="M 26.888591860681533,12.920714013789068 L 25.79649565258777,8.02902628630614 L 27.846062504689925,5.615812965692108 L 30.2978470099249,5.17372832105169 L 31.967572269413512,1.2333715450509006 L 34.60736933191858,1.2736863996774281 L 37.32544551681412,1.5259778840011728 L 40.97903517657818,1.4722556618364173 L 43.64445985942837,1.430375407878282 L 46.77685309420121,1.849543430285735 L 54.437984388445194,2.182129440399469 L 63.78615806044926,2.4307067848206305 L 70.38961079599014,2.748832676818938 L 70.39654920620391,2.7491596194085344 L 76.25535236469855,3.0777133554121603 L 84.22667362675155,3.5061949479395085 L 89.57848585049531,3.820632532020274 L 96.69485036096623,4.205511427976895 L 96.32434226273952,6.174938555474524 L 96.33226573744658,13.454621265443173 L 95.55896461539392,38.274062361997984 L 62.324712061979646,36.993841298427746 L 61.61648791862951,35.6695540283454 L 62.451121051576166,30.282243248620347 L 59.91754565431306,29.496079591775587 L 57.62551620634882,32.31475350282002 L 52.4793192056256,35.709007676992314 L 50.1300497479499,35.482837236549706 L 47.176147030622055,39.237434534762826 L 49.40723392534094,42.849227835386245 L 48.70004119471405,44.259126378246194 L 44.94494491331032,43.651322173009206 L 42.8091409938305,40.55353553916629 L 38.68633040388612,40.327125130526944 L 37.717127876422175,38.30164740616407 L 33.583170527541384,35.69078492486918 L 31.52180323132918,27.320588313700767 L 26.069536752872587,26.801680855944927 L 27.81741808154087,23.542985299345336 L 26.848520923390165,20.43077633677182 L 24.757884189577997,17.770376696252132 L 26.888591860681533,12.920714013789068 z" id="c06093"/>
		<path d="M 122.01013372573003,209.56309338303126 L 130.37833524643648,206.97125094410043 L 134.40502328211554,206.90194017164035 L 136.22654551350055,206.27589171666315 L 146.05426623532153,196.7268372688711 L 149.7246828094234,196.75928304685303 L 149.75505216661819,194.94906354348652 L 151.99696031920436,193.59769810028214 L 152.06103028682688,190.8674166051996 L 161.27301756703326,181.9421845031557 L 162.57435514125092,183.57187013838535 L 167.3605098294148,183.85483044582884 L 170.65903142711227,190.05151061936792 L 161.7961372355934,198.72008044388417 L 160.14964703986303,201.3681327150147 L 160.24519977341856,205.73651037576994 L 159.1530460803466,207.32704994767263 L 156.8096491417116,207.53092537364515 L 155.5210427237987,209.632285947166 L 154.35071509726308,207.95093042043763 L 152.31433083204053,209.35929817559403 L 152.42250133079776,211.51763344879157 L 151.02988424684818,211.20782489371086 L 150.4600438916034,213.04582365904105 L 147.63270369349706,214.11413428782734 L 147.36593237563238,214.4488118258983 L 143.8831779359512,220.27246995237817 L 139.9381071495392,220.48234931241143 L 136.71285177851095,221.61808894827755 L 135.72953286482772,221.24980763852864 L 129.95228279814614,223.3379150101185 L 125.24955476343622,222.5959588999531 L 122.45379123448568,219.28794419336919 L 122.69998548211676,217.28462134969743 L 119.79070444076328,211.66611678719295 L 122.01013372573003,209.56309338303126 z" id="c06039"/>
		<path d="M 152.62891907016171,234.60472020376017 L 155.34696231615075,231.8900987394873 L 160.75128161036625,232.02750939348743 L 160.81415147483526,228.41618934953829 L 165.1616853684761,228.5416561224949 L 168.0580762757999,228.63097266330007 L 171.5250750861129,228.68198413792803 L 171.63771985103014,225.1698935544938 L 192.4454694633176,225.178893143007 L 192.2452946917564,227.38741462996236 L 195.30495638729482,231.3175665279415 L 194.76735409887112,232.92897366143004 L 196.49109803015295,234.38430739460523 L 197.29519259823826,238.06901971196834 L 201.13738434111292,241.77018037410218 L 200.23174725480163,244.53233378583496 L 203.3756465556452,255.78539557607297 L 204.38967145838996,256.83386335465286 L 205.16118867417302,261.662499831658 L 204.32482050393355,261.8626746927281 L 204.23818882439767,264.91830933616416 L 202.21794443745807,264.8188224930051 L 177.3011887130772,264.7602577353637 L 168.84806761377826,264.66550214831545 L 152.44036810225452,264.50305226535 L 152.67242470369624,253.65083357089367 L 153.0404924132143,244.5510365277454 L 154.88247983323762,244.61285533419849 L 154.953345166007,239.12984909860896 L 153.14273804444673,239.08151036460498 L 153.21413866023113,235.50409103103465 L 151.707779120333,235.42722008050768 L 152.62891907016171,234.60472020376017 z" id="c06107"/>
		<path d="M 23.846189645026023,136.03139421837363 L 29.492186023208077,135.94540165241207 L 37.116952265075724,135.00598220185506 L 39.00741241700725,133.2953032170905 L 47.445750775629335,133.80718132079838 L 48.25690355188515,134.31279388160002 L 53.41696398206745,141.706517787289 L 53.08389084344853,145.7839945536906 L 54.01432732488734,146.3217971693829 L 55.863873137800454,147.97096104630816 L 61.62970802288336,161.81574052806147 L 59.6812309653765,163.32866018612143 L 59.958736629201105,163.90878112095237 L 56.91098637318579,165.1454402070705 L 56.35751765532273,164.852630369154 L 54.53223205322894,161.99072423817356 L 48.8421050960039,160.6934158639753 L 43.448983655552375,155.67382534326651 L 40.387222244134726,156.58605186581974 L 40.357955578485665,156.53010960907366 L 38.744379371740294,156.3503741925358 L 38.330152874461156,154.83572812265464 L 37.88532279291118,152.50665275939755 L 35.4190944509291,148.86004140367825 L 32.77147642837555,147.21712292345626 L 30.208497364429945,144.808837380847 L 29.699278003161105,143.47755959931658 L 26.922649332379795,139.03354895959984 L 24.63887341674445,137.14711483026903 L 23.846189645026023,136.03139421837363 z" id="c06097"/>
		<path d="M 71.43040915205187,229.3075701898842 L 73.07428484423622,227.21686179354057 L 75.15490646073238,228.27194782546005 L 76.8133437125139,225.35141465322152 L 77.55212638892124,221.43997706030285 L 77.78768517598361,219.88264039593398 L 77.13482583460248,218.407305095861 L 81.00728431801782,215.65464015146677 L 82.8355042045022,216.79027715064157 L 84.29663470821703,219.1998157122484 L 89.02443829599201,224.04836364766174 L 88.40799206088435,225.66096069075655 L 92.30515485772054,227.3389956754116 L 93.31454068671533,228.96688428978274 L 93.38819630771316,233.43182134917893 L 95.66447505898167,233.3324370669035 L 97.28175035017705,235.9278440600742 L 102.25325687966549,241.1464126188736 L 102.62495448960577,243.81425420006158 L 106.28013428007968,241.80463389355853 L 108.12351019100511,242.62419139509456 L 111.50621861722706,246.4192478001639 L 112.9484175647787,246.73845890880372 L 113.04396812140213,244.11491302256994 L 111.73181281255506,242.0588007838874 L 114.36816314259237,243.84666284671817 L 116.03707451235454,246.55539555744593 L 114.59674951206313,249.22683995730733 L 122.32912595202808,256.45359133014557 L 126.25449817571884,259.1128853677484 L 127.58176545007971,259.19744180097786 L 129.56312705793147,264.0881148792478 L 113.72625768160873,263.6385089605709 L 91.22636056475152,262.78169893690784 L 89.27379941919448,260.6607322694625 L 87.45789195146682,258.894214087436 L 86.77107357419624,255.34748909736834 L 85.29335131714028,253.46549454113662 L 83.86769526551691,252.9664897754186 L 82.3799926195644,249.81360115182852 L 80.52116200088794,246.99624864321962 L 77.2597189318187,244.31374244524181 L 75.71539354861918,243.65416752043387 L 73.72529772032699,241.04266773707184 L 73.37749549997287,237.2525918588455 L 72.23780488764736,233.38106859393298 L 71.43040915205187,229.3075701898842 z" id="c06053"/>
		<path d="M 0.8965732319840238,62.04831414537226 L 4.029083378102231,55.7675348751182 L 8.46194919888683,48.33554893546491 L 10.689161173298983,42.36848050434675 L 10.609097366889488,39.88051752235632 L 9.789159263744258,38.20995933418956 L 9.621870007017993,36.039915967968774 L 11.056449272232461,33.987197300729335 L 12.263968448994966,29.952345720118355 L 13.567879928253634,23.66037166965616 L 13.493109108285173,22.600407608391894 L 22.829043830243542,23.1735854661429 L 22.63844371727801,26.661471640066694 L 26.069536752872587,26.801680855944927 L 31.52180323132918,27.320588313700767 L 33.583170527541384,35.69078492486918 L 31.588500016830498,39.92435054377798 L 33.27917200381113,42.63700262871542 L 30.67237872517143,46.627873967806856 L 28.256796977647976,45.024636842643574 L 26.198210678614455,45.766076699588524 L 27.987675692504883,50.064693094346616 L 28.280596177467363,53.85840298010441 L 26.569182661158244,84.62338937897223 L 11.15648773430811,83.7614769128335 L 10.843683312800156,83.23992771240269 L 9.806132407909706,82.84324462123189 L 9.368039786345479,80.42661718130566 L 7.771975413856186,78.74346038104865 L 6.274837421944975,78.05773741813216 L 4.157839553924553,75.6779812514736 L 1.6082609503258325,73.01935870752892 L 1.003277522108598,72.26973387596162 L 1.5178166807904696,69.35330180042286 L 1.2423038618885303,67.51770161765113 L 0.0,64.791655242255 L 0.8965732319840238,62.04831414537226 z" id="c06023"/>
		<path d="M 211.34345045486475,340.2487780873865 L 212.54301182237478,338.4237112761098 L 213.35262378879366,338.40417677268135 L 214.49633818268384,335.92206657914943 L 214.72866210948973,335.2768003601425 L 215.09658670879796,334.1720155238627 L 215.64819223331594,332.32295505073535 L 216.70156156494323,327.207756662814 L 216.3806908143569,322.72085915894667 L 215.90709903904715,305.0567561180911 L 217.11565215755894,305.063177430568 L 217.06682815229024,274.2474723553112 L 217.5212232493246,269.3935581447358 L 216.30375361393843,268.18981215001685 L 216.9340249535857,264.55949085700325 L 229.86507553283042,264.5810734780462 L 262.82729878813075,264.2426820150959 L 281.15048242726306,263.8698614290057 L 284.10840927867423,263.13655054890677 L 284.12048273691823,263.14754035399073 L 292.55328651335583,270.9096292385586 L 296.0600719040561,274.11720388578846 L 301.0710812411132,278.72040071992467 L 305.13531967032293,282.43168306225976 L 313.5410596722839,290.16758774766555 L 319.556608711068,295.69974444203814 L 319.76552154829125,298.137311251355 L 319.7053741905648,301.0548809603608 L 321.76884211024986,303.37869732444875 L 324.8265716718908,307.03257584178755 L 325.75739301492905,308.398356169728 L 327.3903824815138,312.9328360938601 L 329.0024989560213,315.54298646666047 L 329.07984148440926,318.28936660219205 L 330.57542881649834,318.24918869222694 L 333.0938126927684,320.18097051304716 L 336.32989639253543,322.40135305435535 L 337.4908840649027,323.9805014446202 L 337.4992212731481,324.0962120783648 L 337.6294418352947,325.9030497478622 L 336.31650822527524,326.76664896602244 L 334.61821563320734,329.0354631986757 L 332.47296273654354,329.9550116785206 L 330.6155449611024,331.3641544540489 L 328.65147326552903,332.387503459312 L 327.91663970114996,333.19311643089793 L 327.8657571923208,333.7707858268193 L 297.2613407440238,334.7683777622312 L 297.3047557463426,336.58433599746127 L 263.27290584892836,337.39151282232257 L 241.52562977943288,337.62598740592176 L 241.5454976681558,338.83864061862596 L 235.47937065439788,338.93530535922713 L 234.90671708029322,338.94447090757455 L 231.30172048641268,338.3594143126579 L 226.24462647766046,338.36629799206275 L 226.11326953125163,337.7658369986478 L 219.7882512734827,338.42114421811357 L 217.98141082869205,342.3243574527967 L 216.4432111033765,342.36199550957934 L 215.8355076747419,344.5794806651195 L 212.01225791454578,341.45775292848634 L 211.34345045486475,340.2487780873865 z" id="c06071"/>
		<path d="M 105.73706724212848,107.43139548395393 L 107.43825378001739,103.20779707772232 L 112.06774620449745,97.6085923280482 L 114.51713015623008,100.47597653152599 L 118.08010824049342,101.94896349062758 L 118.96818718340892,100.72872694495477 L 135.30879149154927,101.07611822929285 L 139.54454374633335,101.11947296212776 L 140.0650172139298,100.55862678203673 L 139.8543634131975,108.21480495876438 L 139.73476323266428,112.12636256429413 L 123.49132931055094,111.7173244508151 L 121.32207456399766,108.48434805702513 L 118.76678885879839,108.2255219068682 L 115.40725850137311,111.23256793088804 L 106.72081730706087,113.53262297985513 L 105.73706724212848,107.43139548395393 z" id="c06091"/>
		<path d="M 87.11513290510322,116.88750404740802 L 94.23144101131801,115.26081026912331 L 97.74093516951193,107.90688489938702 L 102.76232821360533,107.78180162568039 L 105.21689239990597,104.90188778357108 L 107.43825378001739,103.20779707772232 L 105.73706724212848,107.43139548395393 L 106.72081730706087,113.53262297985513 L 103.29677040541377,113.90024831304909 L 98.66552058268722,118.23920450163007 L 97.90756213598847,128.1467966421311 L 97.07292735384443,127.35514395083325 L 96.2085564287078,127.78213483896006 L 95.10553263363589,128.17405182004651 L 93.4589423021263,129.5903984223019 L 89.24550704628268,130.44747696889374 L 88.11993946103945,132.66017350459992 L 88.03454913128931,125.5123341546221 L 87.11513290510322,116.88750404740802 z" id="c06115"/>
		<path d="M 9.699033421098127,6.346107377648094 L 10.449914125912514,2.4220352844661375 L 10.342510786276518,0.0 L 16.9061719687103,0.49644491502649796 L 22.49899199015005,0.8478109376274154 L 27.651874294738732,1.1626818044638383 L 31.967572269413512,1.2333715450509006 L 30.2978470099249,5.17372832105169 L 27.846062504689925,5.615812965692108 L 25.79649565258777,8.02902628630614 L 26.888591860681533,12.920714013789068 L 24.757884189577997,17.770376696252132 L 26.848520923390165,20.43077633677182 L 27.81741808154087,23.542985299345336 L 26.069536752872587,26.801680855944927 L 22.63844371727801,26.661471640066694 L 22.829043830243542,23.1735854661429 L 13.493109108285173,22.600407608391894 L 13.247029215637335,19.101830826848136 L 12.38411649355441,15.646285646185316 L 11.728989096852338,12.229859253660864 L 11.4415859852679,11.392882352206327 L 10.307525819863663,11.017589722792287 L 8.762501733162859,8.561233014016963 L 9.699033421098127,6.346107377648094 z" id="c06015"/>
		<path d="M 89.4231232788741,192.56096593520533 L 97.31226280341554,185.2382959951012 L 101.74965590273024,182.12611865309566 L 105.54929912913758,181.49004941763485 L 107.98948748279085,182.4874414241806 L 108.22057078424734,168.35829337003284 L 116.93696113000982,178.8258004027817 L 125.50772830075402,187.28946186083803 L 125.50550657898717,187.30356054909407 L 105.2928493316598,196.64717414442146 L 106.09439624902122,198.74042501297322 L 97.08220023923647,207.25868756429054 L 95.30261835020022,205.16615064815775 L 91.35844588025046,206.42030083747247 L 89.56481614341918,200.85092375016146 L 91.37505585693336,199.73694552764908 L 89.39972294478237,192.54404702248075 L 89.4231232788741,192.56096593520533 z" id="c06099"/>
		<path d="M 45.60936234040553,94.13481381387628 L 74.27091387969878,95.43776575352945 L 74.91757966186552,95.35978018819101 L 76.67555964041996,98.67673421260824 L 77.27256093702371,98.25738891370537 L 75.7385998948867,100.76695095489941 L 75.52102599821966,106.50110204811088 L 79.96386857670093,106.55035530239955 L 78.63614608698495,112.88770289536437 L 74.84195785630762,111.49870838640294 L 70.72813276989842,111.29303694508923 L 68.86143336539061,112.43636268603562 L 51.17969461002426,111.73341461507125 L 51.67817366903742,103.51320134170757 L 46.849128218956594,103.30530896842656 L 46.87442542280266,97.9262712278766 L 45.60936234040553,94.13481381387628 z" id="c06021"/>
		<path d="M 178.80945755116355,195.22895438903134 L 210.03174512358098,195.2449683489896 L 215.1166788325383,199.87281965561104 L 229.6857990820782,213.23580042896936 L 232.33727377987557,215.6699457114305 L 237.89698225638833,220.75536787270988 L 255.27019758491792,236.69486463674627 L 259.10057524357444,240.23248147035127 L 268.7581681600461,249.07312191216067 L 275.6542801281827,255.41294863963844 L 277.2687297168074,256.892270348896 L 284.10840927867423,263.13655054890677 L 281.15048242726306,263.8698614290057 L 262.82729878813075,264.2426820150959 L 229.86507553283042,264.5810734780462 L 216.9340249535857,264.55949085700325 L 207.0676163534666,264.543897192677 L 204.23818882439767,264.91830933616416 L 204.32482050393355,261.8626746927281 L 205.16118867417302,261.662499831658 L 204.38967145838996,256.83386335465286 L 203.3756465556452,255.78539557607297 L 200.23174725480163,244.53233378583496 L 201.13738434111292,241.77018037410218 L 197.29519259823826,238.06901971196834 L 196.49109803015295,234.38430739460523 L 194.76735409887112,232.92897366143004 L 195.30495638729482,231.3175665279415 L 192.2452946917564,227.38741462996236 L 192.4454694633176,225.178893143007 L 191.48385502816114,221.4460513403658 L 192.45860981366008,219.23478810096583 L 189.94109973333343,212.06879865163157 L 184.7768842646569,208.78471510491795 L 182.71578329550434,208.61891469102378 L 180.72595728319968,200.85284929045108 L 178.38177517585976,200.20418833813588 L 178.80945755116355,195.22895438903134 z" id="c06027"/>
	</g>
</svg>