<?xml version="1.0" encoding="UTF-8"?>
<svg baseProfile="full" fill="#d0d0d0" height="288.85757318315075" stroke="#ffffff" stroke-width="1" version="1.1" width="400.0" xmlns="http://www.w3.org/2000/svg" xmlns:ev="http://www.w3.org/2001/xml-events" xmlns:xlink="http://www.w3.org/1999/xlink">
	<defs/>
	<g id="counties"><path d="M 227.78618254634736,198.9340028823732 L 233.89457565433565,198.8777061243316 L 233.71196741758095,180.28213815075432 L 283.3319214087043,179.52028528705966 L 283.5253400323144,206.27423606263594 L 283.83853770477555,235.58604212993714 L 267.36856186265203,229.9322841726142 L 250.63748575629083,224.20948415709069 L 229.92467535283643,225.73677649549177 L 227.8705233412558,223.31245106971235 L 227.78618254634736,198.9340028823732 z" id="c08101"/>
		<path d="M 275.9540977618302,49.55784756360315 L 275.9164593337359,37.16514066422555 L 306.6403221425395,36.67010749365694 L 312.86442293411073,36.54067854072792 L 313.1052736698767,42.72102091428616 L 313.4533838386825,73.66278453189767 L 300.6676333347928,73.94806977435708 L 276.3412936626146,74.41565409226554 L 275.9540977618302,49.55784756360315 z" id="c08087"/>
		<path d="M 191.89327104651852,79.01042809860114 L 194.89717730912275,72.27283409500016 L 194.130115530254,56.49866574528822 L 221.0736536096275,56.41594134538427 L 226.7411311086548,56.34998417150409 L 226.76863069097658,65.13977151019023 L 226.81065210852,73.68435003562062 L 226.9584983228934,74.95840955623578 L 225.9318293500017,78.52559705778265 L 223.86967483938756,78.05141086364598 L 220.7801641842772,81.12000793976713 L 211.2795957146923,81.16505865638116 L 208.0852206661289,81.23382634139095 L 208.07290332029407,79.67075011235703 L 192.85855175663215,79.83582319920598 L 191.89327104651852,79.01042809860114 z" id="c08013"/>
		<path d="M 356.01224553562884,22.404360656142547 L 356.6353714474362,19.23638190936808 L 389.0878471714896,18.070104284356006 L 389.23173648625175,21.77098711976011 L 389.94373348839923,40.08386449198087 L 356.6127570515234,41.37464508877884 L 356.01224553562884,22.404360656142547 z" id="c08095"/>
		<path d="M 283.3319214087043,179.52028528705966 L 307.97887072293105,179.0459861202556 L 314.0434121914717,179.3502038976512 L 314.1923285994573,191.74429899387536 L 314.6087744589613,197.23368783700113 L 314.33019811872737,203.82546344786635 L 308.1570517915526,204.03563199494582 L 308.2509946799337,208.16998673811096 L 296.0814430013513,208.4143558250274 L 283.5253400323144,206.27423606263594 L 283.3319214087043,179.52028528705966 z" id="c08025"/>
		<path d="M 8.87007581095249,55.31874271873841 L 59.97443928330455,57.165773848865406 L 85.55117565676967,57.669234464687136 L 96.71655105218142,57.98750680472164 L 118.60229177644827,58.275926299477305 L 118.47724597876123,67.7970614423036 L 103.19740300041255,67.56303907123072 L 102.84481228709035,80.06701462410395 L 96.6638517770872,79.7400737037058 L 96.51961708212288,86.09579840047239 L 68.72216073117873,85.65131048238727 L 68.46437015904155,94.9354043600427 L 34.6090382231455,93.9450836849567 L 34.507717551824506,97.0368487517818 L 15.759029460522013,96.34232506763827 L 7.261084027664694,95.28763247906329 L 7.886145590006484,80.0383478338791 L 8.737856285832441,58.290569235489286 L 8.87007581095249,55.31874271873841 z" id="c08103"/>
		<path d="M 220.7801641842772,81.12000793976713 L 223.86967483938756,78.05141086364598 L 225.9318293500017,78.52559705778265 L 226.9584983228934,74.95840955623578 L 231.96030398648327,71.80804404392217 L 231.95929219700102,73.88307240131383 L 231.9503758836015,73.88334002309577 L 231.95366421194527,74.92040186634884 L 231.96093561702304,74.91929038419812 L 231.96097105502517,74.92512486176976 L 230.51005325974833,77.20148754010191 L 228.98939094320656,76.30444524623661 L 226.98558886909137,81.08008802722235 L 220.8400850799973,82.72507412795962 L 220.7801641842772,81.12000793976713 z" id="c08014"/>
		<path d="M 283.5253400323144,206.27423606263594 L 296.0814430013513,208.4143558250274 L 308.2509946799337,208.16998673811096 L 308.1570517915526,204.03563199494582 L 314.33019811872737,203.82546344786635 L 314.6087744589613,197.23368783700113 L 320.32046284281563,197.07184562095927 L 321.11963458895525,241.33200477708786 L 284.10945417396897,242.03663543115627 L 283.83853770477555,235.58604212993714 L 283.5253400323144,206.27423606263594 z" id="c08089"/>
		<path d="M 1.4643917831917483,250.02000248290207 L 9.05136046775155,239.83753544845243 L 46.76657388737021,241.08237067333806 L 62.65830495171061,241.07024378167688 L 59.56492728404687,244.4438570869181 L 58.40920211689835,254.31681205900148 L 54.435802622850076,259.17834238531964 L 49.190283510045035,260.91595788207127 L 47.76375914553432,265.72129050610187 L 43.59790067699494,270.1397288009903 L 43.45690450984572,275.0790786453546 L 38.02073389283482,285.9247402947741 L 24.259099164253314,285.4788069506753 L 0.0,284.58109004030916 L 1.4643917831917483,250.02000248290207 z" id="c08083"/>
		<path d="M 89.93072724037859,257.2044593518322 L 109.9996680967678,257.59395774567537 L 109.95649967504534,259.7677035049977 L 133.71147594823162,259.30636268437695 L 135.55132610318887,259.3761567363711 L 135.3867798684962,271.8392729294451 L 139.96776702449299,274.2905811093607 L 140.3873329800707,278.1978793731791 L 146.71191658444386,288.70056150838104 L 124.22613059417894,288.49912815424733 L 123.80642070728939,287.9431723813411 L 92.7544881861413,287.3751734601674 L 89.28043863678481,287.29874317993193 L 89.93072724037859,257.2044593518322 z" id="c08007"/>
		<path d="M 300.99759937144063,92.54967220589523 L 300.6676333347928,73.94806977435708 L 313.4533838386825,73.66278453189767 L 313.1052736698767,42.72102091428616 L 350.35480451096566,41.57265325178844 L 349.8037912259155,47.79490082020679 L 350.57628865340155,72.60094094440086 L 350.99023774840873,103.52933062290528 L 331.64849931293867,104.23510752092572 L 301.21849586979846,104.89971631718532 L 300.99759937144063,92.54967220589523 z" id="c08121"/>
		<path d="M 5.703470047693436,133.27850859559007 L 6.404802531615275,116.17436038683631 L 41.816391757996016,117.5144240713812 L 95.8485755432077,118.9756570000428 L 93.87657725326525,122.6092234896252 L 97.69496939454685,126.8356205177861 L 95.83940681965706,126.70331136516435 L 91.76431696237226,129.43712605545414 L 84.03738596561743,134.65863566198684 L 76.78986550892722,141.50576868843393 L 71.71400241523317,138.77459956308957 L 64.80347288243942,140.0043325488287 L 58.39168572554153,145.5294379243568 L 55.713383022789614,150.49887736256596 L 42.26847797590827,155.75155271205566 L 41.9107686942204,167.20378565018763 L 41.49797409946207,179.16027132869658 L 3.447309833882106,177.77814490401536 L 5.703470047693436,133.27850859559007 z" id="c08077"/>
		<path d="M 208.05307134567053,105.91170582752774 L 208.09340374210714,93.10535736282802 L 208.0852206661289,81.23382634139095 L 211.2795957146923,81.16505865638116 L 220.7801641842772,81.12000793976713 L 220.8400850799973,82.72507412795962 L 226.98558886909137,81.08008802722235 L 227.0103430712017,89.8433128227877 L 226.41761870651686,102.11884816117819 L 224.66716480325408,102.17073530619845 L 226.80516496488485,102.41236071022354 L 227.06080179271535,101.94474134943621 L 227.339134749457,105.8493671484107 L 227.10230173256963,106.06253265546536 L 226.00779722247685,107.33758713571194 L 220.632976618345,117.20891086548866 L 218.09646183480788,127.65872765988395 L 211.95287477982782,136.95489514798118 L 211.88504059123895,136.9553099456363 L 208.14798590023508,136.9696445612581 L 208.11031888894746,117.63663352105762 L 208.05307134567053,105.91170582752774 z" id="c08059"/>
		<path d="M 191.5416842514808,82.7464701605113 L 192.85855175663215,79.83582319920598 L 208.07290332029407,79.67075011235703 L 208.0852206661289,81.23382634139095 L 208.09340374210714,93.10535736282802 L 202.64586494559416,92.2672739370301 L 192.04926797034432,85.55834113014485 L 191.5416842514808,82.7464701605113 z" id="c08047"/>
		<path d="M 282.84046991018243,154.86888228758943 L 301.5243772340261,154.67436926889926 L 300.81744896184233,104.9052477538994 L 301.21849586979846,104.89971631718532 L 331.64849931293867,104.23510752092572 L 332.4235783709048,135.36734803870928 L 332.16244564842884,141.80715343727175 L 332.7507933125879,166.5265539085135 L 332.406107198007,172.06573737599828 L 332.57245168382514,178.26451743832936 L 314.0434121914717,179.3502038976512 L 307.97887072293105,179.0459861202556 L 283.3319214087043,179.52028528705966 L 282.84046991018243,154.86888228758943 z" id="c08073"/>
		<path d="M 211.95287477982782,136.95489514798118 L 228.33926454240788,136.8867666011422 L 228.69510055016545,155.45095845548877 L 226.311282646935,160.41050454165267 L 233.72906875003903,160.54690795141235 L 233.6037290011575,171.00888633702905 L 216.9778723712411,171.24825032447043 L 217.1109217443822,167.73907021480076 L 212.0169408107563,167.72987582359258 L 211.88504059123895,136.9553099456363 L 211.95287477982782,136.95489514798118 z" id="c08119"/>
		<path d="M 248.71229026541013,105.70656127468328 L 249.7311179936592,105.69816268273755 L 300.81744896184233,104.9052477538994 L 301.5243772340261,154.67436926889926 L 282.84046991018243,154.86888228758943 L 282.7538700337994,136.40263860421317 L 248.88039984819198,136.75655987003864 L 248.71229026541013,105.70656127468328 z" id="c08039"/>
		<path d="M 171.849847865164,259.92313512718874 L 172.05222336227828,235.1819611961129 L 204.9043824456504,235.05230062105116 L 202.38872314262898,246.0093251446166 L 203.30889705354133,247.4098848951787 L 202.45600672575753,248.67431763420188 L 188.65587467700917,263.13435645810324 L 171.8546523526894,263.0492118216 L 171.849847865164,259.92313512718874 z" id="c08003"/>
		<path d="M 54.93561447810197,191.5697187978692 L 82.77111247872743,192.27732298896098 L 82.75609807099035,194.43068674587283 L 85.70986049576864,199.5607907572031 L 86.22349439302094,205.5216959665503 L 89.32871499300603,211.74390430112584 L 85.90652395585408,218.49061994301238 L 81.80990115062663,218.39377086629622 L 78.63533325184436,223.4856272802893 L 76.25524387491252,222.49883392314973 L 73.18391440545967,216.50380152083045 L 67.92051989388109,214.72018984683422 L 68.02210698493575,207.29314293209436 L 63.91632692266908,204.59088513959384 L 65.6311745371886,199.89160635932717 L 57.3422279344632,197.07845858590895 L 54.93561447810197,191.5697187978692 z" id="c08091"/>
		<path d="M 339.7057937288416,240.86934769379084 L 358.2849041745874,240.31109793883215 L 398.2119579808817,238.86706037281215 L 398.917379394102,257.0161601326536 L 399.2797593395092,266.3396712183943 L 399.6995877291599,277.1291841752374 L 399.9016359586416,282.2154600651869 L 400.0,285.2054681329017 L 382.12255797042565,285.7698981120793 L 362.543284832635,286.3808153034907 L 354.3191064885704,286.3170370006567 L 345.1690704869216,286.5470598461403 L 340.3780335752475,286.69685726638295 L 339.7057937288416,240.86934769379084 z" id="c08009"/>
		<path d="M 142.68596618274543,141.70816738400438 L 164.15172163795026,142.05286276739713 L 168.53372779282734,150.33765728936905 L 173.13939122561885,150.17155123953683 L 178.83980075453292,155.23112302088163 L 179.84961809086928,159.87667484128167 L 176.29001699571882,167.92969312116122 L 181.37236413562223,174.46063729279015 L 179.63218405505432,181.31971194164842 L 173.9021618665126,185.49358864226383 L 172.11516836752654,184.6502164120157 L 170.20977438509436,187.10174611043666 L 160.6690076679574,187.09346196882498 L 154.74065709334147,179.16732261911622 L 153.37754968237206,171.67424984887 L 149.39249791415506,167.34213456988462 L 151.34700986030833,165.44850734978178 L 152.00462530469272,158.0783962467384 L 156.56091053299346,152.31105894813848 L 148.83666628757163,152.27930130907419 L 143.95367994735057,145.93598900627586 L 141.45440698006078,145.95666427112621 L 142.68596618274543,141.70816738400438 z" id="c08015"/>
		<path d="M 185.82794063258658,198.4669310813091 L 227.78618254634736,198.9340028823732 L 227.8705233412558,223.31245106971235 L 221.14699242503528,215.97684907864144 L 214.6115694309915,224.50527756815293 L 212.8004310249257,221.69551689980804 L 203.9997279711006,224.76540475512184 L 197.75883753424435,219.69317659210515 L 192.58002436700875,206.94589742959707 L 185.82794063258658,198.4669310813091 z" id="c08027"/>
		<path d="M 314.0434121914717,179.3502038976512 L 332.57245168382514,178.26451743832936 L 332.406107198007,172.06573737599828 L 395.3157001975159,169.82089537932865 L 395.98698387719094,186.22873609990947 L 396.3241291262388,194.45428622872487 L 357.2042950981217,195.95195580517756 L 320.32046284281563,197.07184562095927 L 314.6087744589613,197.23368783700113 L 314.1923285994573,191.74429899387536 L 314.0434121914717,179.3502038976512 z" id="c08061"/>
		<path d="M 332.7507933125879,166.5265539085135 L 332.16244564842884,141.80715343727175 L 356.97011782535395,141.0147862364318 L 394.05997872251055,139.11429262182511 L 395.0760419264022,163.96182246377398 L 395.3157001975159,169.82089537932865 L 332.406107198007,172.06573737599828 L 332.7507933125879,166.5265539085135 z" id="c08017"/>
		<path d="M 189.9524433191369,268.2068847134665 L 188.65587467700917,263.13435645810324 L 202.45600672575753,248.67431763420188 L 203.30889705354133,247.4098848951787 L 214.05887397192384,241.94878073308888 L 220.18302469695925,244.4048175397852 L 222.16368965488414,267.64892375739294 L 222.1968440737672,288.8481401119383 L 218.4567229155005,288.85498469881196 L 216.69752648153266,288.8572493296643 L 207.09825263674196,288.85719974024545 L 200.55005970487574,288.85757318315075 L 190.12039189379828,288.84469988922103 L 190.00619971047982,288.84463870394967 L 187.03363438786224,285.5648684339347 L 189.9524433191369,268.2068847134665 z" id="c08023"/>
		<path d="M 10.232134401884693,24.683149622455023 L 10.257175449862553,24.043116448125666 L 10.712028246190469,12.418068474259085 L 11.121747896302104,0.0 L 54.1977237773514,1.569822414550832 L 72.10604973364666,2.0126775774910715 L 101.80803138459396,2.5991853667484266 L 104.4839641884668,2.6712078015384804 L 104.0942625852716,31.317975478167998 L 97.78653763258245,35.318352344560935 L 96.71655105218142,57.98750680472164 L 85.55117565676967,57.669234464687136 L 59.97443928330455,57.165773848865406 L 8.87007581095249,55.31874271873841 L 10.232134401884693,24.683149622455023 z" id="c08081"/>
		<path d="M 85.90652395585408,218.49061994301238 L 89.32871499300603,211.74390430112584 L 86.22349439302094,205.5216959665503 L 118.11544401276731,206.17759421504886 L 117.91440337985533,219.7738525116375 L 110.13814099183713,220.86027516148104 L 110.60156912024073,239.65319709916787 L 109.9996680967678,257.59395774567537 L 89.93072724037859,257.2044593518322 L 90.27307502226145,241.76976772536065 L 91.85937416394955,231.65065015954625 L 88.63041100840704,228.41985407375788 L 85.90652395585408,218.49061994301238 z" id="c08053"/>
		<path d="M 226.41761870651686,102.11884816117819 L 227.0103430712017,89.8433128227877 L 241.40555134221376,89.23810996780648 L 244.60148076389012,82.07028134415526 L 249.59300376254203,81.48153813502053 L 251.78613052865973,81.94236574661151 L 250.7717624887957,87.43428464520939 L 242.95177055254712,87.46583619619877 L 244.51377027564155,91.28067055755476 L 236.28975592968578,93.4099608910256 L 235.9189899903811,96.51305790029079 L 235.27161747479775,96.37842039855931 L 235.5362470956864,97.0308231237046 L 235.5370197637575,96.93397728601678 L 235.57308197960182,96.9340884168344 L 235.5376956337593,96.88772260083674 L 235.53760252587176,96.87399050932375 L 238.3947687880061,99.32745976497333 L 234.76456056538711,101.67935739279126 L 233.74465799852743,99.62531111248047 L 232.413687556015,99.63693256867795 L 231.4404229863892,98.59784521339495 L 229.11510278412865,97.82840996305688 L 228.22474010520085,99.36989060075852 L 228.08255750819623,101.45386699654982 L 227.06080179271535,101.94474134943621 L 226.80516496488485,102.41236071022354 L 224.66716480325408,102.17073530619845 L 226.41761870651686,102.11884816117819 z" id="c08031"/>
		<path d="M 114.08445652513072,79.98966072903923 L 118.45028253456758,80.08131615364928 L 139.12736193018014,80.32044752723114 L 140.76861431192796,80.43337213074149 L 140.77337402866533,79.99836804889527 L 151.2943679518695,80.1114643904106 L 153.86813384158512,91.36280498171531 L 165.27311608807653,100.81602116333266 L 161.03464357114422,112.92681720728163 L 163.46276487496092,119.02367626713264 L 159.1875791867281,121.13430552840475 L 151.3151887172554,120.17589823475204 L 146.74643657650876,120.09564581883431 L 113.38088680850406,119.33406376266569 L 114.08445652513072,79.98966072903923 z" id="c08037"/>
		<path d="M 228.69510055016545,155.45095845548877 L 228.33926454240788,136.8867666011422 L 248.88039984819198,136.75655987003864 L 282.7538700337994,136.40263860421317 L 282.84046991018243,154.86888228758943 L 283.3319214087043,179.52028528705966 L 233.71196741758095,180.28213815075432 L 233.6037290011575,171.00888633702905 L 233.72906875003903,160.54690795141235 L 226.311282646935,160.41050454165267 L 228.69510055016545,155.45095845548877 z" id="c08041"/>
		<path d="M 135.55132610318887,259.3761567363711 L 146.36331631881666,259.81060243262226 L 171.849847865164,259.92313512718874 L 171.8546523526894,263.0492118216 L 188.65587467700917,263.13435645810324 L 189.9524433191369,268.2068847134665 L 187.03363438786224,285.5648684339347 L 190.00619971047982,288.84463870394967 L 174.06576073644254,288.81084073434005 L 173.56044048759043,288.81014396261577 L 154.31621770504682,288.7460993393149 L 146.71191658444386,288.70056150838104 L 140.3873329800707,278.1978793731791 L 139.96776702449299,274.2905811093607 L 135.3867798684962,271.8392729294451 L 135.55132610318887,259.3761567363711 z" id="c08021"/>
		<path d="M 202.38872314262898,246.0093251446166 L 204.9043824456504,235.05230062105116 L 206.50187121097838,227.91312842027563 L 203.91430756533518,225.90206595396404 L 203.9997279711006,224.76540475512184 L 212.8004310249257,221.69551689980804 L 214.6115694309915,224.50527756815293 L 221.14699242503528,215.97684907864144 L 227.8705233412558,223.31245106971235 L 229.92467535283643,225.73677649549177 L 250.63748575629083,224.20948415709069 L 267.36856186265203,229.9322841726142 L 261.57015325215883,235.46114286528407 L 256.3855700576347,244.87621974547926 L 256.39878385054135,247.34852607988213 L 250.75373419527665,253.05814178440187 L 248.10050601851898,253.78748494017972 L 248.18870135272635,257.02734260417094 L 245.15047595620976,259.39578710745855 L 231.15775094102653,261.736392802895 L 224.3674247091616,267.4144572305844 L 222.16368965488414,267.64892375739294 L 220.18302469695925,244.4048175397852 L 214.05887397192384,241.94878073308888 L 203.30889705354133,247.4098848951787 L 202.38872314262898,246.0093251446166 z" id="c08055"/>
		<path d="M 355.9413596424197,1.2564891958288809 L 357.68907471094025,1.2001979561158427 L 361.15112874776696,1.086801277543325 L 388.3654280630053,0.09435205312778677 L 388.3710051391542,0.09413275973174141 L 389.0878471714896,18.070104284356006 L 356.6353714474362,19.23638190936808 L 355.9413596424197,1.2564891958288809 z" id="c08115"/>
		<path d="M 62.839610656013974,237.02284360551425 L 68.31264766422937,235.32548867850798 L 69.0984827530577,231.56475176382455 L 70.29431479718188,231.51120856170658 L 76.25524387491252,222.49883392314973 L 78.63533325184436,223.4856272802893 L 81.80990115062663,218.39377086629622 L 85.90652395585408,218.49061994301238 L 88.63041100840704,228.41985407375788 L 91.85937416394955,231.65065015954625 L 90.27307502226145,241.76976772536065 L 62.65830495171061,241.07024378167688 L 62.839610656013974,237.02284360551425 z" id="c08111"/>
		<path d="M 226.98558886909137,81.08008802722235 L 228.98939094320656,76.30444524623661 L 230.51005325974833,77.20148754010191 L 231.96097105502517,74.92512486176976 L 257.76926517695466,74.68008996081004 L 276.3412936626146,74.41565409226554 L 300.6676333347928,73.94806977435708 L 300.99759937144063,92.54967220589523 L 257.1174709386945,93.3568023370753 L 255.93820075356015,93.33978657538704 L 250.0332368911349,93.33518635872153 L 248.6316851507949,93.28583523179648 L 236.28975592968578,93.4099608910256 L 244.51377027564155,91.28067055755476 L 242.95177055254712,87.46583619619877 L 250.7717624887957,87.43428464520939 L 251.78613052865973,81.94236574661151 L 249.59300376254203,81.48153813502053 L 244.60148076389012,82.07028134415526 L 241.40555134221376,89.23810996780648 L 227.0103430712017,89.8433128227877 L 226.98558886909137,81.08008802722235 z" id="c08001"/>
		<path d="M 165.25273107131324,3.8934580393722977 L 214.50513412152392,3.9929965572153607 L 214.52012452379776,3.992964721696515 L 232.50213463881414,3.9209338750210345 L 232.6733525455284,50.10406018737692 L 226.62110278291757,50.12515831517286 L 226.7411311086548,56.34998417150409 L 221.0736536096275,56.41594134538427 L 194.130115530254,56.49866574528822 L 185.33870521488672,45.017039761107775 L 185.78680233105695,41.24425876244061 L 183.2043188846228,40.400266599502636 L 180.3380632567766,38.307140168196 L 180.19003066226378,34.68243327584486 L 172.85592788263753,17.68978953269054 L 165.50057669493359,8.434302811572419 L 165.25273107131324,3.8934580393722977 z" id="c08069"/>
		<path d="M 306.33904385423847,2.6275377832153484 L 316.6496565698202,2.377858212040763 L 333.14020137075886,1.9322614914227656 L 355.9413596424197,1.2564891958288809 L 356.6353714474362,19.23638190936808 L 356.01224553562884,22.404360656142547 L 356.6127570515234,41.37464508877884 L 350.35480451096566,41.57265325178844 L 313.1052736698767,42.72102091428616 L 312.86442293411073,36.54067854072792 L 306.6403221425395,36.67010749365694 L 306.33904385423847,2.6275377832153484 z" id="c08075"/>
		<path d="M 151.2943679518695,80.1114643904106 L 161.2845311913906,80.93240555312092 L 170.45549058209775,88.73941261086237 L 174.2873682416562,97.27473753103892 L 179.14959870198666,96.40170518798458 L 187.2908151630047,102.68764533603999 L 184.3332235932998,105.96587240956349 L 184.98901576840112,107.85773427852463 L 176.73417979098704,114.95613394006183 L 173.65780358010684,120.36962183038024 L 167.39444113824013,119.05983748752357 L 163.46276487496092,119.02367626713264 L 161.03464357114422,112.92681720728163 L 165.27311608807653,100.81602116333266 L 153.86813384158512,91.36280498171531 L 151.2943679518695,80.1114643904106 z" id="c08117"/>
		<path d="M 218.09646183480788,127.65872765988395 L 220.632976618345,117.20891086548866 L 226.00779722247685,107.33758713571194 L 227.10230173256963,106.06253265546536 L 227.339134749457,105.8493671484107 L 235.28709075367254,105.80999436043673 L 248.71229026541013,105.70656127468328 L 248.88039984819198,136.75655987003864 L 228.33926454240788,136.8867666011422 L 211.95287477982782,136.95489514798118 L 218.09646183480788,127.65872765988395 z" id="c08035"/>
		<path d="M 133.91623533836767,240.79186049570404 L 135.086243165518,228.63483272456665 L 141.1096021214007,228.77054357148987 L 141.0772482315249,234.9369063274922 L 172.05222336227828,235.1819611961129 L 171.849847865164,259.92313512718874 L 146.36331631881666,259.81060243262226 L 135.55132610318887,259.3761567363711 L 133.71147594823162,259.30636268437695 L 133.91623533836767,240.79186049570404 z" id="c08105"/>
		<path d="M 173.9021618665126,185.49358864226383 L 179.63218405505432,181.31971194164842 L 181.37236413562223,174.46063729279015 L 176.29001699571882,167.92969312116122 L 212.0169408107563,167.72987582359258 L 217.1109217443822,167.73907021480076 L 216.9778723712411,171.24825032447043 L 233.6037290011575,171.00888633702905 L 233.71196741758095,180.28213815075432 L 233.89457565433565,198.8777061243316 L 227.78618254634736,198.9340028823732 L 185.82794063258658,198.4669310813091 L 174.50653501402064,187.1299582911657 L 173.9021618665126,185.49358864226383 z" id="c08043"/>
		<path d="M 95.8485755432077,118.9756570000428 L 113.38088680850406,119.33406376266569 L 146.74643657650876,120.09564581883431 L 151.3151887172554,120.17589823475204 L 147.07262227134666,124.63433231041358 L 146.62125961622183,134.01410238304007 L 143.69569861075792,134.76300168671017 L 142.68596618274543,141.70816738400438 L 141.45440698006078,145.95666427112621 L 136.19323097009013,141.78442596026926 L 133.16289761750903,142.67767326633057 L 130.1819078002297,147.20532918602078 L 126.8941627124065,144.9401413229469 L 124.39132859476418,146.13566053836522 L 119.16594877061527,142.4786877658031 L 115.67252977347844,136.97170793450604 L 103.69237765144423,136.7516571496431 L 98.65120739115957,131.0100392144443 L 97.69496939454685,126.8356205177861 L 93.87657725326525,122.6092234896252 L 95.8485755432077,118.9756570000428 z" id="c08097"/>
		<path d="M 358.2898908768797,227.46000366214292 L 357.2042950981217,195.95195580517756 L 396.3241291262388,194.45428622872487 L 396.3426036432787,194.90498301921616 L 396.7781737755151,205.5298346487605 L 397.94608615977825,232.1613310306193 L 397.9918579875669,233.2044228549516 L 398.2119579808817,238.86706037281215 L 358.2849041745874,240.31109793883215 L 358.2898908768797,227.46000366214292 z" id="c08099"/>
		<path d="M 43.45690450984572,275.0790786453546 L 43.59790067699494,270.1397288009903 L 47.76375914553432,265.72129050610187 L 49.190283510045035,260.91595788207127 L 54.435802622850076,259.17834238531964 L 58.40920211689835,254.31681205900148 L 59.56492728404687,244.4438570869181 L 62.65830495171061,241.07024378167688 L 90.27307502226145,241.76976772536065 L 89.93072724037859,257.2044593518322 L 89.28043863678481,287.29874317993193 L 59.64585437486539,286.54985021803043 L 38.02073389283482,285.9247402947741 L 43.45690450984572,275.0790786453546 z" id="c08067"/>
		<path d="M 97.78653763258245,35.318352344560935 L 104.0942625852716,31.317975478167998 L 104.4839641884668,2.6712078015384804 L 129.14049336905344,3.264290545428872 L 129.49137486503892,8.64617226629574 L 130.97325822884366,8.174859245572376 L 135.5368298116237,12.602228056664504 L 138.12858651541322,11.402948069331567 L 140.0974714338853,14.210116165140251 L 140.99513297818862,18.465580410399163 L 137.08370950358486,30.71861128272825 L 139.84669895975648,39.42813138712747 L 139.8553097167961,42.950988289924936 L 140.8404450257439,50.34136959510077 L 140.27082738322636,74.48986544485632 L 140.77337402866533,79.99836804889527 L 140.76861431192796,80.43337213074149 L 139.12736193018014,80.32044752723114 L 118.45028253456758,80.08131615364928 L 118.65863920978182,74.10530388154636 L 118.47724597876123,67.7970614423036 L 118.60229177644827,58.275926299477305 L 96.71655105218142,57.98750680472164 L 97.78653763258245,35.318352344560935 z" id="c08107"/>
		<path d="M 181.22596632174526,89.43649367964144 L 189.51335606284403,88.91029568537118 L 192.04926797034432,85.55834113014485 L 202.64586494559416,92.2672739370301 L 208.09340374210714,93.10535736282802 L 208.05307134567053,105.91170582752774 L 197.6428643804922,105.76013530692963 L 187.25310671632087,105.97194122029984 L 184.3332235932998,105.96587240956349 L 187.2908151630047,102.68764533603999 L 179.14959870198666,96.40170518798458 L 181.22596632174526,89.43649367964144 z" id="c08019"/>
		<path d="M 3.4763829264180175,202.4925861404042 L 11.06609964107085,202.65286082996715 L 63.91632692266908,204.59088513959384 L 68.02210698493575,207.29314293209436 L 67.92051989388109,214.72018984683422 L 73.18391440545967,216.50380152083045 L 76.25524387491252,222.49883392314973 L 70.29431479718188,231.51120856170658 L 69.0984827530577,231.56475176382455 L 62.009817361405716,225.5935925764306 L 49.466642221294165,227.75510161904816 L 47.013946117615454,222.44597208171788 L 15.432391468465338,221.29774924563972 L 2.657889163983597,221.83306773328053 L 3.4763829264180175,202.4925861404042 z" id="c08113"/>
		<path d="M 350.57628865340155,72.60094094440086 L 349.8037912259155,47.79490082020679 L 350.35480451096566,41.57265325178844 L 356.6127570515234,41.37464508877884 L 389.94373348839923,40.08386449198087 L 390.1947121318189,46.53917328380566 L 390.2246798185685,47.30995962265771 L 391.1285522637022,71.15135284154171 L 391.6646347033563,84.23867224862403 L 392.4116968394847,101.65057439772386 L 350.99023774840873,103.52933062290528 L 350.57628865340155,72.60094094440086 z" id="c08125"/>
		<path d="M 3.447309833882106,177.77814490401536 L 41.49797409946207,179.16027132869658 L 41.9107686942204,167.20378565018763 L 90.87970266496171,168.51892666789212 L 90.32667744183944,194.60509754011238 L 82.75609807099035,194.43068674587283 L 82.77111247872743,192.27732298896098 L 54.93561447810197,191.5697187978692 L 57.3422279344632,197.07845858590895 L 65.6311745371886,199.89160635932717 L 63.91632692266908,204.59088513959384 L 11.06609964107085,202.65286082996715 L 3.4763829264180175,202.4925861404042 L 3.5114595275743943,201.6635653807896 L 2.800436376120224,193.74262002710188 L 3.447309833882106,177.77814490401536 z" id="c08085"/>
		<path d="M 139.8553097167961,42.950988289924936 L 141.9595979939558,47.66386256529721 L 148.64974712375337,45.4520769915838 L 151.12534229601778,50.10778853795343 L 156.01420762524836,49.37434838153593 L 162.72671731525722,51.864691784019655 L 174.2634698549424,48.39416720056753 L 177.4630744201057,50.20116726858508 L 180.45160215833437,46.61035577819298 L 181.20037868793415,41.07432452105799 L 183.2043188846228,40.400266599502636 L 185.78680233105695,41.24425876244061 L 185.33870521488672,45.017039761107775 L 194.130115530254,56.49866574528822 L 194.89717730912275,72.27283409500016 L 191.89327104651852,79.01042809860114 L 192.85855175663215,79.83582319920598 L 191.5416842514808,82.7464701605113 L 192.04926797034432,85.55834113014485 L 189.51335606284403,88.91029568537118 L 181.22596632174526,89.43649367964144 L 179.14959870198666,96.40170518798458 L 174.2873682416562,97.27473753103892 L 170.45549058209775,88.73941261086237 L 161.2845311913906,80.93240555312092 L 151.2943679518695,80.1114643904106 L 140.77337402866533,79.99836804889527 L 140.27082738322636,74.48986544485632 L 140.8404450257439,50.34136959510077 L 139.8553097167961,42.950988289924936 z" id="c08049"/>
		<path d="M 42.26847797590827,155.75155271205566 L 55.713383022789614,150.49887736256596 L 58.39168572554153,145.5294379243568 L 64.80347288243942,140.0043325488287 L 71.71400241523317,138.77459956308957 L 76.78986550892722,141.50576868843393 L 84.03738596561743,134.65863566198684 L 91.76431696237226,129.43712605545414 L 90.87970266496171,168.51892666789212 L 41.9107686942204,167.20378565018763 L 42.26847797590827,155.75155271205566 z" id="c08029"/>
		<path d="M 226.62110278291757,50.12515831517286 L 232.6733525455284,50.10406018737692 L 232.50213463881414,3.9209338750210345 L 237.25240207139657,3.890613233554339 L 256.56397510218244,3.443792386999955 L 280.4915822052197,3.1416644266521896 L 306.2987239541948,2.628470479161747 L 306.33904385423847,2.6275377832153484 L 306.6403221425395,36.67010749365694 L 275.9164593337359,37.16514066422555 L 275.9540977618302,49.55784756360315 L 276.3412936626146,74.41565409226554 L 257.76926517695466,74.68008996081004 L 231.96097105502517,74.92512486176976 L 231.96093561702304,74.91929038419812 L 231.95366421194527,74.92040186634884 L 231.9503758836015,73.88334002309577 L 231.95929219700102,73.88307240131383 L 231.96030398648327,71.80804404392217 L 226.9584983228934,74.95840955623578 L 226.81065210852,73.68435003562062 L 226.76863069097658,65.13977151019023 L 226.7411311086548,56.34998417150409 L 226.62110278291757,50.12515831517286 z" id="c08123"/>
		<path d="M 2.657889163983597,221.83306773328053 L 15.432391468465338,221.29774924563972 L 47.013946117615454,222.44597208171788 L 49.466642221294165,227.75510161904816 L 62.009817361405716,225.5935925764306 L 69.0984827530577,231.56475176382455 L 68.31264766422937,235.32548867850798 L 62.839610656013974,237.02284360551425 L 62.65830495171061,241.07024378167688 L 46.76657388737021,241.08237067333806 L 9.05136046775155,239.83753544845243 L 1.4643917831917483,250.02000248290207 L 2.657889163983597,221.83306773328053 z" id="c08033"/>
		<path d="M 6.786810747810904,106.85677737645784 L 7.261084027664694,95.28763247906329 L 15.759029460522013,96.34232506763827 L 34.507717551824506,97.0368487517818 L 34.6090382231455,93.9450836849567 L 68.46437015904155,94.9354043600427 L 68.72216073117873,85.65131048238727 L 96.51961708212288,86.09579840047239 L 96.6638517770872,79.7400737037058 L 102.84481228709035,80.06701462410395 L 103.19740300041255,67.56303907123072 L 118.47724597876123,67.7970614423036 L 118.65863920978182,74.10530388154636 L 118.45028253456758,80.08131615364928 L 114.08445652513072,79.98966072903923 L 113.38088680850406,119.33406376266569 L 95.8485755432077,118.9756570000428 L 41.816391757996016,117.5144240713812 L 6.404802531615275,116.17436038683631 L 6.786810747810904,106.85677737645784 z" id="c08045"/>
		<path d="M 82.75609807099035,194.43068674587283 L 90.32667744183944,194.60509754011238 L 90.87970266496171,168.51892666789212 L 91.76431696237226,129.43712605545414 L 95.83940681965706,126.70331136516435 L 97.69496939454685,126.8356205177861 L 98.65120739115957,131.0100392144443 L 103.69237765144423,136.7516571496431 L 115.67252977347844,136.97170793450604 L 119.16594877061527,142.4786877658031 L 124.39132859476418,146.13566053836522 L 126.8941627124065,144.9401413229469 L 130.1819078002297,147.20532918602078 L 133.16289761750903,142.67767326633057 L 136.19323097009013,141.78442596026926 L 141.45440698006078,145.95666427112621 L 143.95367994735057,145.93598900627586 L 148.83666628757163,152.27930130907419 L 156.56091053299346,152.31105894813848 L 152.00462530469272,158.0783962467384 L 151.34700986030833,165.44850734978178 L 149.39249791415506,167.34213456988462 L 153.37754968237206,171.67424984887 L 154.74065709334147,179.16732261911622 L 160.6690076679574,187.09346196882498 L 118.48003016113691,186.35585731316525 L 118.11544401276731,206.17759421504886 L 86.22349439302094,205.5216959665503 L 85.70986049576864,199.5607907572031 L 82.75609807099035,194.43068674587283 z" id="c08051"/>
		<path d="M 110.13814099183713,220.86027516148104 L 117.91440337985533,219.7738525116375 L 124.76350045067117,219.5241976802468 L 126.51559714662842,222.53697098254975 L 135.14109381658625,225.9106085692681 L 135.086243165518,228.63483272456665 L 133.91623533836767,240.79186049570404 L 133.71147594823162,259.30636268437695 L 109.95649967504534,259.7677035049977 L 109.9996680967678,257.59395774567537 L 110.60156912024073,239.65319709916787 L 110.13814099183713,220.86027516148104 z" id="c08079"/>
		<path d="M 129.14049336905344,3.264290545428872 L 158.21031739367635,3.8000895893139606 L 163.7958659168894,3.882788207998994 L 165.25273107131324,3.8934580393722977 L 165.50057669493359,8.434302811572419 L 172.85592788263753,17.68978953269054 L 180.19003066226378,34.68243327584486 L 180.3380632567766,38.307140168196 L 183.2043188846228,40.400266599502636 L 181.20037868793415,41.07432452105799 L 180.45160215833437,46.61035577819298 L 177.4630744201057,50.20116726858508 L 174.2634698549424,48.39416720056753 L 162.72671731525722,51.864691784019655 L 156.01420762524836,49.37434838153593 L 151.12534229601778,50.10778853795343 L 148.64974712375337,45.4520769915838 L 141.9595979939558,47.66386256529721 L 139.8553097167961,42.950988289924936 L 139.84669895975648,39.42813138712747 L 137.08370950358486,30.71861128272825 L 140.99513297818862,18.465580410399163 L 140.0974714338853,14.210116165140251 L 138.12858651541322,11.402948069331567 L 135.5368298116237,12.602228056664504 L 130.97325822884366,8.174859245572376 L 129.49137486503892,8.64617226629574 L 129.14049336905344,3.264290545428872 z" id="c08057"/>
		<path d="M 332.4235783709048,135.36734803870928 L 331.64849931293867,104.23510752092572 L 350.99023774840873,103.52933062290528 L 392.4116968394847,101.65057439772386 L 392.42962833270485,102.06836459411143 L 393.0231244042848,115.89262392014295 L 393.7865463167834,132.99313797987588 L 394.05997872251055,139.11429262182511 L 356.97011782535395,141.0147862364318 L 332.16244564842884,141.80715343727175 L 332.4235783709048,135.36734803870928 z" id="c08063"/>
		<path d="M 320.32046284281563,197.07184562095927 L 357.2042950981217,195.95195580517756 L 358.2898908768797,227.46000366214292 L 358.2849041745874,240.31109793883215 L 339.7057937288416,240.86934769379084 L 321.11963458895525,241.33200477708786 L 320.32046284281563,197.07184562095927 z" id="c08011"/>
		<path d="M 143.69569861075792,134.76300168671017 L 146.62125961622183,134.01410238304007 L 147.07262227134666,124.63433231041358 L 151.3151887172554,120.17589823475204 L 159.1875791867281,121.13430552840475 L 163.46276487496092,119.02367626713264 L 167.39444113824013,119.05983748752357 L 164.68096289512312,124.03419817836685 L 165.14746927503447,136.29650512497747 L 163.11564046020862,138.64010151343714 L 164.15172163795026,142.05286276739713 L 142.68596618274543,141.70816738400438 L 143.69569861075792,134.76300168671017 z" id="c08065"/>
		<path d="M 222.16368965488414,267.64892375739294 L 224.3674247091616,267.4144572305844 L 231.15775094102653,261.736392802895 L 245.15047595620976,259.39578710745855 L 248.18870135272635,257.02734260417094 L 248.10050601851898,253.78748494017972 L 250.75373419527665,253.05814178440187 L 256.39878385054135,247.34852607988213 L 256.3855700576347,244.87621974547926 L 261.57015325215883,235.46114286528407 L 267.36856186265203,229.9322841726142 L 283.83853770477555,235.58604212993714 L 284.10945417396897,242.03663543115627 L 321.11963458895525,241.33200477708786 L 339.7057937288416,240.86934769379084 L 340.3780335752475,286.69685726638295 L 303.41932906008105,287.69993580308073 L 287.73587633723554,288.13291529632914 L 268.8300437215257,288.5902510493169 L 246.36590212568225,288.8408847839314 L 224.15326325764943,288.84345988046493 L 222.1968440737672,288.8481401119383 L 222.16368965488414,267.64892375739294 z" id="c08071"/>
		<path d="M 163.11564046020862,138.64010151343714 L 165.14746927503447,136.29650512497747 L 164.68096289512312,124.03419817836685 L 167.39444113824013,119.05983748752357 L 173.65780358010684,120.36962183038024 L 176.73417979098704,114.95613394006183 L 184.98901576840112,107.85773427852463 L 184.3332235932998,105.96587240956349 L 187.25310671632087,105.97194122029984 L 197.6428643804922,105.76013530692963 L 208.05307134567053,105.91170582752774 L 208.11031888894746,117.63663352105762 L 208.14798590023508,136.9696445612581 L 211.88504059123895,136.9553099456363 L 212.0169408107563,167.72987582359258 L 176.29001699571882,167.92969312116122 L 179.84961809086928,159.87667484128167 L 178.83980075453292,155.23112302088163 L 173.13939122561885,150.17155123953683 L 168.53372779282734,150.33765728936905 L 164.15172163795026,142.05286276739713 L 163.11564046020862,138.64010151343714 z" id="c08093"/>
		<path d="M 118.11544401276731,206.17759421504886 L 118.48003016113691,186.35585731316525 L 160.6690076679574,187.09346196882498 L 170.20977438509436,187.10174611043666 L 172.11516836752654,184.6502164120157 L 173.9021618665126,185.49358864226383 L 174.50653501402064,187.1299582911657 L 185.82794063258658,198.4669310813091 L 192.58002436700875,206.94589742959707 L 197.75883753424435,219.69317659210515 L 203.9997279711006,224.76540475512184 L 203.91430756533518,225.90206595396404 L 206.50187121097838,227.91312842027563 L 204.9043824456504,235.05230062105116 L 172.05222336227828,235.1819611961129 L 141.0772482315249,234.9369063274922 L 141.1096021214007,228.77054357148987 L 135.086243165518,228.63483272456665 L 135.14109381658625,225.9106085692681 L 126.51559714662842,222.53697098254975 L 124.76350045067117,219.5241976802468 L 117.91440337985533,219.7738525116375 L 118.11544401276731,206.17759421504886 z" id="c08109"/>
		<path d="M 227.06080179271535,101.94474134943621 L 228.08255750819623,101.45386699654982 L 228.22474010520085,99.36989060075852 L 229.11510278412865,97.82840996305688 L 231.4404229863892,98.59784521339495 L 232.413687556015,99.63693256867795 L 233.74465799852743,99.62531111248047 L 234.76456056538711,101.67935739279126 L 238.3947687880061,99.32745976497333 L 235.53760252587176,96.87399050932375 L 235.5376956337593,96.88772260083674 L 235.57308197960182,96.9340884168344 L 235.5370197637575,96.93397728601678 L 235.5362470956864,97.0308231237046 L 235.27161747479775,96.37842039855931 L 235.9189899903811,96.51305790029079 L 236.28975592968578,93.4099608910256 L 248.6316851507949,93.28583523179648 L 250.0332368911349,93.33518635872153 L 255.93820075356015,93.33978657538704 L 257.1174709386945,93.3568023370753 L 300.99759937144063,92.54967220589523 L 301.21849586979846,104.89971631718532 L 300.81744896184233,104.9052477538994 L 249.7311179936592,105.69816268273755 L 248.71229026541013,105.70656127468328 L 235.28709075367254,105.80999436043673 L 227.339134749457,105.8493671484107 L 227.06080179271535,101.94474134943621 z" id="c08005"/>
	</g>
</svg>