<?xml version="1.0" encoding="UTF-8"?>
<svg baseProfile="full" fill="#d0d0d0" height="400.0" stroke="#ffffff" stroke-width="1" version="1.1" width="347.1161297044747" xmlns="http://www.w3.org/2000/svg" xmlns:ev="http://www.w3.org/2001/xml-events" xmlns:xlink="http://www.w3.org/1999/xlink">
	<defs/>
	<g id="counties"><path d="M 114.04191053668868,276.9088867010062 L 119.12642114211191,272.9001245852946 L 126.07298378244133,274.32913412739555 L 129.22392330798868,276.70529696665136 L 129.71061571088129,292.3149214890324 L 135.483858514668,292.37118172985606 L 140.6369704637191,297.0193603270978 L 140.58112075493113,303.7289088775097 L 139.45681874809188,304.1837419222943 L 140.5152792720977,308.6047809876525 L 140.38450758738585,317.52828387545526 L 135.9351602936991,318.6103030291654 L 132.59603417275625,317.42565493129854 L 114.76885047216841,317.2353045651928 L 114.8756128012478,307.83470582384217 L 114.96605582666504,292.1578005043728 L 113.32472449785102,289.990753587387 L 114.04191053668868,276.9088867010062 z" id="c13321"/>
		<path d="M 81.2496208339331,121.93865990239637 L 81.2944781417648,118.93014813972678 L 81.32289792953506,117.23378276864568 L 89.09460203594942,117.3344308464263 L 94.07940811002779,117.38457936933473 L 96.77785703331763,122.32437667982552 L 93.88138236737342,125.88441593775585 L 93.08754526492594,135.682588064704 L 88.79525708355825,138.99742554144655 L 88.74651804153235,142.86780482354445 L 86.30054947095003,142.86723839000436 L 86.78786809897998,133.2913849446659 L 85.64704580403958,131.34575865738643 L 82.78249820396245,126.10552314909665 L 81.23113772335931,125.69910084703615 L 81.2496208339331,121.93865990239637 z" id="c13063"/>
		<path d="M 68.11961756315681,56.12511732590519 L 67.50250267188669,51.1577363787693 L 72.54670972767877,51.2146899232751 L 72.55015473960854,53.86878344115544 L 83.88384113047927,53.424180408723316 L 85.58336526135535,54.62170042782645 L 95.84817517555669,53.970206201180126 L 95.80955738787581,57.93279400970748 L 95.75785374980349,66.41032220392349 L 95.74997841071259,70.83526440337108 L 89.02700520145648,71.62075769750143 L 84.21787889950224,80.55096098786917 L 77.27713960121304,80.06373787705898 L 73.22989118021195,80.2562141303266 L 69.45306224829162,79.76653457874468 L 66.93211004913215,80.06077233158673 L 68.11961756315681,56.12511732590519 z" id="c13057"/>
		<path d="M 24.204128904613988,1.3162917514759798 L 39.851978133398546,1.3149757079003506 L 44.50096204142591,1.3264352780460476 L 38.55095707234475,15.778998458721214 L 32.57897173451236,20.205801509562345 L 28.513895539767297,19.521632369266875 L 28.561600080199167,12.658698259592587 L 24.100888855081763,12.626273865600032 L 24.204128904613988,1.3162917514759798 z" id="c13047"/>
		<path d="M 5.1063043565985735,35.36175036583234 L 17.01953649308307,36.10801851387116 L 35.07624164121901,35.80746874433053 L 29.739416780919772,48.854487185763105 L 18.617841349710435,54.46317734790328 L 14.769253449105411,61.65126983058931 L 9.330383358761505,61.57582972475456 L 8.532756812578247,56.59390544743804 L 6.722291712965244,45.25567039807231 L 6.022088064554853,40.97261031709798 L 5.1063043565985735,35.36175036583234 z" id="c13055"/>
		<path d="M 101.10149417981049,117.49746242490443 L 106.04447510549812,120.2188046806152 L 112.68733778944345,108.27120300449984 L 115.69181114209584,105.39250686129245 L 120.55186772893329,109.00000096830378 L 119.41177090583106,116.988349662088 L 114.18994293393065,125.37879529664922 L 111.21004233746392,127.89824051059628 L 110.83012891330708,126.57570403264911 L 107.37259435355837,124.94265593021781 L 105.41034434655444,124.84654975216141 L 101.10149417981049,117.49746242490443 z" id="c13247"/>
		<path d="M 61.278947125789294,79.93116869303218 L 66.93211004913215,80.06077233158673 L 69.45306224829162,79.76653457874468 L 73.22989118021195,80.2562141303266 L 77.27713960121304,80.06373787705898 L 84.21787889950224,80.55096098786917 L 87.38103918561974,88.11277543158525 L 82.46712829561135,95.39428570466197 L 81.1990928358145,99.69052850392485 L 81.52739842657127,101.85225884979482 L 79.74715140776237,102.66733401225862 L 72.65071367210994,109.02310125451069 L 69.42768997838046,103.71218549860491 L 62.13590242697224,103.55664534253468 L 62.1749953142484,95.13446823145783 L 61.08572734081767,91.32414281469273 L 61.278947125789294,79.93116869303218 z" id="c13067"/>
		<path d="M 242.6486314247212,228.1460230065049 L 250.16795893968197,213.3991065946982 L 255.1177179046934,209.87604285662192 L 258.7866823711145,211.64479924793275 L 267.18137431824033,222.1415742292424 L 263.7457873900235,234.89457761892305 L 259.59531737155044,234.10503235375523 L 244.2980959303841,230.94060125689126 L 242.6486314247212,228.1460230065049 z" id="c13043"/>
		<path d="M 124.45490203516277,185.01385018610566 L 133.88354366326698,177.51951255780725 L 135.59307431112885,177.3581889693246 L 136.67583078697672,180.4583460987247 L 139.41561279335076,182.95518442521526 L 146.24170477148206,183.84173534841221 L 150.01943016462445,186.61083722694752 L 151.7879482201397,188.3982767346803 L 143.96393609164622,202.249819346235 L 138.95347325550077,201.39518313251136 L 136.38697063913446,199.8812601218763 L 128.41051631831715,196.64741309994702 L 122.40950909256374,186.43105366246016 L 124.45490203516277,185.01385018610566 z" id="c13021"/>
		<path d="M 200.53115895189882,275.0626956155988 L 201.30980238638665,275.292046709455 L 214.48081485063332,265.9990565854523 L 218.2173598622195,264.84762516872235 L 221.94868961571947,262.42991182502425 L 226.6282051427059,262.7001173632939 L 226.39515195302923,261.49335838911907 L 230.20100897803226,261.67349197936466 L 230.3908604006222,272.7533849363479 L 223.83153486317187,272.82137917929066 L 221.7148996076011,281.6758582734061 L 223.91207795536428,283.85074674985435 L 223.96400396449715,287.1596483006258 L 216.13244029595737,287.2601245171799 L 200.66427725938374,287.5736603188371 L 200.53115895189882,275.0626956155988 z" id="c13161"/>
		<path d="M 82.04104380870304,211.17246410724727 L 84.63832230794051,211.19263462704725 L 89.85154878102301,197.48447736522198 L 93.63100758348702,195.1578789616322 L 97.31479530468044,195.968585721365 L 99.73670651517784,200.1413748420465 L 106.80467057870449,200.57001379633735 L 109.9703755369267,209.78226036076867 L 114.32146698121439,213.9689483429542 L 113.94713329139557,214.6745831909481 L 106.42484783058198,215.34285237647333 L 100.07404870269116,225.13316972192644 L 95.91464151107934,227.61979553835948 L 86.59471128858414,222.7672996087844 L 85.82259016566816,223.97575347971497 L 81.39044281364974,213.56885464225715 L 82.04104380870304,211.17246410724727 z" id="c13269"/>
		<path d="M 83.06165819949841,239.68964682827976 L 85.97667629964627,234.07127438181098 L 85.82259016566816,223.97575347971497 L 86.59471128858414,222.7672996087844 L 95.91464151107934,227.61979553835948 L 95.81390298650882,234.17903240593475 L 98.43666370303292,239.79878785796026 L 101.26380879354703,239.92474205799945 L 101.12238838930418,246.07882838176664 L 82.99135821546841,245.3842276172904 L 83.06165819949841,239.68964682827976 z" id="c13249"/>
		<path d="M 46.6347049363005,323.87956070301624 L 67.10552118383346,323.7359311443588 L 74.86702081138766,324.0279039683512 L 74.40296866828325,339.3125043289643 L 66.8154972120997,339.242269049891 L 60.401933578336845,340.1033973907813 L 46.155201263181795,339.72489722291846 L 46.6347049363005,323.87956070301624 z" id="c13201"/>
		<path d="M 279.40197397190684,253.66420409814904 L 282.4925487985988,250.00923923166872 L 284.40551713404926,250.05535006020304 L 291.1224032551515,256.8053903901867 L 291.9632229333719,260.00656119190654 L 300.6414622297128,259.5414727289848 L 305.6982497790859,261.997898912055 L 309.81475605927756,273.088030325098 L 317.04030372300406,278.18859842235884 L 324.9069393156936,281.4951442606834 L 326.3493680300326,281.6719282841342 L 326.07222560968927,282.60104375375715 L 326.6926299961702,289.20978890661786 L 323.92345652770234,295.12199050904917 L 323.83218298025184,296.53595153700013 L 320.11140134413085,288.77802252939824 L 313.2155504893003,286.45523892869903 L 304.2889859663003,288.1827276975124 L 300.02215689426345,283.31235275854607 L 288.8053469899584,277.8816326362624 L 279.4679705294439,268.65752912792647 L 280.3915838344846,260.1027851295862 L 274.8493548814294,256.6201587721207 L 279.40197397190684,253.66420409814904 z" id="c13179"/>
		<path d="M 95.91464151107934,227.61979553835948 L 100.07404870269116,225.13316972192644 L 106.42484783058198,215.34285237647333 L 113.94713329139557,214.6745831909481 L 113.24032008089202,215.99542134542796 L 125.80947154009564,219.25065374006888 L 126.54009715507952,226.13844424245522 L 125.10837178588729,226.69533323518448 L 125.73034752519209,234.59527906343595 L 122.32401329599932,234.50050994900315 L 112.58719183668843,244.9771867254947 L 104.71170455548084,243.75392174848346 L 101.26380879354703,239.92474205799945 L 98.43666370303292,239.79878785796026 L 95.81390298650882,234.17903240593475 L 95.91464151107934,227.61979553835948 z" id="c13193"/>
		<path d="M 127.45426388295813,75.84540106215586 L 141.58012856103542,61.27803755794834 L 145.8061976096228,64.93399978247147 L 151.62704055363375,64.09078033581874 L 157.26294511115793,69.63051022511236 L 160.57838010079647,76.63393017845075 L 158.47510296283613,82.36272216966337 L 160.4159002930908,83.17367942121658 L 158.63039829854443,83.42675800138124 L 153.6726472440106,86.31559493689223 L 150.14560141648695,86.79160864713099 L 147.69157122260367,89.71750207704766 L 145.79750816247187,84.03646232746779 L 131.08028869022354,81.10948506244678 L 127.45426388295813,75.84540106215586 z" id="c13157"/>
		<path d="M 139.45681874809188,304.1837419222943 L 140.58112075493113,303.7289088775097 L 140.6369704637191,297.0193603270978 L 140.65580318931663,294.55733281722075 L 151.62396369745971,294.711946176959 L 151.61809983260855,296.77507399396205 L 157.55502025346877,298.16721657652505 L 163.68200612019356,304.82724378297314 L 161.4087950605593,305.7891731960635 L 161.34702898713383,311.3129814548434 L 156.6618598983921,315.73392937233467 L 154.7357702338859,317.82898319185244 L 150.8806336565464,317.75408658625935 L 140.38450758738585,317.52828387545526 L 140.5152792720977,308.6047809876525 L 139.45681874809188,304.1837419222943 z" id="c13277"/>
		<path d="M 113.72702597408679,337.32951025753476 L 114.53482287413613,336.4005995560564 L 114.76885047216841,317.2353045651928 L 132.59603417275625,317.42565493129854 L 135.9351602936991,318.6103030291654 L 140.38450758738585,317.52828387545526 L 150.8806336565464,317.75408658625935 L 151.13933361154008,328.2461876199099 L 146.37835128980072,339.319773352972 L 146.46554762204684,343.143866486055 L 134.39568821441335,342.8707310920778 L 114.4763919316189,342.5866611696616 L 114.49038748888876,339.50122207118795 L 113.72702597408679,337.32951025753476 z" id="c13071"/>
		<path d="M 146.37835128980072,339.319773352972 L 151.13933361154008,328.2461876199099 L 150.8806336565464,317.75408658625935 L 154.7357702338859,317.82898319185244 L 156.6618598983921,315.73392937233467 L 164.03872450658815,324.82311403848456 L 165.28473086848138,337.4839303907514 L 168.3342900625909,340.4510898789367 L 167.22280072697131,343.57719300011723 L 153.78389198988162,343.266730783088 L 148.11733679230923,341.3674338311302 L 146.37835128980072,339.319773352972 z" id="c13075"/>
		<path d="M 151.62396369745971,294.711946176959 L 155.08994241819533,284.8199231557552 L 155.01294303955308,280.528605221549 L 164.49013034913793,280.5713029736872 L 164.5171062805953,287.1377387685461 L 168.91485470925113,289.38426624222876 L 175.54796117837017,287.23710171339854 L 188.70902408792278,287.5578941760547 L 184.2957292094848,292.95849656096226 L 179.98854031860594,304.84582593859943 L 177.98961842386856,305.0277592644794 L 163.68200612019356,304.82724378297314 L 157.55502025346877,298.16721657652505 L 151.61809983260855,296.77507399396205 L 151.62396369745971,294.711946176959 z" id="c13155"/>
		<path d="M 40.85020118315629,136.31977957415992 L 46.65506392782931,135.33489819093967 L 52.83315912952788,128.97793832880132 L 63.80591900323342,129.04951778148333 L 68.97908639024512,129.10324114364258 L 70.29337957865535,129.84606236609258 L 68.9955331284892,135.25948770113618 L 78.33776847436346,151.06152102608152 L 77.97727832852067,154.2038566657136 L 52.55010047976193,153.86055564830426 L 51.805035235305944,156.65783430782366 L 51.8400974165627,153.83270004692255 L 46.25526762326815,153.72132148184087 L 44.86337964085142,149.18466213820477 L 40.85020118315629,136.31977957415992 z" id="c13077"/>
		<path d="M 100.8000985394261,34.806110443498326 L 102.98169770738964,30.86810253936764 L 111.66515648315675,31.407576034913077 L 118.61277556560707,22.84244627073107 L 124.50576779890021,24.440692782123183 L 123.12869083621902,33.235214133226044 L 125.50102828661852,43.17254644755757 L 119.1756214665234,46.31524832158997 L 115.69220328548785,50.727827221358986 L 106.99281994633994,46.748328393581524 L 100.62127011325511,40.29691941418552 L 100.8000985394261,34.806110443498326 z" id="c13187"/>
		<path d="M 147.69157122260367,89.71750207704766 L 149.80489175471462,92.70515422688746 L 156.50012758121352,93.75359276351595 L 166.61263970479942,99.77337038879037 L 164.42562153741537,102.95042599077004 L 166.35890026912753,107.22821527747779 L 165.57686544727989,109.60882741405244 L 157.31265718280125,112.78727144593331 L 151.68838324011355,103.55319814050378 L 150.0397905094686,102.51064910323717 L 148.07282314058563,102.24957294137977 L 139.81991517862733,94.92386866938817 L 147.69157122260367,89.71750207704766 z" id="c13219"/>
		<path d="M 113.94713329139557,214.6745831909481 L 114.32146698121439,213.9689483429542 L 131.58987466015853,199.8616747083692 L 136.3917185369223,199.93059175830885 L 134.81920737718818,214.66556061547593 L 125.80947154009564,219.25065374006888 L 113.24032008089202,215.99542134542796 L 113.94713329139557,214.6745831909481 z" id="c13225"/>
		<path d="M 148.23599907055606,135.65614079289634 L 166.59464142552127,131.28892972863818 L 170.68590223100443,140.1586108579181 L 175.08426637560703,142.31279672095118 L 176.45359372598205,146.18851693761573 L 168.6819142994184,150.6482458995402 L 167.2356450458915,156.88940767224415 L 160.74747259145408,158.5187095216144 L 155.97251087285144,157.14014919677405 L 154.86180808308902,157.1833361053801 L 147.49115707184436,158.3541808860558 L 148.23599907055606,135.65614079289634 z" id="c13237"/>
		<path d="M 249.9326446422457,188.12375311630208 L 254.4001380003409,179.04037191306142 L 270.61814432468606,175.49136194759168 L 277.2978232546397,179.18906983912353 L 270.367645899266,199.78229602429644 L 272.4356768613651,201.8161567802443 L 260.7902395803933,205.7109738954606 L 254.7209009167978,200.95328654519324 L 249.9326446422457,188.12375311630208 z" id="c13165"/>
		<path d="M 233.9641061247458,145.21069690152768 L 238.2043345575266,141.47604551011983 L 239.01516089995084,140.76435871397746 L 257.16168018446206,124.65070052678513 L 258.03400992735686,126.00311322283103 L 259.9542293922829,128.97816927341452 L 264.692715112394,131.5847942531105 L 265.2406621476706,136.0871769204325 L 264.45053054537846,141.91833087674527 L 270.8117340580795,145.2134810255043 L 270.8940429219387,150.1072204731688 L 252.7139201741322,151.928515971171 L 247.00226594784462,146.31743859776338 L 240.27157676156946,148.98338909689588 L 235.4739797884374,145.49883022437405 L 233.9641061247458,145.21069690152768 z" id="c13245"/>
		<path d="M 206.41568797220117,230.6416783929888 L 213.60259101103347,214.69103893155128 L 225.2610446386044,216.3039717282189 L 233.174164653548,220.6055462397613 L 231.30522699000647,228.13883513339536 L 231.3044770945811,228.14680222300137 L 213.748905133036,232.06744523584277 L 213.2974227931122,233.278557151691 L 211.95987592178352,233.64016917910755 L 208.40330626666392,232.33264314919114 L 206.41568797220117,230.6416783929888 z" id="c13283"/>
		<path d="M 70.44179510258166,266.61087756727653 L 81.23719673948231,266.7285689487053 L 81.9483093414882,262.56223104999066 L 88.2854718464982,269.6882065587025 L 89.71213334982761,270.6900154683047 L 95.50752772310993,274.6486020356722 L 93.52340346715272,277.81669000927457 L 92.66844421528096,292.43989007584094 L 81.38483380670625,292.4256437236237 L 79.41804663267709,292.4808749406312 L 74.25227712479898,292.4617888468849 L 75.11286429792128,287.68634670273883 L 70.14636013894571,279.4145014690909 L 70.44179510258166,266.61087756727653 z" id="c13273"/>
		<path d="M 143.96393609164622,202.249819346235 L 151.7879482201397,188.3982767346803 L 150.01943016462445,186.61083722694752 L 157.75822523258626,181.94741424833182 L 171.15769801405105,208.98341415294388 L 157.63251958461137,216.1883073253395 L 151.37046968642977,220.54245374849384 L 146.64255490143069,202.7590438020019 L 143.96393609164622,202.249819346235 z" id="c13289"/>
		<path d="M 68.22960894006242,243.79620808623525 L 66.91102030638099,239.56429775381466 L 75.85911889506438,248.10324438397777 L 82.91130501621214,248.16674195865684 L 82.75928531618449,256.12560870277764 L 81.9483093414882,262.56223104999066 L 81.23719673948231,266.7285689487053 L 70.44179510258166,266.61087756727653 L 66.31097200791895,266.58145910374014 L 68.22960894006242,243.79620808623525 z" id="c13307"/>
		<path d="M 124.50576779890021,24.440692782123183 L 126.70497120641397,19.524335991254265 L 129.91896627424785,18.308048692193957 L 135.3407653639415,18.42148531190612 L 136.95894531510004,17.587799737185176 L 141.14890637236266,23.50521454068578 L 138.3591948576092,29.778861400497135 L 141.71568074766762,39.97830011044061 L 138.1692227491087,43.28454942336145 L 129.4204104864725,42.41526299764828 L 125.50102828661852,43.17254644755757 L 123.12869083621902,33.235214133226044 L 124.50576779890021,24.440692782123183 z" id="c13311"/>
		<path d="M 191.44198056675432,193.63572699178053 L 201.9404261180412,189.1505055685739 L 204.4754217255525,192.63164037090866 L 222.46564698158795,187.7688673996737 L 227.12530527114367,192.37571317993982 L 228.89391532328844,192.8627498404521 L 224.22894383185934,199.50202585370852 L 226.79594001798142,202.87729071560133 L 217.42086200049607,208.87307918833648 L 219.6832122824236,212.87781394938952 L 213.60259101103347,214.69103893155128 L 211.95616230877945,206.09832277627993 L 202.6858285086322,202.06801670139888 L 197.63829866900932,197.33098633200035 L 190.75468419935083,198.05595679068816 L 191.44198056675432,193.63572699178053 z" id="c13167"/>
		<path d="M 151.37046968642977,220.54245374849384 L 157.63251958461137,216.1883073253395 L 171.15769801405105,208.98341415294388 L 177.69820136621527,222.85114332717302 L 175.16292140073355,220.3282982436316 L 165.6033795429081,229.96890752315375 L 162.5839915900697,235.99700015490578 L 151.38927301765384,224.90563471188878 L 151.37046968642977,220.54245374849384 z" id="c13023"/>
		<path d="M 24.55166125921646,161.75568935939535 L 33.24740306948369,158.89078149353068 L 33.95683874298336,156.17894157313597 L 46.25526762326815,153.72132148184087 L 51.8400974165627,153.83270004692255 L 51.805035235305944,156.65783430782366 L 51.66581872459968,184.2034019323378 L 50.20965965809557,184.51643477214358 L 28.00565044054078,184.2149645858927 L 24.83494951721574,163.61456689447033 L 24.55166125921646,161.75568935939535 z" id="c13285"/>
		<path d="M 147.69157122260367,89.71750207704766 L 150.14560141648695,86.79160864713099 L 153.6726472440106,86.31559493689223 L 158.63039829854443,83.42675800138124 L 160.4159002930908,83.17367942121658 L 165.15724176762853,85.93842608689461 L 167.76079061031285,86.69789657898542 L 166.3394674422967,90.80436262997867 L 169.0985405387388,94.87069203187163 L 166.61263970479942,99.77337038879037 L 156.50012758121352,93.75359276351595 L 149.80489175471462,92.70515422688746 L 147.69157122260367,89.71750207704766 z" id="c13059"/>
		<path d="M 50.34559887632123,370.9546877330936 L 56.110599725921695,363.21252007912676 L 60.401933578336845,340.1033973907813 L 66.8154972120997,339.242269049891 L 74.40296866828325,339.3125043289643 L 76.97415079966241,339.3751648333268 L 86.75140953013428,339.3577144169357 L 86.37871555008267,373.05970863741436 L 79.37805336899177,372.7016419682613 L 54.11236085762577,371.13683297510045 L 50.34559887632123,370.9546877330936 z" id="c13087"/>
		<path d="M 106.08518232268213,339.45044606239014 L 114.49038748888876,339.50122207118795 L 114.4763919316189,342.5866611696616 L 134.39568821441335,342.8707310920778 L 133.95638813760928,375.6334828483467 L 128.18551186378414,375.3010356985647 L 114.25569672827142,374.51437405289704 L 108.5570888520315,374.1858461260323 L 109.12266843780327,353.742893286294 L 105.90924284770865,347.8332214750008 L 106.08518232268213,339.45044606239014 z" id="c13275"/>
		<path d="M 193.46289088860792,247.5616457016804 L 197.31429264996999,243.64806205228487 L 196.56717523356065,242.26975299698876 L 204.63910417566896,236.1794040958149 L 206.01176282926957,235.78731596358645 L 208.40330626666392,232.33264314919114 L 211.95987592178352,233.64016917910755 L 213.2974227931122,233.278557151691 L 214.12211866453214,233.55806601737413 L 217.89927779354232,257.7291569296382 L 221.94868961571947,262.42991182502425 L 218.2173598622195,264.84762516872235 L 214.48081485063332,265.9990565854523 L 208.6761384705983,258.82706550685873 L 196.47668693977585,252.3138447704382 L 193.46289088860792,247.5616457016804 z" id="c13309"/>
		<path d="M 78.33776847436346,151.06152102608152 L 83.03031120593774,151.15462581063537 L 86.30054947095003,142.86723839000436 L 88.74651804153235,142.86780482354445 L 96.50571503432316,142.86855163844297 L 107.01666179757879,147.57419132324085 L 108.00399208607986,148.65787524725553 L 105.4823007304044,155.8181732076708 L 105.46760356831187,157.91026949558045 L 96.44048902013611,157.00975105163954 L 81.68076674383205,155.26643573545854 L 78.37172869434656,157.41962946545092 L 77.97727832852067,154.2038566657136 L 78.33776847436346,151.06152102608152 z" id="c13255"/>
		<path d="M 90.21064778328557,36.849104160168395 L 96.03965557047353,37.77402785360676 L 100.21450966326057,33.489066931355595 L 100.8000985394261,34.806110443498326 L 100.62127011325511,40.29691941418552 L 106.99281994633994,46.748328393581524 L 115.69220328548785,50.727827221358986 L 115.64559351163165,55.96350366507067 L 117.39608684903583,58.01922464653696 L 95.80955738787581,57.93279400970748 L 95.84817517555669,53.970206201180126 L 95.9063534764575,46.506327901761075 L 91.4088836027793,46.455105144203486 L 89.57074455394194,38.24944232721684 L 90.21064778328557,36.849104160168395 z" id="c13085"/>
		<path d="M 70.00228900405023,1.3911115199693713 L 78.00232545596295,1.4486183817718932 L 91.32152386961431,1.4493588065537817 L 105.01337003751367,1.4973047149212693 L 101.49882887014132,4.598311040677138 L 106.58574306648278,10.233446386475231 L 107.60487387826416,17.623722745807385 L 102.98169770738964,30.86810253936764 L 100.8000985394261,34.806110443498326 L 100.21450966326057,33.489066931355595 L 89.74589927671066,15.593973531908562 L 84.11345822078674,12.98681586430903 L 70.15289669317754,12.885380369114515 L 69.86885587845877,11.182607971865346 L 70.00228900405023,1.3911115199693713 z" id="c13111"/>
		<path d="M 157.31265718280125,112.78727144593331 L 165.57686544727989,109.60882741405244 L 166.35890026912753,107.22821527747779 L 178.08316495563605,112.56121348529369 L 186.98522888231233,112.91817788612025 L 190.22940550964083,115.67435749769602 L 185.76205214582325,122.71916424391502 L 185.95473119513417,132.3315758990043 L 175.08426637560703,142.31279672095118 L 170.68590223100443,140.1586108579181 L 166.59464142552127,131.28892972863818 L 167.33379256437104,126.9783712749975 L 161.66585056840808,121.20962729044241 L 157.31265718280125,112.78727144593331 z" id="c13133"/>
		<path d="M 70.29337957865535,129.84606236609258 L 74.1169710002015,127.62306835519254 L 81.23113772335931,125.69910084703615 L 82.78249820396245,126.10552314909665 L 85.64704580403958,131.34575865738643 L 86.78786809897998,133.2913849446659 L 86.30054947095003,142.86723839000436 L 83.03031120593774,151.15462581063537 L 78.33776847436346,151.06152102608152 L 68.9955331284892,135.25948770113618 L 70.29337957865535,129.84606236609258 z" id="c13113"/>
		<path d="M 213.748905133036,232.06744523584277 L 231.3044770945811,228.14680222300137 L 229.1981922431282,233.4171439631742 L 226.39515195302923,261.49335838911907 L 226.6282051427059,262.7001173632939 L 221.94868961571947,262.42991182502425 L 217.89927779354232,257.7291569296382 L 214.12211866453214,233.55806601737413 L 213.2974227931122,233.278557151691 L 213.748905133036,232.06744523584277 z" id="c13209"/>
		<path d="M 108.00399208607986,148.65787524725553 L 107.01666179757879,147.57419132324085 L 110.01465217703314,146.58706207352725 L 111.37099534810363,143.86018722760878 L 117.03580003931768,140.90886476089318 L 119.9562270736694,134.9348427955829 L 120.78770326336596,137.21849924680146 L 124.38526998036106,141.4853718944817 L 128.48402855501632,156.62431986950565 L 127.39783386761476,157.72987399241325 L 125.91398803863306,156.30537401613026 L 111.4604318670702,155.83022685396895 L 105.4823007304044,155.8181732076708 L 108.00399208607986,148.65787524725553 z" id="c13035"/>
		<path d="M 39.061197270187606,78.30257943866717 L 40.95291391485843,56.64315376065943 L 42.22781358579688,52.73414739171095 L 43.43939620196458,53.42434849928429 L 67.50250267188669,51.1577363787693 L 68.11961756315681,56.12511732590519 L 66.93211004913215,80.06077233158673 L 61.278947125789294,79.93116869303218 L 48.88888322789805,80.20615985506238 L 47.979794787920234,79.57701393698316 L 39.038535780046736,79.47225456543154 L 39.061197270187606,78.30257943866717 z" id="c13015"/>
		<path d="M 82.75928531618449,256.12560870277764 L 82.91130501621214,248.16674195865684 L 82.99135821546841,245.3842276172904 L 101.12238838930418,246.07882838176664 L 101.26380879354703,239.92474205799945 L 104.71170455548084,243.75392174848346 L 112.58719183668843,244.9771867254947 L 112.15588206316806,246.54084250275943 L 117.48539549560653,257.11757269103924 L 120.53707670371972,266.042932341094 L 120.36420797302813,267.5633472280452 L 89.72547651595029,267.0087053444001 L 89.71213334982761,270.6900154683047 L 88.2854718464982,269.6882065587025 L 81.9483093414882,262.56223104999066 L 82.75928531618449,256.12560870277764 z" id="c13261"/>
		<path d="M 161.34702898713383,311.3129814548434 L 161.4087950605593,305.7891731960635 L 163.68200612019356,304.82724378297314 L 177.98961842386856,305.0277592644794 L 178.40955356827095,309.5076926934583 L 186.46953476824825,321.99101483207966 L 185.5536929023871,329.8962830580333 L 186.22809427503626,333.08498778266846 L 176.80164712133927,333.1330207011567 L 174.44842565886984,343.679235858323 L 167.22280072697131,343.57719300011723 L 168.3342900625909,340.4510898789367 L 165.28473086848138,337.4839303907514 L 164.03872450658815,324.82311403848456 L 156.6618598983921,315.73392937233467 L 161.34702898713383,311.3129814548434 z" id="c13019"/>
		<path d="M 14.4213569704613,94.88503506165618 L 38.67075415458046,94.8924504305076 L 39.63778661722312,95.62874995128519 L 39.49565036170586,102.90057230917328 L 38.48806679244024,111.30481973336546 L 21.173588469786132,116.54398041615671 L 17.677246958270544,116.41635145553968 L 16.171486223961256,106.4696422846936 L 14.4213569704613,94.88503506165618 z" id="c13143"/>
		<path d="M 20.629976641693005,135.91263041374384 L 40.85020118315629,136.31977957415992 L 44.86337964085142,149.18466213820477 L 46.25526762326815,153.72132148184087 L 33.95683874298336,156.17894157313597 L 33.24740306948369,158.89078149353068 L 24.55166125921646,161.75568935939535 L 20.629976641693005,135.91263041374384 z" id="c13149"/>
		<path d="M 137.9944771878347,55.155880057962435 L 141.86503137486662,49.477654864454706 L 147.40706984432148,44.259064339222036 L 152.9731131069563,45.13809797871136 L 157.3803844878429,46.85759496840359 L 157.7909088866616,58.62018221506974 L 161.85303913998652,64.11590371994487 L 160.633815592177,67.33103057660668 L 157.26294511115793,69.63051022511236 L 151.62704055363375,64.09078033581874 L 145.8061976096228,64.93399978247147 L 141.58012856103542,61.27803755794834 L 137.9944771878347,55.155880057962435 z" id="c13011"/>
		<path d="M 46.82006030531877,28.17883948978167 L 52.50919854688843,25.584433528105727 L 51.58568444524242,19.330578670098078 L 55.90520892853523,10.943448779971787 L 56.553872042476414,1.3561769429930752 L 59.01877130459625,1.3665087458402925 L 62.46306565987254,1.3795144089442746 L 70.00228900405023,1.3911115199693713 L 69.86885587845877,11.182607971865346 L 70.15289669317754,12.885380369114515 L 69.5040034746474,18.99265548749394 L 67.35832858188681,23.80899931663515 L 67.48113056134679,36.408295539955716 L 63.12590875600102,32.95444009831727 L 52.53236792742716,34.123569722831064 L 48.99859013502097,31.890790895590015 L 46.82006030531877,28.17883948978167 z" id="c13213"/>
		<path d="M 191.17293032615234,329.8108711689245 L 213.4310506195353,329.56175527616676 L 219.54799574892618,343.7611919288259 L 227.17571989661482,348.4317260059434 L 226.99536724442342,360.84853137410647 L 231.44182208902257,360.73636150831004 L 233.0219076600962,381.3845255077569 L 229.9820522391643,381.141826025815 L 229.96622721617487,381.14098305084525 L 220.67028699408095,380.640639079009 L 220.75232876915982,371.5984309910997 L 206.9010662434689,368.65685411324813 L 200.81016808325487,359.8648212198257 L 191.4586975267511,356.9967619672046 L 191.17293032615234,329.8108711689245 z" id="c13065"/>
		<path d="M 155.97251087285144,157.14014919677405 L 160.74747259145408,158.5187095216144 L 167.2356450458915,156.88940767224415 L 180.09264519928524,159.85535508405601 L 179.95005668128982,168.64629964383158 L 183.46269462564283,165.94562539856517 L 183.77684918628188,174.16169262294673 L 182.02218323426993,177.55533134489525 L 177.58331520272534,172.35399549480383 L 161.33497115878637,179.50731839026835 L 157.04179321600594,163.40126962276955 L 155.97251087285144,157.14014919677405 z" id="c13009"/>
		<path d="M 66.42671774338109,216.91923883321783 L 67.90701085394616,213.47608438635785 L 71.74410084121507,214.52128742090125 L 82.04104380870304,211.17246410724727 L 81.39044281364974,213.56885464225715 L 85.82259016566816,223.97575347971497 L 85.97667629964627,234.07127438181098 L 83.06165819949841,239.68964682827976 L 82.99135821546841,245.3842276172904 L 82.91130501621214,248.16674195865684 L 75.85911889506438,248.10324438397777 L 66.91102030638099,239.56429775381466 L 66.20571681368078,239.56982623457384 L 66.42671774338109,216.91923883321783 z" id="c13197"/>
		<path d="M 42.45091350908013,228.16016127083884 L 42.6312101948636,226.79121754022106 L 58.254182985295905,223.30337443449977 L 63.71325198071524,214.84994303934695 L 67.90701085394616,213.47608438635785 L 66.42671774338109,216.91923883321783 L 66.20571681368078,239.56982623457384 L 55.88917141838508,239.68866227663077 L 53.41989041167887,239.6738195380864 L 47.03030236406132,239.63184348860614 L 49.1136253339459,236.8329103692237 L 44.45091061539381,233.12565451193842 L 40.626187274010874,230.4372879607918 L 42.45091350908013,228.16016127083884 z" id="c13053"/>
		<path d="M 94.9021280724886,170.6288671421626 L 96.39592518096089,169.94804385854007 L 96.44048902013611,157.00975105163954 L 105.46760356831187,157.91026949558045 L 105.4823007304044,155.8181732076708 L 111.4604318670702,155.83022685396895 L 110.56435464196865,179.26631014855425 L 105.5229805684306,179.21065795646507 L 105.59225109825644,174.2500930850466 L 94.82799483855933,174.12303549188815 L 94.9021280724886,170.6288671421626 z" id="c13171"/>
		<path d="M 168.6819142994184,150.6482458995402 L 176.45359372598205,146.18851693761573 L 175.08426637560703,142.31279672095118 L 185.95473119513417,132.3315758990043 L 188.07873449019286,134.1702470931398 L 197.64009674262448,134.40916820046561 L 199.6761815498733,135.75928420605487 L 204.82792869321892,150.75193856435314 L 205.39292392080026,152.0491877020047 L 197.684686511011,155.77432580522398 L 195.28770911946873,160.80328355260914 L 186.62498590617258,165.8969553665353 L 183.46269462564283,165.94562539856517 L 179.95005668128982,168.64629964383158 L 180.09264519928524,159.85535508405601 L 167.2356450458915,156.88940767224415 L 168.6819142994184,150.6482458995402 z" id="c13141"/>
		<path d="M 38.74095146105685,90.7304417309525 L 43.865941888147184,90.88016574713292 L 47.979794787920234,79.57701393698316 L 48.88888322789805,80.20615985506238 L 61.278947125789294,79.93116869303218 L 61.08572734081767,91.32414281469273 L 62.1749953142484,95.13446823145783 L 62.13590242697224,103.55664534253468 L 62.03109644924575,105.07678930508628 L 49.30742298960093,105.67777681120884 L 44.302126997607374,104.00522350000966 L 39.49565036170586,102.90057230917328 L 39.63778661722312,95.62874995128519 L 38.67075415458046,94.8924504305076 L 38.74095146105685,90.7304417309525 z" id="c13223"/>
		<path d="M 43.900716359866585,278.7605179400865 L 47.465912690496765,278.87322750244357 L 47.79888862701312,266.1171673657576 L 54.94386658120925,265.5254183249013 L 66.31097200791895,266.58145910374014 L 70.44179510258166,266.61087756727653 L 70.14636013894571,279.4145014690909 L 75.11286429792128,287.68634670273883 L 74.25227712479898,292.4617888468849 L 70.53873144334074,291.02957202129625 L 54.21312796863041,292.4906299375419 L 45.0052070909411,292.52575246024116 L 44.49365121217645,287.2291515212073 L 43.900716359866585,278.7605179400865 z" id="c13243"/>
		<path d="M 252.51052145742517,277.9544143764892 L 255.90714699235093,273.57929765123833 L 258.65492764296715,273.1959314084915 L 263.57276436612847,276.7454391085373 L 264.5905842513637,276.34268873984416 L 273.55857953381667,286.6777334686989 L 284.725496119591,293.59022554026535 L 286.28150553817454,297.28396625028586 L 287.67120858944446,297.5241561679164 L 291.5982179028717,303.42448059501766 L 290.7244642674542,304.8653322253897 L 285.81530900360144,309.5148137194158 L 283.00027082833884,315.6731239583027 L 277.7910783862139,312.8730705912298 L 268.7594499797016,314.6069134415099 L 259.9671122611698,312.3735044728614 L 258.16309404346424,304.3975112989758 L 253.012988420015,304.0709229364609 L 252.51052145742517,277.9544143764892 z" id="c13305"/>
		<path d="M 287.67120858944446,297.5241561679164 L 294.7902601252777,294.08841428664323 L 300.02215689426345,283.31235275854607 L 304.2889859663003,288.1827276975124 L 313.2155504893003,286.45523892869903 L 320.11140134413085,288.77802252939824 L 323.83218298025184,296.53595153700013 L 323.7060516042886,298.4882910498916 L 321.1481806255692,303.25236628897153 L 317.9377127119059,308.39054466648093 L 316.5220154359652,313.03929952852434 L 317.99356157294284,317.0858549598113 L 317.7608745168504,317.8975814267473 L 301.5393020903113,314.71965333171147 L 290.7244642674542,304.8653322253897 L 291.5982179028717,303.42448059501766 L 287.67120858944446,297.5241561679164 z" id="c13191"/>
		<path d="M 134.39568821441335,342.8707310920778 L 146.46554762204684,343.143866486055 L 146.37835128980072,339.319773352972 L 148.11733679230923,341.3674338311302 L 153.78389198988162,343.266730783088 L 156.38504788971383,353.4137119718405 L 163.51194747443705,358.61857701396195 L 155.8616207680064,361.74623542963724 L 153.42036108037033,367.03474153531477 L 162.8036857343045,377.3235397380532 L 152.17235050586825,376.65667876176695 L 143.82112010080266,376.1925228919558 L 133.95638813760928,375.6334828483467 L 134.39568821441335,342.8707310920778 z" id="c13027"/>
		<path d="M 0.0,1.0435707959669203 L 9.309169517666078,1.258396028533596 L 15.668616603223894,1.3981363872283021 L 17.16690631096752,1.3825575164271735 L 12.081626844836817,10.685706382022005 L 10.832772914700534,14.423074274000301 L 10.763516647390297,20.686458205278676 L 7.83205296431747,25.848565520742333 L 7.779395203341828,28.412952183561202 L 4.610417247187104,32.319188674300236 L 2.830512856204137,21.37307538192677 L 1.4387107005570714,11.809457396554729 L 0.636910320226187,6.285813539384712 L 0.0,1.0435707959669203 z" id="c13083"/>
		<path d="M 187.56477373592395,104.97249241674265 L 195.48265956819262,93.08674601466689 L 202.2777525558739,88.7301119116933 L 206.23165566058202,87.52129558433543 L 211.91735669307346,87.46304053073258 L 217.34442931343457,97.5722786825467 L 215.86486504092886,100.96952207200374 L 224.35690876776246,117.07483335823271 L 222.3250403479197,115.33844784801633 L 212.08909458296506,119.9254272292444 L 209.9105728148844,120.73320455584671 L 200.22659290972084,116.02012542255304 L 195.4379832187941,119.1151474111582 L 190.30898280776108,109.4428582687561 L 187.56477373592395,104.97249241674265 z" id="c13317"/>
		<path d="M 174.44842565886984,343.679235858323 L 176.80164712133927,333.1330207011567 L 186.22809427503626,333.08498778266846 L 185.5536929023871,329.8962830580333 L 191.17293032615234,329.8108711689245 L 191.4586975267511,356.9967619672046 L 187.89230636623927,358.75733258334816 L 186.05473497484368,350.3203015574543 L 175.88328377127283,350.1719320969637 L 175.75617392776155,344.4177651929955 L 174.44842565886984,343.679235858323 z" id="c13173"/>
		<path d="M 12.130872663812237,79.37015288922453 L 23.907272608144183,77.78844785895505 L 39.061197270187606,78.30257943866717 L 39.038535780046736,79.47225456543154 L 47.979794787920234,79.57701393698316 L 43.865941888147184,90.88016574713292 L 38.74095146105685,90.7304417309525 L 38.67075415458046,94.8924504305076 L 14.4213569704613,94.88503506165618 L 13.606643230451999,89.4775346143839 L 12.130872663812237,79.37015288922453 z" id="c13233"/>
		<path d="M 270.367645899266,199.78229602429644 L 277.2978232546397,179.18906983912353 L 293.3142608618983,167.12805567412283 L 296.4326210682255,169.5836512148461 L 296.7686662622705,175.75236317429201 L 299.4586524937141,179.6560995051804 L 302.7781509814673,185.33245621868411 L 303.5217813841038,192.837915347403 L 303.5660816986297,193.2848422343711 L 305.1374562547631,200.65013014291875 L 305.00498278933594,204.79869516479314 L 305.7668118389143,205.35181124264835 L 295.607085013044,212.8851839682924 L 294.20820444236136,215.13471415561693 L 283.7144239717704,210.45418572457723 L 273.390841673248,201.47477197851643 L 272.4356768613651,201.8161567802443 L 270.367645899266,199.78229602429644 z" id="c13251"/>
		<path d="M 180.54423879457138,67.16158813004351 L 187.59482156618347,68.25362042802844 L 202.2551093632972,61.29704873032295 L 204.43522724838252,65.0291519080833 L 205.11728662715916,67.56188516266218 L 206.68022538385628,73.3594967075525 L 211.9834896749667,79.06356173007124 L 215.5102380687456,84.87300657597882 L 215.7445137002558,85.25855045897917 L 217.89336152935175,89.76224286307895 L 212.56081130742936,88.32714476215499 L 211.91735669307346,87.46304053073258 L 206.23165566058202,87.52129558433543 L 202.2777525558739,88.7301119116933 L 190.52919975272582,85.12128209054772 L 188.03046619138144,82.67538792346295 L 178.778058611571,71.7696274514219 L 180.54423879457138,67.16158813004351 z" id="c13105"/>
		<path d="M 75.40444507372425,170.12759917254928 L 78.37172869434656,157.41962946545092 L 81.68076674383205,155.26643573545854 L 96.44048902013611,157.00975105163954 L 96.39592518096089,169.94804385854007 L 94.9021280724886,170.6288671421626 L 94.82799483855933,174.12303549188815 L 78.83536342040256,173.85569559766662 L 77.68242732146403,175.65647226643384 L 76.11076584949329,175.85048463844137 L 75.40444507372425,170.12759917254928 z" id="c13231"/>
		<path d="M 111.21004233746392,127.89824051059628 L 114.18994293393065,125.37879529664922 L 119.41177090583106,116.988349662088 L 120.55186772893329,109.00000096830378 L 129.539498698,115.67616531438625 L 136.7261334544924,119.9400288012266 L 137.504869405841,121.6713566936106 L 137.75076027876264,123.86337864013186 L 137.4393970712534,127.7831662030328 L 138.00212724510735,131.15137368056227 L 127.13164978268692,135.51379133133935 L 124.38526998036106,141.4853718944817 L 120.78770326336596,137.21849924680146 L 119.9562270736694,134.9348427955829 L 118.31068348709431,131.69120896054142 L 110.49410663456277,128.83857094477432 L 111.21004233746392,127.89824051059628 z" id="c13217"/>
		<path d="M 161.33497115878637,179.50731839026835 L 177.58331520272534,172.35399549480383 L 182.02218323426993,177.55533134489525 L 185.50382509799894,185.33589906656553 L 189.37031346383247,186.75394030027303 L 190.8314857128535,193.89317929574142 L 191.44198056675432,193.63572699178053 L 190.75468419935083,198.05595679068816 L 171.15769801405105,208.98341415294388 L 157.75822523258626,181.94741424833182 L 161.33497115878637,179.50731839026835 z" id="c13319"/>
		<path d="M 55.36101325075914,128.2341447450101 L 55.89196376547296,123.58353523074601 L 56.800375564161754,121.72990824624573 L 68.87698998339077,113.36318689671474 L 72.65071367210994,109.02310125451069 L 79.74715140776237,102.66733401225862 L 81.52739842657127,101.85225884979482 L 81.1990928358145,99.69052850392485 L 82.46712829561135,95.39428570466197 L 87.38103918561974,88.11277543158525 L 84.21787889950224,80.55096098786917 L 89.02700520145648,71.62075769750143 L 95.74997841071259,70.83526440337108 L 95.73028850744106,77.43737345493625 L 107.32811804361724,82.5245278175951 L 101.25929591450898,87.11742365918943 L 95.48010986988494,87.9953623378783 L 94.41035716206946,90.56962351398707 L 89.34648232181368,89.65517620008981 L 89.26963139181541,96.32922644491275 L 89.26575280137665,99.21797525467042 L 89.27882249176322,100.2720267206013 L 89.09460203594942,117.3344308464263 L 81.32289792953506,117.23378276864568 L 81.2944781417648,118.93014813972678 L 81.2496208339331,121.93865990239637 L 81.23113772335931,125.69910084703615 L 74.1169710002015,127.62306835519254 L 70.29337957865535,129.84606236609258 L 68.97908639024512,129.10324114364258 L 63.80591900323342,129.04951778148333 L 52.83315912952788,128.97793832880132 L 55.36101325075914,128.2341447450101 z" id="c13121"/>
		<path d="M 142.82135220947754,234.73464240754296 L 149.52520027234775,224.86754560364474 L 151.38927301765384,224.90563471188878 L 162.5839915900697,235.99700015490578 L 160.58637931547412,237.9781518994442 L 166.71947822668648,244.05992050285886 L 163.37166533553017,250.39068807262547 L 161.60914046039258,248.83043184863223 L 143.41393192868134,249.4370798598646 L 143.51475188754546,235.8440599528705 L 142.82135220947754,234.73464240754296 z" id="c13235"/>
		<path d="M 67.478060062385,39.368694835150826 L 78.33801437842044,38.139024888306295 L 80.81409794593921,38.163523031441116 L 83.01103149355558,39.39205657062445 L 87.72306170518307,39.4770586690248 L 89.57074455394194,38.24944232721684 L 91.4088836027793,46.455105144203486 L 95.9063534764575,46.506327901761075 L 95.84817517555669,53.970206201180126 L 85.58336526135535,54.62170042782645 L 83.88384113047927,53.424180408723316 L 72.55015473960854,53.86878344115544 L 72.54670972767877,51.2146899232751 L 67.50250267188669,51.1577363787693 L 68.15063950148706,47.42599811104175 L 67.478060062385,39.368694835150826 z" id="c13227"/>
		<path d="M 49.30742298960093,105.67777681120884 L 62.03109644924575,105.07678930508628 L 62.13590242697224,103.55664534253468 L 69.42768997838046,103.71218549860491 L 72.65071367210994,109.02310125451069 L 68.87698998339077,113.36318689671474 L 56.800375564161754,121.72990824624573 L 55.89196376547296,123.58353523074601 L 48.883248414772034,123.5979278181411 L 49.30742298960093,105.67777681120884 z" id="c13097"/>
		<path d="M 229.1981922431282,233.4171439631742 L 231.3044770945811,228.14680222300137 L 231.30522699000647,228.13883513339536 L 235.39493161880753,233.37580436706355 L 244.2980959303841,230.94060125689126 L 248.27600060711353,244.08916965312162 L 245.4988478334296,266.00562047958346 L 232.01398682467422,263.087566692596 L 230.20100897803226,261.67349197936466 L 226.39515195302923,261.49335838911907 L 229.1981922431282,233.4171439631742 z" id="c13279"/>
		<path d="M 105.45522421978124,190.55469768287853 L 105.45769932689058,186.35183318710307 L 115.43092211484269,186.3881363010307 L 117.6192958743774,186.40693311413472 L 122.40950909256374,186.43105366246016 L 128.41051631831715,196.64741309994702 L 136.38697063913446,199.8812601218763 L 136.3917185369223,199.93059175830885 L 131.58987466015853,199.8616747083692 L 114.32146698121439,213.9689483429542 L 109.9703755369267,209.78226036076867 L 106.80467057870449,200.57001379633735 L 99.73670651517784,200.1413748420465 L 105.45522421978124,190.55469768287853 z" id="c13079"/>
		<path d="M 171.15769801405105,208.98341415294388 L 190.75468419935083,198.05595679068816 L 197.63829866900932,197.33098633200035 L 202.6858285086322,202.06801670139888 L 211.95616230877945,206.09832277627993 L 213.60259101103347,214.69103893155128 L 206.41568797220117,230.6416783929888 L 208.40330626666392,232.33264314919114 L 206.01176282926957,235.78731596358645 L 204.63910417566896,236.1794040958149 L 196.56717523356065,242.26975299698876 L 188.81093483826984,246.57651463905796 L 177.69820136621527,222.85114332717302 L 171.15769801405105,208.98341415294388 z" id="c13175"/>
		<path d="M 89.72547651595029,267.0087053444001 L 120.36420797302813,267.5633472280452 L 119.12642114211191,272.9001245852946 L 114.04191053668868,276.9088867010062 L 113.32472449785102,289.990753587387 L 111.49342144070106,292.30038771351894 L 92.66844421528096,292.43989007584094 L 93.52340346715272,277.81669000927457 L 95.50752772310993,274.6486020356722 L 89.71213334982761,270.6900154683047 L 89.72547651595029,267.0087053444001 z" id="c13177"/>
		<path d="M 68.17813573784859,317.4193970901168 L 67.47406199666533,308.61871331025753 L 76.66873320569812,308.1620186322999 L 82.86386420762949,308.43379324924086 L 99.03637563116132,308.5260360469002 L 104.2573562964368,308.1529389845738 L 99.84425921916493,315.46781764485706 L 89.46394170038275,319.79444528262303 L 84.71082930544455,328.96212931697363 L 79.75283927561608,331.6426707079638 L 76.97415079966241,339.3751648333268 L 74.40296866828325,339.3125043289643 L 74.86702081138766,324.0279039683512 L 67.10552118383346,323.7359311443588 L 68.17813573784859,317.4193970901168 z" id="c13007"/>
		<path d="M 221.7148996076011,281.6758582734061 L 223.83153486317187,272.82137917929066 L 230.3908604006222,272.7533849363479 L 230.20100897803226,261.67349197936466 L 232.01398682467422,263.087566692596 L 245.4988478334296,266.00562047958346 L 253.8677436569099,266.9396996207797 L 258.65492764296715,273.1959314084915 L 255.90714699235093,273.57929765123833 L 252.51052145742517,277.9544143764892 L 253.012988420015,304.0709229364609 L 251.1987028360569,304.0245498747506 L 245.97375561494914,299.05932535926354 L 225.8121587388329,283.8989509845182 L 223.91207795536428,283.85074674985435 L 221.7148996076011,281.6758582734061 z" id="c13001"/>
		<path d="M 157.26294511115793,69.63051022511236 L 160.633815592177,67.33103057660668 L 163.61194560469372,64.24273079843465 L 173.72782919791058,65.94157680267035 L 177.96047807012584,62.8720588437788 L 180.54423879457138,67.16158813004351 L 178.778058611571,71.7696274514219 L 188.03046619138144,82.67538792346295 L 182.8317694861121,85.10443525514275 L 177.4052491233662,82.41615968806275 L 167.76079061031285,86.69789657898542 L 165.15724176762853,85.93842608689461 L 160.4159002930908,83.17367942121658 L 158.47510296283613,82.36272216966337 L 160.57838010079647,76.63393017845075 L 157.26294511115793,69.63051022511236 z" id="c13195"/>
		<path d="M 9.330383358761505,61.57582972475456 L 14.769253449105411,61.65126983058931 L 18.617841349710435,54.46317734790328 L 29.739416780919772,48.854487185763105 L 35.07624164121901,35.80746874433053 L 37.83526589516978,35.85852168245925 L 35.16565093253279,51.64924547884916 L 42.22781358579688,52.73414739171095 L 40.95291391485843,56.64315376065943 L 39.061197270187606,78.30257943866717 L 23.907272608144183,77.78844785895505 L 12.130872663812237,79.37015288922453 L 11.572054436861198,75.53420091443483 L 9.330383358761505,61.57582972475456 z" id="c13115"/>
		<path d="M 37.83526589516978,35.85852168245925 L 39.20005139556553,32.81852387161099 L 48.081961198409374,33.437172170867946 L 48.99859013502097,31.890790895590015 L 52.53236792742716,34.123569722831064 L 63.12590875600102,32.95444009831727 L 67.48113056134679,36.408295539955716 L 67.478060062385,39.368694835150826 L 68.15063950148706,47.42599811104175 L 67.50250267188669,51.1577363787693 L 43.43939620196458,53.42434849928429 L 42.22781358579688,52.73414739171095 L 35.16565093253279,51.64924547884916 L 37.83526589516978,35.85852168245925 z" id="c13129"/>
		<path d="M 129.22392330798868,276.70529696665136 L 143.25176973805972,276.5986287358949 L 143.25822285786325,272.2809148249927 L 148.46742592488388,272.33791641304504 L 153.00431401986899,272.8109030166353 L 154.60622587866493,277.4415554055383 L 155.01294303955308,280.528605221549 L 155.08994241819533,284.8199231557552 L 151.62396369745971,294.711946176959 L 140.65580318931663,294.55733281722075 L 140.6369704637191,297.0193603270978 L 135.483858514668,292.37118172985606 L 129.71061571088129,292.3149214890324 L 129.22392330798868,276.70529696665136 z" id="c13287"/>
		<path d="M 143.3722113346495,257.25585193533743 L 143.41393192868134,249.4370798598646 L 161.60914046039258,248.83043184863223 L 163.37166533553017,250.39068807262547 L 166.48778130134252,252.67423009431997 L 166.78545082476157,260.8544791993723 L 173.20844740300922,268.0757765162734 L 173.3312581754667,269.4267126424379 L 175.3340603580319,272.5914896890974 L 174.37733359420798,272.46722013554694 L 153.00431401986899,272.8109030166353 L 148.46742592488388,272.33791641304504 L 143.25822285786325,272.2809148249927 L 143.3722113346495,257.25585193533743 z" id="c13315"/>
		<path d="M 86.75140953013428,339.3577144169357 L 106.08518232268213,339.45044606239014 L 105.90924284770865,347.8332214750008 L 109.12266843780327,353.742893286294 L 108.5570888520315,374.1858461260323 L 105.47716342406747,374.00666416625097 L 93.49005695049543,373.4174184097581 L 86.37871555008267,373.05970863741436 L 86.75140953013428,339.3577144169357 z" id="c13131"/>
		<path d="M 137.75076027876264,123.86337864013186 L 137.504869405841,121.6713566936106 L 148.57527649994094,104.39076324248886 L 150.0397905094686,102.51064910323717 L 151.68838324011355,103.55319814050378 L 157.31265718280125,112.78727144593331 L 161.66585056840808,121.20962729044241 L 167.33379256437104,126.9783712749975 L 166.59464142552127,131.28892972863818 L 148.23599907055606,135.65614079289634 L 137.4393970712534,127.7831662030328 L 137.75076027876264,123.86337864013186 z" id="c13211"/>
		<path d="M 138.70133422965276,10.87859617782144 L 146.30238999672594,1.288001063953775 L 151.0193733702967,1.0782316569787205 L 162.40804682041173,0.5588073393527397 L 177.6417457058331,0.0 L 176.560547149161,3.9389904621234755 L 175.43113735851543,6.573005293971635 L 171.15185592455873,10.097139605709115 L 167.5143531985689,12.826553674029466 L 165.24030908863335,15.479048159475196 L 162.47992583866932,18.38483781826823 L 162.7731941440545,20.98469497451237 L 160.42757820922262,23.681761288699324 L 160.69483112894844,24.685836415038803 L 154.83184059281936,22.114524111170937 L 147.45385948753702,22.7923253076439 L 143.7031595117092,15.899815215441057 L 139.046038030186,15.665649219685164 L 138.70133422965276,10.87859617782144 z" id="c13241"/>
		<path d="M 152.9731131069563,45.13809797871136 L 159.62158139614723,28.300302365526182 L 161.39979921392788,27.33310057881616 L 161.4992257795211,27.706309336252133 L 165.86503028822838,30.88123870113099 L 169.9346463406598,33.86244252725103 L 174.73048435785634,35.69651804160487 L 178.4737042644179,40.04783478889767 L 173.16129048494224,45.32562563360177 L 157.3803844878429,46.85759496840359 L 152.9731131069563,45.13809797871136 z" id="c13257"/>
		<path d="M 95.48010986988494,87.9953623378783 L 101.25929591450898,87.11742365918943 L 107.32811804361724,82.5245278175951 L 105.86669219791226,81.20816155217187 L 109.82567159632305,72.39365803974025 L 122.25316002986136,77.70392088132496 L 127.45426388295813,75.84540106215586 L 123.78759406655898,86.50555924065489 L 128.8512249316838,92.92709572510155 L 124.83031548979297,96.79023213863329 L 120.98963856173283,100.47181130871711 L 115.69181114209584,105.39250686129245 L 112.68733778944345,108.27120300449984 L 108.91614165765566,106.14039964005283 L 101.94010381319964,99.13029171855725 L 99.70767711834186,97.88769740026764 L 97.28718524897565,95.16824139917304 L 94.41035716206946,90.56962351398707 L 95.48010986988494,87.9953623378783 z" id="c13135"/>
		<path d="M 155.8616207680064,361.74623542963724 L 163.51194747443705,358.61857701396195 L 156.38504788971383,353.4137119718405 L 153.78389198988162,343.266730783088 L 167.22280072697131,343.57719300011723 L 174.44842565886984,343.679235858323 L 175.75617392776155,344.4177651929955 L 175.88328377127283,350.1719320969637 L 186.05473497484368,350.3203015574543 L 187.89230636623927,358.75733258334816 L 182.77384410227106,358.8770241319249 L 181.66070047516772,360.53621670245644 L 179.58492330513695,363.6092651908586 L 179.33368894574886,378.33349545703226 L 166.41950622680554,377.54725758942095 L 162.8036857343045,377.3235397380532 L 153.42036108037033,367.03474153531477 L 155.8616207680064,361.74623542963724 z" id="c13185"/>
		<path d="M 219.6832122824236,212.87781394938952 L 217.42086200049607,208.87307918833648 L 226.79594001798142,202.87729071560133 L 224.22894383185934,199.50202585370852 L 228.89391532328844,192.8627498404521 L 229.92148450552048,188.63743241860266 L 237.3751634584156,186.3621116549999 L 244.9264715596026,188.98566669863186 L 249.9326446422457,188.12375311630208 L 254.7209009167978,200.95328654519324 L 260.7902395803933,205.7109738954606 L 258.7866823711145,211.64479924793275 L 255.1177179046934,209.87604285662192 L 250.16795893968197,213.3991065946982 L 242.6486314247212,228.1460230065049 L 244.2980959303841,230.94060125689126 L 235.39493161880753,233.37580436706355 L 231.30522699000647,228.13883513339536 L 233.174164653548,220.6055462397613 L 225.2610446386044,216.3039717282189 L 213.60259101103347,214.69103893155128 L 219.6832122824236,212.87781394938952 z" id="c13107"/>
		<path d="M 63.41357029710615,186.67944199030012 L 72.88910460295402,186.67491700121627 L 77.55276559441988,183.52712743115228 L 86.75972032917977,192.4201914267921 L 93.63100758348702,195.1578789616322 L 89.85154878102301,197.48447736522198 L 84.63832230794051,211.19263462704725 L 82.04104380870304,211.17246410724727 L 71.74410084121507,214.52128742090125 L 67.90701085394616,213.47608438635785 L 63.71325198071524,214.84994303934695 L 65.7121851341669,210.95156689077447 L 63.73438591557471,209.21365339798294 L 63.82969255173133,200.38945193230876 L 64.65401340722684,196.56411120588967 L 63.41357029710615,186.67944199030012 z" id="c13263"/>
		<path d="M 232.01507626656473,309.11386441915806 L 237.3630509900098,307.9020928658469 L 240.56252800439856,302.39765243226526 L 245.97375561494914,299.05932535926354 L 251.1987028360569,304.0245498747506 L 253.012988420015,304.0709229364609 L 258.16309404346424,304.3975112989758 L 259.9671122611698,312.3735044728614 L 263.3536675488912,319.67369445623683 L 254.66830557026154,321.41179354455244 L 248.96735068424817,327.4154580192387 L 242.13443514750577,325.60413410859286 L 239.8684391626865,325.5119626185591 L 234.67753081682662,319.9619932928087 L 232.01507626656473,309.11386441915806 z" id="c13229"/>
		<path d="M 76.11076584949329,175.85048463844137 L 77.68242732146403,175.65647226643384 L 78.83536342040256,173.85569559766662 L 94.82799483855933,174.12303549188815 L 105.59225109825644,174.2500930850466 L 105.5229805684306,179.21065795646507 L 105.45769932689058,186.35183318710307 L 105.45522421978124,190.55469768287853 L 99.73670651517784,200.1413748420465 L 97.31479530468044,195.968585721365 L 93.63100758348702,195.1578789616322 L 86.75972032917977,192.4201914267921 L 77.55276559441988,183.52712743115228 L 76.10268102714997,180.72965443927924 L 76.11076584949329,175.85048463844137 z" id="c13293"/>
		<path d="M 204.82792869321892,150.75193856435314 L 218.97260322031764,144.1635596933535 L 228.3227486421252,148.5485195181952 L 217.34848677566382,157.66185650020952 L 217.86148948075189,162.11698230832988 L 211.8082842983032,161.64501965288417 L 206.10969978631812,157.5713190992005 L 205.39292392080026,152.0491877020047 L 204.82792869321892,150.75193856435314 z" id="c13125"/>
		<path d="M 127.13164978268692,135.51379133133935 L 138.00212724510735,131.15137368056227 L 137.4393970712534,127.7831662030328 L 148.23599907055606,135.65614079289634 L 147.49115707184436,158.3541808860558 L 127.8634312198468,161.91377286452166 L 127.39783386761476,157.72987399241325 L 128.48402855501632,156.62431986950565 L 124.38526998036106,141.4853718944817 L 127.13164978268692,135.51379133133935 z" id="c13159"/>
		<path d="M 211.8082842983032,161.64501965288417 L 217.86148948075189,162.11698230832988 L 217.34848677566382,157.66185650020952 L 228.3227486421252,148.5485195181952 L 231.76271989785081,145.26698309530786 L 233.9641061247458,145.21069690152768 L 235.4739797884374,145.49883022437405 L 240.27157676156946,148.98338909689588 L 242.8733806925245,152.06520081530854 L 238.87437524738846,166.70028242601964 L 240.4396357710455,177.48490821516663 L 237.3751634584156,186.3621116549999 L 229.92148450552048,188.63743241860266 L 228.89391532328844,192.8627498404521 L 227.12530527114367,192.37571317993982 L 222.46564698158795,187.7688673996737 L 223.0808395390879,179.51044204763798 L 220.075119946483,170.7722739506011 L 216.57810998688552,169.73041899744106 L 211.8082842983032,161.64501965288417 z" id="c13163"/>
		<path d="M 306.54389474995713,248.86106076686477 L 320.6505477774565,236.22230122932592 L 324.19296270616957,237.02533626392486 L 326.3910625074396,241.29282707225724 L 326.9912457039582,246.80919427205765 L 332.58843628871114,249.135603292021 L 334.8667471450322,247.6251758472481 L 339.6545866609056,251.2336401337763 L 343.96588370076853,253.1139136336375 L 347.1161297044747,253.91552364019986 L 346.82035873712147,257.036381061561 L 342.3100499325121,261.0263765931207 L 340.1659802671882,263.75523777979186 L 335.9591539658209,268.74704185275175 L 333.3708681906052,272.6322381640486 L 330.53018204210883,277.1675351532806 L 326.6649343074693,280.6136651863932 L 326.3493680300326,281.6719282841342 L 324.9069393156936,281.4951442606834 L 323.01391478603045,272.63054182985235 L 325.7682357678345,269.12696904546 L 314.2754398275955,258.78772268368397 L 306.54389474995713,248.86106076686477 z" id="c13051"/>
		<path d="M 240.4396357710455,177.48490821516663 L 238.87437524738846,166.70028242601964 L 242.8733806925245,152.06520081530854 L 240.27157676156946,148.98338909689588 L 247.00226594784462,146.31743859776338 L 252.7139201741322,151.928515971171 L 270.8940429219387,150.1072204731688 L 270.9020406562167,150.58336106344782 L 277.0084754396846,153.7412321495433 L 277.09596195606434,154.29135181925696 L 277.7228942752767,158.2319045043103 L 284.8566848732039,162.2515646604331 L 287.9770855982046,163.37141914027677 L 289.02784728888656,163.74816176430275 L 293.3142608618983,167.12805567412283 L 277.2978232546397,179.18906983912353 L 270.61814432468606,175.49136194759168 L 254.4001380003409,179.04037191306142 L 249.9326446422457,188.12375311630208 L 244.9264715596026,188.98566669863186 L 237.3751634584156,186.3621116549999 L 240.4396357710455,177.48490821516663 z" id="c13033"/>
		<path d="M 54.89058544250639,301.6021486170758 L 54.21312796863041,292.4906299375419 L 70.53873144334074,291.02957202129625 L 74.25227712479898,292.4617888468849 L 79.41804663267709,292.4808749406312 L 81.38483380670625,292.4256437236237 L 81.03349220882696,298.77940594888304 L 84.15361666326253,306.6852845260568 L 82.86386420762949,308.43379324924086 L 76.66873320569812,308.1620186322999 L 67.47406199666533,308.61871331025753 L 56.25518963429999,308.34546841955057 L 54.00675371592678,302.73687248643654 L 54.89058544250639,301.6021486170758 z" id="c13037"/>
		<path d="M 157.3803844878429,46.85759496840359 L 173.16129048494224,45.32562563360177 L 178.4737042644179,40.04783478889767 L 178.90952913427296,40.5540022023276 L 182.25616678931002,43.671419860438775 L 179.2131525089802,50.53370689588284 L 177.96047807012584,62.8720588437788 L 173.72782919791058,65.94157680267035 L 163.61194560469372,64.24273079843465 L 160.633815592177,67.33103057660668 L 161.85303913998652,64.11590371994487 L 157.7909088866616,58.62018221506974 L 157.3803844878429,46.85759496840359 z" id="c13119"/>
		<path d="M 110.19855589017142,71.06159856051009 L 115.12329981962515,69.97794175723843 L 119.66530932078652,62.227954178587716 L 117.39608684903583,58.01922464653696 L 115.64559351163165,55.96350366507067 L 115.69220328548785,50.727827221358986 L 119.1756214665234,46.31524832158997 L 125.50102828661852,43.17254644755757 L 129.4204104864725,42.41526299764828 L 138.1692227491087,43.28454942336145 L 141.86503137486662,49.477654864454706 L 137.9944771878347,55.155880057962435 L 141.58012856103542,61.27803755794834 L 127.45426388295813,75.84540106215586 L 122.25316002986136,77.70392088132496 L 109.82567159632305,72.39365803974025 L 110.19855589017142,71.06159856051009 z" id="c13139"/>
		<path d="M 125.10837178588729,226.69533323518448 L 126.54009715507952,226.13844424245522 L 125.80947154009564,219.25065374006888 L 134.81920737718818,214.66556061547593 L 136.3917185369223,199.93059175830885 L 136.38697063913446,199.8812601218763 L 138.95347325550077,201.39518313251136 L 143.96393609164622,202.249819346235 L 146.64255490143069,202.7590438020019 L 151.37046968642977,220.54245374849384 L 151.38927301765384,224.90563471188878 L 149.52520027234775,224.86754560364474 L 142.82135220947754,234.73464240754296 L 137.84633996910523,234.66477370648772 L 135.26992069530417,234.63102109352207 L 125.73034752519209,234.59527906343595 L 125.10837178588729,226.69533323518448 z" id="c13153"/>
		<path d="M 30.42445487655538,273.3437446918398 L 32.516237707536156,268.68651460301885 L 35.97602072087831,262.3204148327923 L 36.30583618722073,260.20571479317505 L 37.88258589813616,261.61870334874453 L 42.87266056021605,263.85700772465253 L 47.79888862701312,266.1171673657576 L 47.465912690496765,278.87322750244357 L 43.900716359866585,278.7605179400865 L 35.38416054031583,279.24825993777256 L 31.31417924857233,278.4495003334896 L 30.42445487655538,273.3437446918398 z" id="c13239"/>
		<path d="M 79.75283927561608,331.6426707079638 L 84.71082930544455,328.96212931697363 L 89.46394170038275,319.79444528262303 L 99.84425921916493,315.46781764485706 L 104.2573562964368,308.1529389845738 L 105.76471777198368,307.9508502715938 L 114.8756128012478,307.83470582384217 L 114.76885047216841,317.2353045651928 L 114.53482287413613,336.4005995560564 L 113.72702597408679,337.32951025753476 L 114.49038748888876,339.50122207118795 L 106.08518232268213,339.45044606239014 L 86.75140953013428,339.3577144169357 L 76.97415079966241,339.3751648333268 L 79.75283927561608,331.6426707079638 z" id="c13205"/>
		<path d="M 112.58719183668843,244.9771867254947 L 122.32401329599932,234.50050994900315 L 125.73034752519209,234.59527906343595 L 135.26992069530417,234.63102109352207 L 137.84633996910523,234.66477370648772 L 142.82135220947754,234.73464240754296 L 143.51475188754546,235.8440599528705 L 143.41393192868134,249.4370798598646 L 143.3722113346495,257.25585193533743 L 117.48539549560653,257.11757269103924 L 112.15588206316806,246.54084250275943 L 112.58719183668843,244.9771867254947 z" id="c13093"/>
		<path d="M 268.25423899760256,339.2700151293371 L 275.3366957997334,335.9355366394106 L 280.7323626247371,329.5998002209518 L 290.8662955137951,334.69107771881073 L 295.95494361181255,332.6556396784371 L 295.27171263334867,335.5274375917624 L 307.41587039381466,344.4416195031435 L 307.7444447590823,345.56813257215674 L 308.1416211175579,351.5717328485281 L 305.7177404647676,359.1427790492659 L 304.33836737738636,363.6273500567812 L 305.6545456334461,368.80256263759486 L 300.91461071007404,367.7726854730275 L 299.34068707311826,367.7733004752268 L 296.8597175135687,368.5026899253737 L 291.48751761210417,367.41447137224935 L 288.8441585125721,366.172998955647 L 284.0597853847427,365.84672227098025 L 281.68965052631967,363.8063269038178 L 278.289617591643,362.47816192853753 L 273.80132286220635,362.33463195057016 L 271.2352755224564,359.96023348817386 L 270.96387424824263,359.91493935717455 L 270.5766987943175,341.0452090050184 L 268.331746907135,340.37478395891077 L 268.25423899760256,339.2700151293371 z" id="c13039"/>
		<path d="M 173.20844740300922,268.0757765162734 L 192.42952543731744,248.5416024868526 L 192.9522827128996,246.01155877936145 L 193.46289088860792,247.5616457016804 L 196.47668693977585,252.3138447704382 L 208.6761384705983,258.82706550685873 L 214.48081485063332,265.9990565854523 L 201.30980238638665,275.292046709455 L 200.53115895189882,275.0626956155988 L 198.5933289280626,277.9515530054429 L 188.80561257536095,278.23766660184083 L 178.22437771851835,275.4523795308192 L 175.3340603580319,272.5914896890974 L 173.3312581754667,269.4267126424379 L 173.20844740300922,268.0757765162734 z" id="c13271"/>
		<path d="M 17.677246958270544,116.41635145553968 L 21.173588469786132,116.54398041615671 L 38.48806679244024,111.30481973336546 L 39.49565036170586,102.90057230917328 L 44.302126997607374,104.00522350000966 L 49.30742298960093,105.67777681120884 L 48.883248414772034,123.5979278181411 L 55.89196376547296,123.58353523074601 L 55.36101325075914,128.2341447450101 L 52.83315912952788,128.97793832880132 L 46.65506392782931,135.33489819093967 L 40.85020118315629,136.31977957415992 L 20.629976641693005,135.91263041374384 L 19.913717073849426,131.17019587874773 L 19.29918870412692,127.09572559059343 L 17.677246958270544,116.41635145553968 z" id="c13045"/>
		<path d="M 259.59531737155044,234.10503235375523 L 263.7457873900235,234.89457761892305 L 275.1024852413338,237.44415375595057 L 277.7929251717228,244.61870378962254 L 279.68968077068973,248.75478639198744 L 282.4925487985988,250.00923923166872 L 279.40197397190684,253.66420409814904 L 270.031243935297,253.65145814754646 L 263.26907725386997,251.10132945888034 L 259.59531737155044,234.10503235375523 z" id="c13109"/>
		<path d="M 232.68942568095483,343.98792402723416 L 253.82776018752313,343.87660247363806 L 257.58671795051765,343.8141993533813 L 258.9939073044461,338.1519826835649 L 268.331746907135,340.37478395891077 L 270.5766987943175,341.0452090050184 L 270.96387424824263,359.91493935717455 L 268.1778721538109,359.4494477969437 L 264.3831242025412,363.1005616625874 L 261.6300707410886,366.2143287547307 L 261.0412758353274,371.2662469200946 L 260.52654255791936,374.4603262727199 L 263.1412815907892,379.066266054473 L 263.05920712590745,385.16523999853376 L 262.459376378887,392.4211739673091 L 261.49923620352104,396.25484335820937 L 261.64623721820175,399.1145988799871 L 260.8834342141772,399.28244696370615 L 257.618549053353,400.0 L 253.97234820417378,399.84008044340527 L 251.2112229476482,399.4366363187745 L 248.85885790951977,394.6393108115129 L 249.484422435657,390.31896017670846 L 247.28501812280123,386.3468637261163 L 248.0294844630337,382.56647362845183 L 252.8286072865693,363.46708695893795 L 232.62472225228632,362.8651344243396 L 232.68942568095483,343.98792402723416 z" id="c13049"/>
		<path d="M 211.27674476104178,321.4339288619906 L 216.44574838032295,321.65554314418415 L 216.3861985974842,313.9454644113876 L 216.31752557999053,304.83355611342 L 218.58966857992485,304.80639422046806 L 226.20496759319747,304.74604918852464 L 227.2549638450629,309.1523812902409 L 232.01507626656473,309.11386441915806 L 234.67753081682662,319.9619932928087 L 239.8684391626865,325.5119626185591 L 242.13443514750577,325.60413410859286 L 247.8485718609709,330.13131790943834 L 248.01515277152154,337.5784738266085 L 253.82776018752313,343.87660247363806 L 232.68942568095483,343.98792402723416 L 232.62472225228632,362.8651344243396 L 252.8286072865693,363.46708695893795 L 248.0294844630337,382.56647362845183 L 233.0219076600962,381.3845255077569 L 231.44182208902257,360.73636150831004 L 226.99536724442342,360.84853137410647 L 227.17571989661482,348.4317260059434 L 219.54799574892618,343.7611919288259 L 213.4310506195353,329.56175527616676 L 211.27674476104178,321.4339288619906 z" id="c13299"/>
		<path d="M 216.13244029595737,287.2601245171799 L 223.96400396449715,287.1596483006258 L 223.91207795536428,283.85074674985435 L 225.8121587388329,283.8989509845182 L 245.97375561494914,299.05932535926354 L 240.56252800439856,302.39765243226526 L 237.3630509900098,307.9020928658469 L 232.01507626656473,309.11386441915806 L 227.2549638450629,309.1523812902409 L 226.20496759319747,304.74604918852464 L 218.58966857992485,304.80639422046806 L 216.20275668412006,297.1435560236216 L 216.13244029595737,287.2601245171799 z" id="c13005"/>
		<path d="M 51.805035235305944,156.65783430782366 L 52.55010047976193,153.86055564830426 L 77.97727832852067,154.2038566657136 L 78.37172869434656,157.41962946545092 L 75.40444507372425,170.12759917254928 L 76.11076584949329,175.85048463844137 L 76.10268102714997,180.72965443927924 L 77.55276559441988,183.52712743115228 L 72.88910460295402,186.67491700121627 L 63.41357029710615,186.67944199030012 L 59.7188891920947,184.53702631509213 L 51.66581872459968,184.2034019323378 L 51.805035235305944,156.65783430782366 z" id="c13199"/>
		<path d="M 105.5229805684306,179.21065795646507 L 110.56435464196865,179.26631014855425 L 111.4604318670702,155.83022685396895 L 125.91398803863306,156.30537401613026 L 127.39783386761476,157.72987399241325 L 127.8634312198468,161.91377286452166 L 134.4939911647823,170.45891743304776 L 135.59307431112885,177.3581889693246 L 133.88354366326698,177.51951255780725 L 124.45490203516277,185.01385018610566 L 122.40950909256374,186.43105366246016 L 117.6192958743774,186.40693311413472 L 115.43092211484269,186.3881363010307 L 105.45769932689058,186.35183318710307 L 105.5229805684306,179.21065795646507 z" id="c13207"/>
		<path d="M 35.83823817517604,206.94012977796478 L 47.7829149109668,207.07103101920157 L 48.155923410547324,207.07545494994443 L 48.12746147183841,209.16481589126514 L 63.73438591557471,209.21365339798294 L 65.7121851341669,210.95156689077447 L 63.71325198071524,214.84994303934695 L 58.254182985295905,223.30337443449977 L 42.6312101948636,226.79121754022106 L 43.35623925137126,221.28199507303748 L 41.35070255692269,215.7154214628737 L 41.25435358390867,215.44777080486662 L 40.8265447249603,214.2590989992982 L 36.27529927697216,209.0980246196487 L 35.83823817517604,206.94012977796478 z" id="c13215"/>
		<path d="M 164.42562153741537,102.95042599077004 L 166.61263970479942,99.77337038879037 L 169.0985405387388,94.87069203187163 L 166.3394674422967,90.80436262997867 L 167.76079061031285,86.69789657898542 L 177.4052491233662,82.41615968806275 L 182.8317694861121,85.10443525514275 L 188.03046619138144,82.67538792346295 L 190.52919975272582,85.12128209054772 L 202.2777525558739,88.7301119116933 L 195.48265956819262,93.08674601466689 L 187.56477373592395,104.97249241674265 L 190.30898280776108,109.4428582687561 L 186.98522888231233,112.91817788612025 L 178.08316495563605,112.56121348529369 L 166.35890026912753,107.22821527747779 L 164.42562153741537,102.95042599077004 z" id="c13221"/>
		<path d="M 37.252718985084734,254.1289194582328 L 37.5904531176562,251.95942901383623 L 36.76542071815568,247.7495821018474 L 41.283026555982005,243.51370570586712 L 46.274871718057874,240.64614303145484 L 47.03030236406132,239.63184348860614 L 53.41989041167887,239.6738195380864 L 55.88917141838508,239.68866227663077 L 66.20571681368078,239.56982623457384 L 66.91102030638099,239.56429775381466 L 68.22960894006242,243.79620808623525 L 66.31097200791895,266.58145910374014 L 54.94386658120925,265.5254183249013 L 47.79888862701312,266.1171673657576 L 42.87266056021605,263.85700772465253 L 37.88258589813616,261.61870334874453 L 36.30583618722073,260.20571479317505 L 37.252718985084734,254.1289194582328 z" id="c13259"/>
		<path d="M 242.13443514750577,325.60413410859286 L 248.96735068424817,327.4154580192387 L 254.66830557026154,321.41179354455244 L 263.3536675488912,319.67369445623683 L 259.9671122611698,312.3735044728614 L 268.7594499797016,314.6069134415099 L 277.7910783862139,312.8730705912298 L 283.00027082833884,315.6731239583027 L 279.5427435499995,329.750665216352 L 280.7323626247371,329.5998002209518 L 275.3366957997334,335.9355366394106 L 268.25423899760256,339.2700151293371 L 268.331746907135,340.37478395891077 L 258.9939073044461,338.1519826835649 L 257.58671795051765,343.8141993533813 L 253.82776018752313,343.87660247363806 L 248.01515277152154,337.5784738266085 L 247.8485718609709,330.13131790943834 L 242.13443514750577,325.60413410859286 z" id="c13025"/>
		<path d="M 277.7929251717228,244.61870378962254 L 302.9763527892658,236.37186343176992 L 305.420706950027,248.36688645716114 L 306.54389474995713,248.86106076686477 L 314.2754398275955,258.78772268368397 L 325.7682357678345,269.12696904546 L 323.01391478603045,272.63054182985235 L 324.9069393156936,281.4951442606834 L 317.04030372300406,278.18859842235884 L 309.81475605927756,273.088030325098 L 305.6982497790859,261.997898912055 L 300.6414622297128,259.5414727289848 L 291.9632229333719,260.00656119190654 L 291.1224032551515,256.8053903901867 L 284.40551713404926,250.05535006020304 L 282.4925487985988,250.00923923166872 L 279.68968077068973,248.75478639198744 L 277.7929251717228,244.61870378962254 z" id="c13029"/>
		<path d="M 260.7902395803933,205.7109738954606 L 272.4356768613651,201.8161567802443 L 273.390841673248,201.47477197851643 L 283.7144239717704,210.45418572457723 L 294.20820444236136,215.13471415561693 L 295.37239047137655,223.3862230199136 L 302.1092200891633,232.63646096958666 L 302.9763527892658,236.37186343176992 L 277.7929251717228,244.61870378962254 L 275.1024852413338,237.44415375595057 L 263.7457873900235,234.89457761892305 L 267.18137431824033,222.1415742292424 L 258.7866823711145,211.64479924793275 L 260.7902395803933,205.7109738954606 z" id="c13031"/>
		<path d="M 32.57897173451236,20.205801509562345 L 38.55095707234475,15.778998458721214 L 44.50096204142591,1.3264352780460476 L 44.70592462083864,1.3268705424447975 L 52.93642801703842,1.3394668053727548 L 56.553872042476414,1.3561769429930752 L 55.90520892853523,10.943448779971787 L 51.58568444524242,19.330578670098078 L 52.50919854688843,25.584433528105727 L 46.82006030531877,28.17883948978167 L 48.99859013502097,31.890790895590015 L 48.081961198409374,33.437172170867946 L 39.20005139556553,32.81852387161099 L 39.245397982045226,24.388577840897153 L 30.821337463823983,24.283732155776793 L 32.57897173451236,20.205801509562345 z" id="c13313"/>
		<path d="M 67.35832858188681,23.80899931663515 L 69.5040034746474,18.99265548749394 L 70.15289669317754,12.885380369114515 L 84.11345822078674,12.98681586430903 L 89.74589927671066,15.593973531908562 L 100.21450966326057,33.489066931355595 L 96.03965557047353,37.77402785360676 L 90.21064778328557,36.849104160168395 L 89.57074455394194,38.24944232721684 L 87.72306170518307,39.4770586690248 L 83.01103149355558,39.39205657062445 L 80.81409794593921,38.163523031441116 L 78.33801437842044,38.139024888306295 L 67.478060062385,39.368694835150826 L 67.48113056134679,36.408295539955716 L 67.35832858188681,23.80899931663515 z" id="c13123"/>
		<path d="M 179.58492330513695,363.6092651908586 L 181.66070047516772,360.53621670245644 L 182.77384410227106,358.8770241319249 L 187.89230636623927,358.75733258334816 L 191.4586975267511,356.9967619672046 L 200.81016808325487,359.8648212198257 L 206.9010662434689,368.65685411324813 L 220.75232876915982,371.5984309910997 L 220.67028699408095,380.640639079009 L 212.77426100627616,380.2075434854636 L 198.7262171289728,379.41860196936824 L 179.72161123702855,378.35680385495533 L 179.33368894574886,378.33349545703226 L 179.58492330513695,363.6092651908586 z" id="c13101"/>
		<path d="M 95.74997841071259,70.83526440337108 L 95.75785374980349,66.41032220392349 L 95.80955738787581,57.93279400970748 L 117.39608684903583,58.01922464653696 L 119.66530932078652,62.227954178587716 L 115.12329981962515,69.97794175723843 L 110.19855589017142,71.06159856051009 L 109.82567159632305,72.39365803974025 L 105.86669219791226,81.20816155217187 L 107.32811804361724,82.5245278175951 L 95.73028850744106,77.43737345493625 L 95.74997841071259,70.83526440337108 z" id="c13117"/>
		<path d="M 185.76205214582325,122.71916424391502 L 190.22940550964083,115.67435749769602 L 186.98522888231233,112.91817788612025 L 190.30898280776108,109.4428582687561 L 195.4379832187941,119.1151474111582 L 200.22659290972084,116.02012542255304 L 209.9105728148844,120.73320455584671 L 204.85823806922104,128.5557679070593 L 200.2081605918589,127.66717149611928 L 196.55335353653822,132.42937395912728 L 197.64009674262448,134.40916820046561 L 188.07873449019286,134.1702470931398 L 185.95473119513417,132.3315758990043 L 185.76205214582325,122.71916424391502 z" id="c13265"/>
		<path d="M 244.2980959303841,230.94060125689126 L 259.59531737155044,234.10503235375523 L 263.26907725386997,251.10132945888034 L 270.031243935297,253.65145814754646 L 279.40197397190684,253.66420409814904 L 274.8493548814294,256.6201587721207 L 263.6705507250229,275.90687134814004 L 264.5905842513637,276.34268873984416 L 263.57276436612847,276.7454391085373 L 258.65492764296715,273.1959314084915 L 253.8677436569099,266.9396996207797 L 245.4988478334296,266.00562047958346 L 248.27600060711353,244.08916965312162 L 244.2980959303841,230.94060125689126 z" id="c13267"/>
		<path d="M 118.7479019427944,1.5189177887110306 L 141.26528071141016,1.5085371138291455 L 146.30238999672594,1.288001063953775 L 138.70133422965276,10.87859617782144 L 139.046038030186,15.665649219685164 L 136.95894531510004,17.587799737185176 L 135.3407653639415,18.42148531190612 L 129.91896627424785,18.308048692193957 L 127.85861632811434,8.664586532188807 L 120.29152504411805,6.746921114937149 L 118.7479019427944,1.5189177887110306 z" id="c13281"/>
		<path d="M 212.56081130742936,88.32714476215499 L 217.89336152935175,89.76224286307895 L 218.35250322584838,90.72379628473213 L 221.5264079965504,91.3983726676707 L 227.52348354551424,97.3461696211242 L 235.28989920082958,101.27753432490505 L 241.5958382833257,108.87377210479713 L 242.76728011091765,111.35776294931976 L 243.3394066226387,112.57031502128932 L 236.64789137540282,111.59696740496088 L 228.25950806818284,116.0507030730676 L 224.35690876776246,117.07483335823271 L 215.86486504092886,100.96952207200374 L 217.34442931343457,97.5722786825467 L 211.91735669307346,87.46304053073258 L 212.56081130742936,88.32714476215499 z" id="c13181"/>
		<path d="M 177.98961842386856,305.0277592644794 L 179.98854031860594,304.84582593859943 L 184.2957292094848,292.95849656096226 L 188.70902408792278,287.5578941760547 L 188.80561257536095,278.23766660184083 L 198.5933289280626,277.9515530054429 L 200.53115895189882,275.0626956155988 L 200.66427725938374,287.5736603188371 L 216.13244029595737,287.2601245171799 L 216.20275668412006,297.1435560236216 L 218.58966857992485,304.80639422046806 L 216.31752557999053,304.83355611342 L 216.3861985974842,313.9454644113876 L 202.40177228622537,314.0808072695133 L 200.39265433480688,310.74791635983917 L 178.40955356827095,309.5076926934583 L 177.98961842386856,305.0277592644794 z" id="c13069"/>
		<path d="M 294.20820444236136,215.13471415561693 L 295.607085013044,212.8851839682924 L 305.7668118389143,205.35181124264835 L 310.110262477359,208.50248871865813 L 313.403119724969,209.6355835226713 L 314.09204056040414,209.87243141822358 L 320.1496065720742,216.54860198861624 L 320.2711894952449,221.1836121574225 L 321.9095882836685,223.4387091741995 L 325.00000915552926,227.68826177385012 L 325.5104675425965,232.7364367558407 L 323.73111545406704,236.1280971582003 L 324.19296270616957,237.02533626392486 L 320.6505477774565,236.22230122932592 L 306.54389474995713,248.86106076686477 L 305.420706950027,248.36688645716114 L 302.9763527892658,236.37186343176992 L 302.1092200891633,232.63646096958666 L 295.37239047137655,223.3862230199136 L 294.20820444236136,215.13471415561693 z" id="c13103"/>
		<path d="M 88.79525708355825,138.99742554144655 L 93.08754526492594,135.682588064704 L 93.88138236737342,125.88441593775585 L 96.77785703331763,122.32437667982552 L 94.07940811002779,117.38457936933473 L 95.11979914926064,117.4064926181604 L 96.66795086376781,118.82893977871554 L 101.10149417981049,117.49746242490443 L 105.41034434655444,124.84654975216141 L 107.37259435355837,124.94265593021781 L 110.83012891330708,126.57570403264911 L 111.21004233746392,127.89824051059628 L 110.49410663456277,128.83857094477432 L 118.31068348709431,131.69120896054142 L 119.9562270736694,134.9348427955829 L 117.03580003931768,140.90886476089318 L 111.37099534810363,143.86018722760878 L 110.01465217703314,146.58706207352725 L 107.01666179757879,147.57419132324085 L 96.50571503432316,142.86855163844297 L 88.74651804153235,142.86780482354445 L 88.79525708355825,138.99742554144655 z" id="c13151"/>
		<path d="M 81.38483380670625,292.4256437236237 L 92.66844421528096,292.43989007584094 L 111.49342144070106,292.30038771351894 L 113.32472449785102,289.990753587387 L 114.96605582666504,292.1578005043728 L 114.8756128012478,307.83470582384217 L 105.76471777198368,307.9508502715938 L 104.2573562964368,308.1529389845738 L 99.03637563116132,308.5260360469002 L 82.86386420762949,308.43379324924086 L 84.15361666326253,306.6852845260568 L 81.03349220882696,298.77940594888304 L 81.38483380670625,292.4256437236237 z" id="c13095"/>
		<path d="M 38.817154748106915,339.4233265086555 L 46.155201263181795,339.72489722291846 L 60.401933578336845,340.1033973907813 L 56.110599725921695,363.21252007912676 L 50.34559887632123,370.9546877330936 L 50.25385828461506,370.9502302897062 L 46.29799521949815,365.6934329925244 L 45.13103070088292,360.33227698659533 L 45.052097226169366,356.47172536358755 L 41.507228827013016,351.4102925597062 L 39.87195814253143,347.9368085839504 L 40.15257851513862,345.8958135021184 L 39.525351301887035,341.32280432246415 L 38.817154748106915,339.4233265086555 z" id="c13253"/>
		<path d="M 178.40955356827095,309.5076926934583 L 200.39265433480688,310.74791635983917 L 202.40177228622537,314.0808072695133 L 216.3861985974842,313.9454644113876 L 216.44574838032295,321.65554314418415 L 211.27674476104178,321.4339288619906 L 213.4310506195353,329.56175527616676 L 191.17293032615234,329.8108711689245 L 185.5536929023871,329.8962830580333 L 186.46953476824825,321.99101483207966 L 178.40955356827095,309.5076926934583 z" id="c13003"/>
		<path d="M 31.31417924857233,278.4495003334896 L 35.38416054031583,279.24825993777256 L 43.900716359866585,278.7605179400865 L 44.49365121217645,287.2291515212073 L 45.0052070909411,292.52575246024116 L 54.21312796863041,292.4906299375419 L 54.89058544250639,301.6021486170758 L 54.00675371592678,302.73687248643654 L 38.49063967277263,303.93641029988123 L 36.85113082571897,301.03083650460513 L 37.59400009355814,298.8638088586461 L 36.422420480519435,296.5938603196369 L 36.44175220711088,292.325781118888 L 31.5171934181305,285.82473933494543 L 32.03333668632822,282.5710357637291 L 31.57552479234245,279.94784534076564 L 31.31417924857233,278.4495003334896 z" id="c13061"/>
		<path d="M 117.48539549560653,257.11757269103924 L 143.3722113346495,257.25585193533743 L 143.25822285786325,272.2809148249927 L 143.25176973805972,276.5986287358949 L 129.22392330798868,276.70529696665136 L 126.07298378244133,274.32913412739555 L 119.12642114211191,272.9001245852946 L 120.36420797302813,267.5633472280452 L 120.53707670371972,266.042932341094 L 117.48539549560653,257.11757269103924 z" id="c13081"/>
		<path d="M 228.25950806818284,116.0507030730676 L 236.64789137540282,111.59696740496088 L 243.3394066226387,112.57031502128932 L 244.5593226191844,115.15442880383797 L 247.3739791729027,119.1628231954059 L 248.79005107880346,119.58878222309566 L 251.42708101394848,120.38117302438339 L 257.16168018446206,124.65070052678513 L 239.01516089995084,140.76435871397746 L 238.2043345575266,141.47604551011983 L 227.55430006736694,124.7185189319322 L 228.25950806818284,116.0507030730676 z" id="c13073"/>
		<path d="M 105.01337003751367,1.4973047149212693 L 113.84455315176217,1.5142417179676786 L 118.7323431107145,1.5189003078708583 L 118.7479019427944,1.5189177887110306 L 120.29152504411805,6.746921114937149 L 127.85861632811434,8.664586532188807 L 129.91896627424785,18.308048692193957 L 126.70497120641397,19.524335991254265 L 124.50576779890021,24.440692782123183 L 118.61277556560707,22.84244627073107 L 111.66515648315675,31.407576034913077 L 102.98169770738964,30.86810253936764 L 107.60487387826416,17.623722745807385 L 106.58574306648278,10.233446386475231 L 101.49882887014132,4.598311040677138 L 105.01337003751367,1.4973047149212693 z" id="c13291"/>
		<path d="M 196.55335353653822,132.42937395912728 L 200.2081605918589,127.66717149611928 L 204.85823806922104,128.5557679070593 L 209.9105728148844,120.73320455584671 L 212.08909458296506,119.9254272292444 L 219.78591897032916,141.94351320374074 L 231.76271989785081,145.26698309530786 L 228.3227486421252,148.5485195181952 L 218.97260322031764,144.1635596933535 L 204.82792869321892,150.75193856435314 L 199.6761815498733,135.75928420605487 L 197.64009674262448,134.40916820046561 L 196.55335353653822,132.42937395912728 z" id="c13301"/>
		<path d="M 162.5839915900697,235.99700015490578 L 165.6033795429081,229.96890752315375 L 175.16292140073355,220.3282982436316 L 177.69820136621527,222.85114332717302 L 188.81093483826984,246.57651463905796 L 196.56717523356065,242.26975299698876 L 197.31429264996999,243.64806205228487 L 193.46289088860792,247.5616457016804 L 192.9522827128996,246.01155877936145 L 192.42952543731744,248.5416024868526 L 173.20844740300922,268.0757765162734 L 166.78545082476157,260.8544791993723 L 166.48778130134252,252.67423009431997 L 163.37166533553017,250.39068807262547 L 166.71947822668648,244.05992050285886 L 160.58637931547412,237.9781518994442 L 162.5839915900697,235.99700015490578 z" id="c13091"/>
		<path d="M 4.610417247187104,32.319188674300236 L 7.779395203341828,28.412952183561202 L 7.83205296431747,25.848565520742333 L 10.763516647390297,20.686458205278676 L 10.832772914700534,14.423074274000301 L 12.081626844836817,10.685706382022005 L 17.16690631096752,1.3825575164271735 L 23.314427602826147,1.3153320164627311 L 24.204128904613988,1.3162917514759798 L 24.100888855081763,12.626273865600032 L 28.561600080199167,12.658698259592587 L 28.513895539767297,19.521632369266875 L 32.57897173451236,20.205801509562345 L 30.821337463823983,24.283732155776793 L 39.245397982045226,24.388577840897153 L 39.20005139556553,32.81852387161099 L 37.83526589516978,35.85852168245925 L 35.07624164121901,35.80746874433053 L 17.01953649308307,36.10801851387116 L 5.1063043565985735,35.36175036583234 L 4.610417247187104,32.319188674300236 z" id="c13295"/>
		<path d="M 115.69181114209584,105.39250686129245 L 120.98963856173283,100.47181130871711 L 124.83031548979297,96.79023213863329 L 128.8512249316838,92.92709572510155 L 131.60605177047574,95.94256975974251 L 139.81991517862733,94.92386866938817 L 148.07282314058563,102.24957294137977 L 150.0397905094686,102.51064910323717 L 148.57527649994094,104.39076324248886 L 137.504869405841,121.6713566936106 L 136.7261334544924,119.9400288012266 L 129.539498698,115.67616531438625 L 120.55186772893329,109.00000096830378 L 115.69181114209584,105.39250686129245 z" id="c13297"/>
		<path d="M 183.77684918628188,174.16169262294673 L 183.46269462564283,165.94562539856517 L 186.62498590617258,165.8969553665353 L 195.28770911946873,160.80328355260914 L 197.684686511011,155.77432580522398 L 205.39292392080026,152.0491877020047 L 206.10969978631812,157.5713190992005 L 211.8082842983032,161.64501965288417 L 216.57810998688552,169.73041899744106 L 220.075119946483,170.7722739506011 L 223.0808395390879,179.51044204763798 L 222.46564698158795,187.7688673996737 L 204.4754217255525,192.63164037090866 L 201.9404261180412,189.1505055685739 L 191.44198056675432,193.63572699178053 L 190.8314857128535,193.89317929574142 L 189.37031346383247,186.75394030027303 L 185.50382509799894,185.33589906656553 L 182.02218323426993,177.55533134489525 L 183.77684918628188,174.16169262294673 z" id="c13303"/>
		<path d="M 127.8634312198468,161.91377286452166 L 147.49115707184436,158.3541808860558 L 154.86180808308902,157.1833361053801 L 155.97251087285144,157.14014919677405 L 157.04179321600594,163.40126962276955 L 161.33497115878637,179.50731839026835 L 157.75822523258626,181.94741424833182 L 150.01943016462445,186.61083722694752 L 146.24170477148206,183.84173534841221 L 139.41561279335076,182.95518442521526 L 136.67583078697672,180.4583460987247 L 135.59307431112885,177.3581889693246 L 134.4939911647823,170.45891743304776 L 127.8634312198468,161.91377286452166 z" id="c13169"/>
		<path d="M 32.474704887144604,323.546272005893 L 33.86828341957125,320.4092975635193 L 33.94817987466723,319.2327592417271 L 34.02441574074507,318.10989950934754 L 33.71623387905408,314.543891676387 L 35.72832282589164,308.6422290945228 L 35.33855472783923,305.43957637556264 L 36.85113082571897,301.03083650460513 L 38.49063967277263,303.93641029988123 L 54.00675371592678,302.73687248643654 L 56.25518963429999,308.34546841955057 L 67.47406199666533,308.61871331025753 L 68.17813573784859,317.4193970901168 L 67.10552118383346,323.7359311443588 L 46.6347049363005,323.87956070301624 L 46.155201263181795,339.72489722291846 L 38.817154748106915,339.4233265086555 L 37.76029715621978,336.58685705904963 L 32.471819130025736,329.7806200514491 L 32.474704887144604,323.546272005893 z" id="c13099"/>
		<path d="M 89.27882249176322,100.2720267206013 L 89.26575280137665,99.21797525467042 L 89.26963139181541,96.32922644491275 L 89.34648232181368,89.65517620008981 L 94.41035716206946,90.56962351398707 L 97.28718524897565,95.16824139917304 L 99.70767711834186,97.88769740026764 L 101.94010381319964,99.13029171855725 L 108.91614165765566,106.14039964005283 L 112.68733778944345,108.27120300449984 L 106.04447510549812,120.2188046806152 L 101.10149417981049,117.49746242490443 L 96.66795086376781,118.82893977871554 L 95.11979914926064,117.4064926181604 L 94.07940811002779,117.38457936933473 L 89.09460203594942,117.3344308464263 L 89.27882249176322,100.2720267206013 z" id="c13089"/>
		<path d="M 279.5427435499995,329.750665216352 L 283.00027082833884,315.6731239583027 L 285.81530900360144,309.5148137194158 L 290.7244642674542,304.8653322253897 L 301.5393020903113,314.71965333171147 L 317.7608745168504,317.8975814267473 L 316.5036567485272,322.2798433869603 L 314.9463586994186,325.62162002586126 L 310.395888685775,331.76280158678094 L 307.90230396550004,332.79010701399505 L 308.07742255350854,337.3362421421275 L 306.76806456753724,342.2198728077195 L 307.41587039381466,344.4416195031435 L 295.27171263334867,335.5274375917624 L 295.95494361181255,332.6556396784371 L 290.8662955137951,334.69107771881073 L 280.7323626247371,329.5998002209518 L 279.5427435499995,329.750665216352 z" id="c13127"/>
		<path d="M 139.046038030186,15.665649219685164 L 143.7031595117092,15.899815215441057 L 147.45385948753702,22.7923253076439 L 154.83184059281936,22.114524111170937 L 160.69483112894844,24.685836415038803 L 161.39979921392788,27.33310057881616 L 159.62158139614723,28.300302365526182 L 152.9731131069563,45.13809797871136 L 147.40706984432148,44.259064339222036 L 141.86503137486662,49.477654864454706 L 138.1692227491087,43.28454942336145 L 141.71568074766762,39.97830011044061 L 138.3591948576092,29.778861400497135 L 141.14890637236266,23.50521454068578 L 136.95894531510004,17.587799737185176 L 139.046038030186,15.665649219685164 z" id="c13137"/>
		<path d="M 28.00565044054078,184.2149645858927 L 50.20965965809557,184.51643477214358 L 51.66581872459968,184.2034019323378 L 59.7188891920947,184.53702631509213 L 63.41357029710615,186.67944199030012 L 64.65401340722684,196.56411120588967 L 63.82969255173133,200.38945193230876 L 63.73438591557471,209.21365339798294 L 48.12746147183841,209.16481589126514 L 48.155923410547324,207.07545494994443 L 47.7829149109668,207.07103101920157 L 35.83823817517604,206.94012977796478 L 34.96407683889489,202.6201060671126 L 33.13972187443454,196.3380526401555 L 32.405012906953374,194.50038917794342 L 29.805135593894256,187.9895324202404 L 28.123573549545778,184.97865615379087 L 28.00565044054078,184.2149645858927 z" id="c13145"/>
		<path d="M 179.2131525089802,50.53370689588284 L 182.25616678931002,43.671419860438775 L 182.4213831328559,43.825211962701935 L 186.25048775886984,45.57797656836504 L 186.51505578641758,45.53187847704716 L 191.2045162551078,44.713086130497636 L 194.93428179184664,45.556568509662775 L 197.29490790344212,51.73001893201658 L 198.6730968250836,55.24824210912955 L 201.83772052420917,60.58203957255195 L 202.2551093632972,61.29704873032295 L 187.59482156618347,68.25362042802844 L 180.54423879457138,67.16158813004351 L 177.96047807012584,62.8720588437788 L 179.2131525089802,50.53370689588284 z" id="c13147"/>
		<path d="M 127.45426388295813,75.84540106215586 L 131.08028869022354,81.10948506244678 L 145.79750816247187,84.03646232746779 L 147.69157122260367,89.71750207704766 L 139.81991517862733,94.92386866938817 L 131.60605177047574,95.94256975974251 L 128.8512249316838,92.92709572510155 L 123.78759406655898,86.50555924065489 L 127.45426388295813,75.84540106215586 z" id="c13013"/>
		<path d="M 212.08909458296506,119.9254272292444 L 222.3250403479197,115.33844784801633 L 224.35690876776246,117.07483335823271 L 228.25950806818284,116.0507030730676 L 227.55430006736694,124.7185189319322 L 238.2043345575266,141.47604551011983 L 233.9641061247458,145.21069690152768 L 231.76271989785081,145.26698309530786 L 219.78591897032916,141.94351320374074 L 212.08909458296506,119.9254272292444 z" id="c13189"/>
		<path d="M 153.00431401986899,272.8109030166353 L 174.37733359420798,272.46722013554694 L 175.3340603580319,272.5914896890974 L 178.22437771851835,275.4523795308192 L 188.80561257536095,278.23766660184083 L 188.70902408792278,287.5578941760547 L 175.54796117837017,287.23710171339854 L 168.91485470925113,289.38426624222876 L 164.5171062805953,287.1377387685461 L 164.49013034913793,280.5713029736872 L 155.01294303955308,280.528605221549 L 154.60622587866493,277.4415554055383 L 153.00431401986899,272.8109030166353 z" id="c13017"/>
		<path d="M 263.6705507250229,275.90687134814004 L 274.8493548814294,256.6201587721207 L 280.3915838344846,260.1027851295862 L 279.4679705294439,268.65752912792647 L 288.8053469899584,277.8816326362624 L 300.02215689426345,283.31235275854607 L 294.7902601252777,294.08841428664323 L 287.67120858944446,297.5241561679164 L 286.28150553817454,297.28396625028586 L 284.725496119591,293.59022554026535 L 273.55857953381667,286.6777334686989 L 264.5905842513637,276.34268873984416 L 263.6705507250229,275.90687134814004 z" id="c13183"/>
	</g>
</svg>