<?xml version="1.0" encoding="UTF-8"?>
<svg baseProfile="full" fill="#d0d0d0" height="261.4074073553936" stroke="#ffffff" stroke-width="1" version="1.1" width="400.0" xmlns="http://www.w3.org/2000/svg" xmlns:ev="http://www.w3.org/2001/xml-events" xmlns:xlink="http://www.w3.org/1999/xlink">
	<defs/>
	<g id="counties"><path d="M 308.13866083273035,193.90898973648072 L 311.34569122069684,190.9871952724991 L 313.5316699241552,188.39616650221924 L 315.5612691902654,187.8779781123881 L 318.0413666111137,185.5088277728047 L 319.7398134006159,181.97156540082494 L 322.39000026604623,179.08097264165397 L 324.2103693389872,177.98343401622103 L 324.6731231178912,174.59777676642358 L 322.8138508467437,171.74146602668307 L 319.8100792047144,166.96948711066008 L 318.89259974800257,162.78094354102726 L 319.7605840331342,156.65058124572832 L 322.5183114131,155.3591807040677 L 326.5493675665367,156.7050386827719 L 331.14013831076045,159.13664024645266 L 333.5714532906666,161.55861855740264 L 338.53851526701794,164.55773686272582 L 341.4710116515208,166.77403051574902 L 344.3619140185826,166.20403589832114 L 348.5445353017806,167.54053428875037 L 357.0858627319889,171.16486798867575 L 365.8049782594172,175.21781860358405 L 373.54113661782674,181.15848632594034 L 376.68418887006345,184.3129637498383 L 379.55312506355824,187.57022718247845 L 379.2493205862294,193.76863126399326 L 379.5887318124045,197.55619318318227 L 382.67782101096105,196.6011358689407 L 385.5698749299862,196.61533338197998 L 387.48711586699216,200.40645799889998 L 388.03382189796133,204.90777248064137 L 390.0791408362248,207.1094952501602 L 397.14485916130195,211.4020718522524 L 400.0,212.86757941675117 L 399.9065865872922,215.1769229480428 L 395.45607198172075,220.5102494083452 L 390.4715569792269,224.58840523159773 L 384.82960262947466,228.60505085293767 L 377.95792830337183,231.85932789851125 L 374.5224961638488,233.63281525065776 L 371.0843293168708,234.24758672803083 L 366.70450541734715,233.24072204510642 L 363.090399961512,235.11255437607943 L 359.5969634348733,238.4130538262146 L 357.362527137198,239.03776070472992 L 352.71225295167505,242.92859984315473 L 348.86414855682,244.05545872251426 L 345.17066661786015,249.45045802167533 L 342.5646433882469,254.30254682558171 L 340.8476050435523,257.23411714147244 L 339.06476995472707,259.49197108657864 L 336.54375889915224,261.4074073553936 L 332.49191154325973,257.3567613020014 L 326.5054915419159,253.89770745516591 L 320.8745970448188,252.14697439838446 L 318.4191944756927,247.25969703815463 L 318.55207561874937,240.99249243058924 L 319.23245374065044,234.7740809998338 L 320.09074520242535,231.59814483623828 L 320.2327500489639,227.74763932145356 L 318.693181350346,222.47063192061145 L 317.51694879984404,219.46212422299948 L 315.5172209923353,216.90492282074518 L 314.16777990499645,211.47850438293463 L 313.4934131829928,207.39074291955873 L 312.03298626656306,204.68054965165044 L 309.71031969739136,204.11877935496668 L 309.3822280403405,202.6206721990308 L 307.0610348550304,197.8066674417055 L 308.13866083273035,193.90898973648072 z" id="c15001"/>
		<path d="M 34.53887453933768,12.621062364310731 L 37.406490342847036,10.119430088658804 L 38.5487476221918,6.810628783614664 L 40.40762761092745,5.327648769461081 L 47.333261694017786,2.1623180461331857 L 49.60176837067954,0.47159199682977665 L 52.31171998253206,0.664165374408423 L 54.707868331021416,2.1336910640881905 L 56.41276908838465,0.12786269683140447 L 60.50644746747674,0.9487332432688049 L 62.66020342978343,0.0 L 65.62586613063574,1.5058476367700009 L 69.17820830097686,4.001853804774394 L 70.5052105120683,8.742615364458086 L 68.57434355056562,13.538348017056418 L 67.36202962879898,15.06454837916313 L 67.44481792886505,18.388879575776325 L 67.00457464289343,22.161785598446045 L 63.46790713400083,25.139099517400034 L 59.04300375463106,28.49800198249425 L 53.05682564925911,27.190657799771877 L 49.58437319808555,26.42537090774174 L 47.477826045417814,26.429070126342662 L 44.13735087917823,23.09948142359154 L 39.93200212180656,20.86756327003269 L 36.51810998765849,19.500610742817283 L 34.24867149880145,16.2337338102882 L 34.53887453933768,12.621062364310731 z M 0.0,31.47593075037124 L 1.6477370992068194,25.704739749270992 L 4.272199159471556,23.152635637716937 L 8.486684259384909,21.18777966357759 L 9.59472607509665,20.093905552157217 L 10.348670580324345,17.56946839679343 L 13.3362170729045,17.00127165380785 L 14.318008503264938,17.569163176633676 L 14.834104262047308,18.783562375596656 L 13.401409597013405,20.09521010038573 L 12.202778084234835,22.946867236948695 L 12.640510020944825,25.40773226695193 L 9.294349789525803,26.84768559727261 L 6.948273553141812,27.49031335257366 L 5.540300898069123,29.10794345866331 L 4.398195811359479,31.00374047010085 L 3.1430989248814156,34.34652152590333 L 1.3637483608810892,33.50786910151986 L 0.0,31.47593075037124 z" id="c15007"/>
		<path d="M 236.81872248586404,82.65957874909793 L 239.04290016250494,81.76260643187389 L 240.599888653708,81.77087409098908 L 243.66208683026767,85.15136600442757 L 243.90089454750125,85.1554031220644 L 245.19183599246733,88.08838651578701 L 243.88037033331636,88.25458222026303 L 242.11504631896628,85.84594872023665 L 239.80083254926228,84.66078799667005 L 236.79027197689493,84.09738367099247 L 236.81872248586404,82.65957874909793 z" id="c15005"/>
		<path d="M 259.9211098114619,104.63759455056417 L 261.3195406800592,99.96409834707931 L 265.8324254894573,96.23839531054553 L 270.01326194162885,97.14760902960539 L 273.2605927604858,101.96550454543672 L 276.0377096619128,106.38787962364525 L 281.7617484545722,104.99836635885211 L 286.94748520984353,102.58854477981596 L 293.5949453792091,103.24780378976403 L 297.12839924173346,106.83252262698436 L 301.70593537562775,109.21700275029137 L 307.0900555464067,113.18177541770368 L 311.2406694317032,114.34071426904839 L 312.5930414789187,118.35588975919151 L 311.3945673036656,121.98043518933103 L 308.31325975760006,124.59180102585593 L 301.9708911153506,127.54403854326128 L 296.0415344405133,127.48416120743485 L 290.57781493449676,130.00854172683475 L 283.69943819291797,131.43819698561168 L 279.6941390792588,129.89945381163741 L 278.81706894134663,125.36490191436151 L 277.7197835387288,119.04497804101683 L 277.43761210507944,117.69136476146801 L 276.59966146336046,114.80794542815298 L 274.2063396621616,114.128171312842 L 271.8695434506316,115.78041506888702 L 270.6260524076191,115.17881066709407 L 264.9372453691523,112.42705443484003 L 260.81078894253864,106.98183420362065 L 259.9211098114619,104.63759455056417 z M 262.0869461078915,132.9083792601173 L 266.4952336331352,130.25395233332551 L 269.7117812834765,129.38053619215057 L 271.4920635601305,131.32135822717987 L 271.7455304787555,135.4333690334203 L 268.30611936387595,136.68423120538654 L 262.2094183724659,137.2321675495421 L 259.7395303232286,135.06000038811405 L 262.0869461078915,132.9083792601173 z M 233.4658777820067,105.1685319965175 L 237.08660541692598,103.8953896763687 L 242.422432414831,104.25696187892628 L 247.1618087048249,106.6618834129565 L 249.81640103610854,109.10274619397708 L 251.91864622622091,112.48888352361837 L 249.71429063162827,116.86161837035681 L 245.8809321737905,118.40245046783268 L 244.4953306043205,118.81755675951653 L 240.15889252467838,119.15926893888661 L 238.48516850000428,115.95665621242861 L 238.40796930954457,111.98284367718145 L 237.00695639633145,109.79539179219724 L 233.4211083931769,107.42352990377239 L 233.4658777820067,105.1685319965175 z M 217.47841229506875,85.91372330584294 L 219.50964364924133,83.88581662976502 L 218.71352304743198,80.64705818492939 L 223.01580156378986,81.16294886428165 L 228.4441954886069,82.57598141690414 L 234.92652592239773,83.42222679909582 L 236.81872248586404,82.65957874909793 L 236.79027197689493,84.09738367099247 L 239.80083254926228,84.66078799667005 L 242.11504631896628,85.84594872023665 L 243.88037033331636,88.25458222026303 L 245.19183599246733,88.08838651578701 L 243.90089454750125,85.1554031220644 L 249.50770626133294,85.24878207752421 L 256.8126948842552,84.60496331576795 L 259.24742373273824,85.98208132106917 L 257.02274563340393,89.68995798143928 L 252.39693813127099,93.15435987422788 L 246.8822539644934,94.54307414282161 L 241.23882211821797,93.21535319778185 L 235.9240888051297,91.41075469555305 L 231.91863227008764,90.38517156429617 L 225.22668492061888,91.24957114319102 L 219.27299024155556,91.46674578880211 L 214.9952433817348,90.35626608625036 L 217.47841229506875,85.91372330584294 z" id="c15009"/>
		<path d="M 147.5899152538252,52.0829391769528 L 155.40749654054326,51.92889396874358 L 158.78898557162466,48.71711113189634 L 160.9597745529971,45.35633654169616 L 165.26340372455815,42.50988613931689 L 167.00072627250145,42.155820933111265 L 170.1876348446608,47.005430518931725 L 173.60349213673166,52.98348569363074 L 176.53952016438424,56.55979391373914 L 175.87540608382133,61.50927924307743 L 178.17826287138018,63.599699871431646 L 181.81007277992657,61.976703221664614 L 184.89576435942914,62.16333316890516 L 184.73279176366512,66.5454614973939 L 185.71691702704715,70.06485147417648 L 190.01275193990557,73.58874056675052 L 189.7675118733443,73.94934205611803 L 188.43563767393013,75.90726697307949 L 186.43937697946876,77.4775349916012 L 182.25134849737103,76.35189758398106 L 180.57325637336365,77.3395287728324 L 178.38988589344058,77.91595875430515 L 175.35992717182666,75.79032927558995 L 172.51145325906057,74.0462511365318 L 168.05357561989055,73.53971207447626 L 165.79407003509823,73.25539098416738 L 162.63276113623144,73.74586532741512 L 157.93843913982454,74.527698184528 L 156.8357685288369,74.58826790458596 L 154.9544960435453,70.89244101165185 L 154.84291115502893,70.56698023205833 L 154.17308764285815,68.61283929152114 L 151.33958235061252,66.19454376860517 L 151.1059638269419,64.17152357356726 L 147.45495422859432,59.62503021486646 L 147.61762364260824,56.783784727088424 L 144.2502954072179,52.44226480432104 L 147.5899152538252,52.0829391769528 z" id="c15003"/>
	</g>
</svg>