<?xml version="1.0" encoding="UTF-8"?>
<svg baseProfile="full" fill="#d0d0d0" height="400.0" stroke="#ffffff" stroke-width="1" version="1.1" width="251.91595797908408" xmlns="http://www.w3.org/2000/svg" xmlns:ev="http://www.w3.org/2001/xml-events" xmlns:xlink="http://www.w3.org/1999/xlink">
	<defs/>
	<g id="counties"><path d="M 6.970286857111366,291.408545231324 L 8.709043279353132,288.2695103554788 L 9.826305554357308,290.85937521531207 L 13.817010789802094,293.5608712470588 L 19.59047216752679,293.0674769612798 L 27.7511128983648,293.50670896231844 L 28.834406668924903,303.33199781620976 L 28.319306880492732,313.17649279727937 L 26.688937423578345,313.0858858816488 L 26.253233760460905,322.5911102510637 L 23.533717245506153,321.5644465522221 L 21.941639885721564,317.876352036375 L 15.760855520595872,311.40639658021234 L 13.51931522113595,304.74351818200205 L 10.823995190568857,304.10033789330333 L 6.4102633776187785,299.4828843697803 L 6.970286857111366,291.408545231324 z" id="c16027"/>
		<path d="M 20.567322436621,57.510697522424586 L 35.96127288530601,58.46673004607745 L 40.913857947427914,57.941409786110675 L 40.56343488929941,63.6409361706828 L 47.21366978772777,63.99344518953507 L 45.77569251002952,90.81937998886185 L 35.94939279207481,90.23785948633514 L 34.18472102272173,92.58066867625445 L 18.427879336926132,91.93972340450811 L 19.692659268927706,71.14488893716727 L 20.567322436621,57.510697522424586 z" id="c16055"/>
		<path d="M 24.57326238619035,0.0 L 34.76930919463324,0.5937732234938187 L 47.35788183344282,1.319459234339914 L 61.00808368769534,2.005983712134743 L 59.575826041275754,30.101852379961663 L 32.036876682667284,28.65764470258218 L 33.21097458683993,9.120803429573124 L 24.000275823482717,8.586948560077014 L 24.57326238619035,0.0 z" id="c16021"/>
		<path d="M 17.61139779365658,105.38465976622426 L 20.3402623597185,106.23423259802387 L 25.153133314394967,111.20422709990223 L 39.68537520823252,111.80333394535535 L 44.595838216636615,112.89797346290457 L 44.33373736128846,117.81059239513286 L 43.413697934755824,135.08046350700755 L 38.50798647824086,134.7525765946362 L 32.4776278734756,134.29647021029862 L 28.026241679767583,139.03402043984482 L 15.563327832651899,138.35404442778955 L 17.61139779365658,105.38465976622426 z" id="c16057"/>
		<path d="M 16.805472982147897,232.85118269770194 L 18.264167440995315,229.6380041824157 L 17.439620974925464,226.7781190141557 L 18.288631997958422,223.8816946036948 L 20.736520849817754,221.42049842140494 L 20.762109642953693,221.38013552356006 L 22.01438749451419,219.40352170708223 L 24.79540462668457,211.61374889668076 L 25.04469642871479,210.81984577957087 L 38.87778695348778,211.63022601592576 L 40.73986613014934,219.5803298184637 L 46.32395720869312,221.05021019726397 L 48.40701666398197,223.6370820889958 L 43.54324038331724,234.65125591426244 L 42.74082846946963,239.31504233307044 L 44.67134774390297,243.8601187064425 L 43.30083523735411,250.4728207048542 L 44.135595056711544,255.29513084726582 L 41.9006707875495,254.5143688067446 L 38.22484531252342,258.0684707285038 L 33.878041864437165,257.8535438446754 L 29.129781253972112,254.9439138040046 L 29.49138898601595,247.98452688423606 L 25.82023152761879,245.0688901663332 L 26.327768356301505,235.17638188859698 L 15.747735071512944,234.48827049790802 L 16.805472982147897,232.85118269770194 z" id="c16003"/>
		<path d="M 183.42215018260126,288.8182526317695 L 183.47358581325486,283.9480801953786 L 205.34499409909597,284.0552480278847 L 205.32794455447765,288.9261071549292 L 212.61902389921528,288.9362998969356 L 212.63144570037758,291.386179521639 L 212.38140568252123,301.1570864894306 L 214.38557577734687,300.45669305544726 L 223.27113577141964,306.6586840769893 L 227.01325808280356,308.2445047356639 L 190.46867106682464,308.2932326717844 L 185.58780472182028,308.27172293922365 L 183.21992022214943,308.450713492953 L 183.42215018260126,288.8182526317695 z" id="c16051"/>
		<path d="M 236.1505369701825,291.5028408545491 L 244.75023173118092,290.89260120455157 L 250.40755273844462,287.9316116095426 L 250.49350025147535,292.15599135146505 L 250.67802529407726,304.56870227544505 L 250.85053754555528,315.08220774214226 L 244.17719141580795,312.75597716164486 L 242.64313614452274,308.3827694583723 L 236.2673478680077,308.44071120708713 L 236.1505369701825,291.5028408545491 z" id="c16081"/>
		<path d="M 15.269780724681695,145.77912938164488 L 15.282820311027654,144.87065981532962 L 15.320062454050012,142.29132118990725 L 15.563327832651899,138.35404442778955 L 28.026241679767583,139.03402043984482 L 32.4776278734756,134.29647021029862 L 38.50798647824086,134.7525765946362 L 38.25621697769504,142.55245784032843 L 41.48800834689156,142.1754930153702 L 41.39464087746941,144.0660081773573 L 41.036492905518806,151.03197236943262 L 36.26899114575962,151.77051932223725 L 27.538221001956977,151.28408182364655 L 26.93343798415338,169.84218466952922 L 24.590039810043,172.77376470439336 L 24.62136218907666,176.88886839676252 L 22.635622293770105,177.80447774553042 L 20.438301876268294,174.4997676799656 L 19.546749015935337,171.54564111773192 L 18.526031691406768,169.4058190022199 L 17.701633518642545,165.65043627729378 L 16.24275921203549,164.21090754598137 L 18.258829203211693,161.08166612279433 L 18.80570264468919,159.50570225606089 L 17.37791029707757,157.7944640754126 L 17.505573888992156,154.77319688080598 L 16.39282861343965,151.88731553311146 L 14.013484691483152,148.88836475886495 L 15.269780724681695,145.77912938164488 z" id="c16069"/>
		<path d="M 9.14389080735428,287.48356299767954 L 10.087672088190233,282.6029203347362 L 11.15506746504959,280.041129599383 L 9.714491521858148,276.79457245034024 L 13.158610823931573,273.19303416695453 L 31.223456016575387,274.2530510066417 L 30.951194341858827,279.0962617727182 L 27.723340015030708,278.89201751252364 L 25.837536709400105,283.6205868733003 L 20.137919679238813,283.26329361978543 L 19.59047216752679,293.0674769612798 L 13.817010789802094,293.5608712470588 L 9.826305554357308,290.85937521531207 L 8.709043279353132,288.2695103554788 L 9.14389080735428,287.48356299767954 z" id="c16075"/>
		<path d="M 22.635622293770105,177.80447774553042 L 24.62136218907666,176.88886839676252 L 24.590039810043,172.77376470439336 L 26.93343798415338,169.84218466952922 L 29.133738332791015,168.03436539698657 L 33.69325035984415,169.9757553936509 L 34.7034955469576,162.62923874789965 L 37.49605747914605,159.10097407335473 L 47.51072298190207,161.97416207820288 L 49.848046813538645,158.71218217454575 L 54.60387778302174,158.3579119178756 L 50.335534598515025,154.03211404499186 L 48.85893779420453,149.83628634178655 L 52.50298068066891,150.56059658734966 L 55.33956189993565,153.83010987729614 L 62.44093388776981,156.46612254835998 L 63.84734614162573,156.44054079207788 L 65.860874941493,151.14177097682332 L 69.91543018755488,147.10779464844146 L 70.1389685686284,145.11724768670447 L 110.89415184242863,136.51687549208972 L 112.57864659875302,137.02287678414896 L 116.23520551079619,136.86176249668446 L 119.85451053481745,135.8492383241664 L 120.80163713417936,136.65240701602744 L 121.37278864886481,137.13639368351662 L 120.85186358003698,141.02085719912358 L 119.95430011450708,144.92189472718363 L 117.94219019516632,145.39777235463868 L 118.51501558298222,150.31073263543416 L 117.00690787360435,151.659323690624 L 116.52342221970225,155.94846734185947 L 116.08838685006369,158.01801256917332 L 115.69726726774257,160.0739563047577 L 115.74708196508915,163.6362626638187 L 113.04628015956924,163.90734647115866 L 112.71744901071523,166.28937146435015 L 115.06978206637913,167.94645966801568 L 114.16941173283121,171.6837029873223 L 115.63381310549089,174.08556339746914 L 117.11894849270989,175.64709312348833 L 116.61126768711392,178.45094056101618 L 117.5452172017525,180.1191021257135 L 116.13693667672827,181.5987352309418 L 112.39939891537162,182.5834406098738 L 110.51921142820225,185.68717967558968 L 112.69494198239923,189.00612260880064 L 112.81404383326608,192.00422918668772 L 111.35699972629091,192.99957634680393 L 111.19075854017555,195.461747724725 L 111.72259652066688,196.68944107275766 L 105.98944067831975,202.9585793600319 L 100.90622391378416,200.69391888302638 L 100.79629910653493,204.74703313716398 L 108.05894782507704,212.89424329318487 L 104.3061148533774,218.33771009308091 L 53.278582556093006,216.44070148530315 L 53.30757192759754,215.09118370243888 L 48.9547071482623,218.62761379447528 L 47.370337465135535,218.22917915716764 L 46.32395720869312,221.05021019726397 L 40.73986613014934,219.5803298184637 L 38.87778695348778,211.63022601592576 L 25.04469642871479,210.81984577957087 L 25.83452819483839,208.30249376320793 L 29.66711668818563,201.25416199015982 L 33.42993596462863,194.47517172173022 L 35.13078715411359,191.79010114216268 L 32.77345744507852,187.95331592896062 L 32.64283942384432,184.9669423552148 L 30.52178017404284,182.34777626071346 L 27.6828837068613,181.99374705233868 L 25.03151720438701,179.34749017186792 L 23.059940462326328,178.4415639659031 L 22.635622293770105,177.80447774553042 z" id="c16049"/>
		<path d="M 206.6004696956288,383.8152517930414 L 212.54818808341562,383.7893906695537 L 216.19359685975036,385.42701598654395 L 217.0445271060424,376.4271522972282 L 222.95696318328305,375.5872685739467 L 228.57031685127305,376.41184774431514 L 230.55932881073377,380.0001822270002 L 227.5238896675343,388.1155516186163 L 228.69354274847316,394.21563675952507 L 231.9533928711194,395.5750891642811 L 232.56281012720805,399.7769380272697 L 222.3651433791173,399.86095100660566 L 207.31123364842273,399.99997334481895 L 207.31194564511566,390.30394758344573 L 208.91136666552373,386.45626372525095 L 206.6004696956288,383.8152517930414 z" id="c16041"/>
		<path d="M 38.47793508278215,274.63720492266765 L 40.877778942473896,274.74731998361534 L 44.977311650982664,275.14702664186876 L 45.59822214937324,270.17933307959026 L 69.18261838932018,271.2868451782055 L 74.04786982883367,270.11395562309497 L 76.01410859672336,265.3233654873029 L 78.53983936667115,265.7880563113881 L 83.12338455083581,268.37956749984426 L 83.38652113688607,273.6699224068116 L 89.10491379698018,276.5433759253866 L 88.12922320083688,281.9570682037565 L 90.06141254000418,288.1724770468735 L 86.92340180796151,288.53970755694246 L 84.21614445465075,286.0432021023209 L 82.57764458419142,279.97085162980136 L 80.62322557252759,279.4345483465756 L 81.91917461488785,281.1608336225654 L 77.97506084255093,288.5375232137514 L 68.84943510198211,291.0365916774565 L 67.05676713612714,296.16163169595654 L 65.22442364110051,295.7692072888792 L 63.72148956092526,299.65578132882143 L 60.63589731585703,303.0715681682296 L 56.49990879905576,304.40234688844697 L 53.15846004040659,306.92469774103665 L 49.07598475520459,306.72998727070467 L 48.38663492815936,306.4925408348925 L 37.869861552457685,294.7781984075456 L 37.14803410427959,293.97638084510555 L 38.47793508278215,274.63720492266765 z" id="c16015"/>
		<path d="M 26.688937423578345,313.0858858816488 L 28.319306880492732,313.17649279727937 L 28.834406668924903,303.33199781620976 L 27.7511128983648,293.50670896231844 L 37.14803410427959,293.97638084510555 L 37.869861552457685,294.7781984075456 L 48.38663492815936,306.4925408348925 L 49.07598475520459,306.72998727070467 L 48.526522374480344,319.4767224799077 L 47.725286873594285,333.63130478209536 L 35.863646519466045,333.1363231547325 L 31.15615989096446,328.3140131682694 L 29.823822799733453,322.6046702164922 L 26.253233760460905,322.5911102510637 L 26.688937423578345,313.0858858816488 z" id="c16001"/>
		<path d="M 139.71026803252929,308.0035488209149 L 152.41334117004752,299.94790038631095 L 154.09803230281597,297.23420830815985 L 156.22287533088132,298.39232663670623 L 152.49218514229815,293.99700684625253 L 152.49968112104025,283.5461953648967 L 154.18586149663912,283.58289596829553 L 154.324450862797,273.7866886891555 L 158.20627049117525,273.85476140823323 L 171.3814222053948,273.9596130181557 L 171.26436231344238,288.694643273375 L 183.42215018260126,288.8182526317695 L 183.21992022214943,308.450713492953 L 183.11763994569395,313.12684662900836 L 178.30945916600552,313.32363352907373 L 178.25387232839418,318.2081082076709 L 173.32786876041197,318.1536245819438 L 172.82375808847874,327.411937690654 L 170.34428687245838,327.3903085745569 L 155.7623538428975,327.21828908865143 L 155.83078597540322,322.5759878823765 L 144.608086025036,322.37508199347053 L 144.77406024919418,315.0628298047107 L 142.12628588087185,310.11216430608494 L 138.1287702181031,310.8995174800821 L 139.71026803252929,308.0035488209149 z" id="c16023"/>
		<path d="M 41.39731191227931,265.0109877001086 L 43.847309631605015,265.1229334918399 L 44.135595056711544,255.29513084726582 L 43.30083523735411,250.4728207048542 L 44.67134774390297,243.8601187064425 L 42.74082846946963,239.31504233307044 L 43.54324038331724,234.65125591426244 L 48.40701666398197,223.6370820889958 L 46.32395720869312,221.05021019726397 L 47.370337465135535,218.22917915716764 L 48.9547071482623,218.62761379447528 L 53.30757192759754,215.09118370243888 L 53.278582556093006,216.44070148530315 L 104.3061148533774,218.33771009308091 L 102.70042856078912,220.88096998662712 L 102.59572241614866,235.5288103798153 L 98.87752670036032,240.0776572159326 L 92.9493944964407,244.80333257418718 L 87.59114192777557,242.0366453994803 L 85.10538654023547,244.09597029032437 L 84.29274111594616,248.63081122075874 L 79.66370400237855,250.52578285032303 L 78.95930149416148,254.9413798308966 L 80.84036472687406,255.71238249867474 L 81.39920692168359,261.15640102730816 L 78.53983936667115,265.7880563113881 L 76.01410859672336,265.3233654873029 L 74.04786982883367,270.11395562309497 L 69.18261838932018,271.2868451782055 L 45.59822214937324,270.17933307959026 L 44.977311650982664,275.14702664186876 L 40.877778942473896,274.74731998361534 L 41.39731191227931,265.0109877001086 z" id="c16085"/>
		<path d="M 18.427879336926132,91.93972340450811 L 34.18472102272173,92.58066867625445 L 35.94939279207481,90.23785948633514 L 45.77569251002952,90.81937998886185 L 44.595838216636615,112.89797346290457 L 39.68537520823252,111.80333394535535 L 25.153133314394967,111.20422709990223 L 20.3402623597185,106.23423259802387 L 17.61139779365658,105.38465976622426 L 17.707944258423616,103.83824607686161 L 18.063788264114837,97.95147533582283 L 18.427879336926132,91.93972340450811 z" id="c16009"/>
		<path d="M 89.75288163306455,290.15220689383375 L 90.82958744263179,288.8419917753395 L 94.91592096710717,285.89930962648316 L 97.33385388561129,285.97828338552256 L 97.21949333718986,289.64680233296446 L 102.61482410891615,289.81929138637474 L 107.31261934176763,294.65409116910945 L 109.62313339137452,291.6375125388235 L 115.62956373564501,293.2057362978907 L 118.36059453803541,292.54676802160174 L 118.97055603766513,295.7169328993753 L 127.2278696951755,301.3488112298694 L 128.92165838164976,299.2098324180794 L 131.09501936790306,302.9283317058217 L 135.07621092826636,306.2609356649145 L 138.1287702181031,310.8995174800821 L 142.12628588087185,310.11216430608494 L 144.77406024919418,315.0628298047107 L 144.608086025036,322.37508199347053 L 155.83078597540322,322.5759878823765 L 155.7623538428975,327.21828908865143 L 170.34428687245838,327.3903085745569 L 170.22976698748786,337.17437342703755 L 160.50814953089994,337.0624360378627 L 160.52785048745355,356.69231688461616 L 162.9358104524304,356.713982601872 L 162.88732805768836,361.60428744960666 L 160.42917302247167,364.3998577492328 L 157.629410453978,364.1665996709119 L 154.8210469139429,360.8129550423557 L 150.69240850626886,361.7809013747728 L 150.84992121581666,351.6594134537722 L 153.29378155768373,351.6982337257231 L 153.5567797483995,331.9608942603645 L 141.1723279699971,331.7583384438224 L 113.9830624761455,331.15606145951944 L 113.36452859901983,323.99625551149194 L 107.62770707883557,323.4487288759747 L 107.29628413723381,317.69001529812624 L 108.94070746497229,315.14162600850125 L 105.43758928315289,312.24012647069554 L 105.84953708599721,310.6978071003866 L 101.98950483923414,308.8072201690122 L 102.90078815911187,300.5183178786205 L 101.05653113723632,296.14029891205377 L 95.63314057693442,295.8723732763106 L 89.94774426653422,293.3060437499702 L 89.75288163306455,290.15220689383375 z" id="c16013"/>
		<path d="M 116.5619900137658,375.27969723852334 L 125.5805814166621,375.505029421809 L 125.79039241606696,370.0296441734191 L 128.58126680505399,369.4199850940093 L 131.44674316627032,368.9814389308808 L 137.39031143986637,367.92595214371966 L 141.11760071105823,370.0733460053414 L 143.00334271452746,369.15191905170184 L 147.15007463690503,362.43103567595637 L 150.69240850626886,361.7809013747728 L 154.8210469139429,360.8129550423557 L 157.629410453978,364.1665996709119 L 160.42917302247167,364.3998577492328 L 162.95230645815948,366.44527367102324 L 170.14054887074238,366.60583650668065 L 170.11413109987882,381.27069512558916 L 169.9301216022549,399.7951526516767 L 169.89734371663036,399.79509304819226 L 159.47227956599838,399.79209241290664 L 149.08553359112787,399.80887652226056 L 135.58811021100323,399.8398635270672 L 126.20073346715594,399.3571763329663 L 116.12334810245824,399.094499675781 L 116.5619900137658,375.27969723852334 z" id="c16031"/>
		<path d="M 20.813543770263717,53.68152285602957 L 21.101462861709816,49.20879583496395 L 22.38690193634985,32.45267366136791 L 23.28897221696178,19.270761762342126 L 24.000275823482717,8.586948560077014 L 33.21097458683993,9.120803429573124 L 32.036876682667284,28.65764470258218 L 59.575826041275754,30.101852379961663 L 59.51636220523654,31.273005808943804 L 59.03429183272412,40.926139635483565 L 58.76772489788115,46.20408823154051 L 58.50870829771707,51.34001149935481 L 58.144186094873675,58.37935144640241 L 58.50103748980968,59.2604901664685 L 51.39665225115616,54.136562557002314 L 49.51389855200731,54.57310955566389 L 47.59884294238134,56.82308191645484 L 47.21366978772777,63.99344518953507 L 40.56343488929941,63.6409361706828 L 40.913857947427914,57.941409786110675 L 35.96127288530601,58.46673004607745 L 20.567322436621,57.510697522424586 L 20.813543770263717,53.68152285602957 z" id="c16017"/>
		<path d="M 35.863646519466045,333.1363231547325 L 47.725286873594285,333.63130478209536 L 48.526522374480344,319.4767224799077 L 49.07598475520459,306.72998727070467 L 53.15846004040659,306.92469774103665 L 56.49990879905576,304.40234688844697 L 60.63589731585703,303.0715681682296 L 63.72148956092526,299.65578132882143 L 65.22442364110051,295.7692072888792 L 67.05676713612714,296.16163169595654 L 68.84943510198211,291.0365916774565 L 77.97506084255093,288.5375232137514 L 81.91917461488785,281.1608336225654 L 80.62322557252759,279.4345483465756 L 82.57764458419142,279.97085162980136 L 84.21614445465075,286.0432021023209 L 86.92340180796151,288.53970755694246 L 90.06141254000418,288.1724770468735 L 90.82958744263179,288.8419917753395 L 89.75288163306455,290.15220689383375 L 89.94774426653422,293.3060437499702 L 87.56456598675865,299.5911847303985 L 87.6645025498249,306.7488929741697 L 85.62284615075525,307.48010901313654 L 84.69524896356961,330.34709872031834 L 84.11082857916833,346.3030032948222 L 86.13597036040983,346.5246707581948 L 85.86383604777714,354.5985506742412 L 68.59034560081783,353.9944993612169 L 69.47450820797887,344.82988083518757 L 62.031685382477455,343.1464796825241 L 55.84468702454092,343.84687627427155 L 55.086738800248924,341.9147723485181 L 49.21558334504058,339.9988942957599 L 47.85674937532608,343.21233166264795 L 40.56421247213467,338.9402624630715 L 38.35047025957235,336.8308278875454 L 38.85682259803094,334.96271173734607 L 35.863646519466045,333.1363231547325 z" id="c16039"/>
		<path d="M 205.34499409909597,284.0552480278847 L 210.28182016061947,284.0747157041459 L 210.30044409390857,279.1948481393969 L 215.16697977908365,279.1672172998333 L 217.41753837436653,276.7152526228639 L 217.61549013201795,269.43946673744136 L 220.07009403051146,269.4277407241441 L 220.04494731951826,264.66603400992364 L 227.0747423723879,264.64640146048606 L 227.02908797637642,255.87163665201348 L 229.21517699236261,255.9641900714795 L 230.96130248046043,254.39096306613504 L 232.93825133423996,248.94636289182665 L 233.40765360632594,248.02429617849427 L 234.12409353125938,246.61579882758556 L 236.26429271826365,244.64895019380464 L 236.5820011748914,244.8672376857895 L 238.74254898106477,246.35009357163662 L 240.9815638696309,249.49007247662607 L 242.8020558635074,251.99621288922583 L 243.74654237865576,254.67114398043327 L 246.10454442433712,256.8925226606823 L 246.97645882919062,259.2503361328828 L 249.96037643515203,260.3137089622175 L 250.02957129661377,265.89511651852035 L 250.25706871180563,280.5358376350254 L 250.40755273844462,287.9316116095426 L 244.75023173118092,290.89260120455157 L 236.1505369701825,291.5028408545491 L 231.97948018860703,291.1834922198869 L 229.65525665718417,293.7852347811848 L 218.30824326134734,291.3811140343222 L 212.63144570037758,291.386179521639 L 212.61902389921528,288.9362998969356 L 205.32794455447765,288.9261071549292 L 205.34499409909597,284.0552480278847 z" id="c16043"/>
		<path d="M 84.69524896356961,330.34709872031834 L 104.93683974046881,330.9783282960879 L 104.38062053896962,350.53371877473654 L 103.41332012892923,351.1331993710146 L 103.13542814491373,361.8535403817709 L 95.03238364430054,360.75767337837874 L 93.29976139432877,355.5826286298943 L 90.17677396230452,354.8263167302431 L 91.67159041477191,349.68167605540845 L 89.3459581378576,346.460327433425 L 86.13597036040983,346.5246707581948 L 84.11082857916833,346.3030032948222 L 84.69524896356961,330.34709872031834 z" id="c16047"/>
		<path d="M 20.137919679238813,283.26329361978543 L 25.837536709400105,283.6205868733003 L 27.723340015030708,278.89201751252364 L 30.951194341858827,279.0962617727182 L 31.223456016575387,274.2530510066417 L 35.0153820164375,274.46613534875866 L 35.955949004725305,264.86567491949216 L 38.22484531252342,258.0684707285038 L 41.9006707875495,254.5143688067446 L 44.135595056711544,255.29513084726582 L 43.847309631605015,265.1229334918399 L 41.39731191227931,265.0109877001086 L 40.877778942473896,274.74731998361534 L 38.47793508278215,274.63720492266765 L 37.14803410427959,293.97638084510555 L 27.7511128983648,293.50670896231844 L 19.59047216752679,293.0674769612798 L 20.137919679238813,283.26329361978543 z" id="c16045"/>
		<path d="M 47.59884294238134,56.82308191645484 L 49.51389855200731,54.57310955566389 L 51.39665225115616,54.136562557002314 L 58.50103748980968,59.2604901664685 L 58.76460365624252,59.91086049158315 L 61.23366049049997,64.27926390083373 L 63.318360685225116,67.49007459958736 L 65.34553078094237,69.17333904409551 L 65.58454076728307,72.23316350587032 L 69.65548208571393,76.05154543364036 L 69.07139135620054,78.38976584345389 L 70.58864495264203,80.22576425702886 L 69.44185369567116,82.83341132977345 L 69.48876206193903,85.29771525941479 L 72.50092726755946,88.30804359130963 L 70.21463076980402,89.58887394534202 L 69.44834367891143,91.78035598970483 L 74.35754513393306,94.86511386947629 L 76.01348180854966,97.92108564343621 L 78.28023177141604,99.66824345711952 L 82.03344165648939,100.93410396053446 L 83.73423526868687,101.52821703962482 L 84.96426791880637,104.1753426710407 L 86.27982886061392,106.20952957674658 L 88.73180782318221,108.76980678205048 L 91.21708705621725,112.8010280486469 L 93.04634104906651,115.07753722738036 L 94.46730997989067,117.97957612772181 L 97.09672495541291,120.25414729560664 L 71.07041369708435,119.18723282854997 L 44.33373736128846,117.81059239513286 L 44.595838216636615,112.89797346290457 L 45.77569251002952,90.81937998886185 L 47.21366978772777,63.99344518953507 L 47.59884294238134,56.82308191645484 z" id="c16079"/>
		<path d="M 85.86383604777714,354.5985506742412 L 86.13597036040983,346.5246707581948 L 89.3459581378576,346.460327433425 L 91.67159041477191,349.68167605540845 L 90.17677396230452,354.8263167302431 L 93.29976139432877,355.5826286298943 L 95.03238364430054,360.75767337837874 L 103.13542814491373,361.8535403817709 L 109.32362248110583,364.8223708227743 L 118.45674382442114,367.33532916076365 L 123.13042963249497,371.0696350828273 L 126.70825208222422,369.24799041014455 L 128.58126680505399,369.4199850940093 L 125.79039241606696,370.0296441734191 L 125.5805814166621,375.505029421809 L 116.5619900137658,375.27969723852334 L 116.12334810245824,399.094499675781 L 116.1210170730114,399.0944356421979 L 102.83880864704294,398.7249203400968 L 90.21495423396944,398.0399604818771 L 84.3819327097594,397.9207575518319 L 85.86383604777714,354.5985506742412 z" id="c16083"/>
		<path d="M 38.50798647824086,134.7525765946362 L 43.413697934755824,135.08046350700755 L 44.33373736128846,117.81059239513286 L 71.07041369708435,119.18723282854997 L 97.09672495541291,120.25414729560664 L 98.37080591835041,121.35418537395095 L 97.6670754123412,123.93504150179648 L 99.97898286100742,127.18343410790828 L 103.41757256428325,129.16422163199033 L 104.22758862607415,131.4405520312801 L 106.86936974560287,131.44814515719136 L 107.71299898300717,131.94782164765442 L 109.62072632508416,133.07627658223535 L 109.72644067777296,136.16546503768473 L 110.89415184242863,136.51687549208972 L 70.1389685686284,145.11724768670447 L 69.91543018755488,147.10779464844146 L 65.860874941493,151.14177097682332 L 63.84734614162573,156.44054079207788 L 62.44093388776981,156.46612254835998 L 55.33956189993565,153.83010987729614 L 52.50298068066891,150.56059658734966 L 48.85893779420453,149.83628634178655 L 48.40720223521978,148.01877929722139 L 43.589145715912174,147.226774947461 L 41.39464087746941,144.0660081773573 L 41.48800834689156,142.1754930153702 L 38.25621697769504,142.55245784032843 L 38.50798647824086,134.7525765946362 z" id="c16035"/>
		<path d="M 0.0,258.9408612332106 L 1.2544190070617818,256.9735046261624 L 0.9985996856054529,254.0061332201894 L 3.518455369849235,251.67269544809002 L 4.611652686768091,249.82935053050656 L 6.865300779759716,244.61110735104873 L 8.433979725873707,240.4606924323349 L 10.479112425951168,238.90543046626505 L 13.868752768814566,237.39208277362988 L 15.747735071512944,234.48827049790802 L 26.327768356301505,235.17638188859698 L 25.82023152761879,245.0688901663332 L 29.49138898601595,247.98452688423606 L 29.129781253972112,254.9439138040046 L 33.878041864437165,257.8535438446754 L 38.22484531252342,258.0684707285038 L 35.955949004725305,264.86567491949216 L 35.0153820164375,274.46613534875866 L 31.223456016575387,274.2530510066417 L 13.158610823931573,273.19303416695453 L 13.241864513558612,273.1058442782147 L 13.047207269521477,271.67281449241807 L 10.553444563147949,270.6998145805735 L 10.428924404849804,268.34531899655843 L 6.896945807322251,268.0477623971012 L 4.5377177492253225,265.6266505724314 L 2.479209050871718,266.55783167718414 L 0.6948710296954249,264.7831010611668 L 0.9242878301803743,264.3398442066983 L 1.835846237845889,262.5775096519471 L 0.9470344426510326,260.7407819909068 L 0.0,258.9408612332106 z" id="c16087"/>
		<path d="M 131.72139092356718,356.0498617720605 L 138.67998771340172,356.2176960417376 L 140.83382930644953,351.45978923631253 L 141.1723279699971,331.7583384438224 L 153.5567797483995,331.9608942603645 L 153.29378155768373,351.6982337257231 L 150.84992121581666,351.6594134537722 L 150.69240850626886,361.7809013747728 L 147.15007463690503,362.43103567595637 L 143.00334271452746,369.15191905170184 L 141.11760071105823,370.0733460053414 L 137.39031143986637,367.92595214371966 L 131.44674316627032,368.9814389308808 L 131.72139092356718,356.0498617720605 z" id="c16067"/>
		<path d="M 180.77071121018844,346.23572116481034 L 183.77949389740076,342.3042665724066 L 209.1891502957753,342.33032040964923 L 208.40741663118501,346.3798457459054 L 205.6058307288145,349.46935338328274 L 206.82848336603493,353.1016168663772 L 205.97226674446438,356.92403417898123 L 207.43257078850274,360.51878277531586 L 213.0932315934159,359.4501186117929 L 215.28947083812616,365.11554035195496 L 217.0445271060424,376.4271522972282 L 216.19359685975036,385.42701598654395 L 212.54818808341562,383.7893906695537 L 206.6004696956288,383.8152517930414 L 203.90804347469194,380.12348943673703 L 198.20986485069173,381.63684006939627 L 199.4317679809559,374.2861204785235 L 194.3679627567667,371.5431512910345 L 196.060274148766,363.4872226610195 L 191.20868271543605,358.59019920254093 L 190.47787308262573,348.62815017173386 L 188.70527655468877,345.7347794777616 L 180.88259365898935,348.419813421668 L 180.77071121018844,346.23572116481034 z" id="c16005"/>
		<path d="M 205.6058307288145,349.46935338328274 L 208.40741663118501,346.3798457459054 L 209.1891502957753,342.33032040964923 L 228.74382252518566,342.38117290199625 L 251.268162363126,342.1895069125439 L 251.31336457410737,345.28241948034173 L 251.5111189342068,358.89175121314673 L 251.58516906879368,370.63829051635196 L 246.38114040754706,372.9946982733865 L 243.72619339939288,372.73618566933783 L 243.3886237845837,365.7537308027897 L 241.82604369570998,368.56181346536687 L 238.11673055134324,366.4919730240539 L 227.74187651034597,366.98295868414885 L 228.57031685127305,376.41184774431514 L 222.95696318328305,375.5872685739467 L 217.0445271060424,376.4271522972282 L 215.28947083812616,365.11554035195496 L 213.0932315934159,359.4501186117929 L 207.43257078850274,360.51878277531586 L 205.97226674446438,356.92403417898123 L 206.82848336603493,353.1016168663772 L 205.6058307288145,349.46935338328274 z" id="c16029"/>
		<path d="M 85.62284615075525,307.48010901313654 L 87.6645025498249,306.7488929741697 L 87.56456598675865,299.5911847303985 L 89.94774426653422,293.3060437499702 L 95.63314057693442,295.8723732763106 L 101.05653113723632,296.14029891205377 L 102.90078815911187,300.5183178786205 L 101.98950483923414,308.8072201690122 L 105.84953708599721,310.6978071003866 L 105.43758928315289,312.24012647069554 L 108.94070746497229,315.14162600850125 L 107.29628413723381,317.69001529812624 L 107.62770707883557,323.4487288759747 L 113.36452859901983,323.99625551149194 L 113.9830624761455,331.15606145951944 L 104.93683974046881,330.9783282960879 L 84.69524896356961,330.34709872031834 L 85.62284615075525,307.48010901313654 z" id="c16025"/>
		<path d="M 6.08185750463658,304.22339160441106 L 6.4102633776187785,299.4828843697803 L 10.823995190568857,304.10033789330333 L 13.51931522113595,304.74351818200205 L 15.760855520595872,311.40639658021234 L 21.941639885721564,317.876352036375 L 23.533717245506153,321.5644465522221 L 26.253233760460905,322.5911102510637 L 29.823822799733453,322.6046702164922 L 31.15615989096446,328.3140131682694 L 35.863646519466045,333.1363231547325 L 38.85682259803094,334.96271173734607 L 38.35047025957235,336.8308278875454 L 40.56421247213467,338.9402624630715 L 47.85674937532608,343.21233166264795 L 49.21558334504058,339.9988942957599 L 55.086738800248924,341.9147723485181 L 55.84468702454092,343.84687627427155 L 62.031685382477455,343.1464796825241 L 69.47450820797887,344.82988083518757 L 68.59034560081783,353.9944993612169 L 85.86383604777714,354.5985506742412 L 84.3819327097594,397.9207575518319 L 72.80031676680748,397.6559908564234 L 59.70345684136021,397.07627327669576 L 49.447026754452395,396.6833460403218 L 30.027244385573383,395.7604254502031 L 17.71788223590231,395.13388636640946 L 1.2556754599129325,394.09796751001284 L 0.920195709670188,394.07606599688495 L 2.1224882896830004,372.7597167385695 L 3.5241394812448212,348.61734796114126 L 4.217077416861519,336.36249431580626 L 6.08185750463658,304.22339160441106 z" id="c16073"/>
		<path d="M 212.63144570037758,291.386179521639 L 218.30824326134734,291.3811140343222 L 229.65525665718417,293.7852347811848 L 231.97948018860703,291.1834922198869 L 236.1505369701825,291.5028408545491 L 236.2673478680077,308.44071120708713 L 229.47115929044315,308.49323732340554 L 227.01325808280356,308.2445047356639 L 223.27113577141964,306.6586840769893 L 214.38557577734687,300.45669305544726 L 212.38140568252123,301.1570864894306 L 212.63144570037758,291.386179521639 z" id="c16065"/>
		<path d="M 103.41332012892923,351.1331993710146 L 104.38062053896962,350.53371877473654 L 113.86384398843796,350.8004978937219 L 114.61916034152128,353.170575522491 L 126.87614758917455,353.50037355054445 L 126.81690377659079,355.9449291347714 L 131.72139092356718,356.0498617720605 L 131.44674316627032,368.9814389308808 L 128.58126680505399,369.4199850940093 L 126.70825208222422,369.24799041014455 L 123.13042963249497,371.0696350828273 L 118.45674382442114,367.33532916076365 L 109.32362248110583,364.8223708227743 L 103.13542814491373,361.8535403817709 L 103.41332012892923,351.1331993710146 z" id="c16053"/>
		<path d="M 98.87752670036032,240.0776572159326 L 102.59572241614866,235.5288103798153 L 102.70042856078912,220.88096998662712 L 104.3061148533774,218.33771009308091 L 108.05894782507704,212.89424329318487 L 100.79629910653493,204.74703313716398 L 100.90622391378416,200.69391888302638 L 105.98944067831975,202.9585793600319 L 111.72259652066688,196.68944107275766 L 112.36885946348549,198.17974292510695 L 114.30526020801204,199.09400800311045 L 117.71728164847558,202.07823897995442 L 121.23568115284023,202.85450289294403 L 122.40381891709559,199.6625245118405 L 125.00113949979757,199.29362165472088 L 129.16738988390867,196.1025330085312 L 131.92673502402457,193.34991138444917 L 131.95544187550468,190.97780823203675 L 133.69992750118317,190.76361923012092 L 134.59432444719178,191.8009594341184 L 136.49867695582265,194.0064665896897 L 137.95440926956536,195.19276318536686 L 140.0896878534283,196.44903902525442 L 140.1523303142559,200.8994497463039 L 141.80136929478473,203.32218754041318 L 141.608130756793,206.30375296277506 L 142.78948303265565,208.7305568873029 L 142.59648399627275,212.094543893843 L 145.89991055525164,217.25727948368524 L 148.79473133352147,223.2957049603891 L 151.3127673617744,224.9440787156429 L 153.6229427106361,227.2710830625422 L 154.14510468539103,230.22337624586936 L 153.64892675466146,233.22394632533297 L 152.586188067905,235.61140867574855 L 154.61491907088592,239.48676479420592 L 156.41973100473498,239.94982964259236 L 159.4217220644588,242.01310650451606 L 161.61783863246742,240.6936246683542 L 166.21778912721894,244.02914239949988 L 167.39403332526945,247.204892136447 L 169.42547495212236,251.68659241615904 L 168.92212714376583,254.61166621654127 L 171.07054615056614,257.95003232187463 L 171.04278745956717,260.58030018206466 L 173.25829424756236,263.69963803037183 L 176.03953781425216,265.7734371875087 L 178.26893489935878,264.3910727303503 L 178.71725056190087,274.241966878475 L 171.3814222053948,273.9596130181557 L 158.20627049117525,273.85476140823323 L 157.50386532161795,269.1632472538646 L 153.09106429662293,261.2917650552062 L 151.0428248725468,263.10997773833475 L 138.44326902755455,258.8312005711412 L 130.4130950166101,249.70731130343165 L 127.96548600419831,243.8464037489525 L 123.11976051199619,244.400295428585 L 123.7939800498376,239.12693656592444 L 122.65845156737556,236.78063717733434 L 115.13233899309616,244.44249296616414 L 116.34314365228708,246.15612677401398 L 113.01710445772778,251.5842922214071 L 108.32755480476013,253.47841062557637 L 104.62232389888926,248.49739232218954 L 101.66002596984232,247.96618123481002 L 98.4601360131914,243.46333229371626 L 98.87752670036032,240.0776572159326 z" id="c16059"/>
		<path d="M 104.93683974046881,330.9783282960879 L 113.9830624761455,331.15606145951944 L 141.1723279699971,331.7583384438224 L 140.83382930644953,351.45978923631253 L 138.67998771340172,356.2176960417376 L 131.72139092356718,356.0498617720605 L 126.81690377659079,355.9449291347714 L 126.87614758917455,353.50037355054445 L 114.61916034152128,353.170575522491 L 113.86384398843796,350.8004978937219 L 104.38062053896962,350.53371877473654 L 104.93683974046881,330.9783282960879 z" id="c16063"/>
		<path d="M 27.538221001956977,151.28408182364655 L 36.26899114575962,151.77051932223725 L 41.036492905518806,151.03197236943262 L 41.39464087746941,144.0660081773573 L 43.589145715912174,147.226774947461 L 48.40720223521978,148.01877929722139 L 48.85893779420453,149.83628634178655 L 50.335534598515025,154.03211404499186 L 54.60387778302174,158.3579119178756 L 49.848046813538645,158.71218217454575 L 47.51072298190207,161.97416207820288 L 37.49605747914605,159.10097407335473 L 34.7034955469576,162.62923874789965 L 33.69325035984415,169.9757553936509 L 29.133738332791015,168.03436539698657 L 26.93343798415338,169.84218466952922 L 27.538221001956977,151.28408182364655 z" id="c16061"/>
		<path d="M 81.39920692168359,261.15640102730816 L 80.84036472687406,255.71238249867474 L 78.95930149416148,254.9413798308966 L 79.66370400237855,250.52578285032303 L 84.29274111594616,248.63081122075874 L 85.10538654023547,244.09597029032437 L 87.59114192777557,242.0366453994803 L 92.9493944964407,244.80333257418718 L 98.87752670036032,240.0776572159326 L 98.4601360131914,243.46333229371626 L 101.66002596984232,247.96618123481002 L 104.62232389888926,248.49739232218954 L 108.32755480476013,253.47841062557637 L 113.01710445772778,251.5842922214071 L 116.34314365228708,246.15612677401398 L 115.13233899309616,244.44249296616414 L 122.65845156737556,236.78063717733434 L 123.7939800498376,239.12693656592444 L 123.11976051199619,244.400295428585 L 127.96548600419831,243.8464037489525 L 130.4130950166101,249.70731130343165 L 138.44326902755455,258.8312005711412 L 151.0428248725468,263.10997773833475 L 153.09106429662293,261.2917650552062 L 157.50386532161795,269.1632472538646 L 158.20627049117525,273.85476140823323 L 154.324450862797,273.7866886891555 L 154.18586149663912,283.58289596829553 L 152.49968112104025,283.5461953648967 L 152.49218514229815,293.99700684625253 L 156.22287533088132,298.39232663670623 L 154.09803230281597,297.23420830815985 L 152.41334117004752,299.94790038631095 L 139.71026803252929,308.0035488209149 L 138.1287702181031,310.8995174800821 L 135.07621092826636,306.2609356649145 L 131.09501936790306,302.9283317058217 L 128.92165838164976,299.2098324180794 L 127.2278696951755,301.3488112298694 L 118.97055603766513,295.7169328993753 L 118.36059453803541,292.54676802160174 L 115.62956373564501,293.2057362978907 L 109.62313339137452,291.6375125388235 L 107.31261934176763,294.65409116910945 L 102.61482410891615,289.81929138637474 L 97.21949333718986,289.64680233296446 L 97.33385388561129,285.97828338552256 L 94.91592096710717,285.89930962648316 L 90.82958744263179,288.8419917753395 L 90.06141254000418,288.1724770468735 L 88.12922320083688,281.9570682037565 L 89.10491379698018,276.5433759253866 L 83.38652113688607,273.6699224068116 L 83.12338455083581,268.37956749984426 L 78.53983936667115,265.7880563113881 L 81.39920692168359,261.15640102730816 z" id="c16037"/>
		<path d="M 160.50814953089994,337.0624360378627 L 170.22976698748786,337.17437342703755 L 170.08814325919906,351.1249773605364 L 178.0031770878255,351.18490690062106 L 180.77071121018844,346.23572116481034 L 180.88259365898935,348.419813421668 L 188.70527655468877,345.7347794777616 L 190.47787308262573,348.62815017173386 L 191.20868271543605,358.59019920254093 L 196.060274148766,363.4872226610195 L 194.3679627567667,371.5431512910345 L 191.10698262050914,371.5359062116278 L 191.0999610197029,376.43002419501363 L 184.589388613147,376.38903345979827 L 184.55960033995922,381.30148712539716 L 170.11413109987882,381.27069512558916 L 170.14054887074238,366.60583650668065 L 162.95230645815948,366.44527367102324 L 160.42917302247167,364.3998577492328 L 162.88732805768836,361.60428744960666 L 162.9358104524304,356.713982601872 L 160.52785048745355,356.69231688461616 L 160.50814953089994,337.0624360378627 z" id="c16077"/>
		<path d="M 170.22976698748786,337.17437342703755 L 170.34428687245838,327.3903085745569 L 172.82375808847874,327.411937690654 L 173.32786876041197,318.1536245819438 L 178.25387232839418,318.2081082076709 L 178.30945916600552,313.32363352907373 L 183.11763994569395,313.12684662900836 L 183.21992022214943,308.450713492953 L 185.58780472182028,308.27172293922365 L 190.46867106682464,308.2932326717844 L 190.4138477801464,319.63183244759534 L 207.5088986743118,319.6679306937714 L 209.9561349543558,320.50460258880474 L 209.95362170894836,322.94925622557037 L 219.04262839632847,322.96169803833305 L 219.06127555575065,327.6752831299728 L 228.70152157703873,327.64710461271613 L 228.74382252518566,342.38117290199625 L 209.1891502957753,342.33032040964923 L 183.77949389740076,342.3042665724066 L 180.77071121018844,346.23572116481034 L 178.0031770878255,351.18490690062106 L 170.08814325919906,351.1249773605364 L 170.22976698748786,337.17437342703755 z" id="c16011"/>
		<path d="M 170.11413109987882,381.27069512558916 L 184.55960033995922,381.30148712539716 L 184.589388613147,376.38903345979827 L 191.0999610197029,376.43002419501363 L 191.10698262050914,371.5359062116278 L 194.3679627567667,371.5431512910345 L 199.4317679809559,374.2861204785235 L 198.20986485069173,381.63684006939627 L 203.90804347469194,380.12348943673703 L 206.6004696956288,383.8152517930414 L 208.91136666552373,386.45626372525095 L 207.31194564511566,390.30394758344573 L 207.31123364842273,399.99997334481895 L 207.3075003809512,400.0 L 205.2237100841777,399.93979452889835 L 200.7848958509559,399.8075121496955 L 184.70623933477896,399.7915801175388 L 169.9301216022549,399.7951526516767 L 170.11413109987882,381.27069512558916 z" id="c16071"/>
		<path d="M 190.46867106682464,308.2932326717844 L 227.01325808280356,308.2445047356639 L 229.47115929044315,308.49323732340554 L 236.2673478680077,308.44071120708713 L 242.64313614452274,308.3827694583723 L 244.17719141580795,312.75597716164486 L 250.85053754555528,315.08220774214226 L 251.02139857374308,325.512925079201 L 251.22457116576774,339.20912841137846 L 251.268162363126,342.1895069125439 L 228.74382252518566,342.38117290199625 L 228.70152157703873,327.64710461271613 L 219.06127555575065,327.6752831299728 L 219.04262839632847,322.96169803833305 L 209.95362170894836,322.94925622557037 L 209.9561349543558,320.50460258880474 L 207.5088986743118,319.6679306937714 L 190.4138477801464,319.63183244759534 L 190.46867106682464,308.2932326717844 z" id="c16019"/>
		<path d="M 171.3814222053948,273.9596130181557 L 178.71725056190087,274.241966878475 L 178.26893489935878,264.3910727303503 L 178.46892451957657,264.26693687656774 L 178.23084261983323,262.29260736506774 L 182.0079238639119,259.129713698419 L 183.10802823613523,258.91965066561534 L 187.37293854058024,259.62111988986146 L 192.55487139707415,260.2631919125963 L 196.0087389182592,262.0739883977784 L 197.16756632887612,257.5289737553009 L 200.09962276206005,255.30390023988565 L 202.69384688897782,256.7113877325234 L 206.58320086847448,257.5556704839368 L 210.2456066976116,257.03448065053897 L 216.82847340691617,255.5356957039018 L 219.36035082675548,258.47073769070255 L 223.52189773661297,255.72010254135924 L 227.02908797637642,255.87163665201348 L 227.0747423723879,264.64640146048606 L 220.04494731951826,264.66603400992364 L 220.07009403051146,269.4277407241441 L 217.61549013201795,269.43946673744136 L 217.41753837436653,276.7152526228639 L 215.16697977908365,279.1672172998333 L 210.30044409390857,279.1948481393969 L 210.28182016061947,284.0747157041459 L 205.34499409909597,284.0552480278847 L 183.47358581325486,283.9480801953786 L 183.42215018260126,288.8182526317695 L 171.26436231344238,288.694643273375 L 171.3814222053948,273.9596130181557 z" id="c16033"/>
		<path d="M 227.5238896675343,388.1155516186163 L 230.55932881073377,380.0001822270002 L 228.57031685127305,376.41184774431514 L 227.74187651034597,366.98295868414885 L 238.11673055134324,366.4919730240539 L 241.82604369570998,368.56181346536687 L 243.3886237845837,365.7537308027897 L 243.72619339939288,372.73618566933783 L 246.38114040754706,372.9946982733865 L 251.58516906879368,370.63829051635196 L 251.64270785772794,379.8958749609726 L 251.91595797908408,399.47002186268725 L 238.1732101123936,399.661445731081 L 234.09192099492986,399.7618454382454 L 232.56309719164156,399.7769352549642 L 232.56281012720805,399.7769380272697 L 231.9533928711194,395.5750891642811 L 228.69354274847316,394.21563675952507 L 227.5238896675343,388.1155516186163 z" id="c16007"/>
	</g>
</svg>