<?xml version="1.0" encoding="UTF-8"?>
<svg baseProfile="full" fill="#d0d0d0" height="400.0" stroke="#ffffff" stroke-width="1" version="1.1" width="225.73890368109141" xmlns="http://www.w3.org/2000/svg" xmlns:ev="http://www.w3.org/2001/xml-events" xmlns:xlink="http://www.w3.org/1999/xlink">
	<defs/>
	<g id="counties"><path d="M 84.61744071109189,98.90477353972081 L 90.98367949002625,98.88004022800793 L 90.98410186523175,94.1457554006446 L 91.53804577467454,92.7289926850238 L 103.49486716926738,92.71606865016166 L 103.54173596836104,98.8890201948891 L 103.54534362117549,99.41169716929211 L 103.60785616516738,111.53899192349013 L 84.59341233507585,111.55913619121007 L 84.61744071109189,98.90477353972081 z" id="c17175"/>
		<path d="M 175.57154676039536,354.72967593037055 L 177.71566899068915,354.6913600328868 L 188.98011401524641,354.4912223475354 L 191.74771464622415,356.2027803630561 L 191.78643087069534,356.33111154789367 L 195.27562999007486,359.4483451952169 L 195.66060767411153,361.22606540498805 L 195.9149220135479,362.3998845072479 L 190.4859851017175,364.03072197940804 L 183.32410738004722,365.21637663981164 L 178.9643863774554,368.75522880582906 L 175.6118260190678,367.62948556197034 L 175.57154676039536,354.72967593037055 z" id="c17069"/>
		<path d="M 168.7765719986161,136.49569567391535 L 181.15408521549335,136.1772605561961 L 179.87682912208209,108.96138936776126 L 186.19602464929417,108.58539742422775 L 187.76181752134593,143.35561785139416 L 187.8268471601034,145.46256983336167 L 197.91703745815224,145.35769635713672 L 198.23689780703472,151.6137898011571 L 175.3052882250273,152.21095519781335 L 169.0559556689563,152.30429444515377 L 168.7765719986161,136.49569567391535 z" id="c17053"/>
		<path d="M 100.72851493252149,279.28598660293227 L 107.07089789809577,279.18314240704086 L 106.90589296074286,272.870995233647 L 126.34235666903785,272.80178778737906 L 132.90575321897663,273.1435784262244 L 132.78369253649925,290.0159963402825 L 120.97453036319412,288.9931705399458 L 113.59269137166972,292.6892110792533 L 108.43666671555995,291.6950529446522 L 100.96885656858501,296.58722097105493 L 100.72851493252149,279.28598660293227 z" id="c17027"/>
		<path d="M 131.29377166288452,330.0132506787658 L 134.60579035923672,322.0465407170155 L 133.89967941794671,317.36726539338537 L 158.1803083276127,317.0093326592737 L 158.3130712054917,332.80557549255434 L 158.3542733262556,335.93995913793964 L 132.8762664828371,336.3832738205373 L 132.83486952284113,330.36740039908636 L 131.29377166288452,330.0132506787658 z" id="c17055"/>
		<path d="M 40.7895013835768,104.62994030506536 L 59.72174871647717,105.07064936916132 L 59.37241280802154,130.32903445344354 L 59.28148458022515,136.63963557704827 L 40.32257847517803,135.95556678785584 L 40.7895013835768,104.62994030506536 z" id="c17187"/>
		<path d="M 169.16066325960668,196.23275707560387 L 169.75627869919938,195.57317921603985 L 169.65281739959875,189.90891485316706 L 175.95160947203522,189.7587686591342 L 198.88932765702336,189.21372602063423 L 197.30962656179295,195.58360566541432 L 197.63427481829504,203.27611668752303 L 192.25940726568763,205.8166247049248 L 169.41437314337736,206.37731007476492 L 169.16066325960668,196.23275707560387 z" id="c17041"/>
		<path d="M 59.72174871647717,105.07064936916132 L 59.83840904776369,98.74242852901527 L 84.61744071109189,98.90477353972081 L 84.59341233507585,111.55913619121007 L 84.60043004364135,130.524349173686 L 59.37241280802154,130.32903445344354 L 59.72174871647717,105.07064936916132 z" id="c17095"/>
		<path d="M 0.9172634633701147,163.5244273121368 L 1.1656513310029284,161.992709046951 L 2.5091070465123106,158.2146973111124 L 5.3479448017548465,154.21398308412643 L 7.94130236605244,152.74177706555957 L 7.60756439570435,148.90198681908333 L 8.329963924029332,144.68825707038965 L 6.885436237564716,142.92705756366456 L 8.049377086924716,139.46637738022898 L 9.983996522243093,137.25670820863218 L 15.071202045263348,135.51996119101238 L 18.42509760578813,135.63911180230622 L 18.509520535051443,135.58113216962448 L 34.01049672857918,135.65707132920744 L 33.48912826479277,161.32307687318612 L 33.31101542190466,167.92734509420674 L 0.34846666964435485,167.0289033067513 L 0.9172634633701147,163.5244273121368 z" id="c17067"/>
		<path d="M 127.50864010588555,187.79276936751185 L 131.65207403549488,187.69947671178016 L 131.4701488780742,178.2088416657886 L 153.67904966278937,177.44547952990607 L 153.95380253065701,196.47498052199427 L 150.2692519749306,200.27001538417088 L 150.48387633768647,206.58075094361735 L 138.4550742894789,206.67851970617366 L 132.1110000409086,206.68655814141547 L 131.83123906546803,196.11687779006772 L 127.60879338664189,195.26685374936966 L 127.50864010588555,187.79276936751185 z" id="c17115"/>
		<path d="M 75.37984873565706,216.76697652849842 L 88.1379954390205,216.61961187567184 L 100.70701799804772,216.4826877607557 L 101.07710781235782,254.40690968965023 L 75.82530856215043,254.45126105188695 L 75.70082192126036,235.45488696057075 L 75.37984873565706,216.76697652849842 z" id="c17117"/>
		<path d="M 152.81475224117753,0.975171671644207 L 163.54986589641473,0.6839127553551125 L 174.37937329166996,0.4065048254863504 L 179.08086248096888,0.27802257970481015 L 180.01932712479154,0.2685366870204766 L 180.19582528793575,6.071000602536981 L 180.338677989871,12.346169576443646 L 180.50608139996777,18.66072396213277 L 180.4929750162824,18.66399555178069 L 180.58011471302092,24.983352197020917 L 178.48727714470252,25.031912400434216 L 177.45150189022635,25.06794191884263 L 172.24293765637327,25.18678326512225 L 170.12434105938044,25.238522306772833 L 159.62988269881185,25.466979577824553 L 153.33352673795753,25.582910515384622 L 152.81256474444916,0.9751858073833718 L 152.81475224117753,0.975171671644207 z" id="c17111"/>
		<path d="M 202.3987405888447,263.6622110075311 L 223.484952320851,262.9247982160854 L 224.30721647987576,264.77733908604904 L 225.73890368109141,269.71708203055937 L 223.26601179903355,275.59215595714613 L 219.11349225583805,278.4692211498645 L 218.21479396165802,282.1844218745065 L 217.65612890697648,283.7839304050809 L 202.66133087862985,283.9219650252546 L 202.3987405888447,263.6622110075311 z" id="c17101"/>
		<path d="M 33.17391067826135,174.33847450118515 L 45.26396931367907,174.4772132399325 L 50.14665748829653,183.33510554144317 L 55.3452790177869,182.9071695106724 L 55.401868221067666,184.54269490661247 L 51.424528876894506,190.9302402032121 L 52.08708844591962,193.66688432294504 L 34.35648654076228,193.40747053187326 L 32.838259708086404,193.11102451343427 L 33.17391067826135,174.33847450118515 z" id="c17009"/>
		<path d="M 84.2496462856082,189.15410126411734 L 96.80381913995,189.0833228384423 L 100.54809450494983,188.02088261600534 L 100.72667634646014,183.7864590297442 L 107.40310239473277,183.6877255181971 L 112.65997022354814,183.6064173416811 L 117.08393689473417,187.8060314482954 L 127.50864010588555,187.79276936751185 L 127.60879338664189,195.26685374936966 L 125.97847205010432,194.38542372923817 L 122.8572117294749,198.05343920701105 L 116.0414335253011,200.14999144954783 L 116.10673888394732,204.7778239693777 L 113.09567055597597,204.78242114621966 L 113.14473530877558,207.90146548523896 L 109.98176495962494,207.90329580018377 L 109.99814824002816,209.9946212235313 L 110.11789878737666,216.33299792439138 L 100.70701799804772,216.4826877607557 L 88.1379954390205,216.61961187567184 L 84.31984011729462,197.58351606148096 L 84.25932696891222,191.25656713208554 L 84.2496462856082,189.15410126411734 z" id="c17167"/>
		<path d="M 146.16091958841278,376.66311206103643 L 147.49734707107984,374.266389875157 L 158.71643986868247,374.0082238723127 L 171.6701738112,386.6412962634197 L 171.78299605553997,393.258155333696 L 169.39794815316125,393.35508882584037 L 167.66986351045446,392.1688180408735 L 164.71623814726922,390.13884367186245 L 159.90426251681203,388.1607638800975 L 156.46934000442633,387.2332913580149 L 151.68193576683913,384.28053843987317 L 146.28341968797247,382.1937495587955 L 146.16091958841278,376.66311206103643 z" id="c17127"/>
		<path d="M 158.54941299234784,355.0460502196285 L 158.3542733262556,335.93995913793964 L 158.3130712054917,332.80557549255434 L 177.34085460473008,332.4099710005142 L 177.71566899068915,354.6913600328868 L 175.57154676039536,354.72967593037055 L 158.5496578271782,355.06181481626396 L 158.54941299234784,355.0460502196285 z" id="c17165"/>
		<path d="M 69.62330159161561,288.326898959992 L 69.98673728662351,287.3238441845703 L 73.64553790700568,282.4948845331633 L 73.83901345508914,279.0235629969765 L 73.82433141817684,278.9863608385247 L 81.95019071347576,279.09893736633626 L 100.72851493252149,279.28598660293227 L 100.96885656858501,296.58722097105493 L 101.09634709656692,310.7883912784634 L 89.92608138129592,310.73477831879427 L 89.7864308610567,305.90487936958993 L 82.09751808634319,304.3746154793188 L 75.86788160062135,295.86514228673116 L 69.29274034256838,289.23886606287795 L 69.62330159161561,288.326898959992 z" id="c17163"/>
		<path d="M 102.16812541585604,341.37093608755885 L 103.46332224559103,338.99925451362105 L 107.38591937789201,329.84960490563594 L 131.29377166288452,330.0132506787658 L 132.83486952284113,330.36740039908636 L 132.8762664828371,336.3832738205373 L 132.94115189505317,355.31361889932384 L 115.70512956098933,355.4827109905323 L 113.15789642584211,357.67839318112004 L 113.36531712925762,356.94437244036203 L 112.62243347900092,353.70030671416725 L 111.70207984097405,348.5416768839149 L 107.70582227898264,346.60625639159844 L 103.28634418681916,344.03664016332453 L 102.16812541585604,341.37093608755885 z" id="c17077"/>
		<path d="M 157.90922833790623,266.2935461346135 L 157.89858243645648,259.9040632770941 L 164.336780924395,259.74068511354056 L 176.65297646291023,259.8397535004158 L 176.73626070513035,264.0873289560678 L 182.57881243177528,264.3010403803496 L 182.799839032818,272.7188211813782 L 180.99217931399144,280.32890428938526 L 183.21407446589888,282.23571916565015 L 164.44238870138096,282.02815607011416 L 157.97822143360108,282.2257656016234 L 157.90922833790623,266.2935461346135 z" id="c17025"/>
		<path d="M 91.1905771883182,67.43951116637766 L 103.73194302605593,67.31022090568136 L 128.9899461610838,67.06099338570797 L 129.3757797662327,86.96502615238808 L 120.04234356356423,87.73738477605723 L 118.89708206497674,92.65708570936832 L 112.90689075460077,92.64884789268814 L 112.9723502065672,98.82399954746384 L 103.54173596836104,98.8890201948891 L 103.49486716926738,92.71606865016166 L 91.53804577467454,92.7289926850238 L 91.1905771883182,67.43951116637766 z" id="c17011"/>
		<path d="M 150.2692519749306,200.27001538417088 L 153.95380253065701,196.47498052199427 L 169.16066325960668,196.23275707560387 L 169.41437314337736,206.37731007476492 L 169.78105315039176,221.17234728175274 L 163.399777241092,221.24923315007004 L 160.10222715432465,215.99672258162522 L 155.8773301265754,216.04837648911652 L 155.77805512715312,211.84428359416208 L 150.64887316150262,211.85872302103706 L 150.48387633768647,206.58075094361735 L 150.2692519749306,200.27001538417088 z" id="c17139"/>
		<path d="M 169.41437314337736,206.37731007476492 L 192.25940726568763,205.8166247049248 L 197.63427481829504,203.27611668752303 L 198.34254495168764,218.07373542392185 L 195.3293712969073,218.1842195852468 L 195.60757711164374,225.54770953547916 L 169.86143857984064,226.4190225262223 L 169.78105315039176,221.17234728175274 L 169.41437314337736,206.37731007476492 z" id="c17029"/>
		<path d="M 151.254559414028,238.18388452900936 L 170.07347485123333,237.95567282886287 L 170.13474085717974,241.10696705801422 L 176.34072361086308,241.0121041016397 L 176.65297646291023,259.8397535004158 L 164.336780924395,259.74068511354056 L 157.89858243645648,259.9040632770941 L 151.50152542782496,260.22278178774496 L 151.254559414028,238.18388452900936 z" id="c17049"/>
		<path d="M 49.432243290285356,244.04736158932963 L 50.7642200474281,239.97911990823025 L 49.56576428961667,225.73904013191012 L 49.77152369646924,221.2531407078005 L 51.444052706554544,216.61140059691172 L 67.08600902550326,216.75924698470845 L 75.37984873565706,216.76697652849842 L 75.70082192126036,235.45488696057075 L 66.37339630415737,238.11134130948497 L 66.40350997557475,241.78850680860702 L 51.358661754930466,240.97489073353637 L 50.0415743822022,245.8367299688999 L 49.432243290285356,244.04736158932963 z" id="c17061"/>
		<path d="M 107.88356851694667,124.5399534981889 L 112.76253867558019,115.27367540245122 L 129.8980494353382,114.68157642759003 L 136.06096023486495,114.70342749166458 L 142.44262378072222,114.4734478348558 L 142.73384254177736,127.09015859248349 L 139.56767093454746,127.20902057302193 L 139.77231894563351,133.52671753518507 L 136.52095120783133,136.2846640008396 L 131.6199369303184,138.56565714097076 L 124.14123363739782,138.82244908209003 L 120.93089696114428,137.3167310510202 L 120.6879631009304,127.71822659615526 L 108.31365746560124,127.86517277326526 L 107.88356851694667,124.5399534981889 z" id="c17203"/>
		<path d="M 127.66514308198806,374.5273876150287 L 139.43491335565955,374.8039092475046 L 139.47186651216884,377.39133364088644 L 146.16091958841278,376.66311206103643 L 146.28341968797247,382.1937495587955 L 146.059350759538,382.10698718953415 L 145.9569566369575,382.11423167148376 L 142.05966835953632,382.38853011843844 L 138.78998741808047,385.00475918151824 L 136.45642189896301,388.4882579395784 L 132.51073075374947,393.35809835514794 L 132.59731511357572,393.50959927282685 L 127.060844490744,391.1331217946119 L 127.66514308198806,374.5273876150287 z" id="c17153"/>
		<path d="M 84.18828558865401,174.18131629292432 L 85.57196791694606,171.765466252897 L 97.84043391214067,172.838011329646 L 103.98864145348365,170.77839763602663 L 106.03373787905123,173.11640152663563 L 107.30091890533288,175.2758168141496 L 107.40310239473277,183.6877255181971 L 100.72667634646014,183.7864590297442 L 100.54809450494983,188.02088261600534 L 96.80381913995,189.0833228384423 L 84.2496462856082,189.15410126411734 L 84.18828558865401,174.18131629292432 z" id="c17129"/>
		<path d="M 112.93074941798754,358.48197154124864 L 113.15789642584211,357.67839318112004 L 115.70512956098933,355.4827109905323 L 132.94115189505317,355.31361889932384 L 139.40057664702172,355.5048371897904 L 139.43491335565955,374.8039092475046 L 127.66514308198806,374.5273876150287 L 114.62469933737985,374.69622406141224 L 117.28276408523764,373.1099917781831 L 117.38322228397995,369.3986589943981 L 114.7410472524996,365.1522181878019 L 112.33468741374463,360.58942150432125 L 112.93074941798754,358.48197154124864 z" id="c17181"/>
		<path d="M 58.94632060789746,162.05356738119372 L 59.28148458022515,136.63963557704827 L 59.37241280802154,130.32903445344354 L 84.60043004364135,130.524349173686 L 84.45365258847845,136.75627125601824 L 90.80832306269218,136.86291656908145 L 90.90248561440443,144.92127929297018 L 90.20204432215124,146.41728485256638 L 88.03463480983797,150.51547005583976 L 81.77967959384769,154.93288160604408 L 77.30266778592004,165.04920571912385 L 72.82881824282617,168.77159597744486 L 58.832373180773665,168.38546126103432 L 58.94632060789746,162.05356738119372 z" id="c17057"/>
		<path d="M 197.30962656179295,195.58360566541432 L 198.88932765702336,189.21372602063423 L 216.8608340737684,188.60413763777223 L 220.100048976678,189.4370404196039 L 221.4678498491199,188.36752952921327 L 221.91847732833946,204.14963682740847 L 222.05847289671394,208.3137009866509 L 222.37466762551585,217.73170528090716 L 213.61039328992948,217.2382828642783 L 198.34254495168764,218.07373542392185 L 197.63427481829504,203.27611668752303 L 197.30962656179295,195.58360566541432 z" id="c17045"/>
		<path d="M 198.01569132912167,164.21054655975783 L 198.23689780703472,151.6137898011571 L 197.91703745815224,145.35769635713672 L 220.46952375667308,144.3509727860006 L 220.49011722642405,145.38903404220108 L 220.81312432688702,161.76159417851798 L 220.9801255587393,169.1892677632177 L 221.2011639067543,179.06378655815027 L 221.4678498491199,188.36752952921327 L 220.100048976678,189.4370404196039 L 216.8608340737684,188.60413763777223 L 198.88932765702336,189.21372602063423 L 198.01569132912167,164.21054655975783 z" id="c17183"/>
		<path d="M 176.65297646291023,259.8397535004158 L 176.34072361086308,241.0121041016397 L 196.20606135722636,240.3746118937897 L 199.43529468886652,240.22742222742576 L 200.26018053279606,263.7117081524833 L 182.57881243177528,264.3010403803496 L 176.73626070513035,264.0873289560678 L 176.65297646291023,259.8397535004158 z" id="c17079"/>
		<path d="M 140.33331461961757,1.0386822339059785 L 149.1123205516459,0.9975889868220562 L 152.81256474444916,0.9751858073833718 L 153.33352673795753,25.582910515384622 L 140.7263656597961,25.869509030944823 L 140.33331461961757,1.0386822339059785 z" id="c17007"/>
		<path d="M 105.87115689862695,158.81119840437128 L 124.65222388811353,158.27834938567415 L 124.74537965394724,161.4916024142644 L 131.05360146855844,161.30735521304703 L 131.05444528350915,161.3422198554604 L 131.4701488780742,178.2088416657886 L 131.65207403549488,187.69947671178016 L 127.50864010588555,187.79276936751185 L 117.08393689473417,187.8060314482954 L 112.65997022354814,183.6064173416811 L 107.40310239473277,183.6877255181971 L 107.30091890533288,175.2758168141496 L 106.03373787905123,173.11640152663563 L 105.87115689862695,158.81119840437128 z" id="c17107"/>
		<path d="M 132.78369253649925,290.0159963402825 L 132.90575321897663,273.1435784262244 L 132.84872881563,266.787574355629 L 157.90922833790623,266.2935461346135 L 157.97822143360108,282.2257656016234 L 158.1011578570913,291.71157835452556 L 132.77748785898868,292.1289301165098 L 132.78369253649925,290.0159963402825 z" id="c17121"/>
		<path d="M 198.74279874208318,306.48612417167374 L 200.94326568473878,304.1682380753402 L 199.3106529913189,297.95929907166635 L 201.1680369229147,291.8529621971788 L 200.2540009802583,283.97137547509897 L 202.66133087862985,283.9219650252546 L 217.65612890697648,283.7839304050809 L 217.00370623770365,285.65037675199596 L 217.43442390991854,287.7510221072537 L 214.0928986322241,290.15985475044147 L 212.64252847654524,293.40522168388253 L 212.10156010694894,294.63017980143974 L 210.5474085988134,298.1455193320623 L 207.70402514576432,302.8216293263843 L 203.40835599788002,305.7263981781937 L 200.0162803082612,308.06551544617105 L 198.74279874208318,306.48612417167374 z" id="c17185"/>
		<path d="M 103.54534362117549,99.41169716929211 L 103.54173596836104,98.8890201948891 L 112.9723502065672,98.82399954746384 L 120.45619032602889,98.80081251815518 L 118.89059385711327,102.00537613631464 L 129.62817394243993,101.882196078862 L 135.91264977912607,101.74931692813897 L 136.06096023486495,114.70342749166458 L 129.8980494353382,114.68157642759003 L 112.76253867558019,115.27367540245122 L 114.08363710368376,111.49759960048335 L 103.60785616516738,111.53899192349013 L 103.54534362117549,99.41169716929211 z" id="c17123"/>
		<path d="M 189.28910146583874,284.31023070408037 L 200.2540009802583,283.97137547509897 L 201.1680369229147,291.8529621971788 L 199.3106529913189,297.95929907166635 L 200.94326568473878,304.1682380753402 L 198.74279874208318,306.48612417167374 L 196.63244308788353,306.8225095348101 L 189.60863597965326,306.94443732124444 L 189.28910146583874,284.31023070408037 z" id="c17047"/>
		<path d="M 142.2880616363636,101.5825447406296 L 161.14644660268223,101.10457640429951 L 179.45637412180804,100.3083190209431 L 179.87682912208209,108.96138936776126 L 181.15408521549335,136.1772605561961 L 168.7765719986161,136.49569567391535 L 162.4358418859714,136.67211702798488 L 161.71338946972782,126.47611434511359 L 142.73384254177736,127.09015859248349 L 142.44262378072222,114.4734478348558 L 142.2880616363636,101.5825447406296 z" id="c17105"/>
		<path d="M 104.42324536038781,254.37776623992826 L 107.3965262032368,252.24765119919442 L 126.35408175272708,252.10214008532887 L 125.97726250253507,254.20472859527797 L 126.07278209120811,260.11835462631745 L 126.34235666903785,272.80178778737906 L 106.90589296074286,272.870995233647 L 106.71830253497453,263.3760433647958 L 104.53243310786607,260.219612924372 L 104.58226275486786,260.21845586377543 L 104.42324536038781,254.37776623992826 z" id="c17005"/>
		<path d="M 125.97726250253507,254.20472859527797 L 126.35408175272708,252.10214008532887 L 126.20439803130793,238.40835343769737 L 132.4523600952774,238.32247191560674 L 151.254559414028,238.18388452900936 L 151.50152542782496,260.22278178774496 L 157.89858243645648,259.9040632770941 L 157.90922833790623,266.2935461346135 L 132.84872881563,266.787574355629 L 132.90575321897663,273.1435784262244 L 126.34235666903785,272.80178778737906 L 126.07278209120811,260.11835462631745 L 125.97726250253507,254.20472859527797 z" id="c17051"/>
		<path d="M 169.23497153506952,170.87590636711744 L 169.19356232354514,160.7633462729812 L 169.0559556689563,152.30429444515377 L 175.3052882250273,152.21095519781335 L 198.23689780703472,151.6137898011571 L 198.01569132912167,164.21054655975783 L 198.88932765702336,189.21372602063423 L 175.95160947203522,189.7587686591342 L 169.65281739959875,189.90891485316706 L 169.23497153506952,170.87590636711744 z" id="c17019"/>
		<path d="M 64.22581747665407,173.07203674809244 L 72.46677098766803,170.79864768809963 L 72.82881824282617,168.77159597744486 L 77.30266778592004,165.04920571912385 L 81.77967959384769,154.93288160604408 L 88.03463480983797,150.51547005583976 L 99.50919778528889,150.48979939556216 L 99.67256439098657,158.91264678156935 L 105.87115689862695,158.81119840437128 L 106.03373787905123,173.11640152663563 L 103.98864145348365,170.77839763602663 L 97.84043391214067,172.838011329646 L 85.57196791694606,171.765466252897 L 84.18828558865401,174.18131629292432 L 73.10150107107873,178.1789161732395 L 68.0693752696826,178.05910516582864 L 64.22581747665407,173.07203674809244 z" id="c17125"/>
		<path d="M 68.60274097109904,254.46713674235957 L 75.82530856215043,254.45126105188695 L 101.07710781235782,254.40690968965023 L 104.42324536038781,254.37776623992826 L 104.58226275486786,260.21845586377543 L 104.53243310786607,260.219612924372 L 106.71830253497453,263.3760433647958 L 106.90589296074286,272.870995233647 L 107.07089789809577,279.18314240704086 L 100.72851493252149,279.28598660293227 L 81.95019071347576,279.09893736633626 L 73.82433141817684,278.9863608385247 L 73.04008853823684,276.99836285891024 L 72.20814837653697,274.2136280395836 L 74.66211575276743,270.85841741361526 L 74.6726260772176,270.8440351706258 L 77.42869403557648,268.4494638615679 L 77.6747220373316,265.2990451152114 L 72.36256583350166,261.7246873510408 L 71.06025302001775,260.84681140509497 L 68.45385722369149,260.2325837340651 L 68.60274097109904,254.46713674235957 z" id="c17119"/>
		<path d="M 51.358661754930466,240.97489073353637 L 66.40350997557475,241.78850680860702 L 66.37339630415737,238.11134130948497 L 75.70082192126036,235.45488696057075 L 75.82530856215043,254.45126105188695 L 68.60274097109904,254.46713674235957 L 68.45385722369149,260.2325837340651 L 67.19787493366799,259.93607335969733 L 61.71835081649862,257.2750638721728 L 58.604199799053,257.1680707523673 L 57.65763735608083,256.5999435346449 L 53.877759529677846,257.3606117671237 L 50.0415743822022,245.8367299688999 L 51.358661754930466,240.97489073353637 z" id="c17083"/>
		<path d="M 132.8762664828371,336.3832738205373 L 158.3542733262556,335.93995913793964 L 158.54941299234784,355.0460502196285 L 139.40057664702172,355.5048371897904 L 132.94115189505317,355.31361889932384 L 132.8762664828371,336.3832738205373 z" id="c17199"/>
		<path d="M 100.70701799804772,216.4826877607557 L 110.11789878737666,216.33299792439138 L 110.36542004984766,229.04268568410313 L 132.32543268070864,228.8389077658143 L 132.4523600952774,238.32247191560674 L 126.20439803130793,238.40835343769737 L 126.35408175272708,252.10214008532887 L 107.3965262032368,252.24765119919442 L 104.42324536038781,254.37776623992826 L 101.07710781235782,254.40690968965023 L 100.70701799804772,216.4826877607557 z" id="c17135"/>
		<path d="M 34.01049672857918,135.65707132920744 L 40.32257847517803,135.95556678785584 L 59.28148458022515,136.63963557704827 L 58.94632060789746,162.05356738119372 L 33.48912826479277,161.32307687318612 L 34.01049672857918,135.65707132920744 z" id="c17109"/>
		<path d="M 170.07347485123333,237.95567282886287 L 169.86143857984064,226.4190225262223 L 195.60757711164374,225.54770953547916 L 196.20606135722636,240.3746118937897 L 176.34072361086308,241.0121041016397 L 170.13474085717974,241.10696705801422 L 170.07347485123333,237.95567282886287 z" id="c17035"/>
		<path d="M 153.67904966278937,177.44547952990607 L 153.61863213993718,174.28988285541467 L 162.85174687998244,160.91279762959653 L 169.19356232354514,160.7633462729812 L 169.23497153506952,170.87590636711744 L 169.65281739959875,189.90891485316706 L 169.75627869919938,195.57317921603985 L 169.16066325960668,196.23275707560387 L 153.95380253065701,196.47498052199427 L 153.67904966278937,177.44547952990607 z" id="c17147"/>
		<path d="M 103.70642397940156,44.395167491296306 L 114.91799970635016,44.0714891431629 L 115.32821324280658,45.47062843074944 L 140.9130629939894,44.72687107809667 L 141.32579399556295,63.78774021565524 L 128.92159310982495,63.923257761138274 L 128.9899461610838,67.06099338570797 L 103.73194302605593,67.31022090568136 L 103.70642397940156,44.395167491296306 z" id="c17103"/>
		<path d="M 55.401868221067666,184.54269490661247 L 55.3452790177869,182.9071695106724 L 59.68677250118889,180.55877457962646 L 64.22581747665407,173.07203674809244 L 68.0693752696826,178.05910516582864 L 73.10150107107873,178.1789161732395 L 84.18828558865401,174.18131629292432 L 84.2496462856082,189.15410126411734 L 84.25932696891222,191.25656713208554 L 51.424528876894506,190.9302402032121 L 55.401868221067666,184.54269490661247 z" id="c17017"/>
		<path d="M 195.3293712969073,218.1842195852468 L 198.34254495168764,218.07373542392185 L 213.61039328992948,217.2382828642783 L 222.37466762551585,217.73170528090716 L 222.39342899391195,218.29109134648223 L 222.6489947818708,227.0804441285947 L 220.0423073445845,227.7021255192804 L 218.85910100265232,229.72255568106385 L 219.28681248105593,233.58541057611953 L 219.38221359913138,234.44657406082544 L 220.3831119097814,237.0483438545034 L 216.9041687916174,240.36084729594634 L 217.03858644369498,241.00254303163317 L 215.96495299635617,239.99222021688612 L 199.43529468886652,240.22742222742576 L 196.20606135722636,240.3746118937897 L 195.60757711164374,225.54770953547916 L 195.3293712969073,218.1842195852468 z" id="c17023"/>
		<path d="M 33.31101542190466,167.92734509420674 L 33.48912826479277,161.32307687318612 L 58.94632060789746,162.05356738119372 L 58.832373180773665,168.38546126103432 L 72.82881824282617,168.77159597744486 L 72.46677098766803,170.79864768809963 L 64.22581747665407,173.07203674809244 L 59.68677250118889,180.55877457962646 L 55.3452790177869,182.9071695106724 L 50.14665748829653,183.33510554144317 L 45.26396931367907,174.4772132399325 L 33.17391067826135,174.33847450118515 L 33.31101542190466,167.92734509420674 z" id="c17169"/>
		<path d="M 25.31326057875564,84.8919354730675 L 25.689469876610758,82.7647153216592 L 27.76021437260488,78.84173137466864 L 31.093506794476156,78.40710183712343 L 33.39349399356024,78.94815207015898 L 36.51601562232077,77.13970367202793 L 40.92815983548446,76.83521023095014 L 45.56283100948126,76.73188441434732 L 50.07183690239733,74.56588788672731 L 52.66151846391269,72.3138653591089 L 55.81681257013945,72.0959501441187 L 58.62940722787857,71.81694876116339 L 61.117358591458455,68.97385034513788 L 63.929847501080914,67.7727333483428 L 65.26913374420211,66.40078950283893 L 65.4305631097031,61.63270748177576 L 66.63031468284696,59.4425640609431 L 66.78791682692751,57.00408484619902 L 66.85184772851288,56.01422074968256 L 70.21864676561813,53.29853171921339 L 70.55804175654754,53.08438498753122 L 71.23580511374992,60.8559651506905 L 74.95295907024958,63.13276348746091 L 73.63293424226022,67.42736771123245 L 73.0342854844669,70.64337023210312 L 65.63056116291582,72.52532637333518 L 60.21885394291658,76.64830236578797 L 60.09153643287497,86.04306613151995 L 25.170952998001518,85.2761648121714 L 25.31326057875564,84.8919354730675 z" id="c17161"/>
		<path d="M 31.52443931257629,225.32354040293063 L 49.56576428961667,225.73904013191012 L 50.7642200474281,239.97911990823025 L 49.432243290285356,244.04736158932963 L 50.0415743822022,245.8367299688999 L 53.877759529677846,257.3606117671237 L 57.65763735608083,256.5999435346449 L 58.604199799053,257.1680707523673 L 57.65485244583629,257.13507816577413 L 55.81550436042353,260.84631867123744 L 52.66280275572566,263.6996127878891 L 50.42184171571525,263.38110531452435 L 46.939841142393824,260.09293786376793 L 46.70092241988816,259.04771858394093 L 45.88407452438765,255.47073015458898 L 43.81271588319764,250.40426362768008 L 45.66703359419365,247.04357202161603 L 44.17743577584175,243.39885435973792 L 43.34370729133042,238.09602625192426 L 42.9824038187808,235.794271538144 L 36.83404373994361,229.63684748172483 L 31.52443931257629,225.32354040293063 z" id="c17013"/>
		<path d="M 113.43307880525403,375.40661253678945 L 114.62469933737985,374.69622406141224 L 127.66514308198806,374.5273876150287 L 127.060844490744,391.1331217946119 L 132.59731511357572,393.50959927282685 L 134.82558696456314,397.40527472848555 L 134.62089036071137,400.0 L 131.01159437220798,399.48040476029007 L 127.3647943040248,397.65601022740924 L 124.46703027095954,396.7238544240535 L 121.44295222906858,395.7491088842422 L 119.97413299626706,391.3750478278068 L 115.76247370318211,385.27253127437496 L 114.89362844088548,380.5617318934435 L 114.1750212305718,380.01787154220415 L 112.19140475985847,378.5155717939319 L 113.43307880525403,375.40661253678945 z" id="c17003"/>
		<path d="M 49.16117993422739,0.4981120613709828 L 60.182154936206324,0.6431693834804219 L 60.75157336082058,0.6427247445351684 L 71.63146491407005,0.6205116290331462 L 87.51915918188435,0.7464544445220789 L 87.52013089652479,0.746464643752719 L 87.94346411074842,23.100364065800587 L 66.66794127459956,23.341612318925907 L 65.43041892640673,22.644275285262896 L 62.07563302310334,20.033117602456667 L 60.45872533555846,17.210614740409717 L 61.20702935254367,14.194185644134437 L 59.647919541778954,11.504595502480788 L 57.61356735869547,9.720293264720825 L 55.84027390235508,8.163068847780796 L 53.29230188362182,5.56653733993004 L 51.94634369349493,4.926699628240027 L 48.9382293540845,3.1440179102681913 L 49.16117993422739,0.4981120613709828 z" id="c17085"/>
		<path d="M 128.92159310982495,63.923257761138274 L 141.32579399556295,63.78774021565524 L 147.86154080849565,63.470439774134995 L 153.60578458038506,63.43933566893009 L 159.58760011047696,63.269627165649226 L 160.15779724323738,75.87308529124095 L 161.14644660268223,101.10457640429951 L 142.2880616363636,101.5825447406296 L 142.44262378072222,114.4734478348558 L 136.06096023486495,114.70342749166458 L 135.91264977912607,101.74931692813897 L 129.62817394243993,101.882196078862 L 129.3757797662327,86.96502615238808 L 128.9899461610838,67.06099338570797 L 128.92159310982495,63.923257761138274 z" id="c17099"/>
		<path d="M 131.05444528350915,161.3422198554604 L 143.75372953220696,161.12006449030457 L 162.85174687998244,160.91279762959653 L 153.61863213993718,174.28988285541467 L 153.67904966278937,177.44547952990607 L 131.4701488780742,178.2088416657886 L 131.05444528350915,161.3422198554604 z" id="c17039"/>
		<path d="M 52.08708844591962,193.66688432294504 L 51.424528876894506,190.9302402032121 L 84.25932696891222,191.25656713208554 L 84.31984011729462,197.58351606148096 L 88.1379954390205,216.61961187567184 L 75.37984873565706,216.76697652849842 L 67.08600902550326,216.75924698470845 L 67.16379743485608,208.35444601071742 L 63.12493224062724,206.23173529343296 L 63.23510879972409,199.91415507777685 L 56.97832031838264,199.8875642166536 L 57.001757810419946,197.2833827095528 L 50.52638072486007,197.19698507446435 L 52.08708844591962,193.66688432294504 z" id="c17137"/>
		<path d="M 177.34085460473008,332.4099710005142 L 177.34037903224925,332.35839608879985 L 191.00225168705992,331.5191655052139 L 195.46141511279993,334.9969871017755 L 195.0261816818233,335.7764691720283 L 197.3758699181753,339.83521179482716 L 195.65709771584446,343.9709989033729 L 191.55025976610935,347.35164979093315 L 190.02354465249243,350.4820719483124 L 191.74771464622415,356.2027803630561 L 188.98011401524641,354.4912223475354 L 177.71566899068915,354.6913600328868 L 177.34085460473008,332.4099710005142 z" id="c17059"/>
		<path d="M 84.60043004364135,130.524349173686 L 84.59341233507585,111.55913619121007 L 103.60785616516738,111.53899192349013 L 114.08363710368376,111.49759960048335 L 112.76253867558019,115.27367540245122 L 107.88356851694667,124.5399534981889 L 108.31365746560124,127.86517277326526 L 108.42357866422556,130.84052005204688 L 106.29848879340891,132.40956266700368 L 101.76667436466961,141.92033573436717 L 96.524227430075,142.00381686561363 L 90.90248561440443,144.92127929297018 L 90.80832306269218,136.86291656908145 L 84.45365258847845,136.75627125601824 L 84.60043004364135,130.524349173686 z" id="c17143"/>
		<path d="M 124.14123363739782,138.82244908209003 L 131.6199369303184,138.56565714097076 L 136.52095120783133,136.2846640008396 L 139.77231894563351,133.52671753518507 L 139.56767093454746,127.20902057302193 L 142.73384254177736,127.09015859248349 L 161.71338946972782,126.47611434511359 L 162.4358418859714,136.67211702798488 L 168.7765719986161,136.49569567391535 L 169.0559556689563,152.30429444515377 L 169.19356232354514,160.7633462729812 L 162.85174687998244,160.91279762959653 L 143.75372953220696,161.12006449030457 L 131.05444528350915,161.3422198554604 L 131.05360146855844,161.30735521304703 L 124.74537965394724,161.4916024142644 L 124.65222388811353,158.27834938567415 L 124.14123363739782,138.82244908209003 z" id="c17113"/>
		<path d="M 115.63865184628074,0.9665937760778472 L 117.54637083593441,0.9790842346729668 L 134.84222933004446,1.0557598304171074 L 137.53853684219723,1.0482036488402153 L 140.33331461961757,1.0386822339059785 L 140.7263656597961,25.869509030944823 L 132.53748464788916,26.098541820246755 L 128.17735297347176,26.170477755110333 L 128.12138404372752,22.27552361517646 L 116.11417573176522,22.567980866128117 L 115.95843568012069,14.951729865649202 L 115.63865184628074,0.9665937760778472 z" id="c17201"/>
		<path d="M 177.0926036223098,307.26289832643414 L 189.60863597965326,306.94443732124444 L 196.63244308788353,306.8225095348101 L 198.74279874208318,306.48612417167374 L 200.0162803082612,308.06551544617105 L 199.95817045104886,308.5820190140814 L 199.69316068803772,310.9357480136069 L 202.53316988205046,314.1887659193657 L 200.63810348515244,317.9895655555119 L 199.19550428156035,321.241286208866 L 196.82840286725462,323.09653362377446 L 197.77768646143568,328.077857233665 L 196.48709610303766,333.1589281107148 L 195.46141511279993,334.9969871017755 L 191.00225168705992,331.5191655052139 L 177.34037903224925,332.35839608879985 L 177.0926036223098,307.26289832643414 z" id="c17193"/>
		<path d="M 107.39831197047293,310.76271636225084 L 132.8033254678604,311.0053622785299 L 132.7449632670773,317.3592864605847 L 133.89967941794671,317.36726539338537 L 134.60579035923672,322.0465407170155 L 131.29377166288452,330.0132506787658 L 107.38591937789201,329.84960490563594 L 107.39831197047293,310.76271636225084 z" id="c17145"/>
		<path d="M 132.8033254678604,311.0053622785299 L 132.77748785898868,292.1289301165098 L 158.1011578570913,291.71157835452556 L 158.1565826398499,307.49951506615963 L 158.1803083276127,317.0093326592737 L 133.89967941794671,317.36726539338537 L 132.7449632670773,317.3592864605847 L 132.8033254678604,311.0053622785299 z" id="c17081"/>
		<path d="M 22.91755927251683,91.3517968000932 L 25.152549989969337,85.32584810869253 L 25.170952998001518,85.2761648121714 L 60.09153643287497,86.04306613151995 L 59.83840904776369,98.74242852901527 L 59.72174871647717,105.07064936916132 L 40.7895013835768,104.62994030506536 L 31.66220719649359,104.47517006820328 L 31.643741141724327,104.26812927933273 L 31.39620250565432,101.49068886801577 L 29.20674928275337,97.7452838816894 L 26.823681682603226,97.46330959220754 L 24.6783343055125,93.9467989271546 L 22.91755927251683,91.3517968000932 z" id="c17131"/>
		<path d="M 158.5496578271782,355.06181481626396 L 175.57154676039536,354.72967593037055 L 175.6118260190678,367.62948556197034 L 175.47096486323937,367.5821311567521 L 172.77278938308953,369.18243399716994 L 171.63475581606713,373.61185237659106 L 170.09610485502955,377.1579707741445 L 172.66683815004566,382.2333398941798 L 175.4768945218335,387.26429233316617 L 174.39642954221958,390.9948444870776 L 172.60968347289938,393.22431501972113 L 172.16505932293822,393.2425311174323 L 171.78299605553997,393.258155333696 L 171.6701738112,386.6412962634197 L 158.71643986868247,374.0082238723127 L 158.5496578271782,355.06181481626396 z" id="c17151"/>
		<path d="M 132.32543268070864,228.8389077658143 L 138.75013037018547,228.96243751224623 L 138.4550742894789,206.67851970617366 L 150.48387633768647,206.58075094361735 L 150.64887316150262,211.85872302103706 L 155.77805512715312,211.84428359416208 L 155.8773301265754,216.04837648911652 L 160.10222715432465,215.99672258162522 L 163.399777241092,221.24923315007004 L 169.78105315039176,221.17234728175274 L 169.86143857984064,226.4190225262223 L 170.07347485123333,237.95567282886287 L 151.254559414028,238.18388452900936 L 132.4523600952774,238.32247191560674 L 132.32543268070864,228.8389077658143 z" id="c17173"/>
		<path d="M 160.15779724323738,75.87308529124095 L 178.85967476527048,75.06658976591372 L 178.8608292331845,75.0892245705477 L 179.71934407763607,93.97908087307434 L 179.98551635952822,99.22791043496517 L 179.45637412180804,100.3083190209431 L 161.14644660268223,101.10457640429951 L 160.15779724323738,75.87308529124095 z" id="c17063"/>
		<path d="M 159.48837730745825,56.88881889541234 L 170.18835257709316,56.48606091686907 L 171.76980154279377,56.42879810758355 L 177.9126460210988,56.14905078002146 L 177.94934135869028,56.147948838579644 L 178.02071400840865,58.232431574542176 L 178.37660892189857,65.63636166659792 L 178.65530891163482,70.89702794728058 L 178.85967476527048,75.06658976591372 L 160.15779724323738,75.87308529124095 L 159.58760011047696,63.269627165649226 L 159.48837730745825,56.88881889541234 z" id="c17093"/>
		<path d="M 66.66794127459956,23.341612318925907 L 87.94346411074842,23.100364065800587 L 100.38810326995835,22.886019878138356 L 100.66544895963435,42.33467519991814 L 75.1180807930195,42.44359467334619 L 75.18561297868932,41.84024323529009 L 76.06441911113977,37.65616514313763 L 75.03482797748053,34.97251727917358 L 74.83176903866503,34.44284311606323 L 74.95482834427234,29.669311103921633 L 72.46339290137801,26.57612490081759 L 69.14522360604104,24.73590477603879 L 66.66794127459956,23.341612318925907 z" id="c17015"/>
		<path d="M 109.98176495962494,207.90329580018377 L 113.14473530877558,207.90146548523896 L 113.09567055597597,204.78242114621966 L 116.10673888394732,204.7778239693777 L 116.0414335253011,200.14999144954783 L 122.8572117294749,198.05343920701105 L 125.97847205010432,194.38542372923817 L 127.60879338664189,195.26685374936966 L 131.83123906546803,196.11687779006772 L 132.1110000409086,206.68655814141547 L 138.4550742894789,206.67851970617366 L 138.75013037018547,228.96243751224623 L 132.32543268070864,228.8389077658143 L 110.36542004984766,229.04268568410313 L 110.11789878737666,216.33299792439138 L 109.99814824002816,209.9946212235313 L 109.98176495962494,207.90329580018377 z" id="c17021"/>
		<path d="M 60.09153643287497,86.04306613151995 L 60.21885394291658,76.64830236578797 L 65.63056116291582,72.52532637333518 L 73.0342854844669,70.64337023210312 L 73.63293424226022,67.42736771123245 L 91.1905771883182,67.43951116637766 L 91.53804577467454,92.7289926850238 L 90.98410186523175,94.1457554006446 L 90.98367949002625,98.88004022800793 L 84.61744071109189,98.90477353972081 L 59.83840904776369,98.74242852901527 L 60.09153643287497,86.04306613151995 z" id="c17073"/>
		<path d="M 112.90689075460077,92.64884789268814 L 118.89708206497674,92.65708570936832 L 120.04234356356423,87.73738477605723 L 129.3757797662327,86.96502615238808 L 129.62817394243993,101.882196078862 L 118.89059385711327,102.00537613631464 L 120.45619032602889,98.80081251815518 L 112.9723502065672,98.82399954746384 L 112.90689075460077,92.64884789268814 z" id="c17155"/>
		<path d="M 100.96885656858501,296.58722097105493 L 108.43666671555995,291.6950529446522 L 113.59269137166972,292.6892110792533 L 120.97453036319412,288.9931705399458 L 132.78369253649925,290.0159963402825 L 132.77748785898868,292.1289301165098 L 132.8033254678604,311.0053622785299 L 107.39831197047293,310.76271636225084 L 101.09634709656692,310.7883912784634 L 100.96885656858501,296.58722097105493 z" id="c17189"/>
		<path d="M 186.19602464929417,108.58539742422775 L 219.36163573239088,106.78769036131489 L 219.63727893881654,115.09073503873783 L 219.9767158726174,126.57424277861521 L 220.40599454092472,141.1529441601118 L 220.46952375667308,144.3509727860006 L 197.91703745815224,145.35769635713672 L 187.8268471601034,145.46256983336167 L 187.76181752134593,143.35561785139416 L 186.19602464929417,108.58539742422775 z" id="c17075"/>
		<path d="M 180.4929750162824,18.66399555178069 L 180.50608139996777,18.66072396213277 L 180.338677989871,12.346169576443646 L 180.19582528793575,6.071000602536981 L 180.01932712479154,0.2685366870204766 L 196.16679541200935,0.07494384208812692 L 201.39216683216648,0.0 L 201.38096813822307,5.16458257589972 L 200.5611972112652,9.463346801147534 L 199.93373841910832,13.830790404051733 L 200.01592190655327,14.10001709974011 L 201.9518736573701,20.433777472665444 L 201.98622648168825,20.546025245154357 L 204.29193900269718,24.513024748956877 L 194.22960018297192,24.72715809969257 L 191.0882988882122,24.77364661292281 L 190.0496807389281,24.793328735165204 L 180.58011471302092,24.983352197020917 L 180.4929750162824,18.66399555178069 z" id="c17097"/>
		<path d="M 100.38810326995835,22.886019878138356 L 116.11417573176522,22.567980866128117 L 128.12138404372752,22.27552361517646 L 128.17735297347176,26.170477755110333 L 132.53748464788916,26.098541820246755 L 140.7263656597961,25.869509030944823 L 140.9130629939894,44.72687107809667 L 115.32821324280658,45.47062843074944 L 114.91799970635016,44.0714891431629 L 103.70642397940156,44.395167491296306 L 100.66544895963435,42.33467519991814 L 100.38810326995835,22.886019878138356 z" id="c17141"/>
		<path d="M 199.43529468886652,240.22742222742576 L 215.96495299635617,239.99222021688612 L 217.03858644369498,241.00254303163317 L 217.88360877965238,245.03367950068426 L 220.95128183894198,248.17019495786275 L 220.6976544373338,252.20860874492382 L 223.56086603614722,254.27543190117623 L 223.80001496556937,258.9194006778715 L 223.74303640229525,259.0473338701895 L 222.75175161471697,261.2718123518799 L 223.484952320851,262.9247982160854 L 202.3987405888447,263.6622110075311 L 200.26018053279606,263.7117081524833 L 199.43529468886652,240.22742222742576 z" id="c17033"/>
		<path d="M 177.27159226354112,31.385684184925406 L 178.59878360434445,29.511413032734723 L 178.48727714470252,25.031912400434216 L 180.58011471302092,24.983352197020917 L 190.0496807389281,24.793328735165204 L 191.0882988882122,24.77364661292281 L 194.22960018297192,24.72715809969257 L 204.29193900269718,24.513024748956877 L 205.2912712473334,26.230062962218852 L 205.2928543342627,26.23278188866278 L 205.30993921860528,26.251966042809027 L 208.21244398869274,29.50799048011258 L 208.5982224268078,29.94028993991324 L 209.4179926487852,33.29083129090149 L 211.4917272216686,40.2002866247779 L 212.05490881590134,42.07358727033337 L 212.11074223277015,42.25923177567306 L 212.77007804603952,43.02894811961958 L 212.72075513961047,43.671822432571275 L 212.60189702078367,44.656911824635536 L 213.0274669271078,46.505507067856975 L 214.24218134155714,48.94635284644212 L 214.31708140840328,49.09677084632402 L 214.63284338269975,49.730789798193996 L 215.84232327447265,52.15766734200957 L 217.50186895072088,53.39637072401172 L 217.9136858982533,55.13997486835832 L 217.95374149950695,56.27274895260822 L 218.30123395075603,69.19915827711891 L 218.40722876352552,73.50245714984779 L 204.1536475018955,73.94827121319587 L 203.86878377926652,69.74113484414465 L 202.62068572187806,67.58463045229834 L 197.34472907489075,67.82766781870559 L 197.0413394138955,61.531751008032984 L 190.66400758260744,59.81290186491488 L 190.61390641368885,58.70431705312323 L 191.91681212824474,58.642103206187564 L 193.15224663961266,58.5800782062094 L 193.24950196820882,58.49607352946781 L 193.99063732525022,58.5106517263339 L 194.59577858928773,58.03148679677173 L 195.02907283216277,57.84864379835711 L 195.28744444552387,57.59967726513523 L 195.3307426467982,57.27805160722116 L 196.76304594769735,56.01697469738491 L 196.5615467664911,52.305332920663574 L 196.4826468409792,50.87948442620575 L 196.46122025312476,50.50608444177905 L 196.08313991979756,42.51775667343907 L 196.02651225772564,40.00219448190472 L 194.91754390992602,36.27155762566253 L 182.23362649689966,37.00536902893546 L 177.44252853170832,37.21003799991312 L 177.37515879179273,35.10357657242696 L 177.27159226354112,31.385684184925406 z" id="c17031"/>
		<path d="M 177.44252853170832,37.21003799991312 L 182.23362649689966,37.00536902893546 L 194.91754390992602,36.27155762566253 L 196.02651225772564,40.00219448190472 L 196.08313991979756,42.51775667343907 L 196.46122025312476,50.50608444177905 L 196.4826468409792,50.87948442620575 L 196.5615467664911,52.305332920663574 L 196.76304594769735,56.01697469738491 L 195.3307426467982,57.27805160722116 L 195.28744444552387,57.59967726513523 L 195.02907283216277,57.84864379835711 L 194.59577858928773,58.03148679677173 L 193.99063732525022,58.5106517263339 L 193.24950196820882,58.49607352946781 L 193.15224663961266,58.5800782062094 L 191.91681212824474,58.642103206187564 L 190.61390641368885,58.70431705312323 L 190.46070091302826,55.547263785525935 L 184.0772692086475,55.902456479561785 L 177.94934135869028,56.147948838579644 L 177.9126460210988,56.14905078002146 L 177.72726214268445,49.82460850229255 L 177.72677057091087,49.80731549293527 L 177.63027428166913,44.709550711993515 L 177.6077777427259,43.51584691644938 L 177.44252853170832,37.21003799991312 z" id="c17043"/>
		<path d="M 158.1803083276127,317.0093326592737 L 158.1565826398499,307.49951506615963 L 177.0926036223098,307.26289832643414 L 177.34037903224925,332.35839608879985 L 177.34085460473008,332.4099710005142 L 158.3130712054917,332.80557549255434 L 158.1803083276127,317.0093326592737 z" id="c17065"/>
		<path d="M 90.20204432215124,146.41728485256638 L 90.90248561440443,144.92127929297018 L 96.524227430075,142.00381686561363 L 101.76667436466961,141.92033573436717 L 106.29848879340891,132.40956266700368 L 108.42357866422556,130.84052005204688 L 108.31365746560124,127.86517277326526 L 120.6879631009304,127.71822659615526 L 120.93089696114428,137.3167310510202 L 124.14123363739782,138.82244908209003 L 124.65222388811353,158.27834938567415 L 105.87115689862695,158.81119840437128 L 99.67256439098657,158.91264678156935 L 99.50919778528889,150.48979939556216 L 88.03463480983797,150.51547005583976 L 90.20204432215124,146.41728485256638 z" id="c17179"/>
		<path d="M 140.7263656597961,25.869509030944823 L 153.33352673795753,25.582910515384622 L 159.62988269881185,25.466979577824553 L 159.7639912924391,31.77191587609982 L 159.1148641653489,35.29750591914918 L 159.48837730745825,56.88881889541234 L 159.58760011047696,63.269627165649226 L 153.60578458038506,63.43933566893009 L 147.86154080849565,63.470439774134995 L 141.32579399556295,63.78774021565524 L 140.9130629939894,44.72687107809667 L 140.7263656597961,25.869509030944823 z" id="c17037"/>
		<path d="M 22.0993064941581,133.1131210603404 L 22.2633268812163,131.17879480572242 L 22.42035885711493,129.32573321420932 L 23.784712842271645,125.39391964185822 L 23.745390510036223,122.39998487282348 L 26.436562520358848,119.00683086277324 L 29.717168941300947,115.87045717067777 L 31.568249219700398,112.85523580588593 L 31.98929559327538,108.13897743676735 L 31.66220719649359,104.47517006820328 L 40.7895013835768,104.62994030506536 L 40.32257847517803,135.95556678785584 L 34.01049672857918,135.65707132920744 L 18.509520535051443,135.58113216962448 L 22.0993064941581,133.1131210603404 z" id="c17071"/>
		<path d="M 62.93059066294252,303.3241329905722 L 64.23592377065593,299.4032525375598 L 64.62555295868782,298.9109196475238 L 64.77795468857516,298.71831280845277 L 67.71024383029464,295.00883344322943 L 68.71043326837969,290.84453575576526 L 69.29274034256838,289.23886606287795 L 75.86788160062135,295.86514228673116 L 82.09751808634319,304.3746154793188 L 89.7864308610567,305.90487936958993 L 89.92608138129592,310.73477831879427 L 82.09463768598167,310.58021586525115 L 82.12888492725573,316.89978675849665 L 72.5304936963488,320.40256302320694 L 71.68393113357739,319.8959622078055 L 69.7558882789104,317.49323952235324 L 69.74091713069048,317.47855823485764 L 65.77131262335935,313.5814168888568 L 64.13220888225631,310.8338968668748 L 63.40671714002439,309.61671711069266 L 62.93059066294252,303.3241329905722 z" id="c17133"/>
		<path d="M 7.776896949461399,199.0751904960773 L 32.82461115778875,199.4572682604541 L 32.838259708086404,193.11102451343427 L 34.35648654076228,193.40747053187326 L 52.08708844591962,193.66688432294504 L 50.52638072486007,197.19698507446435 L 47.876469653560974,203.45458965456547 L 51.444052706554544,216.61140059691172 L 49.77152369646924,221.2531407078005 L 49.56576428961667,225.73904013191012 L 31.52443931257629,225.32354040293063 L 31.405618892406412,225.2268661726023 L 25.779356232446524,221.72994493080407 L 24.352605140119998,218.37330524672174 L 22.367989985599483,215.16632900674608 L 19.68701943531862,214.62394780745922 L 18.270794814838506,211.26765957570396 L 17.79217938898518,210.80953035191368 L 12.633427360671389,205.863236359664 L 10.996260358429975,204.36273222418524 L 7.572999355245495,201.22050908880436 L 7.776896949461399,199.0751904960773 z" id="c17149"/>
		<path d="M 182.799839032818,272.7188211813782 L 182.57881243177528,264.3010403803496 L 200.26018053279606,263.7117081524833 L 202.3987405888447,263.6622110075311 L 202.66133087862985,283.9219650252546 L 200.2540009802583,283.97137547509897 L 189.28910146583874,284.31023070408037 L 189.22087302586533,282.21674089350347 L 183.21407446589888,282.23571916565015 L 180.99217931399144,280.32890428938526 L 182.799839032818,272.7188211813782 z" id="c17159"/>
		<path d="M 139.43491335565955,374.8039092475046 L 139.40057664702172,355.5048371897904 L 158.54941299234784,355.0460502196285 L 158.5496578271782,355.06181481626396 L 158.71643986868247,374.0082238723127 L 147.49734707107984,374.266389875157 L 146.16091958841278,376.66311206103643 L 139.47186651216884,377.39133364088644 L 139.43491335565955,374.8039092475046 z" id="c17087"/>
		<path d="M 179.45637412180804,100.3083190209431 L 179.98551635952822,99.22791043496517 L 179.71934407763607,93.97908087307434 L 192.40953525112988,93.39610934485107 L 192.1383633141848,87.10798310147679 L 218.7131964916477,85.9681765372473 L 219.00994750085513,95.51726392868824 L 219.32676982991765,105.7385014121038 L 219.36163573239088,106.78769036131489 L 186.19602464929417,108.58539742422775 L 179.87682912208209,108.96138936776126 L 179.45637412180804,100.3083190209431 z" id="c17091"/>
		<path d="M 72.5304936963488,320.40256302320694 L 82.12888492725573,316.89978675849665 L 82.09463768598167,310.58021586525115 L 89.92608138129592,310.73477831879427 L 101.09634709656692,310.7883912784634 L 107.39831197047293,310.76271636225084 L 107.38591937789201,329.84960490563594 L 103.46332224559103,338.99925451362105 L 102.16812541585604,341.37093608755885 L 101.6264504222543,340.07862521523856 L 96.71083898887512,337.1539774470699 L 92.74202029660023,333.63361010761145 L 88.61506986511547,336.05457823586556 L 88.0452494001061,335.3743391090072 L 85.68230218422465,332.55100672650013 L 86.78074121152864,329.11880440944987 L 83.72078536068638,328.8694726899456 L 79.56140335330625,325.6028053397925 L 76.98313747108236,323.0632982748566 L 72.5304936963488,320.40256302320694 z" id="c17157"/>
		<path d="M 87.52013089652479,0.746464643752719 L 92.2791770195747,0.7939212408297446 L 110.72198954557695,0.9307084797367556 L 115.63865184628074,0.9665937760778472 L 115.95843568012069,14.951729865649202 L 116.11417573176522,22.567980866128117 L 100.38810326995835,22.886019878138356 L 87.94346411074842,23.100364065800587 L 87.52013089652479,0.746464643752719 z" id="c17177"/>
		<path d="M 158.1011578570913,291.71157835452556 L 157.97822143360108,282.2257656016234 L 164.44238870138096,282.02815607011416 L 183.21407446589888,282.23571916565015 L 189.22087302586533,282.21674089350347 L 189.28910146583874,284.31023070408037 L 189.60863597965326,306.94443732124444 L 177.0926036223098,307.26289832643414 L 158.1565826398499,307.49951506615963 L 158.1011578570913,291.71157835452556 z" id="c17191"/>
		<path d="M 50.52638072486007,197.19698507446435 L 57.001757810419946,197.2833827095528 L 56.97832031838264,199.8875642166536 L 63.23510879972409,199.91415507777685 L 63.12493224062724,206.23173529343296 L 67.16379743485608,208.35444601071742 L 67.08600902550326,216.75924698470845 L 51.444052706554544,216.61140059691172 L 47.876469653560974,203.45458965456547 L 50.52638072486007,197.19698507446435 z" id="c17171"/>
		<path d="M 70.55804175654754,53.08438498753122 L 73.90142356682288,50.97244263284389 L 73.86079435490261,48.608532817534204 L 74.74464778185633,45.77708017087649 L 75.1180807930195,42.44359467334619 L 100.66544895963435,42.33467519991814 L 103.70642397940156,44.395167491296306 L 103.73194302605593,67.31022090568136 L 91.1905771883182,67.43951116637766 L 73.63293424226022,67.42736771123245 L 74.95295907024958,63.13276348746091 L 71.23580511374992,60.8559651506905 L 70.55804175654754,53.08438498753122 z" id="c17195"/>
		<path d="M 177.94934135869028,56.147948838579644 L 184.0772692086475,55.902456479561785 L 190.46070091302826,55.547263785525935 L 190.61390641368885,58.70431705312323 L 190.66400758260744,59.81290186491488 L 197.0413394138955,61.531751008032984 L 197.34472907489075,67.82766781870559 L 202.62068572187806,67.58463045229834 L 203.86878377926652,69.74113484414465 L 204.1536475018955,73.94827121319587 L 218.40722876352552,73.50245714984779 L 218.71291414932625,85.95910236560673 L 218.7131964916477,85.9681765372473 L 192.1383633141848,87.10798310147679 L 192.40953525112988,93.39610934485107 L 179.71934407763607,93.97908087307434 L 178.8608292331845,75.0892245705477 L 178.85967476527048,75.06658976591372 L 178.65530891163482,70.89702794728058 L 178.37660892189857,65.63636166659792 L 178.02071400840865,58.232431574542176 L 177.94934135869028,56.147948838579644 z" id="c17197"/>
		<path d="M 159.1148641653489,35.29750591914918 L 159.7639912924391,31.77191587609982 L 159.62988269881185,25.466979577824553 L 170.12434105938044,25.238522306772833 L 172.24293765637327,25.18678326512225 L 177.45150189022635,25.06794191884263 L 178.48727714470252,25.031912400434216 L 178.59878360434445,29.511413032734723 L 177.27159226354112,31.385684184925406 L 177.37515879179273,35.10357657242696 L 177.44252853170832,37.21003799991312 L 177.6077777427259,43.51584691644938 L 177.63027428166913,44.709550711993515 L 177.72677057091087,49.80731549293527 L 177.72726214268445,49.82460850229255 L 177.9126460210988,56.14905078002146 L 171.76980154279377,56.42879810758355 L 170.18835257709316,56.48606091686907 L 159.48837730745825,56.88881889541234 L 159.1148641653489,35.29750591914918 z" id="c17089"/>
		<path d="M 0.34846666964435485,167.0289033067513 L 33.31101542190466,167.92734509420674 L 33.17391067826135,174.33847450118515 L 32.838259708086404,193.11102451343427 L 32.82461115778875,199.4572682604541 L 7.776896949461399,199.0751904960773 L 7.974765290086319,196.9919601418738 L 5.983357084382187,194.5358123522809 L 3.8776788339838575,192.74181510103446 L 4.3368904755384925,188.24649189456505 L 3.936102724111484,185.52643963807836 L 3.9235734138558866,185.4413493762088 L 1.3860258327244048,180.12863277871992 L 0.6933710039507794,175.8546122269021 L 0.0,169.1737631811025 L 0.34846666964435485,167.0289033067513 z" id="c17001"/>
	</g>
</svg>