<?xml version="1.0" encoding="UTF-8"?>
<svg baseProfile="full" fill="#d0d0d0" height="400.0" stroke="#ffffff" stroke-width="1" version="1.1" width="259.75993889351406" xmlns="http://www.w3.org/2000/svg" xmlns:ev="http://www.w3.org/2001/xml-events" xmlns:xlink="http://www.w3.org/1999/xlink">
	<defs/>
	<g id="counties"><path d="M 196.19578706980093,189.83805462329843 L 197.7709835407239,182.534588717549 L 197.75722416490842,169.36129847108643 L 225.62513779442924,169.30178545814408 L 225.72133638358014,175.44625926849787 L 226.65764417927625,176.55258789798498 L 226.76674969844026,189.65890111279316 L 225.25097057056672,198.2240949395372 L 219.02748236205522,198.3394973619191 L 196.18415601834388,198.5012445425601 L 196.19578706980093,189.83805462329843 z" id="c18065"/>
		<path d="M 175.78255769661646,155.13136785231993 L 175.78765265691618,139.14542016320763 L 197.54288465631438,139.04263617630312 L 197.75722416490842,169.36129847108643 L 197.7709835407239,182.534588717549 L 175.67676917459332,182.73590802589555 L 175.78255769661646,155.13136785231993 z" id="c18095"/>
		<path d="M 67.956081893901,259.06819822839867 L 82.4780012706138,259.67508148074234 L 111.47346804835391,260.29399912917074 L 111.33584799847966,277.6722361390792 L 111.19274678928713,286.4642036202759 L 93.84972376227569,286.2993864146424 L 83.57239748644704,286.32743267121884 L 78.61218158097925,286.09946404266964 L 76.18051659442295,285.72584647525855 L 67.47543886741367,285.52482788924476 L 67.956081893901,259.06819822839867 z" id="c18055"/>
		<path d="M 161.91448995051704,335.6468905132862 L 164.92686075059106,335.6134227560915 L 179.664782620749,337.0443868737444 L 183.35528230388852,342.48434738605346 L 180.68782853018934,349.7243909654915 L 178.97779732425312,349.2192287659368 L 177.1130580847048,353.5459645451422 L 172.74457805475143,358.6785526043187 L 172.65166056314968,359.5345177110984 L 167.7748588114263,358.9048949167128 L 167.98417515182814,351.4452556308623 L 161.90016910588523,344.39131387463897 L 161.91448995051704,335.6468905132862 z" id="c18043"/>
		<path d="M 81.64140852940739,92.21962740569158 L 90.2752873372566,92.32379114402424 L 90.31147943931957,84.87609152479304 L 94.62377958966746,84.91563365369596 L 121.18987632664258,85.39624143032295 L 120.99072241491243,102.96099212538084 L 108.15568061509254,102.78863116943825 L 106.31325105006398,120.21111896051052 L 81.53123079493913,119.7732535780858 L 81.64738308993003,104.57826457506978 L 81.5827900288975,102.35641423136528 L 81.64140852940739,92.21962740569158 z" id="c18181"/>
		<path d="M 208.46633867897395,257.7216828825282 L 219.63167770870575,250.39925763071906 L 225.74118711934528,246.34313168203562 L 237.60422941477955,246.39879435389204 L 232.60298056972476,282.4385956632299 L 232.3535615593457,284.2923541811842 L 227.08929284299379,285.9024685065201 L 208.15764377597088,286.05428203283833 L 208.46633867897395,257.7216828825282 z" id="c18137"/>
		<path d="M 95.0460537028343,58.852312005878126 L 130.1392210888716,59.35631715626065 L 129.787326242936,85.58449625555437 L 121.18987632664258,85.39624143032295 L 94.62377958966746,84.91563365369596 L 95.0460537028343,58.852312005878126 z" id="c18131"/>
		<path d="M 173.38493786161473,303.9531699901196 L 174.8572078717013,304.78578301315343 L 179.9697342531888,299.40879871253395 L 180.69526579851552,296.64296326501375 L 185.57298071771947,294.2118712022775 L 189.44224078844843,295.85822549794534 L 189.4800948344089,303.7447646043431 L 198.31152071272135,309.55742432648543 L 198.39383075659873,316.829831959572 L 186.61622925949663,316.8942772785064 L 180.80618536953773,316.9613574303821 L 176.52584586527257,321.31908432044963 L 175.49769588940038,319.8496868434317 L 173.5581642071981,319.89494319026176 L 173.38493786161473,303.9531699901196 z" id="c18143"/>
		<path d="M 180.39120739476388,264.42473374311777 L 189.21833905600542,264.2354985491172 L 198.6236874876026,264.04067083789465 L 208.46633867897395,257.7216828825282 L 208.15764377597088,286.05428203283833 L 200.85040538583013,286.146601815043 L 195.1858970090899,294.97075783935077 L 189.44224078844843,295.85822549794534 L 185.57298071771947,294.2118712022775 L 180.69526579851552,296.64296326501375 L 180.46282950637777,270.47589152374456 L 180.39120739476388,264.42473374311777 z" id="c18079"/>
		<path d="M 110.93016352155837,308.3311753618154 L 140.34736298171188,308.44293322346846 L 140.16380294291727,335.02907835202404 L 140.12839770355384,337.91640003403245 L 115.9969639963302,337.5688465899435 L 110.73919424623787,337.5824788630544 L 110.81091076193103,324.38896898431324 L 110.93016352155837,308.3311753618154 z" id="c18117"/>
		<path d="M 95.6414722701743,4.272945355129532 L 97.43899124622128,3.2517206911335443 L 103.81791464427104,0.0 L 117.59758712800968,0.22751529416488378 L 117.69362372138154,0.2289977537950711 L 126.39137905028426,0.33147654396767123 L 126.09716539315637,11.274942396240077 L 129.04865245569425,19.317298060581212 L 126.02872261269222,33.09519379631288 L 117.13513294878803,33.02577263175028 L 109.64201981400713,44.063915335809114 L 103.933684971004,48.826259010218905 L 99.71355114943292,49.66666882906855 L 95.14689678251956,52.385886989718514 L 95.6414722701743,4.272945355129532 z" id="c18091"/>
		<path d="M 82.81882418249728,242.17799898408623 L 91.47262537520493,242.36346480459076 L 91.85237613176383,229.20217068716985 L 111.60598481890558,229.78250832058947 L 115.75539552507696,232.73365924047232 L 115.73948185140166,242.17240557412148 L 111.46206067283451,243.2188823563973 L 111.47346804835391,260.29399912917074 L 82.4780012706138,259.67508148074234 L 82.81882418249728,242.17799898408623 z" id="c18119"/>
		<path d="M 239.73177576143019,205.52490537130092 L 240.65419697606953,204.07302761611325 L 256.7898544457275,204.1952550094548 L 256.7898454064207,204.20132256147357 L 256.8186815870154,220.12705681577833 L 256.8267898812405,224.7145172987568 L 241.9875925657632,224.60966573545196 L 239.7473783410171,224.42940470806238 L 239.73177576143019,205.52490537130092 z" id="c18161"/>
		<path d="M 215.64930519167933,58.818353952605335 L 217.94553932801057,50.2811498092991 L 226.69946377483933,50.234042052809 L 256.0818112137188,49.30083202185408 L 256.10487177884033,51.175809943047916 L 256.26650464228834,64.32768021196645 L 256.42602044998995,77.56876260128452 L 256.5066370400864,84.26794758060974 L 235.88230866571175,84.91563269071652 L 215.9399720682651,85.0952024333292 L 215.9359239900681,76.25360241408899 L 215.64930519167933,58.818353952605335 z" id="c18003"/>
		<path d="M 226.40544593418605,23.936593707911534 L 255.7286412233473,23.339034975050254 L 255.88584275569897,33.777524580261925 L 255.91265720279284,35.558340631700084 L 256.0818112137188,49.30083202185408 L 226.69946377483933,50.234042052809 L 226.40544593418605,23.936593707911534 z" id="c18033"/>
		<path d="M 111.63898326111163,158.72786990915733 L 134.47648364619266,159.1014629399383 L 137.73791990286236,159.03542303532407 L 146.51421658883203,158.83033039265712 L 146.55178641722915,184.37140079930143 L 139.8688686173431,184.52840297729932 L 137.6325854064895,184.51031339380276 L 111.39899957939573,184.38547972239454 L 111.63898326111163,158.72786990915733 z" id="c18011"/>
		<path d="M 139.71627896182642,194.6850781339578 L 139.8971158518648,190.32940928405932 L 139.8688686173431,184.52840297729932 L 146.55178641722915,184.37140079930143 L 169.876199730414,184.37317236411943 L 169.82168471985415,190.12054989838865 L 168.61084450348525,191.4898541805117 L 168.71171465956553,207.42967998629962 L 168.66516762986484,213.3238317822031 L 145.57763297656084,213.68341021047678 L 139.64960073623433,213.78958110795824 L 139.71627896182642,194.6850781339578 z" id="c18097"/>
		<path d="M 225.17213635082354,146.26045011000437 L 256.93709117124087,145.68566397242577 L 256.84293093134517,166.03096708640325 L 256.82942849403895,176.2740616920474 L 226.65764417927625,176.55258789798498 L 225.72133638358014,175.44625926849787 L 225.62513779442924,169.30178545814408 L 225.17213635082354,146.26045011000437 z" id="c18135"/>
		<path d="M 189.28065221163172,58.93966101782773 L 191.90372951831156,47.266612721251185 L 200.58460408196296,50.11413136689846 L 217.94553932801057,50.2811498092991 L 215.64930519167933,58.818353952605335 L 215.9359239900681,76.25360241408899 L 192.52306751164593,76.59636508451581 L 189.53308901049462,76.63618391295192 L 189.45931111137227,72.14288384834593 L 189.28065221163172,58.93966101782773 z" id="c18183"/>
		<path d="M 191.30837716112765,0.6860780570497619 L 218.91083088601363,0.5728791985958067 L 223.36716970025472,0.5435457464155671 L 226.07511068145087,0.5261284238340875 L 226.40544593418605,23.936593707911534 L 191.6873639927153,24.34380723818036 L 191.30837716112765,0.6860780570497619 z" id="c18087"/>
		<path d="M 161.0594461809558,0.5759350400769284 L 181.42493162389977,0.6979356821244072 L 181.42703714360547,0.6979347662647358 L 191.30837716112765,0.6860780570497619 L 191.6873639927153,24.34380723818036 L 191.7821411915099,33.017876413928775 L 161.1620012438308,33.05548467302285 L 161.1650509582324,28.708694134235785 L 161.0594461809558,0.5759350400769284 z" id="c18039"/>
		<path d="M 136.66387056683774,120.59559644581066 L 152.67798146828505,120.57604706845682 L 164.27950867636184,120.4833736704794 L 175.72639106689817,120.37860616245628 L 175.80770084727988,136.28555046605922 L 160.58972321323432,136.4043696651077 L 146.62468302078162,136.55676122161765 L 146.59176653022703,139.48988780393873 L 141.55293281534344,133.63403985710784 L 136.45663389180925,133.58111300505763 L 136.66387056683774,120.59559644581066 z" id="c18067"/>
		<path d="M 111.46206067283451,243.2188823563973 L 115.73948185140166,242.17240557412148 L 117.22016501928766,242.85952565476478 L 135.14908916766737,243.0741889021417 L 135.80439961751,272.29184008362813 L 139.86434257629196,272.2784717374566 L 139.87431740908383,278.08717818752245 L 111.33584799847966,277.6722361390792 L 111.47346804835391,260.29399912917074 L 111.46206067283451,243.2188823563973 z" id="c18105"/>
		<path d="M 111.39899957939573,184.38547972239454 L 137.6325854064895,184.51031339380276 L 139.8688686173431,184.52840297729932 L 139.8971158518648,190.32940928405932 L 139.71627896182642,194.6850781339578 L 139.64960073623433,213.78958110795824 L 138.9081064348309,213.8033464793116 L 128.82624579643087,213.9167502425561 L 128.82543197294734,216.85083168744774 L 114.00892231811065,216.64060885292156 L 115.08462830578321,214.98446911350595 L 111.65661416251967,213.70219160017336 L 111.32780667951495,190.19322851739506 L 111.39899957939573,184.38547972239454 z" id="c18063"/>
		<path d="M 207.42545449250753,111.54253609925668 L 216.1433538494828,111.43446139281708 L 215.9399720682651,85.0952024333292 L 235.88230866571175,84.91563269071652 L 236.53058294497222,119.96790918474359 L 226.38642961200202,120.12922705296411 L 211.904008190067,120.22467985951572 L 207.58544849363574,120.23372247947971 L 207.42545449250753,111.54253609925668 z" id="c18179"/>
		<path d="M 192.52306751164593,76.59636508451581 L 215.9359239900681,76.25360241408899 L 215.9399720682651,85.0952024333292 L 216.1433538494828,111.43446139281708 L 207.42545449250753,111.54253609925668 L 192.93343548194755,111.61072906981526 L 192.52306751164593,76.59636508451581 z" id="c18069"/>
		<path d="M 111.69333429010243,155.14740566590356 L 112.02162337214291,133.31027983332 L 136.45663389180925,133.58111300505763 L 141.55293281534344,133.63403985710784 L 146.59176653022703,139.48988780393873 L 146.50795699810917,155.31516955068483 L 146.51421658883203,158.83033039265712 L 137.73791990286236,159.03542303532407 L 134.47648364619266,159.1014629399383 L 111.63898326111163,158.72786990915733 L 111.69333429010243,155.14740566590356 z" id="c18023"/>
		<path d="M 95.14689678251956,52.385886989718514 L 99.71355114943292,49.66666882906855 L 103.933684971004,48.826259010218905 L 109.64201981400713,44.063915335809114 L 117.13513294878803,33.02577263175028 L 126.02872261269222,33.09519379631288 L 130.41449462191486,33.12896384084148 L 130.1392210888716,59.35631715626065 L 95.0460537028343,58.852312005878126 L 95.14689678251956,52.385886989718514 z" id="c18149"/>
		<path d="M 49.832308062414555,58.66562497092071 L 59.89425678200488,59.20250270202594 L 68.9345049024148,53.778782138445486 L 68.69875279792774,102.12975696325844 L 48.955185138755276,101.71018772684613 L 49.30222891321086,85.7954588282452 L 49.51297385134439,74.28632493134818 L 49.53965271073931,72.83200639712457 L 49.832308062414555,58.66562497092071 z" id="c18111"/>
		<path d="M 226.76674969844026,189.65890111279316 L 226.65764417927625,176.55258789798498 L 256.82942849403895,176.2740616920474 L 256.81733750417845,185.1136870468342 L 256.7898544457275,204.1952550094548 L 240.65419697606953,204.07302761611325 L 239.73177576143019,205.52490537130092 L 228.07703058810853,205.52198513813406 L 225.25097057056672,198.2240949395372 L 226.76674969844026,189.65890111279316 z" id="c18177"/>
		<path d="M 81.18192579126979,154.6812883824095 L 111.69333429010243,155.14740566590356 L 111.63898326111163,158.72786990915733 L 111.39899957939573,184.38547972239454 L 111.32780667951495,190.19322851739506 L 87.04250438118876,189.68453137501982 L 80.7027700756234,189.53019788886917 L 80.88133356441018,180.9335612583455 L 81.18192579126979,154.6812883824095 z" id="c18107"/>
		<path d="M 110.73919424623787,337.5824788630544 L 115.9969639963302,337.5688465899435 L 140.12839770355384,337.91640003403245 L 140.16380294291727,335.02907835202404 L 144.39260680724206,335.07634287970234 L 144.45978936507822,348.18665800370053 L 138.9747720675718,362.6325272487252 L 136.18478516184322,363.82921628857116 L 133.73745577750097,364.8777400994608 L 130.03581071685548,368.60580258180414 L 127.8905294663388,365.18536723509146 L 127.99293802463944,357.1278696012544 L 128.01137305545788,356.5919347791429 L 119.21245807852699,356.4396767399579 L 119.39248287965052,350.54812222133023 L 110.74538401603408,350.78356171415874 L 110.73919424623787,337.5824788630544 z" id="c18025"/>
		<path d="M 81.53123079493913,119.7732535780858 L 106.31325105006398,120.21111896051052 L 112.12058176576893,120.30229026932768 L 112.02162337214291,133.31027983332 L 111.69333429010243,155.14740566590356 L 81.18192579126979,154.6812883824095 L 81.45878068909197,139.45972054476206 L 81.51834564147809,128.5144769136013 L 81.53123079493913,119.7732535780858 z" id="c18157"/>
		<path d="M 219.4040660120599,224.61618495179425 L 239.7473783410171,224.42940470806238 L 241.9875925657632,224.60966573545196 L 256.8267898812405,224.7145172987568 L 256.8493815270477,237.77028319868973 L 256.82004418081266,246.4519960521703 L 256.82003647295426,246.45426059167264 L 237.60422941477955,246.39879435389204 L 225.74118711934528,246.34313168203562 L 219.63167770870575,250.39925763071906 L 219.47525765005082,231.85449780426032 L 219.4040660120599,224.61618495179425 z" id="c18047"/>
		<path d="M 175.65789785128797,111.73802254059329 L 192.93343548194755,111.61072906981526 L 207.42545449250753,111.54253609925668 L 207.58544849363574,120.23372247947971 L 207.83811833270312,139.0630723732919 L 197.54288465631438,139.04263617630312 L 175.78765265691618,139.14542016320763 L 175.80770084727988,136.28555046605922 L 175.72639106689817,120.37860616245628 L 175.65789785128797,111.73802254059329 z" id="c18053"/>
		<path d="M 226.07511068145087,0.5261284238340875 L 253.98335918309013,0.2804835577182963 L 255.42855721167894,0.26447913425045866 L 255.47791671199636,6.696214180662856 L 255.7286412233473,23.339034975050254 L 226.40544593418605,23.936593707911534 L 226.07511068145087,0.5261284238340875 z" id="c18151"/>
		<path d="M 40.190186385994316,244.3753118014056 L 41.96700585342012,241.66076184106404 L 45.6172807107901,240.98024835549802 L 45.870791139795735,228.79930433473584 L 45.883524037920985,228.02389315042313 L 46.098405331922145,214.96880131505057 L 57.730595087636075,215.13725487855967 L 71.95324362080217,215.47457431517356 L 68.70310285519496,224.09547080238116 L 68.13603196821838,250.31713680662696 L 40.515948569230204,249.75077719881588 L 40.190186385994316,244.3753118014056 z" id="c18167"/>
		<path d="M 197.54288465631438,139.04263617630312 L 207.83811833270312,139.0630723732919 L 225.0477861397677,139.00860023083237 L 225.17213635082354,146.26045011000437 L 225.62513779442924,169.30178545814408 L 197.75722416490842,169.36129847108643 L 197.54288465631438,139.04263617630312 z" id="c18035"/>
		<path d="M 146.50795699810917,155.31516955068483 L 175.78255769661646,155.13136785231993 L 175.67676917459332,182.73590802589555 L 169.876199730414,184.37317236411943 L 146.55178641722915,184.37140079930143 L 146.51421658883203,158.83033039265712 L 146.50795699810917,155.31516955068483 z" id="c18057"/>
		<path d="M 140.27267480788814,303.9297860113284 L 143.02346269755526,300.8731071194003 L 157.4401518085652,298.98932611599935 L 172.39112787433137,302.00890394896874 L 173.38493786161473,303.9531699901196 L 173.5581642071981,319.89494319026176 L 175.49769588940038,319.8496868434317 L 176.52584586527257,321.31908432044963 L 173.6092827592635,327.10652799567976 L 167.9119268057196,327.24314921203467 L 165.05456067957115,328.5776699218103 L 164.92686075059106,335.6134227560915 L 161.91448995051704,335.6468905132862 L 144.39260680724206,335.07634287970234 L 140.16380294291727,335.02907835202404 L 140.34736298171188,308.44293322346846 L 140.27267480788814,303.9297860113284 z" id="c18175"/>
		<path d="M 189.3997509153118,242.2617584965857 L 193.59392670739675,242.24569711498754 L 193.69109386439058,231.96524373336945 L 219.47525765005082,231.85449780426032 L 219.63167770870575,250.39925763071906 L 208.46633867897395,257.7216828825282 L 198.6236874876026,264.04067083789465 L 189.21833905600542,264.2354985491172 L 189.3997509153118,242.2617584965857 z" id="c18031"/>
		<path d="M 145.57763297656084,213.68341021047678 L 168.66516762986484,213.3238317822031 L 168.5785879381042,242.4951048212454 L 158.17812084106524,242.77378624682507 L 145.24810544102465,242.9543115264181 L 145.57763297656084,213.68341021047678 z" id="c18081"/>
		<path d="M 139.86434257629196,272.2784717374566 L 158.45851567724603,272.24098613846667 L 175.629847472299,273.2366541352803 L 180.46282950637777,270.47589152374456 L 180.69526579851552,296.64296326501375 L 179.9697342531888,299.40879871253395 L 174.8572078717013,304.78578301315343 L 173.38493786161473,303.9531699901196 L 172.39112787433137,302.00890394896874 L 157.4401518085652,298.98932611599935 L 143.02346269755526,300.8731071194003 L 142.775722618892,278.0914844523949 L 139.87431740908383,278.08717818752245 L 139.86434257629196,272.2784717374566 z" id="c18071"/>
		<path d="M 36.75228766064487,258.9639005617948 L 41.79480855628242,254.618722495423 L 40.58868203967486,250.94915086963206 L 40.515948569230204,249.75077719881588 L 68.13603196821838,250.31713680662696 L 67.956081893901,259.06819822839867 L 67.47543886741367,285.52482788924476 L 66.03665685778961,286.12410757724444 L 44.93622993415007,285.2937663811022 L 45.0238254500322,285.12061464565903 L 45.01047702630345,278.67751178742793 L 41.18952596128119,275.6211771938365 L 41.81726703437002,270.04963454960176 L 37.78688706262802,265.4983665791188 L 36.894222017921855,259.8612482455713 L 36.75228766064487,258.9639005617948 z" id="c18153"/>
		<path d="M 27.23648887020226,332.09133972089285 L 29.463692841517613,327.69742843046987 L 34.25187456593602,324.58972577469194 L 33.79812693825308,321.65309681243133 L 34.82771408794626,319.11407244925545 L 35.70947656344449,316.93819026774383 L 37.20561496857434,311.85728484954507 L 43.14815937446289,308.15779012656617 L 46.97026133928064,300.19560390578 L 45.32573404222186,293.26199644641633 L 44.31422865525152,290.64215659670657 L 43.41241072043615,288.30450921374677 L 44.93622993415007,285.2937663811022 L 66.03665685778961,286.12410757724444 L 67.47543886741367,285.52482788924476 L 76.18051659442295,285.72584647525855 L 78.61218158097925,286.09946404266964 L 69.4802404811694,295.5768237108804 L 67.28495588190411,294.5867762359245 L 67.38542127822994,302.03338294135244 L 64.15325059358965,307.18091334966573 L 67.0309667970923,313.16891597375604 L 66.76558017766521,321.90828841395484 L 63.02311110126483,325.1894565766694 L 58.12130206756508,322.02403102029854 L 49.360264141851054,322.7334290044184 L 46.78253686290848,326.47622665365924 L 38.44339983978426,330.8160795347712 L 26.404833450299233,333.7503049695038 L 27.23648887020226,332.09133972089285 z" id="c18083"/>
		<path d="M 47.626290377071825,150.46142190341178 L 48.33311406702594,127.78222987456255 L 81.51834564147809,128.5144769136013 L 81.45878068909197,139.45972054476206 L 69.64026664064663,145.01255544162933 L 54.470918816415505,159.12631416188904 L 56.864425307399564,163.00417154245514 L 50.41830927781123,162.88515987816902 L 47.335715488341954,160.7516927543011 L 47.626290377071825,150.46142190341178 z" id="c18171"/>
		<path d="M 111.19274678928713,286.4642036202759 L 111.33584799847966,277.6722361390792 L 139.87431740908383,278.08717818752245 L 142.775722618892,278.0914844523949 L 143.02346269755526,300.8731071194003 L 140.27267480788814,303.9297860113284 L 140.34736298171188,308.44293322346846 L 110.93016352155837,308.3311753618154 L 111.19274678928713,286.4642036202759 z" id="c18093"/>
		<path d="M 126.39137905028426,0.33147654396767123 L 128.07700359849218,0.34998192312069826 L 148.77938157774315,0.47134942301669946 L 148.7812097712394,0.47135721103138223 L 161.0594461809558,0.5759350400769284 L 161.1650509582324,28.708694134235785 L 130.41672276488313,28.766915192733542 L 130.41449462191486,33.12896384084148 L 126.02872261269222,33.09519379631288 L 129.04865245569425,19.317298060581212 L 126.09716539315637,11.274942396240077 L 126.39137905028426,0.33147654396767123 z" id="c18141"/>
		<path d="M 53.95267186906296,179.63165649725215 L 56.864425307399564,163.00417154245514 L 54.470918816415505,159.12631416188904 L 69.64026664064663,145.01255544162933 L 81.45878068909197,139.45972054476206 L 81.18192579126979,154.6812883824095 L 80.88133356441018,180.9335612583455 L 55.475429079744224,180.536870022073 L 53.95267186906296,179.63165649725215 z" id="c18045"/>
		<path d="M 80.08148402807188,325.15534228170463 L 89.86938384256416,327.7293567683879 L 91.73943618052459,326.2607466577695 L 94.526009485154,327.33829124773285 L 98.59747943795873,324.23477264231883 L 110.81091076193103,324.38896898431324 L 110.73919424623787,337.5824788630544 L 110.74538401603408,350.78356171415874 L 101.82622095744327,352.08259980302074 L 101.82444847229132,356.49065263785843 L 83.94733197785325,356.40714622380557 L 79.59551155768511,353.4331682170808 L 80.08148402807188,325.15534228170463 z" id="c18037"/>
		<path d="M 135.14908916766737,243.0741889021417 L 145.24810544102465,242.9543115264181 L 158.17812084106524,242.77378624682507 L 158.56895475848472,269.2970600787192 L 158.45851567724603,272.24098613846667 L 139.86434257629196,272.2784717374566 L 135.80439961751,272.29184008362813 L 135.14908916766737,243.0741889021417 z" id="c18013"/>
		<path d="M 219.02748236205522,198.3394973619191 L 225.25097057056672,198.2240949395372 L 228.07703058810853,205.52198513813406 L 239.73177576143019,205.52490537130092 L 239.7473783410171,224.42940470806238 L 219.4040660120599,224.61618495179425 L 219.02748236205522,198.3394973619191 z" id="c18041"/>
		<path d="M 92.2656631298537,294.997587097793 L 93.84972376227569,286.2993864146424 L 111.19274678928713,286.4642036202759 L 110.93016352155837,308.3311753618154 L 110.81091076193103,324.38896898431324 L 98.59747943795873,324.23477264231883 L 94.526009485154,327.33829124773285 L 91.73943618052459,326.2607466577695 L 92.2656631298537,294.997587097793 z" id="c18101"/>
		<path d="M 191.6873639927153,24.34380723818036 L 226.40544593418605,23.936593707911534 L 226.69946377483933,50.234042052809 L 217.94553932801057,50.2811498092991 L 200.58460408196296,50.11413136689846 L 191.90372951831156,47.266612721251185 L 191.80460504642312,41.60858718754703 L 191.7821411915099,33.017876413928775 L 191.6873639927153,24.34380723818036 z" id="c18113"/>
		<path d="M 152.6639298063841,77.10961185297424 L 169.533762978204,76.87441915465371 L 169.95011104878336,111.79313282462674 L 175.65789785128797,111.73802254059329 L 175.72639106689817,120.37860616245628 L 164.27950867636184,120.4833736704794 L 152.67798146828505,120.57604706845682 L 152.57220289353552,85.75963960384203 L 152.6639298063841,77.10961185297424 z" id="c18103"/>
		<path d="M 146.62468302078162,136.55676122161765 L 160.58972321323432,136.4043696651077 L 175.80770084727988,136.28555046605922 L 175.78765265691618,139.14542016320763 L 175.78255769661646,155.13136785231993 L 146.50795699810917,155.31516955068483 L 146.59176653022703,139.48988780393873 L 146.62468302078162,136.55676122161765 z" id="c18159"/>
		<path d="M 193.35511767915781,198.53715933767188 L 196.18415601834388,198.5012445425601 L 219.02748236205522,198.3394973619191 L 219.4040660120599,224.61618495179425 L 219.47525765005082,231.85449780426032 L 193.69109386439058,231.96524373336945 L 193.3787419851177,207.3313337842719 L 193.35511767915781,198.53715933767188 z" id="c18139"/>
		<path d="M 168.66516762986484,213.3238317822031 L 168.71171465956553,207.42967998629962 L 193.3787419851177,207.3313337842719 L 193.69109386439058,231.96524373336945 L 193.59392670739675,242.24569711498754 L 189.3997509153118,242.2617584965857 L 168.5785879381042,242.4951048212454 L 168.66516762986484,213.3238317822031 z" id="c18145"/>
		<path d="M 232.3535615593457,284.2923541811842 L 232.60298056972476,282.4385956632299 L 235.38888351582986,283.6952970046121 L 243.0880096240139,277.5087178626738 L 252.4874723553969,273.9523375819399 L 254.71389269155495,276.9744374313349 L 256.0664650879967,280.9185730570555 L 252.56877261660938,285.0704844221162 L 253.61868656817387,285.71431615161896 L 253.13498930954256,287.01570298861395 L 232.01803734149385,286.9392576892454 L 232.3535615593457,284.2923541811842 z" id="c18115"/>
		<path d="M 73.69378222024936,12.702453690329595 L 81.02669867772917,10.68248468575437 L 88.43327789147129,8.359932588852635 L 95.6414722701743,4.272945355129532 L 95.14689678251956,52.385886989718514 L 92.24095852108498,54.06231962886013 L 79.99444226696788,47.18773465281167 L 73.29433943056351,51.5073158591032 L 73.69378222024936,12.702453690329595 z" id="c18127"/>
		<path d="M 232.60298056972476,282.4385956632299 L 237.60422941477955,246.39879435389204 L 256.82003647295426,246.45426059167264 L 256.79327284361307,254.2667323000657 L 256.90732378057214,266.47177248501407 L 253.76575950276296,269.24138929748636 L 250.93696026742703,271.8457983216249 L 252.4874723553969,273.9523375819399 L 243.0880096240139,277.5087178626738 L 235.38888351582986,283.6952970046121 L 232.60298056972476,282.4385956632299 z" id="c18029"/>
		<path d="M 138.9747720675718,362.6325272487252 L 144.45978936507822,348.18665800370053 L 144.39260680724206,335.07634287970234 L 161.91448995051704,335.6468905132862 L 161.90016910588523,344.39131387463897 L 167.98417515182814,351.4452556308623 L 167.7748588114263,358.9048949167128 L 172.65166056314968,359.5345177110984 L 171.90190199164795,366.4342890062539 L 170.51461428380333,374.68870940099185 L 168.18471223881605,376.0589850236828 L 166.25415959210244,377.1934495767045 L 164.55862557745985,378.42389751189114 L 161.69209683335777,380.5023183532797 L 156.76042226540625,376.6175379752574 L 147.99126970915296,375.27426456873525 L 142.31582485366454,367.55781005737344 L 138.9747720675718,362.6325272487252 z" id="c18061"/>
		<path d="M 159.65447967339622,59.41870004549993 L 161.43181896207045,59.075851345350614 L 161.1620012438308,33.05548467302285 L 191.7821411915099,33.017876413928775 L 191.80460504642312,41.60858718754703 L 191.90372951831156,47.266612721251185 L 189.28065221163172,58.93966101782773 L 189.45931111137227,72.14288384834593 L 180.98372636627872,72.44944074161685 L 169.6142349208716,72.49425777434728 L 159.73516895926713,68.24318186521235 L 159.65447967339622,59.41870004549993 z" id="c18085"/>
		<path d="M 68.13603196821838,250.31713680662696 L 68.70310285519496,224.09547080238116 L 71.95324362080217,215.47457431517356 L 86.37096022101578,215.94120313579324 L 86.0598193107405,229.0951595088751 L 91.85237613176383,229.20217068716985 L 91.47262537520493,242.36346480459076 L 82.81882418249728,242.17799898408623 L 82.4780012706138,259.67508148074234 L 67.956081893901,259.06819822839867 L 68.13603196821838,250.31713680662696 z" id="c18021"/>
		<path d="M 0.6547026884063673,388.51477910778124 L 2.197694478683878,386.0384096344565 L 4.324560726410906,379.08979598623637 L 3.344073796402428,372.1293691740302 L 6.7458181880380454,369.7195515869495 L 8.96135908830489,365.3144891650362 L 11.840381355083549,360.179903417054 L 8.127431182408898,355.48523876696294 L 8.652822050060864,352.24444628098155 L 22.17362061004207,352.7381306632538 L 30.887740144101908,355.69976097420476 L 30.803330910625647,358.9657092759302 L 29.25511056467565,385.9635758006803 L 28.208070331623333,387.52541938741734 L 27.399697122091013,386.6080620923445 L 20.657796236635843,388.1479787176434 L 15.63911931122016,383.43646581137546 L 11.69993930097236,384.6575652391336 L 11.389937523941283,385.48194111665 L 10.307695388010021,388.35853483961034 L 12.908220101208205,393.7263069755676 L 10.290631654344581,396.47757986930304 L 7.534519232771021,397.197249386353 L 2.982337052871163,395.341472875274 L 0.0,389.56496219270247 L 0.6547026884063673,388.51477910778124 z" id="c18129"/>
		<path d="M 168.61084450348525,191.4898541805117 L 169.82168471985415,190.12054989838865 L 169.876199730414,184.37317236411943 L 175.67676917459332,182.73590802589555 L 197.7709835407239,182.534588717549 L 196.19578706980093,189.83805462329843 L 196.18415601834388,198.5012445425601 L 193.35511767915781,198.53715933767188 L 193.3787419851177,207.3313337842719 L 168.71171465956553,207.42967998629962 L 168.61084450348525,191.4898541805117 z" id="c18059"/>
		<path d="M 48.37795119110366,126.34431019212796 L 48.51610093548039,121.91440780405208 L 48.955185138755276,101.71018772684613 L 68.69875279792774,102.12975696325844 L 81.5827900288975,102.35641423136528 L 81.64738308993003,104.57826457506978 L 81.53123079493913,119.7732535780858 L 81.51834564147809,128.5144769136013 L 48.33311406702594,127.78222987456255 L 48.37795119110366,126.34431019212796 z" id="c18007"/>
		<path d="M 48.29463775103886,359.6288517006094 L 60.25091770677341,356.2064269057321 L 60.340956873185355,351.76348161645524 L 61.778382920733996,353.23351548802884 L 79.59551155768511,353.4331682170808 L 83.94733197785325,356.40714622380557 L 83.82571581678663,364.95538577747584 L 79.4798337116322,364.89294850099844 L 63.6504806996468,384.0394465814305 L 63.376094016151306,388.98218402324187 L 60.73257532700605,387.1304801507618 L 58.55816678768058,385.6059474477331 L 51.731794813838675,381.8198618967105 L 49.32547190355018,382.8657324885643 L 47.58727615691586,372.67839842128586 L 48.29463775103886,359.6288517006094 z" id="c18173"/>
		<path d="M 227.08929284299379,285.9024685065201 L 232.3535615593457,284.2923541811842 L 232.01803734149385,286.9392576892454 L 253.13498930954256,287.01570298861395 L 253.61868656817387,285.71431615161896 L 256.29337553590216,287.3532806682382 L 259.75993889351406,288.82811449906546 L 258.818581019971,291.1422573306144 L 258.47023642836245,291.998164831229 L 257.77588253780834,298.4847000186855 L 254.3178753099217,298.10140467200677 L 246.04004031805422,299.39186794830266 L 241.462138056294,301.3812521201959 L 237.47999144745694,303.1084618833045 L 231.62345408812828,307.769427755783 L 228.45249083668207,308.57042241436704 L 227.309648722195,307.5907329327796 L 227.08929284299379,285.9024685065201 z" id="c18155"/>
		<path d="M 8.768067955533008,351.53328659743335 L 13.621749573856535,348.52358573917286 L 19.764284137299324,344.79213355949685 L 24.015952439895347,338.51118808497597 L 26.404833450299233,333.7503049695038 L 38.44339983978426,330.8160795347712 L 46.78253686290848,326.47622665365924 L 49.360264141851054,322.7334290044184 L 49.25936163999732,329.54181833320143 L 53.41599437190333,338.65802893177585 L 60.636564731882466,338.19173893731767 L 60.340956873185355,351.76348161645524 L 60.25091770677341,356.2064269057321 L 48.29463775103886,359.6288517006094 L 30.803330910625647,358.9657092759302 L 30.887740144101908,355.69976097420476 L 22.17362061004207,352.7381306632538 L 8.652822050060864,352.24444628098155 L 8.768067955533008,351.53328659743335 z" id="c18051"/>
		<path d="M 64.15325059358965,307.18091334966573 L 67.38542127822994,302.03338294135244 L 67.28495588190411,294.5867762359245 L 69.4802404811694,295.5768237108804 L 78.61218158097925,286.09946404266964 L 83.57239748644704,286.32743267121884 L 93.84972376227569,286.2993864146424 L 92.2656631298537,294.997587097793 L 91.73943618052459,326.2607466577695 L 89.86938384256416,327.7293567683879 L 80.08148402807188,325.15534228170463 L 77.33865944314442,322.80621282929286 L 66.76558017766521,321.90828841395484 L 67.0309667970923,313.16891597375604 L 64.15325059358965,307.18091334966573 z" id="c18027"/>
		<path d="M 114.61617782758805,220.208983238174 L 114.00892231811065,216.64060885292156 L 128.82543197294734,216.85083168744774 L 128.82624579643087,213.9167502425561 L 138.9081064348309,213.8033464793116 L 139.64960073623433,213.78958110795824 L 145.57763297656084,213.68341021047678 L 145.24810544102465,242.9543115264181 L 135.14908916766737,243.0741889021417 L 117.22016501928766,242.85952565476478 L 115.73948185140166,242.17240557412148 L 115.75539552507696,232.73365924047232 L 111.60598481890558,229.78250832058947 L 114.61617782758805,220.208983238174 z" id="c18109"/>
		<path d="M 86.37096022101578,215.94120313579324 L 87.04250438118876,189.68453137501982 L 111.32780667951495,190.19322851739506 L 111.65661416251967,213.70219160017336 L 115.08462830578321,214.98446911350595 L 114.00892231811065,216.64060885292156 L 114.61617782758805,220.208983238174 L 111.60598481890558,229.78250832058947 L 91.85237613176383,229.20217068716985 L 86.0598193107405,229.0951595088751 L 86.37096022101578,215.94120313579324 z" id="c18133"/>
		<path d="M 50.1067893752655,45.418216073806285 L 50.57987741309499,28.15946756702686 L 50.74347824904393,22.197212958510175 L 51.196826550129465,4.285517031693879 L 55.128330940784295,7.931303603460208 L 59.29000283714616,6.477113576472678 L 62.961461363197884,12.435057153634663 L 70.76303397550791,13.507110616930163 L 73.69378222024936,12.702453690329595 L 73.29433943056351,51.5073158591032 L 68.9345049024148,53.778782138445486 L 59.89425678200488,59.20250270202594 L 49.832308062414555,58.66562497092071 L 50.10652842131259,45.43079269863962 L 50.1067893752655,45.418216073806285 z" id="c18089"/>
		<path d="M 130.41672276488313,28.766915192733542 L 161.1650509582324,28.708694134235785 L 161.1620012438308,33.05548467302285 L 161.43181896207045,59.075851345350614 L 159.65447967339622,59.41870004549993 L 130.1392210888716,59.35631715626065 L 130.41449462191486,33.12896384084148 L 130.41672276488313,28.766915192733542 z" id="c18099"/>
		<path d="M 49.360264141851054,322.7334290044184 L 58.12130206756508,322.02403102029854 L 63.02311110126483,325.1894565766694 L 66.76558017766521,321.90828841395484 L 77.33865944314442,322.80621282929286 L 80.08148402807188,325.15534228170463 L 79.59551155768511,353.4331682170808 L 61.778382920733996,353.23351548802884 L 60.340956873185355,351.76348161645524 L 60.636564731882466,338.19173893731767 L 53.41599437190333,338.65802893177585 L 49.25936163999732,329.54181833320143 L 49.360264141851054,322.7334290044184 z" id="c18125"/>
		<path d="M 225.0477861397677,139.00860023083237 L 226.04111869970467,138.24995836602926 L 226.02238619656822,128.94223938338345 L 226.46389364858607,127.2900006371007 L 226.38642961200202,120.12922705296411 L 236.53058294497222,119.96790918474359 L 256.8720695903728,119.4006544722479 L 256.9310955124497,126.46034553487867 L 256.9374229782596,130.11292494471516 L 256.95660331630467,141.39868790871984 L 256.95656610207914,141.4068881839224 L 256.93709117124087,145.68566397242577 L 225.17213635082354,146.26045011000437 L 225.0477861397677,139.00860023083237 z" id="c18075"/>
		<path d="M 235.88230866571175,84.91563269071652 L 256.5066370400864,84.26794758060974 L 256.7408878732059,103.76236200763809 L 256.7409022589336,103.76407307855219 L 256.8720695903728,119.4006544722479 L 236.53058294497222,119.96790918474359 L 235.88230866571175,84.91563269071652 z" id="c18001"/>
		<path d="M 121.18987632664258,85.39624143032295 L 129.787326242936,85.58449625555437 L 152.57220289353552,85.75963960384203 L 152.67798146828505,120.57604706845682 L 136.66387056683774,120.59559644581066 L 136.83799899225227,107.45017734902633 L 125.26361514190965,107.35119554125446 L 120.99072241491243,102.96099212538084 L 121.18987632664258,85.39624143032295 z" id="c18017"/>
		<path d="M 158.17812084106524,242.77378624682507 L 168.5785879381042,242.4951048212454 L 189.3997509153118,242.2617584965857 L 189.21833905600542,264.2354985491172 L 180.39120739476388,264.42473374311777 L 180.46282950637777,270.47589152374456 L 175.629847472299,273.2366541352803 L 158.45851567724603,272.24098613846667 L 158.56895475848472,269.2970600787192 L 158.17812084106524,242.77378624682507 z" id="c18005"/>
		<path d="M 189.44224078844843,295.85822549794534 L 195.1858970090899,294.97075783935077 L 200.85040538583013,286.146601815043 L 208.15764377597088,286.05428203283833 L 227.08929284299379,285.9024685065201 L 227.309648722195,307.5907329327796 L 224.39888344637137,305.093488136081 L 221.50192676123203,303.23409426419175 L 217.01467928037047,303.88893624766115 L 216.36237839712823,303.9838859003237 L 211.68792483347758,303.7897877885831 L 207.89479151571956,306.0664803219082 L 208.7030620683694,311.4824475191923 L 208.92057553164537,317.5992615310736 L 209.29761725657153,318.8018207377805 L 204.16020126839712,316.7632192902666 L 198.39383075659873,316.829831959572 L 198.31152071272135,309.55742432648543 L 189.4800948344089,303.7447646043431 L 189.44224078844843,295.85822549794534 z" id="c18077"/>
		<path d="M 165.05456067957115,328.5776699218103 L 167.9119268057196,327.24314921203467 L 173.6092827592635,327.10652799567976 L 176.52584586527257,321.31908432044963 L 180.80618536953773,316.9613574303821 L 186.61622925949663,316.8942772785064 L 198.39383075659873,316.829831959572 L 204.16020126839712,316.7632192902666 L 209.29761725657153,318.8018207377805 L 210.55290573458802,322.8025157631436 L 209.19102157592582,325.0331678609308 L 209.17818204445186,325.05419008805234 L 205.93665606697823,327.0504151250486 L 204.01249301237547,330.6458854558233 L 197.0088963375337,332.43416436763374 L 194.34099600188327,335.78444483168624 L 193.33142715804172,339.66293152353944 L 192.4045705291003,343.21987160350915 L 189.45446501889379,347.97573410452554 L 184.12777135551465,350.73916328421745 L 180.68782853018934,349.7243909654915 L 183.35528230388852,342.48434738605346 L 179.664782620749,337.0443868737444 L 164.92686075059106,335.6134227560915 L 165.05456067957115,328.5776699218103 z" id="c18019"/>
		<path d="M 55.475429079744224,180.536870022073 L 80.88133356441018,180.9335612583455 L 80.7027700756234,189.53019788886917 L 87.04250438118876,189.68453137501982 L 86.37096022101578,215.94120313579324 L 71.95324362080217,215.47457431517356 L 57.730595087636075,215.13725487855967 L 56.7653816040391,210.6122684925195 L 60.42498895059351,189.69746722504524 L 55.475429079744224,180.536870022073 z" id="c18121"/>
		<path d="M 108.15568061509254,102.78863116943825 L 120.99072241491243,102.96099212538084 L 125.26361514190965,107.35119554125446 L 136.83799899225227,107.45017734902633 L 136.66387056683774,120.59559644581066 L 136.45663389180925,133.58111300505763 L 112.02162337214291,133.31027983332 L 112.12058176576893,120.30229026932768 L 106.31325105006398,120.21111896051052 L 108.15568061509254,102.78863116943825 z" id="c18015"/>
		<path d="M 130.1392210888716,59.35631715626065 L 159.65447967339622,59.41870004549993 L 159.73516895926713,68.24318186521235 L 169.6142349208716,72.49425777434728 L 169.533762978204,76.87441915465371 L 152.6639298063841,77.10961185297424 L 152.57220289353552,85.75963960384203 L 129.787326242936,85.58449625555437 L 130.1392210888716,59.35631715626065 z" id="c18049"/>
		<path d="M 68.9345049024148,53.778782138445486 L 73.29433943056351,51.5073158591032 L 79.99444226696788,47.18773465281167 L 92.24095852108498,54.06231962886013 L 95.14689678251956,52.385886989718514 L 95.0460537028343,58.852312005878126 L 94.62377958966746,84.91563365369596 L 90.31147943931957,84.87609152479304 L 90.2752873372566,92.32379114402424 L 81.64140852940739,92.21962740569158 L 81.5827900288975,102.35641423136528 L 68.69875279792774,102.12975696325844 L 68.9345049024148,53.778782138445486 z" id="c18073"/>
		<path d="M 63.6504806996468,384.0394465814305 L 79.4798337116322,364.89294850099844 L 83.82571581678663,364.95538577747584 L 83.94733197785325,356.40714622380557 L 101.82444847229132,356.49065263785843 L 100.58028526539614,362.69213247423255 L 103.07440543578484,377.262303031477 L 100.93891362958085,375.51264426472443 L 99.81256570335586,377.42787678619385 L 94.84484274498604,379.89775907463894 L 90.68023669390597,383.43293061525287 L 86.69829195025771,384.3059978844046 L 84.10333433268607,384.8736977702822 L 81.43812771067013,389.30811605647244 L 80.1921864838199,394.0610016995639 L 76.30136083123432,400.0 L 73.8266018984137,395.98798647435416 L 70.49730681426823,392.5148465109 L 64.56499489500783,389.8143533340527 L 63.376094016151306,388.98218402324187 L 63.6504806996468,384.0394465814305 z" id="c18147"/>
		<path d="M 99.81256570335586,377.42787678619385 L 100.93891362958085,375.51264426472443 L 103.07440543578484,377.262303031477 L 100.58028526539614,362.69213247423255 L 101.82444847229132,356.49065263785843 L 101.82622095744327,352.08259980302074 L 110.74538401603408,350.78356171415874 L 119.39248287965052,350.54812222133023 L 119.21245807852699,356.4396767399579 L 128.01137305545788,356.5919347791429 L 127.99293802463944,357.1278696012544 L 127.8905294663388,365.18536723509146 L 130.03581071685548,368.60580258180414 L 129.99813210471905,368.6437213124354 L 126.96388238204806,372.68224320078656 L 125.68155222530467,372.9269049986346 L 122.99959143772476,373.4378357559488 L 122.66928233104551,380.46151032450496 L 123.8642364171463,387.02210583331055 L 116.68232126701537,386.56609750401117 L 115.40703760907665,391.9558784361448 L 112.91727662158414,390.72206425641775 L 111.99466160075583,390.2645387040847 L 106.94599821789049,387.8763023170171 L 102.43566051980113,381.4207573002265 L 100.03182762443576,377.31874823450437 L 99.81256570335586,377.42787678619385 z" id="c18123"/>
		<path d="M 46.668796385867644,187.32526404240807 L 46.949780469405425,174.43179093759187 L 47.335715488341954,160.7516927543011 L 50.41830927781123,162.88515987816902 L 56.864425307399564,163.00417154245514 L 53.95267186906296,179.63165649725215 L 55.475429079744224,180.536870022073 L 60.42498895059351,189.69746722504524 L 56.7653816040391,210.6122684925195 L 57.730595087636075,215.13725487855967 L 46.098405331922145,214.96880131505057 L 46.19371719694925,209.19662862975548 L 46.668796385867644,187.32526404240807 z" id="c18165"/>
		<path d="M 29.25511056467565,385.9635758006803 L 30.803330910625647,358.9657092759302 L 48.29463775103886,359.6288517006094 L 47.58727615691586,372.67839842128586 L 49.32547190355018,382.8657324885643 L 46.30474852590867,384.1771268151985 L 41.15933863428379,383.5534091383538 L 36.56173409818576,386.12898017210796 L 35.08315852796687,390.7989119609973 L 30.65809697340624,390.30375396159377 L 28.208070331623333,387.52541938741734 L 29.25511056467565,385.9635758006803 z" id="c18163"/>
		<path d="M 207.58544849363574,120.23372247947971 L 211.904008190067,120.22467985951572 L 226.38642961200202,120.12922705296411 L 226.46389364858607,127.2900006371007 L 226.02238619656822,128.94223938338345 L 226.04111869970467,138.24995836602926 L 225.0477861397677,139.00860023083237 L 207.83811833270312,139.0630723732919 L 207.58544849363574,120.23372247947971 z" id="c18009"/>
		<path d="M 169.6142349208716,72.49425777434728 L 180.98372636627872,72.44944074161685 L 189.45931111137227,72.14288384834593 L 189.53308901049462,76.63618391295192 L 192.52306751164593,76.59636508451581 L 192.93343548194755,111.61072906981526 L 175.65789785128797,111.73802254059329 L 169.95011104878336,111.79313282462674 L 169.533762978204,76.87441915465371 L 169.6142349208716,72.49425777434728 z" id="c18169"/>
	</g>
</svg>