<?xml version="1.0" encoding="UTF-8"?>
<svg baseProfile="full" fill="#d0d0d0" height="261.4564497579893" stroke="#ffffff" stroke-width="1" version="1.1" width="400.0" xmlns="http://www.w3.org/2000/svg" xmlns:ev="http://www.w3.org/2001/xml-events" xmlns:xlink="http://www.w3.org/1999/xlink">
	<defs/>
	<g id="counties"><path d="M 105.15707994651926,51.81048182037248 L 133.9582772193868,52.33609218963472 L 133.71322087235953,74.20959920797529 L 133.63898907278792,81.39060379790148 L 104.64799121802251,80.87573669367058 L 105.15707994651926,51.81048182037248 z" id="c19151"/>
		<path d="M 249.19999739221137,26.97539453209553 L 278.0161930759783,26.572530762116877 L 278.1825281869012,37.403286590775004 L 278.3953136790773,52.0295161009443 L 249.48696039026743,52.414170142422854 L 249.19999739221137,26.97539453209553 z" id="c19037"/>
		<path d="M 278.0161930759783,26.572530762116877 L 277.69658479219066,2.6217411419314463 L 293.1445452472476,2.3485878797126327 L 298.87812002459555,2.2348931502624443 L 306.1111444723285,2.0825630822377805 L 307.20573846138035,36.945383966813665 L 278.1825281869012,37.403286590775004 L 278.0161930759783,26.572530762116877 z" id="c19191"/>
		<path d="M 295.3643654887707,138.6835607387786 L 324.27911662069977,138.19969873004922 L 324.7987565906134,159.95611587650373 L 325.02635079742686,174.52314696425174 L 317.79987012638213,174.63973653405782 L 315.39279955008834,167.44530850278073 L 296.0575331965398,167.8139699942048 L 295.3643654887707,138.6835607387786 z" id="c19103"/>
		<path d="M 191.7200783144603,52.61219496341566 L 220.68143162924733,52.61304367186962 L 220.72659040099592,81.79502291223 L 191.66715791969145,81.80007882920134 L 191.7200783144603,52.61219496341566 z" id="c19069"/>
		<path d="M 134.26013997190904,23.464810901308997 L 134.4990747843421,3.0335082790287813 L 137.66546732202616,3.0676720368871853 L 146.30834921626533,3.1735175091682053 L 163.10676490199344,3.3386946965486763 L 163.01771825072532,23.66985156006693 L 162.81093561086524,52.59652362507486 L 133.9582772193868,52.33609218963472 L 134.26013997190904,23.464810901308997 z" id="c19109"/>
		<path d="M 236.83220316616956,103.32304101464787 L 251.3171068936893,103.15492091573624 L 265.80971802122065,102.93057085326046 L 266.3480786509522,139.0851897966877 L 237.26613214576838,139.44258411398505 L 236.9315405321969,110.52068373139443 L 236.83220316616956,103.32304101464787 z" id="c19171"/>
		<path d="M 274.578332895621,197.190148310758 L 289.30405984496986,196.8706376769882 L 303.72534925306775,196.65789659556418 L 304.0367737857179,218.41730445740694 L 274.96700095683696,219.0495071857857 L 274.578332895621,197.190148310758 z" id="c19101"/>
		<path d="M 73.2337619016751,196.75739975295392 L 87.58818965439781,197.11400511896505 L 101.92903530258421,197.42875550815913 L 101.52217157753437,218.86473327864948 L 72.72945902044133,218.24167510036546 L 73.2337619016751,196.75739975295392 z" id="c19137"/>
		<path d="M 201.08903590351227,139.56605481185264 L 208.30515537867336,139.58130794416996 L 237.26613214576838,139.44258411398505 L 237.4018615154072,161.14846546176264 L 238.10746742435572,168.83969793521587 L 230.92512779040632,168.91896495090685 L 202.34825201387233,169.10841587726736 L 201.0804533074444,161.36275344824827 L 201.08903590351227,139.56605481185264 z" id="c19099"/>
		<path d="M 130.64256520174115,197.9029406412211 L 145.03013326674144,198.0804748582951 L 159.32284980547266,198.21458480041602 L 159.15645307389636,219.80972293297194 L 130.39203696919455,219.35862417332598 L 130.64256520174115,197.9029406412211 z" id="c19175"/>
		<path d="M 265.80971802122065,102.93057085326046 L 280.2599166585248,102.73385707763464 L 294.6847395784857,102.326361584877 L 295.3643654887707,138.6835607387786 L 266.3480786509522,139.0851897966877 L 265.80971802122065,102.93057085326046 z" id="c19011"/>
		<path d="M 278.3953136790773,52.0295161009443 L 278.1825281869012,37.403286590775004 L 307.20573846138035,36.945383966813665 L 307.891374317914,73.35764812568073 L 278.74907823481465,74.07192670069249 L 278.3953136790773,52.0295161009443 z" id="c19065"/>
		<path d="M 133.9582772193868,52.33609218963472 L 162.81093561086524,52.59652362507486 L 162.66312600884999,74.48306438627678 L 133.71322087235953,74.20959920797529 L 133.9582772193868,52.33609218963472 z" id="c19091"/>
		<path d="M 145.27856840081225,169.26602975433343 L 166.83067716632087,169.4553781665799 L 173.4714545925604,168.74835900873083 L 173.4632316845264,197.84144230016813 L 166.5731853418532,198.26527477489546 L 159.32284980547266,198.21458480041602 L 145.03013326674144,198.0804748582951 L 145.27856840081225,169.26602975433343 z" id="c19121"/>
		<path d="M 220.72659040099592,81.79502291223 L 249.7992512696381,81.63746246112672 L 251.1264891967924,88.79941035627901 L 251.3171068936893,103.15492091573624 L 236.83220316616956,103.32304101464787 L 236.9315405321969,110.52068373139443 L 222.44983294320525,110.69576257976277 L 222.24965112099088,88.95525819643484 L 220.72659040099592,81.79502291223 z" id="c19075"/>
		<path d="M 143.12462066721505,139.36544924383125 L 150.34847386700918,139.40505604601833 L 172.00817899673794,139.51250121902493 L 172.0186243079576,161.3806835282086 L 173.4714545925604,168.74835900873083 L 166.83067716632087,169.4553781665799 L 145.27856840081225,169.26602975433343 L 145.36233608614364,161.17610302936617 L 142.9470568469955,161.12662231219323 L 143.12462066721505,139.36544924383125 z" id="c19049"/>
		<path d="M 5.582988473010447,20.292423229520008 L 7.291589736839373,20.17159167317311 L 47.970044477032275,21.61281125441508 L 47.33780381211589,50.60639034976264 L 5.696145757239209,49.355164462576944 L 5.662442309374433,48.1899589269529 L 8.297170483584575,45.216184524549725 L 7.132043625694057,43.65611116078976 L 8.89312260842287,41.431706461832306 L 7.839118303136315,38.494457170683404 L 11.175237940995945,36.30852859094862 L 11.589782928942327,35.07367605292936 L 12.456044036667091,32.49142352901282 L 11.349967599852798,30.002382411075537 L 10.55295374116113,23.50480419181056 L 7.723198649643321,23.415035096716412 L 5.921665615212723,21.16003905675074 L 5.582988473010447,20.292423229520008 z" id="c19167"/>
		<path d="M 7.479952192767276,81.99389637776531 L 8.575583488268569,78.80205709770291 L 8.401794489775105,78.35944221567122 L 46.51629477922871,79.58841223073854 L 53.79296751624381,79.72558984883781 L 53.59478777272806,86.91213568619742 L 58.061043735936046,87.0437136681354 L 57.4187776762382,108.93104970120768 L 16.23946414478677,107.45890582415721 L 16.30569893936025,107.12215077186252 L 16.449885118920097,103.30830695594817 L 15.508584502760659,101.9385646622204 L 12.206104112057215,97.12580811195448 L 12.175698561758532,91.00856957813166 L 14.194792337760202,86.84763874686678 L 10.324068062850527,84.3094702209839 L 8.412365530226728,82.66626366085198 L 7.479952192767276,81.99389637776531 z" id="c19193"/>
		<path d="M 105.63439326817587,23.073641056065757 L 134.26013997190904,23.464810901308997 L 133.9582772193868,52.33609218963472 L 105.15707994651926,51.81048182037248 L 105.63439326817587,23.073641056065757 z" id="c19147"/>
		<path d="M 101.92903530258421,197.42875550815913 L 116.19161684867798,197.67941824602588 L 130.64256520174115,197.9029406412211 L 130.39203696919455,219.35862417332598 L 101.52217157753437,218.86473327864948 L 101.92903530258421,197.42875550815913 z" id="c19003"/>
		<path d="M 278.74907823481465,74.07192670069249 L 307.891374317914,73.35764812568073 L 309.14273381210455,102.2503521292291 L 294.6847395784857,102.326361584877 L 280.2599166585248,102.73385707763464 L 280.06092940835356,88.51397263824255 L 278.74907823481465,74.07192670069249 z" id="c19019"/>
		<path d="M 220.68143162924733,52.61304367186962 L 249.48696039026743,52.414170142422854 L 249.70925713333352,74.44507717439392 L 249.7992512696381,81.63746246112672 L 220.72659040099592,81.79502291223 L 220.68143162924733,52.61304367186962 z" id="c19023"/>
		<path d="M 191.77935952804637,23.73807847861579 L 220.58422928083283,23.65306915143306 L 220.60678829494847,27.209126471476623 L 220.68143162924733,52.61304367186962 L 191.7200783144603,52.61219496341566 L 191.77935952804637,23.73807847861579 z" id="c19033"/>
		<path d="M 76.78219334785572,22.51207039316691 L 105.63439326817587,23.073641056065757 L 105.15707994651926,51.81048182037248 L 76.15208043582894,51.24347240113126 L 76.78219334785572,22.51207039316691 z" id="c19041"/>
		<path d="M 116.58627920422744,168.906683237381 L 145.27856840081225,169.26602975433343 L 145.03013326674144,198.0804748582951 L 130.64256520174115,197.9029406412211 L 116.19161684867798,197.67941824602588 L 116.58627920422744,168.906683237381 z" id="c19001"/>
		<path d="M 220.60678829494847,27.209126471476623 L 249.19999739221137,26.97539453209553 L 249.48696039026743,52.414170142422854 L 220.68143162924733,52.61304367186962 L 220.60678829494847,27.209126471476623 z" id="c19067"/>
		<path d="M 163.01771825072532,23.66985156006693 L 191.77935952804637,23.73807847861579 L 191.7200783144603,52.61219496341566 L 162.81093561086524,52.59652362507486 L 163.01771825072532,23.66985156006693 z" id="c19081"/>
		<path d="M 28.36608812950448,136.86006026504324 L 56.57485676825367,137.88379698701246 L 63.7532442950399,138.0332536969187 L 63.18577496423967,159.736156583058 L 66.95148011152331,159.82812712185313 L 66.7549046430645,167.83017476058228 L 35.76160896719826,166.96178191679164 L 35.15951507253307,163.85705096995991 L 30.411271447330734,165.03303062056747 L 29.78526548427149,162.27848107758265 L 28.275506889175247,157.87316812467222 L 28.825996996115947,153.30958314658358 L 29.06679298692237,152.6544893458261 L 30.447167504660076,148.89607590009527 L 32.057022654636164,143.0515796070019 L 29.476885664011153,139.03644466896165 L 28.36608812950448,136.86006026504324 z" id="c19085"/>
		<path d="M 259.63953045102977,168.55030036010493 L 266.79552349928696,168.43595093506394 L 288.7587116686943,168.00816373319654 L 289.30405984496986,196.8706376769882 L 274.578332895621,197.190148310758 L 260.1117674083213,197.45042568846705 L 259.63953045102977,168.55030036010493 z" id="c19107"/>
		<path d="M 249.48696039026743,52.414170142422854 L 278.3953136790773,52.0295161009443 L 278.74907823481465,74.07192670069249 L 249.70925713333352,74.44507717439392 L 249.48696039026743,52.414170142422854 z" id="c19017"/>
		<path d="M 304.0367737857179,218.41730445740694 L 303.72534925306775,196.65789659556418 L 318.195494448986,196.37543285734705 L 325.4483670925404,196.29894472795195 L 325.59982250955073,203.54246853837867 L 326.0445110060077,225.2791496207887 L 323.6847055012181,225.31359469244484 L 304.14753052414534,225.69534019352233 L 304.0367737857179,218.41730445740694 z" id="c19087"/>
		<path d="M 150.53362112937455,110.57267028380309 L 164.94865024243532,110.66450902939775 L 179.3678518595204,110.76405196619824 L 179.32447974015372,139.53818268652094 L 172.00817899673794,139.51250121902493 L 150.34847386700918,139.40505604601833 L 150.53362112937455,110.57267028380309 z" id="c19015"/>
		<path d="M 317.79987012638213,174.63973653405782 L 325.02635079742686,174.52314696425174 L 325.1530271716423,181.76597329992842 L 343.63500144143796,181.48405531896955 L 341.334055880868,188.50192851687825 L 343.4701682775795,191.40415873583578 L 346.08843019752345,195.34764068645472 L 348.8372815639554,195.5665295073028 L 351.5162590809046,199.77098448529364 L 351.92272539438903,202.94941921588347 L 325.59982250955073,203.54246853837867 L 325.4483670925404,196.29894472795195 L 318.195494448986,196.37543285734705 L 317.79987012638213,174.63973653405782 z" id="c19115"/>
		<path d="M 101.52217157753437,218.86473327864948 L 130.39203696919455,219.35862417332598 L 130.059994240578,246.67320763033266 L 126.08660316672997,246.64574046994787 L 119.86536918075186,246.4834182971526 L 107.95257711653638,246.15298479644272 L 101.93706900289864,245.95802680440306 L 101.28118891225455,233.26791584569796 L 101.52217157753437,218.86473327864948 z" id="c19173"/>
		<path d="M 245.94831987208565,219.4828196989551 L 274.96700095683696,219.0495071857857 L 275.299893575926,243.92348876106715 L 264.46609429800804,244.34933603004876 L 257.9444905861929,244.5953905601298 L 246.2769940636346,245.08354240913533 L 245.94831987208565,219.4828196989551 z" id="c19051"/>
		<path d="M 48.57656409850532,1.4419873772258143 L 50.18338115084086,1.4876051163482424 L 71.2435241025842,1.9875186509631506 L 73.20486643954669,2.0256251736356106 L 77.24289765302947,2.1017800887336735 L 76.78219334785572,22.51207039316691 L 47.970044477032275,21.61281125441508 L 48.57656409850532,1.4419873772258143 z" id="c19143"/>
		<path d="M 173.4714545925604,168.74835900873083 L 196.7802429294649,168.80736773470943 L 202.36396363876676,170.51394140435966 L 202.4508763459397,197.97536287388104 L 188.01878054668106,197.933979929823 L 173.4632316845264,197.84144230016813 L 173.4714545925604,168.74835900873083 z" id="c19181"/>
		<path d="M 188.06841105458588,219.79958057783384 L 217.02281253206846,219.7290450475784 L 217.16309050669545,245.8883056019397 L 214.72225360103891,245.97967329009737 L 201.4333944211722,246.2138588676404 L 199.5985436504605,246.22653910205923 L 188.0285793803999,246.29243227659344 L 188.06841105458588,219.79958057783384 z" id="c19185"/>
		<path d="M 266.3480786509522,139.0851897966877 L 295.3643654887707,138.6835607387786 L 296.0575331965398,167.8139699942048 L 288.7587116686943,168.00816373319654 L 266.79552349928696,168.43595093506394 L 266.3480786509522,139.0851897966877 z" id="c19095"/>
		<path d="M 57.4187776762382,108.93104970120768 L 78.88877199936,109.46369712933625 L 93.27073763193512,109.78984372118845 L 92.61796031490732,138.64521805370717 L 63.7532442950399,138.0332536969187 L 56.57485676825367,137.88379698701246 L 57.4187776762382,108.93104970120768 z" id="c19047"/>
		<path d="M 92.61796031490732,138.64521805370717 L 114.24701249313078,139.07957416998136 L 113.97927165570508,160.71693884137795 L 116.69156131855073,160.7551435228577 L 116.58627920422744,168.906683237381 L 95.32744079081722,168.52657834649494 L 95.47236475335042,160.42338832837825 L 92.24131250180552,160.37325565532538 L 92.61796031490732,138.64521805370717 z" id="c19009"/>
		<path d="M 307.20573846138035,36.945383966813665 L 333.45449252885004,36.424493060933585 L 333.5617253479024,39.88042235047616 L 334.6288493934106,44.11695999088719 L 334.8728286572286,45.08467113773321 L 336.10557601702794,51.04496914232847 L 338.59176769239207,54.252473421764826 L 340.51793745454904,61.60038506519015 L 343.9272985263232,66.15991275351749 L 348.6550815330523,68.99615942432882 L 351.415541617159,69.70712179642138 L 351.4589390404994,72.08665845578626 L 337.0096022415084,72.48873614377042 L 307.891374317914,73.35764812568073 L 307.20573846138035,36.945383966813665 z" id="c19043"/>
		<path d="M 88.20636103300791,168.3524295053205 L 95.32744079081722,168.52657834649494 L 116.58627920422744,168.906683237381 L 116.19161684867798,197.67941824602588 L 101.92903530258421,197.42875550815913 L 87.58818965439781,197.11400511896505 L 88.20636103300791,168.3524295053205 z" id="c19029"/>
		<path d="M 353.13318024058947,130.2446419515464 L 352.92293310600616,122.98686785059894 L 398.69938361405485,121.46107059375099 L 400.0,124.4978335304185 L 399.1749470296494,129.34176925196107 L 399.12395543240683,130.03766191741482 L 398.84186503447387,133.88242440472771 L 397.9514945109538,137.17307705900072 L 398.1022453079194,139.88606126243513 L 394.35565071018596,142.4586892432557 L 393.97531630841047,142.71956625272563 L 390.2284712938643,145.98658636051334 L 390.1986569230591,147.1261658712284 L 380.1155802236887,143.73617979361535 L 367.41674615262224,145.21026292174457 L 353.57493232499775,144.7793557713493 L 353.13318024058947,130.2446419515464 z" id="c19045"/>
		<path d="M 63.7532442950399,138.0332536969187 L 92.61796031490732,138.64521805370717 L 92.24131250180552,160.37325565532538 L 95.47236475335042,160.42338832837825 L 95.32744079081722,168.52657834649494 L 88.20636103300791,168.3524295053205 L 66.7549046430645,167.83017476058228 L 66.95148011152331,159.82812712185313 L 63.18577496423967,159.736156583058 L 63.7532442950399,138.0332536969187 z" id="c19165"/>
		<path d="M 105.91261627959739,2.636329649964742 L 108.35921741054048,2.6787910550052274 L 109.55168556324377,2.697795511073778 L 134.4990747843421,3.0335082790287813 L 134.26013997190904,23.464810901308997 L 105.63439326817587,23.073641056065757 L 105.91261627959739,2.636329649964742 z" id="c19063"/>
		<path d="M 306.1111444723285,2.0825630822377805 L 313.36885320970896,1.9197302605221236 L 329.92845657749945,1.522826962456589 L 329.153437590118,5.673444104463864 L 330.53278668929846,8.261270474683915 L 331.2516312504561,9.608779056708109 L 330.83317255442984,12.065738435417725 L 334.11080058533594,15.211915162101317 L 337.0484850291879,16.895587043508737 L 340.18484351493703,21.777493883007104 L 338.46209986376124,24.49642914874421 L 335.7271084337389,28.525255579216278 L 333.31410022546373,31.89892637612763 L 333.45449252885004,36.424493060933585 L 307.20573846138035,36.945383966813665 L 306.1111444723285,2.0825630822377805 z" id="c19005"/>
		<path d="M 188.01878054668106,197.933979929823 L 202.4508763459397,197.97536287388104 L 216.81994997762126,197.91074822661096 L 217.02281253206846,219.7290450475784 L 188.06841105458588,219.79958057783384 L 188.01878054668106,197.933979929823 z" id="c19117"/>
		<path d="M 304.14753052414534,225.69534019352233 L 323.6847055012181,225.31359469244484 L 336.6125333126125,233.24882833659012 L 342.3339861663184,234.26330055055098 L 342.23055169001265,236.49171779487347 L 338.2166555000334,239.4833106088823 L 338.1222555207402,239.5535934317408 L 334.26573091794256,239.5639103470379 L 328.5003009325589,241.78130461537413 L 326.37567506158024,244.40343855172668 L 325.1907855536072,248.42829162195196 L 326.9266861314635,250.38738427949474 L 326.2817014994553,255.25767892920624 L 326.8330453812264,259.6523804996708 L 323.9194528169358,261.4564497579893 L 318.873145045675,259.60697090078776 L 317.47755337949746,257.0694047891821 L 314.5855314172757,254.79207994562717 L 311.68933896452745,251.6080607087317 L 310.9432193966555,248.37718119607797 L 307.62512685116855,247.4622170475021 L 306.66433422891487,245.15752788527217 L 304.63979939190494,243.1329771499331 L 304.14753052414534,225.69534019352233 z" id="c19111"/>
		<path d="M 191.66715791969145,81.80007882920134 L 220.72659040099592,81.79502291223 L 222.24965112099088,88.95525819643484 L 222.44983294320525,110.69576257976277 L 208.22481049833723,110.79013782994521 L 193.92075799953392,110.78063396404376 L 193.93664314976368,89.02859968669162 L 191.66715791969145,81.80007882920134 z" id="c19083"/>
		<path d="M 114.24701249313078,139.07957416998136 L 121.467644064225,139.1474086380686 L 143.12462066721505,139.36544924383125 L 142.9470568469955,161.12662231219323 L 145.36233608614364,161.17610302936617 L 145.27856840081225,169.26602975433343 L 116.58627920422744,168.906683237381 L 116.69156131855073,160.7551435228577 L 113.97927165570508,160.71693884137795 L 114.24701249313078,139.07957416998136 z" id="c19077"/>
		<path d="M 93.27073763193512,109.78984372118845 L 107.64060138060947,110.09279396172474 L 121.83666430464271,110.3203937216859 L 121.467644064225,139.1474086380686 L 114.24701249313078,139.07957416998136 L 92.61796031490732,138.64521805370717 L 93.27073763193512,109.78984372118845 z" id="c19027"/>
		<path d="M 220.4606904134131,3.341147396662322 L 229.79747199234168,3.2825005708954564 L 249.01377810734317,3.0457423103818027 L 249.01577230503622,3.045717578467855 L 249.19999739221137,26.97539453209553 L 220.60678829494847,27.209126471476623 L 220.58422928083283,23.65306915143306 L 220.4606904134131,3.341147396662322 z" id="c19131"/>
		<path d="M 245.65257407299146,197.66600817468128 L 260.1117674083213,197.45042568846705 L 274.578332895621,197.190148310758 L 274.96700095683696,219.0495071857857 L 245.94831987208565,219.4828196989551 L 245.65257407299146,197.66600817468128 z" id="c19179"/>
		<path d="M 325.02635079742686,174.52314696425174 L 324.7987565906134,159.95611587650373 L 353.9159498328237,159.266778961311 L 361.1575638961588,159.0954925325995 L 361.37604686695727,171.03908069762926 L 356.3229016552069,171.58318393136048 L 352.81697553272755,173.79746238180385 L 350.15204637124225,173.27753996331464 L 346.3435993762152,173.92354102159567 L 344.1386866561173,178.51950465360116 L 343.8004242079875,180.9787227758231 L 343.6539442482811,181.4261943539017 L 343.63500144143796,181.48405531896955 L 325.1530271716423,181.76597329992842 L 325.02635079742686,174.52314696425174 z" id="c19139"/>
		<path d="M 230.92512779040632,168.91896495090685 L 238.10746742435572,168.83969793521587 L 259.63953045102977,168.55030036010493 L 260.1117674083213,197.45042568846705 L 245.65257407299146,197.66600817468128 L 231.23758803625293,197.8087541249624 L 230.92512779040632,168.91896495090685 z" id="c19123"/>
		<path d="M 172.00817899673794,139.51250121902493 L 179.32447974015372,139.53818268652094 L 201.08903590351227,139.56605481185264 L 201.0804533074444,161.36275344824827 L 202.34825201387233,169.10841587726736 L 202.36396363876676,170.51394140435966 L 196.7802429294649,168.80736773470943 L 173.4714545925604,168.74835900873083 L 172.0186243079576,161.3806835282086 L 172.00817899673794,139.51250121902493 z" id="c19153"/>
		<path d="M 77.24289765302947,2.1017800887336735 L 87.71615202615317,2.2848764037757023 L 105.91261627959739,2.636329649964742 L 105.63439326817587,23.073641056065757 L 76.78219334785572,22.51207039316691 L 77.24289765302947,2.1017800887336735 z" id="c19059"/>
		<path d="M 179.3678518595204,110.76405196619824 L 193.92075799953392,110.78063396404376 L 208.22481049833723,110.79013782994521 L 208.30515537867336,139.58130794416996 L 201.08903590351227,139.56605481185264 L 179.32447974015372,139.53818268652094 L 179.3678518595204,110.76405196619824 z" id="c19169"/>
		<path d="M 323.57148799380536,101.91215565758213 L 337.96794323104723,101.59604028803636 L 352.2938140280007,101.23018637877445 L 352.92293310600616,122.98686785059894 L 353.13318024058947,130.2446419515464 L 324.1222994365231,130.93763628235132 L 323.57148799380536,101.91215565758213 z" id="c19105"/>
		<path d="M 216.81994997762126,197.91074822661096 L 231.23758803625293,197.8087541249624 L 245.65257407299146,197.66600817468128 L 245.94831987208565,219.4828196989551 L 217.02281253206846,219.7290450475784 L 216.81994997762126,197.91074822661096 z" id="c19135"/>
		<path d="M 202.34825201387233,169.10841587726736 L 230.92512779040632,168.91896495090685 L 231.23758803625293,197.8087541249624 L 216.81994997762126,197.91074822661096 L 202.4508763459397,197.97536287388104 L 202.36396363876676,170.51394140435966 L 202.34825201387233,169.10841587726736 z" id="c19125"/>
		<path d="M 159.15645307389636,219.80972293297194 L 188.06841105458588,219.79958057783384 L 188.0285793803999,246.29243227659344 L 185.46394236894196,246.3037512059821 L 174.24319217758557,246.44320159331417 L 170.0217056879899,246.4897530634009 L 158.95384968191846,246.66119700848526 L 159.15645307389636,219.80972293297194 z" id="c19053"/>
		<path d="M 337.0096022415084,72.48873614377042 L 351.4589390404994,72.08665845578626 L 351.415541617159,69.70712179642138 L 354.16810759164053,70.41442763684314 L 360.89724731850833,71.80864382661096 L 363.57708860453664,73.31413301050063 L 365.43911456275885,77.40294551935273 L 367.4616505714207,83.00666736019005 L 367.322513020537,86.05566208565278 L 370.85643146309275,87.97034753673381 L 372.4306693234545,88.64581583042924 L 375.4719241053422,91.5156787562154 L 377.57745051428236,93.22601610480086 L 366.4392734223305,93.55436601351587 L 366.6441126078793,100.82628342443088 L 352.2938140280007,101.23018637877445 L 337.96794323104723,101.59604028803636 L 337.0096022415084,72.48873614377042 z" id="c19061"/>
		<path d="M 162.66312600884999,74.48306438627678 L 162.81093561086524,52.59652362507486 L 191.7200783144603,52.61219496341566 L 191.66715791969145,81.80007882920134 L 162.63212637625435,81.68493589698424 L 162.66312600884999,74.48306438627678 z" id="c19197"/>
		<path d="M 121.83666430464271,110.3203937216859 L 136.13690420877458,110.5065162237232 L 150.53362112937455,110.57267028380309 L 150.34847386700918,139.40505604601833 L 143.12462066721505,139.36544924383125 L 121.467644064225,139.1474086380686 L 121.83666430464271,110.3203937216859 z" id="c19073"/>
		<path d="M 307.891374317914,73.35764812568073 L 337.0096022415084,72.48873614377042 L 337.96794323104723,101.59604028803636 L 323.57148799380536,101.91215565758213 L 309.14273381210455,102.2503521292291 L 307.891374317914,73.35764812568073 z" id="c19055"/>
		<path d="M 159.32284980547266,198.21458480041602 L 166.5731853418532,198.26527477489546 L 173.4632316845264,197.84144230016813 L 188.01878054668106,197.933979929823 L 188.06841105458588,219.79958057783384 L 159.15645307389636,219.80972293297194 L 159.32284980547266,198.21458480041602 z" id="c19039"/>
		<path d="M 40.58317415683678,231.1962716629496 L 44.13554255851909,227.4064500119629 L 44.131708831523035,227.3424367111137 L 43.82369440604323,222.1923114642926 L 45.845798163197536,218.82981991179614 L 45.36498979362702,217.87988570084647 L 46.85963768361518,217.61370790758423 L 72.72945902044133,218.24167510036546 L 73.3244172895124,232.66765086368656 L 72.85037026456855,244.95808666846858 L 62.76081810134832,244.57205025483572 L 48.03555682523873,243.96200461628425 L 49.15300572126485,242.48167658889113 L 47.153400988828004,238.27785848036524 L 43.159984449665515,235.7318571907002 L 40.58317415683678,231.1962716629496 z" id="c19071"/>
		<path d="M 324.27911662069977,138.19969873004922 L 324.1222994365231,130.93763628235132 L 353.13318024058947,130.2446419515464 L 353.57493232499775,144.7793557713493 L 353.9159498328237,159.266778961311 L 324.7987565906134,159.95611587650373 L 324.27911662069977,138.19969873004922 z" id="c19031"/>
		<path d="M 130.39203696919455,219.35862417332598 L 159.15645307389636,219.80972293297194 L 158.95384968191846,246.66119700848526 L 154.16073960229545,246.72854690296924 L 145.21105166160208,246.73383485105666 L 140.2349282163035,246.73049203597512 L 130.059994240578,246.67320763033266 L 130.39203696919455,219.35862417332598 z" id="c19159"/>
		<path d="M 72.72945902044133,218.24167510036546 L 101.52217157753437,218.86473327864948 L 101.28118891225455,233.26791584569796 L 101.93706900289864,245.95802680440306 L 92.1766119166678,245.62771162404823 L 83.72692028002137,245.34443294477734 L 75.2793208169138,245.04825731207953 L 72.85037026456855,244.95808666846858 L 73.3244172895124,232.66765086368656 L 72.72945902044133,218.24167510036546 z" id="c19145"/>
		<path d="M 35.76160896719826,166.96178191679164 L 66.7549046430645,167.83017476058228 L 88.20636103300791,168.3524295053205 L 87.58818965439781,197.11400511896505 L 73.2337619016751,196.75739975295392 L 43.234594697898586,196.00078767442753 L 43.615947944599505,193.78230233145547 L 40.2880270637459,193.91568314815999 L 40.29016601084046,193.34305790975827 L 40.30475567459215,189.45765915548768 L 41.72939565594281,186.14395566379426 L 39.60284587276983,182.43429361138317 L 39.519797671615194,178.44757360188368 L 39.65697486215556,176.7967117406251 L 40.1101965860278,171.33761402196797 L 36.36447897755391,170.0663568106168 L 35.76160896719826,166.96178191679164 z" id="c19155"/>
		<path d="M 288.7587116686943,168.00816373319654 L 296.0575331965398,167.8139699942048 L 315.39279955008834,167.44530850278073 L 317.79987012638213,174.63973653405782 L 318.195494448986,196.37543285734705 L 303.72534925306775,196.65789659556418 L 289.30405984496986,196.8706376769882 L 288.7587116686943,168.00816373319654 z" id="c19183"/>
		<path d="M 133.71322087235953,74.20959920797529 L 162.66312600884999,74.48306438627678 L 162.63212637625435,81.68493589698424 L 165.05042013708152,88.86255105711787 L 164.94865024243532,110.66450902939775 L 150.53362112937455,110.57267028380309 L 136.13690420877458,110.5065162237232 L 136.35468254547138,88.53603763248222 L 133.56135550364067,88.49999181209459 L 133.63898907278792,81.39060379790148 L 133.71322087235953,74.20959920797529 z" id="c19187"/>
		<path d="M 3.8774177690258536,0.0 L 12.699496151155843,0.3126206308021683 L 28.130869855856552,0.8187071653378721 L 36.93310529794296,1.0967754703721357 L 48.57656409850532,1.4419873772258143 L 47.970044477032275,21.61281125441508 L 7.291589736839373,20.17159167317311 L 5.582988473010447,20.292423229520008 L 4.4782920151584085,17.460090837448814 L 7.447057901909974,16.819890803361925 L 7.954364725819797,12.908049144174223 L 8.230404583631621,9.71713108393312 L 3.9641779986082653,5.526217757133007 L 4.653930571411974,2.597204460671479 L 3.8774177690258536,0.0 z" id="c19119"/>
		<path d="M 191.79599834694758,3.422075890406052 L 208.06695271002374,3.3934487161421485 L 218.9551147965757,3.3490558619574036 L 220.4606904134131,3.341147396662322 L 220.58422928083283,23.65306915143306 L 191.77935952804637,23.73807847861579 L 191.79599834694758,3.422075890406052 z" id="c19195"/>
		<path d="M 162.63212637625435,81.68493589698424 L 191.66715791969145,81.80007882920134 L 193.93664314976368,89.02859968669162 L 193.92075799953392,110.78063396404376 L 179.3678518595204,110.76405196619824 L 164.94865024243532,110.66450902939775 L 165.05042013708152,88.86255105711787 L 162.63212637625435,81.68493589698424 z" id="c19079"/>
		<path d="M 274.96700095683696,219.0495071857857 L 304.0367737857179,218.41730445740694 L 304.14753052414534,225.69534019352233 L 304.63979939190494,243.1329771499331 L 303.83360490282115,242.32615977036346 L 290.5301002446007,243.20383011071627 L 290.28785809845925,243.21560716866964 L 275.299893575926,243.92348876106715 L 274.96700095683696,219.0495071857857 z" id="c19177"/>
		<path d="M 353.57493232499775,144.7793557713493 L 367.41674615262224,145.21026292174457 L 380.1155802236887,143.73617979361535 L 390.1986569230591,147.1261658712284 L 390.1250812653157,149.93345547492723 L 388.8437703646787,152.50145006943828 L 388.86841650181844,157.98415549073064 L 387.39084060039664,159.61865956550866 L 384.2139602876605,161.12188444518176 L 381.48212330826084,164.49641207748886 L 378.2645350304991,164.9407180807633 L 374.6507267139493,165.32998493780084 L 371.77608792995255,168.03020788784156 L 366.69364006568856,170.71619616686698 L 361.37604686695727,171.03908069762926 L 361.1575638961588,159.0954925325995 L 353.9159498328237,159.266778961311 L 353.57493232499775,144.7793557713493 z" id="c19163"/>
		<path d="M 76.15208043582894,51.24347240113126 L 105.15707994651926,51.81048182037248 L 104.64799121802251,80.87573669367058 L 75.53390722489019,80.20374598537387 L 76.15208043582894,51.24347240113126 z" id="c19021"/>
		<path d="M 47.970044477032275,21.61281125441508 L 76.78219334785572,22.51207039316691 L 76.15208043582894,51.24347240113126 L 47.33780381211589,50.60639034976264 L 47.970044477032275,21.61281125441508 z" id="c19141"/>
		<path d="M 326.0445110060077,225.2791496207887 L 325.59982250955073,203.54246853837867 L 351.92272539438903,202.94941921588347 L 351.9530396948889,203.18635138323845 L 352.4898228596935,207.37911413201402 L 352.21376676760383,212.81333524438023 L 350.2207391871717,216.35712589933215 L 346.5914736111687,220.10284134340137 L 343.6503028994361,224.1174548495413 L 343.8269773611157,227.5536679964401 L 342.43294983123315,232.12851440777416 L 342.3339861663184,234.26330055055098 L 336.6125333126125,233.24882833659012 L 323.6847055012181,225.31359469244484 L 326.0445110060077,225.2791496207887 z" id="c19057"/>
		<path d="M 163.10676490199344,3.3386946965486763 L 182.63412361001562,3.413996226813798 L 186.9856307453572,3.4209203199313283 L 191.79599834694758,3.422075890406052 L 191.77935952804637,23.73807847861579 L 163.01771825072532,23.66985156006693 L 163.10676490199344,3.3386946965486763 z" id="c19189"/>
		<path d="M 16.23946414478677,107.45890582415721 L 57.4187776762382,108.93104970120768 L 56.57485676825367,137.88379698701246 L 28.36608812950448,136.86006026504324 L 26.47230606472251,133.14475049827047 L 28.28406404837953,127.82750525148053 L 22.75970183272376,123.66114780129708 L 19.771194319816882,121.5208658621147 L 20.19324876549326,116.01293671863691 L 15.457565556014648,111.43152051084533 L 16.23946414478677,107.45890582415721 z" id="c19133"/>
		<path d="M 47.33780381211589,50.60639034976264 L 76.15208043582894,51.24347240113126 L 75.53390722489019,80.20374598537387 L 53.79296751624381,79.72558984883781 L 46.51629477922871,79.58841223073854 L 47.33780381211589,50.60639034976264 z" id="c19035"/>
		<path d="M 249.01577230503622,3.045717578467855 L 255.3286646270893,2.9636431796315956 L 271.69415859778235,2.715658848356624 L 277.69658479219066,2.6217411419314463 L 278.0161930759783,26.572530762116877 L 249.19999739221137,26.97539453209553 L 249.01577230503622,3.045717578467855 z" id="c19089"/>
		<path d="M 53.79296751624381,79.72558984883781 L 75.53390722489019,80.20374598537387 L 75.41170877301977,87.43582218734248 L 79.41895263905252,87.52619830033363 L 78.88877199936,109.46369712933625 L 57.4187776762382,108.93104970120768 L 58.061043735936046,87.0437136681354 L 53.59478777272806,86.91213568619742 L 53.79296751624381,79.72558984883781 z" id="c19093"/>
		<path d="M 352.2938140280007,101.23018637877445 L 366.6441126078793,100.82628342443088 L 366.4392734223305,93.55436601351587 L 377.57745051428236,93.22601610480086 L 379.99281262248286,95.18566374805663 L 381.9022177756132,98.2060744461597 L 381.1758018492541,101.70362762766013 L 383.1573766187376,104.87408278278046 L 387.12558236618355,107.72517222288884 L 388.57764607324077,108.47153635539364 L 391.4843040549833,109.96374634953241 L 395.37634397557264,111.93109590870745 L 398.373993423624,115.37392132689324 L 398.44285211367895,120.86169223269341 L 398.69938361405485,121.46107059375099 L 352.92293310600616,122.98686785059894 L 352.2938140280007,101.23018637877445 z" id="c19097"/>
		<path d="M 294.6847395784857,102.326361584877 L 309.14273381210455,102.2503521292291 L 323.57148799380536,101.91215565758213 L 324.1222994365231,130.93763628235132 L 324.27911662069977,138.19969873004922 L 295.3643654887707,138.6835607387786 L 294.6847395784857,102.326361584877 z" id="c19113"/>
		<path d="M 0.33392158202722405,59.933936707998335 L 3.1676546680418105,56.00613766373016 L 5.768872161764353,51.865572940925226 L 5.696145757239209,49.355164462576944 L 47.33780381211589,50.60639034976264 L 46.51629477922871,79.58841223073854 L 8.401794489775105,78.35944221567122 L 5.759949593911045,71.62042143142438 L 1.9186380400314542,67.58115512485547 L 0.0,64.3975907243014 L 0.33392158202722405,59.933936707998335 z" id="c19149"/>
		<path d="M 237.26613214576838,139.44258411398505 L 266.3480786509522,139.0851897966877 L 266.79552349928696,168.43595093506394 L 259.63953045102977,168.55030036010493 L 238.10746742435572,168.83969793521587 L 237.4018615154072,161.14846546176264 L 237.26613214576838,139.44258411398505 z" id="c19157"/>
		<path d="M 75.53390722489019,80.20374598537387 L 104.64799121802251,80.87573669367058 L 104.53137127300677,88.03901013809315 L 108.09002576966388,88.11184268444231 L 107.64060138060947,110.09279396172474 L 93.27073763193512,109.78984372118845 L 78.88877199936,109.46369712933625 L 79.41895263905252,87.52619830033363 L 75.41170877301977,87.43582218734248 L 75.53390722489019,80.20374598537387 z" id="c19161"/>
		<path d="M 42.72747322945116,198.94851406132443 L 43.234594697898586,196.00078767442753 L 73.2337619016751,196.75739975295392 L 72.72945902044133,218.24167510036546 L 46.85963768361518,217.61370790758423 L 45.36498979362702,217.87988570084647 L 44.22356869186651,215.62322790297924 L 44.92506864915461,211.67739431099284 L 42.661458618652,207.87127844377446 L 42.81038767477603,204.9273157922071 L 42.93916755154727,202.38046519862806 L 42.72747322945116,198.94851406132443 z" id="c19129"/>
		<path d="M 208.22481049833723,110.79013782994521 L 222.44983294320525,110.69576257976277 L 236.9315405321969,110.52068373139443 L 237.26613214576838,139.44258411398505 L 208.30515537867336,139.58130794416996 L 208.22481049833723,110.79013782994521 z" id="c19127"/>
		<path d="M 249.70925713333352,74.44507717439392 L 278.74907823481465,74.07192670069249 L 280.06092940835356,88.51397263824255 L 280.2599166585248,102.73385707763464 L 265.80971802122065,102.93057085326046 L 251.3171068936893,103.15492091573624 L 251.1264891967924,88.79941035627901 L 249.7992512696381,81.63746246112672 L 249.70925713333352,74.44507717439392 z" id="c19013"/>
		<path d="M 217.02281253206846,219.7290450475784 L 245.94831987208565,219.4828196989551 L 246.2769940636346,245.08354240913533 L 243.1855843531561,245.20873224169742 L 241.4171381422884,245.2437896062771 L 227.03042387435656,245.50789913103355 L 217.16309050669545,245.8883056019397 L 217.02281253206846,219.7290450475784 z" id="c19007"/>
		<path d="M 104.64799121802251,80.87573669367058 L 133.63898907278792,81.39060379790148 L 133.56135550364067,88.49999181209459 L 136.35468254547138,88.53603763248222 L 136.13690420877458,110.5065162237232 L 121.83666430464271,110.3203937216859 L 107.64060138060947,110.09279396172474 L 108.09002576966388,88.11184268444231 L 104.53137127300677,88.03901013809315 L 104.64799121802251,80.87573669367058 z" id="c19025"/>
	</g>
</svg>