<?xml version="1.0" encoding="UTF-8"?>
<svg baseProfile="full" fill="#d0d0d0" height="205.45803771229745" stroke="#ffffff" stroke-width="1" version="1.1" width="400.0" xmlns="http://www.w3.org/2000/svg" xmlns:ev="http://www.w3.org/2001/xml-events" xmlns:xlink="http://www.w3.org/1999/xlink">
	<defs/>
	<g id="counties"><path d="M 75.64101890842116,89.74911222943365 L 98.84796871288793,90.36369411628156 L 98.44779506687824,119.65174279164552 L 75.12884311316839,119.03618543594551 L 75.64101890842116,89.74911222943365 z" id="c20101"/>
		<path d="M 262.58665538213614,143.48519796579444 L 262.3935432042712,131.73040953573516 L 278.9701248916035,131.60304647323773 L 295.8531825220601,131.22349240629126 L 296.401580858114,163.4263326892152 L 296.56654551613326,172.20002272414615 L 262.9653973753339,172.85636666492903 L 262.58665538213614,143.48519796579444 z" id="c20015"/>
		<path d="M 249.88224593118997,50.01230088047677 L 249.73537008143424,32.46516249079588 L 271.06214313030915,32.20095143652659 L 271.29153245577413,55.483317938051556 L 271.39281176983707,60.11752273512258 L 271.31119818137864,61.38409687205291 L 249.95522581501925,61.71219845171709 L 249.88224593118997,50.01230088047677 z" id="c20027"/>
		<path d="M 372.44145933595865,108.59387259384393 L 396.3873921976727,107.73568246512477 L 396.81857037104385,117.86982971039889 L 397.24644733256196,129.8033432992492 L 397.3017892592559,131.3475261011915 L 372.6733898828309,132.26957005779715 L 372.44145933595865,108.59387259384393 z" id="c20107"/>
		<path d="M 7.192530910771069,0.0 L 18.54217962455018,0.4289421739617337 L 33.52693571507803,0.9631943317106755 L 40.311946242444805,1.1816660350943111 L 39.2503965268135,30.362780126659448 L 6.171379466741268,29.227906212386017 L 6.184847182268032,28.832976475505507 L 6.746414023969015,12.372356319347874 L 7.192530910771069,0.0 z" id="c20023"/>
		<path d="M 349.5538043426403,153.56404200412624 L 370.91021063005616,152.75823562172448 L 372.88171547281166,152.78379950517177 L 373.0279179542032,156.67502807173673 L 373.7329794304796,176.1921803230001 L 350.53536240204187,176.97722916169963 L 350.2980052446823,176.9855490797177 L 349.5538043426403,153.56404200412624 z" id="c20133"/>
		<path d="M 0.12440758461147702,199.34672497066504 L 0.30338822222911377,194.54834908044495 L 0.6913436891167287,184.3694126926716 L 1.0270004725894488,175.57268900300818 L 27.027024763428994,176.54052178190486 L 26.23368344112386,202.94601766441042 L 7.53064921811347,202.40487153822897 L 0.7560577303208735,202.1904005951712 L 0.0,202.1658977900883 L 0.12440758461147702,199.34672497066504 z" id="c20129"/>
		<path d="M 325.63701679653315,124.81764872193267 L 325.94413303788934,118.84246629735746 L 325.608441438061,107.12833688045048 L 348.961341479235,106.44570525366368 L 349.0522309840906,109.3778018927902 L 349.2459052071323,133.0391256985997 L 325.8666468424986,133.59957365321193 L 325.63701679653315,124.81764872193267 z" id="c20031"/>
		<path d="M 250.34056981556418,96.83445222813181 L 273.6245717211821,96.49695799242009 L 273.7396747143269,102.33897412616587 L 279.5701173998736,102.2348419445169 L 278.82060198793096,113.93003469181181 L 278.9701248916035,131.60304647323773 L 262.3935432042712,131.73040953573516 L 262.29960716157007,125.89014235796503 L 250.7033268478727,126.1086548816326 L 250.34056981556418,96.83445222813181 z" id="c20115"/>
		<path d="M 27.027024763428994,176.54052178190486 L 28.67688339370681,176.60060857430537 L 52.04693334536527,177.34969937674765 L 53.2017215760349,177.37775053814497 L 52.56919486022948,203.57585637946792 L 44.75508307705853,203.39577079699941 L 30.001232086818526,203.046592015799 L 26.23368344112386,202.94601766441042 L 27.027024763428994,176.54052178190486 z" id="c20189"/>
		<path d="M 134.32174614972558,155.63138171148967 L 163.45572250714108,156.00604111858613 L 163.40953987818813,173.64585718122171 L 163.43663347787077,179.43471296840602 L 134.9303713337111,179.40794187382537 L 134.27859547608864,178.6975266462169 L 134.30308736731288,173.58232960761615 L 134.32174614972558,155.63138171148967 z" id="c20097"/>
		<path d="M 379.08643135321057,53.66654943678907 L 384.7452934371509,53.55571454195299 L 387.4454035838773,55.536900653241055 L 390.6272336536539,54.45894223326996 L 393.6527548384833,56.19758080416586 L 394.80599645440736,56.223463041155064 L 395.33056106298545,56.23514540857403 L 394.6407960653696,59.059993959295916 L 394.8083423773164,63.719118430266846 L 380.79132451507974,63.34575493279706 L 379.1858120147367,67.89038528415954 L 379.08643135321057,53.66654943678907 z" id="c20209"/>
		<path d="M 98.84796871288793,90.36369411628156 L 103.76387222173335,90.50875039938366 L 133.01575011504988,90.99609771069555 L 133.7128105989167,91.0027142445802 L 133.4568190603924,114.32987636830916 L 133.41973744852567,120.18973680407461 L 99.36177974881221,119.67232234519533 L 98.44779506687824,119.65174279164552 L 98.84796871288793,90.36369411628156 z" id="c20135"/>
		<path d="M 373.0279179542032,156.67502807173673 L 398.11938209465944,155.78772454614094 L 398.17544722660676,157.09888434134996 L 398.8720346190917,173.38805006646515 L 398.994368953652,176.5258643240608 L 399.06176887244027,178.25475411896863 L 374.53902148375937,179.11406552932246 L 373.7329794304796,176.1921803230001 L 373.0279179542032,156.67502807173673 z" id="c20037"/>
		<path d="M 295.8531825220601,131.22349240629126 L 304.5975536644279,131.06746475661998 L 304.5071044199378,125.23283630969922 L 325.63701679653315,124.81764872193267 L 325.8666468424986,133.59957365321193 L 326.32908503137287,154.147107888667 L 326.56118213876954,162.91483760651207 L 296.401580858114,163.4263326892152 L 295.8531825220601,131.22349240629126 z" id="c20073"/>
		<path d="M 98.93088153628351,143.0657455345412 L 133.90956627472048,143.6577783961352 L 133.80505349650025,149.52805044277392 L 134.32174614972558,155.63138171148967 L 134.30308736731288,173.58232960761615 L 104.80043095324521,172.6829047219958 L 98.96622609924356,172.5551227559402 L 99.48589110667261,148.93651831278714 L 98.93088153628351,143.0657455345412 z" id="c20057"/>
		<path d="M 374.53902148375937,179.11406552932246 L 399.06176887244027,178.25475411896863 L 399.5280920333163,190.21876078979568 L 399.8306250676056,197.16026777674213 L 400.0,201.04614247177665 L 394.895563122256,201.26366289129083 L 379.6802695526034,201.80953965066857 L 379.01646118299794,201.83489298682588 L 375.4685567890386,201.9689105523117 L 374.53902148375937,179.11406552932246 z" id="c20021"/>
		<path d="M 343.430837029783,24.64738226748628 L 355.08720475062773,24.258908776966486 L 366.75247226271955,23.878291446884855 L 370.54441599877396,26.35519025479379 L 370.42875395634485,27.607684979795174 L 368.93935807414397,28.897473202467523 L 367.0780078717076,30.501032482907746 L 368.28029069110556,31.84875781370799 L 370.539932004048,34.37892946600153 L 374.20068496199235,37.86590595379613 L 375.1029037568996,39.101327683991705 L 373.43718131795936,39.354187743583545 L 363.89805110991927,39.679073886235514 L 343.6013465909417,40.370785236224364 L 343.430837029783,24.64738226748628 z" id="c20005"/>
		<path d="M 331.1143627858326,1.634465488345338 L 331.29719562229917,1.62939685634678 L 354.288218263744,0.9339443971203263 L 355.08720475062773,24.258908776966486 L 343.430837029783,24.64738226748628 L 331.75079874158854,24.992521405860344 L 331.1143627858326,1.634465488345338 z" id="c20013"/>
		<path d="M 296.401580858114,163.4263326892152 L 326.56118213876954,162.91483760651207 L 326.9260753413558,177.49812878890194 L 326.8111771365886,179.05093817654028 L 326.93602615667646,183.37236194950674 L 296.8574538287459,183.86501980373362 L 296.56654551613326,172.20002272414615 L 296.401580858114,163.4263326892152 z" id="c20049"/>
		<path d="M 326.56118213876954,162.91483760651207 L 326.32908503137287,154.147107888667 L 349.5538043426403,153.56404200412624 L 350.2980052446823,176.9855490797177 L 326.9260753413558,177.49812878890194 L 326.56118213876954,162.91483760651207 z" id="c20205"/>
		<path d="M 29.36276296435516,88.46822325194697 L 33.717427045087895,88.5761751624461 L 52.45820406465205,89.11106038384322 L 51.78792377735467,118.4089529494915 L 29.710304352669347,117.82522795905034 L 28.377413210699757,117.78570788177328 L 29.36276296435516,88.46822325194697 z" id="c20203"/>
		<path d="M 198.91126683874182,179.51735561120645 L 228.00761132990678,179.23549775688437 L 228.16356596488623,180.593144598147 L 228.45679939254555,205.27395957072463 L 215.36039377154745,205.37986115735535 L 211.76904819369068,205.4013989886268 L 199.09614454424465,205.45688830818085 L 198.91126683874182,179.51735561120645 z" id="c20077"/>
		<path d="M 348.41767367809143,77.15532102194001 L 348.0383836663533,64.60297575620307 L 352.2479498292484,63.75622774855456 L 359.3473444309199,65.87323717078615 L 364.47011924475095,64.8903297472345 L 364.70803784873414,70.23325413046187 L 371.4778051691055,68.80557317135666 L 372.07412322410596,85.16237434160952 L 348.70012386460553,85.95544179767556 L 348.41767367809143,77.15532102194001 z" id="c20045"/>
		<path d="M 104.3929525331742,32.03445916060901 L 132.16358589513945,32.439182344731016 L 133.5047954627448,32.462552803183875 L 133.0016016794391,61.69208623467507 L 104.59019815339437,61.292880909569156 L 103.738956498837,61.28502008417888 L 104.3929525331742,32.03445916060901 z" id="c20065"/>
		<path d="M 191.51546424303922,32.790489693034466 L 220.42486928236377,32.738841617641036 L 220.59885338599287,33.7773313405344 L 220.67506583033844,50.252798441216676 L 220.5556228036593,52.22344279238864 L 220.67699281194209,56.10965939044333 L 191.3740482292429,56.16673887764186 L 191.51546424303922,32.790489693034466 z" id="c20123"/>
		<path d="M 220.24747029527322,3.465812468722549 L 225.95385180462856,3.4309880190757966 L 228.24757418912907,3.415087442660915 L 246.9361162652552,3.245144139671298 L 249.3481336106474,3.220641702921692 L 249.6593747916237,26.614247436596347 L 220.40810066029655,26.899465303319385 L 220.24747029527322,3.465812468722549 z" id="c20157"/>
		<path d="M 249.3481336106474,3.220641702921692 L 267.96953470951394,2.9908604044624583 L 272.7668266771425,2.912357412550815 L 274.9697443099642,2.874709347113814 L 278.4888821341508,2.8175240970036577 L 278.6788606281809,14.506685312250278 L 278.97997107861613,32.06210649998624 L 271.06214313030915,32.20095143652659 L 249.73537008143424,32.46516249079588 L 249.6593747916237,26.614247436596347 L 249.3481336106474,3.220641702921692 z" id="c20201"/>
		<path d="M 371.6898981764703,88.11433211455665 L 372.07412322410596,85.16237434160952 L 379.8492813799417,84.88948134673048 L 395.5814309697877,84.26996890547427 L 395.985240740858,97.06422821168808 L 396.1335362646717,101.76828140100339 L 396.13360226834914,101.77037574662714 L 396.3873921976727,107.73568246512477 L 372.44145933595865,108.59387259384393 L 371.6898981764703,88.11433211455665 z" id="c20121"/>
		<path d="M 40.311946242444805,1.1816660350943111 L 44.73303506328294,1.3188770855209035 L 46.3627945644059,1.3684337345263777 L 58.444014199805636,1.732384283611602 L 74.03311047033898,2.1356946102421395 L 75.06751357378194,2.163275883973766 L 74.2598571897924,31.352214934406216 L 40.5426630453246,30.402470360912524 L 39.2503965268135,30.362780126659448 L 40.311946242444805,1.1816660350943111 z" id="c20153"/>
		<path d="M 40.5426630453246,30.402470360912524 L 74.2598571897924,31.352214934406216 L 75.33463808079225,31.378537957587447 L 74.58219829074127,60.58931742661736 L 69.84252518466452,60.47548404150629 L 39.50166927957997,59.510437036668506 L 40.5426630453246,30.402470360912524 z" id="c20193"/>
		<path d="M 191.3740482292429,56.16673887764186 L 220.67699281194209,56.10965939044333 L 220.8464806504884,73.64434466757903 L 220.88075950474501,79.51148719601561 L 191.65436142238332,79.62412015030493 L 191.706583249014,63.26179258746335 L 191.3826241909017,62.02045556906548 L 191.3740482292429,56.16673887764186 z" id="c20105"/>
		<path d="M 133.70354744628898,61.70869246045448 L 162.18683815802217,61.91496179097058 L 162.72017606272755,61.9108731553566 L 162.281156803463,91.23394928526614 L 133.7128105989167,91.0027142445802 L 133.01575011504988,90.99609771069555 L 133.70354744628898,61.70869246045448 z" id="c20051"/>
		<path d="M 52.69666766732454,153.9363991683281 L 76.02874754281714,154.5340244877451 L 75.60239429827926,172.0932861582018 L 75.46249910932941,177.95165691510866 L 53.2017215760349,177.37775053814497 L 52.04693334536527,177.34969937674765 L 52.69666766732454,153.9363991683281 z" id="c20081"/>
		<path d="M 371.4778051691055,68.80557317135666 L 378.39243921144464,67.16539615053189 L 379.1858120147367,67.89038528415954 L 380.79132451507974,63.34575493279706 L 394.8083423773164,63.719118430266846 L 394.95873649333765,67.90252232731336 L 395.30332796820187,76.94224625147456 L 395.5759173668458,84.09542731360823 L 395.5814309697877,84.26996890547427 L 379.8492813799417,84.88948134673048 L 372.07412322410596,85.16237434160952 L 371.4778051691055,68.80557317135666 z" id="c20091"/>
		<path d="M 3.1126066814448388,116.93877438594572 L 28.377413210699757,117.78570788177328 L 29.710304352669347,117.82522795905034 L 28.731701643510313,147.07816270863313 L 29.368549079367362,153.23506101228136 L 1.9170089999338846,152.1179025420339 L 2.751166338835638,126.9709735058693 L 3.1126066814448388,116.93877438594572 z" id="c20075"/>
		<path d="M 190.6285167522762,3.5457001603293863 L 202.54782807998518,3.534393463257381 L 212.78838124458738,3.501151220591627 L 220.24747029527322,3.465812468722549 L 220.40810066029655,26.899465303319385 L 220.42486928236377,32.738841617641036 L 191.51546424303922,32.790489693034466 L 190.58491588626586,32.78306314975349 L 190.6285167522762,3.5457001603293863 z" id="c20089"/>
		<path d="M 319.8360775220297,59.55051583508669 L 319.71220159352714,54.68286482166598 L 343.03064159491413,54.04005527821379 L 342.9666417841915,64.22451055353005 L 348.0383836663533,64.60297575620307 L 348.41767367809143,77.15532102194001 L 325.0015627242083,77.84218347171772 L 324.5718701327356,62.475719060368384 L 322.0484551029957,60.18183964009861 L 319.68957768782735,60.73488526942646 L 319.8360775220297,59.55051583508669 z" id="c20177"/>
		<path d="M 29.710304352669347,117.82522795905034 L 51.78792377735467,118.4089529494915 L 52.96206552171173,118.43865831834745 L 52.1179330723877,147.6896767549106 L 52.69666766732454,153.9363991683281 L 29.368549079367362,153.23506101228136 L 28.731701643510313,147.07816270863313 L 29.710304352669347,117.82522795905034 z" id="c20093"/>
		<path d="M 233.19515078857088,126.28006162842931 L 250.7033268478727,126.1086548816326 L 262.29960716157007,125.89014235796503 L 262.3935432042712,131.73040953573516 L 262.58665538213614,143.48519796579444 L 233.33931918236775,143.91634430320062 L 233.19515078857088,126.28006162842931 z" id="c20079"/>
		<path d="M 69.84252518466452,60.47548404150629 L 74.58219829074127,60.58931742661736 L 103.738956498837,61.28502008417888 L 104.59019815339437,61.292880909569156 L 103.76387222173335,90.50875039938366 L 98.84796871288793,90.36369411628156 L 75.64101890842116,89.74911222943365 L 68.76003696137766,89.59353327515025 L 69.84252518466452,60.47548404150629 z" id="c20063"/>
		<path d="M 5.2025478908339435,58.45812061520528 L 34.97601983049673,59.391868736200706 L 33.717427045087895,88.5761751624461 L 29.36276296435516,88.46822325194697 L 4.167297660867076,87.7157776314725 L 5.0153766535869355,64.2431420185162 L 5.2025478908339435,58.45812061520528 z" id="c20199"/>
		<path d="M 75.06751357378194,2.163275883973766 L 88.60519654891583,2.5037706992265747 L 103.26246819347452,2.8043723668779275 L 104.07919399240593,2.8196237626049236 L 103.42035336570297,32.04305050700456 L 75.33463808079225,31.378537957587447 L 74.2598571897924,31.352214934406216 L 75.06751357378194,2.163275883973766 z" id="c20039"/>
		<path d="M 99.36177974881221,119.67232234519533 L 133.41973744852567,120.18973680407461 L 134.14023850943502,121.08139022735976 L 134.11629609474582,125.0929739339151 L 134.06236683651954,131.94373098197104 L 133.90956627472048,143.6577783961352 L 98.93088153628351,143.0657455345412 L 99.06466961402361,137.2219165647422 L 99.36177974881221,119.67232234519533 z" id="c20083"/>
		<path d="M 227.79318759315885,155.88495025569662 L 233.61553920536076,155.75762203630842 L 233.33931918236775,143.91634430320062 L 262.58665538213614,143.48519796579444 L 262.9653973753339,172.85636666492903 L 227.93464897550334,173.33082326960692 L 227.79318759315885,155.88495025569662 z" id="c20173"/>
		<path d="M 53.2017215760349,177.37775053814497 L 75.46249910932941,177.95165691510866 L 76.46059843487524,178.40827171296039 L 75.90683158753485,204.00036205432374 L 63.927731009117494,203.81594021915703 L 59.087593369672945,203.71677665247026 L 52.56919486022948,203.57585637946792 L 53.2017215760349,177.37775053814497 z" id="c20175"/>
		<path d="M 162.78962036069996,91.24010809153773 L 191.5905848072674,91.31228425142834 L 191.91707274870612,92.34380919372141 L 191.89488918528045,103.07508478300845 L 191.92697860051655,120.61692992364888 L 169.0003457706548,120.54865730822203 L 162.65738954920175,120.5071756267318 L 162.68556818366034,114.65406698987272 L 162.78962036069996,91.24010809153773 z" id="c20009"/>
		<path d="M 192.30205669416856,126.53208847190272 L 205.93024274129615,127.45050726318892 L 221.5104140534702,126.37307496034903 L 233.19515078857088,126.28006162842931 L 233.33931918236775,143.91634430320062 L 233.61553920536076,155.75762203630842 L 227.79318759315885,155.88495025569662 L 192.73703822901302,156.10097699330916 L 192.7342189204209,150.8918406965751 L 192.3375039585599,149.93178793785114 L 192.30205669416856,126.53208847190272 z" id="c20155"/>
		<path d="M 326.8111771365886,179.05093817654028 L 326.9260753413558,177.49812878890194 L 350.2980052446823,176.9855490797177 L 350.53536240204187,176.97722916169963 L 351.29176890554874,202.81087287808126 L 348.5349301146438,202.89884620206888 L 337.05300197028384,203.2488396295009 L 329.4383021910131,203.46646183711786 L 327.4910129033831,203.5212821990656 L 326.93602615667646,183.37236194950674 L 326.8111771365886,179.05093817654028 z" id="c20125"/>
		<path d="M 271.31119818137864,61.38409687205291 L 271.39281176983707,60.11752273512258 L 271.29153245577413,55.483317938051556 L 277.1385635278928,55.45486519714238 L 277.2140727413311,64.24958975521663 L 295.6217806303975,66.88183351012172 L 295.85194296827177,78.57196802691386 L 275.433097745821,78.94271920852684 L 273.517143548314,78.95640454675116 L 273.420271187964,71.65846667441176 L 271.48128344673904,72.6346102085963 L 271.31119818137864,61.38409687205291 z" id="c20061"/>
		<path d="M 262.9653973753339,172.85636666492903 L 296.56654551613326,172.20002272414615 L 296.8574538287459,183.86501980373362 L 297.251977070151,204.28945214254406 L 285.16889201609735,204.50999823564896 L 266.2663731786745,204.8286219885568 L 263.7301482134291,204.86777461568505 L 262.9653973753339,172.85636666492903 z" id="c20035"/>
		<path d="M 221.18855690915925,97.06532817343853 L 250.34056981556418,96.83445222813181 L 250.7033268478727,126.1086548816326 L 233.19515078857088,126.28006162842931 L 221.5104140534702,126.37307496034903 L 221.25244551223813,102.9199324684142 L 221.18855690915925,97.06532817343853 z" id="c20113"/>
		<path d="M 104.59019815339437,61.292880909569156 L 133.0016016794391,61.69208623467507 L 133.70354744628898,61.70869246045448 L 133.01575011504988,90.99609771069555 L 103.76387222173335,90.50875039938366 L 104.59019815339437,61.292880909569156 z" id="c20195"/>
		<path d="M 350.53536240204187,176.97722916169963 L 373.7329794304796,176.1921803230001 L 374.53902148375937,179.11406552932246 L 375.4685567890386,201.9689105523117 L 362.0555720669014,202.4528838098131 L 357.4685578629075,202.60826574125332 L 351.29176890554874,202.81087287808126 L 350.53536240204187,176.97722916169963 z" id="c20099"/>
		<path d="M 162.52977987868957,32.67131812420254 L 190.58491588626586,32.78306314975349 L 191.51546424303922,32.790489693034466 L 191.3740482292429,56.16673887764186 L 191.3826241909017,62.02045556906548 L 162.72017606272755,61.9108731553566 L 162.18683815802217,61.91496179097058 L 162.52977987868957,32.67131812420254 z" id="c20141"/>
		<path d="M 191.65436142238332,79.62412015030493 L 220.88075950474501,79.51148719601561 L 221.18855690915925,97.06532817343853 L 221.25244551223813,102.9199324684142 L 191.89488918528045,103.07508478300845 L 191.91707274870612,92.34380919372141 L 191.5905848072674,91.31228425142834 L 191.65436142238332,79.62412015030493 z" id="c20053"/>
		<path d="M 75.60239429827926,172.0932861582018 L 98.96622609924356,172.5551227559402 L 104.80043095324521,172.6829047219958 L 105.54115205205078,178.6050965084779 L 105.20946038189878,204.49769932880903 L 80.25226010975776,204.0601993515788 L 75.90683158753485,204.00036205432374 L 76.46059843487524,178.40827171296039 L 75.46249910932941,177.95165691510866 L 75.60239429827926,172.0932861582018 z" id="c20119"/>
		<path d="M 325.8666468424986,133.59957365321193 L 349.2459052071323,133.0391256985997 L 349.69607785673674,147.67756142486667 L 349.5538043426403,153.56404200412624 L 326.32908503137287,154.147107888667 L 325.8666468424986,133.59957365321193 z" id="c20207"/>
		<path d="M 133.7128105989167,91.0027142445802 L 162.281156803463,91.23394928526614 L 162.78962036069996,91.24010809153773 L 162.68556818366034,114.65406698987272 L 133.4568190603924,114.32987636830916 L 133.7128105989167,91.0027142445802 z" id="c20165"/>
		<path d="M 249.5928468214906,75.36625634833324 L 250.07277552550872,73.41441459286817 L 249.95522581501925,61.71219845171709 L 271.31119818137864,61.38409687205291 L 271.48128344673904,72.6346102085963 L 273.420271187964,71.65846667441176 L 273.517143548314,78.95640454675116 L 275.433097745821,78.94271920852684 L 273.5555843997844,82.86718080284295 L 273.6245717211821,96.49695799242009 L 250.34056981556418,96.83445222813181 L 249.5928468214906,75.36625634833324 z" id="c20041"/>
		<path d="M 349.0522309840906,109.3778018927902 L 372.44145933595865,108.59387259384393 L 372.6733898828309,132.26957005779715 L 349.2459052071323,133.0391256985997 L 349.0522309840906,109.3778018927902 z" id="c20003"/>
		<path d="M 273.6245717211821,96.49695799242009 L 273.5555843997844,82.86718080284295 L 275.433097745821,78.94271920852684 L 295.85194296827177,78.57196802691386 L 295.92298357619126,81.49577514644402 L 301.7575929305912,81.3893940503077 L 303.8779492334331,87.17854104143085 L 304.15276408584714,101.78352509688334 L 279.5701173998736,102.2348419445169 L 273.7396747143269,102.33897412616587 L 273.6245717211821,96.49695799242009 z" id="c20127"/>
		<path d="M 133.90956627472048,143.6577783961352 L 134.06236683651954,131.94373098197104 L 145.70117552584173,132.04865038101798 L 145.65167519850175,137.8839009714015 L 151.47843933807766,137.98582501029873 L 163.0981385639093,138.04650995823465 L 163.01590920842284,148.81914833988628 L 163.50226895579883,149.80032913011772 L 163.45572250714108,156.00604111858613 L 134.32174614972558,155.63138171148967 L 133.80505349650025,149.52805044277392 L 133.90956627472048,143.6577783961352 z" id="c20047"/>
		<path d="M 134.9303713337111,179.40794187382537 L 163.43663347787077,179.43471296840602 L 163.97589318512925,180.05851756066056 L 163.89820209515076,205.29798875733516 L 156.93866622639914,205.2515298001931 L 141.98145589431618,205.11773529403354 L 139.33100294111438,205.08310222537287 L 134.75556913444078,205.0200246898678 L 134.9303713337111,179.40794187382537 z" id="c20033"/>
		<path d="M 163.50226895579883,149.80032913011772 L 192.3375039585599,149.93178793785114 L 192.7342189204209,150.8918406965751 L 192.73703822901302,156.10097699330916 L 192.7512251570356,173.68118147696694 L 163.40953987818813,173.64585718122171 L 163.45572250714108,156.00604111858613 L 163.50226895579883,149.80032913011772 z" id="c20151"/>
		<path d="M 75.80836153295186,136.63478032366868 L 99.06466961402361,137.2219165647422 L 98.93088153628351,143.0657455345412 L 99.48589110667261,148.93651831278714 L 98.96622609924356,172.5551227559402 L 75.60239429827926,172.0932861582018 L 76.02874754281714,154.5340244877451 L 75.80836153295186,136.63478032366868 z" id="c20069"/>
		<path d="M 192.7512251570356,173.68118147696694 L 192.73703822901302,156.10097699330916 L 227.79318759315885,155.88495025569662 L 227.93464897550334,173.33082326960692 L 228.00761132990678,179.23549775688437 L 198.91126683874182,179.51735561120645 L 192.73799840011043,179.52147271797503 L 192.7512251570356,173.68118147696694 z" id="c20095"/>
		<path d="M 354.288218263744,0.9339443971203263 L 355.92220159108416,0.8803405626691925 L 360.0443663553732,4.520486461507859 L 364.74869513193704,7.607950999804404 L 367.98499315258914,9.758303489991873 L 371.1474692689038,7.241805895391898 L 372.45764043386384,7.112378952426046 L 374.6180475474853,6.898171049676564 L 375.8746660119241,8.478110869397485 L 378.58269506271023,11.726626437992609 L 378.64035212803304,12.116196212033172 L 379.11306403159364,15.308336498481344 L 379.73323009232786,16.863197919990615 L 377.7794092117388,18.654313828906027 L 374.0581424858179,18.856958067111325 L 374.1392095114079,21.325886533583905 L 370.7887687069348,23.706055329326123 L 370.54441599877396,26.35519025479379 L 366.75247226271955,23.878291446884855 L 355.08720475062773,24.258908776966486 L 354.288218263744,0.9339443971203263 z" id="c20043"/>
		<path d="M 133.4568190603924,114.32987636830916 L 162.68556818366034,114.65406698987272 L 162.65738954920175,120.5071756267318 L 169.0003457706548,120.54865730822203 L 168.8934473655127,138.06113134604215 L 163.0981385639093,138.04650995823465 L 151.47843933807766,137.98582501029873 L 145.65167519850175,137.8839009714015 L 145.70117552584173,132.04865038101798 L 134.06236683651954,131.94373098197104 L 134.11629609474582,125.0929739339151 L 134.14023850943502,121.08139022735976 L 133.41973744852567,120.18973680407461 L 133.4568190603924,114.32987636830916 z" id="c20145"/>
		<path d="M 220.40810066029655,26.899465303319385 L 249.6593747916237,26.614247436596347 L 249.73537008143424,32.46516249079588 L 249.88224593118997,50.01230088047677 L 220.67506583033844,50.252798441216676 L 220.59885338599287,33.7773313405344 L 220.42486928236377,32.738841617641036 L 220.40810066029655,26.899465303319385 z" id="c20029"/>
		<path d="M 304.15276408584714,101.78352509688334 L 303.8779492334331,87.17854104143085 L 325.277278821609,86.63277070127357 L 325.1613957712074,89.5757168678598 L 325.608441438061,107.12833688045048 L 325.94413303788934,118.84246629735746 L 325.63701679653315,124.81764872193267 L 304.5071044199378,125.23283630969922 L 304.15276408584714,101.78352509688334 z" id="c20111"/>
		<path d="M 6.171379466741268,29.227906212386017 L 39.2503965268135,30.362780126659448 L 40.5426630453246,30.402470360912524 L 39.50166927957997,59.510437036668506 L 34.97601983049673,59.391868736200706 L 5.2025478908339435,58.45812061520528 L 5.725925901393346,42.29481529830219 L 6.171379466741268,29.227906212386017 z" id="c20181"/>
		<path d="M 52.45820406465205,89.11106038384322 L 68.76003696137766,89.59353327515025 L 75.64101890842116,89.74911222943365 L 75.12884311316839,119.03618543594551 L 52.96206552171173,118.43865831834745 L 51.78792377735467,118.4089529494915 L 52.45820406465205,89.11106038384322 z" id="c20171"/>
		<path d="M 348.961341479235,106.44570525366368 L 348.4097544043687,88.89238967765212 L 348.70012386460553,85.95544179767556 L 372.07412322410596,85.16237434160952 L 371.6898981764703,88.11433211455665 L 372.44145933595865,108.59387259384393 L 349.0522309840906,109.3778018927902 L 348.961341479235,106.44570525366368 z" id="c20059"/>
		<path d="M 1.9170089999338846,152.1179025420339 L 29.368549079367362,153.23506101228136 L 28.67688339370681,176.60060857430537 L 27.027024763428994,176.54052178190486 L 1.0270004725894488,175.57268900300818 L 1.6804622969043295,158.44674306577235 L 1.8843667128486208,153.10271607832618 L 1.9170089999338846,152.1179025420339 z" id="c20187"/>
		<path d="M 220.8464806504884,73.64434466757903 L 250.07277552550872,73.41441459286817 L 249.5928468214906,75.36625634833324 L 250.34056981556418,96.83445222813181 L 221.18855690915925,97.06532817343853 L 220.88075950474501,79.51148719601561 L 220.8464806504884,73.64434466757903 z" id="c20169"/>
		<path d="M 278.82060198793096,113.93003469181181 L 279.5701173998736,102.2348419445169 L 304.15276408584714,101.78352509688334 L 304.5071044199378,125.23283630969922 L 304.5975536644279,131.06746475661998 L 295.8531825220601,131.22349240629126 L 278.9701248916035,131.60304647323773 L 278.82060198793096,113.93003469181181 z" id="c20017"/>
		<path d="M 319.0713516029262,31.18981404188193 L 331.91271381452486,30.845724636275396 L 331.75079874158854,24.992521405860344 L 343.430837029783,24.64738226748628 L 343.6013465909417,40.370785236224364 L 342.6160579421585,40.452909230391384 L 343.03064159491413,54.04005527821379 L 319.71220159352714,54.68286482166598 L 319.0713516029262,31.18981404188193 z" id="c20085"/>
		<path d="M 132.65276750541298,3.234927446105169 L 139.0423720481373,3.291125735384783 L 155.73121753647735,3.435990517752804 L 160.56925708587178,3.467187400124376 L 161.53022009758212,3.472420289259088 L 161.3942656566287,32.658503564161144 L 133.5047954627448,32.462552803183875 L 132.16358589513945,32.439182344731016 L 132.65276750541298,3.234927446105169 z" id="c20147"/>
		<path d="M 372.88171547281166,152.78379950517177 L 373.11726789145735,146.88912079663095 L 372.6733898828309,132.26957005779715 L 397.3017892592559,131.3475261011915 L 397.4203100942505,134.65509802318923 L 398.0932531930483,155.1766583605415 L 398.11938209465944,155.78772454614094 L 373.0279179542032,156.67502807173673 L 372.88171547281166,152.78379950517177 z" id="c20011"/>
		<path d="M 29.368549079367362,153.23506101228136 L 52.69666766732454,153.9363991683281 L 52.04693334536527,177.34969937674765 L 28.67688339370681,176.60060857430537 L 29.368549079367362,153.23506101228136 z" id="c20067"/>
		<path d="M 296.8574538287459,183.86501980373362 L 326.93602615667646,183.37236194950674 L 327.4910129033831,203.5212821990656 L 325.5227069390265,203.5759263597946 L 313.8456521385386,203.88423143167535 L 298.61480877673324,204.26275259708774 L 297.251977070151,204.28945214254406 L 296.8574538287459,183.86501980373362 z" id="c20019"/>
		<path d="M 104.80043095324521,172.6829047219958 L 134.30308736731288,173.58232960761615 L 134.27859547608864,178.6975266462169 L 134.9303713337111,179.40794187382537 L 134.75556913444078,205.0200246898678 L 128.4758661132637,204.92666607965012 L 110.28950798616266,204.57156106737142 L 109.89236665744357,204.56597193894692 L 105.20946038189878,204.49769932880903 L 105.54115205205078,178.6050965084779 L 104.80043095324521,172.6829047219958 z" id="c20025"/>
		<path d="M 162.72017606272755,61.9108731553566 L 191.3826241909017,62.02045556906548 L 191.706583249014,63.26179258746335 L 191.65436142238332,79.62412015030493 L 191.5905848072674,91.31228425142834 L 162.78962036069996,91.24010809153773 L 162.281156803463,91.23394928526614 L 162.72017606272755,61.9108731553566 z" id="c20167"/>
		<path d="M 191.89488918528045,103.07508478300845 L 221.25244551223813,102.9199324684142 L 221.5104140534702,126.37307496034903 L 205.93024274129615,127.45050726318892 L 192.30205669416856,126.53208847190272 L 192.31873051551472,122.10471043552766 L 191.92697860051655,120.61692992364888 L 191.89488918528045,103.07508478300845 z" id="c20159"/>
		<path d="M 325.1613957712074,89.5757168678598 L 325.277278821609,86.63277070127357 L 325.0015627242083,77.84218347171772 L 348.41767367809143,77.15532102194001 L 348.70012386460553,85.95544179767556 L 348.4097544043687,88.89238967765212 L 348.961341479235,106.44570525366368 L 325.608441438061,107.12833688045048 L 325.1613957712074,89.5757168678598 z" id="c20139"/>
		<path d="M 307.7888751171169,2.2415529251974795 L 307.79073048243424,2.241510803147198 L 312.1764373369556,2.1463334788089155 L 318.91238727861526,1.9570534900145462 L 319.60587157526356,1.9395478809323075 L 331.1143627858326,1.634465488345338 L 331.75079874158854,24.992521405860344 L 331.91271381452486,30.845724636275396 L 319.0713516029262,31.18981404188193 L 308.5096874543626,31.449427797093175 L 307.9145529923153,8.047471553250018 L 307.7888751171169,2.2415529251974795 z" id="c20131"/>
		<path d="M 284.30933823343634,39.01583181544194 L 290.74818459456213,31.840174453927048 L 308.5096874543626,31.449427797093175 L 319.0713516029262,31.18981404188193 L 319.71220159352714,54.68286482166598 L 319.8360775220297,59.55051583508669 L 319.68957768782735,60.73488526942646 L 317.24400640600516,56.2951745858072 L 309.3636507634314,55.230641066096396 L 304.3380980091218,58.940365984325176 L 301.30060517988045,58.069238136438436 L 292.45545688898625,57.64994585247643 L 292.13976881826403,53.664923213120474 L 288.08497071662896,50.285759344148715 L 283.34417473529527,42.92979099477917 L 284.30933823343634,39.01583181544194 z" id="c20149"/>
		<path d="M 227.93464897550334,173.33082326960692 L 262.9653973753339,172.85636666492903 L 263.7301482134291,204.86777461568505 L 250.948548008327,205.04559918396419 L 246.77664590304005,205.09502481879102 L 230.2678991675194,205.2566273867703 L 228.45679939254555,205.27395957072463 L 228.16356596488623,180.593144598147 L 228.00761132990678,179.23549775688437 L 227.93464897550334,173.33082326960692 z" id="c20191"/>
		<path d="M 295.85194296827177,78.57196802691386 L 295.6217806303975,66.88183351012172 L 301.4061508079488,66.7818782281037 L 301.30060517988045,58.069238136438436 L 304.3380980091218,58.940365984325176 L 309.3636507634314,55.230641066096396 L 317.24400640600516,56.2951745858072 L 319.68957768782735,60.73488526942646 L 322.0484551029957,60.18183964009861 L 324.5718701327356,62.475719060368384 L 325.0015627242083,77.84218347171772 L 325.277278821609,86.63277070127357 L 303.8779492334331,87.17854104143085 L 301.7575929305912,81.3893940503077 L 295.92298357619126,81.49577514644402 L 295.85194296827177,78.57196802691386 z" id="c20197"/>
		<path d="M 343.03064159491413,54.04005527821379 L 342.6160579421585,40.452909230391384 L 343.6013465909417,40.370785236224364 L 363.89805110991927,39.679073886235514 L 364.63277354574166,59.18230274584361 L 364.47011924475095,64.8903297472345 L 359.3473444309199,65.87323717078615 L 352.2479498292484,63.75622774855456 L 348.0383836663533,64.60297575620307 L 342.9666417841915,64.22451055353005 L 343.03064159491413,54.04005527821379 z" id="c20087"/>
		<path d="M 271.06214313030915,32.20095143652659 L 278.97997107861613,32.06210649998624 L 290.74818459456213,31.840174453927048 L 284.30933823343634,39.01583181544194 L 283.34417473529527,42.92979099477917 L 288.08497071662896,50.285759344148715 L 292.13976881826403,53.664923213120474 L 292.45545688898625,57.64994585247643 L 301.30060517988045,58.069238136438436 L 301.4061508079488,66.7818782281037 L 295.6217806303975,66.88183351012172 L 277.2140727413311,64.24958975521663 L 277.1385635278928,55.45486519714238 L 271.29153245577413,55.483317938051556 L 271.06214313030915,32.20095143652659 z" id="c20161"/>
		<path d="M 163.0981385639093,138.04650995823465 L 168.8934473655127,138.06113134604215 L 169.0003457706548,120.54865730822203 L 191.92697860051655,120.61692992364888 L 192.31873051551472,122.10471043552766 L 192.30205669416856,126.53208847190272 L 192.3375039585599,149.93178793785114 L 163.50226895579883,149.80032913011772 L 163.01590920842284,148.81914833988628 L 163.0981385639093,138.04650995823465 z" id="c20185"/>
		<path d="M 278.6788606281809,14.506685312250278 L 278.4888821341508,2.8175240970036577 L 295.8565623445775,2.4976757889046257 L 296.178898591214,2.49114520715279 L 307.7888751171169,2.2415529251974795 L 307.9145529923153,8.047471553250018 L 308.5096874543626,31.449427797093175 L 290.74818459456213,31.840174453927048 L 278.97997107861613,32.06210649998624 L 278.6788606281809,14.506685312250278 z" id="c20117"/>
		<path d="M 34.97601983049673,59.391868736200706 L 39.50166927957997,59.510437036668506 L 69.84252518466452,60.47548404150629 L 68.76003696137766,89.59353327515025 L 52.45820406465205,89.11106038384322 L 33.717427045087895,88.5761751624461 L 34.97601983049673,59.391868736200706 z" id="c20109"/>
		<path d="M 104.07919399240593,2.8196237626049236 L 122.92508965104639,3.1331124727822113 L 132.5013681662801,3.2334931620999066 L 132.65276750541298,3.234927446105169 L 132.16358589513945,32.439182344731016 L 104.3929525331742,32.03445916060901 L 103.42035336570297,32.04305050700456 L 104.07919399240593,2.8196237626049236 z" id="c20137"/>
		<path d="M 163.40953987818813,173.64585718122171 L 192.7512251570356,173.68118147696694 L 192.73799840011043,179.52147271797503 L 198.91126683874182,179.51735561120645 L 199.09614454424465,205.45688830818085 L 198.72299753457204,205.45803771229745 L 188.45211964481604,205.42577281313368 L 175.1267248048699,205.35262132179423 L 163.89820209515076,205.29798875733516 L 163.97589318512925,180.05851756066056 L 163.43663347787077,179.43471296840602 L 163.40953987818813,173.64585718122171 z" id="c20007"/>
		<path d="M 220.5556228036593,52.22344279238864 L 220.67506583033844,50.252798441216676 L 249.88224593118997,50.01230088047677 L 249.95522581501925,61.71219845171709 L 250.07277552550872,73.41441459286817 L 220.8464806504884,73.64434466757903 L 220.67699281194209,56.10965939044333 L 220.5556228036593,52.22344279238864 z" id="c20143"/>
		<path d="M 75.33463808079225,31.378537957587447 L 103.42035336570297,32.04305050700456 L 104.3929525331742,32.03445916060901 L 103.738956498837,61.28502008417888 L 74.58219829074127,60.58931742661736 L 75.33463808079225,31.378537957587447 z" id="c20179"/>
		<path d="M 364.47011924475095,64.8903297472345 L 364.63277354574166,59.18230274584361 L 363.89805110991927,39.679073886235514 L 373.43718131795936,39.354187743583545 L 375.1029037568996,39.101327683991705 L 376.153628981118,40.5391137383107 L 379.1794408223475,40.91292513014731 L 378.3622709503499,45.57110040799643 L 381.1536941907808,48.81561077849358 L 382.8785597393674,50.907145702185865 L 384.33184854205837,53.25207573086323 L 384.7452934371509,53.55571454195299 L 379.08643135321057,53.66654943678907 L 379.1858120147367,67.89038528415954 L 378.39243921144464,67.16539615053189 L 371.4778051691055,68.80557317135666 L 364.70803784873414,70.23325413046187 L 364.47011924475095,64.8903297472345 z" id="c20103"/>
		<path d="M 133.5047954627448,32.462552803183875 L 161.3942656566287,32.658503564161144 L 162.52977987868957,32.67131812420254 L 162.18683815802217,61.91496179097058 L 133.70354744628898,61.70869246045448 L 133.0016016794391,61.69208623467507 L 133.5047954627448,32.462552803183875 z" id="c20163"/>
		<path d="M 161.53022009758212,3.472420289259088 L 179.1498961906212,3.534423724365829 L 184.97501719246122,3.5407627684035012 L 190.6285167522762,3.5457001603293863 L 190.58491588626586,32.78306314975349 L 162.52977987868957,32.67131812420254 L 161.3942656566287,32.658503564161144 L 161.53022009758212,3.472420289259088 z" id="c20183"/>
		<path d="M 349.69607785673674,147.67756142486667 L 349.2459052071323,133.0391256985997 L 372.6733898828309,132.26957005779715 L 373.11726789145735,146.88912079663095 L 372.88171547281166,152.78379950517177 L 370.91021063005616,152.75823562172448 L 349.5538043426403,153.56404200412624 L 349.69607785673674,147.67756142486667 z" id="c20001"/>
		<path d="M 4.167297660867076,87.7157776314725 L 29.36276296435516,88.46822325194697 L 28.377413210699757,117.78570788177328 L 3.1126066814448388,116.93877438594572 L 3.1279413144043633,116.51319436252788 L 3.407847710429665,108.74571416084679 L 3.9674140499637627,93.24981178793611 L 4.167297660867076,87.7157776314725 z" id="c20071"/>
		<path d="M 52.96206552171173,118.43865831834745 L 75.12884311316839,119.03618543594551 L 98.44779506687824,119.65174279164552 L 99.36177974881221,119.67232234519533 L 99.06466961402361,137.2219165647422 L 75.80836153295186,136.63478032366868 L 76.02874754281714,154.5340244877451 L 52.69666766732454,153.9363991683281 L 52.1179330723877,147.6896767549106 L 52.96206552171173,118.43865831834745 z" id="c20055"/>
	</g>
</svg>