<?xml version="1.0" encoding="UTF-8"?>
<svg baseProfile="full" fill="#d0d0d0" height="169.25468907050126" stroke="#ffffff" stroke-width="1" version="1.1" width="399.99999999999994" xmlns="http://www.w3.org/2000/svg" xmlns:ev="http://www.w3.org/2001/xml-events" xmlns:xlink="http://www.w3.org/1999/xlink">
	<defs/>
	<g id="counties"><path d="M 40.37506674628088,151.06264503961862 L 40.77421872314913,149.56495654694479 L 41.35506848812379,138.20284285286894 L 58.60057421633787,139.33958184787969 L 57.939630785021,151.87931776650396 L 57.01140455968183,168.16240454352584 L 55.8054656951498,168.09535324945034 L 55.57109413448596,168.08402306290742 L 39.70816034423062,167.29084924571265 L 40.37506674628088,151.06264503961862 z" id="c21083"/>
		<path d="M 262.7875453140652,4.8875017364494795 L 265.70684418787175,3.187401755759872 L 267.9689375412235,3.036667423896786 L 270.79640200880954,10.126010188998185 L 270.7728834514295,21.52466644310849 L 272.4446439848896,22.374628466469495 L 266.59195155953125,23.320139387832747 L 262.3222431088974,22.6280914879327 L 263.2498273691516,17.579824226947157 L 262.0692089655067,4.551378566932339 L 262.7875453140652,4.8875017364494795 z" id="c21117"/>
		<path d="M 215.45860296882083,74.00348023256907 L 219.69886051220635,67.9378176042514 L 220.08782997777183,67.05092182769236 L 220.35907868980198,65.15203216677011 L 230.22628036312548,69.06545743207164 L 232.0940258513288,70.0414965101279 L 236.96017965327803,72.5475825804429 L 233.43745702610124,75.0902844182673 L 233.4904651403479,76.80008305176372 L 221.4558404835145,78.75227615773214 L 216.85305755787869,75.37142106858018 L 215.45860296882083,74.00348023256907 z" id="c21215"/>
		<path d="M 112.15221644050338,95.29006776974207 L 113.3634745484365,94.19786240688086 L 116.74798413013438,93.09054364719586 L 130.55285180085048,100.61411354176781 L 135.7609595367208,101.74571615810478 L 130.5335501043796,106.53979758490722 L 132.26177277585845,111.12054375807143 L 126.38616369345831,113.23510007796783 L 121.97083746884188,112.37777666424539 L 120.28450036968114,111.88652592948749 L 118.23265821271323,100.58119538540844 L 112.70209638235718,98.36432535445256 L 112.15221644050338,95.29006776974207 z" id="c21149"/>
		<path d="M 229.43317282147214,145.29334520352162 L 230.85894622504966,140.60728276597493 L 239.5003350570412,128.30315415804372 L 244.11573423621002,133.82477433756307 L 246.91709529635756,132.92701673899353 L 246.6402278014996,137.45014776993457 L 250.29678014609826,140.72084036357433 L 244.51090175325382,143.159937023535 L 243.68236669977128,145.9960106765117 L 238.21132182755937,149.72207893945347 L 235.3452589967455,151.75262823643354 L 229.24683341287985,147.8710823234621 L 230.25843339942503,149.925243537126 L 227.15700265770738,147.04755988732583 L 229.43317282147214,145.29334520352162 z" id="c21207"/>
		<path d="M 242.40673200237356,57.03173472095421 L 244.59993929642704,53.29804522456934 L 242.50247164774785,53.06444160317117 L 247.234456142512,50.53071792643203 L 249.0702036187462,51.727504037926444 L 253.03626696394232,52.93642139991256 L 255.76457995390462,52.05176674006574 L 256.1631004295342,60.150579581062516 L 256.50683693975833,62.333833467156346 L 249.26878877132927,65.82986717773679 L 249.2527263526127,67.4303137134047 L 247.3096268026392,68.95477991930133 L 241.0459159551077,66.57455018080263 L 242.40673200237356,57.03173472095421 z" id="c21073"/>
		<path d="M 214.79640174019698,103.91076469018033 L 218.5984870776484,95.34493588582507 L 221.1691636339886,92.45041661062172 L 223.83761362078596,97.3932291820429 L 233.35931231993837,99.1049657964815 L 240.4357633631819,99.1596537184473 L 239.8927393104536,104.7880850322358 L 239.53875984596792,113.49198059650307 L 238.03827624021537,113.38562591506816 L 235.19538714984378,110.7717129704455 L 229.00952938312378,112.86845572937857 L 224.15592352799752,109.58510009954519 L 217.58824200562157,109.75932212730908 L 215.74490302263976,104.26770724904108 L 214.79640174019698,103.91076469018033 z" id="c21155"/>
		<path d="M 205.36224580021644,120.304990111523 L 207.57390796241415,112.47142111281603 L 208.83099577388262,109.23038969328293 L 211.47431680914664,109.39170154062255 L 211.35221408426693,111.81684804194485 L 216.88191807638577,116.42344770294677 L 223.29562127008037,127.71703930315053 L 221.83658636594944,129.27855903381283 L 214.1012174602931,133.031872052827 L 208.58840177864533,131.93038448138788 L 205.8073596258778,128.1310803529661 L 205.36224580021644,120.304990111523 z" id="c21087"/>
		<path d="M 183.27943710693808,135.67437105834443 L 185.32823668535173,136.22535172334545 L 186.40971918814472,128.78615660261076 L 194.25142427380436,130.1667377380168 L 202.76957679418376,128.9087353488177 L 201.02014005287924,130.94176499336214 L 202.0835617688693,132.82509059194797 L 202.68214867190989,150.4084750008626 L 200.9384248560707,150.71631347992306 L 190.0306566220872,157.96485409384007 L 185.23417640819466,152.4325485256821 L 185.53170830918344,146.24778775659968 L 183.39279091408585,148.5133224901012 L 180.3138694113243,143.93450483594825 L 183.27943710693808,135.67437105834443 z" id="c21009"/>
		<path d="M 249.26878877132927,65.82986717773679 L 256.50683693975833,62.333833467156346 L 260.4977468691836,63.58489056603426 L 261.6569963551047,67.53161092906143 L 259.8003764232116,74.89297774836541 L 257.1857308338507,84.16964949642626 L 254.31104264566602,85.07866268211285 L 251.15948795857767,80.56726932145774 L 252.7428262932098,77.06578407675772 L 250.005830459622,71.9488563499824 L 251.00126810817184,68.96849460972412 L 249.2527263526127,67.4303137134047 L 249.26878877132927,65.82986717773679 z" id="c21239"/>
		<path d="M 203.78605973821126,86.88918426251321 L 206.7655197853781,86.71835112225075 L 212.24338656554355,82.21644254702882 L 216.85305755787869,75.37142106858018 L 221.4558404835145,78.75227615773214 L 233.4904651403479,76.80008305176372 L 234.22215125547285,81.66190322743367 L 231.5180933563968,84.98731861226432 L 228.9325974435774,83.65234973283982 L 221.1691636339886,92.45041661062172 L 218.5984870776484,95.34493588582507 L 214.79640174019698,103.91076469018033 L 209.43304497663897,104.74085255603572 L 211.23932751784938,94.75026154167283 L 206.680413437709,92.1408372866836 L 203.83052466232064,88.90423782907534 L 203.78605973821126,86.88918426251321 z" id="c21179"/>
		<path d="M 300.0776931653844,106.73018785754697 L 307.5056535403769,108.22934084051198 L 313.08175396102956,105.19957288219457 L 316.04432259094176,107.38935066062294 L 318.43155080855115,113.18793031121572 L 317.7760269015654,118.62665376152138 L 317.5825543084081,121.71848608524827 L 318.89827165470933,123.58672549597176 L 312.24156074105184,117.11678728888069 L 305.3633195614958,117.76912252223096 L 300.15645464726305,109.37180799699817 L 300.0776931653844,106.73018785754697 z" id="c21189"/>
		<path d="M 285.5798189505967,38.91072577222858 L 289.59815755527745,35.33893064488392 L 294.33445561799357,36.30310756734908 L 295.405909325855,36.72509903702076 L 297.505100382225,42.93360381694197 L 294.95686533009564,46.40063835036263 L 293.9733663403441,47.52703877440287 L 288.6709432378902,45.10998373898862 L 286.2155771674953,43.82264895434091 L 284.4579746050007,42.58505089564764 L 285.5798189505967,38.91072577222858 z" id="c21201"/>
		<path d="M 196.5199304855218,71.78770498121455 L 205.38113598083658,68.87448027460113 L 214.85127501944072,69.24115318126947 L 220.08782997777183,67.05092182769236 L 219.69886051220635,67.9378176042514 L 215.45860296882083,74.00348023256907 L 216.85305755787869,75.37142106858018 L 212.24338656554355,82.21644254702882 L 206.7655197853781,86.71835112225075 L 203.78605973821126,86.88918426251321 L 198.647155057851,82.38402472358435 L 197.85749701414454,78.04215901422137 L 193.59580203500045,74.47128915177935 L 196.5199304855218,71.78770498121455 z" id="c21029"/>
		<path d="M 332.09258798441795,67.36393162597483 L 335.378177919721,63.8406920039728 L 335.04938846651663,63.394630903404554 L 334.52128431839105,63.298519283282424 L 333.9393099624406,63.51977280111943 L 333.35933082130987,63.26887176278658 L 333.0817506651249,63.37824210865625 L 332.7887303415927,63.109591892529934 L 332.00252867189147,62.662053359061154 L 332.21313130129755,62.472017711446874 L 332.8751560983554,62.77401900800545 L 333.0193643211794,62.31289098711738 L 336.3995858579707,57.391541846704385 L 342.90147769441324,62.38034312001527 L 349.5426033544729,63.234284605773034 L 351.471542695304,67.28582494107332 L 344.66066114337224,74.30614436589755 L 335.73182055896854,74.18099453979993 L 331.91192628260757,71.0608671593038 L 332.09258798441795,67.36393162597483 z" id="c21063"/>
		<path d="M 321.03566647017936,147.3453928525047 L 325.30894446972786,147.64841248171842 L 325.7614867012278,145.63156762533484 L 333.0683957881057,142.41575493555558 L 337.12214347933235,138.95473650299692 L 340.2888801591261,140.23433173299296 L 338.6792915141146,143.16154593760191 L 349.86516986437795,139.15656551479012 L 353.5956004075752,141.80901732511134 L 353.85767285921327,145.29273679924114 L 352.90502242228683,146.86505132302366 L 352.30470384367436,147.85523044117159 L 346.17426241746716,150.2240581605668 L 342.8562487225621,150.05140210362853 L 340.84268820379214,153.64565071928908 L 339.74187142356465,157.12984581035144 L 334.4837629713834,158.25150943067007 L 326.6181239586543,160.97063016549487 L 323.9714942331599,162.33090577382146 L 322.68191703095863,162.34565856326063 L 320.53944208837083,157.9680040922731 L 321.03566647017936,147.3453928525047 z" id="c21095"/>
		<path d="M 297.505100382225,42.93360381694197 L 301.1719167050267,45.27187625950445 L 312.3354036037357,40.69156317174337 L 315.47827939405187,46.832321887808874 L 322.1373919632937,50.017569541559816 L 319.3978781980897,57.39643339057733 L 316.4726757492181,60.87869761036856 L 312.82542859709747,62.80840573794068 L 312.22420591239035,63.873789534651735 L 308.12558794576853,55.959182964277716 L 301.77985372953384,55.70531124859485 L 302.21963293347875,52.99164042193201 L 298.26800016008707,51.581388497751284 L 294.95686533009564,46.40063835036263 L 297.505100382225,42.93360381694197 z" id="c21069"/>
		<path d="M 258.21158299835304,92.99193223170964 L 256.80659113191825,87.21618716432599 L 259.9148167736425,89.29111732759962 L 259.9376552895669,87.5898715813193 L 264.35739703943085,92.93376616305133 L 266.732128817739,90.26070185089553 L 270.64261832158815,94.95831056201129 L 275.9582604308885,105.3656592957863 L 274.5757196353226,109.70557090570198 L 270.79410873303004,108.8385069148188 L 260.299061200041,100.68605548152601 L 259.79907388780015,99.07304647447674 L 260.1162554351105,98.0013283673936 L 255.3183063565272,93.90686109015815 L 258.21158299835304,92.99193223170964 z" id="c21079"/>
		<path d="M 283.9409154183426,50.85237904839049 L 288.6709432378902,45.10998373898862 L 293.9733663403441,47.52703877440287 L 294.95686533009564,46.40063835036263 L 298.26800016008707,51.581388497751284 L 302.21963293347875,52.99164042193201 L 301.77985372953384,55.70531124859485 L 295.11509934879865,62.592969538862995 L 295.55823991175754,61.464777627730875 L 287.75690828142683,57.14898792104273 L 283.9409154183426,50.85237904839049 z" id="c21181"/>
		<path d="M 292.6113328248909,83.72414137382917 L 295.7678832906609,79.70132122816908 L 303.6276449192784,81.67013787158521 L 306.0147921145178,80.4703905201605 L 311.53797993370074,85.91396725402578 L 313.19841495053225,86.51609084251533 L 309.24631775366464,93.67125677329436 L 308.5116910427781,93.67833885277987 L 305.612191373854,91.05199155978865 L 298.92410383141305,90.91225482278585 L 294.70762038419457,85.1030808575993 L 293.9353250098546,85.80672001466317 L 292.6113328248909,83.72414137382917 z" id="c21197"/>
		<path d="M 296.55429533163914,163.8546324103301 L 300.70220635030245,161.1007024084065 L 304.8505335177336,154.6689176563138 L 317.00401969381915,145.01238175914813 L 315.76373766077717,143.4328418294629 L 319.99957332524025,144.53190273254194 L 321.03566647017936,147.3453928525047 L 320.53944208837083,157.9680040922731 L 322.68191703095863,162.34565856326063 L 319.1920480482551,162.3838660177147 L 314.5958752293363,164.51343061517707 L 311.3953871572014,166.70656317031012 L 310.5947538895058,167.90550825893385 L 299.8354533428457,167.70354713617633 L 297.91606582518494,167.63112714377354 L 296.55429533163914,163.8546324103301 z" id="c21013"/>
		<path d="M 80.08438392916838,121.9331317644844 L 95.57210522095158,112.24262902311379 L 94.8535184794793,114.10184181517232 L 92.83157487957756,115.92341041030792 L 95.01460080870254,121.28667733261605 L 101.29836682022784,127.54274429272554 L 99.39776765770041,135.8341654353709 L 98.1713519064838,137.0658672326932 L 91.49474497059748,140.17599993517146 L 90.52610098107311,139.52184348788754 L 82.43399991302643,125.13073121881251 L 79.63960935441503,124.69186972256011 L 80.08438392916838,121.9331317644844 z" id="c21033"/>
		<path d="M 261.6569963551047,67.53161092906143 L 262.46545881031847,66.41210030331746 L 273.21305799469224,61.574751129033785 L 275.61899653033987,63.50388778064044 L 274.35273634275876,67.88987659993887 L 279.1700141088599,70.80286532370434 L 275.934322831975,81.83821597513223 L 276.5229977089879,82.25944544880534 L 273.9880825758524,85.30176499864008 L 271.41563517580977,85.1851878628159 L 269.151314731842,79.09039300034692 L 264.43782552886046,76.62987672897647 L 263.22986130633734,76.0173116635543 L 259.8003764232116,74.89297774836541 L 261.6569963551047,67.53161092906143 z" id="c21067"/>
		<path d="M 219.55885276501468,28.086413107906832 L 222.0590254500925,26.63765775787977 L 225.10993251550283,26.81143927699326 L 225.53690085752496,26.755990258803713 L 231.64978927848838,36.94678196631159 L 233.86839911136593,36.62684850533734 L 228.0808553816586,42.40480392161789 L 226.30928615895502,42.62535852577325 L 222.99948430898445,40.86850661969032 L 220.2147717453349,40.48643727865932 L 221.12661886221113,39.04330639055315 L 220.347008017921,36.417876752036875 L 220.11285175592687,35.62870673637946 L 220.03227991215167,31.631677240771992 L 219.55885276501468,28.086413107906832 z" id="c21223"/>
		<path d="M 123.19822598285164,133.3426725298551 L 123.6082860389521,135.44216590453746 L 133.98883750173246,134.42887986607448 L 132.7553105421019,161.6596215124592 L 129.8965021298031,161.6127077310839 L 118.23617806309784,161.40393326526697 L 123.19822598285164,133.3426725298551 z" id="c21219"/>
		<path d="M 268.34304786840715,3.011632726826709 L 268.6209063502267,2.993019553240166 L 269.2763347463491,2.0583003025182998 L 270.2412619296219,1.733204255667743 L 271.0971871235307,2.213058841456144 L 271.72073657376325,4.211563253900959 L 273.34987765389025,6.676571182012672 L 277.1479074976802,7.918790903519518 L 277.4198817379303,8.369298145135948 L 278.6423303324191,10.392930398641635 L 279.105980954377,12.613237125100868 L 281.9716494176631,17.544486811623514 L 281.96286561999636,17.922629775152352 L 274.01895854344696,22.002254600775746 L 272.4446439848896,22.374628466469495 L 270.7728834514295,21.52466644310849 L 270.79640200880954,10.126010188998185 L 267.9689375412235,3.036667423896786 L 268.34304786840715,3.011632726826709 z" id="c21037"/>
		<path d="M 313.19841495053225,86.51609084251533 L 317.3363907773582,86.73246557887833 L 320.240041372213,84.07168343250508 L 320.8115214365705,85.24517552197231 L 325.9084264895761,87.17960898155158 L 332.433130000177,93.72786996459327 L 333.16481720242217,96.53797736914032 L 324.3172186841073,95.24369838798229 L 320.3488172484553,99.93511123710667 L 318.9423930349788,98.7076462801354 L 314.0180895459448,96.88407043875306 L 309.24631775366464,93.67125677329436 L 313.19841495053225,86.51609084251533 z" id="c21237"/>
		<path d="M 57.939630785021,151.87931776650396 L 77.66504264032007,152.95515860861238 L 79.17166599017767,155.6666005145365 L 79.59935534827915,157.56017566449844 L 80.25012934505484,160.70965164471608 L 81.19514006861856,165.90943642370323 L 80.17583224104506,169.25468907050126 L 80.02328347412978,169.25210817266023 L 76.10870061443859,169.18424341659815 L 57.01140455968183,168.16240454352584 L 57.939630785021,151.87931776650396 z" id="c21035"/>
		<path d="M 66.54963712546072,109.36980324702756 L 70.69203381233208,106.42461190558826 L 77.229604425718,105.76674626617918 L 82.2272673253743,104.60676693510591 L 82.06525096696885,103.53188943163532 L 84.82155824734413,100.82311465897739 L 88.94905553322954,105.39052381030533 L 88.91763319025942,110.03385158597007 L 93.24220697707533,109.44906392717265 L 95.57210522095158,112.24262902311379 L 80.08438392916838,121.9331317644844 L 79.63960935441503,124.69186972256011 L 74.86263595312192,127.99565375009746 L 74.43292686786299,126.59665906476559 L 73.45476489011256,118.30465888511357 L 68.63267835468616,109.91143828321425 L 66.54963712546072,109.36980324702756 z" id="c21055"/>
		<path d="M 285.13109506543543,104.15643159074966 L 289.37644895291356,103.58280607757075 L 295.8938699226164,102.57233762531006 L 299.012505512601,105.08653324470392 L 300.0776931653844,106.73018785754697 L 300.15645464726305,109.37180799699817 L 305.3633195614958,117.76912252223096 L 299.29242366075874,124.01432280445643 L 297.0874742300123,124.23095287389113 L 293.84787940368494,124.05783701485542 L 287.5947920330313,118.6831307846353 L 286.9188998683737,119.72284074663375 L 287.3741005866862,117.22936857900095 L 283.6910592629699,106.42864728545636 L 285.13109506543543,104.15643159074966 z" id="c21109"/>
		<path d="M 347.9079564983618,81.67480723446991 L 346.41377247023576,77.10302980032132 L 348.29631252989367,74.69700013245529 L 354.5671683095943,76.72802784737576 L 366.0307108717548,82.33991464495301 L 363.026635489946,84.1896938245761 L 364.74141633712804,92.77964635634419 L 358.9063888517414,90.51791982425853 L 349.1448829087468,93.27845884188814 L 348.5618672008911,88.15372357558066 L 345.69615934415594,83.96934509288242 L 347.9079564983618,81.67480723446991 z" id="c21115"/>
		<path d="M 277.4762659055427,151.5458341444222 L 278.5652178235328,144.20191885036638 L 280.65158998499055,142.4402903126029 L 284.5717812149927,144.63094781384606 L 289.36745262807716,143.5366582683465 L 290.74808017618324,150.20273468807306 L 295.0813900349759,153.68274522631006 L 296.4204602929453,158.49773559793957 L 300.70220635030245,161.1007024084065 L 296.55429533163914,163.8546324103301 L 297.91606582518494,167.63112714377354 L 294.9134855723465,167.5163137591605 L 294.9012828469024,167.51584335528958 L 282.2614747865019,167.36647608794303 L 278.0190825774959,161.82377554685047 L 275.47790590551773,153.03322240099064 L 277.4762659055427,151.5458341444222 z" id="c21235"/>
		<path d="M 221.1691636339886,92.45041661062172 L 228.9325974435774,83.65234973283982 L 231.5180933563968,84.98731861226432 L 234.22215125547285,81.66190322743367 L 235.5878574356327,80.39801052599995 L 240.56162286257802,82.12071474788598 L 240.50795555669225,82.77110437571169 L 242.09883067577252,84.54379378217314 L 240.73016855348152,96.04675118749756 L 240.64389709811942,96.99057819377536 L 240.4357633631819,99.1596537184473 L 233.35931231993837,99.1049657964815 L 223.83761362078596,97.3932291820429 L 221.1691636339886,92.45041661062172 z" id="c21229"/>
		<path d="M 317.7760269015654,118.62665376152138 L 322.8829962631842,115.67567093479182 L 326.4504777042301,118.30074335263538 L 335.0982145256311,111.3187474052775 L 339.84706577080794,113.78808717787236 L 339.8581187393497,124.86149478565596 L 343.00967908281797,124.26258234201207 L 346.5195593932473,127.40404433061045 L 343.5071814071588,132.13433396877062 L 343.78011442672397,139.11680773285605 L 340.2888801591261,140.23433173299296 L 337.12214347933235,138.95473650299692 L 337.84029835409467,133.62565531192698 L 335.9695687094622,128.94868588828172 L 329.5057801385447,125.65038765571985 L 325.60091570481296,119.47222455541092 L 319.9056120937516,125.06184626005857 L 318.89827165470933,123.58672549597176 L 317.5825543084081,121.71848608524827 L 317.7760269015654,118.62665376152138 z" id="c21193"/>
		<path d="M 249.9150574027645,104.65987277275211 L 259.81655029908217,100.13524036824101 L 259.79907388780015,99.07304647447674 L 260.299061200041,100.68605548152601 L 270.79410873303004,108.8385069148188 L 267.83317428366166,119.11625544890275 L 265.04040382419777,117.34474990083368 L 256.41683037710953,124.99491529096505 L 257.2005083706809,120.97179827567655 L 256.34707843404914,117.0255276350718 L 249.68700772091722,112.59353482086142 L 249.9150574027645,104.65987277275211 z" id="c21137"/>
		<path d="M 240.56162286257802,82.12071474788598 L 245.64750264111854,78.05953142078901 L 252.7428262932098,77.06578407675772 L 251.15948795857767,80.56726932145774 L 254.31104264566602,85.07866268211285 L 257.1857308338507,84.16964949642626 L 258.2669643850551,84.88598679390532 L 256.80659113191825,87.21618716432599 L 258.21158299835304,92.99193223170964 L 255.3183063565272,93.90686109015815 L 252.78781427393298,93.61932479640018 L 240.73016855348152,96.04675118749756 L 242.09883067577252,84.54379378217314 L 240.50795555669225,82.77110437571169 L 240.56162286257802,82.12071474788598 z" id="c21167"/>
		<path d="M 268.95259732877633,41.881193629142984 L 269.42088548376694,39.64510830584227 L 270.84554926760586,40.51924430934496 L 273.3295761167591,38.48244788137435 L 283.3520275036635,37.08472213736708 L 282.82442999494367,38.856838576700525 L 285.5798189505967,38.91072577222858 L 284.4579746050007,42.58505089564764 L 286.2155771674953,43.82264895434091 L 288.6709432378902,45.10998373898862 L 283.9409154183426,50.85237904839049 L 279.4145367304394,54.73463971488357 L 278.15978958479707,54.69220484891767 L 276.7306701260247,56.285247052376185 L 271.1150104187699,56.63788426554076 L 271.6238877484369,55.56959975423078 L 269.50274821414627,48.97857629264226 L 265.2410933349715,42.89391783728014 L 268.95259732877633,41.881193629142984 z" id="c21097"/>
		<path d="M 344.66066114337224,74.30614436589755 L 351.471542695304,67.28582494107332 L 349.5426033544729,63.234284605773034 L 354.7594767967622,60.985795629051374 L 356.22031593581033,58.63796115502064 L 365.48186258564704,57.02194588637691 L 367.04025565656275,58.66801659784568 L 366.3550627666255,61.26720631326978 L 365.0203319064943,65.62384318305811 L 369.07646719837743,70.25022479467069 L 373.5547114860687,75.8101372797056 L 372.8550884682982,78.33131978937911 L 367.5777953483115,77.41418406740341 L 366.0307108717548,82.33991464495301 L 354.5671683095943,76.72802784737576 L 348.29631252989367,74.69700013245529 L 346.41377247023576,77.10302980032132 L 344.66066114337224,74.30614436589755 z" id="c21127"/>
		<path d="M 90.64967334899976,77.42633014179643 L 93.2337038963849,76.66947871870748 L 96.46183515221436,79.79663106556741 L 100.87903376766569,78.86026482824467 L 101.39740983191447,79.46743713307986 L 102.96853674207414,81.30638472078935 L 105.85251085290577,81.67493160905848 L 106.86558192972826,78.6411005803884 L 109.89361236986984,77.00645024313884 L 113.24672321189631,77.4661519034875 L 115.23237397630072,76.640708690553 L 116.8141743789243,75.98234705602191 L 121.2328084443766,78.52395815839851 L 122.63706237999368,79.54155887394865 L 121.47194214817402,84.36281150407986 L 124.07634962295144,87.01147996421544 L 117.58993671579015,90.47077759956497 L 116.74798413013438,93.09054364719586 L 113.3634745484365,94.19786240688086 L 112.15221644050338,95.29006776974207 L 99.68522528181616,95.43521886562854 L 98.55483143037073,87.25005767353987 L 95.80900673924907,87.15964637182515 L 90.438865143084,77.9613134730837 L 90.64967334899976,77.42633014179643 z" id="c21101"/>
		<path d="M 149.22626702321716,156.74003013575418 L 154.510868196378,147.11189445235337 L 156.85199194266082,146.72702748300793 L 158.25239079663314,150.2195137442227 L 167.8348558438637,151.96295627858836 L 167.51088103130758,153.98838851111307 L 166.66127772957296,160.51275108554316 L 167.01268007959058,162.35725963864292 L 161.94079001785954,161.9601491476434 L 159.62150896575648,162.84992575746503 L 159.05755265025786,162.6548965766751 L 156.73814399658022,161.85194504752798 L 148.45648835396375,161.8547924122582 L 149.22626702321716,156.74003013575418 z" id="c21213"/>
		<path d="M 275.934322831975,81.83821597513223 L 279.1700141088599,70.80286532370434 L 289.82297422966474,67.64678257794868 L 295.7678832906609,79.70132122816908 L 292.6113328248909,83.72414137382917 L 293.9353250098546,85.80672001466317 L 290.1395980000854,86.75294507800294 L 289.86440427069215,84.80288987810718 L 280.47683742756493,83.310430467009 L 279.89509387006296,80.58945794459481 L 276.5229977089879,82.25944544880534 L 275.934322831975,81.83821597513223 z" id="c21049"/>
		<path d="M 294.33445561799357,36.30310756734908 L 298.7739842008255,24.92325353476819 L 301.45885484430084,25.950271512529103 L 302.39579975295527,28.26561485723751 L 304.9876253401957,29.586740245127924 L 305.5883798609076,32.03839143428084 L 308.99972850633173,33.3363055881169 L 310.35749955164977,33.85201089561039 L 312.02526107021777,33.06773658794323 L 313.1846479131773,35.052209390874005 L 312.3354036037357,40.69156317174337 L 301.1719167050267,45.27187625950445 L 297.505100382225,42.93360381694197 L 295.405909325855,36.72509903702076 L 294.33445561799357,36.30310756734908 z" id="c21161"/>
		<path d="M 228.47407407051048,26.37346558251368 L 230.3473347717946,27.616967251021222 L 232.22318645981042,29.277173812272533 L 232.95970033671279,29.92849311041812 L 235.03866104486184,29.437287974681023 L 238.9103725357426,26.452266766610414 L 241.52841903410413,25.36437848253785 L 244.48132847918495,30.557015442832935 L 245.91675705368195,31.710854347035212 L 245.5064053609419,32.47130085055917 L 238.68939930436557,35.926690488484525 L 233.86839911136593,36.62684850533734 L 231.64978927848838,36.94678196631159 L 225.53690085752496,26.755990258803713 L 228.47407407051048,26.37346558251368 z" id="c21041"/>
		<path d="M 233.43745702610124,75.0902844182673 L 236.96017965327803,72.5475825804429 L 239.7689423954,70.27659111232276 L 241.0459159551077,66.57455018080263 L 247.3096268026392,68.95477991930133 L 249.2527263526127,67.4303137134047 L 251.00126810817184,68.96849460972412 L 250.005830459622,71.9488563499824 L 252.7428262932098,77.06578407675772 L 245.64750264111854,78.05953142078901 L 240.56162286257802,82.12071474788598 L 235.5878574356327,80.39801052599995 L 234.22215125547285,81.66190322743367 L 233.4904651403479,76.80008305176372 L 233.43745702610124,75.0902844182673 z" id="c21005"/>
		<path d="M 20.09620646584476,152.20029463327126 L 22.62975987177071,149.75562265158794 L 22.788360610035294,147.77556833071029 L 25.552093394819067,147.20134182902362 L 27.408284408130935,148.9068189301857 L 40.77421872314913,149.56495654694479 L 40.37506674628088,151.06264503961862 L 39.70816034423062,167.29084924571265 L 39.15830461484966,167.26242534093322 L 38.76700448397654,167.24215974696767 L 35.37692797945565,162.16194872502209 L 33.453305445822856,161.10368778306488 L 28.932838737615693,160.83115515303612 L 22.778394386378327,156.7703450332565 L 21.28168019640638,156.54604149943927 L 21.85589258947403,155.8483975507113 L 20.09620646584476,152.20029463327126 z" id="c21105"/>
		<path d="M 297.0874742300123,124.23095287389113 L 299.29242366075874,124.01432280445643 L 305.3633195614958,117.76912252223096 L 312.24156074105184,117.11678728888069 L 318.89827165470933,123.58672549597176 L 319.9056120937516,125.06184626005857 L 317.6668041240811,129.55570461363976 L 317.61630433239026,135.33299431243682 L 319.99957332524025,144.53190273254194 L 315.76373766077717,143.4328418294629 L 313.0772281964572,143.20470312546735 L 306.03929047250585,138.18619116877338 L 300.92957380449116,137.02556110369144 L 300.1595713186544,132.84818655279767 L 295.7506554885456,129.5827572644481 L 297.0874742300123,124.23095287389113 z" id="c21051"/>
		<path d="M 246.91709529635756,132.92701673899353 L 256.41683037710953,124.99491529096505 L 265.04040382419777,117.34474990083368 L 267.83317428366166,119.11625544890275 L 278.2700383088868,129.78489734921104 L 279.0092437539013,130.72665094873565 L 278.27439454415605,138.14746622546832 L 275.3809979486587,143.31731779465005 L 272.2902689277089,144.1298640546029 L 263.7924666323995,149.33135567521575 L 258.513141219483,141.85945250277942 L 253.72402111263466,143.35248278031864 L 250.29678014609826,140.72084036357433 L 246.6402278014996,137.45014776993457 L 246.91709529635756,132.92701673899353 z" id="c21199"/>
		<path d="M 339.3596654274888,39.5278654981053 L 343.96985500616836,30.03626450869664 L 343.61952549339543,27.843281484841715 L 344.55778304297337,26.967113188251485 L 348.0669781238203,26.052765119853017 L 350.8209323441247,25.174968373656206 L 351.1888545313062,26.116186777467888 L 351.7806610929165,27.62932041327605 L 351.9021703041562,30.259877226970318 L 352.91357500836494,35.07994975332985 L 354.98933017037285,37.14103289298959 L 355.58623512270066,37.733218353997515 L 359.4608656153238,38.03621846398312 L 362.03294732266613,40.749452986962275 L 362.6387001670967,41.24905849818929 L 357.3192304367832,46.18323487528843 L 355.21935011663464,48.88094136617961 L 354.88757459030484,50.13603592888757 L 346.9748735873693,48.96059124099249 L 342.73524158179214,44.32042378355203 L 336.80346375688987,41.86905560883435 L 339.3596654274888,39.5278654981053 z" id="c21089"/>
		<path d="M 139.62103801427318,77.96132350491087 L 142.23017822571384,77.43161985047865 L 144.9856190803785,75.16531587634371 L 148.254711664242,73.60275221357386 L 148.399002037753,73.53370859928738 L 149.92723459053806,76.23682207989104 L 152.80726124892882,80.49831888524945 L 156.08012792231509,82.1091683018659 L 156.6780185938929,82.41731607010497 L 154.93645418112587,87.09103205496962 L 157.45297622147956,95.72012989182727 L 156.73633749561782,95.71554144297355 L 147.27640445221058,90.49126630300064 L 145.87648812633088,83.70225374959945 L 142.83437882962582,83.8333555197534 L 142.80409998948303,79.4765503432713 L 139.0703528600683,79.81074865170396 L 139.62103801427318,77.96132350491087 z" id="c21091"/>
		<path d="M 214.1012174602931,133.031872052827 L 221.83658636594944,129.27855903381283 L 223.29562127008037,127.71703930315053 L 225.45656478267975,124.20841935753779 L 231.74126906491352,122.59185222135937 L 233.19806332468696,120.10165079023677 L 238.8296088684702,123.64771875658406 L 239.5003350570412,128.30315415804372 L 230.85894622504966,140.60728276597493 L 229.43317282147214,145.29334520352162 L 217.89008694653205,144.30070554529473 L 218.24755361960217,143.055419058828 L 215.22971724143926,139.71144007980584 L 214.1012174602931,133.031872052827 z" id="c21001"/>
		<path d="M 209.954225986807,148.50887348112164 L 212.08602580022986,149.93709026298936 L 217.89008694653205,144.30070554529473 L 229.43317282147214,145.29334520352162 L 227.15700265770738,147.04755988732583 L 230.25843339942503,149.925243537126 L 228.55179152267934,157.12165125458696 L 225.8578859280959,164.82871629139677 L 218.43079223090825,165.27217001720348 L 215.3003842597687,160.46880418971904 L 216.70360709140328,157.70448473234933 L 214.2561354057523,157.79519265832616 L 210.1869727658001,152.05883274400182 L 209.954225986807,148.50887348112164 z" id="c21057"/>
		<path d="M 211.47431680914664,109.39170154062255 L 215.902966762814,108.60036584660719 L 217.58824200562157,109.75932212730908 L 224.15592352799752,109.58510009954519 L 229.00952938312378,112.86845572937857 L 235.19538714984378,110.7717129704455 L 238.03827624021537,113.38562591506816 L 235.02293621990216,115.28290606176729 L 233.19806332468696,120.10165079023677 L 231.74126906491352,122.59185222135937 L 225.45656478267975,124.20841935753779 L 223.29562127008037,127.71703930315053 L 216.88191807638577,116.42344770294677 L 211.35221408426693,111.81684804194485 L 211.47431680914664,109.39170154062255 z" id="c21217"/>
		<path d="M 289.36745262807716,143.5366582683465 L 296.336922908434,142.1262494396042 L 300.92957380449116,137.02556110369144 L 306.03929047250585,138.18619116877338 L 313.0772281964572,143.20470312546735 L 315.76373766077717,143.4328418294629 L 317.00401969381915,145.01238175914813 L 304.8505335177336,154.6689176563138 L 300.70220635030245,161.1007024084065 L 296.4204602929453,158.49773559793957 L 295.0813900349759,153.68274522631006 L 290.74808017618324,150.20273468807306 L 289.36745262807716,143.5366582683465 z" id="c21121"/>
		<path d="M 258.2669643850551,84.88598679390532 L 257.1857308338507,84.16964949642626 L 259.8003764232116,74.89297774836541 L 263.22986130633734,76.0173116635543 L 264.43782552886046,76.62987672897647 L 269.151314731842,79.09039300034692 L 271.41563517580977,85.1851878628159 L 269.31079112971975,84.79231697678233 L 270.04312235268145,88.04785062074714 L 266.732128817739,90.26070185089553 L 264.35739703943085,92.93376616305133 L 259.9376552895669,87.5898715813193 L 259.9148167736425,89.29111732759962 L 256.80659113191825,87.21618716432599 L 258.2669643850551,84.88598679390532 z" id="c21113"/>
		<path d="M 299.012505512601,105.08653324470392 L 303.32539818361084,97.03385927987526 L 308.5116910427781,93.67833885277987 L 309.24631775366464,93.67125677329436 L 314.0180895459448,96.88407043875306 L 318.9423930349788,98.7076462801354 L 316.04432259094176,107.38935066062294 L 313.08175396102956,105.19957288219457 L 307.5056535403769,108.22934084051198 L 300.0776931653844,106.73018785754697 L 299.012505512601,105.08653324470392 z" id="c21129"/>
		<path d="M 226.30928615895502,42.62535852577325 L 228.0808553816586,42.40480392161789 L 233.86839911136593,36.62684850533734 L 238.68939930436557,35.926690488484525 L 243.65131447077624,41.45849641196788 L 244.32803027207908,46.41562503303341 L 246.96658358998513,44.96309782003393 L 249.0702036187462,51.727504037926444 L 247.234456142512,50.53071792643203 L 242.50247164774785,53.06444160317117 L 227.80160191274535,51.45127068472971 L 224.6332605530596,44.76982187901693 L 226.30928615895502,42.62535852577325 z" id="c21103"/>
		<path d="M 201.02014005287924,130.94176499336214 L 202.76957679418376,128.9087353488177 L 205.8073596258778,128.1310803529661 L 208.58840177864533,131.93038448138788 L 214.1012174602931,133.031872052827 L 215.22971724143926,139.71144007980584 L 218.24755361960217,143.055419058828 L 217.89008694653205,144.30070554529473 L 212.08602580022986,149.93709026298936 L 209.954225986807,148.50887348112164 L 210.1869727658001,152.05883274400182 L 209.31683885293006,151.0848173539159 L 202.68214867190989,150.4084750008626 L 202.0835617688693,132.82509059194797 L 201.02014005287924,130.94176499336214 z" id="c21169"/>
		<path d="M 58.60057421633787,139.33958184787969 L 58.7177582159826,135.47689387118385 L 58.90280395987502,134.07899704867236 L 66.54991739885116,131.8914917980025 L 71.51072174577122,137.30679482042655 L 74.05650081167126,140.45491976027034 L 75.54933079841477,144.99910125865998 L 76.82529253884005,148.96157201021407 L 77.66504264032007,152.95515860861238 L 57.939630785021,151.87931776650396 L 58.60057421633787,139.33958184787969 z" id="c21157"/>
		<path d="M 116.95290439309231,119.95324525658489 L 121.97083746884188,112.37777666424539 L 126.38616369345831,113.23510007796783 L 132.26177277585845,111.12054375807143 L 130.1559351130408,116.32910473295483 L 133.65622837138696,114.15981085481394 L 138.01074212038824,117.8107333430738 L 138.0913934644253,120.88734920062373 L 142.34560483184825,124.76610960975565 L 140.90808609747245,129.1583132421282 L 142.38488053311403,132.8870100684904 L 139.8665483412029,134.0827029777916 L 138.039486053279,133.72717723699168 L 133.98883750173246,134.42887986607448 L 123.6082860389521,135.44216590453746 L 123.19822598285164,133.3426725298551 L 119.40067141089884,129.32456314795428 L 119.781903090275,128.8001306350704 L 119.48435334405504,127.66548819764975 L 116.95290439309231,119.95324525658489 z" id="c21177"/>
		<path d="M 270.79410873303004,108.8385069148188 L 274.5757196353226,109.70557090570198 L 275.9582604308885,105.3656592957863 L 280.11262109116865,106.92344308088457 L 283.6910592629699,106.42864728545636 L 287.3741005866862,117.22936857900095 L 286.9188998683737,119.72284074663375 L 280.8312913750296,125.00850685401805 L 279.0092437539013,130.72665094873565 L 278.2700383088868,129.78489734921104 L 267.83317428366166,119.11625544890275 L 270.79410873303004,108.8385069148188 z" id="c21203"/>
		<path d="M 166.66127772957296,160.51275108554316 L 167.51088103130758,153.98838851111307 L 178.3678149708804,145.21754232603462 L 178.49332996142584,143.8111308574194 L 180.3138694113243,143.93450483594825 L 183.39279091408585,148.5133224901012 L 185.53170830918344,146.24778775659968 L 185.23417640819466,152.4325485256821 L 190.0306566220872,157.96485409384007 L 191.32741336704294,162.684862521115 L 189.9783082560171,164.12590006770884 L 184.3792125190824,163.67649610352922 L 177.86375011017117,163.18889919040404 L 167.01268007959058,162.35725963864292 L 166.66127772957296,160.51275108554316 z" id="c21003"/>
		<path d="M 22.80317695299513,147.5905660006647 L 23.437255158146296,143.81967528385871 L 25.0216221774768,140.9695926119618 L 26.114446286696595,137.56101705778715 L 27.201881085646033,139.53393714880264 L 41.21818982044889,137.72167757214063 L 41.35506848812379,138.20284285286894 L 40.77421872314913,149.56495654694479 L 27.408284408130935,148.9068189301857 L 25.552093394819067,147.20134182902362 L 22.788360610035294,147.77556833071029 L 22.80317695299513,147.5905660006647 z" id="c21039"/>
		<path d="M 73.19632019590112,136.19564456298218 L 72.27687761055039,130.80826529703276 L 74.43292686786299,126.59665906476559 L 74.86263595312192,127.99565375009746 L 79.63960935441503,124.69186972256011 L 82.43399991302643,125.13073121881251 L 90.52610098107311,139.52184348788754 L 83.7932345662232,142.52507569494657 L 75.54933079841477,144.99910125865998 L 74.05650081167126,140.45491976027034 L 71.51072174577122,137.30679482042655 L 73.19632019590112,136.19564456298218 z" id="c21143"/>
		<path d="M 88.94905553322954,105.39052381030533 L 99.68522528181616,95.43521886562854 L 112.15221644050338,95.29006776974207 L 112.70209638235718,98.36432535445256 L 118.23265821271323,100.58119538540844 L 111.690933611445,105.73873198377134 L 106.60029752705545,107.24928951030927 L 94.8535184794793,114.10184181517232 L 95.57210522095158,112.24262902311379 L 93.24220697707533,109.44906392717265 L 88.91763319025942,110.03385158597007 L 88.94905553322954,105.39052381030533 z" id="c21233"/>
		<path d="M 255.76457995390462,52.05176674006574 L 257.55441089666846,50.90297253511782 L 264.04451713585996,44.19122886582926 L 265.2410933349715,42.89391783728014 L 269.50274821414627,48.97857629264226 L 271.6238877484369,55.56959975423078 L 271.1150104187699,56.63788426554076 L 272.2803153312793,61.15699819980983 L 273.21305799469224,61.574751129033785 L 262.46545881031847,66.41210030331746 L 261.6569963551047,67.53161092906143 L 260.4977468691836,63.58489056603426 L 256.50683693975833,62.333833467156346 L 256.1631004295342,60.150579581062516 L 255.76457995390462,52.05176674006574 z" id="c21209"/>
		<path d="M 210.40833552569214,47.35881767189638 L 212.1843774835072,45.19757478986287 L 216.77633407962048,44.10002126840626 L 218.0691091850985,41.771183527968525 L 220.20617514779494,40.500037668433954 L 220.2147717453349,40.48643727865932 L 222.99948430898445,40.86850661969032 L 226.30928615895502,42.62535852577325 L 224.6332605530596,44.76982187901693 L 227.80160191274535,51.45127068472971 L 225.63239977588358,54.56543123187087 L 218.19595055482,56.09684962432981 L 217.78456089568468,55.80421414593982 L 212.2069450636867,52.470116581530384 L 209.71003141182644,49.881689318822076 L 210.40833552569214,47.35881767189638 z" id="c21185"/>
		<path d="M 241.52841903410413,25.36437848253785 L 244.5381741555932,24.111297492916005 L 249.95716985658132,23.352004027133475 L 252.21159101477164,23.637200679010352 L 252.73051152662958,19.408114098026697 L 252.9666448644351,18.852671395745876 L 253.99451010602795,18.84999963854206 L 260.0379207958365,24.254343259210025 L 253.84927647529122,25.014020059876106 L 253.57480002427917,27.942438390163204 L 252.2310152917467,29.122952317886945 L 245.91675705368195,31.710854347035212 L 244.48132847918495,30.557015442832935 L 241.52841903410413,25.36437848253785 z" id="c21077"/>
		<path d="M 192.9208375940648,73.39913639564125 L 194.4563061570602,72.52764946420983 L 195.44540175341754,67.15060889726477 L 196.00446536687593,62.651912477275495 L 196.07375723184896,62.09381832405321 L 198.97839938489543,58.78566336685129 L 200.23974073139732,55.978635275949166 L 201.35147668453013,56.32574006080818 L 203.58789120535033,57.023052327655655 L 207.09449917938764,55.27178769286671 L 209.0689755895263,52.19539442413597 L 209.71003141182644,49.881689318822076 L 212.2069450636867,52.470116581530384 L 217.78456089568468,55.80421414593982 L 218.19595055482,56.09684962432981 L 221.44479461071197,57.55159434964251 L 220.35907868980198,65.15203216677011 L 220.08782997777183,67.05092182769236 L 214.85127501944072,69.24115318126947 L 205.38113598083658,68.87448027460113 L 196.5199304855218,71.78770498121455 L 193.59580203500045,74.47128915177935 L 192.9208375940648,73.39913639564125 z" id="c21111"/>
		<path d="M 190.0306566220872,157.96485409384007 L 200.9384248560707,150.71631347992306 L 202.68214867190989,150.4084750008626 L 209.31683885293006,151.0848173539159 L 210.1869727658001,152.05883274400182 L 214.2561354057523,157.79519265832616 L 216.70360709140328,157.70448473234933 L 215.3003842597687,160.46880418971904 L 218.43079223090825,165.27217001720348 L 215.6861018516026,165.43315562667357 L 202.83831821070174,164.88747277569763 L 199.84742048279537,164.75440925444252 L 195.34768255234013,164.55074003384567 L 189.9783082560171,164.12590006770884 L 191.32741336704294,162.684862521115 L 190.0306566220872,157.96485409384007 z" id="c21171"/>
		<path d="M 266.59195155953125,23.320139387832747 L 272.4446439848896,22.374628466469495 L 274.01895854344696,22.002254600775746 L 281.96286561999636,17.922629775152352 L 281.9141124463397,20.020333651765956 L 282.2780201699232,20.864505243234138 L 283.7794668648655,36.30084860793735 L 283.3520275036635,37.08472213736708 L 273.3295761167591,38.48244788137435 L 270.84554926760586,40.51924430934496 L 269.42088548376694,39.64510830584227 L 266.59195155953125,23.320139387832747 z" id="c21191"/>
		<path d="M 270.04312235268145,88.04785062074714 L 269.31079112971975,84.79231697678233 L 271.41563517580977,85.1851878628159 L 273.9880825758524,85.30176499864008 L 276.5229977089879,82.25944544880534 L 279.89509387006296,80.58945794459481 L 280.47683742756493,83.310430467009 L 289.86440427069215,84.80288987810718 L 287.7970523147536,87.14249463695229 L 290.20463667406557,88.20327783104464 L 289.4248357171344,96.90995893143872 L 287.4632446769186,98.5973698658422 L 289.37644895291356,103.58280607757075 L 285.13109506543543,104.15643159074966 L 283.6910592629699,106.42864728545636 L 280.11262109116865,106.92344308088457 L 275.9582604308885,105.3656592957863 L 270.64261832158815,94.95831056201129 L 266.732128817739,90.26070185089553 L 270.04312235268145,88.04785062074714 z" id="c21151"/>
		<path d="M 99.39776765770041,135.8341654353709 L 101.29836682022784,127.54274429272554 L 109.60297364026303,130.71378206111237 L 119.48435334405504,127.66548819764975 L 119.781903090275,128.8001306350704 L 119.40067141089884,129.32456314795428 L 123.19822598285164,133.3426725298551 L 118.23617806309784,161.40393326526697 L 117.61263028642902,161.3919804165609 L 102.13330332025551,161.0695316551487 L 99.3333847133,161.0440781658334 L 101.94953728432641,139.5468610076086 L 98.1713519064838,137.0658672326932 L 99.39776765770041,135.8341654353709 z" id="c21047"/>
		<path d="M 117.58993671579015,90.47077759956497 L 124.07634962295144,87.01147996421544 L 121.47194214817402,84.36281150407986 L 122.63706237999368,79.54155887394865 L 124.34430785605021,80.77758549701898 L 125.11214033125638,81.33308068099261 L 128.95828718061088,83.15690021043407 L 131.09689039550244,85.45877040326421 L 132.67200344598578,88.10386896811738 L 135.27328021956816,84.26529836319358 L 136.13526047054182,81.17430096038484 L 137.92073655029114,78.30568152920857 L 139.62103801427318,77.96132350491087 L 139.0703528600683,79.81074865170396 L 142.80409998948303,79.4765503432713 L 142.83437882962582,83.8333555197534 L 145.87648812633088,83.70225374959945 L 147.27640445221058,90.49126630300064 L 147.4529042641877,94.69274007297011 L 140.55721975366387,97.32043836842612 L 135.7609595367208,101.74571615810478 L 130.55285180085048,100.61411354176781 L 116.74798413013438,93.09054364719586 L 117.58993671579015,90.47077759956497 z" id="c21059"/>
		<path d="M 1.563957262916105,160.48855217639348 L 4.965554434917789,161.22469424235672 L 8.71904753610787,161.6928970709355 L 10.478324425263569,157.85946222766054 L 13.191926516388925,157.90146375153404 L 13.332521378050734,157.90359858357465 L 15.576749471895036,161.0655045182645 L 18.26947884912112,161.75782550909105 L 19.95393960129036,158.15821223801714 L 21.28168019640638,156.54604149943927 L 22.778394386378327,156.7703450332565 L 28.932838737615693,160.83115515303612 L 33.453305445822856,161.10368778306488 L 35.37692797945565,162.16194872502209 L 38.76700448397654,167.24215974696767 L 31.90951280403052,166.8818826097581 L 18.88391074813092,165.9715455998463 L 11.805956102635832,165.86590617998044 L 7.991449540982597,165.80470336062598 L 1.5504526861511325,165.51078139391115 L 0.0,162.78749538480227 L 1.563957262916105,160.48855217639348 z" id="c21075"/>
		<path d="M 327.9235046588263,54.0415264834627 L 333.61692602207347,52.68784732356009 L 333.21912063267087,46.99855947917208 L 336.80346375688987,41.86905560883435 L 342.73524158179214,44.32042378355203 L 346.9748735873693,48.96059124099249 L 354.88757459030484,50.13603592888757 L 357.255456122486,50.841603607876365 L 356.22031593581033,58.63796115502064 L 354.7594767967622,60.985795629051374 L 349.5426033544729,63.234284605773034 L 342.90147769441324,62.38034312001527 L 336.3995858579707,57.391541846704385 L 333.0193643211794,62.31289098711738 L 330.069310018203,61.18839889705867 L 327.9235046588263,54.0415264834627 z" id="c21043"/>
		<path d="M 312.2258004084464,32.973374624484634 L 313.0350598586487,30.603386369942402 L 317.82630503118617,29.08104976303778 L 322.61317342347223,31.185357250442543 L 325.9082889491915,31.671727789127118 L 328.7967974915655,34.18133882509058 L 330.56000054644227,35.70009136632785 L 331.6916249677294,34.77985343309289 L 332.953582284527,33.75288292286667 L 336.3940163103832,34.25971009019061 L 338.62124582344893,32.92493805639061 L 339.44821840049883,30.855223305971524 L 343.01120583339406,28.411070024065275 L 343.61952549339543,27.843281484841715 L 343.96985500616836,30.03626450869664 L 339.3596654274888,39.5278654981053 L 336.80346375688987,41.86905560883435 L 333.21912063267087,46.99855947917208 L 333.61692602207347,52.68784732356009 L 327.9235046588263,54.0415264834627 L 324.23350632598897,49.039975326726506 L 322.1373919632937,50.017569541559816 L 315.47827939405187,46.832321887808874 L 312.3354036037357,40.69156317174337 L 313.1846479131773,35.052209390874005 L 312.02526107021777,33.06773658794323 L 312.2258004084464,32.973374624484634 z" id="c21135"/>
		<path d="M 316.4726757492181,60.87869761036856 L 319.3978781980897,57.39643339057733 L 322.1373919632937,50.017569541559816 L 324.23350632598897,49.039975326726506 L 327.9235046588263,54.0415264834627 L 330.069310018203,61.18839889705867 L 333.0193643211794,62.31289098711738 L 332.8751560983554,62.77401900800545 L 332.21313130129755,62.472017711446874 L 332.00252867189147,62.662053359061154 L 332.7887303415927,63.109591892529934 L 333.0817506651249,63.37824210865625 L 333.35933082130987,63.26887176278658 L 333.9393099624406,63.51977280111943 L 334.52128431839105,63.298519283282424 L 335.04938846651663,63.394630903404554 L 335.378177919721,63.8406920039728 L 332.09258798441795,67.36393162597483 L 323.4769383171126,71.92844613599483 L 323.31342098121553,72.78004085112815 L 321.7971856516591,73.90617434904857 L 319.9438207570619,71.7188797209884 L 321.7684746584268,69.79903154956104 L 318.0798037877991,68.84822944343075 L 312.82542859709747,62.80840573794068 L 316.4726757492181,60.87869761036856 z" id="c21205"/>
		<path d="M 261.4370599348808,154.11554798533766 L 263.5923996010508,153.4620379510012 L 263.7924666323995,149.33135567521575 L 272.2902689277089,144.1298640546029 L 275.3809979486587,143.31731779465005 L 274.95526993227185,144.36293196031048 L 278.5652178235328,144.20191885036638 L 277.4762659055427,151.5458341444222 L 275.47790590551773,153.03322240099064 L 278.0190825774959,161.82377554685047 L 282.2614747865019,167.36647608794303 L 282.25418545522626,167.366380468455 L 280.4593383164303,167.32977358368962 L 267.8596248597225,167.0541340088458 L 253.1555457039441,166.56421493988978 L 261.4370599348808,154.11554798533766 z" id="c21147"/>
		<path d="M 363.026635489946,84.1896938245761 L 366.0307108717548,82.33991464495301 L 367.5777953483115,77.41418406740341 L 372.8550884682982,78.33131978937911 L 372.46036735046823,79.75245178267173 L 376.08945948917386,82.60208904006016 L 377.17745134232496,84.50030756695539 L 378.71155992416624,87.17396623837506 L 380.97889943414174,89.71476084280413 L 381.34837580405394,90.77225476746341 L 376.59290688219227,93.06321168928146 L 377.11002174571763,95.74830411564731 L 368.79732006853715,95.02098133041213 L 368.10740849727546,94.40882391727877 L 364.74141633712804,92.77964635634419 L 363.026635489946,84.1896938245761 z" id="c21159"/>
		<path d="M 235.02293621990216,115.28290606176729 L 238.03827624021537,113.38562591506816 L 239.53875984596792,113.49198059650307 L 239.8927393104536,104.7880850322358 L 247.26658415895562,105.70456238401934 L 249.9150574027645,104.65987277275211 L 249.68700772091722,112.59353482086142 L 256.34707843404914,117.0255276350718 L 257.2005083706809,120.97179827567655 L 256.41683037710953,124.99491529096505 L 246.91709529635756,132.92701673899353 L 244.11573423621002,133.82477433756307 L 239.5003350570412,128.30315415804372 L 238.8296088684702,123.64771875658406 L 233.19806332468696,120.10165079023677 L 235.02293621990216,115.28290606176729 z" id="c21045"/>
		<path d="M 59.64805998123458,113.33422304466283 L 60.93176587739,109.3984289557134 L 63.46156055097543,108.10850460683841 L 63.58607477104303,108.15941201385583 L 66.54963712546072,109.36980324702756 L 68.63267835468616,109.91143828321425 L 73.45476489011256,118.30465888511357 L 74.43292686786299,126.59665906476559 L 72.27687761055039,130.80826529703276 L 73.19632019590112,136.19564456298218 L 71.51072174577122,137.30679482042655 L 66.54991739885116,131.8914917980025 L 58.90280395987502,134.07899704867236 L 58.99535758634419,131.10002658325624 L 59.39812199221477,131.1091814958672 L 61.14084404977617,129.19782074797453 L 62.33192322013625,125.88966738057537 L 60.083176091809946,121.1825389780434 L 58.05342559738432,116.44904369874638 L 59.64805998123458,113.33422304466283 z" id="c21139"/>
		<path d="M 36.050846826307826,119.53251902593146 L 36.248288577366026,119.62386093537013 L 41.00549354139931,121.8212264261894 L 45.160583959813216,124.76553395388677 L 48.21060179837031,125.80174700959905 L 52.44420527565161,127.8665239074996 L 54.99580880458078,129.87090166938515 L 56.4887838959114,131.04229638558118 L 58.64926503149877,131.0921329898325 L 58.99535758634419,131.10002658325624 L 58.90280395987502,134.07899704867236 L 58.7177582159826,135.47689387118385 L 58.60057421633787,139.33958184787969 L 41.35506848812379,138.20284285286894 L 41.21818982044889,137.72167757214063 L 35.95791079762316,119.53314746629191 L 36.050846826307826,119.53251902593146 z" id="c21145"/>
		<path d="M 75.54933079841477,144.99910125865998 L 83.7932345662232,142.52507569494657 L 90.52610098107311,139.52184348788754 L 91.49474497059748,140.17599993517146 L 98.1713519064838,137.0658672326932 L 101.94953728432641,139.5468610076086 L 99.3333847133,161.0440781658334 L 90.93818461390059,160.9580866693858 L 91.20790625249181,158.97286585171798 L 82.69207509685175,157.75918118456735 L 79.59935534827915,157.56017566449844 L 79.17166599017767,155.6666005145365 L 77.66504264032007,152.95515860861238 L 76.82529253884005,148.96157201021407 L 75.54933079841477,144.99910125865998 z" id="c21221"/>
		<path d="M 23.158054122672166,128.91574293810788 L 27.00504615879083,124.74339016874184 L 29.315039137536615,121.73064833244136 L 32.42066515003619,119.55573294885032 L 35.95791079762316,119.53314746629191 L 41.21818982044889,137.72167757214063 L 27.201881085646033,139.53393714880264 L 26.114446286696595,137.56101705778715 L 26.38482435780675,136.71704103159706 L 24.68094438614981,135.03972629457382 L 25.015891429865313,132.70679667354008 L 23.227534854025908,129.05765203261444 L 23.158054122672166,128.91574293810788 z" id="c21007"/>
		<path d="M 287.4632446769186,98.5973698658422 L 289.4248357171344,96.90995893143872 L 290.20463667406557,88.20327783104464 L 287.7970523147536,87.14249463695229 L 289.86440427069215,84.80288987810718 L 290.1395980000854,86.75294507800294 L 293.9353250098546,85.80672001466317 L 294.70762038419457,85.1030808575993 L 298.92410383141305,90.91225482278585 L 305.612191373854,91.05199155978865 L 308.5116910427781,93.67833885277987 L 303.32539818361084,97.03385927987526 L 299.012505512601,105.08653324470392 L 295.8938699226164,102.57233762531006 L 289.37644895291356,103.58280607757075 L 287.4632446769186,98.5973698658422 z" id="c21065"/>
		<path d="M 132.26177277585845,111.12054375807143 L 130.5335501043796,106.53979758490722 L 135.7609595367208,101.74571615810478 L 140.55721975366387,97.32043836842612 L 147.4529042641877,94.69274007297011 L 147.27640445221058,90.49126630300064 L 156.73633749561782,95.71554144297355 L 156.5656702417539,98.5069935902906 L 158.97379603367213,102.1594964965993 L 155.20533453794164,102.56714916751687 L 157.68495684685462,113.21016468314198 L 149.8237670004994,118.96377382065516 L 146.92453129057984,117.26217666551571 L 142.34560483184825,124.76610960975565 L 138.0913934644253,120.88734920062373 L 138.01074212038824,117.8107333430738 L 133.65622837138696,114.15981085481394 L 130.1559351130408,116.32910473295483 L 132.26177277585845,111.12054375807143 z" id="c21183"/>
		<path d="M 156.6780185938929,82.41731607010497 L 158.29149977835263,83.24832183656764 L 159.1789576524924,79.74133569962164 L 163.8646617905007,80.1118486040984 L 163.15063521066418,75.81520115228203 L 163.4373407123227,71.23160516183441 L 165.1940000862772,70.92502429246929 L 177.65366488394318,82.12529625596868 L 182.29484461644194,87.33922013766185 L 175.5598407078513,100.6433077485589 L 168.51481337284605,102.25168478599277 L 163.29728962389905,98.43224252033464 L 158.97379603367213,102.1594964965993 L 156.5656702417539,98.5069935902906 L 156.73633749561782,95.71554144297355 L 157.45297622147956,95.72012989182727 L 154.93645418112587,87.09103205496962 L 156.6780185938929,82.41731607010497 z" id="c21027"/>
		<path d="M 156.76001613235638,127.20428559097344 L 163.3583695029485,126.7608458381008 L 168.4601203050631,128.22462731703658 L 174.48162698907106,134.20961847288467 L 177.8260722523065,132.7476891800569 L 183.27943710693808,135.67437105834443 L 180.3138694113243,143.93450483594825 L 178.49332996142584,143.8111308574194 L 178.3678149708804,145.21754232603462 L 167.51088103130758,153.98838851111307 L 167.8348558438637,151.96295627858836 L 158.25239079663314,150.2195137442227 L 156.85199194266082,146.72702748300793 L 153.7469774723142,139.00193989182299 L 156.76001613235638,127.20428559097344 z" id="c21227"/>
		<path d="M 196.30841462651796,104.2974102395007 L 203.71497152262108,97.18053331229899 L 206.680413437709,92.1408372866836 L 211.23932751784938,94.75026154167283 L 209.43304497663897,104.74085255603572 L 214.79640174019698,103.91076469018033 L 215.74490302263976,104.26770724904108 L 217.58824200562157,109.75932212730908 L 215.902966762814,108.60036584660719 L 211.47431680914664,109.39170154062255 L 208.83099577388262,109.23038969328293 L 207.57390796241415,112.47142111281603 L 195.30142765375135,111.06913570967593 L 196.30841462651796,104.2974102395007 z" id="c21123"/>
		<path d="M 361.5745128714687,121.30821283983119 L 363.56051340770927,119.86557787086772 L 367.9554254098746,109.3286932543456 L 365.90904473330636,106.94464905579568 L 366.1713449278581,95.9947481828546 L 368.79732006853715,95.02098133041213 L 377.11002174571763,95.74830411564731 L 376.59290688219227,93.06321168928146 L 381.34837580405394,90.77225476746341 L 382.7077525138169,94.65896119105922 L 386.39687368691295,96.74563564087825 L 390.8839108189688,100.43828363861924 L 394.97983652429525,103.6597194536599 L 399.99999999999994,103.97790663490751 L 388.0695635714211,114.91270057311115 L 382.548638469213,119.94653554291214 L 382.2946820802963,120.19809292832916 L 380.19390078146665,122.27750666579489 L 375.3126979570764,123.77107429018561 L 369.8962931831708,126.65424314667429 L 369.6608570889867,126.77935165896403 L 369.2936161617525,127.0286962310985 L 365.9007751853477,123.69080558557883 L 363.0256865215365,124.9852415177154 L 360.4445328313078,122.23198020331847 L 361.5745128714687,121.30821283983119 z" id="c21195"/>
		<path d="M 79.15354350103775,90.76326865822976 L 83.05801187524834,87.94720113624821 L 84.84927581980254,84.31130988830206 L 87.8018351036007,85.56955984145539 L 89.60844796827915,85.12808611830606 L 91.34550904643987,83.35889447653327 L 89.70290966264388,79.8280805289009 L 90.438865143084,77.9613134730837 L 95.80900673924907,87.15964637182515 L 98.55483143037073,87.25005767353987 L 99.68522528181616,95.43521886562854 L 88.94905553322954,105.39052381030533 L 84.82155824734413,100.82311465897739 L 82.06525096696885,103.53188943163532 L 81.82005898252925,101.90402712463042 L 78.84840871089897,98.88718853373452 L 78.82084553664231,98.76904301666656 L 77.5938127005951,93.50248359746239 L 79.15354350103775,90.76326865822976 z" id="c21225"/>
		<path d="M 282.9577082610106,22.44031395082538 L 286.9457828855787,23.499180478407144 L 291.1729806594006,24.662094844044216 L 291.2244824261617,24.676236216933642 L 294.954418989617,23.63829375576008 L 297.5380299915581,24.44981023159261 L 298.7739842008255,24.92325353476819 L 294.33445561799357,36.30310756734908 L 289.59815755527745,35.33893064488392 L 285.5798189505967,38.91072577222858 L 282.82442999494367,38.856838576700525 L 283.3520275036635,37.08472213736708 L 283.7794668648655,36.30084860793735 L 282.2780201699232,20.864505243234138 L 282.9577082610106,22.44031395082538 z" id="c21023"/>
		<path d="M 271.1150104187699,56.63788426554076 L 276.7306701260247,56.285247052376185 L 278.15978958479707,54.69220484891767 L 279.4145367304394,54.73463971488357 L 283.9409154183426,50.85237904839049 L 287.75690828142683,57.14898792104273 L 295.55823991175754,61.464777627730875 L 295.11509934879865,62.592969538862995 L 294.3475742035105,63.822988383294025 L 289.82297422966474,67.64678257794868 L 279.1700141088599,70.80286532370434 L 274.35273634275876,67.88987659993887 L 275.61899653033987,63.50388778064044 L 273.21305799469224,61.574751129033785 L 272.2803153312793,61.15699819980983 L 271.1150104187699,56.63788426554076 z" id="c21017"/>
		<path d="M 165.03397973206324,118.24091620001683 L 179.78132969199999,117.28382037224974 L 181.33936502235653,117.6534022034819 L 186.85415589837044,125.64648887502227 L 186.40971918814472,128.78615660261076 L 185.32823668535173,136.22535172334545 L 183.27943710693808,135.67437105834443 L 177.8260722523065,132.7476891800569 L 174.48162698907106,134.20961847288467 L 168.4601203050631,128.22462731703658 L 165.03397973206324,118.24091620001683 z" id="c21061"/>
		<path d="M 142.38488053311403,132.8870100684904 L 140.90808609747245,129.1583132421282 L 142.34560483184825,124.76610960975565 L 146.92453129057984,117.26217666551571 L 149.8237670004994,118.96377382065516 L 157.68495684685462,113.21016468314198 L 164.15753853822724,115.5082651221235 L 165.03397973206324,118.24091620001683 L 168.4601203050631,128.22462731703658 L 163.3583695029485,126.7608458381008 L 156.76001613235638,127.20428559097344 L 153.7469774723142,139.00193989182299 L 144.88050977702792,135.04332324529614 L 139.8665483412029,134.0827029777916 L 142.38488053311403,132.8870100684904 z" id="c21031"/>
		<path d="M 253.84927647529122,25.014020059876106 L 260.0379207958365,24.254343259210025 L 262.3222431088974,22.6280914879327 L 266.59195155953125,23.320139387832747 L 269.42088548376694,39.64510830584227 L 268.95259732877633,41.881193629142984 L 265.2410933349715,42.89391783728014 L 264.04451713585996,44.19122886582926 L 254.12495631433566,34.615247334034144 L 253.57480002427917,27.942438390163204 L 253.84927647529122,25.014020059876106 z" id="c21081"/>
		<path d="M 339.84706577080794,113.78808717787236 L 341.6213198963447,106.0600657077975 L 348.9374487850536,107.23895287226931 L 350.15703095198177,108.31122924490855 L 355.07955606232895,109.51702481079192 L 354.9235162117616,112.95997965425369 L 358.709694730294,112.2004954299273 L 361.5745128714687,121.30821283983119 L 360.4445328313078,122.23198020331847 L 355.91258341731697,122.48988731061505 L 347.63827474074566,128.91375591723576 L 346.5195593932473,127.40404433061045 L 343.00967908281797,124.26258234201207 L 339.8581187393497,124.86149478565596 L 339.84706577080794,113.78808717787236 z" id="c21119"/>
		<path d="M 355.21935011663464,48.88094136617961 L 357.3192304367832,46.18323487528843 L 362.6387001670967,41.24905849818929 L 365.02195310060364,43.2129134783115 L 366.3632555468933,46.80880380161279 L 366.29336824885377,49.489509867766856 L 366.2318051432481,51.84667224929455 L 367.61216330341364,53.729043162202565 L 367.18027986801195,58.136466921528196 L 367.04025565656275,58.66801659784568 L 365.48186258564704,57.02194588637691 L 356.22031593581033,58.63796115502064 L 357.255456122486,50.841603607876365 L 354.88757459030484,50.13603592888757 L 355.21935011663464,48.88094136617961 z" id="c21019"/>
		<path d="M 305.65992211832514,75.87026416172691 L 306.471846294922,75.20686341519934 L 311.64712263052814,73.24316717961264 L 315.716725286343,74.3082256299951 L 315.99806736229175,71.20844509311448 L 319.9438207570619,71.7188797209884 L 321.7971856516591,73.90617434904857 L 323.31342098121553,72.78004085112815 L 322.82726238923567,78.77531076279485 L 319.72472678530755,83.53967562353687 L 320.240041372213,84.07168343250508 L 317.3363907773582,86.73246557887833 L 313.19841495053225,86.51609084251533 L 311.53797993370074,85.91396725402578 L 306.0147921145178,80.4703905201605 L 305.65992211832514,75.87026416172691 z" id="c21165"/>
		<path d="M 349.1448829087468,93.27845884188814 L 358.9063888517414,90.51791982425853 L 364.74141633712804,92.77964635634419 L 368.10740849727546,94.40882391727877 L 368.79732006853715,95.02098133041213 L 366.1713449278581,95.9947481828546 L 365.90904473330636,106.94464905579568 L 367.9554254098746,109.3286932543456 L 363.56051340770927,119.86557787086772 L 361.5745128714687,121.30821283983119 L 358.709694730294,112.2004954299273 L 354.9235162117616,112.95997965425369 L 355.07955606232895,109.51702481079192 L 350.15703095198177,108.31122924490855 L 352.5287264253214,105.07666575025152 L 349.1448829087468,93.27845884188814 z" id="c21071"/>
		<path d="M 275.3809979486587,143.31731779465005 L 278.27439454415605,138.14746622546832 L 279.0092437539013,130.72665094873565 L 280.8312913750296,125.00850685401805 L 286.9188998683737,119.72284074663375 L 287.5947920330313,118.6831307846353 L 293.84787940368494,124.05783701485542 L 297.0874742300123,124.23095287389113 L 295.7506554885456,129.5827572644481 L 300.1595713186544,132.84818655279767 L 300.92957380449116,137.02556110369144 L 296.336922908434,142.1262494396042 L 289.36745262807716,143.5366582683465 L 284.5717812149927,144.63094781384606 L 280.65158998499055,142.4402903126029 L 278.5652178235328,144.20191885036638 L 274.95526993227185,144.36293196031048 L 275.3809979486587,143.31731779465005 z" id="c21125"/>
		<path d="M 133.98883750173246,134.42887986607448 L 138.039486053279,133.72717723699168 L 139.8665483412029,134.0827029777916 L 144.88050977702792,135.04332324529614 L 153.7469774723142,139.00193989182299 L 156.85199194266082,146.72702748300793 L 154.510868196378,147.11189445235337 L 149.22626702321716,156.74003013575418 L 148.45648835396375,161.8547924122582 L 145.8306131130549,161.85274755303638 L 132.7553105421019,161.6596215124592 L 133.98883750173246,134.42887986607448 z" id="c21141"/>
		<path d="M 332.00641881281103,90.23914950592824 L 340.05426793867855,83.72318612853468 L 339.20072813714046,81.7486921502277 L 345.69615934415594,83.96934509288242 L 348.5618672008911,88.15372357558066 L 349.1448829087468,93.27845884188814 L 352.5287264253214,105.07666575025152 L 350.15703095198177,108.31122924490855 L 348.9374487850536,107.23895287226931 L 345.52794521580665,101.99883471874477 L 341.4641738600038,98.89250643019052 L 339.1334572681146,100.58139329526884 L 333.16481720242217,96.53797736914032 L 332.433130000177,93.72786996459327 L 332.00641881281103,90.23914950592824 z" id="c21153"/>
		<path d="M 238.21132182755937,149.72207893945347 L 243.68236669977128,145.9960106765117 L 244.51090175325382,143.159937023535 L 250.29678014609826,140.72084036357433 L 253.72402111263466,143.35248278031864 L 258.513141219483,141.85945250277942 L 263.7924666323995,149.33135567521575 L 263.5923996010508,153.4620379510012 L 261.4370599348808,154.11554798533766 L 253.1555457039441,166.56421493988978 L 252.79208712463384,166.5515407733803 L 252.78897449595414,166.55129872234778 L 244.422589451398,165.89340996694594 L 242.79132338994603,165.74893169685157 L 241.49826374926587,165.08557233239694 L 241.32421836563987,156.46094414242978 L 238.21132182755937,149.72207893945347 z" id="c21231"/>
		<path d="M 155.20533453794164,102.56714916751687 L 158.97379603367213,102.1594964965993 L 163.29728962389905,98.43224252033464 L 168.51481337284605,102.25168478599277 L 175.5598407078513,100.6433077485589 L 183.910787467392,102.54431249705459 L 187.23433124978789,110.28819066226966 L 188.65247305820046,113.94314596785374 L 186.2187758462385,116.90306263026639 L 181.33936502235653,117.6534022034819 L 179.78132969199999,117.28382037224974 L 165.03397973206324,118.24091620001683 L 164.15753853822724,115.5082651221235 L 157.68495684685462,113.21016468314198 L 155.20533453794164,102.56714916751687 z" id="c21085"/>
		<path d="M 218.19595055482,56.09684962432981 L 225.63239977588358,54.56543123187087 L 227.80160191274535,51.45127068472971 L 242.50247164774785,53.06444160317117 L 244.59993929642704,53.29804522456934 L 242.40673200237356,57.03173472095421 L 241.0459159551077,66.57455018080263 L 239.7689423954,70.27659111232276 L 236.96017965327803,72.5475825804429 L 232.0940258513288,70.0414965101279 L 230.22628036312548,69.06545743207164 L 220.35907868980198,65.15203216677011 L 221.44479461071197,57.55159434964251 L 218.19595055482,56.09684962432981 z" id="c21211"/>
		<path d="M 316.04432259094176,107.38935066062294 L 318.9423930349788,98.7076462801354 L 320.3488172484553,99.93511123710667 L 324.3172186841073,95.24369838798229 L 333.16481720242217,96.53797736914032 L 339.1334572681146,100.58139329526884 L 341.4641738600038,98.89250643019052 L 345.52794521580665,101.99883471874477 L 348.9374487850536,107.23895287226931 L 341.6213198963447,106.0600657077975 L 339.84706577080794,113.78808717787236 L 335.0982145256311,111.3187474052775 L 326.4504777042301,118.30074335263538 L 322.8829962631842,115.67567093479182 L 317.7760269015654,118.62665376152138 L 318.43155080855115,113.18793031121572 L 316.04432259094176,107.38935066062294 z" id="c21025"/>
		<path d="M 340.2888801591261,140.23433173299296 L 343.78011442672397,139.11680773285605 L 343.5071814071588,132.13433396877062 L 346.5195593932473,127.40404433061045 L 347.63827474074566,128.91375591723576 L 355.91258341731697,122.48988731061505 L 360.4445328313078,122.23198020331847 L 363.0256865215365,124.9852415177154 L 365.9007751853477,123.69080558557883 L 369.2936161617525,127.0286962310985 L 360.9522198276654,132.677853663352 L 361.2225751988588,136.20322392805616 L 359.7653408913185,138.44323542164565 L 356.36881813504857,139.60473708548386 L 353.5956004075752,141.80901732511134 L 349.86516986437795,139.15656551479012 L 338.6792915141146,143.16154593760191 L 340.2888801591261,140.23433173299296 z" id="c21133"/>
		<path d="M 294.3475742035105,63.822988383294025 L 295.11509934879865,62.592969538862995 L 295.29327368769367,64.77636871504566 L 300.1193859050358,66.21573069293122 L 306.471846294922,75.20686341519934 L 305.65992211832514,75.87026416172691 L 306.0147921145178,80.4703905201605 L 303.6276449192784,81.67013787158521 L 295.7678832906609,79.70132122816908 L 289.82297422966474,67.64678257794868 L 294.3475742035105,63.822988383294025 z" id="c21173"/>
		<path d="M 319.72472678530755,83.53967562353687 L 322.82726238923567,78.77531076279485 L 323.31342098121553,72.78004085112815 L 323.4769383171126,71.92844613599483 L 332.09258798441795,67.36393162597483 L 331.91192628260757,71.0608671593038 L 335.73182055896854,74.18099453979993 L 344.66066114337224,74.30614436589755 L 346.41377247023576,77.10302980032132 L 347.9079564983618,81.67480723446991 L 345.69615934415594,83.96934509288242 L 339.20072813714046,81.7486921502277 L 340.05426793867855,83.72318612853468 L 332.00641881281103,90.23914950592824 L 332.433130000177,93.72786996459327 L 325.9084264895761,87.17960898155158 L 320.8115214365705,85.24517552197231 L 320.240041372213,84.07168343250508 L 319.72472678530755,83.53967562353687 z" id="c21175"/>
		<path d="M 240.4357633631819,99.1596537184473 L 240.64389709811942,96.99057819377536 L 240.73016855348152,96.04675118749756 L 252.78781427393298,93.61932479640018 L 255.3183063565272,93.90686109015815 L 260.1162554351105,98.0013283673936 L 259.79907388780015,99.07304647447674 L 259.81655029908217,100.13524036824101 L 249.9150574027645,104.65987277275211 L 247.26658415895562,105.70456238401934 L 239.8927393104536,104.7880850322358 L 240.4357633631819,99.1596537184473 z" id="c21021"/>
		<path d="M 248.01439768732982,6.1709644396554655 L 249.8882123591141,4.498676651490458 L 251.96797996853027,2.721681865840191 L 255.52402069421643,0.0 L 257.3905354284289,0.9723327282519751 L 259.2569381491503,3.233939879560182 L 262.0692089655067,4.551378566932339 L 263.2498273691516,17.579824226947157 L 262.3222431088974,22.6280914879327 L 260.0379207958365,24.254343259210025 L 253.99451010602795,18.84999963854206 L 252.9666448644351,18.852671395745876 L 253.6047839699597,17.35090123404495 L 251.35579147888885,16.35271908456254 L 249.62558744175465,15.255341135522496 L 248.94641983431774,14.82426584308558 L 251.2726308163833,12.148105299938889 L 250.4291794855394,9.558604502340645 L 249.00570956929775,7.562404143681585 L 248.01439768732982,6.1709644396554655 z" id="c21015"/>
		<path d="M 238.68939930436557,35.926690488484525 L 245.5064053609419,32.47130085055917 L 245.91675705368195,31.710854347035212 L 252.2310152917467,29.122952317886945 L 253.57480002427917,27.942438390163204 L 254.12495631433566,34.615247334034144 L 264.04451713585996,44.19122886582926 L 257.55441089666846,50.90297253511782 L 255.76457995390462,52.05176674006574 L 253.03626696394232,52.93642139991256 L 249.0702036187462,51.727504037926444 L 246.96658358998513,44.96309782003393 L 244.32803027207908,46.41562503303341 L 243.65131447077624,41.45849641196788 L 238.68939930436557,35.926690488484525 z" id="c21187"/>
		<path d="M 166.03392053650666,70.77819362071865 L 168.05626438561742,68.17138717299859 L 168.08125379379086,68.14700380202235 L 170.5362969468102,65.74965492471367 L 172.14515297815979,65.0895681403459 L 173.97928564409392,64.33616301130478 L 176.11161261992487,67.5864395801934 L 179.74037815322953,72.68318616345518 L 185.45395240562652,73.6488697678935 L 188.63571178279048,76.23573006057427 L 190.52880064424792,74.9071699950115 L 191.4959655237422,82.48394058566146 L 189.7907840141884,86.2072396384656 L 182.29484461644194,87.33922013766185 L 177.65366488394318,82.12529625596868 L 165.1940000862772,70.92502429246929 L 166.03392053650666,70.77819362071865 z" id="c21163"/>
		<path d="M 225.8578859280959,164.82871629139677 L 228.55179152267934,157.12165125458696 L 230.25843339942503,149.925243537126 L 229.24683341287985,147.8710823234621 L 235.3452589967455,151.75262823643354 L 238.21132182755937,149.72207893945347 L 241.32421836563987,156.46094414242978 L 241.49826374926587,165.08557233239694 L 242.79132338994603,165.74893169685157 L 236.39494380792968,165.17705647595307 L 226.88837806100582,164.83978560198216 L 226.1317929053699,164.81214333855706 L 225.8578859280959,164.82871629139677 z" id="c21053"/>
		<path d="M 182.29484461644194,87.33922013766185 L 189.7907840141884,86.2072396384656 L 191.4959655237422,82.48394058566146 L 190.52880064424792,74.9071699950115 L 191.64855755154127,74.12062820945607 L 192.9208375940648,73.39913639564125 L 193.59580203500045,74.47128915177935 L 197.85749701414454,78.04215901422137 L 198.647155057851,82.38402472358435 L 203.78605973821126,86.88918426251321 L 203.83052466232064,88.90423782907534 L 206.680413437709,92.1408372866836 L 203.71497152262108,97.18053331229899 L 196.30841462651796,104.2974102395007 L 195.30142765375135,111.06913570967593 L 187.23433124978789,110.28819066226966 L 183.910787467392,102.54431249705459 L 175.5598407078513,100.6433077485589 L 182.29484461644194,87.33922013766185 z" id="c21093"/>
		<path d="M 186.2187758462385,116.90306263026639 L 188.65247305820046,113.94314596785374 L 187.23433124978789,110.28819066226966 L 195.30142765375135,111.06913570967593 L 207.57390796241415,112.47142111281603 L 205.36224580021644,120.304990111523 L 205.8073596258778,128.1310803529661 L 202.76957679418376,128.9087353488177 L 194.25142427380436,130.1667377380168 L 186.40971918814472,128.78615660261076 L 186.85415589837044,125.64648887502227 L 181.33936502235653,117.6534022034819 L 186.2187758462385,116.90306263026639 z" id="c21099"/>
		<path d="M 317.6668041240811,129.55570461363976 L 319.9056120937516,125.06184626005857 L 325.60091570481296,119.47222455541092 L 329.5057801385447,125.65038765571985 L 335.9695687094622,128.94868588828172 L 337.84029835409467,133.62565531192698 L 337.12214347933235,138.95473650299692 L 333.0683957881057,142.41575493555558 L 325.7614867012278,145.63156762533484 L 325.30894446972786,147.64841248171842 L 321.03566647017936,147.3453928525047 L 319.99957332524025,144.53190273254194 L 317.61630433239026,135.33299431243682 L 317.6668041240811,129.55570461363976 z" id="c21131"/>
		<path d="M 295.11509934879865,62.592969538862995 L 301.77985372953384,55.70531124859485 L 308.12558794576853,55.959182964277716 L 312.22420591239035,63.873789534651735 L 312.82542859709747,62.80840573794068 L 318.0798037877991,68.84822944343075 L 321.7684746584268,69.79903154956104 L 319.9438207570619,71.7188797209884 L 315.99806736229175,71.20844509311448 L 315.716725286343,74.3082256299951 L 311.64712263052814,73.24316717961264 L 306.471846294922,75.20686341519934 L 300.1193859050358,66.21573069293122 L 295.29327368769367,64.77636871504566 L 295.11509934879865,62.592969538862995 z" id="c21011"/>
		<path d="M 94.8535184794793,114.10184181517232 L 106.60029752705545,107.24928951030927 L 111.690933611445,105.73873198377134 L 118.23265821271323,100.58119538540844 L 120.28450036968114,111.88652592948749 L 121.97083746884188,112.37777666424539 L 116.95290439309231,119.95324525658489 L 119.48435334405504,127.66548819764975 L 109.60297364026303,130.71378206111237 L 101.29836682022784,127.54274429272554 L 95.01460080870254,121.28667733261605 L 92.83157487957756,115.92341041030792 L 94.8535184794793,114.10184181517232 z" id="c21107"/>
	</g>
</svg>