<?xml version="1.0" encoding="UTF-8"?>
<svg baseProfile="full" fill="#d0d0d0" height="377.42943170702006" stroke="#ffffff" stroke-width="1" version="1.1" width="400.0" xmlns="http://www.w3.org/2000/svg" xmlns:ev="http://www.w3.org/2001/xml-events" xmlns:xlink="http://www.w3.org/1999/xlink">
	<defs/>
	<g id="counties"><path d="M 109.24513455214827,235.10989465721516 L 113.05452268319566,228.26394884496034 L 112.25936254062208,197.55642992485053 L 119.31667467807411,197.64059209854966 L 121.63328199277777,192.48284115856913 L 129.3955962518957,188.02833234244196 L 137.48135681419012,191.44903092651123 L 140.81140120950096,202.23636563475128 L 142.79660070821313,202.21526291822966 L 145.94324236023397,209.66670565092136 L 145.88031378793502,218.33642808724926 L 142.71537245171174,228.03899161238326 L 138.59269518221163,230.7120366758996 L 122.94894425839443,231.56681664571587 L 120.16765894351191,235.9058974563844 L 109.10736832758775,235.72758049155357 L 109.24513455214827,235.10989465721516 z" id="c22039"/>
		<path d="M 251.06768202313734,216.06017530202112 L 251.1762682392966,214.30634738135896 L 251.76912996807212,202.5546957574619 L 250.38705557315285,201.45793698244754 L 250.13514482780784,200.37055946269962 L 250.4062364266236,200.14578812050001 L 251.4022252578568,198.72087452173668 L 249.978518122207,193.80927188619984 L 252.90834808953232,188.49812895044218 L 258.2269218782462,188.46770911518652 L 273.4223086584976,188.34547884928978 L 273.5320656453831,204.471223645557 L 273.64013802612595,220.56305624430215 L 246.29536568835698,220.76364097796915 L 251.06768202313734,216.06017530202112 z" id="c22091"/>
		<path d="M 83.49489711595238,122.32955109215666 L 111.33513773152606,122.62523919359596 L 111.48488331073497,114.55884910953301 L 131.67340506233583,114.81033950435733 L 132.76163675982983,124.03684673954768 L 129.80681490488777,131.0246833115545 L 135.8976999883197,133.92638441245788 L 138.2098757246975,142.6165024781185 L 144.5499958448592,144.27906867762556 L 110.05966487182575,152.00363013628993 L 105.25517080887693,151.10790593062438 L 103.32521627977216,140.21633010731335 L 96.53947644840594,132.67461905240722 L 88.52403443637162,130.11571386995533 L 84.15981134080576,124.93707002286058 L 83.49489711595238,122.32955109215666 z" id="c22043"/>
		<path d="M 109.10736832758775,235.72758049155357 L 120.16765894351191,235.9058974563844 L 139.97812592031883,236.11312845507123 L 145.40473505920772,243.49412340750587 L 145.39294932916474,248.1798629908699 L 146.7638136110213,248.1747409556016 L 146.7631316002524,248.84594885976284 L 148.04184127114218,252.87145223210567 L 139.53279584174095,260.88818511091876 L 136.5440408750199,266.7183433787569 L 125.37881327567334,275.65177731059043 L 116.5088097603709,270.1747995237948 L 109.2222426193763,271.5244508297055 L 112.06308607907731,263.2674892249495 L 109.27526610339893,258.8261018267496 L 109.07696464184271,245.53797636029867 L 112.02775067639186,241.35857971371334 L 109.10736832758775,235.72758049155357 z" id="c22001"/>
		<path d="M 308.3082597792574,284.9042587941012 L 309.507544309813,282.324521413571 L 310.6561368784606,264.899676280671 L 316.0926585739175,265.74451429836324 L 327.0049294756009,261.60595931308166 L 335.51260131948175,264.98528080525017 L 344.461772091778,263.5178322129648 L 349.308743589646,265.4587194198879 L 350.9206056366303,266.41768756950995 L 346.8017890399497,268.72828861689896 L 344.71935466971536,272.6585660104483 L 336.8465297037263,275.58982994400066 L 331.8713788449711,278.13793253561226 L 331.8552103210819,278.32485398736515 L 318.56840274870297,284.9687983595729 L 325.90390114244354,287.6661210673004 L 326.78537110687284,292.0614447070037 L 322.8717749219904,288.9082042402997 L 318.9464406407635,289.60887573543727 L 314.8460247350578,285.07043424157786 L 308.951136538975,288.11019345816527 L 308.3082597792574,284.9042587941012 z" id="c22071"/>
		<path d="M 99.8808494644848,73.96731968413839 L 99.81879833749583,53.939696657619876 L 111.97127690607255,54.126616207370375 L 111.9649410108934,50.125328745527156 L 128.13200722853313,50.37740118190556 L 128.05038587802778,58.45801611109117 L 136.08083188340527,66.55407103729644 L 136.04502344728218,70.54567686040909 L 135.91291694996488,82.64620254783804 L 96.52006376648747,82.15104476795811 L 99.8808494644848,73.96731968413839 z" id="c22049"/>
		<path d="M 195.12201837436098,73.41638797352441 L 201.77113877878614,67.26387550031531 L 201.4411613770836,59.0351705607679 L 200.79155570509704,50.07995531082612 L 202.9474442271748,46.87017821479205 L 228.24057983702227,46.852187811297036 L 234.35457017447942,43.053448480152305 L 234.82261295305548,43.54635150357361 L 234.86585420678273,43.62247500295755 L 237.80629321705266,48.79527823775842 L 233.96155054280078,49.19562733443408 L 234.5725058372328,56.00752963327845 L 241.37043673894414,57.24514471228271 L 239.77372337246533,63.98251080742732 L 244.90124805249576,64.85831738736444 L 242.8332438592773,70.26491931508168 L 239.45509977895577,76.6181418672883 L 230.2681881017338,77.24096324376227 L 228.26694291039126,73.44896008870401 L 213.640367777188,77.7829913764169 L 200.165838015005,77.69197740205927 L 195.12201837436098,73.41638797352441 z" id="c22065"/>
		<path d="M 91.88660789194122,41.68415804255656 L 96.17435706763341,25.741207534254954 L 104.20616268238909,25.77546077355519 L 116.20285631998418,26.923791246338233 L 120.25301022895422,34.1451420040822 L 128.3073502116441,34.286025589239095 L 128.22981797478147,42.32532201401444 L 128.13200722853313,50.37740118190556 L 111.9649410108934,50.125328745527156 L 111.97127690607255,54.126616207370375 L 99.81879833749583,53.939696657619876 L 91.8434492898931,53.77453117668348 L 91.88660789194122,41.68415804255656 z" id="c22061"/>
		<path d="M 160.97888523860422,59.32764872536517 L 167.37303659079794,49.7018164530762 L 173.12097416732408,48.56946008310911 L 175.89094407088916,43.71102854884193 L 180.72890373927308,44.87357887706918 L 188.92875499313604,34.9029429975315 L 192.10327933057485,34.9227005864204 L 192.15151474561173,42.760508384892624 L 203.91526673043697,42.80149488942242 L 202.9474442271748,46.87017821479205 L 200.79155570509704,50.07995531082612 L 201.4411613770836,59.0351705607679 L 189.07603060665247,59.062316228078366 L 178.92486148894804,65.96388391463002 L 178.06150212160543,73.94935427502811 L 168.64458346783456,82.36609941196961 L 161.92062112669487,80.94065876984955 L 157.766543943206,70.73924661336189 L 160.97888523860422,59.32764872536517 z" id="c22083"/>
		<path d="M 128.13200722853313,50.37740118190556 L 128.22981797478147,42.32532201401444 L 143.12609647724213,41.78528839655902 L 155.61912968871633,29.620682144814115 L 167.59274177027004,35.39258666672107 L 165.04141715081656,42.203077094880165 L 167.37303659079794,49.7018164530762 L 160.97888523860422,59.32764872536517 L 157.766543943206,70.73924661336189 L 152.1402135930716,72.40946459297902 L 136.04502344728218,70.54567686040909 L 136.08083188340527,66.55407103729644 L 128.05038587802778,58.45801611109117 L 128.13200722853313,50.37740118190556 z" id="c22073"/>
		<path d="M 69.5468511162952,224.44486167446405 L 81.58185006191253,224.58386786893664 L 82.00882580757207,198.82303109779173 L 93.84920556337946,199.20798252486958 L 94.2933399681582,197.9022365073035 L 110.27951969831057,197.25895218696687 L 112.25936254062208,197.55642992485053 L 113.05452268319566,228.26394884496034 L 109.24513455214827,235.10989465721516 L 97.79488934118092,234.9352682404435 L 97.61042545322927,239.59418304235504 L 74.48140178236515,239.18973368306715 L 69.22657719441528,240.4858945283699 L 69.5468511162952,224.44486167446405 z" id="c22003"/>
		<path d="M 38.22068498164288,193.81962440628695 L 36.796140900675354,189.87043138908595 L 37.68778592764151,186.07669584235612 L 38.42276504766755,182.1140319752832 L 37.84161586210448,174.99361440667764 L 38.352352721053016,169.77692354191504 L 36.973622194649394,169.8234532512251 L 38.487920306036244,161.4172996007963 L 45.83204273158168,161.52655196169147 L 50.09357281272947,153.55077251545467 L 62.293182839301906,153.72842952212227 L 81.57687887283753,154.39968656100774 L 82.39017393855082,155.68515609161213 L 90.3920069506395,158.4926852373765 L 94.27485705077409,164.5392775778403 L 94.2933399681582,197.9022365073035 L 93.84920556337946,199.20798252486958 L 82.00882580757207,198.82303109779173 L 46.86824781461354,197.79357623526516 L 42.27588824167582,199.8982821134408 L 36.26052507841599,198.11612343789528 L 38.22068498164288,193.81962440628695 z" id="c22115"/>
		<path d="M 12.538085860975222,108.56263080654976 L 46.904606806468834,109.17230472183022 L 46.63802540063083,121.2141227574371 L 54.72898302807576,121.38020403272994 L 54.56457820502319,137.60521066720378 L 62.51501179316221,137.719682477225 L 62.293182839301906,153.72842952212227 L 50.09357281272947,153.55077251545467 L 45.83204273158168,161.52655196169147 L 38.487920306036244,161.4172996007963 L 36.973622194649394,169.8234532512251 L 33.16181892948223,169.95100086278708 L 33.01602528304485,169.95584739435466 L 32.24662173663178,162.86355544193012 L 27.460921428246817,158.92919010858745 L 28.176555748424303,152.12149939278405 L 25.950727017034392,147.16539477811094 L 21.93320858917613,143.3708330613082 L 23.86003542522689,140.14989869385462 L 19.03314499355829,137.9056871281649 L 15.425628630582658,132.40429392164998 L 16.923781956655237,129.0926709757306 L 18.13641386799285,121.91601404060106 L 14.414123288612522,112.18027532840105 L 12.538085860975222,108.56263080654976 z" id="c22085"/>
		<path d="M 136.5440408750199,266.7183433787569 L 139.53279584174095,260.88818511091876 L 148.04184127114218,252.87145223210567 L 152.27359584365476,250.01437700615475 L 155.49849634726195,245.32704278117237 L 160.3374829257823,246.52599722185442 L 163.93680008545795,258.6974910003221 L 160.9421963969171,263.65341662324715 L 166.8784543246701,266.2596902179937 L 163.20189559038292,273.7341196199935 L 162.10586058105613,277.06923729792743 L 153.98280789712013,273.61415854875787 L 152.23299460775362,268.5974888322671 L 149.07573709725008,269.71091034808995 L 143.09715839640012,267.1923027954292 L 141.1465198463101,267.72632083355234 L 140.10077506425148,267.33653010897086 L 138.59904526569494,267.48497753808005 L 138.29713725348165,267.0139645618886 L 136.9382715420112,267.2656648425482 L 136.5440408750199,266.7183433787569 z" id="c22055"/>
		<path d="M 193.5999419615942,107.23783890057867 L 198.6649898356155,102.87418502461536 L 197.34723568102766,100.17089980548604 L 200.3835685279342,87.91388836679282 L 200.165838015005,77.69197740205927 L 213.640367777188,77.7829913764169 L 228.26694291039126,73.44896008870401 L 230.2681881017338,77.24096324376227 L 235.7006880752158,86.460235415539 L 236.07608130992827,87.09645489591941 L 232.60395199073648,91.78545982593128 L 232.47598757857892,94.25497941245644 L 229.60928644192174,97.6145278703972 L 224.89943720279285,98.89363258773294 L 224.61536447599025,103.79528531608898 L 220.3921005193633,107.77952029739045 L 219.67595749092632,108.4370281852303 L 216.0512946950792,111.7625205005669 L 211.68018408066962,110.91528037214604 L 210.5940219975658,114.92240121475737 L 213.66726875501303,119.67246306672536 L 213.81550225357873,119.90141803592759 L 208.96995718847782,121.06954743891066 L 207.54087076615653,119.17257690225861 L 196.009076595039,119.29509739629837 L 193.43103888108587,115.22503299092372 L 193.5999419615942,107.23783890057867 z" id="c22107"/>
		<path d="M 213.65844372237996,216.21930901779803 L 220.48098291790245,204.68114182849402 L 221.46453868951613,199.518402615152 L 225.1222370611759,188.60644913334895 L 234.32422120713983,188.57998423021476 L 252.90834808953232,188.49812895044218 L 249.978518122207,193.80927188619984 L 251.4022252578568,198.72087452173668 L 250.4062364266236,200.14578812050001 L 250.13514482780784,200.37055946269962 L 250.38705557315285,201.45793698244754 L 251.76912996807212,202.5546957574619 L 251.1762682392966,214.30634738135896 L 218.93186612060862,215.67611703212333 L 215.4935726162298,220.810231476857 L 214.50621015612631,220.40419528750678 L 213.65844372237996,216.21930901779803 z" id="c22037"/>
		<path d="M 297.08242742679687,279.59289888791886 L 297.3283270116202,272.03466322389 L 298.518072566979,265.16227570815863 L 301.67121969109206,264.0099992487734 L 306.78256701234034,262.6688968314784 L 310.6561368784606,264.899676280671 L 309.507544309813,282.324521413571 L 308.3082597792574,284.9042587941012 L 308.951136538975,288.11019345816527 L 314.8460247350578,285.07043424157786 L 318.9464406407635,289.60887573543727 L 314.1720609079041,295.7708310970508 L 313.64765055658825,301.05383482866773 L 321.13434113207865,315.18688069025916 L 321.885374360391,330.6454801716807 L 328.0878653823069,344.9614486075361 L 323.7942739739055,348.6311585852274 L 315.62878738939105,355.1747646294892 L 313.1178952277815,356.9708874966592 L 320.316538613712,344.56709979557627 L 317.7611814488142,341.49132168509664 L 318.4311505224152,332.61056049343523 L 308.9664591220177,328.2309683472451 L 304.96743754035595,320.3389188611664 L 307.71605453475246,318.0529302584245 L 307.30285592524456,309.8037858747207 L 301.4747104326735,308.5272526798812 L 306.0978790995785,297.862923972241 L 305.76491977272207,296.01196094242846 L 300.35967794069285,292.8806777286472 L 297.1122503924053,283.1667624499508 L 297.08242742679687,279.59289888791886 z" id="c22051"/>
		<path d="M 314.1720609079041,295.7708310970508 L 318.9464406407635,289.60887573543727 L 322.8717749219904,288.9082042402997 L 326.78537110687284,292.0614447070037 L 330.15863541787405,298.68516819996506 L 342.1430707168817,302.00398727116277 L 349.70623593171325,308.98023291350273 L 358.5591588263954,311.7501036944551 L 359.9998109900324,313.1689800444096 L 359.69944013008535,313.3530587533783 L 357.2252553067419,311.8217666521276 L 351.89950920009375,315.4270805680968 L 355.00947870075737,321.5023271723185 L 354.6781993099539,326.08663359326766 L 357.7802375423835,331.5137841673179 L 361.8371424179332,334.0585641626339 L 370.1052965607593,335.25038333251973 L 375.58529987686205,335.5002917779525 L 380.04181458865054,340.13111829475423 L 384.6627610273874,339.35153874940016 L 390.1037574310024,345.24008865743747 L 391.6370970161793,350.71682906933387 L 398.9660135817798,350.9752969780473 L 400.0,355.395791226826 L 395.91121991910796,362.49314328764103 L 391.9059979758385,364.1014064644869 L 389.37554890840005,368.2403106995731 L 389.92182849095093,371.73280172700186 L 383.7352271862211,369.0048741808084 L 380.3846799710716,365.7661805574374 L 375.39561445028136,370.2841334207644 L 369.126411376334,377.42943170702006 L 368.78991109422435,369.7797092273672 L 372.13570444298597,364.669876296751 L 369.67644451487996,359.9496150069003 L 366.20968608977574,357.6650319177007 L 362.0789116172931,351.6538009959191 L 355.44265677176224,349.22933929880895 L 352.0311311887226,348.40717776892035 L 349.3142185831325,344.90271803525474 L 342.3177569630277,343.7611694622469 L 332.9032549213513,342.5262687642025 L 329.62410094687385,343.6472439556873 L 328.0878653823069,344.9614486075361 L 321.885374360391,330.6454801716807 L 321.13434113207865,315.18688069025916 L 313.64765055658825,301.05383482866773 L 314.1720609079041,295.7708310970508 z" id="c22075"/>
		<path d="M 165.58565439878012,90.1523645645273 L 170.69828250147316,87.90423280026455 L 168.64458346783456,82.36609941196961 L 178.06150212160543,73.94935427502811 L 178.92486148894804,65.96388391463002 L 189.07603060665247,59.062316228078366 L 201.4411613770836,59.0351705607679 L 201.77113877878614,67.26387550031531 L 195.12201837436098,73.41638797352441 L 200.165838015005,77.69197740205927 L 200.3835685279342,87.91388836679282 L 197.34723568102766,100.17089980548604 L 198.6649898356155,102.87418502461536 L 193.5999419615942,107.23783890057867 L 191.95183355383455,99.20053138874239 L 187.97966853866632,99.12878746751254 L 181.53842376096475,107.20885635381087 L 175.59093721103798,106.20213128592047 L 168.95927631017344,98.96016592302044 L 165.58565439878012,90.1523645645273 z" id="c22041"/>
		<path d="M 175.2278330846267,190.69981749870925 L 179.60137109212968,186.75106203748663 L 184.58560742829866,186.8297023883076 L 188.57191313896743,188.5654374446919 L 187.92170900852457,195.05016210994276 L 186.59664431764446,201.66412594414209 L 194.93282383577142,202.46275009806007 L 190.32492538373364,196.10338436483244 L 195.5084970224881,196.24096015225982 L 198.17953042656646,200.02502626800617 L 196.2685500188963,207.75197231235538 L 191.87850229340228,211.52160860902308 L 195.18116492376106,213.31340548226686 L 203.34487551601387,212.83098743594573 L 208.89394069250045,210.75087210991154 L 212.84987624003045,219.9701942510059 L 214.55292879909862,220.7647187324882 L 206.1632127000494,233.516206166728 L 200.55546814660573,234.83417113157952 L 192.72024215838775,234.83267870520987 L 183.34796876044152,234.76801755671534 L 178.9426438252623,234.72474394067584 L 180.9212287693224,233.40787664747796 L 178.9019631206062,228.75767847197756 L 180.8035867558859,215.95077266156107 L 174.36956199534706,202.44884454999539 L 175.2278330846267,190.69981749870925 z" id="c22077"/>
		<path d="M 23.65022768437695,239.07378873368026 L 23.20183868367163,232.0246378929703 L 21.755354629852828,228.45466487873392 L 25.419875485315494,224.13412792137902 L 25.418431746048654,221.13075650223877 L 29.914883000323815,216.18129482031486 L 30.99422127270143,210.81219348748868 L 34.95731998704326,204.95157693199894 L 35.925264992381614,198.8505431581321 L 36.26052507841599,198.11612343789528 L 42.27588824167582,199.8982821134408 L 46.86824781461354,197.79357623526516 L 82.00882580757207,198.82303109779173 L 81.58185006191253,224.58386786893664 L 69.5468511162952,224.44486167446405 L 69.22657719441528,240.4858945283699 L 69.20055990501663,242.37800705221986 L 48.930723091276604,242.07680854054672 L 49.11294273376527,234.025410734131 L 41.005789407320854,233.83854363047215 L 40.874921722772775,241.94096601047627 L 20.735357490032413,241.56212822011742 L 23.65022768437695,239.07378873368026 z" id="c22011"/>
		<path d="M 187.92170900852457,195.05016210994276 L 188.57191313896743,188.5654374446919 L 221.32064596152614,188.6146630439473 L 225.1222370611759,188.60644913334895 L 221.46453868951613,199.518402615152 L 220.48098291790245,204.68114182849402 L 213.65844372237996,216.21930901779803 L 214.50621015612631,220.40419528750678 L 212.84987624003045,219.9701942510059 L 208.89394069250045,210.75087210991154 L 203.34487551601387,212.83098743594573 L 195.18116492376106,213.31340548226686 L 191.87850229340228,211.52160860902308 L 196.2685500188963,207.75197231235538 L 198.17953042656646,200.02502626800617 L 195.5084970224881,196.24096015225982 L 190.32492538373364,196.10338436483244 L 194.93282383577142,202.46275009806007 L 186.59664431764446,201.66412594414209 L 187.92170900852457,195.05016210994276 z M 181.69620913279076,184.41588554386158 L 189.26211876774292,188.04413297657703 L 188.57191313896743,188.5654374446919 L 184.58560742829866,186.8297023883076 L 179.60137109212968,186.75106203748663 L 181.69620913279076,184.41588554386158 z" id="c22125"/>
		<path d="M 1.4311590376089958,30.06859678126195 L 1.6608405060041112,20.441702944162284 L 1.8449524360784804,12.734278705230134 L 2.149136650950843,0.0 L 19.891274198561995,0.38624076760621223 L 17.56627191786932,7.034678605007686 L 21.853100685294596,15.374199791502685 L 18.682950531129066,21.29147735887406 L 21.860787449026894,22.106172314294618 L 18.965889319478872,26.503389846884946 L 21.806012550513785,28.75838611239989 L 24.893412248831584,40.02161225724001 L 23.4832158928651,44.94642612268371 L 27.401583063098343,48.687344733400835 L 30.741631545089323,56.21787352539951 L 28.729768603484683,58.10459839625225 L 30.823489897887587,57.17385443226829 L 36.674298768520806,64.43868987899684 L 39.619741212491405,64.59207416744829 L 41.08453109555681,69.54895813078674 L 45.21346128805078,73.02045620631519 L 33.98130435412241,72.77249924182725 L 30.07631683252205,65.32735843186309 L 22.46031427484322,62.57723873942372 L 7.551259415031759,76.07694628444763 L 0.3758008134061562,75.86772775213458 L 0.7374967598094925,60.43063849661421 L 0.7962381034221768,57.78391758452774 L 1.148016655912799,41.935997717620005 L 1.4311590376089958,30.06859678126195 z" id="c22017"/>
		<path d="M 200.55546814660573,234.83417113157952 L 206.1632127000494,233.516206166728 L 214.55292879909862,220.7647187324882 L 212.84987624003045,219.9701942510059 L 214.50621015612631,220.40419528750678 L 215.4935726162298,220.810231476857 L 214.09150203239244,225.89811101462794 L 219.6089093538439,231.27551694270826 L 216.7874778079545,234.0148055055938 L 222.53885026872794,232.45692907386245 L 223.50680949458504,234.05044524306098 L 223.59818384124796,238.92674461554017 L 223.36681689296302,241.72749688910002 L 220.14270223661106,248.23882473771036 L 227.92572333029642,250.83355595632096 L 214.41465594096067,250.9217088547613 L 213.28092880648848,248.68172217688937 L 203.08842273961213,236.88223362578657 L 200.55546814660573,234.83417113157952 z" id="c22121"/>
		<path d="M 242.2503257876711,274.4422151174606 L 246.0881239049595,270.11770530061176 L 267.9521663860983,265.1196414553114 L 264.27217388184783,277.15211093517127 L 266.9579861374427,290.64138426667324 L 257.2397296666254,287.67594276684764 L 248.5619032388127,289.24899935752774 L 245.32346607118382,286.5361858923437 L 242.58306521055536,282.5901632112968 L 242.2503257876711,274.4422151174606 z" id="c22093"/>
		<path d="M 264.27217388184783,277.15211093517127 L 267.9521663860983,265.1196414553114 L 268.6560646530282,260.0541927604157 L 271.924710916565,261.2381944126563 L 274.96079091287197,262.3868062416859 L 280.3685301897452,254.85821782006036 L 293.5625241504722,252.7264413995569 L 306.39018525421,258.55562937244866 L 306.78256701234034,262.6688968314784 L 301.67121969109206,264.0099992487734 L 298.518072566979,265.16227570815863 L 293.1897691131281,266.42782888133564 L 281.9802666365963,277.42610935395936 L 276.35557981200765,278.83157480702346 L 276.86203044250783,283.33370640653345 L 277.12411993698396,290.96682741821576 L 269.13453326596283,290.07742792194153 L 266.9579861374427,290.64138426667324 L 264.27217388184783,277.15211093517127 z" id="c22095"/>
		<path d="M 132.76163675982983,124.03684673954768 L 131.67340506233583,114.81033950435733 L 133.7827845322312,112.39007481829356 L 135.70892575100115,102.79976293222278 L 159.84503704557346,102.9816077851767 L 159.30764611074096,158.38480679562895 L 157.90790883255286,156.7912807693395 L 153.09994754099029,157.46410870102287 L 154.19526232740338,156.54722838402694 L 144.5499958448592,144.27906867762556 L 138.2098757246975,142.6165024781185 L 135.8976999883197,133.92638441245788 L 129.80681490488777,131.0246833115545 L 132.76163675982983,124.03684673954768 z" id="c22059"/>
		<path d="M 137.48135681419012,191.44903092651123 L 143.22710449058917,191.73790694159214 L 141.28972923501632,176.15730243618503 L 141.50862289855363,158.654103581812 L 149.97115015495444,160.14410715569068 L 153.09994754099029,157.46410870102287 L 157.90790883255286,156.7912807693395 L 159.30764611074096,158.38480679562895 L 160.6399585322994,167.65600646289718 L 165.7174756203079,161.27220376048385 L 173.0268208747542,163.93049186946146 L 185.42275239046035,171.18661182864668 L 182.1047704999169,176.09636611637362 L 181.69620913279076,184.41588554386158 L 179.60137109212968,186.75106203748663 L 175.2278330846267,190.69981749870925 L 174.36956199534706,202.44884454999539 L 157.40102970362273,202.23367929065634 L 142.79660070821313,202.21526291822966 L 140.81140120950096,202.23636563475128 L 137.48135681419012,191.44903092651123 z" id="c22009"/>
		<path d="M 0.3758008134061562,75.86772775213458 L 7.551259415031759,76.07694628444763 L 22.46031427484322,62.57723873942372 L 30.07631683252205,65.32735843186309 L 33.98130435412241,72.77249924182725 L 40.06767121242325,76.98393962802992 L 39.6250486357745,85.35858061611216 L 47.12224264557466,95.91215264219201 L 53.78579791520925,101.28085029295993 L 48.735411438189004,101.02111922306634 L 46.904606806468834,109.17230472183022 L 12.538085860975222,108.56263080654976 L 10.178077262705516,104.00674073080296 L 4.912897910251867,100.82036558046694 L 0.9461868814168408,95.81884914947116 L 0.0,94.62470219951534 L 0.25050624083897044,81.21538797301648 L 0.3758008134061562,75.86772775213458 z" id="c22031"/>
		<path d="M 50.78306032597353,60.9979751325512 L 49.2319843077862,58.295378607148486 L 53.20828443111327,57.22277598663599 L 63.849498429204864,57.41342456128493 L 70.91982961327842,53.355130588600524 L 68.63448115624062,41.37317330269264 L 91.88660789194122,41.68415804255656 L 91.8434492898931,53.77453117668348 L 99.81879833749583,53.939696657619876 L 99.8808494644848,73.96731968413839 L 96.52006376648747,82.15104476795811 L 86.77421888188508,81.92437384388187 L 67.3285648444297,81.58749313194696 L 65.3583697352408,73.47704897988095 L 48.58326688453723,73.20150824416804 L 50.78306032597353,60.9979751325512 z" id="c22013"/>
		<path d="M 290.8679240670036,188.17381817763777 L 290.9658036624156,188.1727605876751 L 297.8224912118642,188.08358055423432 L 326.53550867437167,187.65392874854743 L 331.42145528954416,187.57403867504215 L 339.9674920511317,187.42798486820413 L 339.9653677221799,187.43879933256372 L 338.3424280408949,195.69245734646825 L 335.14908858327874,204.2576237983878 L 331.71855849029475,212.88394542516983 L 332.5965333092072,218.24726109426484 L 319.19853470441285,218.73740224820034 L 298.3824101992275,214.66647980435374 L 293.366110171404,198.22828215784847 L 290.9853094699381,196.9144063221607 L 290.8679240670036,188.17381817763777 z" id="c22117"/>
		<path d="M 19.891274198561995,0.38624076760621223 L 20.640497362892127,0.4017725184101741 L 26.98177545570096,0.5307034530148089 L 42.69340868869498,0.9104961769985853 L 41.88567917326513,4.8931381030201075 L 48.101249802859904,15.070199350289846 L 45.9539598313324,22.69837342500209 L 48.17905162393002,24.76895584973191 L 47.85936316486157,57.10034136401875 L 53.20828443111327,57.22277598663599 L 49.2319843077862,58.295378607148486 L 50.78306032597353,60.9979751325512 L 48.58326688453723,73.20150824416804 L 45.21346128805078,73.02045620631519 L 41.08453109555681,69.54895813078674 L 39.619741212491405,64.59207416744829 L 36.674298768520806,64.43868987899684 L 30.823489897887587,57.17385443226829 L 28.729768603484683,58.10459839625225 L 30.741631545089323,56.21787352539951 L 27.401583063098343,48.687344733400835 L 23.4832158928651,44.94642612268371 L 24.893412248831584,40.02161225724001 L 21.806012550513785,28.75838611239989 L 18.965889319478872,26.503389846884946 L 21.860787449026894,22.106172314294618 L 18.682950531129066,21.29147735887406 L 21.853100685294596,15.374199791502685 L 17.56627191786932,7.034678605007686 L 19.891274198561995,0.38624076760621223 z" id="c22015"/>
		<path d="M 42.69340868869498,0.9104961769985853 L 45.06103588494446,0.965322100827564 L 53.86786558548288,1.1637260886354055 L 64.62887712919849,1.3692918684426787 L 64.26177890976176,29.1925098408638 L 68.22206132351756,29.210878657887868 L 69.10982618711863,36.941358885916856 L 68.63448115624062,41.37317330269264 L 70.91982961327842,53.355130588600524 L 63.849498429204864,57.41342456128493 L 53.20828443111327,57.22277598663599 L 47.85936316486157,57.10034136401875 L 48.17905162393002,24.76895584973191 L 45.9539598313324,22.69837342500209 L 48.101249802859904,15.070199350289846 L 41.88567917326513,4.8931381030201075 L 42.69340868869498,0.9104961769985853 z" id="c22119"/>
		<path d="M 20.1832667684624,242.03317356894522 L 20.735357490032413,241.56212822011742 L 40.874921722772775,241.94096601047627 L 41.005789407320854,233.83854363047215 L 49.11294273376527,234.025410734131 L 48.930723091276604,242.07680854054672 L 69.20055990501663,242.37800705221986 L 77.15945506519576,244.67842271705774 L 77.01901952900545,255.61351050047392 L 79.62806540967954,265.19338369956284 L 87.86409898808839,265.3682284994609 L 88.26124473758274,272.08116501984665 L 79.46411074098151,276.09823151078683 L 68.90531628417263,274.64007182842516 L 22.63733625408737,273.83593292986507 L 22.833167232411437,273.64564503489174 L 23.06477401668927,268.2706391203414 L 23.075076396884363,262.6345709030122 L 22.405938189015046,257.89496582463835 L 22.62524541604011,256.17681397426986 L 22.994814715727056,253.28019262743803 L 18.856069625788994,248.1834641985482 L 20.1832667684624,242.03317356894522 z" id="c22019"/>
		<path d="M 240.3388981509803,226.76160066664534 L 246.29536568835698,220.76364097796915 L 273.64013802612595,220.56305624430215 L 273.73752177248156,231.96882763133038 L 275.4544120607288,240.78120644222867 L 281.2854368891527,248.5679370113643 L 280.3685301897452,254.85821782006036 L 274.96079091287197,262.3868062416859 L 271.924710916565,261.2381944126563 L 268.6560646530282,260.0541927604157 L 263.74389443978333,264.34014186648193 L 252.79282574498836,251.1879991575721 L 247.91351649779102,248.75759581695252 L 244.27366805774616,246.80811231149607 L 239.9129832080677,238.05313883628182 L 240.3388981509803,226.76160066664534 z" id="c22063"/>
		<path d="M 188.92875499313604,34.9029429975315 L 194.51793381110178,17.562349782199846 L 204.5534285966087,6.016185335406991 L 204.68139450877717,3.719267186724083 L 217.9976316369707,3.8227756203925387 L 214.5164818467718,10.233556544040194 L 211.75698351011994,26.699797596174655 L 207.59269191753958,32.569315166302495 L 207.68905969281963,40.26822805777954 L 203.91526673043697,42.80149488942242 L 192.15151474561173,42.760508384892624 L 192.10327933057485,34.9227005864204 L 188.92875499313604,34.9029429975315 z" id="c22123"/>
		<path d="M 155.5619515348307,319.3227451056405 L 160.2315901603018,314.59061444315125 L 161.57771800108867,297.32053251791285 L 159.99331081990906,283.1873598771025 L 162.10586058105613,277.06923729792743 L 163.20189559038292,273.7341196199935 L 173.7412525590421,276.4728309722247 L 180.9170497716991,269.2769329367651 L 186.59824438773063,270.6073377292694 L 191.26673636884428,277.52862465671234 L 209.8110284325223,275.1915032325516 L 220.78220036632877,276.88569585351473 L 221.3830674573106,278.2704355011888 L 218.91347288968018,283.2320973907434 L 201.54259994094707,284.6513558833326 L 189.29544840420024,285.6146119453913 L 182.33582811495842,294.72663404578367 L 164.26579248013164,310.6776502457893 L 170.11014411072176,311.12472773284185 L 169.23186590594432,314.81350985707115 L 174.81215301323763,317.72154991471444 L 182.25731084122842,320.19981026520395 L 177.62843633784385,327.4521113605897 L 173.32841668249705,328.9477964805475 L 165.79893946348636,324.8083500878663 L 156.58176619885768,319.77188217155754 L 155.5619515348307,319.3227451056405 z" id="c22045"/>
		<path d="M 212.52861617225764,345.15383644860367 L 217.22614801523002,342.2945979419069 L 218.12744108126097,339.4267070272482 L 218.05721346607916,339.39105813735375 L 220.51782470645068,338.231942855312 L 222.3176893320047,334.22051977760594 L 218.6965427383706,331.7547752150416 L 217.6520348625003,323.3912646625397 L 225.14425537867166,316.5250034258595 L 232.81812905134953,314.97742156546565 L 238.89565490737994,306.8247243028666 L 249.06319930127142,306.60253480877276 L 254.8636852513058,301.1377135906471 L 262.9380719125847,311.2712485853577 L 264.57715120500296,313.10554611204304 L 270.0929729825131,317.42328066028176 L 289.176049442881,338.671540431335 L 287.2435374025719,350.2874177049464 L 287.3734077269888,366.97496716822025 L 284.68494073255636,367.21638900545605 L 281.012621904835,366.9950152852936 L 267.7495703419973,367.17899797615837 L 259.9725082963589,368.84770246102016 L 254.78054984422837,368.68146859122976 L 250.30184805754345,367.4188292006019 L 249.49701412498086,362.92747428040565 L 244.28138469599077,357.65550137366347 L 239.57571345495577,357.01608915764433 L 231.98460280586406,355.3569856560596 L 226.80002770469633,352.56907085300514 L 217.05672654125576,349.84718734471306 L 212.52861617225764,345.15383644860367 z" id="c22109"/>
		<path d="M 33.98130435412241,72.77249924182725 L 45.21346128805078,73.02045620631519 L 48.58326688453723,73.20150824416804 L 65.3583697352408,73.47704897988095 L 67.3285648444297,81.58749313194696 L 72.2472431308473,97.8662150377185 L 63.03775607761216,97.7020423634409 L 62.850651310220464,104.0809634644288 L 53.78579791520925,101.28085029295993 L 47.12224264557466,95.91215264219201 L 39.6250486357745,85.35858061611216 L 40.06767121242325,76.98393962802992 L 33.98130435412241,72.77249924182725 z" id="c22081"/>
		<path d="M 69.22657719441528,240.4858945283699 L 74.48140178236515,239.18973368306715 L 97.61042545322927,239.59418304235504 L 97.79488934118092,234.9352682404435 L 109.24513455214827,235.10989465721516 L 109.10736832758775,235.72758049155357 L 112.02775067639186,241.35857971371334 L 109.07696464184271,245.53797636029867 L 109.27526610339893,258.8261018267496 L 112.06308607907731,263.2674892249495 L 109.2222426193763,271.5244508297055 L 108.21203388789854,273.36853951025216 L 100.10577231201785,276.4810277255502 L 97.23327825500526,276.2716331202659 L 79.46411074098151,276.09823151078683 L 88.26124473758274,272.08116501984665 L 87.86409898808839,265.3682284994609 L 79.62806540967954,265.19338369956284 L 77.01901952900545,255.61351050047392 L 77.15945506519576,244.67842271705774 L 69.20055990501663,242.37800705221986 L 69.22657719441528,240.4858945283699 z" id="c22053"/>
		<path d="M 164.26579248013164,310.6776502457893 L 182.33582811495842,294.72663404578367 L 189.29544840420024,285.6146119453913 L 201.54259994094707,284.6513558833326 L 209.41884254903783,295.84971395152 L 208.38548087877567,300.51803826234914 L 222.14289256163786,303.50296980306547 L 231.40445625019547,308.25772644429867 L 230.98197605933467,313.4244399680743 L 232.81812905134953,314.97742156546565 L 225.14425537867166,316.5250034258595 L 217.6520348625003,323.3912646625397 L 218.6965427383706,331.7547752150416 L 222.3176893320047,334.22051977760594 L 220.51782470645068,338.231942855312 L 218.05721346607916,339.39105813735375 L 212.59596111699364,336.6163444221457 L 210.1851280207581,333.93382177252477 L 211.51130179749396,331.74572835760483 L 207.74385382256824,326.8956751356161 L 202.37353765089426,329.3907300357443 L 200.39345655562062,326.70464793116463 L 196.7403113129919,323.7142231373545 L 196.22882265583775,320.5519292010616 L 195.86914238138192,317.93112619601334 L 191.1945780533695,314.5337687138003 L 187.68396012300136,314.5738025388442 L 189.30858035971679,308.26213672077927 L 185.84142309131312,303.9648609412675 L 180.20973501335084,303.6201414183966 L 174.50648328302975,305.8325915197286 L 170.88762553793384,307.8567974047128 L 170.11014411072176,311.12472773284185 L 164.26579248013164,310.6776502457893 z" id="c22101"/>
		<path d="M 46.904606806468834,109.17230472183022 L 48.735411438189004,101.02111922306634 L 53.78579791520925,101.28085029295993 L 62.850651310220464,104.0809634644288 L 63.03775607761216,97.7020423634409 L 72.2472431308473,97.8662150377185 L 67.3285648444297,81.58749313194696 L 86.77421888188508,81.92437384388187 L 91.7688239271606,100.61480192557936 L 84.1197828033473,115.67049177571471 L 83.49489711595238,122.32955109215666 L 84.15981134080576,124.93707002286058 L 88.52403443637162,130.11571386995533 L 96.53947644840594,132.67461905240722 L 103.32521627977216,140.21633010731335 L 85.10656085663999,155.71396590271434 L 82.39017393855082,155.68515609161213 L 81.57687887283753,154.39968656100774 L 62.293182839301906,153.72842952212227 L 62.51501179316221,137.719682477225 L 54.56457820502319,137.60521066720378 L 54.72898302807576,121.38020403272994 L 46.63802540063083,121.2141227574371 L 46.904606806468834,109.17230472183022 z" id="c22069"/>
		<path d="M 155.48228931986083,3.2956011686903244 L 170.55431426250783,3.449183290868352 L 200.54401175535003,3.683051393084484 L 202.7806788744658,3.7028683930299584 L 204.68139450877717,3.719267186724083 L 204.5534285966087,6.016185335406991 L 194.51793381110178,17.562349782199846 L 188.92875499313604,34.9029429975315 L 180.72890373927308,44.87357887706918 L 175.89094407088916,43.71102854884193 L 173.12097416732408,48.56946008310911 L 167.37303659079794,49.7018164530762 L 165.04141715081656,42.203077094880165 L 167.59274177027004,35.39258666672107 L 155.61912968871633,29.620682144814115 L 156.63097606194526,23.013468027919547 L 154.17297155705663,7.279338352700977 L 155.48228931986083,3.2956011686903244 z" id="c22067"/>
		<path d="M 318.56840274870297,284.9687983595729 L 331.8552103210819,278.32485398736515 L 331.3473198784826,284.19199100336283 L 335.9082151546521,285.8550798111071 L 340.0735115474218,287.3039730163515 L 343.54203127852793,291.26551488749885 L 347.9408450213272,292.1668881270909 L 351.8417155370827,290.46932932406634 L 353.59838221526394,281.0219954781288 L 359.95275525390593,275.6530834322445 L 363.8819886215584,273.74906902611923 L 372.08754590460006,273.7746600148388 L 375.1680962655395,270.73781670702334 L 380.68601093759224,266.6437906505964 L 384.6541101556905,265.24558517734914 L 384.5980409745793,273.11028366411944 L 382.3260411254378,279.63516606275715 L 381.19893160091993,285.9200422550703 L 380.87000351008237,290.38232894015255 L 376.4232514698118,297.27797453411216 L 378.2839074514861,301.5438645772926 L 367.9724135238323,300.41299696448465 L 367.72507687966345,308.5907879933923 L 362.8191324129937,311.4403570338338 L 359.9998109900324,313.1689800444096 L 358.5591588263954,311.7501036944551 L 349.70623593171325,308.98023291350273 L 342.1430707168817,302.00398727116277 L 330.15863541787405,298.68516819996506 L 326.78537110687284,292.0614447070037 L 325.90390114244354,287.6661210673004 L 318.56840274870297,284.9687983595729 z" id="c22087"/>
		<path d="M 215.4935726162298,220.810231476857 L 218.93186612060862,215.67611703212333 L 251.1762682392966,214.30634738135896 L 251.06768202313734,216.06017530202112 L 246.29536568835698,220.76364097796915 L 240.3388981509803,226.76160066664534 L 239.9129832080677,238.05313883628182 L 244.27366805774616,246.80811231149607 L 247.91351649779102,248.75759581695252 L 240.30902919507005,248.73909369006034 L 237.59674727806487,250.9783789181567 L 229.16588102280966,251.74949250303035 L 227.92572333029642,250.83355595632096 L 220.14270223661106,248.23882473771036 L 223.36681689296302,241.72749688910002 L 223.59818384124796,238.92674461554017 L 223.50680949458504,234.05044524306098 L 222.53885026872794,232.45692907386245 L 216.7874778079545,234.0148055055938 L 219.6089093538439,231.27551694270826 L 214.09150203239244,225.89811101462794 L 215.4935726162298,220.810231476857 z" id="c22033"/>
		<path d="M 203.91526673043697,42.80149488942242 L 207.68905969281963,40.26822805777954 L 207.59269191753958,32.569315166302495 L 211.75698351011994,26.699797596174655 L 214.5164818467718,10.233556544040194 L 217.9976316369707,3.8227756203925387 L 225.6511057743173,3.873253770907698 L 228.11500214354538,6.043244796175588 L 232.9693292740356,9.971292762521047 L 233.09426649822598,14.505417566539938 L 227.86551849821268,18.17509509020955 L 226.01980088262465,21.544468909240955 L 226.34067883808052,24.90308169256444 L 229.771271423215,28.222118390269717 L 234.18883630742138,29.539261604013944 L 230.94181060920658,33.260895182476645 L 232.46035119918648,41.05778711533373 L 234.35457017447942,43.053448480152305 L 228.24057983702227,46.852187811297036 L 202.9474442271748,46.87017821479205 L 203.91526673043697,42.80149488942242 z" id="c22035"/>
		<path d="M 276.35557981200765,278.83157480702346 L 281.9802666365963,277.42610935395936 L 293.1897691131281,266.42782888133564 L 298.518072566979,265.16227570815863 L 297.3283270116202,272.03466322389 L 297.08242742679687,279.59289888791886 L 297.1122503924053,283.1667624499508 L 300.35967794069285,292.8806777286472 L 305.76491977272207,296.01196094242846 L 306.0978790995785,297.862923972241 L 301.4747104326735,308.5272526798812 L 291.5108410160505,308.29725466019465 L 289.8644811913972,302.44500615938074 L 282.11848702958025,298.4348225684441 L 281.1362170965105,294.40082466460274 L 277.12411993698396,290.96682741821576 L 276.86203044250783,283.33370640653345 L 276.35557981200765,278.83157480702346 z" id="c22089"/>
		<path d="M 84.1197828033473,115.67049177571471 L 91.7688239271606,100.61480192557936 L 86.77421888188508,81.92437384388187 L 96.52006376648747,82.15104476795811 L 135.91291694996488,82.64620254783804 L 135.70892575100115,102.79976293222278 L 133.7827845322312,112.39007481829356 L 131.67340506233583,114.81033950435733 L 111.48488331073497,114.55884910953301 L 111.33513773152606,122.62523919359596 L 83.49489711595238,122.32955109215666 L 84.1197828033473,115.67049177571471 z" id="c22127"/>
		<path d="M 4.274250857229749,296.38474585292767 L 8.92929299773017,292.0053103411661 L 10.586003908756831,290.15983044405937 L 12.390044356661216,288.1490594220391 L 14.318639045149451,282.64907474007003 L 19.796582663031757,276.5949224486039 L 22.63733625408737,273.83593292986507 L 68.90531628417263,274.64007182842516 L 79.46411074098151,276.09823151078683 L 97.23327825500526,276.2716331202659 L 100.10577231201785,276.4810277255502 L 109.95679364573802,276.5187659510434 L 109.36351315738301,317.8550476330272 L 103.97064814811792,316.3255104649647 L 88.3390862921621,309.1975279484934 L 79.30432380014517,305.0609903398691 L 71.70380906337464,302.6205767134594 L 64.60777660902284,300.5425555427918 L 55.08853591854855,299.96244838806126 L 45.80102679892812,300.5088858709479 L 35.56629075767141,300.6911962997337 L 19.175070534860815,302.84294053122613 L 14.531069301834334,304.6852524799616 L 11.37097016918802,306.8854074244004 L 9.411424240168886,303.7635034616088 L 7.27039064910003,300.2527881690979 L 4.274250857229749,296.38474585292767 z" id="c22023"/>
		<path d="M 122.94894425839443,231.56681664571587 L 138.59269518221163,230.7120366758996 L 142.71537245171174,228.03899161238326 L 145.88031378793502,218.33642808724926 L 145.94324236023397,209.66670565092136 L 142.79660070821313,202.21526291822966 L 157.40102970362273,202.23367929065634 L 174.36956199534706,202.44884454999539 L 180.8035867558859,215.95077266156107 L 178.9019631206062,228.75767847197756 L 180.9212287693224,233.40787664747796 L 178.9426438252623,234.72474394067584 L 185.07628814816655,244.22824938386594 L 161.19845793146496,242.9584713538514 L 160.3374829257823,246.52599722185442 L 155.49849634726195,245.32704278117237 L 152.27359584365476,250.01437700615475 L 148.04184127114218,252.87145223210567 L 146.7631316002524,248.84594885976284 L 146.7638136110213,248.1747409556016 L 145.39294932916474,248.1798629908699 L 145.40473505920772,243.49412340750587 L 139.97812592031883,236.11312845507123 L 120.16765894351191,235.9058974563844 L 122.94894425839443,231.56681664571587 z" id="c22097"/>
		<path d="M 108.21203388789854,273.36853951025216 L 109.2222426193763,271.5244508297055 L 116.5088097603709,270.1747995237948 L 125.37881327567334,275.65177731059043 L 136.5440408750199,266.7183433787569 L 136.9382715420112,267.2656648425482 L 138.29713725348165,267.0139645618886 L 138.59904526569494,267.48497753808005 L 140.10077506425148,267.33653010897086 L 141.1465198463101,267.72632083355234 L 143.09715839640012,267.1923027954292 L 149.07573709725008,269.71091034808995 L 152.23299460775362,268.5974888322671 L 153.98280789712013,273.61415854875787 L 162.10586058105613,277.06923729792743 L 159.99331081990906,283.1873598771025 L 161.57771800108867,297.32053251791285 L 160.2315901603018,314.59061444315125 L 155.5619515348307,319.3227451056405 L 153.82732392505417,318.5584375734943 L 146.25313614234057,318.87970787160606 L 138.72058734725303,322.71264161425415 L 132.95091100434456,323.3878358017506 L 126.01036400489369,321.8542578382899 L 120.89412973554474,320.5524870557488 L 113.30966128989219,318.97194867928295 L 109.36351315738301,317.8550476330272 L 109.95679364573802,276.5187659510434 L 100.10577231201785,276.4810277255502 L 108.21203388789854,273.36853951025216 z" id="c22113"/>
		<path d="M 104.27706978003717,20.387774671444934 L 104.54565623362683,2.2824019780618765 L 104.63810899323978,2.2847939667992208 L 121.89732775953158,2.677415833157552 L 143.53834437417797,3.1557704082744706 L 155.4789611428283,3.295564436981107 L 155.48228931986083,3.2956011686903244 L 154.17297155705663,7.279338352700977 L 156.63097606194526,23.013468027919547 L 155.61912968871633,29.620682144814115 L 143.12609647724213,41.78528839655902 L 128.22981797478147,42.32532201401444 L 128.3073502116441,34.286025589239095 L 120.25301022895422,34.1451420040822 L 116.20285631998418,26.923791246338233 L 104.20616268238909,25.77546077355519 L 104.27706978003717,20.387774671444934 z" id="c22111"/>
		<path d="M 183.34796876044152,234.76801755671534 L 192.72024215838775,234.83267870520987 L 200.55546814660573,234.83417113157952 L 203.08842273961213,236.88223362578657 L 213.28092880648848,248.68172217688937 L 214.41465594096067,250.9217088547613 L 227.92572333029642,250.83355595632096 L 229.16588102280966,251.74949250303035 L 237.59674727806487,250.9783789181567 L 237.34177156615303,252.44030140762646 L 234.56511459971227,260.9628622467129 L 233.444031404645,265.787126069021 L 232.11478929996224,267.5966079636586 L 230.810267686432,270.63806858247756 L 230.86069935709907,274.83751967344125 L 221.3830674573106,278.2704355011888 L 220.78220036632877,276.88569585351473 L 209.8110284325223,275.1915032325516 L 202.20867486990053,271.1661435239463 L 201.30510559998987,259.4743523157615 L 194.31631111816452,258.31619612713666 L 189.6726611990054,252.0468736063072 L 188.18429221924157,239.8184803539119 L 183.34796876044152,234.76801755671534 z" id="c22047"/>
		<path d="M 230.810267686432,270.63806858247756 L 232.11478929996224,267.5966079636586 L 233.444031404645,265.787126069021 L 234.56511459971227,260.9628622467129 L 237.34177156615303,252.44030140762646 L 237.59674727806487,250.9783789181567 L 240.30902919507005,248.73909369006034 L 247.91351649779102,248.75759581695252 L 252.79282574498836,251.1879991575721 L 263.74389443978333,264.34014186648193 L 268.6560646530282,260.0541927604157 L 267.9521663860983,265.1196414553114 L 246.0881239049595,270.11770530061176 L 242.2503257876711,274.4422151174606 L 233.3685628995977,273.06911201350533 L 232.2097380740485,274.83142965314545 L 230.86069935709907,274.83751967344125 L 230.810267686432,270.63806858247756 z" id="c22005"/>
		<path d="M 135.91291694996488,82.64620254783804 L 136.04502344728218,70.54567686040909 L 152.1402135930716,72.40946459297902 L 157.766543943206,70.73924661336189 L 161.92062112669487,80.94065876984955 L 168.64458346783456,82.36609941196961 L 170.69828250147316,87.90423280026455 L 165.58565439878012,90.1523645645273 L 168.95927631017344,98.96016592302044 L 167.7850959731197,103.00026310386316 L 159.84503704557346,102.9816077851767 L 135.70892575100115,102.79976293222278 L 135.91291694996488,82.64620254783804 z" id="c22021"/>
		<path d="M 273.4223086584976,188.34547884928978 L 274.97855685230667,188.33152624728066 L 290.8679240670036,188.17381817763777 L 290.9853094699381,196.9144063221607 L 293.366110171404,198.22828215784847 L 298.3824101992275,214.66647980435374 L 299.4763374305701,225.32622366344128 L 299.466970502439,233.8354829274725 L 299.64358436498935,246.90796369906175 L 306.39018525421,258.55562937244866 L 293.5625241504722,252.7264413995569 L 280.3685301897452,254.85821782006036 L 281.2854368891527,248.5679370113643 L 275.4544120607288,240.78120644222867 L 273.73752177248156,231.96882763133038 L 273.64013802612595,220.56305624430215 L 273.5320656453831,204.471223645557 L 273.4223086584976,188.34547884928978 z" id="c22105"/>
		<path d="M 221.3830674573106,278.2704355011888 L 230.86069935709907,274.83751967344125 L 232.2097380740485,274.83142965314545 L 233.3685628995977,273.06911201350533 L 242.2503257876711,274.4422151174606 L 242.58306521055536,282.5901632112968 L 245.32346607118382,286.5361858923437 L 248.5619032388127,289.24899935752774 L 248.60352607961786,291.81227013589466 L 245.4221450501469,296.16231254244474 L 243.63215941231294,299.67294935154774 L 238.89565490737994,306.8247243028666 L 232.81812905134953,314.97742156546565 L 230.98197605933467,313.4244399680743 L 231.40445625019547,308.25772644429867 L 231.97371758866225,298.90454008864884 L 224.7320676953589,294.75883358789775 L 218.91347288968018,283.2320973907434 L 221.3830674573106,278.2704355011888 z" id="c22007"/>
		<path d="M 159.84503704557346,102.9816077851767 L 167.7850959731197,103.00026310386316 L 168.95927631017344,98.96016592302044 L 175.59093721103798,106.20213128592047 L 181.53842376096475,107.20885635381087 L 187.97966853866632,99.12878746751254 L 191.95183355383455,99.20053138874239 L 193.5999419615942,107.23783890057867 L 193.43103888108587,115.22503299092372 L 196.009076595039,119.29509739629837 L 191.53785865449086,118.35228501194389 L 188.83815327451723,121.36201188981501 L 184.22253850033673,120.78055059831723 L 183.2911456152389,129.2912128970796 L 180.8199702176302,131.9333751977539 L 177.78592795070648,128.74078216654314 L 173.73761453140816,133.9704944172385 L 177.43727153570208,139.57648178242974 L 175.9144967888479,144.87743487956516 L 180.70580720609968,145.4430886621032 L 180.67053746921593,148.74372043231426 L 175.24268273054662,148.057750995583 L 171.31907337518152,142.9074750462282 L 171.38361116549402,149.419087763033 L 177.6177332830079,153.00189592528426 L 172.22238666931258,153.83583496340472 L 170.83606556248057,160.60803488229746 L 173.0268208747542,163.93049186946146 L 165.7174756203079,161.27220376048385 L 160.6399585322994,167.65600646289718 L 159.30764611074096,158.38480679562895 L 159.84503704557346,102.9816077851767 z" id="c22025"/>
		<path d="M 64.62887712919849,1.3692918684426787 L 67.82979923632813,1.4279273340094891 L 84.04164056163722,1.7414793911418458 L 85.4065953804606,1.7665307737288531 L 104.54565623362683,2.2824019780618765 L 104.27706978003717,20.387774671444934 L 104.20616268238909,25.77546077355519 L 96.17435706763341,25.741207534254954 L 91.88660789194122,41.68415804255656 L 68.63448115624062,41.37317330269264 L 69.10982618711863,36.941358885916856 L 68.22206132351756,29.210878657887868 L 64.26177890976176,29.1925098408638 L 64.62887712919849,1.3692918684426787 z" id="c22027"/>
		<path d="M 172.22238666931258,153.83583496340472 L 177.6177332830079,153.00189592528426 L 171.38361116549402,149.419087763033 L 171.31907337518152,142.9074750462282 L 175.24268273054662,148.057750995583 L 180.67053746921593,148.74372043231426 L 180.70580720609968,145.4430886621032 L 175.9144967888479,144.87743487956516 L 177.43727153570208,139.57648178242974 L 173.73761453140816,133.9704944172385 L 177.78592795070648,128.74078216654314 L 180.8199702176302,131.9333751977539 L 183.2911456152389,129.2912128970796 L 184.22253850033673,120.78055059831723 L 188.83815327451723,121.36201188981501 L 191.53785865449086,118.35228501194389 L 196.009076595039,119.29509739629837 L 207.54087076615653,119.17257690225861 L 208.96995718847782,121.06954743891066 L 208.90771751397656,121.08453277166227 L 207.73808857173069,129.21768417876032 L 202.3691030065983,131.40543501107135 L 202.86239408404114,134.42711479203382 L 204.42804287007814,138.24195831302774 L 200.3246557037127,139.33336308539836 L 198.1481717532919,142.6341386251507 L 198.67508941194706,148.1119498477467 L 196.9316425276853,152.59001987017606 L 196.62889024376292,157.371171209961 L 198.772602267841,161.67653694806216 L 194.39099970941004,164.4325583472899 L 189.87013912971335,163.85337764172874 L 188.0425801096406,166.924180358785 L 192.33132717651614,170.68478758893596 L 192.25633439948712,170.8406573217319 L 189.81503804042123,175.91148003739474 L 191.94237836377272,180.0996332201827 L 194.65504441580717,183.96700355539127 L 189.26211876774292,188.04413297657703 L 181.69620913279076,184.41588554386158 L 182.1047704999169,176.09636611637362 L 185.42275239046035,171.18661182864668 L 173.0268208747542,163.93049186946146 L 170.83606556248057,160.60803488229746 L 172.22238666931258,153.83583496340472 z" id="c22029"/>
		<path d="M 85.10656085663999,155.71396590271434 L 103.32521627977216,140.21633010731335 L 105.25517080887693,151.10790593062438 L 110.05966487182575,152.00363013628993 L 144.5499958448592,144.27906867762556 L 154.19526232740338,156.54722838402694 L 153.09994754099029,157.46410870102287 L 149.97115015495444,160.14410715569068 L 141.50862289855363,158.654103581812 L 141.28972923501632,176.15730243618503 L 143.22710449058917,191.73790694159214 L 137.48135681419012,191.44903092651123 L 129.3955962518957,188.02833234244196 L 121.63328199277777,192.48284115856913 L 119.31667467807411,197.64059209854966 L 112.25936254062208,197.55642992485053 L 110.27951969831057,197.25895218696687 L 94.2933399681582,197.9022365073035 L 94.27485705077409,164.5392775778403 L 90.3920069506395,158.4926852373765 L 82.39017393855082,155.68515609161213 L 85.10656085663999,155.71396590271434 z" id="c22079"/>
		<path d="M 201.54259994094707,284.6513558833326 L 218.91347288968018,283.2320973907434 L 224.7320676953589,294.75883358789775 L 231.97371758866225,298.90454008864884 L 231.40445625019547,308.25772644429867 L 222.14289256163786,303.50296980306547 L 208.38548087877567,300.51803826234914 L 209.41884254903783,295.84971395152 L 201.54259994094707,284.6513558833326 z M 161.19845793146496,242.9584713538514 L 185.07628814816655,244.22824938386594 L 178.9426438252623,234.72474394067584 L 183.34796876044152,234.76801755671534 L 188.18429221924157,239.8184803539119 L 189.6726611990054,252.0468736063072 L 194.31631111816452,258.31619612713666 L 201.30510559998987,259.4743523157615 L 202.20867486990053,271.1661435239463 L 209.8110284325223,275.1915032325516 L 191.26673636884428,277.52862465671234 L 186.59824438773063,270.6073377292694 L 180.9170497716991,269.2769329367651 L 173.7412525590421,276.4728309722247 L 163.20189559038292,273.7341196199935 L 166.8784543246701,266.2596902179937 L 160.9421963969171,263.65341662324715 L 163.93680008545795,258.6974910003221 L 160.3374829257823,246.52599722185442 L 161.19845793146496,242.9584713538514 z" id="c22099"/>
		<path d="M 298.3824101992275,214.66647980435374 L 319.19853470441285,218.73740224820034 L 332.5965333092072,218.24726109426484 L 332.9698161642251,220.52573175081622 L 335.48854856490414,229.00893889664405 L 341.89258078409785,235.7351222562615 L 342.9248685180924,237.881642594071 L 344.6861488014582,241.54145082635344 L 348.3652728297519,251.22437958999427 L 350.6123125135205,259.58357784308623 L 357.3120472883089,262.826190817596 L 350.9206056366303,266.41768756950995 L 349.308743589646,265.4587194198879 L 344.461772091778,263.5178322129648 L 335.51260131948175,264.98528080525017 L 327.0049294756009,261.60595931308166 L 316.0926585739175,265.74451429836324 L 310.6561368784606,264.899676280671 L 306.78256701234034,262.6688968314784 L 306.39018525421,258.55562937244866 L 299.64358436498935,246.90796369906175 L 299.466970502439,233.8354829274725 L 299.4763374305701,225.32622366344128 L 298.3824101992275,214.66647980435374 z" id="c22103"/>
		<path d="M 243.63215941231294,299.67294935154774 L 245.4221450501469,296.16231254244474 L 248.60352607961786,291.81227013589466 L 248.5619032388127,289.24899935752774 L 257.2397296666254,287.67594276684764 L 266.9579861374427,290.64138426667324 L 269.13453326596283,290.07742792194153 L 277.12411993698396,290.96682741821576 L 281.1362170965105,294.40082466460274 L 282.11848702958025,298.4348225684441 L 289.8644811913972,302.44500615938074 L 291.5108410160505,308.29725466019465 L 301.4747104326735,308.5272526798812 L 307.30285592524456,309.8037858747207 L 307.71605453475246,318.0529302584245 L 304.96743754035595,320.3389188611664 L 308.9664591220177,328.2309683472451 L 318.4311505224152,332.61056049343523 L 317.7611814488142,341.49132168509664 L 320.316538613712,344.56709979557627 L 313.1178952277815,356.9708874966592 L 310.4781696300718,358.8576877417336 L 302.3830443096714,364.39031340601247 L 293.39723339362496,366.43115807684126 L 287.3734077269888,366.97496716822025 L 287.2435374025719,350.2874177049464 L 289.176049442881,338.671540431335 L 270.0929729825131,317.42328066028176 L 264.57715120500296,313.10554611204304 L 262.9380719125847,311.2712485853577 L 254.8636852513058,301.1377135906471 L 249.06319930127142,306.60253480877276 L 238.89565490737994,306.8247243028666 L 243.63215941231294,299.67294935154774 z" id="c22057"/>
	</g>
</svg>