<?xml version="1.0" encoding="UTF-8"?>
<svg baseProfile="full" fill="#d0d0d0" height="400.0" stroke="#ffffff" stroke-width="1" version="1.1" width="267.3714147717538" xmlns="http://www.w3.org/2000/svg" xmlns:ev="http://www.w3.org/2001/xml-events" xmlns:xlink="http://www.w3.org/1999/xlink">
	<defs/>
	<g id="counties"><path d="M 35.82363883320492,308.98486485707593 L 42.17875666991504,300.614833328562 L 46.664346019724825,295.7047781720811 L 52.82086803392771,272.9421526710756 L 55.41857629211935,271.2311878337153 L 60.0369950920048,270.5068851468018 L 61.74202146325187,279.9859708753824 L 59.61630427253075,281.08370929559203 L 61.66963921251057,284.4835246684124 L 63.295917729487726,288.5782170239328 L 64.02805336858894,297.58166615319413 L 68.39340934587973,298.6844275619764 L 67.5319530474185,303.7923812018359 L 65.49388594623912,315.009409896336 L 64.25238836902349,315.93297295439703 L 65.38603155482508,317.3540707487666 L 62.22615281228372,321.7901582304396 L 59.87896825690298,323.5491460499427 L 52.520378320012654,317.24551636333854 L 46.96727915971114,311.30119876765707 L 43.66547229151946,315.9212406935888 L 36.102120101594465,311.57452650967195 L 35.82363883320492,308.98486485707593 z" id="c23001"/>
		<path d="M 0.0,194.1500602829012 L 2.965752601380187,193.65259058954015 L 4.700112867802803,190.7040180802505 L 8.74732754518718,192.03802069423438 L 11.051252474886892,195.33899957820358 L 12.140341352605239,200.58575072424688 L 15.251382116005482,201.10312018166164 L 16.02196510451652,197.71667955737067 L 18.863419653360047,220.967703354243 L 16.013932109105372,221.30625593278174 L 18.79075027085602,237.29435615375687 L 18.820279735867217,247.1275684942137 L 29.011717756131194,241.60588998085964 L 35.424510284058506,257.1632407651494 L 32.817264997686095,258.60550166277136 L 50.30370137142238,262.7732439210028 L 48.48224922374405,265.63425702446574 L 52.12337524186539,268.8641547332632 L 52.82086803392771,272.9421526710756 L 46.664346019724825,295.7047781720811 L 42.17875666991504,300.614833328562 L 35.82363883320492,308.98486485707593 L 36.102120101594465,311.57452650967195 L 31.82372004799654,313.88572729986316 L 28.48736101681049,311.388118272517 L 29.243802096194024,303.13937794124524 L 26.91217452143734,298.6491317741122 L 13.698983734265973,306.87528946929746 L 20.42120729110986,317.5975294324341 L 19.391013677778233,320.6305062551594 L 14.465257146917182,327.09932133345814 L 15.590684332199698,330.96382713515516 L 14.674683915145316,331.6309776663992 L 9.121959554596286,331.082117711808 L 3.9662826250828616,333.2839634057146 L 2.0218569394690076,332.5081657173058 L 1.9723622426700618,328.27703561965114 L 1.9189283403239565,305.0818470997735 L 1.8964831633856236,289.9137795526371 L 1.8685640773724834,287.52995553971584 L 1.8504652952775649,285.9789531919515 L 1.808442067125319,282.41263687319815 L 1.7024360402732546,273.3094948297996 L 1.6397229143264445,267.8494282817143 L 1.4153018988022437,246.22309736142873 L 0.7965731526487192,222.1039790604 L 0.0,194.1500602829012 z" id="c23017"/>
		<path d="M 140.54119693719218,296.8337307784956 L 146.6546715691386,274.16285406985855 L 147.1020257029025,264.12936189226093 L 144.02582953707446,259.86292940935095 L 145.99514056273358,255.0830099940108 L 146.00300269376046,253.5756733402578 L 150.67849093281262,255.70875916338906 L 154.14846458696573,250.13756693021668 L 156.99781902247994,251.79069796919515 L 158.98717810942503,248.38146308225166 L 164.72538964199654,247.36574733347928 L 170.14850152262656,246.37399977743874 L 169.51721352635676,242.85410815110887 L 168.0150728832904,234.85773605258484 L 166.5122901976088,226.48754482941573 L 174.62766592791655,224.95988920102005 L 173.25578946854742,217.11234430081817 L 181.43250571479027,215.55847567953253 L 179.2563674329222,204.47254568298948 L 195.2997548026245,201.57246008089226 L 200.19267678675132,228.64874438761504 L 192.21106867578692,230.22818316103087 L 198.09740561472395,262.16999074681456 L 201.76066174389013,277.2812858650115 L 203.00020606479444,278.7709613435656 L 200.71793243014704,280.6112739843415 L 198.41614923621006,280.33119520990203 L 196.1310758015211,285.78166443623155 L 192.54799445141538,282.72803055385936 L 191.10560733947833,280.65532472742314 L 186.94881599685024,281.88705772780895 L 187.98393154944876,286.0333789381807 L 186.7904539602653,288.02217669153333 L 184.33841489163646,291.66236829268223 L 187.97374077048732,295.3951481054359 L 179.28946423311916,294.6077262860368 L 178.75411823235197,298.0499874817645 L 177.70354406624486,306.2342746152612 L 170.6290020021846,305.45865549114205 L 166.38963908945874,306.96342926139437 L 164.51521150592973,307.8645227243869 L 163.3943977050148,304.22440476549275 L 152.04600069581178,305.5246900096087 L 145.00268556567607,296.93817566050524 L 140.54119693719218,296.8337307784956 z" id="c23009"/>
		<path d="M 137.9442026379551,304.08738522226577 L 141.03104102737504,301.4383827260913 L 138.00230801493376,297.4628066172104 L 140.54119693719218,296.8337307784956 L 145.00268556567607,296.93817566050524 L 152.04600069581178,305.5246900096087 L 163.3943977050148,304.22440476549275 L 164.51521150592973,307.8645227243869 L 161.0450060699047,309.53025082663294 L 158.86494083267965,315.1441836985371 L 156.2305743619455,315.71286137644665 L 155.42984958248908,309.08592277457365 L 148.16327996930386,310.76549179307654 L 141.92603697643878,313.6997111957128 L 139.90905723130967,308.9418255581591 L 137.9442026379551,304.08738522226577 z M 138.5736763776986,326.46662368968526 L 141.83348912506918,324.7188181761052 L 143.51444558763936,329.7382404716718 L 140.8855339608075,333.933502902981 L 137.19997010252115,331.03371817193266 L 138.5736763776986,326.46662368968526 z M 105.2819289896649,285.40955646602447 L 107.95687551006289,284.4282875918929 L 111.05399143800942,287.62172902932303 L 116.20079684910732,282.5278452868895 L 125.77483912632381,292.5669235317129 L 132.3610062738405,294.91546713793235 L 131.10731972181281,294.6116197164027 L 130.12642120306722,300.2804571614427 L 128.71132485487593,304.0661979377247 L 131.56204655570664,308.73979575432145 L 129.15150258841985,312.3105602092185 L 130.72584886612046,315.3749399410955 L 128.52179110056377,318.34520536391204 L 124.92807163184166,318.0964684755206 L 122.06320508029117,317.99523163789416 L 119.51570026313262,323.04750276568325 L 117.54138343283327,323.2663193696901 L 115.0577374226693,326.8276915667346 L 112.32083994598618,328.8903345041614 L 110.16142402218073,323.29114366276184 L 108.47577916638204,320.9098050074419 L 109.63049706012383,314.597733151547 L 115.05227008467263,311.0243649409021 L 111.54838280331208,296.66761942123406 L 105.31406001220846,295.0136501819583 L 104.19694395895682,287.03380009992713 L 105.2819289896649,285.40955646602447 z" id="c23013"/>
		<path d="M 111.19448171228196,217.72150144635245 L 119.21210130073793,216.27466387597278 L 135.9615551668326,213.01458874823825 L 143.52871182586856,211.63126428793555 L 141.99070709920767,204.11784469290743 L 148.76545310711782,202.74123180418354 L 145.6458595948221,186.26323799628832 L 145.2821490355744,184.26292874767285 L 143.63861615848185,176.5017917382308 L 136.73660464917347,177.8309066139941 L 137.1838218489136,164.1442549647062 L 145.64040419102025,162.11802494966494 L 146.39019663375043,97.15957256122032 L 153.5407586903085,97.20964323415669 L 170.60247412847298,98.44700545372669 L 170.598090975433,129.4436990611634 L 171.1982500253774,138.42475803986017 L 170.88167406328913,171.62632045249595 L 172.30141078641236,172.34369357310456 L 181.96563995706933,169.47826028213316 L 195.5507941905832,166.184016662389 L 202.7254439320798,200.1312794251647 L 195.2997548026245,201.57246008089226 L 179.2563674329222,204.47254568298948 L 181.43250571479027,215.55847567953253 L 173.25578946854742,217.11234430081817 L 174.62766592791655,224.95988920102005 L 166.5122901976088,226.48754482941573 L 168.0150728832904,234.85773605258484 L 169.51721352635676,242.85410815110887 L 170.14850152262656,246.37399977743874 L 164.72538964199654,247.36574733347928 L 158.98717810942503,248.38146308225166 L 156.99781902247994,251.79069796919515 L 154.14846458696573,250.13756693021668 L 150.67849093281262,255.70875916338906 L 146.00300269376046,253.5756733402578 L 144.59341673203514,251.89182251997877 L 133.06803818313526,254.60235956227396 L 121.99389862762646,257.0579630529279 L 120.66152302701913,249.22994996642194 L 116.6445918376901,249.89324869986396 L 115.70927698000074,243.74643977606047 L 115.77697730500502,241.96156728691457 L 114.27936897732252,233.96835640770044 L 112.71337157811695,225.64654068997748 L 111.19448171228196,217.72150144635245 z" id="c23019"/>
		<path d="M 35.08760218379899,162.0277479175527 L 41.95099664735339,158.8890685803367 L 46.072725791091095,156.1698283183355 L 44.12921346355462,151.43499117483165 L 45.396235657044436,149.42405383582417 L 49.76393028251848,145.38401712622004 L 54.34773365692932,142.10847979113336 L 54.85343016729748,138.24184685858003 L 54.091776612383335,135.52691267433474 L 51.05955879591567,135.53524309511295 L 51.769455762495966,132.15802503109424 L 50.88202196669571,130.30002246086246 L 51.66321851355736,126.45419248030613 L 54.312412148765475,122.88917112453379 L 56.098294245666935,119.11026586083005 L 52.92698420628819,115.10192939520398 L 55.296345128100114,109.61445165948321 L 56.81819422013677,106.17556580813985 L 58.55663700199512,104.80209826069236 L 58.51117571340991,101.92600643952912 L 61.4845676222224,99.27716731041568 L 64.23178309855065,97.20883035405457 L 66.70196534490405,94.85482529595821 L 68.41322582772275,93.1788968586513 L 70.60891687676249,80.03558642325672 L 89.63470520014083,80.31476776232823 L 88.67160195812511,96.75568794905988 L 88.31843419625363,134.87303505305084 L 91.19507617706373,134.29970344229102 L 93.39450815552763,145.26581984683435 L 89.60325860918952,146.1250194776983 L 87.7518147564341,155.05247255066794 L 84.45149128230067,152.32886465661235 L 81.31464863016102,156.52514162133747 L 89.55194922335829,166.77683717294212 L 84.4123256265253,174.48476212836792 L 93.94208239459991,223.2225929178039 L 100.78306597654058,222.0256955914101 L 101.83833137072273,219.4133519568987 L 111.19448171228196,217.72150144635245 L 112.71337157811695,225.64654068997748 L 114.27936897732252,233.96835640770044 L 115.77697730500502,241.96156728691457 L 115.70927698000074,243.74643977606047 L 116.6445918376901,249.89324869986396 L 108.97755092437623,246.8961636825145 L 103.26658029405439,252.402537909853 L 103.3807395545991,250.09590509878277 L 92.76638723454697,251.73111817126284 L 93.02508714798577,254.18278651337508 L 95.6604336613293,257.6807148239109 L 94.38967451940334,262.8542229117565 L 90.49864509927964,261.96518687244514 L 85.38000535539642,260.4089895741141 L 82.17622630958859,262.6687369043611 L 80.27108246860043,259.8578700260005 L 73.24357223340832,259.4566559566427 L 71.42086482954906,252.9937526014076 L 69.06563360642515,253.2917716032792 L 66.97102119487027,236.1603664320296 L 60.66602439242096,237.29642199311715 L 59.50540542509575,233.12966661182097 L 62.11243395386098,228.50207207848425 L 59.27205539832435,211.895036345708 L 50.53967108473101,213.39872955109797 L 49.69991714345975,208.51015116684636 L 42.547172887724386,210.09811281530722 L 36.91353644010037,176.30920598397552 L 35.08555164360479,162.0304338791707 L 35.08760218379899,162.0277479175527 z" id="c23025"/>
		<path d="M 104.73231020886274,273.3466515316841 L 107.96437688666293,274.00069863624424 L 109.59160568871287,266.02394637342627 L 107.20156879921674,262.8673045468275 L 108.33486016600983,257.25915074407044 L 103.26658029405439,252.402537909853 L 108.97755092437623,246.8961636825145 L 116.6445918376901,249.89324869986396 L 120.66152302701913,249.22994996642194 L 121.99389862762646,257.0579630529279 L 133.06803818313526,254.60235956227396 L 144.59341673203514,251.89182251997877 L 146.00300269376046,253.5756733402578 L 145.99514056273358,255.0830099940108 L 144.02582953707446,259.86292940935095 L 147.1020257029025,264.12936189226093 L 146.6546715691386,274.16285406985855 L 140.54119693719218,296.8337307784956 L 138.00230801493376,297.4628066172104 L 136.89891114908798,296.01256482352215 L 132.3610062738405,294.91546713793235 L 125.77483912632381,292.5669235317129 L 116.20079684910732,282.5278452868895 L 111.05399143800942,287.62172902932303 L 107.95687551006289,284.4282875918929 L 105.2819289896649,285.40955646602447 L 100.61367849674433,284.34899256348365 L 104.73231020886274,273.3466515316841 z" id="c23027"/>
		<path d="M 83.82122390917627,302.71239219392015 L 89.84703123105791,304.20182647800164 L 90.46448185428216,304.0773422997298 L 90.03753584174112,294.7421425016816 L 91.10707739710307,290.0020005674635 L 97.82951487388092,291.79466010160206 L 99.10475847062787,290.4898524974593 L 100.61367849674433,284.34899256348365 L 105.2819289896649,285.40955646602447 L 104.19694395895682,287.03380009992713 L 105.31406001220846,295.0136501819583 L 111.54838280331208,296.66761942123406 L 115.05227008467263,311.0243649409021 L 109.63049706012383,314.597733151547 L 108.47577916638204,320.9098050074419 L 107.64379149569126,319.7334605073212 L 105.71214761848651,322.7607925508192 L 104.64066647834804,323.9826635270541 L 100.25409170788045,330.4960340873343 L 96.99798313236194,330.1199472005732 L 95.26292647355125,331.7447463302528 L 90.45766329151259,333.4642157755274 L 87.47090127601483,334.1280436758144 L 84.4662474399062,325.1426240343083 L 87.46334402644749,314.894703634844 L 84.42907539245907,314.19035156740154 L 80.01587953726848,313.0064051040504 L 83.82122390917627,302.71239219392015 z" id="c23015"/>
		<path d="M 192.21106867578692,230.22818316103087 L 200.19267678675132,228.64874438761504 L 195.2997548026245,201.57246008089226 L 202.7254439320798,200.1312794251647 L 195.5507941905832,166.184016662389 L 204.8642298049861,162.44834552768071 L 211.22912430736122,162.50535538765993 L 211.2031366935198,162.60078021579912 L 217.14837536498248,162.40983191110448 L 219.4384516853893,166.81042540405667 L 222.24615252696447,167.653396548176 L 228.48333351091054,169.95610822214135 L 233.57227229526742,169.04828131396332 L 235.6488768548615,171.99173657902548 L 236.13502729284752,178.39706231217167 L 232.32189602541007,178.8806305294113 L 231.89403857414115,183.02401955619413 L 235.66012481517552,190.1266513439164 L 233.6016013711586,196.85242220533738 L 232.36851752025865,199.8098389558027 L 234.128399870055,202.25966427542227 L 238.29693859238765,210.1546699270686 L 241.61226251059128,212.71410901510615 L 244.27790031141794,210.74914781077453 L 245.97029915774124,206.6657158567598 L 250.3364972747464,208.39525110123776 L 253.1078211822273,209.12934900779968 L 256.3432265089715,213.69468541821462 L 257.8116933004054,217.6537608394847 L 258.4382761792673,221.21706261258984 L 261.7349226325666,229.3540392625679 L 265.0361732191398,232.6421870940313 L 264.51749493407334,237.59534026246612 L 267.3714147717538,240.44417735070937 L 262.4947970375642,245.03270802844156 L 259.4594684569449,247.48478604837908 L 256.6956764676728,250.80843926312556 L 253.3013077689769,254.88553659355216 L 249.1369225716748,257.2273664731823 L 245.33170920082776,260.7512151155339 L 240.41337774469852,258.50035605250787 L 238.43661765626362,260.5411868510027 L 235.20720840064018,260.7947452915127 L 232.43520499783978,264.86782446253966 L 230.5644673589957,269.11260289354163 L 231.77516991905003,272.1121000542845 L 226.8198594617372,276.5358820012485 L 223.15862676044017,271.28421023391144 L 221.92417420022676,267.7553531119692 L 218.44552743986205,269.9689077593932 L 212.76964165541398,270.67835635792414 L 209.89229402944963,273.4529518513486 L 208.80167787353548,277.5940092188298 L 205.90785287589304,279.93228027538913 L 203.47643430419944,278.38667043554386 L 203.00020606479444,278.7709613435656 L 201.76066174389013,277.2812858650115 L 198.09740561472395,262.16999074681456 L 192.21106867578692,230.22818316103087 z" id="c23029"/>
		<path d="M 61.74202146325187,279.9859708753824 L 60.0369950920048,270.5068851468018 L 65.72517772938166,270.79835502646955 L 66.2093224501535,268.71964842915173 L 63.84899164216442,266.7337566856678 L 65.95104869042831,262.9423424219119 L 66.04834709010711,261.3724396104206 L 71.68105302682774,262.733575080149 L 72.13313453538727,262.0418471719381 L 73.24357223340832,259.4566559566427 L 80.27108246860043,259.8578700260005 L 82.17622630958859,262.6687369043611 L 85.38000535539642,260.4089895741141 L 90.49864509927964,261.96518687244514 L 94.38967451940334,262.8542229117565 L 95.6604336613293,257.6807148239109 L 93.02508714798577,254.18278651337508 L 92.76638723454697,251.73111817126284 L 103.3807395545991,250.09590509878277 L 103.26658029405439,252.402537909853 L 108.33486016600983,257.25915074407044 L 107.20156879921674,262.8673045468275 L 109.59160568871287,266.02394637342627 L 107.96437688666293,274.00069863624424 L 104.73231020886274,273.3466515316841 L 100.61367849674433,284.34899256348365 L 99.10475847062787,290.4898524974593 L 97.82951487388092,291.79466010160206 L 91.10707739710307,290.0020005674635 L 90.03753584174112,294.7421425016816 L 90.46448185428216,304.0773422997298 L 89.84703123105791,304.20182647800164 L 83.82122390917627,302.71239219392015 L 83.48826603094314,301.43890487864775 L 77.49848238869092,300.0055024420404 L 74.59109759624636,305.45711490364243 L 67.5319530474185,303.7923812018359 L 68.39340934587973,298.6844275619764 L 64.02805336858894,297.58166615319413 L 63.295917729487726,288.5782170239328 L 61.66963921251057,284.4835246684124 L 59.61630427253075,281.08370929559203 L 61.74202146325187,279.9859708753824 z" id="c23011"/>
		<path d="M 64.25238836902349,315.93297295439703 L 65.49388594623912,315.009409896336 L 67.5319530474185,303.7923812018359 L 74.59109759624636,305.45711490364243 L 77.49848238869092,300.0055024420404 L 83.48826603094314,301.43890487864775 L 83.82122390917627,302.71239219392015 L 80.01587953726848,313.0064051040504 L 84.42907539245907,314.19035156740154 L 87.46334402644749,314.894703634844 L 84.4662474399062,325.1426240343083 L 87.47090127601483,334.1280436758144 L 86.05957173305303,334.44109869967826 L 83.54331414790765,338.83767246098046 L 79.99338529111175,340.2248663687356 L 78.22452729431322,342.6450723766014 L 76.79776047420178,342.30538335596583 L 76.41044084951578,337.34590076174806 L 74.75051193710581,336.62114120001957 L 74.53705107335576,326.3919069231305 L 77.02806183643479,320.3829722347283 L 69.11385486475939,322.9393386215816 L 65.38603155482508,317.3540707487666 L 64.25238836902349,315.93297295439703 z" id="c23023"/>
		<path d="M 72.45450263856168,68.9421561638974 L 83.95525941379368,52.71259626406353 L 100.06850221515552,30.106264305446764 L 108.1388898365199,18.78442500603267 L 121.95430073382467,0.0 L 125.91177173745905,0.5947464575351975 L 128.86778418373726,2.0083962014567938 L 133.13248557189223,3.2884285596037324 L 132.1990917749957,7.330010139338714 L 132.96453130345319,19.47064680680463 L 137.53764257831196,22.46017952763265 L 141.5971594911189,25.60768293638395 L 147.68264793964303,22.20669691750169 L 155.63501247631817,19.800775403005215 L 160.0605134268646,19.1880140665906 L 161.06538336489137,16.237077605535383 L 166.12121187765047,14.877103430728923 L 169.06674530453782,15.842580100065558 L 174.31738441787965,15.270151129254486 L 173.7738393848936,12.102000305668353 L 175.18108545209444,9.480236723848364 L 180.8858191036741,9.63782034554614 L 184.9553665724776,10.903850137091803 L 188.1187963500552,13.23887489401186 L 192.52820268030172,17.06646998150506 L 197.8300858305906,21.977684594498403 L 200.70211791472818,23.941611948264008 L 204.68882978966488,30.983146937017192 L 210.93317611180095,35.77683299674024 L 211.1549629074971,60.5306954829099 L 211.40186101263757,78.17305747660178 L 212.06566031337812,107.63057862299047 L 212.3712632260241,129.64382964215864 L 212.48297457017114,138.80692488322003 L 214.38489891303817,140.6411402373497 L 211.02738370937573,145.1050100965121 L 213.59595730741162,148.68176838237272 L 211.10059917439398,153.12288750201282 L 212.53136945446082,157.71863176186125 L 211.22912430736122,162.50535538765993 L 204.8642298049861,162.44834552768071 L 195.5507941905832,166.184016662389 L 181.96563995706933,169.47826028213316 L 172.30141078641236,172.34369357310456 L 170.88167406328913,171.62632045249595 L 171.1982500253774,138.42475803986017 L 170.598090975433,129.4436990611634 L 170.60247412847298,98.44700545372669 L 153.5407586903085,97.20964323415669 L 146.39019663375043,97.15957256122032 L 146.32862747648346,81.0100708439124 L 89.63470520014083,80.31476776232823 L 70.60891687676249,80.03558642325672 L 72.45450263856168,68.9421561638974 z" id="c23003"/>
		<path d="M 2.0218569394690076,332.5081657173058 L 3.9662826250828616,333.2839634057146 L 9.121959554596286,331.082117711808 L 14.674683915145316,331.6309776663992 L 15.590684332199698,330.96382713515516 L 24.08974402776921,333.6055626701403 L 23.50383604482641,340.61301162285577 L 30.78004487949594,340.3505231401625 L 36.73123951128242,347.2044451127232 L 34.38038795760642,350.40213998686363 L 44.39372607887283,357.82101761729047 L 42.902275899394006,357.6890859711829 L 41.1934816822367,361.5030471649755 L 45.014036658588665,364.1934164059878 L 41.14906438366548,368.27236767423864 L 40.17781937491519,370.28731295411677 L 38.88760572803594,372.9616289860934 L 35.53331893269521,374.785479309422 L 34.89622099869248,374.7062643459693 L 32.094002833899886,374.356951076959 L 30.974790781635303,375.25091248013825 L 29.633979975167613,376.3212106610807 L 27.426804431608005,380.99785502909333 L 27.87834919222598,384.855890447798 L 27.944499599014964,385.4204834614459 L 26.448505986757993,390.71946368519457 L 24.62168371370109,393.3138691103353 L 21.577922967905252,398.5674531511772 L 19.003826415512776,400.0 L 15.532278658540124,398.06493764367787 L 11.413797985090337,394.0002493201817 L 10.856626498050737,393.4496484668313 L 11.205623296692076,388.83461129681666 L 11.207444800156836,388.82752308340946 L 12.081283900150957,385.4252631076366 L 8.246325294771967,380.48259169609446 L 4.963177103297107,375.39602079089985 L 1.0764185847933914,370.5867790740658 L 2.284582038276433,365.76358296834377 L 2.9094314809188333,361.68622023886394 L 3.407017742772852,358.4362304883428 L 2.8885584752578057,355.64016077925675 L 2.377298415709536,352.8793936145571 L 2.290558689566217,348.8446561647024 L 2.1214251718366364,340.92302213852304 L 2.0218569394690076,332.5081657173058 z" id="c23031"/>
		<path d="M 84.45149128230067,152.32886465661235 L 87.7518147564341,155.05247255066794 L 89.60325860918952,146.1250194776983 L 93.39450815552763,145.26581984683435 L 91.19507617706373,134.29970344229102 L 88.31843419625363,134.87303505305084 L 88.67160195812511,96.75568794905988 L 89.63470520014083,80.31476776232823 L 146.32862747648346,81.0100708439124 L 146.39019663375043,97.15957256122032 L 145.64040419102025,162.11802494966494 L 137.1838218489136,164.1442549647062 L 136.73660464917347,177.8309066139941 L 143.63861615848185,176.5017917382308 L 145.2821490355744,184.26292874767285 L 145.6458595948221,186.26323799628832 L 148.76545310711782,202.74123180418354 L 141.99070709920767,204.11784469290743 L 143.52871182586856,211.63126428793555 L 135.9615551668326,213.01458874823825 L 119.21210130073793,216.27466387597278 L 111.19448171228196,217.72150144635245 L 101.83833137072273,219.4133519568987 L 100.78306597654058,222.0256955914101 L 93.94208239459991,223.2225929178039 L 84.4123256265253,174.48476212836792 L 89.55194922335829,166.77683717294212 L 81.31464863016102,156.52514162133747 L 84.45149128230067,152.32886465661235 z" id="c23021"/>
		<path d="M 13.698983734265973,306.87528946929746 L 26.91217452143734,298.6491317741122 L 29.243802096194024,303.13937794124524 L 28.48736101681049,311.388118272517 L 31.82372004799654,313.88572729986316 L 36.102120101594465,311.57452650967195 L 43.66547229151946,315.9212406935888 L 46.96727915971114,311.30119876765707 L 52.520378320012654,317.24551636333854 L 59.87896825690298,323.5491460499427 L 62.22615281228372,321.7901582304396 L 65.38603155482508,317.3540707487666 L 69.11385486475939,322.9393386215816 L 77.02806183643479,320.3829722347283 L 74.53705107335576,326.3919069231305 L 74.75051193710581,336.62114120001957 L 72.89809927566372,335.81151545980396 L 68.34140851548024,338.5381654939817 L 67.12054267032629,341.62321026541844 L 63.050856909502755,341.2764603237536 L 62.48663582497178,341.22814541238216 L 61.30036408456501,343.83375118943167 L 60.775007995685556,344.9868559069148 L 55.994545648120834,344.6314760314909 L 54.44949203869711,347.30059911866977 L 52.607346456831635,351.72769692546586 L 53.26181443588167,355.31290446015163 L 50.611899388490556,356.9018620054532 L 45.563051959207655,357.92416872236583 L 44.39372607887283,357.82101761729047 L 34.38038795760642,350.40213998686363 L 36.73123951128242,347.2044451127232 L 30.78004487949594,340.3505231401625 L 23.50383604482641,340.61301162285577 L 24.08974402776921,333.6055626701403 L 15.590684332199698,330.96382713515516 L 14.465257146917182,327.09932133345814 L 19.391013677778233,320.6305062551594 L 20.42120729110986,317.5975294324341 L 13.698983734265973,306.87528946929746 z" id="c23005"/>
		<path d="M 16.3348024525346,196.34081443767863 L 17.765074060988844,194.12677553997426 L 17.14364171682004,191.38153904147816 L 18.087779814530407,188.19722646600948 L 16.903434950414937,185.9918236141793 L 19.82437979590415,183.25438640733782 L 21.483507202859855,183.55703623250824 L 23.05653078228971,186.25258377218952 L 26.38952215715987,186.8007782201821 L 29.152770041255305,187.85803046265332 L 29.206130097331062,183.81768522212067 L 26.73198341997083,181.50391574164044 L 23.760472090554153,176.1201248858769 L 26.153928400532436,171.2864431124432 L 28.717068305583624,168.2320197516114 L 32.533637907248874,165.3704242572825 L 35.08555164360479,162.0304338791707 L 36.91353644010037,176.30920598397552 L 42.547172887724386,210.09811281530722 L 49.69991714345975,208.51015116684636 L 50.53967108473101,213.39872955109797 L 59.27205539832435,211.895036345708 L 62.11243395386098,228.50207207848425 L 59.50540542509575,233.12966661182097 L 60.66602439242096,237.29642199311715 L 66.97102119487027,236.1603664320296 L 69.06563360642515,253.2917716032792 L 71.42086482954906,252.9937526014076 L 73.24357223340832,259.4566559566427 L 72.13313453538727,262.0418471719381 L 71.68105302682774,262.733575080149 L 66.04834709010711,261.3724396104206 L 65.95104869042831,262.9423424219119 L 63.84899164216442,266.7337566856678 L 66.2093224501535,268.71964842915173 L 65.72517772938166,270.79835502646955 L 60.0369950920048,270.5068851468018 L 55.41857629211935,271.2311878337153 L 52.82086803392771,272.9421526710756 L 52.12337524186539,268.8641547332632 L 48.48224922374405,265.63425702446574 L 50.30370137142238,262.7732439210028 L 32.817264997686095,258.60550166277136 L 35.424510284058506,257.1632407651494 L 29.011717756131194,241.60588998085964 L 18.820279735867217,247.1275684942137 L 18.79075027085602,237.29435615375687 L 16.013932109105372,221.30625593278174 L 18.863419653360047,220.967703354243 L 16.02196510451652,197.71667955737067 L 16.3348024525346,196.34081443767863 z" id="c23007"/>
	</g>
</svg>