<?xml version="1.0" encoding="UTF-8"?>
<svg baseProfile="full" fill="#d0d0d0" height="210.4375937439956" stroke="#ffffff" stroke-width="1" version="1.1" width="400.0" xmlns="http://www.w3.org/2000/svg" xmlns:ev="http://www.w3.org/2001/xml-events" xmlns:xlink="http://www.w3.org/1999/xlink">
	<defs/>
	<g id="counties"><path d="M 345.1271921122914,195.74236682966657 L 356.06850693925736,190.0822545973616 L 355.44641361172916,179.7984346780278 L 349.1860085194742,168.37681274928224 L 371.71145676196994,166.65077338374445 L 376.56109772278796,159.76712962996027 L 373.49390637864036,147.92672496110126 L 387.62455385567443,147.82216717314623 L 400.0,147.53794189725372 L 396.99099850649907,162.2482592945506 L 395.4387019681034,163.7505903423191 L 391.99330183885183,174.32245055486064 L 389.09428794905153,184.81390105859748 L 387.6782348936752,188.76343263965774 L 383.415037902798,196.7818956331015 L 348.6280426382619,201.1845052081566 L 345.1271921122914,195.74236682966657 z" id="c24047"/>
		<path d="M 291.3915739503811,2.639925776742372 L 300.0827812392404,2.5482910915374504 L 330.9966076177755,2.147050818985066 L 333.4652433080749,41.85596016998059 L 314.27266213693133,43.33963064030049 L 307.0874123687716,41.00522315507021 L 308.91734335672396,40.237810467349014 L 311.94151731405975,37.865316282880315 L 311.4074569921206,33.420491560620455 L 309.1430235934118,33.499188611349624 L 308.7055911709278,28.707385611000344 L 303.9307182525431,20.269169254467986 L 293.2617180961233,6.688952970910465 L 291.3915739503811,2.639925776742372 z" id="c24015"/>
		<path d="M 203.76922996516026,3.068561237488431 L 223.1608000348854,3.1087915118491285 L 223.89618635920144,3.1094070296102276 L 242.06359352441794,2.973587724332266 L 240.54213087791294,8.18654913390595 L 232.65739627536217,33.39819375412765 L 233.17834838240285,35.34665706348533 L 234.43666791518777,44.95789602107403 L 233.6412351534073,45.762214030364795 L 213.99826585088095,43.55992309474882 L 208.05098505167666,45.3201435356068 L 213.47526225203796,29.11307469055771 L 205.4253557412677,19.77203944719176 L 195.6785279098768,14.708155681410808 L 203.76922996516026,3.068561237488431 z" id="c24013"/>
		<path d="M 251.4218943598995,115.10837551066545 L 255.35037462964408,112.69475342261056 L 257.79745482869015,118.2748068752902 L 265.8247811110024,119.16581568171667 L 265.6884849062992,124.80081433989768 L 267.31341314653497,130.34382619109897 L 266.79666950237504,139.17892382062925 L 269.07934547702644,145.65852149167316 L 272.8924430251167,150.29810805392725 L 278.1527397276478,156.3699226066045 L 278.7532138468182,159.61882328333553 L 277.58685453036003,164.3998562144598 L 272.75910923902063,166.13848313599755 L 268.3534274688711,158.38720500059105 L 258.6241823150377,152.4445454549224 L 252.62959639384152,143.7995007877938 L 252.4934026088234,139.619557741287 L 250.02719989468702,119.45003543616312 L 251.4218943598995,115.10837551066545 z" id="c24009"/>
		<path d="M 320.4533927676582,166.61352973890362 L 326.2295908370544,160.3731191240264 L 329.7139240801966,145.31005287964513 L 340.6334875937887,135.96591866219137 L 340.7894075780893,138.04223103349574 L 341.528875246032,147.55886613315158 L 360.9807603832807,147.99917277751854 L 373.49390637864036,147.92672496110126 L 376.56109772278796,159.76712962996027 L 371.71145676196994,166.65077338374445 L 349.1860085194742,168.37681274928224 L 344.61540957969385,166.11335276554874 L 335.00632892907373,167.82404340207344 L 325.3957427435184,175.49832968533292 L 324.17678878268003,173.00930693671359 L 320.96447482383184,172.48710039213 L 320.4533927676582,166.61352973890362 z" id="c24045"/>
		<path d="M 312.1230418285181,117.21469572042594 L 322.62616190835774,106.87194299608686 L 317.747660672654,95.0255620066211 L 318.42696840862527,88.33337468546942 L 327.77174302643965,72.98013878486847 L 335.514161499018,68.87630868052008 L 338.2690043092087,104.9707448852495 L 339.98864809770237,127.36999669161402 L 327.9913462920174,119.60423628152228 L 318.44119360649177,123.18143480304711 L 312.1230418285181,117.21469572042594 z" id="c24011"/>
		<path d="M 287.8863703616508,69.0875265952251 L 290.9969927828336,61.266602614142805 L 293.8036488997935,54.732617956172746 L 296.78090526975353,51.37460511295335 L 298.3570071055389,47.06903480516718 L 302.7173841794567,42.83562641477993 L 307.0874123687716,41.00522315507021 L 314.27266213693133,43.33963064030049 L 333.4652433080749,41.85596016998059 L 333.46634078747974,41.87354524600703 L 334.17030237908773,51.172789457800924 L 334.6079618361163,56.94535120819436 L 324.7355022864192,55.43946161052414 L 311.85511519730267,58.050667057620274 L 308.5992985572601,66.94840166430146 L 298.8579867065201,74.8498724996743 L 294.1034513095809,86.70157633217016 L 289.2065648931913,82.5942614947963 L 292.20886022994864,83.72655036861968 L 291.986097731585,75.32527401657657 L 290.7888662599359,72.08278688373156 L 287.8863703616508,69.0875265952251 z" id="c24029"/>
		<path d="M 232.65739627536217,33.39819375412765 L 240.54213087791294,8.18654913390595 L 242.06359352441794,2.973587724332266 L 248.41657224880305,2.91651281416104 L 261.44946946023566,2.8579262335352147 L 261.72561668877574,9.635263893189643 L 264.87446311634136,23.311810859952505 L 274.8588523592473,30.816274430764043 L 277.9299208313213,32.9539999204322 L 279.1406566324428,37.361532953557266 L 285.22346604333075,50.15510985450364 L 283.56738849472464,54.45794303346325 L 281.38431890715094,57.251206925491026 L 277.31624843213274,59.25353728857697 L 274.6649359388135,62.268414582775804 L 271.2372852003026,62.26621205578105 L 268.1066369514803,62.41086934209776 L 267.60544551586776,63.05039607137196 L 265.3080085400647,60.857366947062324 L 265.2584830049549,51.78752478580298 L 265.18919923717306,43.13806073758227 L 256.5603212832005,43.18267894413993 L 250.63007078891047,43.20296501876591 L 248.95536073452402,44.27349072072426 L 248.95887869860252,45.24396289838663 L 248.9986196516529,54.06560421242973 L 251.36987526348722,55.37603340273804 L 253.59679413428782,56.63072645707045 L 255.0027367636108,57.38477810212749 L 250.27508582250985,61.41878489599158 L 248.46126972219523,60.111419808227254 L 241.5860440503267,55.47260060970768 L 241.5882860890133,49.960980554504815 L 233.6412351534073,45.762214030364795 L 234.43666791518777,44.95789602107403 L 233.17834838240285,35.34665706348533 L 232.65739627536217,33.39819375412765 z" id="c24005"/>
		<path d="M 237.44385071147605,74.24614663294817 L 238.67306207027158,73.45904212382442 L 238.85625920190853,72.62043508718287 L 239.86978782506478,72.01334289337524 L 241.29882351414517,71.99714949068525 L 242.23468120456442,71.2795744532364 L 242.72003243566022,69.35073416299144 L 244.19551435582525,67.11688043434106 L 245.84909178743425,65.41088986473578 L 247.99650537486826,65.02812074553724 L 248.8236584267777,63.77063136061342 L 248.92674831521035,62.82535592980496 L 250.27508582250985,61.41878489599158 L 255.0027367636108,57.38477810212749 L 260.75714241248335,62.24049015403197 L 265.3080085400647,60.857366947062324 L 267.60544551586776,63.05039607137196 L 265.6642694951609,65.52611715971156 L 274.4132918919069,70.80379061989859 L 275.0626256609334,76.59656022080298 L 275.22321321119875,81.13592698351111 L 277.6131034713354,84.66751675895284 L 272.69370339170814,87.98526765555218 L 270.7042122614171,91.02977023916982 L 272.6057453518481,92.79430612051519 L 270.90814579605023,96.66745616472187 L 270.4973116290701,97.23714524942855 L 269.0037350470217,99.30738909285117 L 266.657188958252,103.2013036637743 L 269.10572125045786,104.62272897729812 L 265.7906660385918,110.60220060310176 L 262.94104821051076,114.15243195330406 L 265.8573275709681,117.81883276415762 L 265.8247811110024,119.16581568171667 L 257.79745482869015,118.2748068752902 L 255.35037462964408,112.69475342261056 L 251.4218943598995,115.10837551066545 L 249.20476117530774,107.364508860547 L 252.82296624557634,96.83272346653068 L 245.47150958780583,82.11919161818311 L 241.91756913103538,80.8586903119006 L 238.25421043867115,78.17797913663902 L 237.44385071147605,74.24614663294817 z" id="c24003"/>
		<path d="M 0.6584345268760892,43.420702303117636 L 1.4256027700924905,21.821949384117683 L 2.5273943406090864,0.0 L 10.025950348784924,0.15833038483558293 L 40.9177901761844,0.7376344384953777 L 51.350807951635566,0.956612883278403 L 38.386977502752885,28.634514000412047 L 38.316941586895815,29.534396343690158 L 36.18177657652529,29.532093342917058 L 29.268935677783567,37.621394860169396 L 20.477834393285338,46.01915193500428 L 18.51991684336792,47.885832815733664 L 12.154182892551287,51.36966557241413 L 5.670033952713449,56.95285529001051 L 0.0,59.36253188950479 L 0.6584345268760892,43.420702303117636 z" id="c24023"/>
		<path d="M 207.98633324547686,45.37249813093833 L 208.05098505167666,45.3201435356068 L 213.99826585088095,43.55992309474882 L 233.6412351534073,45.762214030364795 L 241.5882860890133,49.960980554504815 L 241.5860440503267,55.47260060970768 L 248.46126972219523,60.111419808227254 L 250.27508582250985,61.41878489599158 L 248.92674831521035,62.82535592980496 L 248.8236584267777,63.77063136061342 L 247.99650537486826,65.02812074553724 L 245.84909178743425,65.41088986473578 L 244.19551435582525,67.11688043434106 L 242.72003243566022,69.35073416299144 L 242.23468120456442,71.2795744532364 L 241.29882351414517,71.99714949068525 L 239.86978782506478,72.01334289337524 L 238.85625920190853,72.62043508718287 L 238.67306207027158,73.45904212382442 L 237.44385071147605,74.24614663294817 L 233.11418878193467,71.04381214100165 L 226.82576945372787,70.69666373668039 L 225.46425400495372,67.44675295008767 L 216.81371845656182,56.84715737537265 L 211.04751643690895,54.2193818679584 L 206.35915308755864,47.011237886122856 L 207.98633324547686,45.37249813093833 z" id="c24027"/>
		<path d="M 176.3055715576111,67.44635377363454 L 179.48542632008818,64.62603360702974 L 181.84591717506783,60.8306288083777 L 181.82962820986694,60.811986064325026 L 197.49848484743055,51.5884291911114 L 199.58001203011418,50.33728251200392 L 207.98633324547686,45.37249813093833 L 206.35915308755864,47.011237886122856 L 211.04751643690895,54.2193818679584 L 216.81371845656182,56.84715737537265 L 225.46425400495372,67.44675295008767 L 226.82576945372787,70.69666373668039 L 233.11418878193467,71.04381214100165 L 231.42832891554525,72.55165667366059 L 225.38828314631547,84.45568925222697 L 222.87082691415736,90.12751282671225 L 219.40892817898356,86.66533285720023 L 212.31392893838677,93.71696937743197 L 212.31121794320353,93.71309639651223 L 209.90192995827732,90.26933100524404 L 204.87025498323555,89.8330419867771 L 200.61777509219317,87.74693310612034 L 200.7565701077369,83.02170137819164 L 200.75663999723204,83.01932075980376 L 195.1625547141701,80.10782867836697 L 193.42587752594625,79.64690527764127 L 190.76148016902377,78.93894469968788 L 181.51742557638804,77.25470319960338 L 179.85787507349056,73.8545576253146 L 176.39529525764968,72.07496425418755 L 176.3055715576111,67.44635377363454 z" id="c24031"/>
		<path d="M 215.9173779600261,119.64641819932008 L 218.29359038673633,119.60202093748637 L 219.39738566715334,116.37399896508992 L 219.42722725934283,115.36181841163517 L 219.55851754673736,110.90572910554847 L 219.5799373280075,110.17827269119792 L 224.94916348735913,104.8551894396332 L 231.26534793692858,98.50449861316609 L 222.87082691415736,90.12751282671225 L 225.38828314631547,84.45568925222697 L 231.42832891554525,72.55165667366059 L 233.11418878193467,71.04381214100165 L 237.44385071147605,74.24614663294817 L 238.25421043867115,78.17797913663902 L 241.91756913103538,80.8586903119006 L 245.47150958780583,82.11919161818311 L 252.82296624557634,96.83272346653068 L 249.20476117530774,107.364508860547 L 251.4218943598995,115.10837551066545 L 250.02719989468702,119.45003543616312 L 252.4934026088234,139.619557741287 L 246.57258958967492,136.95581393535952 L 245.95775697700287,130.3230758498617 L 235.49077314831288,125.50562361801525 L 222.10288138775707,126.28444318177576 L 218.78875850838554,130.39670868604313 L 215.3490050481571,120.13409688948879 L 215.9173779600261,119.64641819932008 z" id="c24033"/>
		<path d="M 283.2410625876456,144.4853879398822 L 288.53327431652673,138.72388609886414 L 287.36938230114043,135.58417837130432 L 288.27899010955116,130.9227947885016 L 292.6536837459641,130.3693539503892 L 295.20107593823195,130.72446818643652 L 298.60604877926284,130.75642563197172 L 298.1462853590397,127.22714534692246 L 311.111818318026,134.98775950543893 L 318.44119360649177,123.18143480304711 L 327.9913462920174,119.60423628152228 L 339.98864809770237,127.36999669161402 L 339.9890944270537,127.3757973857836 L 340.6334875937887,135.96591866219137 L 329.7139240801966,145.31005287964513 L 326.2295908370544,160.3731191240264 L 320.4533927676582,166.61352973890362 L 320.96447482383184,172.48710039213 L 319.07536440484864,172.17938682319868 L 310.4818145545619,171.60697848454535 L 311.1959709479067,179.384547034337 L 313.1039738434208,186.8833336213851 L 313.708140508579,192.07104631100142 L 309.7968358067866,191.01053925493952 L 305.4829276993062,186.62688325841893 L 306.03448788586263,178.8347006165806 L 301.72588427357334,174.3175726692465 L 294.1863785275256,165.9103318253565 L 290.5292475697732,163.73011258790848 L 291.1901810423107,159.40639777654533 L 288.37949911015147,154.71980209123026 L 283.2410625876456,144.4853879398822 z" id="c24019"/>
		<path d="M 279.07802390263583,110.37295663519583 L 285.3570435431525,109.34402997948123 L 288.78114336172735,102.98369534436979 L 293.53092572677497,107.48791082567143 L 296.0607780394749,105.47217091801804 L 295.51310893962375,102.46930236088807 L 303.90013311564644,99.3276722343915 L 304.42033627100255,92.1783606657313 L 317.747660672654,95.0255620066211 L 322.62616190835774,106.87194299608686 L 312.1230418285181,117.21469572042594 L 318.44119360649177,123.18143480304711 L 311.111818318026,134.98775950543893 L 298.1462853590397,127.22714534692246 L 297.66063330960463,123.49604509884308 L 295.38751331206066,123.80017610349644 L 291.8767071161224,118.97878739044428 L 288.59831284305517,119.02058181567719 L 284.34439848649106,122.90590033460269 L 282.02664164814155,122.12365720449978 L 282.66365951638244,117.0332861761801 L 278.1445166767834,113.98973607366302 L 279.07802390263583,110.37295663519583 z" id="c24041"/>
		<path d="M 248.95536073452402,44.27349072072426 L 250.63007078891047,43.20296501876591 L 256.5603212832005,43.18267894413993 L 265.18919923717306,43.13806073758227 L 265.2584830049549,51.78752478580298 L 265.3080085400647,60.857366947062324 L 260.75714241248335,62.24049015403197 L 255.0027367636108,57.38477810212749 L 253.59679413428782,56.63072645707045 L 251.36987526348722,55.37603340273804 L 248.9986196516529,54.06560421242973 L 248.95887869860252,45.24396289838663 L 248.95536073452402,44.27349072072426 z" id="c24510"/>
		<path d="M 200.76807862356546,139.35740911998633 L 206.47159036257707,132.18038665340876 L 211.4218971934951,130.61316269018147 L 211.3243299570035,128.23153097173252 L 211.12271361560036,123.75732274748195 L 215.3490050481571,120.13409688948879 L 218.78875850838554,130.39670868604313 L 222.10288138775707,126.28444318177576 L 235.49077314831288,125.50562361801525 L 245.95775697700287,130.3230758498617 L 246.57258958967492,136.95581393535952 L 252.4934026088234,139.619557741287 L 252.62959639384152,143.7995007877938 L 244.09239608138762,142.2888486206752 L 234.76543549398335,156.4915843061805 L 238.82578654040577,171.66368390279274 L 235.43669180774023,170.4419700081259 L 230.17044713956463,165.55976043637747 L 225.32554721336007,161.41277269975268 L 222.95146772572318,152.8082066326807 L 221.6154886933013,150.08449479245047 L 216.25252162339152,152.4873568196951 L 211.91117627194657,154.10432411945914 L 203.93166321698922,157.54710702855965 L 199.52283422116014,151.17542820009248 L 200.76807862356546,139.35740911998633 z" id="c24017"/>
		<path d="M 162.39214426982625,49.262275041618416 L 164.36158472187347,43.457565982987255 L 172.24066461169903,14.492036083605011 L 181.312339003535,2.9828066526461616 L 182.20363166878954,2.9873181942477807 L 201.72714377325408,3.061633227757207 L 203.76922996516026,3.068561237488431 L 195.6785279098768,14.708155681410808 L 205.4253557412677,19.77203944719176 L 213.47526225203796,29.11307469055771 L 208.05098505167666,45.3201435356068 L 207.98633324547686,45.37249813093833 L 199.58001203011418,50.33728251200392 L 197.49848484743055,51.5884291911114 L 181.82962820986694,60.811986064325026 L 178.5719880566659,57.08123020565357 L 173.52499014000398,53.79737165691017 L 170.394030652786,51.16137423767041 L 163.42740040895626,49.37747571807782 L 162.39214426982625,49.262275041618416 z" id="c24021"/>
		<path d="M 261.44946946023566,2.8579262335352147 L 274.8516342142322,2.775892958505058 L 290.82115433793126,2.645188797440079 L 291.37325720379613,2.6401090856885383 L 291.3915739503811,2.639925776742372 L 293.2617180961233,6.688952970910465 L 303.9307182525431,20.269169254467986 L 308.7055911709278,28.707385611000344 L 309.1430235934118,33.499188611349624 L 307.06175325172364,33.570964878302036 L 299.47323546681366,39.05447872391283 L 292.5652808156209,45.17455168471954 L 286.12462890462723,51.18271361301865 L 283.56738849472464,54.45794303346325 L 285.22346604333075,50.15510985450364 L 279.1406566324428,37.361532953557266 L 277.9299208313213,32.9539999204322 L 274.8588523592473,30.816274430764043 L 264.87446311634136,23.311810859952505 L 261.72561668877574,9.635263893189643 L 261.44946946023566,2.8579262335352147 z" id="c24025"/>
		<path d="M 319.35150915747505,179.3348816894592 L 326.45458826620194,177.6590944990731 L 325.3957427435184,175.49832968533292 L 335.00632892907373,167.82404340207344 L 344.61540957969385,166.11335276554874 L 349.1860085194742,168.37681274928224 L 355.44641361172916,179.7984346780278 L 356.06850693925736,190.0822545973616 L 345.1271921122914,195.74236682966657 L 348.6280426382619,201.1845052081566 L 344.56130702782275,206.25151267937326 L 339.69387193352924,203.95532382530553 L 334.11026859631824,203.88351418161176 L 327.1684334600426,210.23309991142278 L 324.2512869981952,210.4375937439956 L 323.5983626896061,203.79552341418102 L 327.28870736191016,196.33936084568523 L 327.1326304048479,193.87846333511052 L 326.6246907320772,189.17602596526714 L 319.91694028553127,186.57674127110192 L 319.35150915747505,179.3348816894592 z M 310.0964731604656,198.06413569251018 L 313.6282683475506,196.73805782686176 L 316.15409697660016,200.3790057401769 L 315.8237955206356,208.08241168415245 L 310.1542087827843,206.36017540807077 L 310.0964731604656,198.06413569251018 z" id="c24039"/>
		<path d="M 103.52042441943996,1.9306626554557977 L 125.21750175169869,2.242955765390794 L 127.27570315493831,2.2695726799145364 L 154.6371228036876,2.650971222465934 L 181.30084913440322,2.98274785540944 L 181.312339003535,2.9828066526461616 L 172.24066461169903,14.492036083605011 L 164.36158472187347,43.457565982987255 L 162.39214426982625,49.262275041618416 L 158.64876473503537,48.844600966330205 L 156.31310447205928,45.14601450382704 L 156.88827787627596,39.56022075598404 L 151.75665460688356,30.979359255432268 L 150.6433547818776,28.083801992277802 L 149.52429874093767,25.170975845183836 L 149.04811940510015,18.08698281727345 L 140.4897201396925,15.656998229008568 L 133.27837352293727,16.307900136412883 L 131.4392547151513,14.059065240490785 L 126.63566386077436,8.177372836581014 L 113.88792575242898,9.433676045984795 L 106.00098482883816,12.539649475716255 L 104.23514948532826,12.799366616693375 L 106.07694670299043,5.449712470903448 L 103.49900439064233,1.9303137864364648 L 103.52042441943996,1.9306626554557977 z" id="c24043"/>
		<path d="M 280.58193301451865,92.96589084846656 L 284.07543673014936,85.19129820568456 L 285.8859225616486,81.34026245043076 L 289.2065648931913,82.5942614947963 L 294.1034513095809,86.70157633217016 L 298.8579867065201,74.8498724996743 L 308.5992985572601,66.94840166430146 L 311.85511519730267,58.050667057620274 L 324.7355022864192,55.43946161052414 L 334.6079618361163,56.94535120819436 L 335.514161499018,68.87630868052008 L 327.77174302643965,72.98013878486847 L 318.42696840862527,88.33337468546942 L 317.747660672654,95.0255620066211 L 304.42033627100255,92.1783606657313 L 303.90013311564644,99.3276722343915 L 295.51310893962375,102.46930236088807 L 294.7371701553225,98.21117164374907 L 294.8297154424584,94.0985638192153 L 290.57585356369316,94.14979522247415 L 284.5486264844151,96.15029842320276 L 283.14363484634646,102.05036693280834 L 279.3482608793259,103.2046237637617 L 280.58193301451865,92.96589084846656 z" id="c24035"/>
		<path d="M 38.386977502752885,28.634514000412047 L 51.350807951635566,0.956612883278403 L 62.047392664273666,1.1672163229940917 L 69.59214254856393,1.3072959984719648 L 100.14656963906924,1.8750167159480733 L 103.49900439064233,1.9303137864364648 L 106.07694670299043,5.449712470903448 L 104.23514948532826,12.799366616693375 L 99.75000372952597,13.457236013976006 L 94.71847846183744,20.15310048547482 L 92.61658603478605,24.449585515155665 L 91.96342892942602,24.411736678977295 L 81.0418588760493,23.77105976477716 L 75.32230075181475,22.03249105326877 L 70.69899402004737,20.623679110065705 L 67.96511132488521,14.361255106209432 L 65.1670204784044,10.997787424885932 L 57.84817690884393,20.5823491447127 L 49.488834336752994,28.994755184966742 L 48.12869519437467,33.50501668400354 L 41.16222644554,29.53659674043114 L 38.316941586895815,29.534396343690158 L 38.386977502752885,28.634514000412047 z" id="c24001"/>
		<path d="M 234.76543549398335,156.4915843061805 L 244.09239608138762,142.2888486206752 L 252.62959639384152,143.7995007877938 L 258.6241823150377,152.4445454549224 L 268.3534274688711,158.38720500059105 L 272.75910923902063,166.13848313599755 L 277.58685453036003,164.3998562144598 L 277.3480327302192,165.37809472091692 L 279.941251136279,167.09661376755267 L 278.33209940710805,173.64386176574826 L 281.9428490492991,180.71391105866826 L 285.015207088924,185.28052342310713 L 284.0775742812643,189.78553192803278 L 284.9241860465548,197.02411472661151 L 280.3577965494379,192.09121676282928 L 274.98497857225675,187.53500399958426 L 270.37696785630317,187.96721800195746 L 264.9493099878154,183.71622797549932 L 260.341693604736,176.6787933046544 L 252.79843079132945,174.38122416162653 L 246.74159672920598,174.3054353626962 L 240.74448492528504,172.35457064881277 L 238.82578654040577,171.66368390279274 L 234.76543549398335,156.4915843061805 z" id="c24037"/>
	</g>
</svg>