<?xml version="1.0" encoding="UTF-8"?>
<svg baseProfile="full" fill="#d0d0d0" height="400.0" stroke="#ffffff" stroke-width="1" version="1.1" width="340.4376373412351" xmlns="http://www.w3.org/2000/svg" xmlns:ev="http://www.w3.org/2001/xml-events" xmlns:xlink="http://www.w3.org/1999/xlink">
	<defs/>
	<g id="counties"><path d="M 147.69355725903804,390.0668515209166 L 152.166548129618,385.15140010262724 L 156.81597478781327,375.16669911083426 L 158.48141528535305,372.17803935093156 L 163.16184244650285,365.68713108386896 L 169.6101778942167,365.82397223140606 L 169.39920393853774,376.27020434402857 L 168.82232753500352,395.1971320446056 L 156.27553828513823,394.91626678246973 L 155.25406480583226,394.88806474563006 L 149.98343563661047,394.7380509193323 L 149.92524395396998,394.73617945683833 L 141.57600039859307,394.4581441401391 L 147.69355725903804,390.0668515209166 z" id="c26021"/>
		<path d="M 232.256181052684,292.42397790603525 L 242.8050780679154,292.48004390119445 L 253.32058386987674,292.49355784725674 L 253.4081012105979,313.00215721885814 L 253.41392186136895,313.6406733843055 L 232.5352926863559,313.5247864942293 L 232.256181052684,292.42397790603525 z" id="c26057"/>
		<path d="M 166.7803890062077,245.06319356875457 L 170.56617588315086,238.11251833497874 L 171.37611130662088,234.7497610688561 L 171.6228344991315,229.77230699485602 L 172.18928446586864,227.64106520204146 L 190.39776437984983,228.33772908653074 L 189.87083995918996,249.51588404800583 L 180.1558649929166,249.15269710751937 L 165.1231308857661,248.1048164029833 L 166.7803890062077,245.06319356875457 z" id="c26101"/>
		<path d="M 232.41536262203036,228.95447140029134 L 253.2897481813236,229.25090299068418 L 253.40257624367052,250.30833943573634 L 242.90569369083053,250.29602893661684 L 232.25461835993542,250.19408776269012 L 232.41536262203036,228.95447140029134 z" id="c26143"/>
		<path d="M 168.58638166321427,312.61682162843715 L 184.89435167167014,312.9305114378448 L 184.95241649646,307.6446604316521 L 190.18249694276548,307.7860427506842 L 190.09281911969683,318.3747975723836 L 190.2491285823789,325.448211618488 L 190.19280092733135,328.9852795673612 L 190.0818467357598,334.3369621286295 L 174.67574889549127,334.0230290930891 L 174.2127002401826,334.01659655149916 L 171.01182302931588,333.99381584788716 L 170.92175107354416,326.94103012767334 L 170.52413058718048,320.56718543232967 L 169.39488463804705,314.76020893665634 L 168.58638166321427,312.61682162843715 z" id="c26139"/>
		<path d="M 59.18310847390442,107.52129725975864 L 72.27237294263331,108.21669627724845 L 95.89948574766703,109.40343417755574 L 95.37741333835817,119.92490043026616 L 94.49113862818032,139.58163103699624 L 91.97016268020154,137.98592438114943 L 89.1245299080825,136.88539697216225 L 86.43830622768891,136.97561318395847 L 83.54438751681063,134.86945462441466 L 82.2526051965415,135.53323891219821 L 77.43872213999738,132.78693011230519 L 74.58035664845244,132.98522400736286 L 73.69056243433705,134.42976101015313 L 71.79575705196297,134.4114816503468 L 70.97011953834928,132.8919863642221 L 70.79977154136932,132.82646703997864 L 68.44216900539514,131.91856970184182 L 65.3820970910588,132.09886203243173 L 60.44815240138219,128.75120767248424 L 58.064718391533326,127.1291601762153 L 58.889833353998874,112.82485142370099 L 59.18310847390442,107.52129725975864 z" id="c26071"/>
		<path d="M 232.69758219343575,207.88082598157595 L 253.2435175206712,208.12444811830062 L 253.2897481813236,229.25090299068418 L 232.41536262203036,228.95447140029134 L 232.69758219343575,207.88082598157595 z" id="c26039"/>
		<path d="M 264.06744482887945,355.75650591021315 L 285.06022358502344,355.23335895550997 L 290.14042784890665,354.94354912104427 L 290.3894005883623,360.16480103029545 L 290.6151017682102,365.4355365609366 L 290.7429547482792,370.79039499185586 L 290.9203136825764,376.1832281864213 L 280.3029174201778,376.46875049531985 L 264.0922919764104,377.2111611257539 L 264.06744482887945,355.75650591021315 z" id="c26161"/>
		<path d="M 200.6874963308561,334.5103249639774 L 211.2503034230778,334.54282334859727 L 221.78747804473127,334.59498787181417 L 221.72096653923845,355.82473158307505 L 211.48691603127764,355.8174083554048 L 200.48812077290867,355.57814901310974 L 200.6874963308561,334.5103249639774 z" id="c26015"/>
		<path d="M 168.82232753500352,395.1971320446056 L 169.39920393853774,376.27020434402857 L 190.22601964912306,376.81899235670943 L 190.06834174168694,393.26387374190233 L 188.60898935849184,395.65644760124707 L 188.60771310309045,395.6564275868663 L 176.2645959743449,395.38234192414046 L 168.82343556996867,395.19715496435293 L 168.82232753500352,395.1971320446056 z" id="c26027"/>
		<path d="M 221.78747804473127,334.59498787181417 L 232.40380945288507,334.69061626901936 L 242.8934199252352,334.7726993073107 L 242.9380567176695,355.9137162832018 L 237.62068371725212,355.9227208526796 L 221.72096653923845,355.82473158307505 L 221.78747804473127,334.59498787181417 z" id="c26045"/>
		<path d="M 211.36827909463486,313.3435292036096 L 216.6606906058453,313.35634834113597 L 232.5352926863559,313.5247864942293 L 232.40380945288507,334.69061626901936 L 221.78747804473127,334.59498787181417 L 211.2503034230778,334.54282334859727 L 211.36827909463486,313.3435292036096 z" id="c26067"/>
		<path d="M 190.2856705341076,302.45094887230687 L 200.39896790922376,302.537242461697 L 211.49862584445592,302.6877975772048 L 211.44205763707114,308.0193893979255 L 211.36827909463486,313.3435292036096 L 211.2503034230778,334.54282334859727 L 200.6874963308561,334.5103249639774 L 190.0818467357598,334.3369621286295 L 190.19280092733135,328.9852795673612 L 190.2491285823789,325.448211618488 L 190.09281911969683,318.3747975723836 L 190.18249694276548,307.7860427506842 L 190.2856705341076,302.45094887230687 z" id="c26081"/>
		<path d="M 200.8703838674094,270.87951882140345 L 221.69951970145266,271.2355630514564 L 221.68038006430098,292.34395311919906 L 200.56308841264496,291.97692161199177 L 200.8703838674094,270.87951882140345 z" id="c26107"/>
		<path d="M 179.45497467746836,291.6451220767708 L 179.96179533429085,270.50217176002644 L 200.8703838674094,270.87951882140345 L 200.56308841264496,291.97692161199177 L 200.39896790922376,302.537242461697 L 190.2856705341076,302.45094887230687 L 179.26094471483376,302.2091538124875 L 179.45497467746836,291.6451220767708 z" id="c26123"/>
		<path d="M 221.95066171553157,249.94335103918294 L 232.25461835993542,250.19408776269012 L 242.90569369083053,250.29602893661684 L 242.93420791735738,271.2588347647669 L 221.69951970145266,271.2355630514564 L 221.95066171553157,249.94335103918294 z" id="c26035"/>
		<path d="M 211.68925488666852,210.46729965092277 L 211.9390668309767,208.14158523192341 L 232.69758219343575,207.88082598157595 L 232.41536262203036,228.95447140029134 L 211.42156249443187,228.69164901481577 L 211.68925488666852,210.46729965092277 z" id="c26079"/>
		<path d="M 253.615189181204,377.1123195367804 L 264.0922919764104,377.2111611257539 L 280.3029174201778,376.46875049531985 L 280.95302905187697,398.2824593136846 L 275.6139630008679,398.5221603216964 L 264.04358415131765,399.0150514826849 L 253.7472440945536,399.3934925242398 L 253.615189181204,377.1123195367804 z" id="c26091"/>
		<path d="M 274.12188404897773,207.97736329830832 L 298.8411803422901,207.61483111070592 L 299.7548878148926,213.6833787310646 L 300.6826287839031,217.87105777634895 L 299.11361221775525,222.78961286290834 L 299.08373371214157,228.68479147134414 L 274.3267238791047,229.08268969755872 L 274.12188404897773,207.97736329830832 z" id="c26001"/>
		<path d="M 242.93420791735738,271.2588347647669 L 253.46217125401427,271.38400992192993 L 262.22908867127524,270.62355955465847 L 262.2317258222518,286.23482213191113 L 262.13632462011725,291.5156886219467 L 253.32058386987674,292.49355784725674 L 242.8050780679154,292.48004390119445 L 242.93420791735738,271.2588347647669 z" id="c26111"/>
		<path d="M 262.22908867127524,270.62355955465847 L 262.24482095228785,260.23681324811685 L 267.54894821245136,260.2153257389859 L 267.5944509677565,265.42844781257696 L 273.897288256479,265.56301696634216 L 273.49480648234396,266.48901274346076 L 272.70872135254956,273.5473350842376 L 271.91359948134715,276.0982624927991 L 273.62014683237254,279.8881641426793 L 277.65762560952226,279.79223703746305 L 281.51243691361594,282.8268796001616 L 282.91714619495326,284.13572731388604 L 282.9320879017981,286.31120086714674 L 283.0050411001088,291.5875142367022 L 277.7472153139476,291.6211843782458 L 277.74930593199076,288.9912324923822 L 273.37923916593894,289.0009206931494 L 267.4161701066321,288.94191727307066 L 267.44953732769216,286.31392402314816 L 262.2317258222518,286.23482213191113 L 262.22908867127524,270.62355955465847 z" id="c26017"/>
		<path d="M 262.7943841625923,334.36539764025844 L 273.34202533231326,334.0688540795774 L 283.90457245354025,333.84726025881946 L 284.1156711307294,339.1735657998062 L 285.06022358502344,355.23335895550997 L 264.06744482887945,355.75650591021315 L 263.6362302397735,355.75505862301327 L 262.7943841625923,334.36539764025844 z" id="c26093"/>
		<path d="M 73.68829728835382,82.01534531800549 L 78.97541693514144,82.2929212041459 L 79.23735215195995,77.02585423232675 L 83.9401660660388,77.05547331095966 L 83.2158729071215,78.15506517836756 L 82.0543923901392,82.52571391462668 L 86.50424243789149,81.42658093558445 L 92.01151357626958,78.20441135097441 L 96.30800026254951,76.15192471491538 L 99.43846266156358,79.22405042175195 L 100.29561331363698,79.33079745035194 L 99.86864005509427,88.56786867121137 L 101.8529991679749,93.90518763312686 L 96.65589685751674,93.71331914332026 L 95.89948574766703,109.40343417755574 L 72.27237294263331,108.21669627724845 L 73.68829728835382,82.01534531800549 z" id="c26013"/>
		<path d="M 272.77126977304613,307.3657929687909 L 283.2758043233508,307.2307087477844 L 293.70987304239287,307.0254434770458 L 294.2716771815374,327.8411052521982 L 283.73053724912177,328.5015953637174 L 283.90457245354025,333.84726025881946 L 273.34202533231326,334.0688540795774 L 272.9329104766001,312.6865749192549 L 272.77126977304613,307.3657929687909 z" id="c26049"/>
		<path d="M 93.43439645455271,145.6831381036272 L 96.17784637172298,142.53129250954365 L 94.5534400082157,139.62102388209038 L 94.49113862818032,139.58163103699624 L 95.37741333835817,119.92490043026616 L 116.51546028664418,120.83544346007025 L 115.81796517670749,136.65864892331018 L 115.59283523618834,141.95040830097346 L 112.22082873815017,141.81377726948665 L 111.77311947436662,152.49075220896285 L 105.99483067083676,152.26111473531026 L 104.09110635390861,150.22763915187474 L 100.4124824060095,149.5080563343017 L 99.26986946276216,147.54655727511218 L 96.99945789084023,148.22788561623787 L 96.6453522481078,148.0641071999966 L 94.62433722444001,147.128373152655 L 93.43439645455271,145.6831381036272 z" id="c26043"/>
		<path d="M 274.3267238791047,229.08268969755872 L 299.08373371214157,228.68479147134414 L 299.0757845412794,230.24147390217757 L 298.35135131053255,239.55308052366868 L 295.547517098135,241.47596246842986 L 293.78844589446857,243.7117589923866 L 290.2082733630107,243.98173728001663 L 288.5287324716718,249.95354926552045 L 274.5677040391227,250.16973684217382 L 274.3267238791047,229.08268969755872 z" id="c26069"/>
		<path d="M 221.69951970145266,271.2355630514564 L 242.93420791735738,271.2588347647669 L 242.8050780679154,292.48004390119445 L 232.256181052684,292.42397790603525 L 221.68038006430098,292.34395311919906 L 221.69951970145266,271.2355630514564 z" id="c26073"/>
		<path d="M 180.1558649929166,249.15269710751937 L 189.87083995918996,249.51588404800583 L 201.09051107036422,249.65901610798227 L 200.8703838674094,270.87951882140345 L 179.96179533429085,270.50217176002644 L 180.0822041680992,259.92978961061755 L 180.1558649929166,249.15269710751937 z" id="c26085"/>
		<path d="M 200.56308841264496,291.97692161199177 L 221.68038006430098,292.34395311919906 L 232.256181052684,292.42397790603525 L 232.5352926863559,313.5247864942293 L 216.6606906058453,313.35634834113597 L 211.36827909463486,313.3435292036096 L 211.44205763707114,308.0193893979255 L 211.49862584445592,302.6877975772048 L 200.39896790922376,302.537242461697 L 200.56308841264496,291.97692161199177 z" id="c26117"/>
		<path d="M 314.4140528832362,310.9291014923608 L 336.1933965199641,309.60028812093856 L 337.1759793324128,313.60912681094874 L 340.4376373412351,319.42274195515034 L 339.9507601037679,322.68911112953646 L 338.1993373358139,326.65306938512055 L 338.4864380428068,334.2768830524188 L 336.7595827994532,341.89110716627573 L 333.54877561986785,347.0235050131595 L 329.3189638692854,349.0487981673549 L 327.9684758859365,343.0655935532212 L 330.90794146821725,340.56537474268947 L 327.8329564001933,339.76262007091435 L 326.8365038615814,337.9254004663954 L 326.1669471397416,326.3018175252059 L 315.2445614231492,326.73547779653603 L 314.4140528832362,310.9291014923608 z" id="c26147"/>
		<path d="M 258.34970226399315,161.28768110035304 L 260.1028067504011,161.27060185652073 L 260.7364489953742,161.55942864697266 L 263.7114316620355,165.49114181650367 L 265.03060494883084,169.09067873089492 L 269.20021438374926,169.44726632954254 L 272.99964532460217,169.75441099148486 L 275.9222434745555,172.80448106843372 L 282.1103169032702,175.13112463933777 L 286.3314748207171,177.747223015515 L 291.059774566672,177.4981181681954 L 295.5619409406424,182.40852004634542 L 294.7032851218516,185.27640242040565 L 295.60666333399655,186.4838132052324 L 274.3099341906335,186.9821448115301 L 268.2621664397579,187.23463299685324 L 258.6177077691443,187.24385097794163 L 258.34970226399315,161.28768110035304 z" id="c26141"/>
		<path d="M 211.48691603127764,355.8174083554048 L 221.72096653923845,355.82473158307505 L 237.62068371725212,355.9227208526796 L 237.93286482528478,377.26732711316515 L 232.63756423103317,377.11334870174807 L 211.48150672439692,376.9881043632013 L 211.48691603127764,355.8174083554048 z" id="c26025"/>
		<path d="M 211.42156249443187,228.69164901481577 L 232.41536262203036,228.95447140029134 L 232.25461835993542,250.19408776269012 L 221.95066171553157,249.94335103918294 L 211.13609785821842,249.77754570181133 L 211.42156249443187,228.69164901481577 z" id="c26113"/>
		<path d="M 190.39776437984983,228.33772908653074 L 211.42156249443187,228.69164901481577 L 211.13609785821842,249.77754570181133 L 201.09051107036422,249.65901610798227 L 189.87083995918996,249.51588404800583 L 190.39776437984983,228.33772908653074 z" id="c26165"/>
		<path d="M 217.06318653602062,92.44215695476099 L 219.77656261342503,91.98803371875618 L 228.48591781177376,91.50345061036657 L 225.77944124982025,97.4231074744283 L 225.75771212038234,104.8007439304255 L 228.15096175519673,109.52808010489042 L 233.17119517488396,110.53692833745258 L 240.37442654424854,108.90383978597781 L 243.32762870684385,110.79489211150434 L 248.1375099220035,111.80465747646105 L 249.46604483695955,110.21082272519948 L 251.21257081544599,108.11481281422783 L 256.5543094811888,108.61705838913102 L 260.7160953739473,105.7468528839881 L 263.89968634061205,107.09409727249971 L 263.6103289975644,109.98063976368505 L 263.0441497380279,115.93385560037629 L 264.7981590504071,122.9606771999493 L 264.36595105649127,123.89032171362642 L 264.0896856510205,127.97038682133866 L 267.83268280197996,130.53735913052716 L 270.06647803210427,133.57150194304666 L 273.9587956685071,135.94995788548286 L 276.74435073321104,131.89332290349853 L 280.8069092731579,132.31897255643497 L 285.9354704342439,132.93941883703476 L 290.985455960683,138.59536330050457 L 289.0986189396267,143.32652629010883 L 286.69556192297097,143.51568124276744 L 283.5158406887737,141.7497121815865 L 277.4417230982011,142.27632315050423 L 272.77743641162806,140.60242425748888 L 265.60543690995047,140.31873072808892 L 264.14274483983866,140.5006296454763 L 258.8563260143354,139.47967271834932 L 258.86701780723786,134.2208722539815 L 253.61385295589128,134.21801647644105 L 253.59618076199686,128.96708455536086 L 221.96671856949024,128.80531925627727 L 221.98118819033203,123.49029515746953 L 216.7314916546479,123.45568319846986 L 217.06318653602062,92.44215695476099 z" id="c26033"/>
		<path d="M 0.0,94.70390085639791 L 3.9699794844262266,92.45976534948805 L 7.804552556020417,91.71961398053054 L 16.019160483765393,89.63700929654446 L 21.618624436975413,85.6347236933585 L 23.145877553048983,84.20678509702388 L 24.001521862940407,84.26900469932683 L 23.264080078999417,94.74514890799196 L 28.46536324708519,95.1033159254925 L 28.092137325012395,100.36933346501188 L 43.81920957395324,101.35761146623655 L 43.15476883062787,111.84342791665865 L 58.889833353998874,112.82485142370099 L 58.064718391533326,127.1291601762153 L 53.97527456186776,124.33861998436208 L 31.336491856736735,116.53055287453789 L 19.339777848213128,112.31042866716291 L 11.457732515580165,109.50942276035411 L 10.235220631028623,104.32641190931214 L 8.20919201681096,99.33862498625282 L 5.3273630743323155,97.97746292418793 L 3.5486894180280464,95.74841124071963 L 1.1459906699579203,96.76608560187795 L 0.0,94.70390085639791 z" id="c26053"/>
		<path d="M 190.7980584008152,212.45487137261603 L 199.32389944919075,212.59538464567063 L 202.26927215111678,197.3019639634578 L 203.73565589008913,200.54519234879407 L 205.68251898558267,199.53614954945445 L 207.59018690273496,198.0067622707728 L 205.63214561960373,207.53012499390474 L 209.6003269380384,207.5748197194368 L 211.68925488666852,210.46729965092277 L 211.42156249443187,228.69164901481577 L 190.39776437984983,228.33772908653074 L 190.7980584008152,212.45487137261603 z" id="c26055"/>
		<path d="M 308.73176466664586,300.512569141422 L 309.4422499222964,299.82372362115865 L 308.51904351153746,279.34672294395034 L 331.04069237655045,278.0202677814094 L 331.74476942704405,284.6265289042673 L 334.3399944854039,294.23533372293184 L 335.3576422635474,306.1839722401301 L 336.1933965199641,309.60028812093856 L 314.4140528832362,310.9291014923608 L 314.0946099669031,302.9862612526649 L 308.8329971142693,303.14596538663557 L 308.73176466664586,300.512569141422 z" id="c26151"/>
		<path d="M 290.14042784890665,354.94354912104427 L 295.45733644926884,354.65689406930545 L 300.7171330662787,354.4046168412523 L 305.81270935751945,354.17008648005856 L 308.13258763285825,354.0595583928683 L 311.2184495095642,353.9423825683159 L 320.80226835408456,353.5437390496722 L 320.80174180357517,353.5511389734056 L 318.4956136926971,359.5996000491683 L 317.3454339810318,360.09423395505377 L 315.6019589127196,360.84307703077405 L 310.77707993002326,363.49313149062954 L 310.72065453072156,363.74485458525544 L 309.96790286472924,367.09945872069653 L 309.1960689885849,370.53228064653456 L 309.29471975701455,375.79511824025445 L 306.97164560091164,378.012178723584 L 306.561439406255,379.1814306191064 L 302.4731542502505,375.7825304399248 L 290.9203136825764,376.1832281864213 L 290.7429547482792,370.79039499185586 L 290.6151017682102,365.4355365609366 L 290.3894005883623,360.16480103029545 L 290.14042784890665,354.94354912104427 z" id="c26163"/>
		<path d="M 207.59018690273496,198.0067622707728 L 209.79933310268092,196.23269592333523 L 210.43967395160792,192.8829488133594 L 209.90989061925322,188.05984345980752 L 210.0435574383586,186.43532143053207 L 216.70267513266202,186.6386014846553 L 216.60456297276912,191.96515267515528 L 232.35445782915647,192.16611671742422 L 232.69758219343575,207.88082598157595 L 211.9390668309767,208.14158523192341 L 211.68925488666852,210.46729965092277 L 209.6003269380384,207.5748197194368 L 205.63214561960373,207.53012499390474 L 207.59018690273496,198.0067622707728 z" id="c26009"/>
		<path d="M 262.2318948698072,250.22157331625988 L 274.5677040391227,250.16973684217382 L 288.5287324716718,249.95354926552045 L 288.39783863851085,250.4180532514726 L 287.7411902295816,256.44716178025254 L 283.56586698544226,257.72310650727337 L 282.99571680026196,260.6189290333446 L 278.84663334674735,260.86301059336074 L 275.27967247329445,262.3784954922838 L 273.897288256479,265.56301696634216 L 267.5944509677565,265.42844781257696 L 267.54894821245136,260.2153257389859 L 262.24482095228785,260.23681324811685 L 262.2318948698072,250.22157331625988 z" id="c26011"/>
		<path d="M 180.00690434356986,209.39081427223493 L 180.42734443067926,203.96264955266932 L 183.81522995836463,204.32793874891715 L 185.98697765407755,200.56413862819926 L 189.28524922152758,202.4877523066834 L 192.51360820126018,200.12847210708438 L 194.05475592767928,195.70206047215683 L 196.90894874561835,193.23043614157297 L 199.04695890587544,188.51325122022394 L 202.60755320746293,186.14648781333653 L 203.4203171503423,188.19314766462315 L 201.81094116467636,196.28685987989581 L 202.26927215111678,197.3019639634578 L 199.32389944919075,212.59538464567063 L 190.7980584008152,212.45487137261603 L 185.5265911019017,212.12523445657578 L 179.40988958596196,212.00232027490225 L 180.00690434356986,209.39081427223493 z M 177.18331179105596,195.87192082719088 L 181.36244742141622,188.87980938435962 L 183.71612251842686,189.44493412903148 L 185.19926244705178,191.4056206759819 L 184.14794631256524,194.8249585754727 L 179.55254749293613,199.13945660705716 L 176.40863749270105,198.32436411288148 L 177.18331179105596,195.87192082719088 z" id="c26089"/>
		<path d="M 253.4081012105979,313.00215721885814 L 272.9329104766001,312.6865749192549 L 273.34202533231326,334.0688540795774 L 262.7943841625923,334.36539764025844 L 253.597211963489,334.4297042681674 L 253.41392186136895,313.6406733843055 L 253.4081012105979,313.00215721885814 z" id="c26155"/>
		<path d="M 283.73053724912177,328.5015953637174 L 294.2716771815374,327.8411052521982 L 309.92299087480575,327.1318609290369 L 310.6867477436242,343.18989308372255 L 310.7860943997974,345.0844371753719 L 310.97740227887255,348.6196224701757 L 311.2184495095642,353.9423825683159 L 308.13258763285825,354.0595583928683 L 305.81270935751945,354.17008648005856 L 300.7171330662787,354.4046168412523 L 295.45733644926884,354.65689406930545 L 290.14042784890665,354.94354912104427 L 285.06022358502344,355.23335895550997 L 284.1156711307294,339.1735657998062 L 283.90457245354025,333.84726025881946 L 283.73053724912177,328.5015953637174 z" id="c26125"/>
		<path d="M 104.12227155535506,172.2260555637873 L 104.65738686590824,169.14365773016738 L 106.5117187370874,167.46175425634084 L 106.71141870688342,164.33647610648194 L 107.56159112380513,161.31812504343796 L 108.05932051313502,159.25353596466172 L 106.17076422658165,156.49751310024777 L 108.08269704309257,155.31840663512708 L 107.13474119805618,153.47703079512598 L 105.99483067083676,152.26111473531026 L 111.77311947436662,152.49075220896285 L 112.22082873815017,141.81377726948665 L 115.59283523618834,141.95040830097346 L 115.81796517670749,136.65864892331018 L 126.36595630225324,137.10749395317777 L 127.97116845439986,142.435470880787 L 127.11131588989096,163.52585714814657 L 130.26763726932762,163.70864839468132 L 128.65669889133113,166.5998706157656 L 125.79463132282766,172.20160241913385 L 120.5931351589011,180.17626845654348 L 116.80826566829859,184.99998834797552 L 114.80559837968434,190.77680256698457 L 112.34015608960182,190.00283570968543 L 110.43591948923793,187.24085161095192 L 108.54572251811554,184.33386109505554 L 109.96767574863435,181.4639670711212 L 112.03251124284274,177.22367412422204 L 112.59301391425642,174.06111671010026 L 110.51638666024732,173.05963250109744 L 108.55456523661172,174.72871926983038 L 106.43110647945912,174.7263029964028 L 103.73256200211719,174.64669207801865 L 104.12227155535506,172.2260555637873 z" id="c26109"/>
		<path d="M 211.48150672439692,376.9881043632013 L 232.63756423103317,377.11334870174807 L 232.59197525445356,396.09725481124013 L 215.67374519537245,395.9828155827345 L 214.03219630023662,395.96758569381296 L 211.330756781248,395.94283808939764 L 211.48150672439692,376.9881043632013 z" id="c26023"/>
		<path d="M 95.89948574766703,109.40343417755574 L 96.65589685751674,93.71331914332026 L 101.8529991679749,93.90518763312686 L 99.86864005509427,88.56786867121137 L 100.29561331363698,79.33079745035194 L 106.27577050737969,80.0693382492341 L 111.32876649497808,82.29153289755409 L 114.98088824315535,84.57191243855304 L 118.66750123845456,88.29800207170044 L 119.43973661607251,92.12987939481026 L 122.1999791178584,96.67728909221533 L 127.1250654391399,100.96638947253577 L 127.58484475508783,105.40884048248155 L 135.60439660770007,106.28942351801922 L 138.08481814594936,105.85120801150592 L 137.37915227173403,126.93458580683624 L 132.08836363667774,126.74785029158727 L 131.6553320473014,137.31162448799094 L 126.36595630225324,137.10749395317777 L 115.81796517670749,136.65864892331018 L 116.51546028664418,120.83544346007025 L 95.37741333835817,119.92490043026616 L 95.89948574766703,109.40343417755574 z" id="c26103"/>
		<path d="M 282.91714619495326,284.13572731388604 L 283.6319955480667,284.80121816791655 L 290.33767604280524,276.9226713221242 L 291.09055346505636,276.0351497677078 L 291.35864689093484,275.33791271669196 L 293.14995711376406,280.0285440735857 L 308.51904351153746,279.34672294395034 L 309.4422499222964,299.82372362115865 L 308.73176466664586,300.512569141422 L 298.35767161456533,300.9481521907983 L 298.54399857770727,306.2353688392497 L 293.70442881327534,306.43861353322086 L 293.70987304239287,307.0254434770458 L 283.2758043233508,307.2307087477844 L 283.06177993876327,296.82641683463476 L 283.0050411001088,291.5875142367022 L 282.9320879017981,286.31120086714674 L 282.91714619495326,284.13572731388604 z" id="c26157"/>
		<path d="M 242.8934199252352,334.7726993073107 L 252.65484036226334,334.78787051308365 L 253.597211963489,334.4297042681674 L 262.7943841625923,334.36539764025844 L 263.6362302397735,355.75505862301327 L 242.9380567176695,355.9137162832018 L 242.8934199252352,334.7726993073107 z" id="c26065"/>
		<path d="M 280.3029174201778,376.46875049531985 L 290.9203136825764,376.1832281864213 L 302.4731542502505,375.7825304399248 L 306.561439406255,379.1814306191064 L 305.6054199968117,381.90336039639396 L 303.2597536655593,384.9464589567179 L 300.706326562982,385.83620531799943 L 300.03576651322146,388.5809932570849 L 297.572050360668,390.25235632873876 L 295.5371337596837,392.9707823831765 L 296.38526980326316,397.0900713140395 L 295.0358674158959,397.597482498446 L 289.0398680019134,397.8957156630803 L 280.95812238783026,398.28222694753833 L 280.95302905187697,398.2824593136846 L 280.3029174201778,376.46875049531985 z" id="c26115"/>
		<path d="M 169.25554019982428,347.78407382317215 L 169.91715611765986,342.35842771292334 L 170.0308962761609,341.42437545197697 L 171.01553533215375,334.2828919133633 L 171.01182302931588,333.99381584788716 L 174.2127002401826,334.01659655149916 L 174.67574889549127,334.0230290930891 L 190.0818467357598,334.3369621286295 L 200.6874963308561,334.5103249639774 L 200.48812077290867,355.57814901310974 L 190.5146969705786,355.463488057072 L 167.44963050585892,355.07840485763995 L 169.25554019982428,347.78407382317215 z" id="c26005"/>
		<path d="M 292.49415808815394,272.38145437452323 L 294.4960270435613,266.7917667236692 L 295.5898036388261,264.68121880380534 L 301.05555263708965,263.5053174890915 L 301.9381670945841,261.33727410686913 L 307.4749790751998,260.065529518652 L 311.32437389136066,258.63431282527637 L 312.2577898848953,256.8291004398685 L 316.4247473730326,255.28664827840677 L 322.41994130151613,257.9785024333804 L 326.16605895876677,262.4616165175816 L 329.661054522653,269.4969782626838 L 330.72273203649434,275.0305004298932 L 331.04069237655045,278.0202677814094 L 308.51904351153746,279.34672294395034 L 293.14995711376406,280.0285440735857 L 291.35864689093484,275.33791271669196 L 292.49415808815394,272.38145437452323 z" id="c26063"/>
		<path d="M 190.06834174168694,393.26387374190233 L 190.22601964912306,376.81899235670943 L 211.48150672439692,376.9881043632013 L 211.330756781248,395.94283808939764 L 194.59862122064516,395.74551692652875 L 188.60898935849184,395.65644760124707 L 190.06834174168694,393.26387374190233 z" id="c26149"/>
		<path d="M 163.63707980939193,365.0264996417527 L 167.07851890238268,356.5740534436103 L 167.44963050585892,355.07840485763995 L 190.5146969705786,355.463488057072 L 190.22601964912306,376.81899235670943 L 169.39920393853774,376.27020434402857 L 169.6101778942167,365.82397223140606 L 163.16184244650285,365.68713108386896 L 163.63707980939193,365.0264996417527 z" id="c26159"/>
		<path d="M 160.7070222037132,290.91268492742034 L 179.45497467746836,291.6451220767708 L 179.26094471483376,302.2091538124875 L 190.2856705341076,302.45094887230687 L 190.18249694276548,307.7860427506842 L 184.95241649646,307.6446604316521 L 184.89435167167014,312.9305114378448 L 168.58638166321427,312.61682162843715 L 166.81501652628685,307.91086995350366 L 162.96508293508936,299.10666624385317 L 161.29754855805206,293.3778243140549 L 160.7070222037132,290.91268492742034 z" id="c26121"/>
		<path d="M 232.63756423103317,377.11334870174807 L 237.93286482528478,377.26732711316515 L 253.615189181204,377.1123195367804 L 253.7472440945536,399.3934925242398 L 251.9643390593941,399.45610183643856 L 250.2092387770707,399.51689261938907 L 233.43789522972264,400.0 L 233.46807760455437,396.1010697982757 L 232.59197525445356,396.09725481124013 L 232.63756423103317,377.11334870174807 z" id="c26059"/>
		<path d="M 126.36595630225324,137.10749395317777 L 131.6553320473014,137.31162448799094 L 132.08836363667774,126.74785029158727 L 137.37915227173403,126.93458580683624 L 158.50533713418878,127.60757959685232 L 163.80055764890898,127.78152748120695 L 163.37947171614292,143.68670348106016 L 164.43838577492303,152.59475790169094 L 160.90230705458677,155.0614413046338 L 157.5404488772178,160.2895066350078 L 156.55790913108532,165.03478150127953 L 153.45994944175814,160.7598891780339 L 153.90448285155423,155.91264477559656 L 156.43858046213916,153.44923462937228 L 151.22347223079308,148.51081084353632 L 148.278185426119,153.8368069570928 L 142.84245046268416,156.6785440231097 L 138.4161137522885,153.73648904774586 L 133.96648578496348,157.0498252414569 L 130.26763726932762,163.70864839468132 L 127.11131588989096,163.52585714814657 L 127.97116845439986,142.435470880787 L 126.36595630225324,137.10749395317777 z" id="c26041"/>
		<path d="M 210.35867281194027,182.60040352085613 L 213.6819972678051,179.87131663248704 L 217.91565758975045,177.2299796568534 L 222.2271531868963,177.12276736923354 L 226.22022155844815,182.67001338449492 L 227.8165211560407,181.5113375187403 L 237.76775217602864,181.70528375714036 L 237.6743816579214,187.01695126722925 L 237.62908547260523,192.30362996102463 L 232.35445782915647,192.16611671742422 L 216.60456297276912,191.96515267515528 L 216.70267513266202,186.6386014846553 L 210.0435574383586,186.43532143053207 L 210.35867281194027,182.60040352085613 z M 196.661261194122,154.13257315069757 L 198.79256678820008,153.7410432152955 L 204.28745782164196,148.5582232460047 L 211.22222620514606,149.3939840888273 L 210.4981429603083,152.33452231792265 L 204.73213414751623,162.7415171505331 L 202.47759242267932,164.18316978954928 L 199.88357544552898,163.30457487745005 L 196.83254042925685,156.49784640734327 L 196.661261194122,154.13257315069757 z" id="c26029"/>
		<path d="M 60.15644034465661,91.72211734280303 L 65.3775298151739,92.0651779759526 L 65.6899415596259,86.86459797252581 L 62.82900958406138,86.7183523964181 L 63.71166474568133,70.39864379243723 L 64.1093241542077,69.8999022267835 L 65.7744500358351,66.43532469596148 L 68.99119860392217,64.12708576266641 L 73.96898761092682,60.53367822929992 L 78.83670947354436,58.50494090508115 L 81.94924872132918,56.00149565137569 L 90.79244967509443,56.44288532650415 L 90.56106670497093,61.68720422072971 L 94.61755619851209,61.88550581553055 L 92.80950714337469,65.4695140374063 L 88.48297937721223,68.84849717678287 L 86.36425812649749,73.369189574161 L 83.9401660660388,77.05547331095966 L 79.23735215195995,77.02585423232675 L 78.97541693514144,82.2929212041459 L 73.68829728835382,82.01534531800549 L 72.27237294263331,108.21669627724845 L 59.18310847390442,107.52129725975864 L 60.15644034465661,91.72211734280303 z" id="c26061"/>
		<path d="M 190.5146969705786,355.463488057072 L 200.48812077290867,355.57814901310974 L 211.48691603127764,355.8174083554048 L 211.48150672439692,376.9881043632013 L 190.22601964912306,376.81899235670943 L 190.5146969705786,355.463488057072 z" id="c26077"/>
		<path d="M 237.62068371725212,355.9227208526796 L 242.9380567176695,355.9137162832018 L 263.6362302397735,355.75505862301327 L 264.06744482887945,355.75650591021315 L 264.0922919764104,377.2111611257539 L 253.615189181204,377.1123195367804 L 237.93286482528478,377.26732711316515 L 237.62068371725212,355.9227208526796 z" id="c26075"/>
		<path d="M 171.9463872147476,216.6539343176443 L 175.8058008808315,214.97078095049383 L 178.9000994107801,214.22939703331 L 179.40988958596196,212.00232027490225 L 185.5265911019017,212.12523445657578 L 190.7980584008152,212.45487137261603 L 190.39776437984983,228.33772908653074 L 172.18928446586864,227.64106520204146 L 172.96574224041925,224.71568664675536 L 171.63719476803072,219.743268674019 L 171.9463872147476,216.6539343176443 z" id="c26019"/>
		<path d="M 221.32926115400582,164.60319896755863 L 223.8513480795427,160.34369495721396 L 227.73093012921268,157.5295843367284 L 225.9120426926012,153.01974385635083 L 232.18293319532143,153.56617811903365 L 236.2012976996087,151.32628841030646 L 237.92131192444404,151.86939849105107 L 237.76775217602864,181.70528375714036 L 227.8165211560407,181.5113375187403 L 226.22022155844815,182.67001338449492 L 222.2271531868963,177.12276736923354 L 223.9941978950597,177.0772783731981 L 228.09698593154576,176.3878300753897 L 230.087234870349,174.3482506436023 L 227.18676282087168,173.13641254330514 L 224.6247699309175,172.67141916916898 L 221.7502767560144,167.48685623318397 L 221.32926115400582,164.60319896755863 z" id="c26047"/>
		<path d="M 237.76775217602864,181.70528375714036 L 237.92131192444404,151.86939849105107 L 238.48756622249314,152.0479730587889 L 245.5165182572798,156.87313399249064 L 249.4142634686004,159.68448574469713 L 251.461660264457,158.65204817073322 L 255.04426601964158,158.9588958782644 L 260.1028067504011,161.27060185652073 L 258.34970226399315,161.28768110035304 L 258.6177077691443,187.24385097794163 L 253.46484369322232,187.24705805354097 L 237.6743816579214,187.01695126722925 L 237.76775217602864,181.70528375714036 z" id="c26031"/>
		<path d="M 253.2435175206712,208.12444811830062 L 274.1219070708086,207.9666117250808 L 274.12188404897773,207.97736329830832 L 274.3267238791047,229.08268969755872 L 253.2897481813236,229.25090299068418 L 253.2435175206712,208.12444811830062 z" id="c26135"/>
		<path d="M 82.47500342964616,55.5779674113901 L 86.10405497060376,51.03033129525353 L 91.7630931955904,48.19036743997144 L 94.61721941483977,46.72278230005148 L 100.1377007685982,45.74910235202281 L 106.59108340719344,45.443691841011194 L 111.85428997351974,46.001834209090035 L 116.80146307366448,47.2802344016854 L 120.37620226726538,49.34639846279974 L 119.74533728102706,51.48154122121632 L 111.68205450062493,50.935261716436855 L 105.8448871821918,50.80923986194967 L 105.6275407842919,54.09788450941775 L 102.5263331311644,55.76318139627758 L 99.07925331136221,58.341296744903545 L 94.90292805537331,61.319083861462296 L 94.61755619851209,61.88550581553055 L 90.56106670497093,61.68720422072971 L 90.79244967509443,56.44288532650415 L 81.94924872132918,56.00149565137569 L 82.47500342964616,55.5779674113901 z M 54.9423221505383,16.605117217278277 L 56.76235675309937,15.07000981626875 L 63.53003592618358,11.960167448812545 L 66.78054566359802,10.495301206712117 L 68.7557806980683,9.680855309213683 L 71.99362223015272,8.504714540184466 L 75.7214709327975,5.969878084636342 L 79.79025956548112,3.3584448466880303 L 83.32648234042811,1.9222421545948372 L 88.39117019392089,0.0 L 88.1676186788576,2.663766175887245 L 82.95952003772193,6.339509850993648 L 81.59577621295408,10.008294717070195 L 75.76551201223603,12.48093443091587 L 70.18417999309293,13.993643823272809 L 68.0846041262194,17.816584034693904 L 61.98327418508532,20.208717024238545 L 57.237838739554896,21.865840862005406 L 55.52994584384534,20.16553337259927 L 53.44177961314251,18.46376729954795 L 54.9423221505383,16.605117217278277 z" id="c26083"/>
		<path d="M 158.8080472031933,117.00278901115374 L 169.34406286940194,117.35992141676017 L 169.60598811089363,106.79227802212357 L 190.5849826565866,107.31105501578753 L 190.2890371916988,123.11796898376629 L 189.9210469163195,141.16572371009883 L 187.85724187970175,142.83662708233913 L 181.20411497913315,139.915242518186 L 172.4465895563705,141.1334018519873 L 169.27209451570246,147.61498057801714 L 165.31434562035275,151.9825970125991 L 164.43838577492303,152.59475790169094 L 163.37947171614292,143.68670348106016 L 163.80055764890898,127.78152748120695 L 158.50533713418878,127.60757959685232 L 158.8080472031933,117.00278901115374 z" id="c26153"/>
		<path d="M 157.5701901983141,280.3622871579464 L 159.00043938611338,277.11710342797 L 161.98624857248902,272.76280997679925 L 162.48449036543485,269.8671629429419 L 179.96179533429085,270.50217176002644 L 179.45497467746836,291.6451220767708 L 160.7070222037132,290.91268492742034 L 160.0781011514302,288.28307581167496 L 157.98477855452253,283.4804011281513 L 157.5701901983141,280.3622871579464 z" id="c26127"/>
		<path d="M 201.09051107036422,249.65901610798227 L 211.13609785821842,249.77754570181133 L 221.95066171553157,249.94335103918294 L 221.69951970145266,271.2355630514564 L 200.8703838674094,270.87951882140345 L 201.09051107036422,249.65901610798227 z" id="c26133"/>
		<path d="M 190.5849826565866,107.31105501578753 L 190.8027040725158,96.26176115306252 L 191.79028527691605,96.1383364995983 L 206.79709609163962,96.89252690869527 L 216.2683903965642,92.5747421038592 L 217.06318653602062,92.44215695476099 L 216.7314916546479,123.45568319846986 L 190.2890371916988,123.11796898376629 L 190.5849826565866,107.31105501578753 z" id="c26095"/>
		<path d="M 242.90569369083053,250.29602893661684 L 253.40257624367052,250.30833943573634 L 262.2318948698072,250.22157331625988 L 262.24482095228785,260.23681324811685 L 262.22908867127524,270.62355955465847 L 253.46217125401427,271.38400992192993 L 242.93420791735738,271.2588347647669 L 242.90569369083053,250.29602893661684 z" id="c26051"/>
		<path d="M 159.38557310410866,255.283443633892 L 161.92999245415456,252.8485079167261 L 163.19534264414872,251.63569895467867 L 164.9599195749926,248.40405133125205 L 165.1231308857661,248.1048164029833 L 180.1558649929166,249.15269710751937 L 180.0822041680992,259.92978961061755 L 179.96179533429085,270.50217176002644 L 162.48449036543485,269.8671629429419 L 162.70589035082745,268.57914276940335 L 162.0917484812013,263.86240689512323 L 161.50668919721116,260.63386808433137 L 161.5038850541474,260.6284146120913 L 159.89533817618613,257.49689452602723 L 159.38557310410866,255.283443633892 z" id="c26105"/>
		<path d="M 253.46484369322232,187.24705805354097 L 258.6177077691443,187.24385097794163 L 268.2621664397579,187.23463299685324 L 274.3099341906335,186.9821448115301 L 274.1219070708086,207.9666117250808 L 253.2435175206712,208.12444811830062 L 253.46484369322232,187.24705805354097 z" id="c26119"/>
		<path d="M 309.92299087480575,327.1318609290369 L 315.2445614231492,326.73547779653603 L 326.1669471397416,326.3018175252059 L 326.8365038615814,337.9254004663954 L 327.8329564001933,339.76262007091435 L 323.7116515953621,342.63740856781106 L 325.31804359794165,344.3986498301999 L 325.81335405189407,346.554793365752 L 321.1952939775754,348.00990749884517 L 321.19062806253623,348.07572640978316 L 321.1634475659107,348.45908459402324 L 320.902316945572,352.1370221236811 L 320.80226835408456,353.5437390496722 L 311.2184495095642,353.9423825683159 L 310.97740227887255,348.6196224701757 L 310.7860943997974,345.0844371753719 L 310.6867477436242,343.18989308372255 L 309.92299087480575,327.1318609290369 z" id="c26099"/>
		<path d="M 253.2897481813236,229.25090299068418 L 274.3267238791047,229.08268969755872 L 274.5677040391227,250.16973684217382 L 262.2318948698072,250.22157331625988 L 253.40257624367052,250.30833943573634 L 253.2897481813236,229.25090299068418 z" id="c26129"/>
		<path d="M 253.32058386987674,292.49355784725674 L 262.13632462011725,291.5156886219467 L 262.2317258222518,286.23482213191113 L 267.44953732769216,286.31392402314816 L 267.4161701066321,288.94191727307066 L 273.37923916593894,289.0009206931494 L 277.74930593199076,288.9912324923822 L 277.7472153139476,291.6211843782458 L 283.0050411001088,291.5875142367022 L 283.06177993876327,296.82641683463476 L 283.2758043233508,307.2307087477844 L 272.77126977304613,307.3657929687909 L 272.9329104766001,312.6865749192549 L 253.4081012105979,313.00215721885814 L 253.32058386987674,292.49355784725674 z" id="c26145"/>
		<path d="M 23.145877553048983,84.20678509702388 L 25.48664278612203,82.01459056720678 L 30.244019294998722,80.72621864285624 L 33.47247415025416,81.24714410268612 L 36.51472051330065,81.04678203187127 L 39.497329321460256,80.6423764319292 L 43.000496779699574,80.71864310551113 L 51.04783126936064,77.00972753127967 L 54.85352120713351,72.85643760132065 L 59.63193121503975,72.14315115768571 L 62.54442288110084,71.8614945044576 L 63.71166474568133,70.39864379243723 L 62.82900958406138,86.7183523964181 L 65.6899415596259,86.86459797252581 L 65.3775298151739,92.0651779759526 L 60.15644034465661,91.72211734280303 L 59.18310847390442,107.52129725975864 L 58.889833353998874,112.82485142370099 L 43.15476883062787,111.84342791665865 L 43.81920957395324,101.35761146623655 L 28.092137325012395,100.36933346501188 L 28.46536324708519,95.1033159254925 L 23.264080078999417,94.74514890799196 L 24.001521862940407,84.26900469932683 L 23.145877553048983,84.20678509702388 z" id="c26131"/>
		<path d="M 293.70442881327534,306.43861353322086 L 298.54399857770727,306.2353688392497 L 298.35767161456533,300.9481521907983 L 308.73176466664586,300.512569141422 L 308.8329971142693,303.14596538663557 L 314.0946099669031,302.9862612526649 L 314.4140528832362,310.9291014923608 L 315.2445614231492,326.73547779653603 L 309.92299087480575,327.1318609290369 L 294.2716771815374,327.8411052521982 L 293.70987304239287,307.0254434770458 L 293.70442881327534,306.43861353322086 z" id="c26087"/>
		<path d="M 274.1219070708086,207.9666117250808 L 274.3099341906335,186.9821448115301 L 295.60666333399655,186.4838132052324 L 298.63452796725403,190.5229395615042 L 300.87840270717095,197.36685167797862 L 297.6641711574183,196.51593688102733 L 295.10270994820496,194.79671648535782 L 293.2740576796021,195.99096638881596 L 293.57787644132173,199.08827644257954 L 293.48824235167797,202.68362338438166 L 297.2413725647729,205.96025169344944 L 298.6409318831307,206.28223374941768 L 298.8411803422901,207.61483111070592 L 274.12188404897773,207.97736329830832 L 274.1219070708086,207.9666117250808 z" id="c26007"/>
		<path d="M 242.8749046456247,144.9631991508581 L 247.03901616310011,148.97922419088067 L 251.20896896895934,150.7294663134707 L 253.91526100681955,152.42702178114345 L 252.29788879165622,155.1166901102491 L 248.46469183358872,154.9257123460378 L 244.07581165671323,150.29958454963304 L 241.40101813144653,147.10077493985514 L 242.8749046456247,144.9631991508581 z M 190.2890371916988,123.11796898376629 L 216.7314916546479,123.45568319846986 L 221.98118819033203,123.49029515746953 L 221.96671856949024,128.80531925627727 L 253.59618076199686,128.96708455536086 L 253.61385295589128,134.21801647644105 L 258.86701780723786,134.2208722539815 L 258.8563260143354,139.47967271834932 L 264.14274483983866,140.5006296454763 L 258.1970961117401,141.2334198629937 L 253.04867358111264,142.70139307618072 L 248.64283904368418,139.9149851645405 L 244.95022506939938,141.73448191097617 L 242.1804162485786,141.5256868142363 L 237.88130924675391,144.18128727932458 L 239.03796396026937,147.73282952593084 L 235.3734352575785,147.1059197845955 L 230.1084044724346,142.7006218856419 L 226.49336407387034,138.08884722017726 L 220.2348839906264,135.32405857724538 L 215.40686069186137,134.35908629481816 L 210.55488646387118,133.31338898575447 L 203.8102315148835,133.372054430139 L 199.163291023818,139.12887116377902 L 197.0804829127441,140.52569406441384 L 192.30396867747763,139.23287070434748 L 189.9210469163195,141.16572371009883 L 190.2890371916988,123.11796898376629 z" id="c26097"/>
		<path d="M 232.35445782915647,192.16611671742422 L 237.62908547260523,192.30362996102463 L 237.6743816579214,187.01695126722925 L 253.46484369322232,187.24705805354097 L 253.2435175206712,208.12444811830062 L 232.69758219343575,207.88082598157595 L 232.35445782915647,192.16611671742422 z" id="c26137"/>
		<path d="M 232.5352926863559,313.5247864942293 L 253.41392186136895,313.6406733843055 L 253.597211963489,334.4297042681674 L 252.65484036226334,334.78787051308365 L 242.8934199252352,334.7726993073107 L 232.40380945288507,334.69061626901936 L 232.5352926863559,313.5247864942293 z" id="c26037"/>
		<path d="M 138.08481814594936,105.85120801150592 L 143.97202430137295,104.80336960312631 L 146.92720831350468,108.57283497022796 L 150.7915874662098,109.6933610043751 L 153.39770721887137,107.98041961895731 L 155.8181018969122,103.43439819385767 L 158.643311362987,104.81053125978102 L 161.4878469739238,107.70242128299915 L 165.69348495034075,103.89205756568474 L 177.23158425261857,97.96373716191178 L 179.33773249301365,96.85957120811162 L 185.33141140071658,96.94016015781793 L 190.8027040725158,96.26176115306252 L 190.5849826565866,107.31105501578753 L 169.60598811089363,106.79227802212357 L 169.34406286940194,117.35992141676017 L 158.8080472031933,117.00278901115374 L 158.50533713418878,127.60757959685232 L 137.37915227173403,126.93458580683624 L 138.08481814594936,105.85120801150592 z" id="c26003"/>
	</g>
</svg>