<?xml version="1.0" encoding="UTF-8"?>
<svg baseProfile="full" fill="#d0d0d0" height="400.0" stroke="#ffffff" stroke-width="1" version="1.1" width="350.30445794783725" xmlns="http://www.w3.org/2000/svg" xmlns:ev="http://www.w3.org/2001/xml-events" xmlns:xlink="http://www.w3.org/1999/xlink">
	<defs/>
	<g id="counties"><path d="M 168.01273874749958,231.2783450119419 L 172.06444559795966,231.26526486375303 L 171.97467474322988,219.54583288356477 L 189.80532734590312,219.03869074424802 L 189.92943820298987,231.04950157155716 L 185.77427976881484,231.1253733095161 L 186.06305397042604,248.122377896453 L 168.3770924128043,248.0797144483102 L 168.01273874749958,231.2783450119419 z" id="c27065"/>
		<path d="M 24.48688340044877,394.9291616485438 L 25.068490026009112,374.74362624317837 L 25.068493859780922,374.74349316299043 L 44.152652642234855,375.25953472792537 L 44.757302468596706,375.2712363318387 L 44.176248130682815,398.96947916513983 L 36.98995167318223,398.78924086349843 L 24.391491649424296,398.4552343432203 L 24.48688340044877,394.9291616485438 z" id="c27133"/>
		<path d="M 43.26564210053032,150.9201220149589 L 49.17758890639406,151.01542545720957 L 73.07622985437146,151.5103823492234 L 90.776252884753,151.68635112257186 L 90.78946369156733,175.30975593274576 L 90.68860125429289,181.2228740381561 L 86.75074616119674,181.269414598151 L 43.48097586540685,180.36240727372908 L 43.93147149446576,162.74273111063127 L 43.26564210053032,150.9201220149589 z" id="c27005"/>
		<path d="M 125.65587308679213,104.82608780921848 L 155.03768540702814,104.72951041298377 L 155.03464919264374,101.15900298918747 L 186.78011841565083,101.31082698163233 L 187.86476311844058,112.96121500030368 L 187.8170519816649,135.13018160084414 L 188.81864542349817,160.08033593088516 L 155.4118332087114,160.16038610084948 L 155.39959781623128,147.87197435000468 L 153.7767050395507,146.43542704542025 L 155.35763587387845,141.50573202146808 L 150.07678112113493,140.59651543213815 L 147.99937640386293,141.57115273450992 L 143.65455986226743,138.3499623295932 L 143.60920032398707,134.5218048763982 L 140.49842234460715,129.81883956852698 L 129.79018787642298,134.04456897182195 L 125.70223594848434,132.06933915860594 L 125.65587308679213,104.82608780921848 z" id="c27061"/>
		<path d="M 14.190688256167592,154.84765731138526 L 13.99659813749774,150.12596320168348 L 43.26564210053032,150.9201220149589 L 43.93147149446576,162.74273111063127 L 43.48097586540685,180.36240727372908 L 43.445548345616324,186.28144435369404 L 38.36165841365758,186.15074094221904 L 14.752811911426443,185.54970678421031 L 14.579162007270208,185.1258795780574 L 14.547196562257119,185.04784926572898 L 14.840777624094333,181.25736734691378 L 14.933829129657802,175.50043019354348 L 16.382534994694637,166.37807154824986 L 13.364371883786982,159.648497724796 L 14.190688256167592,154.84765731138526 z" id="c27027"/>
		<path d="M 44.07820351805478,269.0769797870809 L 61.7531769937532,269.43069843552763 L 85.2904642122608,269.77364997188374 L 85.14130719139897,281.5899637124158 L 85.48528779839472,287.453776227438 L 47.52161592353081,286.8019833774817 L 44.34603757753536,285.06695509757384 L 43.75375471414956,280.7663836138467 L 44.07820351805478,269.0769797870809 z" id="c27151"/>
		<path d="M 68.04657289046239,328.63499165435894 L 79.43099342991388,328.8483386123355 L 79.59106346996019,318.2018233587426 L 85.18065960845605,320.4142177571002 L 90.53398198925704,325.2739781185252 L 102.73441869014441,330.80029759056276 L 103.42974602074695,332.06746159010623 L 103.294534027734,346.7274740111352 L 91.52403586850598,346.65899406520424 L 91.39688088254618,352.5487801305547 L 90.78832718656676,352.5246753964063 L 74.11032759992389,352.261728689984 L 67.70760538694928,352.1863942549318 L 68.04657289046239,328.63499165435894 z" id="c27127"/>
		<path d="M 121.22477742393835,299.46576505356376 L 133.07231707597603,299.5006770246397 L 144.82496840968784,299.534622977648 L 144.96257880413475,317.27595482327877 L 133.16770249222398,317.2669302562573 L 133.13621268645454,323.2124480002206 L 121.34565100226106,323.22013725757546 L 121.35261925023855,317.294576439351 L 121.38788316137503,306.7448191738269 L 121.1812831654101,305.4009574497022 L 121.22477742393835,299.46576505356376 z" id="c27085"/>
		<path d="M 144.33672658738072,348.5607774511238 L 148.83165392917843,342.56735561221615 L 147.41456372042865,341.2687176192081 L 147.72399728746234,340.59405735043345 L 147.3387772247769,340.0800083748051 L 147.81872676214567,339.9368938380634 L 147.9378801145506,338.36710823254066 L 148.41238441562606,337.9868266665345 L 149.03750617849084,335.7386596809225 L 148.95372843472944,334.97108970187116 L 151.08072722077026,330.7364045700967 L 149.85987952218713,329.09589146906706 L 168.6117909495578,328.93888408943127 L 168.78385193413055,352.5402092204026 L 156.9216827696254,352.65082245144043 L 156.90075057421652,349.6928242017522 L 144.99364348466446,349.7377141057933 L 144.33672658738072,348.5607774511238 z" id="c27079"/>
		<path d="M 114.39268431962273,206.47662600878715 L 119.96498829806764,209.61646707622978 L 125.0614740766766,207.62542050729994 L 129.0483646289285,211.34194623495574 L 126.81921978211463,214.02361755391658 L 127.48577311190776,219.52998537907226 L 154.11098551249532,219.51152823502318 L 154.17832190103113,231.29300090309982 L 156.4405334108849,242.20808661529438 L 128.46975463035992,242.2876543130437 L 132.33036731835435,245.46576855922297 L 120.85399028347878,245.50133906982938 L 114.64396269999261,245.50477006594951 L 114.39268431962273,206.47662600878715 z" id="c27097"/>
		<path d="M 192.3877604177435,375.8747208956134 L 192.56265505780476,375.87043521835034 L 210.0918881271348,375.5574763145875 L 210.8009141996454,376.55342741932753 L 221.93279488197106,376.28912826283306 L 222.44915810512063,398.9564140211632 L 217.29715400088145,399.0780099899328 L 217.29552650680344,399.0780473302711 L 201.61273163178123,399.43378109632926 L 193.99229032170467,399.55857162863856 L 192.76346349517902,399.57730636342 L 192.3877604177435,375.8747208956134 z" id="c27099"/>
		<path d="M 90.79799740869377,204.90975561725253 L 110.73402127216839,205.1029921590326 L 111.40005953001521,206.2775077574749 L 114.39268431962273,206.47662600878715 L 114.64396269999261,245.50477006594951 L 91.0882879195695,245.35013625888558 L 91.05214230729894,222.71306738130784 L 91.19120741393392,210.7893085229677 L 90.79799740869377,204.90975561725253 z" id="c27153"/>
		<path d="M 174.58256828825398,352.4662947460687 L 186.5193480439683,352.3077927301217 L 192.2057724609293,352.2154638041231 L 192.56265505780476,375.87043521835034 L 192.3877604177435,375.8747208956134 L 174.8307091450263,376.1232045604312 L 174.58256828825398,352.4662947460687 z" id="c27147"/>
		<path d="M 156.9216827696254,352.65082245144043 L 168.78385193413055,352.5402092204026 L 174.58256828825398,352.4662947460687 L 174.8307091450263,376.1232045604312 L 162.94979370655548,376.2302986004796 L 157.07583174243555,376.2829262019066 L 156.9216827696254,352.65082245144043 z" id="c27161"/>
		<path d="M 44.757302468596706,375.2712363318387 L 73.75429229452922,375.90191034571063 L 74.24227537763268,375.9064963605567 L 73.78820975153704,399.52263235329013 L 72.18704792369464,399.5031259437641 L 54.99390758706444,399.2159192044454 L 53.682092251768196,399.18762694513225 L 44.176248130682815,398.96947916513983 L 44.757302468596706,375.2712363318387 z" id="c27105"/>
		<path d="M 188.82405900811037,177.73132668842027 L 224.28023067399587,177.19324754806937 L 224.89204307363775,184.03205111849599 L 225.16505412386644,195.41434469870674 L 225.27831590780312,200.73480797443534 L 189.4916990497862,201.30786362823739 L 188.82405900811037,177.73132668842027 z" id="c27017"/>
		<path d="M 90.78946369156733,175.30975593274576 L 108.31701767519863,175.52298513790555 L 108.50443340272453,203.34963783949527 L 110.73402127216839,205.1029921590326 L 90.79799740869377,204.90975561725253 L 91.00208805748201,187.18270942090717 L 90.68860125429289,181.2228740381561 L 90.78946369156733,175.30975593274576 z" id="c27159"/>
		<path d="M 38.18960814692048,221.6158789440898 L 61.590173481899974,222.21696794140024 L 61.67164207695862,245.82044917591892 L 38.12602958982422,245.3058764888241 L 38.44279891502935,233.43875378260063 L 38.00270265494318,227.52066925031394 L 38.18960814692048,221.6158789440898 z" id="c27051"/>
		<path d="M 168.7515713149218,269.7736134881949 L 192.2113188724415,269.6874241041985 L 192.3383525871324,277.48460852486863 L 192.46911156482756,289.2359863550865 L 182.5096110917061,289.3322714421092 L 182.60565281895978,294.39707000254754 L 182.6244232998058,295.3656833386015 L 180.0000745558323,292.9507601653762 L 180.0934201049046,290.8002557532862 L 179.22410786945827,289.56321160326837 L 178.4635551003111,288.0753902691456 L 175.47003431928536,285.7741711778684 L 172.89731188034537,283.3097662697737 L 168.7571588016751,281.25776130309623 L 168.7515713149218,269.7736134881949 z" id="c27003"/>
		<path d="M 91.52403586850598,346.65899406520424 L 103.294534027734,346.7274740111352 L 103.42974602074695,332.06746159010623 L 105.89943098265492,333.02100381813614 L 107.55206194183276,334.92064000122775 L 113.10293943041968,339.2058591269178 L 121.60505595527543,341.57577662579945 L 127.42324352263756,348.05737900503794 L 127.54799298157708,358.63731423292126 L 103.51836676329673,358.5731104903474 L 91.75154939862239,358.46343258665627 L 91.77144169681515,353.55467753856016 L 91.39688088254618,352.5487801305547 L 91.52403586850598,346.65899406520424 z" id="c27015"/>
		<path d="M 27.526811847402815,278.37115781652346 L 34.50111541416359,279.73440445483294 L 44.34603757753536,285.06695509757384 L 47.52161592353081,286.8019833774817 L 57.48676905092984,298.24260609863114 L 58.41624022311775,300.8207566996523 L 61.6580884418883,301.77664781811404 L 61.571703890842564,304.80169619649973 L 56.25616430700795,304.67643641791375 L 56.06249970545911,310.54477763856454 L 26.78154351404609,309.8277239447612 L 27.05762413417203,298.16421980834656 L 27.526811847402815,278.37115781652346 z" id="c27073"/>
		<path d="M 103.51836676329673,358.5731104903474 L 127.54799298157708,358.63731423292126 L 127.51532567829875,376.34453206298645 L 103.64590756256922,376.2319925704785 L 103.40282374134294,376.23053752375944 L 103.51836676329673,358.5731104903474 z" id="c27165"/>
		<path d="M 38.12602958982422,245.3058764888241 L 61.67164207695862,245.82044917591892 L 61.7531769937532,269.43069843552763 L 44.07820351805478,269.0769797870809 L 38.13657732525357,268.8864507256147 L 37.87408556670096,257.13836315794674 L 38.12602958982422,245.3058764888241 z" id="c27149"/>
		<path d="M 138.16060839977683,260.13954794184735 L 156.76518320929878,260.03074146310524 L 168.6300007339699,259.9979725884988 L 168.7515713149218,269.7736134881949 L 168.7571588016751,281.25776130309623 L 168.302656176439,281.198473749148 L 166.24824372207456,277.5146174387746 L 157.01199587610355,278.01901721459006 L 143.05645879890199,269.37899566679766 L 138.52341230536734,264.60867756727197 L 138.16060839977683,260.13954794184735 z" id="c27141"/>
		<path d="M 192.2340947443894,333.52343501395643 L 192.1958152697348,330.570629344033 L 204.14444259639455,328.47487141825906 L 204.0427333585744,322.6021826951738 L 206.97862622549596,322.562587367727 L 206.887732570113,316.7613270096494 L 208.6226639615966,318.4589147350576 L 212.5304513222162,323.58136381035143 L 215.91597606696453,325.89900420021627 L 223.22627920706532,327.0538213018031 L 225.05846727101536,326.9668821298886 L 227.25540028617488,328.24945019809576 L 227.39648311964808,328.3317423345837 L 228.60487837731793,331.87221795461903 L 230.8769412303805,333.93598272856894 L 221.88220735353474,334.08049083754764 L 222.00085838169693,339.99049377268915 L 216.15024785103324,340.1048446328752 L 216.396474255106,351.8943530619919 L 210.14906331399868,351.9825859612267 L 192.43791293359112,352.2112481604587 L 192.2340947443894,333.52343501395643 z" id="c27049"/>
		<path d="M 107.55206194183276,334.92064000122775 L 115.16148333482825,335.00621621837576 L 148.95372843472944,334.97108970187116 L 149.03750617849084,335.7386596809225 L 148.41238441562606,337.9868266665345 L 147.9378801145506,338.36710823254066 L 147.81872676214567,339.9368938380634 L 147.3387772247769,340.0800083748051 L 147.72399728746234,340.59405735043345 L 147.41456372042865,341.2687176192081 L 148.83165392917843,342.56735561221615 L 144.33672658738072,348.5607774511238 L 144.99364348466446,349.7377141057933 L 143.3089790169603,355.52617116950165 L 127.42324352263756,348.05737900503794 L 121.60505595527543,341.57577662579945 L 113.10293943041968,339.2058591269178 L 107.55206194183276,334.92064000122775 z" id="c27103"/>
		<path d="M 44.73440815084972,351.6676352979212 L 67.70760538694928,352.1863942549318 L 74.11032759992389,352.261728689984 L 73.75429229452922,375.90191034571063 L 44.757302468596706,375.2712363318387 L 44.152652642234855,375.25953472792537 L 44.73440815084972,351.6676352979212 z" id="c27101"/>
		<path d="M 210.6186647020308,374.64988230049977 L 210.14906331399868,351.9825859612267 L 216.396474255106,351.8943530619919 L 227.72731955133594,351.6930126695841 L 227.87099934795333,357.55506889508536 L 239.58993665789905,357.30226731412034 L 240.08351950674597,374.95215355922204 L 222.6199487950125,375.3138108814758 L 221.93279488197106,376.28912826283306 L 210.8009141996454,376.55342741932753 L 210.0918881271348,375.5574763145875 L 210.6186647020308,374.64988230049977 z" id="c27109"/>
		<path d="M 31.058630494570185,81.07123766248807 L 72.27988227345189,82.08782344590182 L 72.19199073138246,91.30012421965547 L 72.60112981760051,92.44900065605205 L 72.53553473516646,98.33293366536344 L 66.71814178951261,98.10541544996478 L 66.74377611574467,96.16720704804095 L 31.486677869720218,95.39520418935768 L 30.761599227825958,91.42757828716972 L 31.058630494570185,81.07123766248807 z" id="c27113"/>
		<path d="M 103.64590756256922,376.2319925704785 L 127.51532567829875,376.34453206298645 L 133.50652943367328,376.35578485184635 L 133.46561600005106,399.9855820945204 L 126.41023891282717,399.959464522425 L 123.82547551097248,399.95337758579115 L 103.4602033678767,399.8457710218758 L 103.64590756256922,376.2319925704785 z" id="c27091"/>
		<path d="M 74.11032759992389,352.261728689984 L 90.78832718656676,352.5246753964063 L 91.39688088254618,352.5487801305547 L 91.77144169681515,353.55467753856016 L 91.75154939862239,358.46343258665627 L 103.51836676329673,358.5731104903474 L 103.40282374134294,376.23053752375944 L 91.54393369663971,376.1318365145182 L 74.24227537763268,375.9064963605567 L 73.75429229452922,375.90191034571063 L 74.11032759992389,352.261728689984 z" id="c27033"/>
		<path d="M 1.7510901209446206,80.17885352862567 L 31.058630494570185,81.07123766248807 L 30.761599227825958,91.42757828716972 L 31.486677869720218,95.39520418935768 L 31.28514908850792,103.28629088356674 L 37.20063451650084,103.45500305576607 L 37.088597417395896,109.36734055843168 L 60.65638400363364,109.87589628937356 L 60.79128029817306,103.94399704531914 L 66.63048004821509,104.03080457039881 L 66.71814178951261,98.10541544996478 L 72.53553473516646,98.33293366536344 L 72.39023399270346,116.01867013239006 L 73.55770856002107,116.0426240690739 L 73.32410305243276,127.84228318387207 L 49.693394246664276,127.42795466719635 L 13.414522217214635,126.41207491093789 L 13.663974902617852,121.46939503332564 L 12.537314055713377,116.19700004722655 L 12.079586721224432,114.61132287428617 L 10.640923351546368,109.61689855989381 L 7.767432242942842,102.75292167712185 L 6.1061273935934635,96.65171513854631 L 4.887353046946789,90.28568718325945 L 3.3781303764336634,85.80504516908687 L 1.6986032143895626,80.49436335975808 L 1.7510901209446206,80.17885352862567 z" id="c27119"/>
		<path d="M 61.67164207695862,245.82044917591892 L 91.08010800878213,246.33639539071257 L 91.19555927256295,269.86687889789494 L 85.2904642122608,269.77364997188374 L 61.7531769937532,269.43069843552763 L 61.67164207695862,245.82044917591892 z" id="c27121"/>
		<path d="M 38.36165841365758,186.15074094221904 L 43.445548345616324,186.28144435369404 L 43.48097586540685,180.36240727372908 L 86.75074616119674,181.269414598151 L 90.68860125429289,181.2228740381561 L 91.00208805748201,187.18270942090717 L 90.79799740869377,204.90975561725253 L 91.19120741393392,210.7893085229677 L 91.05214230729894,222.71306738130784 L 61.590173481899974,222.21696794140024 L 38.18960814692048,221.6158789440898 L 37.80078509023366,209.8131378634878 L 38.36165841365758,186.15074094221904 z" id="c27111"/>
		<path d="M 186.06305397042604,248.122377896453 L 200.3789412550912,247.9804350546826 L 199.01944968801357,248.97246517053114 L 198.29351168249497,253.8064610663304 L 198.2408524627196,254.15657587506263 L 198.6413495644299,258.6045699937884 L 202.45146027939649,259.25363031752045 L 204.58513021402865,259.57768893251966 L 206.00422294475135,261.7135835271612 L 208.04328292846316,265.2993099310014 L 210.00231611704052,267.5925619761226 L 209.49937787677948,270.4464927114587 L 207.64247158836886,274.5369366710078 L 205.3337010492555,277.3194986096259 L 192.3383525871324,277.48460852486863 L 192.2113188724415,269.6874241041985 L 191.92865651372009,259.8185261865268 L 186.21834917384894,259.83787628459953 L 186.06305397042604,248.122377896453 z" id="c27025"/>
		<path d="M 85.2904642122608,269.77364997188374 L 91.19555927256295,269.86687889789494 L 108.83341895119999,269.9910005157783 L 108.78827252314228,275.8822803443255 L 108.8334559340272,305.35511679630946 L 85.16416467326165,305.1834276380085 L 85.48528779839472,287.453776227438 L 85.14130719139897,281.5899637124158 L 85.2904642122608,269.77364997188374 z" id="c27067"/>
		<path d="M 132.84634572221483,278.8246500564968 L 140.8967067988598,274.8430106631595 L 143.05645879890199,269.37899566679766 L 157.01199587610355,278.01901721459006 L 166.24824372207456,277.5146174387746 L 168.302656176439,281.198473749148 L 161.75021180880043,284.8183650429815 L 162.72846141199986,286.16604452655133 L 162.73442718664458,286.7460034188285 L 162.4220816010635,287.0240416184088 L 162.29970931078427,287.22543966394585 L 161.6395022289176,287.5926935055335 L 161.3670641629009,287.5153230480011 L 160.93324039798048,287.7493107490785 L 156.8490473470754,292.51670040845914 L 156.6275165042045,299.53174465276373 L 144.82496840968784,299.534622977648 L 133.07231707597603,299.5006770246397 L 133.04454904505505,281.8579336551175 L 132.84634572221483,278.8246500564968 z" id="c27171"/>
		<path d="M 279.54069985633845,78.4362014246608 L 285.1145431665314,75.02441752210503 L 287.9634955345898,74.47866055272145 L 289.94564357706196,78.86529848428066 L 291.3940055277439,82.58457355893796 L 294.75859001409344,84.21903498222859 L 300.93180766533584,82.12670307432558 L 305.307673098182,83.04598571991114 L 312.3070922826075,82.86030476362737 L 320.50773116737014,81.8756620029559 L 325.4398353653637,83.28652515266783 L 328.2413790834077,87.71202280030698 L 333.148409160169,89.51601368725326 L 338.4319208844204,86.94432055723793 L 344.1326138314963,87.41930917716948 L 350.30445794783725,86.84822784630931 L 347.4698538788424,89.71882081895255 L 342.7525996156065,91.60431855833977 L 339.3746841423659,94.04698916296701 L 336.92330843175876,96.01163348760225 L 331.09494083260427,98.32882082268021 L 328.8981152901562,100.59502258709254 L 324.5025783650989,102.15048077676883 L 319.3330783241754,104.66318650593237 L 313.2031291063637,106.62976538930539 L 308.7819187439369,108.11308360414793 L 303.5862901941636,110.54371728941743 L 298.6580319355717,113.95986781710688 L 294.71444142908155,116.3020495596284 L 288.83722155527727,121.14431858494908 L 281.9763580704081,127.68179004592226 L 280.914742862158,98.9599733973984 L 279.54069985633845,78.4362014246608 z" id="c27031"/>
		<path d="M 72.60112981760051,92.44900065605205 L 88.72667090767176,92.72508287616647 L 86.42309810622861,99.12565469274807 L 90.22239655435439,102.76113818065977 L 90.33385897771954,134.00142883219456 L 90.89123969587794,139.94364778073177 L 90.776252884753,151.68635112257186 L 73.07622985437146,151.5103823492234 L 73.43637250219106,129.0349698874539 L 73.32410305243276,127.84228318387207 L 73.55770856002107,116.0426240690739 L 72.39023399270346,116.01867013239006 L 72.53553473516646,98.33293366536344 L 72.60112981760051,92.44900065605205 z" id="c27029"/>
		<path d="M 154.0609620418674,214.23483878759365 L 154.7417497482126,213.62636331526414 L 171.96557811970527,213.26975339603223 L 171.97467474322988,219.54583288356477 L 172.06444559795966,231.26526486375303 L 168.01273874749958,231.2783450119419 L 168.3770924128043,248.0797144483102 L 168.6300007339699,259.9979725884988 L 156.76518320929878,260.03074146310524 L 156.4405334108849,242.20808661529438 L 154.17832190103113,231.29300090309982 L 154.11098551249532,219.51152823502318 L 154.0609620418674,214.23483878759365 z" id="c27095"/>
		<path d="M 177.8734863135408,312.0349978866595 L 181.6153298975007,310.6048502766433 L 184.17677093394119,307.14025684369886 L 185.08953558899677,305.33922865115323 L 189.03725302439142,302.91014060188553 L 192.7377160253421,305.0642888695694 L 193.26856373948152,308.09613517068505 L 193.05666699754602,312.88271997727935 L 203.89200695365253,313.8247558106 L 206.887732570113,316.7613270096494 L 206.97862622549596,322.562587367727 L 204.0427333585744,322.6021826951738 L 204.14444259639455,328.47487141825906 L 192.1958152697348,330.570629344033 L 192.2340947443894,333.52343501395643 L 180.4560790862491,333.6768182710963 L 180.4043442034566,328.78973536921 L 180.49481757408756,322.89343073416313 L 178.4773959045659,317.0222574868238 L 177.8734863135408,312.0349978866595 z" id="c27037"/>
		<path d="M 25.74768872107912,351.16206434316643 L 25.747731827403204,351.16056739851393 L 44.01153890761651,351.6377618857367 L 44.73440815084972,351.6676352979212 L 44.152652642234855,375.25953472792537 L 25.068493859780922,374.74349316299043 L 25.74768872107912,351.16206434316643 z" id="c27117"/>
		<path d="M 26.50186249917185,321.65606680184305 L 43.99509573519575,322.1607846929377 L 44.46599119938822,328.1062261859783 L 44.01153890761651,351.6377618857367 L 25.747731827403204,351.16056739851393 L 26.06707273207905,340.06980993429517 L 26.36118050545856,327.6106781927146 L 26.50186249917185,321.65606680184305 z" id="c27081"/>
		<path d="M 126.81921978211463,214.02361755391658 L 129.0483646289285,211.34194623495574 L 129.57835068531375,187.34097471194934 L 129.03244955504294,175.49766391173267 L 155.46868713790067,175.6132264155518 L 153.89819486770227,190.47167195199359 L 154.07566292318285,213.10547481528513 L 154.7417497482126,213.62636331526414 L 154.0609620418674,214.23483878759365 L 154.11098551249532,219.51152823502318 L 127.48577311190776,219.52998537907226 L 126.81921978211463,214.02361755391658 z" id="c27035"/>
		<path d="M 14.752811911426443,185.54970678421031 L 38.36165841365758,186.15074094221904 L 37.80078509023366,209.8131378634878 L 38.18960814692048,221.6158789440898 L 38.00270265494318,227.52066925031394 L 23.507136394800288,227.1044026800084 L 24.48990525887897,222.91542330109394 L 22.818945450973143,213.63606296777462 L 22.766882161380227,206.8610838644655 L 20.671586834074905,204.15245691056907 L 17.929308647125136,198.85098374399794 L 16.550269273297314,189.9301639230786 L 14.752811911426443,185.54970678421031 z" id="c27167"/>
		<path d="M 192.3383525871324,277.48460852486863 L 205.3337010492555,277.3194986096259 L 204.69618778286517,278.0868650868048 L 204.5890735261321,283.17699478967575 L 204.56768980030498,284.1900979269746 L 205.76894554929618,289.01984078733335 L 205.94186160380357,289.714103850722 L 203.00143611564175,293.02863399657633 L 205.02930990100984,295.9072511121201 L 205.6678818967341,301.39001277014086 L 204.98685363880674,306.80878345915676 L 204.9828978354528,306.84020738350824 L 204.92163215664118,307.3268112724918 L 203.25503544694695,313.1994900643347 L 203.89200695365253,313.8247558106 L 193.05666699754602,312.88271997727935 L 193.26856373948152,308.09613517068505 L 192.7377160253421,305.0642888695694 L 194.4681551191924,305.0326765018736 L 194.19497937070707,289.2253739663718 L 192.46911156482756,289.2359863550865 L 192.3383525871324,277.48460852486863 z" id="c27163"/>
		<path d="M 133.50652943367328,376.35578485184635 L 157.07583174243555,376.2829262019066 L 162.94979370655548,376.2302986004796 L 163.11771323573006,399.91610435918915 L 147.17826639582555,400.0 L 133.46561600005106,399.9855820945204 L 133.50652943367328,376.35578485184635 z" id="c27043"/>
		<path d="M 13.414522217214635,126.41207491093789 L 49.693394246664276,127.42795466719635 L 49.17758890639406,151.01542545720957 L 43.26564210053032,150.9201220149589 L 13.99659813749774,150.12596320168348 L 13.753278894655383,144.17538640484466 L 13.645218922101165,141.5213795362538 L 13.213262986576854,130.39639219046754 L 13.414522217214635,126.41207491093789 z" id="c27107"/>
		<path d="M 144.82496840968784,299.534622977648 L 156.6275165042045,299.53174465276373 L 156.67929668101212,305.44660490457494 L 168.5701225472595,305.312142912163 L 168.6379680398414,311.2362706497618 L 165.82835488935473,311.93279483475794 L 165.08562806366422,313.17221276132426 L 163.96667628680106,317.87555668101163 L 156.73466279534182,322.4627409684901 L 156.71429657916045,320.206890085142 L 150.8674285513763,320.2455437349842 L 150.86335790584795,317.28209617250275 L 144.96257880413475,317.27595482327877 L 144.82496840968784,299.534622977648 z" id="c27019"/>
		<path d="M 0.08715886690643512,23.82180419887203 L 13.415789153633446,24.346084483205875 L 36.923087008326185,25.06400395283541 L 36.42136539419378,44.2965299185561 L 36.87296425978435,56.05897352488722 L 2.5873258605162626,54.99704316125885 L 2.9031542114397917,52.298177503731885 L 5.043173358685124,46.647873166840995 L 4.199613135184461,43.510354245734504 L 2.9376190603437426,39.44930847254385 L 1.6152763280574198,32.93635560810349 L 0.0,27.549716918271685 L 0.08715886690643512,23.82180419887203 z" id="c27069"/>
		<path d="M 108.31701767519863,175.52298513790555 L 114.24790916916714,175.5738608069177 L 113.98742142383426,134.38164775363157 L 125.69254986634188,134.31093577675165 L 125.70223594848434,132.06933915860594 L 129.79018787642298,134.04456897182195 L 140.49842234460715,129.81883956852698 L 143.60920032398707,134.5218048763982 L 143.65455986226743,138.3499623295932 L 147.99937640386293,141.57115273450992 L 150.07678112113493,140.59651543213815 L 155.35763587387845,141.50573202146808 L 153.7767050395507,146.43542704542025 L 155.39959781623128,147.87197435000468 L 155.4118332087114,160.16038610084948 L 155.46868713790067,175.6132264155518 L 129.03244955504294,175.49766391173267 L 129.57835068531375,187.34097471194934 L 129.0483646289285,211.34194623495574 L 125.0614740766766,207.62542050729994 L 119.96498829806764,209.61646707622978 L 114.39268431962273,206.47662600878715 L 111.40005953001521,206.2775077574749 L 110.73402127216839,205.1029921590326 L 108.50443340272453,203.34963783949527 L 108.31701767519863,175.52298513790555 z" id="c27021"/>
		<path d="M 90.33385897771954,134.00142883219456 L 108.00548541552078,134.36559561250093 L 113.98742142383426,134.38164775363157 L 114.24790916916714,175.5738608069177 L 108.31701767519863,175.52298513790555 L 90.78946369156733,175.30975593274576 L 90.776252884753,151.68635112257186 L 90.89123969587794,139.94364778073177 L 90.33385897771954,134.00142883219456 z" id="c27057"/>
		<path d="M 125.25444982725281,46.881799787561974 L 127.11732961134798,45.95837778228002 L 131.93411933281007,46.41844385174939 L 133.3124419625304,47.89696007137996 L 133.3564684548786,49.745709190093834 L 140.5179180989294,50.59888598467281 L 147.92127007704272,51.422772301015456 L 151.6621899178647,51.52963760943714 L 153.4305635451359,55.5379563867358 L 152.99987895630224,58.5174777488511 L 159.35420427973008,59.17113423365918 L 164.42793100650806,58.27406314539653 L 168.68617097632819,57.094610484345175 L 168.79932252353902,53.95731894696939 L 172.99023240555397,53.00948071127103 L 174.03883986423187,51.533476114818114 L 180.33987014993244,50.378124095980326 L 183.28397642874253,51.531476373157396 L 185.71415836003052,51.3681366835613 L 185.9054700993314,89.36542882471792 L 186.78011841565083,101.31082698163233 L 155.03464919264374,101.15900298918747 L 155.03768540702814,104.72951041298377 L 125.65587308679213,104.82608780921848 L 125.70484479864999,98.89455073149503 L 125.27116405243132,69.38265971527683 L 125.25444982725281,46.881799787561974 z" id="c27071"/>
		<path d="M 162.94979370655548,376.2302986004796 L 174.8307091450263,376.1232045604312 L 192.3877604177435,375.8747208956134 L 192.76346349517902,399.57730636342 L 183.8766007241409,399.70132002330485 L 170.5959877702125,399.85250086962907 L 166.6696057101191,399.8885738896112 L 163.11771323573006,399.91610435918915 L 162.94979370655548,376.2302986004796 z" id="c27047"/>
		<path d="M 185.77427976881484,231.1253733095161 L 189.92943820298987,231.04950157155716 L 189.80532734590312,219.03869074424802 L 189.4916990497862,201.30786362823739 L 225.27831590780312,200.73480797443534 L 225.52841596671422,212.49199003747012 L 225.6638745693853,218.3792680319997 L 225.79340204910864,224.01005274771813 L 223.74130597168931,225.56998288133272 L 223.1615751979725,228.0606839973792 L 221.22002263345288,227.84488099537612 L 218.5533723780546,229.08069411840094 L 217.5037045488985,231.09448166572687 L 214.0561393875955,231.36274966405466 L 212.4390062193976,233.01827892350602 L 208.89034703177785,234.57253997919534 L 205.86385097305387,237.39212271124757 L 204.10839432635416,240.7170340002999 L 203.35709542874233,243.809466066575 L 201.07041914324313,247.47547010886595 L 200.3789412550912,247.9804350546826 L 186.06305397042604,248.122377896453 L 185.77427976881484,231.1253733095161 z" id="c27115"/>
		<path d="M 221.93279488197106,376.28912826283306 L 222.6199487950125,375.3138108814758 L 240.08351950674597,374.95215355922204 L 257.22983405065446,374.454182328882 L 257.98833979993475,397.9683914264184 L 253.30958047454078,398.1146073676099 L 240.70322720765265,398.47899169424585 L 235.80479151064884,398.60962455415864 L 222.44915810512063,398.9564140211632 L 221.93279488197106,376.28912826283306 z" id="c27045"/>
		<path d="M 91.0882879195695,245.35013625888558 L 114.64396269999261,245.50477006594951 L 120.85399028347878,245.50133906982938 L 132.33036731835435,245.46576855922297 L 136.57073665520764,251.95796212583033 L 135.57285320408204,256.03448610267236 L 138.16060839977683,260.13954794184735 L 138.52341230536734,264.60867756727197 L 143.05645879890199,269.37899566679766 L 140.8967067988598,274.8430106631595 L 132.84634572221483,278.8246500564968 L 126.96779934564758,278.89697964671814 L 126.95869481292551,275.91389846627794 L 114.67904821047414,275.9497521020429 L 108.78827252314228,275.8822803443255 L 108.83341895119999,269.9910005157783 L 91.19555927256295,269.86687889789494 L 91.08010800878213,246.33639539071257 L 91.0882879195695,245.35013625888558 z" id="c27145"/>
		<path d="M 47.52161592353081,286.8019833774817 L 85.48528779839472,287.453776227438 L 85.16416467326165,305.1834276380085 L 73.85081696597415,305.06466792552277 L 73.70694972854817,314.4494314409376 L 73.00932471404084,311.92841818204016 L 61.6580884418883,301.77664781811404 L 58.41624022311775,300.8207566996523 L 57.48676905092984,298.24260609863114 L 47.52161592353081,286.8019833774817 z" id="c27023"/>
		<path d="M 36.923087008326185,25.06400395283541 L 56.16047110222933,25.535385593911787 L 84.54521394388377,26.124709448192792 L 85.48818595917322,26.1363255088942 L 86.24628803859795,32.5768108284931 L 89.1603138744424,34.16261633894926 L 95.65316453653806,31.573675143146875 L 95.57525718636597,45.687547227444234 L 84.19805904551043,45.55105071222643 L 84.04454039976116,57.2996364037744 L 72.31701130646283,57.208642760291546 L 36.87296425978435,56.05897352488722 L 36.42136539419378,44.2965299185561 L 36.923087008326185,25.06400395283541 z" id="c27135"/>
		<path d="M 239.58993665789905,357.30226731412034 L 239.4423659562282,351.4637348144029 L 250.41245004449036,350.85790104567945 L 252.29824697813862,353.0424892056741 L 257.1746161591617,355.2942841714113 L 260.80206040385536,359.57710728535073 L 264.5390762867037,361.9815572768038 L 265.2344051309348,362.1409470328215 L 271.1029452393846,363.4806830285651 L 271.9761366381022,364.6190904111785 L 275.38477121393464,369.0551099812547 L 278.8082222185849,373.3134519429175 L 278.9870283433158,373.6921147072564 L 257.22983405065446,374.454182328882 L 240.08351950674597,374.95215355922204 L 239.58993665789905,357.30226731412034 z" id="c27169"/>
		<path d="M 156.6275165042045,299.53174465276373 L 156.8490473470754,292.51670040845914 L 160.93324039798048,287.7493107490785 L 161.3670641629009,287.5153230480011 L 161.6395022289176,287.5926935055335 L 162.29970931078427,287.22543966394585 L 162.4220816010635,287.0240416184088 L 162.73442718664458,286.7460034188285 L 162.72846141199986,286.16604452655133 L 161.75021180880043,284.8183650429815 L 168.302656176439,281.198473749148 L 168.7571588016751,281.25776130309623 L 172.89731188034537,283.3097662697737 L 175.47003431928536,285.7741711778684 L 178.4635551003111,288.0753902691456 L 179.22410786945827,289.56321160326837 L 180.0934201049046,290.8002557532862 L 180.0000745558323,292.9507601653762 L 182.6244232998058,295.3656833386015 L 183.5312798595652,295.3489034491654 L 184.01891508934906,303.954760462632 L 185.08953558899677,305.33922865115323 L 184.17677093394119,307.14025684369886 L 181.6153298975007,310.6048502766433 L 177.8734863135408,312.0349978866595 L 172.61278512158293,310.6037410117328 L 168.6379680398414,311.2362706497618 L 168.5701225472595,305.312142912163 L 156.67929668101212,305.44660490457494 L 156.6275165042045,299.53174465276373 z" id="c27053"/>
		<path d="M 128.46975463035992,242.2876543130437 L 156.4405334108849,242.20808661529438 L 156.76518320929878,260.03074146310524 L 138.16060839977683,260.13954794184735 L 135.57285320408204,256.03448610267236 L 136.57073665520764,251.95796212583033 L 132.33036731835435,245.46576855922297 L 128.46975463035992,242.2876543130437 z" id="c27009"/>
		<path d="M 73.85081696597415,305.06466792552277 L 85.16416467326165,305.1834276380085 L 108.8334559340272,305.35511679630946 L 121.1812831654101,305.4009574497022 L 121.38788316137503,306.7448191738269 L 121.35261925023855,317.294576439351 L 114.98900397081532,317.3038663234774 L 115.16148333482825,335.00621621837576 L 107.55206194183276,334.92064000122775 L 105.89943098265492,333.02100381813614 L 103.42974602074695,332.06746159010623 L 102.73441869014441,330.80029759056276 L 90.53398198925704,325.2739781185252 L 85.18065960845605,320.4142177571002 L 79.59106346996019,318.2018233587426 L 76.93035974732274,315.7208223987026 L 73.70694972854817,314.4494314409376 L 73.85081696597415,305.06466792552277 z" id="c27129"/>
		<path d="M 127.42324352263756,348.05737900503794 L 143.3089790169603,355.52617116950165 L 144.99364348466446,349.7377141057933 L 156.90075057421652,349.6928242017522 L 156.9216827696254,352.65082245144043 L 157.07583174243555,376.2829262019066 L 133.50652943367328,376.35578485184635 L 127.51532567829875,376.34453206298645 L 127.54799298157708,358.63731423292126 L 127.42324352263756,348.05737900503794 z" id="c27013"/>
		<path d="M 61.590173481899974,222.21696794140024 L 91.05214230729894,222.71306738130784 L 91.0882879195695,245.35013625888558 L 91.08010800878213,246.33639539071257 L 61.67164207695862,245.82044917591892 L 61.590173481899974,222.21696794140024 z" id="c27041"/>
		<path d="M 2.5623602029537884,55.2102602549957 L 2.5873258605162626,54.99704316125885 L 36.87296425978435,56.05897352488722 L 72.31701130646283,57.208642760291546 L 72.27988227345189,82.08782344590182 L 31.058630494570185,81.07123766248807 L 1.7510901209446206,80.17885352862567 L 1.981231274474303,78.79489750582366 L 2.701102382243361,74.46036606482866 L 2.536413612487335,68.55268953959293 L 2.6920018732208035,62.71252172347642 L 2.4954154461717715,55.78190724568466 L 2.5623602029537884,55.2102602549957 z" id="c27089"/>
		<path d="M 43.99509573519575,322.1607846929377 L 67.70229209564268,322.6760474763921 L 68.04657289046239,328.63499165435894 L 67.70760538694928,352.1863942549318 L 44.73440815084972,351.6676352979212 L 44.01153890761651,351.6377618857367 L 44.46599119938822,328.1062261859783 L 43.99509573519575,322.1607846929377 z" id="c27083"/>
		<path d="M 31.486677869720218,95.39520418935768 L 66.74377611574467,96.16720704804095 L 66.71814178951261,98.10541544996478 L 66.63048004821509,104.03080457039881 L 60.79128029817306,103.94399704531914 L 60.65638400363364,109.87589628937356 L 37.088597417395896,109.36734055843168 L 37.20063451650084,103.45500305576607 L 31.28514908850792,103.28629088356674 L 31.486677869720218,95.39520418935768 z" id="c27125"/>
		<path d="M 185.71415836003052,51.3681366835613 L 191.728629488476,50.956712186666316 L 194.48328368134915,53.39782270472192 L 202.06979294286688,57.042299085491756 L 206.26769905895185,56.71552344565568 L 206.48793822470202,59.06514254311042 L 205.37094449893175,61.89847653305527 L 209.09046377722214,63.59554878754886 L 211.8253012684795,63.02767682380941 L 214.52655465688753,65.28670318708531 L 214.005504930253,69.53897512953297 L 216.52483679192602,73.31423582249755 L 218.78229689004303,78.37353674766439 L 221.22368185427038,76.93738056052702 L 222.02288022118532,74.36200108509198 L 221.95761132765526,71.24698177430749 L 223.4061866355036,69.10476615862561 L 227.925468585038,68.42097621004476 L 232.77502328770578,68.56631683382324 L 235.3429182535389,71.06855299151209 L 236.36345326076156,76.04087504530717 L 240.3452962324382,76.6114628298366 L 244.77771396165664,78.64753760541832 L 245.69028948978652,110.81748208919811 L 246.59418411016102,123.38884699491511 L 247.58727453966938,164.40759547791066 L 247.00857295587616,165.0406919437668 L 242.46092857727913,168.06531380185842 L 237.59510614838,172.11342265054662 L 235.38264993700068,174.19233471851422 L 237.75109548581696,180.75499469059855 L 236.08429054542827,180.5266445167195 L 233.73170845982133,178.96555749567224 L 231.7258891453911,179.21308717323464 L 229.9346543501626,181.7301001053778 L 228.94173497207638,183.82787973467367 L 224.89204307363775,184.03205111849599 L 224.28023067399587,177.19324754806937 L 188.82405900811037,177.73132668842027 L 188.81864542349817,160.08033593088516 L 187.8170519816649,135.13018160084414 L 187.86476311844058,112.96121500030368 L 186.78011841565083,101.31082698163233 L 185.9054700993314,89.36542882471792 L 185.71415836003052,51.3681366835613 z" id="c27137"/>
		<path d="M 150.23160276303705,326.0730252191568 L 156.73466279534182,322.4627409684901 L 163.96667628680106,317.87555668101163 L 165.08562806366422,313.17221276132426 L 165.82835488935473,311.93279483475794 L 168.6379680398414,311.2362706497618 L 172.61278512158293,310.6037410117328 L 177.8734863135408,312.0349978866595 L 178.4773959045659,317.0222574868238 L 180.49481757408756,322.89343073416313 L 180.4043442034566,328.78973536921 L 176.70424218286092,328.8298728326634 L 168.6117909495578,328.93888408943127 L 149.85987952218713,329.09589146906706 L 150.23160276303705,326.0730252191568 z" id="c27139"/>
		<path d="M 84.19805904551043,45.55105071222643 L 95.57525718636597,45.687547227444234 L 95.65316453653806,31.573675143146875 L 89.1603138744424,34.16261633894926 L 86.24628803859795,32.5768108284931 L 85.48818595917322,26.1363255088942 L 92.92430270673498,26.219136559351604 L 93.08655763160765,13.570197949189444 L 93.18214454052982,5.107310888741464 L 93.24110668679985,0.0 L 97.43506542417947,2.1674526154441836 L 100.53374590515082,1.1276255391600958 L 102.16854303885576,1.1573305395450408 L 105.42207617184181,3.5991376966406627 L 108.18311568594942,4.450433282271934 L 108.9769678876878,11.715375566232682 L 109.96246726516239,17.796087645553065 L 111.02333520484184,19.519207020641595 L 110.98061229917674,26.30509927186206 L 112.38062499227112,26.313732674983747 L 113.9423000418676,34.215973965446835 L 113.80876753999178,37.19451346433711 L 113.40198860635283,40.64447771707575 L 116.7688388551197,44.196159298880644 L 121.71450136784608,46.732383346259304 L 124.51527357000202,47.247800918839935 L 125.25444982725281,46.881799787561974 L 125.27116405243132,69.38265971527683 L 89.84075983910957,69.22033762614518 L 89.9385263694888,57.39308053393249 L 84.04454039976116,57.2996364037744 L 84.19805904551043,45.55105071222643 z" id="c27077"/>
		<path d="M 72.31701130646283,57.208642760291546 L 84.04454039976116,57.2996364037744 L 89.9385263694888,57.39308053393249 L 89.84075983910957,69.22033762614518 L 125.27116405243132,69.38265971527683 L 125.70484479864999,98.89455073149503 L 125.65587308679213,104.82608780921848 L 125.70223594848434,132.06933915860594 L 125.69254986634188,134.31093577675165 L 113.98742142383426,134.38164775363157 L 108.00548541552078,134.36559561250093 L 90.33385897771954,134.00142883219456 L 90.22239655435439,102.76113818065977 L 86.42309810622861,99.12565469274807 L 88.72667090767176,92.72508287616647 L 72.60112981760051,92.44900065605205 L 72.19199073138246,91.30012421965547 L 72.27988227345189,82.08782344590182 L 72.31701130646283,57.208642760291546 z" id="c27007"/>
		<path d="M 153.89819486770227,190.47167195199359 L 155.46868713790067,175.6132264155518 L 155.4118332087114,160.16038610084948 L 188.81864542349817,160.08033593088516 L 188.82405900811037,177.73132668842027 L 189.4916990497862,201.30786362823739 L 189.80532734590312,219.03869074424802 L 171.97467474322988,219.54583288356477 L 171.96557811970527,213.26975339603223 L 154.7417497482126,213.62636331526414 L 154.07566292318285,213.10547481528513 L 153.89819486770227,190.47167195199359 z" id="c27001"/>
		<path d="M 49.693394246664276,127.42795466719635 L 73.32410305243276,127.84228318387207 L 73.43637250219106,129.0349698874539 L 73.07622985437146,151.5103823492234 L 49.17758890639406,151.01542545720957 L 49.693394246664276,127.42795466719635 z" id="c27087"/>
		<path d="M 257.22983405065446,374.454182328882 L 278.9870283433158,373.6921147072564 L 281.3250413928432,378.63647502491534 L 280.8048901200969,381.878141650704 L 280.15539476184796,385.9166928095969 L 281.3275622677326,390.3779142894939 L 282.4120138764865,392.752125427325 L 283.32509127844,397.0892297941114 L 269.8128543055507,397.57392040099296 L 263.8905863115936,397.77595814930066 L 257.98833979993475,397.9683914264184 L 257.22983405065446,374.454182328882 z" id="c27055"/>
		<path d="M 74.24227537763268,375.9064963605567 L 91.54393369663971,376.1318365145182 L 103.40282374134294,376.23053752375944 L 103.64590756256922,376.2319925704785 L 103.4602033678767,399.8457710218758 L 102.48673929203909,399.837976324046 L 100.48944968977622,399.81908399624984 L 85.63452419016548,399.6466183446719 L 77.08468566314022,399.56073139247565 L 73.78820975153704,399.52263235329013 L 74.24227537763268,375.9064963605567 z" id="c27063"/>
		<path d="M 108.78827252314228,275.8822803443255 L 114.67904821047414,275.9497521020429 L 126.95869481292551,275.91389846627794 L 126.96779934564758,278.89697964671814 L 132.84634572221483,278.8246500564968 L 133.04454904505505,281.8579336551175 L 133.07231707597603,299.5006770246397 L 121.22477742393835,299.46576505356376 L 121.1812831654101,305.4009574497022 L 108.8334559340272,305.35511679630946 L 108.78827252314228,275.8822803443255 z" id="c27093"/>
		<path d="M 244.77771396165664,78.64753760541832 L 245.5201980873856,78.98783686784063 L 248.5317105326652,78.98121101734597 L 249.73156973425262,84.36885633250897 L 255.81030468671187,84.91957599879949 L 256.7004388302459,88.62914105799038 L 260.17496866607036,87.59051331371434 L 266.03647357402133,87.18530409054637 L 269.9348958608398,86.05634350568829 L 274.062673962874,82.0624861526074 L 279.4070881534309,78.51780016348897 L 279.54069985633845,78.4362014246608 L 280.914742862158,98.9599733973984 L 281.9763580704081,127.68179004592226 L 276.4984240905888,133.57761743814206 L 271.4325907384947,140.71813880870764 L 265.9067646214082,147.17550918360098 L 262.78533870198794,150.55871571406198 L 257.48587800961246,154.08815658300477 L 254.34752977213645,158.50314421745819 L 250.14623318187986,161.6043326619353 L 247.58727453966938,164.40759547791066 L 246.59418411016102,123.38884699491511 L 245.69028948978652,110.81748208919811 L 244.77771396165664,78.64753760541832 z" id="c27075"/>
		<path d="M 168.3770924128043,248.0797144483102 L 186.06305397042604,248.122377896453 L 186.21834917384894,259.83787628459953 L 191.92865651372009,259.8185261865268 L 192.2113188724415,269.6874241041985 L 168.7515713149218,269.7736134881949 L 168.6300007339699,259.9979725884988 L 168.3770924128043,248.0797144483102 z" id="c27059"/>
		<path d="M 114.98900397081532,317.3038663234774 L 121.35261925023855,317.294576439351 L 121.34565100226106,323.22013725757546 L 133.13621268645454,323.2124480002206 L 133.16770249222398,317.2669302562573 L 144.96257880413475,317.27595482327877 L 150.86335790584795,317.28209617250275 L 150.8674285513763,320.2455437349842 L 156.71429657916045,320.206890085142 L 156.73466279534182,322.4627409684901 L 150.23160276303705,326.0730252191568 L 149.85987952218713,329.09589146906706 L 151.08072722077026,330.7364045700967 L 148.95372843472944,334.97108970187116 L 115.16148333482825,335.00621621837576 L 114.98900397081532,317.3038663234774 z" id="c27143"/>
		<path d="M 192.2057724609293,352.2154638041231 L 192.43791293359112,352.2112481604587 L 210.14906331399868,351.9825859612267 L 210.6186647020308,374.64988230049977 L 210.0918881271348,375.5574763145875 L 192.56265505780476,375.87043521835034 L 192.2057724609293,352.2154638041231 z" id="c27039"/>
		<path d="M 182.5096110917061,289.3322714421092 L 192.46911156482756,289.2359863550865 L 194.19497937070707,289.2253739663718 L 194.4681551191924,305.0326765018736 L 192.7377160253421,305.0642888695694 L 189.03725302439142,302.91014060188553 L 185.08953558899677,305.33922865115323 L 184.01891508934906,303.954760462632 L 183.5312798595652,295.3489034491654 L 182.6244232998058,295.3656833386015 L 182.60565281895978,294.39707000254754 L 182.5096110917061,289.3322714421092 z" id="c27123"/>
		<path d="M 26.78154351404609,309.8277239447612 L 56.06249970545911,310.54477763856454 L 56.25616430700795,304.67643641791375 L 61.571703890842564,304.80169619649973 L 61.6580884418883,301.77664781811404 L 73.00932471404084,311.92841818204016 L 73.70694972854817,314.4494314409376 L 76.93035974732274,315.7208223987026 L 79.59106346996019,318.2018233587426 L 79.43099342991388,328.8483386123355 L 68.04657289046239,328.63499165435894 L 67.70229209564268,322.6760474763921 L 43.99509573519575,322.1607846929377 L 26.50186249917185,321.65606680184305 L 26.78154351404609,309.8277239447612 z" id="c27173"/>
		<path d="M 10.119531063460958,256.29326609264854 L 37.87408556670096,257.13836315794674 L 38.13657732525357,268.8864507256147 L 44.07820351805478,269.0769797870809 L 43.75375471414956,280.7663836138467 L 44.34603757753536,285.06695509757384 L 34.50111541416359,279.73440445483294 L 27.526811847402815,278.37115781652346 L 27.589172461884054,275.7431303303279 L 27.03670959516551,274.4241059080392 L 26.476495063417396,273.0855023338547 L 24.655933433610198,271.0384263958807 L 22.74611882541249,270.2735893526365 L 20.132272374943817,268.70166764484503 L 17.377124225722003,268.47398238673486 L 15.744057413386079,266.6087442776902 L 14.317545797511313,263.72483585418615 L 12.602239275286404,259.78106066871186 L 10.119531063460958,256.29326609264854 z" id="c27011"/>
		<path d="M 168.6117909495578,328.93888408943127 L 176.70424218286092,328.8298728326634 L 180.4043442034566,328.78973536921 L 180.4560790862491,333.6768182710963 L 192.2340947443894,333.52343501395643 L 192.43791293359112,352.2112481604587 L 192.2057724609293,352.2154638041231 L 186.5193480439683,352.3077927301217 L 174.58256828825398,352.4662947460687 L 168.78385193413055,352.5402092204026 L 168.6117909495578,328.93888408943127 z" id="c27131"/>
		<path d="M 9.421696710316676,254.0091567726058 L 10.71098846966444,251.69028821429174 L 14.67112191434574,248.596047028493 L 18.179054589826194,246.61528568583913 L 20.282237672487298,243.3624673291354 L 22.414884339487674,241.0287794722343 L 23.24758281364156,237.28975920502864 L 23.762055596008828,232.99798753462252 L 23.422413335640595,227.46513092500794 L 23.507136394800288,227.1044026800084 L 38.00270265494318,227.52066925031394 L 38.44279891502935,233.43875378260063 L 38.12602958982422,245.3058764888241 L 37.87408556670096,257.13836315794674 L 10.119531063460958,256.29326609264854 L 9.730190169510974,255.7455557419858 L 9.421696710316676,254.0091567726058 z" id="c27155"/>
		<path d="M 216.15024785103324,340.1048446328752 L 222.00085838169693,339.99049377268915 L 221.88220735353474,334.08049083754764 L 230.8769412303805,333.93598272856894 L 231.51919834587295,334.5187241632281 L 237.4811087666978,336.50153873736065 L 238.79080661280338,337.10013056535684 L 244.75993146461326,339.8203069988988 L 247.15715064071392,342.74147754366174 L 248.47811820036222,348.6136624793812 L 250.41245004449036,350.85790104567945 L 239.4423659562282,351.4637348144029 L 239.58993665789905,357.30226731412034 L 227.87099934795333,357.55506889508536 L 227.72731955133594,351.6930126695841 L 216.396474255106,351.8943530619919 L 216.15024785103324,340.1048446328752 z" id="c27157"/>
	</g>
</svg>