<?xml version="1.0" encoding="UTF-8"?>
<svg baseProfile="full" fill="#d0d0d0" height="400.0" stroke="#ffffff" stroke-width="1" version="1.1" width="245.82655333859458" xmlns="http://www.w3.org/2000/svg" xmlns:ev="http://www.w3.org/2001/xml-events" xmlns:xlink="http://www.w3.org/1999/xlink">
	<defs/>
	<g id="counties"><path d="M 65.43608966769068,230.9269348802133 L 67.12112551212975,220.8595231764981 L 71.97801196257112,218.5805975019392 L 77.78609396820163,207.57682018415926 L 80.0026946984377,207.9506739255372 L 85.07331294592149,202.1065372235107 L 85.0777089051238,209.17635169253646 L 99.54887995978373,209.2494583350229 L 99.54631981980039,216.48856268558643 L 107.99469417876153,216.53030208149409 L 112.05399561609171,216.51478104822183 L 105.54501380598583,225.8657363448109 L 104.06086418953798,226.7444461569506 L 103.00440955965246,234.05695025642567 L 98.78629814601511,237.09688451552498 L 100.51766958704519,245.49525948621073 L 66.11042056797702,245.5642519267654 L 65.43608966769068,230.9269348802133 z" id="c28049"/>
		<path d="M 196.8514560905206,53.03470630290341 L 199.12719231797126,42.21575383652225 L 202.74213593840767,41.00133623258603 L 216.0936591195828,40.754234309027694 L 216.13544811610947,44.39245997972127 L 216.5966252966798,75.55857512103907 L 204.94287991040574,75.73673025399954 L 204.51351451833804,76.96306187722612 L 197.23745755030356,77.03882101861134 L 196.8514560905206,53.03470630290341 z" id="c28081"/>
		<path d="M 35.1230394268752,281.6782175558192 L 64.63375193904548,281.7560904060308 L 72.008751589011,281.75624224536267 L 71.94440085566859,303.4536233547661 L 44.61229032772794,303.48077861106145 L 41.21659043807072,304.1712252332271 L 39.09911166196426,305.6406484508231 L 37.494819846485164,305.6841136296217 L 34.65547047362668,303.479351651697 L 35.1230394268752,281.6782175558192 z" id="c28037"/>
		<path d="M 134.76620776612165,1.5462956547343645 L 140.23724368382074,1.520693693238167 L 154.49021420519773,1.433353257565976 L 160.09819709874813,1.3605528262866295 L 160.21783586376304,13.749182224661636 L 163.86976976551554,13.713901509277738 L 164.1535829949849,35.372197628936284 L 167.76271803086394,35.30873230312981 L 167.80735827377958,42.564856600089605 L 162.34456047939543,40.13721143156322 L 155.56113653815828,40.739442509596365 L 151.95912455301175,37.868562743096696 L 138.81539377087003,37.951074388477224 L 138.69344545804285,27.082264346622676 L 135.05712912114902,27.11299544898261 L 134.93765226350658,19.923554535022113 L 134.76620776612165,1.5462956547343645 z" id="c28093"/>
		<path d="M 208.5618711459167,123.9843815531389 L 222.30993896731422,122.23624345826282 L 219.26862308663715,111.87098541004275 L 226.66955470580612,109.82015156794614 L 232.19315525620783,103.72830199731031 L 237.50385547537405,103.67951031277539 L 237.16168849472223,107.50890198439653 L 236.04368778610797,121.18534799712012 L 234.36476017303713,141.57543891380342 L 209.00310654729392,142.14003041176974 L 208.5618711459167,123.9843815531389 z" id="c28087"/>
		<path d="M 100.22654060504492,25.870786149077418 L 102.3591157902754,24.010788139551686 L 104.31820744297852,21.142829314204537 L 113.99858056808209,25.349505909959618 L 122.03677110626046,19.973603940132097 L 134.93765226350658,19.923554535022113 L 135.05712912114902,27.11299544898261 L 138.69344545804285,27.082264346622676 L 138.81539377087003,37.951074388477224 L 135.19095876761915,37.98168504693333 L 102.48515606438866,38.090057817720414 L 99.64690252162845,32.145586547271854 L 100.22654060504492,25.870786149077418 z" id="c28137"/>
		<path d="M 172.288643094125,99.1669767033638 L 175.8944217814061,99.09007133401678 L 175.5532579694807,77.39436892168882 L 197.23745755030356,77.03882101861134 L 204.51351451833804,76.96306187722612 L 204.78638882192155,98.76333772148921 L 190.183922018892,98.8907347157383 L 190.21976327613643,103.69991137520384 L 183.11708985226085,105.02565873306939 L 172.23535752591002,105.22297368134878 L 172.288643094125,99.1669767033638 z" id="c28017"/>
		<path d="M 64.76153856571442,267.26813090029975 L 66.15729573976166,262.4343208073663 L 66.11042056797702,245.5642519267654 L 100.51766958704519,245.49525948621073 L 109.22613166888411,268.00378532542425 L 108.16412862553535,270.07597244163173 L 103.01300146536536,272.1343931280766 L 99.4922293069203,272.99826120760594 L 89.99328309951105,275.67651063367003 L 87.53155351457461,274.41162506067604 L 64.69633043926493,274.5235796844176 L 64.76153856571442,267.26813090029975 z" id="c28029"/>
		<path d="M 177.52635105261996,296.0119692070813 L 191.9106050346248,295.8924180432845 L 199.1342727965286,295.7773806392764 L 199.6694192389576,331.14083979454597 L 200.14656307839599,331.8440492475729 L 200.2345355099575,339.1013830058187 L 196.62477634690404,339.11058201827274 L 178.57178689756822,339.39999649057387 L 177.90592742835818,331.9085915441195 L 177.52635105261996,296.0119692070813 z" id="c28111"/>
		<path d="M 196.19959581181814,0.810099323286758 L 198.68348387924686,0.7683626504856743 L 220.27416513615196,0.3350361049275427 L 226.36808783269487,0.23853672768348017 L 227.52453089216243,0.21960797284273964 L 227.78301127327796,20.116524751345956 L 203.64448776382997,20.449371347291677 L 201.28172194429845,20.472107425919848 L 201.1563462799367,12.037965100904373 L 196.34152954132298,12.124292781234177 L 196.19959581181814,0.810099323286758 z" id="c28003"/>
		<path d="M 63.421009471180405,122.92302629268498 L 63.45361611171097,115.73720781544179 L 70.71936999531022,115.75478155091857 L 70.92672297196535,85.00565779397712 L 85.13672009882782,85.19335226982213 L 85.07656668287888,99.62760197009321 L 84.92047781869957,139.53364716498967 L 77.80824645812592,139.547070508115 L 77.82141647167082,144.40350309130932 L 66.61768578316212,144.41254836732708 L 63.31399305027128,144.37260587251882 L 63.421009471180405,122.92302629268498 z" id="c28133"/>
		<path d="M 196.91111290987863,358.44014512299816 L 196.8487106011241,353.6139081923744 L 200.45815174367033,353.6786337260786 L 230.6083109556429,353.10585933123235 L 230.62786155910132,353.42242596529536 L 231.49207773224424,369.01143569453853 L 232.37746101438395,383.4007366985753 L 231.34589785684884,385.6799678431595 L 228.71225670829338,385.2573265580107 L 226.92757748345537,387.5834227976431 L 223.26545490076307,385.98055791188006 L 219.00915232202797,386.7950700109727 L 216.74866437256537,384.93336014826224 L 213.09054278414106,384.3144622896618 L 210.4730490176642,385.8769649578805 L 207.1399341381625,385.5986321048364 L 203.2952621203638,384.85318075426324 L 201.96932335409147,384.59564099746467 L 196.53875640834144,381.9501133030673 L 196.91111290987863,358.44014512299816 z" id="c28059"/>
		<path d="M 64.69633043926493,274.5235796844176 L 87.53155351457461,274.41162506067604 L 89.99328309951105,275.67651063367003 L 99.4922293069203,272.99826120760594 L 99.60911491072115,303.3999347252201 L 98.43685700536057,303.4007989887623 L 77.99038738514251,303.44557012051587 L 71.94440085566859,303.4536233547661 L 72.008751589011,281.75624224536267 L 64.63375193904548,281.7560904060308 L 64.69633043926493,274.5235796844176 z" id="c28085"/>
		<path d="M 164.38243096429792,230.77994673008536 L 193.157776084524,230.39537468017963 L 193.82981203880345,263.30819218879464 L 191.50658229026078,263.51084907512535 L 165.1422485118572,265.6638187914516 L 164.38243096429792,230.77994673008536 z" id="c28061"/>
		<path d="M 164.1127759865076,201.55508367560768 L 164.46399910450626,201.54966886311877 L 192.72301316930202,201.18519799831523 L 193.157776084524,230.39537468017963 L 164.38243096429792,230.77994673008536 L 164.1127759865076,201.55508367560768 z" id="c28101"/>
		<path d="M 191.50658229026078,263.51084907512535 L 193.82981203880345,263.30819218879464 L 200.982543238537,262.69373630854926 L 213.9680531593641,260.5299801075452 L 224.96660659020284,257.2704195394573 L 225.11283089412655,265.8104872922248 L 225.601496924502,273.4869476737481 L 226.00358841401265,279.7990369041961 L 226.97903156825362,295.17276522725444 L 199.1342727965286,295.7773806392764 L 191.9106050346248,295.8924180432845 L 191.50658229026078,263.51084907512535 z" id="c28153"/>
		<path d="M 159.1596329868708,266.15022264258687 L 165.1422485118572,265.6638187914516 L 191.50658229026078,263.51084907512535 L 191.9106050346248,295.8924180432845 L 177.52635105261996,296.0119692070813 L 159.56126967246112,296.1873408724429 L 159.1596329868708,266.15022264258687 z" id="c28067"/>
		<path d="M 85.07656668287888,99.62760197009321 L 103.67596434882394,99.79592790043125 L 103.47274428413203,103.42405735333178 L 95.94108082839917,104.6343724963545 L 95.62745643457023,109.05593096061341 L 99.7397631284183,105.76934543827629 L 106.85568081402846,107.05102816117164 L 107.48666819736557,110.75079805714502 L 109.35307417219693,128.80066248073334 L 104.26687753646277,132.28291927394554 L 104.28729108773355,139.20759605351083 L 94.07614015868943,135.75937251450335 L 96.98771082573045,138.70734893241362 L 93.37620524096826,141.74595119817607 L 87.69477407536861,147.33357451599844 L 84.92047781869957,139.53364716498967 L 85.07656668287888,99.62760197009321 z" id="c28083"/>
		<path d="M 66.61768578316212,144.41254836732708 L 77.82141647167082,144.40350309130932 L 77.80824645812592,139.547070508115 L 84.92047781869957,139.53364716498967 L 87.69477407536861,147.33357451599844 L 93.37620524096826,141.74595119817607 L 93.46539350810744,155.40923601130044 L 86.38166397235727,158.87553381201957 L 91.11332760801739,165.94320586874284 L 85.16287783914007,166.07037947836662 L 85.1152546606987,173.16803510418487 L 70.6778962846683,173.20249965267402 L 70.62342615968458,158.79431183926752 L 67.57092556892799,158.80244514252882 L 69.12253669419047,158.2952547818327 L 69.1001992806674,150.0570870755378 L 66.61768578316212,144.41254836732708 z" id="c28053"/>
		<path d="M 138.67438856876564,377.4603809293753 L 142.44043544152814,373.4071913368448 L 149.78326884869668,372.1900753601031 L 149.72691221049044,361.30469667758643 L 164.24038495884375,361.24334226149733 L 164.4941353478473,385.2249348241665 L 166.9624805257784,389.6730888195716 L 164.26098845413475,390.59096962878397 L 158.5550747516263,394.59576415276194 L 156.93960674933876,397.94377611076635 L 154.90924896479413,399.079834863044 L 151.41542124302077,400.0 L 145.41694778248157,397.0322062826312 L 143.4618593202404,389.498938868787 L 140.22943271671565,380.7645150309888 L 138.67438856876564,377.4603809293753 z" id="c28045"/>
		<path d="M 164.07188624679978,172.1392447551448 L 185.12237432488683,171.93370997017158 L 191.22650855823804,172.8559935647325 L 192.34224048648673,172.23146212338077 L 192.72301316930202,201.18519799831523 L 164.46399910450626,201.54966886311877 L 164.07188624679978,172.1392447551448 z" id="c28099"/>
		<path d="M 29.56464415277721,259.54518125294425 L 33.3926093794001,255.9995835824241 L 33.68821302133486,251.59728287046343 L 37.930901481652285,250.4866225447904 L 40.534354986820524,247.4913858182088 L 40.669582108690896,245.27347828744197 L 43.82775373367709,241.08879842071673 L 43.49567524426362,240.51408567535776 L 50.29397239513064,243.00745492433165 L 65.43608966769068,230.9269348802133 L 66.11042056797702,245.5642519267654 L 66.15729573976166,262.4343208073663 L 64.76153856571442,267.26813090029975 L 56.53203758829482,267.2921869032601 L 57.30950932626337,263.91533975975835 L 45.18532729126105,260.90187074361216 L 28.915662156668148,260.13014978312106 L 29.56464415277721,259.54518125294425 z" id="c28021"/>
		<path d="M 155.83908096614704,296.2181043888776 L 159.56126967246112,296.1873408724429 L 177.52635105261996,296.0119692070813 L 177.90592742835818,331.9085915441195 L 178.57178689756822,339.39999649057387 L 164.09377553549427,339.5391148256664 L 164.03776425218663,332.56471957887106 L 163.4389851982655,331.22830203890504 L 163.26854420741003,303.38512542529804 L 155.9358234177751,303.47354956312154 L 155.83908096614704,296.2181043888776 z" id="c28035"/>
		<path d="M 160.09819709874813,1.3605528262866295 L 170.62183665483957,1.2114688789906805 L 182.32861686355292,1.0265043572457349 L 182.97025150084664,1.0171176834494207 L 183.08976195680214,12.303308325583407 L 178.3198128643272,15.961095200123093 L 178.513367381934,33.94080520400052 L 169.35018896591126,34.09898446262448 L 167.76271803086394,35.30873230312981 L 164.1535829949849,35.372197628936284 L 163.86976976551554,13.713901509277738 L 160.21783586376304,13.749182224661636 L 160.09819709874813,1.3605528262866295 z" id="c28009"/>
		<path d="M 98.93448337475371,8.86544700895081 L 99.31565602691306,6.357438339950583 L 94.89321846183859,1.5477994564039828 L 129.93545313625657,1.5652472124273913 L 132.36028568030773,1.5561627133149616 L 134.76620776612165,1.5462956547343645 L 134.93765226350658,19.923554535022113 L 122.03677110626046,19.973603940132097 L 113.99858056808209,25.349505909959618 L 104.31820744297852,21.142829314204537 L 102.3591157902754,24.010788139551686 L 102.21262647997744,12.750329230462235 L 94.75045431934717,11.722590045422523 L 98.93448337475371,8.86544700895081 z" id="c28033"/>
		<path d="M 85.13672009882782,85.19335226982213 L 85.14716086200234,77.96830813648198 L 106.87528635553825,77.96246075784669 L 106.8777727205278,70.7429836119355 L 119.05506938176494,70.75188014059134 L 120.91883161969932,70.35148066807102 L 121.33891825398544,72.31676247054162 L 121.377355743028,92.40770710434238 L 121.38818095884776,98.54450148984812 L 106.86230058705355,99.79079833733863 L 106.85568081402846,107.05102816117164 L 99.7397631284183,105.76934543827629 L 95.62745643457023,109.05593096061341 L 95.94108082839917,104.6343724963545 L 103.47274428413203,103.42405735333178 L 103.67596434882394,99.79592790043125 L 85.07656668287888,99.62760197009321 L 85.13672009882782,85.19335226982213 z" id="c28135"/>
		<path d="M 128.7936476934352,354.89941054133345 L 131.94455790071828,347.17092654846425 L 134.8815344592239,339.4956546830255 L 136.4041465725309,332.08840892305466 L 141.69036208684008,332.0423159275035 L 152.57006220474517,330.8488385335431 L 158.01142126681245,333.5856991840525 L 163.4389851982655,331.22830203890504 L 164.03776425218663,332.56471957887106 L 164.09377553549427,339.5391148256664 L 164.24038495884375,361.24334226149733 L 149.72691221049044,361.30469667758643 L 149.78326884869668,372.1900753601031 L 142.44043544152814,373.4071913368448 L 138.67438856876564,377.4603809293753 L 137.7629875234613,375.5224894519717 L 132.05771786960204,369.4254948952747 L 129.85921784564192,361.77922194277465 L 129.5413244930947,359.72792514189126 L 128.7936476934352,354.89941054133345 z" id="c28109"/>
		<path d="M 104.26687753646277,132.28291927394554 L 109.35307417219693,128.80066248073334 L 107.48666819736557,110.75079805714502 L 131.0880005264676,110.68387680907654 L 131.3171617456304,132.2513314948707 L 140.97139418498006,133.33111982553862 L 141.10718276549684,143.0216201168606 L 137.19627051365882,143.0592614706879 L 133.89582376973573,148.948070651975 L 104.28729108773355,139.20759605351083 L 104.26687753646277,132.28291927394554 z" id="c28015"/>
		<path d="M 150.42743325073047,106.82096540648668 L 170.54209059479285,106.61834416013347 L 172.23535752591002,105.22297368134878 L 183.11708985226085,105.02565873306939 L 183.17584250006564,112.04228182104215 L 184.35539824715715,114.47860950095583 L 184.40295097194257,119.69678262091155 L 179.57396575901646,119.76264069741795 L 179.58995768034146,122.15096762707512 L 167.60156547480167,123.49194981351634 L 159.34899055884185,128.4025870547443 L 150.6449034329187,128.51859178800532 L 150.4749395792662,110.48235953560865 L 150.42743325073047,106.82096540648668 z" id="c28155"/>
		<path d="M 86.38166397235727,158.87553381201957 L 93.46539350810744,155.40923601130044 L 93.37620524096826,141.74595119817607 L 96.98771082573045,138.70734893241362 L 94.07614015868943,135.75937251450335 L 104.28729108773355,139.20759605351083 L 133.89582376973573,148.948070651975 L 123.76659823226574,172.33824328694251 L 118.92766600107596,176.74761341771278 L 92.90569998312118,165.98201280316795 L 92.35594237632087,164.96731557480783 L 91.11332760801739,165.94320586874284 L 86.38166397235727,158.87553381201957 z" id="c28051"/>
		<path d="M 192.34224048648673,172.23146212338077 L 199.44084133297747,172.18439561709542 L 231.93390355950456,171.39012798392443 L 230.46223577829915,189.4130559456348 L 229.55100182036395,200.5063868898191 L 192.72301316930202,201.18519799831523 L 192.34224048648673,172.23146212338077 z" id="c28069"/>
		<path d="M 135.68687631694053,231.11406334153693 L 137.7131919307639,230.96017849788072 L 164.38243096429792,230.77994673008536 L 165.1422485118572,265.6638187914516 L 159.1596329868708,266.15022264258687 L 141.36416812801065,267.6242259482238 L 140.5866933506966,245.5576632296655 L 135.79320296891706,245.59978050084487 L 135.68687631694053,231.11406334153693 z" id="c28129"/>
		<path d="M 164.02147844160103,157.46356632793797 L 171.26430951001973,157.34587429286827 L 171.2210537653866,150.0465641693196 L 178.49760835476158,149.92230821605943 L 179.84819487876757,142.62248801846167 L 188.3539192397613,142.5073494308251 L 198.98919913960387,142.33405657499083 L 199.44084133297747,172.18439561709542 L 192.34224048648673,172.23146212338077 L 191.22650855823804,172.8559935647325 L 185.12237432488683,171.93370997017158 L 164.07188624679978,172.1392447551448 L 164.02147844160103,157.46356632793797 z" id="c28159"/>
		<path d="M 178.3198128643272,15.961095200123093 L 183.08976195680214,12.303308325583407 L 182.97025150084664,1.0171176834494207 L 196.19959581181814,0.810099323286758 L 196.34152954132298,12.124292781234177 L 201.1563462799367,12.037965100904373 L 201.28172194429845,20.472107425919848 L 203.64448776382997,20.449371347291677 L 203.88644071521978,33.0042886877565 L 202.69765114521078,33.746220916653975 L 178.513367381934,33.94080520400052 L 178.3198128643272,15.961095200123093 z" id="c28139"/>
		<path d="M 149.95395474473872,70.36105874234198 L 168.14842487023245,70.26483755417817 L 168.29768025298256,77.48978260428329 L 175.5532579694807,77.39436892168882 L 175.8944217814061,99.09007133401678 L 172.288643094125,99.1669767033638 L 172.23535752591002,105.22297368134878 L 170.54209059479285,106.61834416013347 L 150.42743325073047,106.82096540648668 L 150.31562133720033,94.75904020233482 L 149.95395474473872,70.36105874234198 z" id="c28013"/>
		<path d="M 198.98919913960387,142.33405657499083 L 209.00310654729392,142.14003041176974 L 234.36476017303713,141.57543891380342 L 233.6483875057316,150.2226813305296 L 232.35353814496537,166.22642053176185 L 231.93390355950456,171.39012798392443 L 199.44084133297747,172.18439561709542 L 198.98919913960387,142.33405657499083 z" id="c28103"/>
		<path d="M 193.157776084524,230.39537468017963 L 227.12979380409962,229.58432469017023 L 225.8165936605783,244.06935757679383 L 224.9107493053394,254.0146880272151 L 224.96660659020284,257.2704195394573 L 213.9680531593641,260.5299801075452 L 200.982543238537,262.69373630854926 L 193.82981203880345,263.30819218879464 L 193.157776084524,230.39537468017963 z" id="c28023"/>
		<path d="M 99.4922293069203,272.99826120760594 L 103.01300146536536,272.1343931280766 L 108.16412862553535,270.07597244163173 L 118.629384260141,269.3055922894718 L 118.59046619185028,289.10610379526645 L 119.84117951610048,300.02827316707777 L 114.04959144346525,299.69948109007373 L 114.06385962674742,304.5552948497264 L 109.21662640625577,303.336978245965 L 99.60911491072115,303.3999347252201 L 99.4922293069203,272.99826120760594 z" id="c28077"/>
		<path d="M 192.72301316930202,201.18519799831523 L 229.55100182036395,200.5063868898191 L 227.70234109254918,222.86073740447037 L 227.29855879593885,227.71693548300746 L 227.12979380409962,229.58432469017023 L 193.157776084524,230.39537468017963 L 192.72301316930202,201.18519799831523 z" id="c28075"/>
		<path d="M 38.69050051794255,232.1862454081002 L 46.9494224684567,231.7021268779806 L 50.03627971632837,226.0220264283312 L 51.93822593908958,221.18187501995527 L 47.33916384678289,220.35316097864222 L 48.82874603066158,214.31401642607054 L 42.732450193442276,213.14637858597038 L 42.239907408652876,207.0224696202603 L 45.69667786652796,206.6945913332688 L 43.09824280864345,202.02406458071007 L 49.039040759168074,201.82913649457097 L 49.00502912882392,215.44285895665 L 56.18269939213651,212.92081381816993 L 56.29320972577143,201.9043744675571 L 65.55998349335053,202.68209271056648 L 66.15368328195196,198.32968494865426 L 70.67123724575464,200.75308228393834 L 70.72605785000536,204.37370996066468 L 77.78444035799006,205.56215107345864 L 77.78609396820163,207.57682018415926 L 71.97801196257112,218.5805975019392 L 67.12112551212975,220.8595231764981 L 65.43608966769068,230.9269348802133 L 50.29397239513064,243.00745492433165 L 43.49567524426362,240.51408567535776 L 38.69050051794255,232.1862454081002 z" id="c28149"/>
		<path d="M 216.13544811610947,44.39245997972127 L 230.74432617015768,44.25983151705153 L 242.7041059689783,44.05717745678495 L 241.69496513299214,55.84724135249187 L 240.01701461384542,75.31790835130032 L 216.5966252966798,75.55857512103907 L 216.13544811610947,44.39245997972127 z" id="c28057"/>
		<path d="M 164.09377553549427,339.5391148256664 L 178.57178689756822,339.39999649057387 L 196.62477634690404,339.11058201827274 L 196.8487106011241,353.6139081923744 L 196.91111290987863,358.44014512299816 L 171.47194045684518,358.73904663712796 L 164.24038495884375,361.24334226149733 L 164.09377553549427,339.5391148256664 z" id="c28131"/>
		<path d="M 141.45860618215477,296.33880719450934 L 146.24231191979956,296.3174543092173 L 155.83908096614704,296.2181043888776 L 155.9358234177751,303.47354956312154 L 163.26854420741003,303.38512542529804 L 163.4389851982655,331.22830203890504 L 158.01142126681245,333.5856991840525 L 152.57006220474517,330.8488385335431 L 141.69036208684008,332.0423159275035 L 141.45860618215477,296.33880719450934 z" id="c28073"/>
		<path d="M 134.14805505348482,268.16262339966295 L 141.36416812801065,267.6242259482238 L 159.1596329868708,266.15022264258687 L 159.56126967246112,296.1873408724429 L 155.83908096614704,296.2181043888776 L 146.24231191979956,296.3174543092173 L 146.1903027565216,289.7149378233385 L 134.18423430456605,281.8144863564766 L 134.14805505348482,268.16262339966295 z" id="c28031"/>
		<path d="M 49.18861134114773,180.09205087686158 L 52.7202231515096,166.0716004439222 L 52.75239158288668,158.64239489205596 L 67.57092556892799,158.80244514252882 L 70.62342615968458,158.79431183926752 L 70.6778962846683,173.20249965267402 L 63.44754534709763,180.35960440439447 L 67.99400267715235,182.0425855666527 L 64.610076918502,189.18561394121906 L 69.8406852511705,194.02633959896752 L 65.95262256934289,194.74625889115453 L 49.024380393136425,194.60935119680033 L 49.18861134114773,180.09205087686158 z" id="c28125"/>
		<path d="M 227.52453089216243,0.21960797284273964 L 234.71187263433848,0.09755835229289558 L 238.66894979580516,0.0 L 241.8996245557907,6.001091216780611 L 245.82655333859458,8.41689537569879 L 243.83235229041674,30.802510679952128 L 243.54344807628817,34.20400047953957 L 242.7041059689783,44.05717745678495 L 230.74432617015768,44.25983151705153 L 230.185095015308,21.302492249708145 L 227.78301127327796,20.116524751345956 L 227.52453089216243,0.21960797284273964 z" id="c28141"/>
		<path d="M 85.07331294592149,202.1065372235107 L 88.23948385350226,202.03208901470836 L 91.1205689048954,199.66426417806574 L 97.14346599760107,194.93612254449798 L 103.1043279822271,194.4845880032933 L 113.14344125321173,188.68029550019375 L 118.92766600107596,176.74761341771278 L 135.40453288097902,176.21649591382433 L 135.50270434404274,196.98651516643315 L 132.66993017456275,199.32692248933242 L 131.7523818612618,200.92636144589156 L 127.8341748230135,200.41531573180683 L 126.22013885395683,201.8735082988169 L 111.37211861101663,214.8972469446746 L 112.05399561609171,216.51478104822183 L 107.99469417876153,216.53030208149409 L 99.54631981980039,216.48856268558643 L 99.54887995978373,209.2494583350229 L 85.0777089051238,209.17635169253646 L 85.07331294592149,202.1065372235107 z" id="c28089"/>
		<path d="M 179.59119253908682,122.20760720683417 L 179.58995768034146,122.15096762707512 L 179.57396575901646,119.76264069741795 L 184.40295097194257,119.69678262091155 L 201.59534997053015,119.20143118739719 L 208.46444453970688,119.10091285685435 L 208.5618711459167,123.9843815531389 L 209.00310654729392,142.14003041176974 L 198.98919913960387,142.33405657499083 L 188.3539192397613,142.5073494308251 L 179.84819487876757,142.62248801846167 L 179.66242703336144,129.3876477934105 L 179.59119253908682,122.20760720683417 z" id="c28105"/>
		<path d="M 120.91883161969932,70.35148066807102 L 135.3798641879304,70.3450651078077 L 135.39165886550538,67.94050936344142 L 149.95583865941015,67.9692026689458 L 149.95395474473872,70.36105874234198 L 150.31562133720033,94.75904020233482 L 132.23675047000143,94.89245879044049 L 132.20621036467273,92.42442600436726 L 121.377355743028,92.40770710434238 L 121.33891825398544,72.31676247054162 L 120.91883161969932,70.35148066807102 z" id="c28161"/>
		<path d="M 63.44754534709763,180.35960440439447 L 70.6778962846683,173.20249965267402 L 85.1152546606987,173.16803510418487 L 85.16287783914007,166.07037947836662 L 91.11332760801739,165.94320586874284 L 92.35594237632087,164.96731557480783 L 92.90569998312118,165.98201280316795 L 118.92766600107596,176.74761341771278 L 113.14344125321173,188.68029550019375 L 103.1043279822271,194.4845880032933 L 97.14346599760107,194.93612254449798 L 91.1205689048954,199.66426417806574 L 88.23948385350226,202.03208901470836 L 85.07331294592149,202.1065372235107 L 80.0026946984377,207.9506739255372 L 77.78609396820163,207.57682018415926 L 77.78444035799006,205.56215107345864 L 70.72605785000536,204.37370996066468 L 70.67123724575464,200.75308228393834 L 66.15368328195196,198.32968494865426 L 68.16938154633733,196.89390826295252 L 65.95262256934289,194.74625889115453 L 69.8406852511705,194.02633959896752 L 64.610076918502,189.18561394121906 L 67.99400267715235,182.0425855666527 L 63.44754534709763,180.35960440439447 z" id="c28163"/>
		<path d="M 0.9234263770872968,331.43789291801227 L 5.805276190672826,327.81624184461464 L 3.398011984434376,324.3171375231384 L 1.5197030052659428,320.5343890789346 L 3.7560629546717292,315.9955795893731 L 11.047357081807853,313.26658576281017 L 12.586853908244102,305.5287800281336 L 24.140449485656426,302.2206229155404 L 34.65547047362668,303.479351651697 L 37.494819846485164,305.6841136296217 L 39.09911166196426,305.6406484508231 L 41.63116752499534,308.89086286141577 L 41.430886656603185,332.28398423164924 L 33.158282936440926,332.2338775535503 L 29.74061486744788,332.2106582837617 L 0.2986214194708057,331.90096168940494 L 0.9234263770872968,331.43789291801227 z" id="c28157"/>
		<path d="M 202.69765114521078,33.746220916653975 L 203.88644071521978,33.0042886877565 L 203.64448776382997,20.449371347291677 L 227.78301127327796,20.116524751345956 L 230.185095015308,21.302492249708145 L 230.74432617015768,44.25983151705153 L 216.13544811610947,44.39245997972127 L 216.0936591195828,40.754234309027694 L 202.74213593840767,41.00133623258603 L 202.69765114521078,33.746220916653975 z" id="c28117"/>
		<path d="M 167.89657932014322,52.19676990347952 L 189.69805600642303,51.9376835039139 L 196.8514560905206,53.03470630290341 L 197.23745755030356,77.03882101861134 L 175.5532579694807,77.39436892168882 L 168.29768025298256,77.48978260428329 L 168.14842487023245,70.26483755417817 L 167.89657932014322,52.19676990347952 z" id="c28115"/>
		<path d="M 183.11708985226085,105.02565873306939 L 190.21976327613643,103.69991137520384 L 190.183922018892,98.8907347157383 L 204.78638882192155,98.76333772148921 L 204.9806936742015,109.61927590834775 L 220.05633738724853,109.39312089571389 L 220.82287252812205,109.8950012198731 L 220.8160804532808,109.93754324845789 L 220.79374927980612,109.97887098651704 L 220.78434641138114,109.99544358506216 L 220.76890127371385,110.02281195424595 L 220.7403365413032,110.05646240072113 L 220.72180252523503,110.07767170537603 L 220.6930131552338,110.1026263512179 L 220.67396858065626,110.1029656091208 L 220.65593888199086,110.08638469435246 L 220.64770354490997,110.07907457721718 L 220.63590971940098,110.06644236452702 L 220.6245977527978,110.05363584818944 L 220.60062259955163,110.01437605436166 L 220.58239264153198,109.97484821923433 L 220.56617278111915,109.95094381201983 L 220.54645950881502,109.92536162765144 L 220.52863974891147,109.90496544965372 L 220.52624542202028,109.90277101936874 L 220.48962934722172,109.86936983238934 L 220.46276759730927,109.8352150279651 L 220.43317282752946,109.81486234254368 L 220.41067701768898,109.80026590723604 L 220.39400559700866,109.7898742327047 L 220.34865018782116,109.77526966360021 L 220.30870351122732,109.77266527479328 L 220.27245052524108,109.77521480622175 L 220.24988824260421,109.78025522207207 L 220.23938287506314,109.78160168800096 L 220.21498036411157,109.78443763408785 L 220.20964945436472,109.78850920156962 L 220.20089721074555,109.79496137240945 L 220.19707361191703,109.79809479415823 L 220.19325000975633,109.80122821371285 L 220.16446010593668,109.8261807171112 L 220.1193374555802,109.87545013345887 L 220.1151232479515,109.87999893297774 L 220.0985733479839,109.91550490156713 L 220.08825215257713,109.9389695696409 L 220.07270756398532,110.01165853959846 L 220.05476958030604,110.10957711469108 L 220.0443630809056,110.19079156540931 L 220.0395075803498,110.28425265441464 L 220.0384187352647,110.30490227969678 L 220.0394173939735,110.31043571370601 L 220.05345582823543,110.37158077804548 L 220.06859005199377,110.44372580943197 L 220.075642492648,110.53283317460136 L 220.06243020174693,110.56132012604873 L 220.04521516660512,110.5750473486635 L 219.99076713290268,110.5949024110809 L 219.95485655218118,110.5935499464555 L 219.81452496055948,110.6656296911934 L 219.75984980001323,110.71581093956709 L 219.69548209731357,110.78994164222865 L 219.60270809263352,110.87194715538622 L 219.5638519481765,110.89218626449323 L 219.5171039774617,110.90494199135743 L 219.43008780820037,110.9168333412345 L 219.38156644947986,110.93119362011379 L 219.33995290954036,110.95620262972679 L 219.30963976615777,111.00131110290444 L 219.29538521649818,111.11639518587342 L 219.28516847932406,111.22867396601946 L 219.2824601877986,111.30701684710178 L 219.2806316937683,111.33695863110022 L 219.27578475235342,111.41583625440629 L 219.26093413599716,111.51684574560421 L 219.22872196978577,111.58808545684174 L 219.22537415357908,111.6380212502668 L 219.23872744112452,111.73927988899962 L 219.26282952155032,111.81739932891205 L 219.26540477362863,111.83773557821468 L 219.26718091479162,111.85203770078262 L 219.26862308663715,111.87098541004275 L 222.30993896731422,122.23624345826282 L 208.5618711459167,123.9843815531389 L 208.46444453970688,119.10091285685435 L 201.59534997053015,119.20143118739719 L 184.40295097194257,119.69678262091155 L 184.35539824715715,114.47860950095583 L 183.17584250006564,112.04228182104215 L 183.11708985226085,105.02565873306939 z" id="c28025"/>
		<path d="M 123.76659823226574,172.33824328694251 L 133.89582376973573,148.948070651975 L 137.19627051365882,143.0592614706879 L 141.10718276549684,143.0216201168606 L 154.4236231770177,142.88627774761974 L 163.98012336713242,142.83143808199944 L 164.02147844160103,157.46356632793797 L 164.07188624679978,172.1392447551448 L 135.37364989372463,172.50271476807703 L 135.40453288097902,176.21649591382433 L 118.92766600107596,176.74761341771278 L 123.76659823226574,172.33824328694251 z" id="c28007"/>
		<path d="M 131.0880005264676,110.68387680907654 L 150.4749395792662,110.48235953560865 L 150.6449034329187,128.51859178800532 L 159.34899055884185,128.4025870547443 L 154.30387700741505,130.69198016909635 L 154.4236231770177,142.88627774761974 L 141.10718276549684,143.0216201168606 L 140.97139418498006,133.33111982553862 L 131.3171617456304,132.2513314948707 L 131.0880005264676,110.68387680907654 z" id="c28097"/>
		<path d="M 32.061586801913556,122.72179878385445 L 63.421009471180405,122.92302629268498 L 63.31399305027128,144.37260587251882 L 66.61768578316212,144.41254836732708 L 69.1001992806674,150.0570870755378 L 69.12253669419047,158.2952547818327 L 67.57092556892799,158.80244514252882 L 52.75239158288668,158.64239489205596 L 52.7202231515096,166.0716004439222 L 49.15678567099717,165.8152169593037 L 35.61050648352102,165.66354478350857 L 38.3740752702676,162.10010182339064 L 34.1875800743957,158.43757895173627 L 36.15041387454786,155.41159120214925 L 39.54099897179781,155.7267431848773 L 40.96024799926877,151.65796117190754 L 42.08085977907468,147.3531204546568 L 40.89225609575786,143.97289320153322 L 38.15565670926366,143.4058355729901 L 37.039640390426314,137.70515699413858 L 39.04461729914712,134.06544526087112 L 36.71192908918659,131.22788799743216 L 35.05949041818807,128.30211543568993 L 33.860485398845746,125.75292280290785 L 32.061586801913556,122.72179878385445 z" id="c28151"/>
		<path d="M 135.19095876761915,37.98168504693333 L 138.81539377087003,37.951074388477224 L 151.95912455301175,37.868562743096696 L 155.56113653815828,40.739442509596365 L 162.34456047939543,40.13721143156322 L 167.80735827377958,42.564856600089605 L 167.89657932014322,52.19676990347952 L 168.14842487023245,70.26483755417817 L 149.95395474473872,70.36105874234198 L 149.95583865941015,67.9692026689458 L 135.39165886550538,67.94050936344142 L 135.19095876761915,37.98168504693333 z" id="c28071"/>
		<path d="M 100.51766958704519,245.49525948621073 L 135.79320296891706,245.59978050084487 L 140.5866933506966,245.5576632296655 L 141.36416812801065,267.6242259482238 L 134.14805505348482,268.16262339966295 L 118.629384260141,269.3055922894718 L 108.16412862553535,270.07597244163173 L 109.22613166888411,268.00378532542425 L 100.51766958704519,245.49525948621073 z" id="c28127"/>
		<path d="M 118.629384260141,269.3055922894718 L 134.14805505348482,268.16262339966295 L 134.18423430456605,281.8144863564766 L 146.1903027565216,289.7149378233385 L 146.24231191979956,296.3174543092173 L 141.45860618215477,296.33880719450934 L 129.39010763726037,296.3802300033517 L 129.47119939140453,300.0283027128147 L 119.84117951610048,300.02827316707777 L 118.59046619185028,289.10610379526645 L 118.629384260141,269.3055922894718 z" id="c28065"/>
		<path d="M 41.21659043807072,304.1712252332271 L 44.61229032772794,303.48077861106145 L 71.94440085566859,303.4536233547661 L 77.99038738514251,303.44557012051587 L 77.97874509941974,332.38408617129994 L 76.57968798700595,332.3843375377752 L 62.91914872670453,332.3738245154976 L 58.137835319832284,332.3588696816357 L 41.430886656603185,332.28398423164924 L 41.63116752499534,308.89086286141577 L 39.09911166196426,305.6406484508231 L 41.21659043807072,304.1712252332271 z" id="c28005"/>
		<path d="M 35.61050648352102,165.66354478350857 L 49.15678567099717,165.8152169593037 L 52.7202231515096,166.0716004439222 L 49.18861134114773,180.09205087686158 L 49.024380393136425,194.60935119680033 L 65.95262256934289,194.74625889115453 L 68.16938154633733,196.89390826295252 L 66.15368328195196,198.32968494865426 L 65.55998349335053,202.68209271056648 L 56.29320972577143,201.9043744675571 L 56.18269939213651,212.92081381816993 L 49.00502912882392,215.44285895665 L 49.039040759168074,201.82913649457097 L 43.09824280864345,202.02406458071007 L 43.06003338010626,201.95533354536582 L 42.64371945155989,201.50874170025526 L 40.95889657620118,199.70058489447499 L 39.65977987677948,192.6852237335652 L 42.606849714152105,189.36980812193087 L 38.650483520506015,188.1501652823852 L 35.59731043039683,185.1407871443015 L 35.33728213336121,182.12192156155012 L 37.02298435238338,179.11164203546195 L 41.748926741932344,175.8600355801955 L 41.67454717604187,171.78764170429093 L 37.348702547939894,168.22001749024116 L 35.154655153373795,166.2509093011017 L 35.61050648352102,165.66354478350857 z" id="c28055"/>
		<path d="M 1.6682610929258823,309.69435794037395 L 5.72771731019099,310.2522069954417 L 9.689286633109129,307.8105798904006 L 7.797548140930775,303.92263206032845 L 8.10906222891483,299.62714981888945 L 9.713185017238983,295.616096801157 L 9.284752689209029,290.68776883017426 L 11.268409259362437,287.73877396081195 L 14.965764584414787,286.7916322333395 L 13.58999219183377,283.349776872428 L 13.171599049311821,280.6297344255019 L 18.015358568728043,278.70774723697076 L 19.133790522731285,271.4075677542444 L 19.18985229537463,271.3946144459593 L 23.554382891758188,270.3847897581035 L 23.423049516495876,270.17779835750343 L 23.60808734256322,270.01674537925913 L 24.34384494301973,273.2031697452684 L 24.772730494869815,272.99983318617365 L 24.69104589015328,273.5262714053734 L 25.058285286413746,273.539627683602 L 24.899428399975474,274.1413914987365 L 25.258319128747537,274.3262993097797 L 25.403449750235957,274.840165644224 L 25.346307402227126,275.21977857499434 L 24.801613243315163,275.7047061143506 L 25.007701544572388,275.9227927224982 L 24.79692209060522,276.42573315758756 L 35.1230394268752,281.6782175558192 L 34.65547047362668,303.479351651697 L 24.140449485656426,302.2206229155404 L 12.586853908244102,305.5287800281336 L 11.047357081807853,313.26658576281017 L 3.7560629546717292,315.9955795893731 L 3.8247608536073687,315.8560651357948 L 0.0,312.43999067534753 L 1.6682610929258823,309.69435794037395 z" id="c28001"/>
		<path d="M 32.76917827911813,121.27387988154119 L 33.94738706056779,118.86154645691266 L 37.99273400548109,116.02055462624654 L 34.734941128540456,112.66622199654887 L 40.096532592096295,111.92607003946765 L 41.90074851928454,107.47935380291287 L 37.223016140962585,104.73285148235435 L 39.43962621168457,102.47843398491169 L 41.23775663529413,102.33923202992679 L 45.29208706938917,103.42508784142596 L 45.42690525988472,99.92188545039986 L 43.52620390488991,98.39924062171617 L 42.97492684684004,93.97910224811353 L 45.400266128510104,91.47194415034892 L 44.75910931256799,88.50445506829865 L 41.12994717627963,87.0230056738249 L 43.92668237166532,85.07655337982608 L 46.9154410201245,85.76488243414981 L 48.654863495994356,83.86333938848115 L 51.23533681255756,82.39303957962342 L 54.70407476179736,81.68319095174084 L 55.95669392443732,77.948069494686 L 54.134653603577185,76.06430759196977 L 51.02819320262988,74.82831847613326 L 51.13702745339308,74.22576829820846 L 51.18794918327633,73.94381135610816 L 70.79201767420662,74.1329585594043 L 70.92672297196535,85.00565779397712 L 70.71936999531022,115.75478155091857 L 63.45361611171097,115.73720781544179 L 63.421009471180405,122.92302629268498 L 32.061586801913556,122.72179878385445 L 32.76917827911813,121.27387988154119 z" id="c28011"/>
		<path d="M 196.62477634690404,339.11058201827274 L 200.2345355099575,339.1013830058187 L 200.14656307839599,331.8440492475729 L 229.26739542404655,331.3733951298262 L 230.6083109556429,353.10585933123235 L 200.45815174367033,353.6786337260786 L 196.8487106011241,353.6139081923744 L 196.62477634690404,339.11058201827274 z" id="c28039"/>
		<path d="M 199.1342727965286,295.7773806392764 L 226.97903156825362,295.17276522725444 L 227.0555239355704,296.3773836664528 L 228.67594485946526,321.7748259943673 L 229.26739542404655,331.3733951298262 L 200.14656307839599,331.8440492475729 L 199.6694192389576,331.14083979454597 L 199.1342727965286,295.7773806392764 z" id="c28041"/>
		<path d="M 164.24038495884375,361.24334226149733 L 171.47194045684518,358.73904663712796 L 196.91111290987863,358.44014512299816 L 196.53875640834144,381.9501133030673 L 190.99396962011141,382.2339676848383 L 182.97707799290893,384.20579675660974 L 175.5716381169136,387.33883585679706 L 167.8632555433286,389.3667874869333 L 166.9624805257784,389.6730888195716 L 164.4941353478473,385.2249348241665 L 164.24038495884375,361.24334226149733 z" id="c28047"/>
		<path d="M 51.61644861920209,71.57032808330533 L 54.62953894001291,70.57720341165682 L 55.4443708451541,68.64271682091929 L 54.64640789592009,65.32418800431095 L 58.40593742801805,64.37206939450591 L 60.29046601732617,60.793048867280355 L 64.42891605427668,59.99736865910698 L 63.58898575318115,55.55860485021805 L 66.07193297910949,53.797334377110204 L 70.7844662253967,56.17003819935552 L 72.10231463209905,52.18973093729678 L 76.64451438150414,49.611156604029745 L 76.07820357558518,45.99238944326031 L 77.07676854828138,40.525380912653226 L 88.71402703501309,48.912689966941066 L 88.73855226255999,62.35289101039349 L 85.19337955040392,62.27699053855648 L 85.14716086200234,77.96830813648198 L 85.13672009882782,85.19335226982213 L 70.92672297196535,85.00565779397712 L 70.79201767420662,74.1329585594043 L 51.18794918327633,73.94381135610816 L 51.61644861920209,71.57032808330533 z" id="c28027"/>
		<path d="M 132.66993017456275,199.32692248933242 L 135.50270434404274,196.98651516643315 L 135.54011783404215,201.7042888959617 L 164.1127759865076,201.55508367560768 L 164.38243096429792,230.77994673008536 L 137.7131919307639,230.96017849788072 L 135.68687631694053,231.11406334153693 L 135.6514228525574,220.29325102467058 L 131.7523818612618,200.92636144589156 L 132.66993017456275,199.32692248933242 z" id="c28123"/>
		<path d="M 77.99038738514251,303.44557012051587 L 98.43685700536057,303.4007989887623 L 98.51554283430339,332.34079082608764 L 92.35124256279235,332.3672154997899 L 92.26324853031112,332.3673980203267 L 77.97874509941974,332.38408617129994 L 77.99038738514251,303.44557012051587 z" id="c28113"/>
		<path d="M 135.50270434404274,196.98651516643315 L 135.40453288097902,176.21649591382433 L 135.37364989372463,172.50271476807703 L 164.07188624679978,172.1392447551448 L 164.46399910450626,201.54966886311877 L 164.1127759865076,201.55508367560768 L 135.54011783404215,201.7042888959617 L 135.50270434404274,196.98651516643315 z" id="c28079"/>
		<path d="M 85.19337955040392,62.27699053855648 L 88.73855226255999,62.35289101039349 L 88.71402703501309,48.912689966941066 L 95.41553410981439,48.852632241749475 L 95.24427428196081,41.80668078012449 L 102.49645266394417,41.679307622682096 L 102.82538735643736,59.04474252209835 L 106.93065816455376,62.03695813349157 L 106.8777727205278,70.7429836119355 L 106.87528635553825,77.96246075784669 L 85.14716086200234,77.96830813648198 L 85.19337955040392,62.27699053855648 z" id="c28119"/>
		<path d="M 76.82801320846528,31.513329012591164 L 78.41678927022917,29.050881455696608 L 78.70446985995699,25.851898918925414 L 81.48765025555836,20.68131567209772 L 83.67541728189194,18.674788724934867 L 84.34537191644789,14.858408189866726 L 88.15694822716603,14.833897625003194 L 88.59058875732966,14.830974691883688 L 94.6104185959776,11.818130210058335 L 94.75045431934717,11.722590045422523 L 102.21262647997744,12.750329230462235 L 102.3591157902754,24.010788139551686 L 100.22654060504492,25.870786149077418 L 99.64690252162845,32.145586547271854 L 102.48515606438866,38.090057817720414 L 102.49645266394417,41.679307622682096 L 95.24427428196081,41.80668078012449 L 95.41553410981439,48.852632241749475 L 88.71402703501309,48.912689966941066 L 77.07676854828138,40.525380912653226 L 78.46243336780161,36.94771959219696 L 75.87026437313445,32.9967221182127 L 76.82801320846528,31.513329012591164 z" id="c28143"/>
		<path d="M 154.30387700741505,130.69198016909635 L 159.34899055884185,128.4025870547443 L 167.60156547480167,123.49194981351634 L 179.58995768034146,122.15096762707512 L 179.59119253908682,122.20760720683417 L 179.66242703336144,129.3876477934105 L 179.84819487876757,142.62248801846167 L 178.49760835476158,149.92230821605943 L 171.2210537653866,150.0465641693196 L 171.26430951001973,157.34587429286827 L 164.02147844160103,157.46356632793797 L 163.98012336713242,142.83143808199944 L 154.4236231770177,142.88627774761974 L 154.30387700741505,130.69198016909635 z" id="c28019"/>
		<path d="M 114.04959144346525,299.69948109007373 L 119.84117951610048,300.02827316707777 L 129.47119939140453,300.0283027128147 L 129.39010763726037,296.3802300033517 L 141.45860618215477,296.33880719450934 L 141.69036208684008,332.0423159275035 L 136.4041465725309,332.08840892305466 L 136.4061395445194,332.07870356004963 L 128.72255762896424,332.1440672644726 L 128.69805336219196,326.11584194112066 L 122.63692279870426,326.1612944371512 L 121.39183576899597,321.34215118897544 L 114.70900168770105,317.8220585046138 L 114.06385962674742,304.5552948497264 L 114.04959144346525,299.69948109007373 z" id="c28091"/>
		<path d="M 204.78638882192155,98.76333772148921 L 204.51351451833804,76.96306187722612 L 204.94287991040574,75.73673025399954 L 216.5966252966798,75.55857512103907 L 240.01701461384542,75.31790835130032 L 239.81433485414914,77.65871075196426 L 237.50385547537405,103.67951031277539 L 232.19315525620783,103.72830199731031 L 226.66955470580612,109.82015156794614 L 219.26862308663715,111.87098541004275 L 219.26718091479162,111.85203770078262 L 219.26540477362863,111.83773557821468 L 219.26282952155032,111.81739932891205 L 219.23872744112452,111.73927988899962 L 219.22537415357908,111.6380212502668 L 219.22872196978577,111.58808545684174 L 219.26093413599716,111.51684574560421 L 219.27578475235342,111.41583625440629 L 219.2806316937683,111.33695863110022 L 219.2824601877986,111.30701684710178 L 219.28516847932406,111.22867396601946 L 219.29538521649818,111.11639518587342 L 219.30963976615777,111.00131110290444 L 219.33995290954036,110.95620262972679 L 219.38156644947986,110.93119362011379 L 219.43008780820037,110.9168333412345 L 219.5171039774617,110.90494199135743 L 219.5638519481765,110.89218626449323 L 219.60270809263352,110.87194715538622 L 219.69548209731357,110.78994164222865 L 219.75984980001323,110.71581093956709 L 219.81452496055948,110.6656296911934 L 219.95485655218118,110.5935499464555 L 219.99076713290268,110.5949024110809 L 220.04521516660512,110.5750473486635 L 220.06243020174693,110.56132012604873 L 220.075642492648,110.53283317460136 L 220.06859005199377,110.44372580943197 L 220.05345582823543,110.37158077804548 L 220.0394173939735,110.31043571370601 L 220.0384187352647,110.30490227969678 L 220.0395075803498,110.28425265441464 L 220.0443630809056,110.19079156540931 L 220.05476958030604,110.10957711469108 L 220.07270756398532,110.01165853959846 L 220.08825215257713,109.9389695696409 L 220.0985733479839,109.91550490156713 L 220.1151232479515,109.87999893297774 L 220.1193374555802,109.87545013345887 L 220.16446010593668,109.8261807171112 L 220.19325000975633,109.80122821371285 L 220.19707361191703,109.79809479415823 L 220.20089721074555,109.79496137240945 L 220.20964945436472,109.78850920156962 L 220.21498036411157,109.78443763408785 L 220.23938287506314,109.78160168800096 L 220.24988824260421,109.78025522207207 L 220.27245052524108,109.77521480622175 L 220.30870351122732,109.77266527479328 L 220.34865018782116,109.77526966360021 L 220.39400559700866,109.7898742327047 L 220.41067701768898,109.80026590723604 L 220.43317282752946,109.81486234254368 L 220.46276759730927,109.8352150279651 L 220.48962934722172,109.86936983238934 L 220.52624542202028,109.90277101936874 L 220.52863974891147,109.90496544965372 L 220.54645950881502,109.92536162765144 L 220.56617278111915,109.95094381201983 L 220.58239264153198,109.97484821923433 L 220.60062259955163,110.01437605436166 L 220.6245977527978,110.05363584818944 L 220.63590971940098,110.06644236452702 L 220.64770354490997,110.07907457721718 L 220.65593888199086,110.08638469435246 L 220.67396858065626,110.1029656091208 L 220.6930131552338,110.1026263512179 L 220.72180252523503,110.07767170537603 L 220.7403365413032,110.05646240072113 L 220.76890127371385,110.02281195424595 L 220.78434641138114,109.99544358506216 L 220.79374927980612,109.97887098651704 L 220.8160804532808,109.93754324845789 L 220.82287252812205,109.8950012198731 L 220.05633738724853,109.39312089571389 L 204.9806936742015,109.61927590834775 L 204.78638882192155,98.76333772148921 z" id="c28095"/>
		<path d="M 167.80735827377958,42.564856600089605 L 167.76271803086394,35.30873230312981 L 169.35018896591126,34.09898446262448 L 178.513367381934,33.94080520400052 L 202.69765114521078,33.746220916653975 L 202.74213593840767,41.00133623258603 L 199.12719231797126,42.21575383652225 L 196.8514560905206,53.03470630290341 L 189.69805600642303,51.9376835039139 L 167.89657932014322,52.19676990347952 L 167.80735827377958,42.564856600089605 z" id="c28145"/>
		<path d="M 98.78629814601511,237.09688451552498 L 103.00440955965246,234.05695025642567 L 104.06086418953798,226.7444461569506 L 105.54501380598583,225.8657363448109 L 112.05399561609171,216.51478104822183 L 111.37211861101663,214.8972469446746 L 126.22013885395683,201.8735082988169 L 127.8341748230135,200.41531573180683 L 131.7523818612618,200.92636144589156 L 135.6514228525574,220.29325102467058 L 135.68687631694053,231.11406334153693 L 135.79320296891706,245.59978050084487 L 100.51766958704519,245.49525948621073 L 98.78629814601511,237.09688451552498 z" id="c28121"/>
		<path d="M 106.86230058705355,99.79079833733863 L 121.38818095884776,98.54450148984812 L 121.377355743028,92.40770710434238 L 132.20621036467273,92.42442600436726 L 132.23675047000143,94.89245879044049 L 150.31562133720033,94.75904020233482 L 150.42743325073047,106.82096540648668 L 150.4749395792662,110.48235953560865 L 131.0880005264676,110.68387680907654 L 107.48666819736557,110.75079805714502 L 106.85568081402846,107.05102816117164 L 106.86230058705355,99.79079833733863 z" id="c28043"/>
		<path d="M 98.43685700536057,303.4007989887623 L 99.60911491072115,303.3999347252201 L 109.21662640625577,303.336978245965 L 114.06385962674742,304.5552948497264 L 114.70900168770105,317.8220585046138 L 121.39183576899597,321.34215118897544 L 122.63692279870426,326.1612944371512 L 128.69805336219196,326.11584194112066 L 128.72255762896424,332.1440672644726 L 124.32976400775819,332.17809166768285 L 98.51554283430339,332.34079082608764 L 98.43685700536057,303.4007989887623 z" id="c28147"/>
		<path d="M 21.709619521865868,262.2912192248167 L 25.630862149493634,263.08876253338025 L 28.915662156668148,260.13014978312106 L 45.18532729126105,260.90187074361216 L 57.30950932626337,263.91533975975835 L 56.53203758829482,267.2921869032601 L 64.76153856571442,267.26813090029975 L 64.69633043926493,274.5235796844176 L 64.63375193904548,281.7560904060308 L 35.1230394268752,281.6782175558192 L 24.79692209060522,276.42573315758756 L 25.007701544572388,275.9227927224982 L 24.801613243315163,275.7047061143506 L 25.346307402227126,275.21977857499434 L 25.403449750235957,274.840165644224 L 25.258319128747537,274.3262993097797 L 24.899428399975474,274.1413914987365 L 25.058285286413746,273.539627683602 L 24.69104589015328,273.5262714053734 L 24.772730494869815,272.99983318617365 L 24.34384494301973,273.2031697452684 L 23.60808734256322,270.01674537925913 L 23.423049516495876,270.17779835750343 L 20.700309255559525,265.8834242607705 L 21.709619521865868,262.2912192248167 z" id="c28063"/>
		<path d="M 102.48515606438866,38.090057817720414 L 135.19095876761915,37.98168504693333 L 135.39165886550538,67.94050936344142 L 135.3798641879304,70.3450651078077 L 120.91883161969932,70.35148066807102 L 119.05506938176494,70.75188014059134 L 106.8777727205278,70.7429836119355 L 106.93065816455376,62.03695813349157 L 102.82538735643736,59.04474252209835 L 102.49645266394417,41.679307622682096 L 102.48515606438866,38.090057817720414 z" id="c28107"/>
	</g>
</svg>