<?xml version="1.0" encoding="UTF-8"?>
<svg baseProfile="full" fill="#d0d0d0" height="356.20071813125935" stroke="#ffffff" stroke-width="1" version="1.1" width="399.99999999999994" xmlns="http://www.w3.org/2000/svg" xmlns:ev="http://www.w3.org/2001/xml-events" xmlns:xlink="http://www.w3.org/1999/xlink">
	<defs/>
	<g id="counties"><path d="M 66.5684249821025,3.200752155186538 L 72.33436962335192,3.430751648664631 L 76.01793850733331,3.5073915995743543 L 85.45085221695108,3.6929579817083384 L 90.06439982249921,3.7615744470225834 L 89.92652081245886,11.597056071046275 L 90.79467802169103,18.254803199657655 L 68.16304414483264,17.511941326418494 L 67.73442331087963,11.568037443784913 L 66.37199418476123,10.848979291870108 L 66.5684249821025,3.200752155186538 z" id="c29227"/>
		<path d="M 196.35706897761446,213.93261050714233 L 196.53840814553757,204.81992868557384 L 196.58846614592937,201.48734550971787 L 210.0146795332024,201.89963714597909 L 219.99585484662057,202.34797918054957 L 219.49456669613744,233.6976643942491 L 210.0840984634302,233.48005430740503 L 206.03862021284638,233.52492956815507 L 206.083684070767,230.15324196071828 L 196.03988819948614,225.08836015801592 L 196.35706897761446,213.93261050714233 z" id="c29169"/>
		<path d="M 116.86038955152664,51.508252537081965 L 140.57390069183452,51.26408209472419 L 140.12340392920024,71.57341067721939 L 145.94094188051625,71.66971796318099 L 146.19366346280455,77.85593013367162 L 145.19125867231654,78.42970474084413 L 116.595987274504,78.31402259074513 L 116.79647273132335,64.97612298372903 L 116.86038955152664,51.508252537081965 z" id="c29117"/>
		<path d="M 59.59433507002118,295.73796997968964 L 93.486068598579,297.9839129042852 L 92.57732725568675,317.0697751547789 L 74.97670078846318,316.6251192161496 L 59.07314983606154,316.237207026408 L 59.310550649243666,307.5524280884891 L 59.41249962240834,303.3075307553306 L 59.59433507002118,295.73796997968964 z" id="c29119"/>
		<path d="M 125.80767464950358,208.94178888191985 L 129.25092261217128,209.10192511066833 L 129.9346220933596,196.8494861728114 L 156.57347999048642,198.0149654311955 L 155.9994270413143,210.29109330677306 L 149.29295218623426,210.09097769099557 L 148.87829166287062,217.8836462989569 L 126.12836181952443,216.77892144475317 L 125.42760464356643,215.61124424633488 L 125.80767464950358,208.94178888191985 z" id="c29085"/>
		<path d="M 275.8429730299625,293.25871412365063 L 303.83018411484574,293.8810511272266 L 305.9970678513532,293.88954107727454 L 306.0838873592256,303.9767705056948 L 309.51252252219683,317.8331644242098 L 297.77077313797207,317.9849054845702 L 296.6199909857585,318.00166474561274 L 282.137148365299,318.1940246069469 L 275.40991366004835,318.2776988472675 L 275.8429730299625,293.25871412365063 z" id="c29181"/>
		<path d="M 60.089706397673986,277.9079343815631 L 60.19932399177074,273.46463488965253 L 94.5664671203025,274.9468530373089 L 94.1622157148441,283.8731322614879 L 93.486068598579,297.9839129042852 L 59.59433507002118,295.73796997968964 L 60.089706397673986,277.9079343815631 z" id="c29145"/>
		<path d="M 209.5096153656218,177.36973832094918 L 214.32814739058028,172.27371844518706 L 211.16882346034865,167.06154954627746 L 218.65425363263412,167.31615692271805 L 220.74032576001898,159.28963564927585 L 230.03035583983512,151.638491083416 L 242.54007329377237,149.0649825299111 L 242.94959334355386,149.03305308506444 L 242.80227352225984,180.9567534557883 L 209.43041919305412,180.69736553144148 L 209.5096153656218,177.36973832094918 z" id="c29151"/>
		<path d="M 179.7626014381331,80.15698684951184 L 180.07184999820606,79.19185422941669 L 203.36730644493065,79.68782554020882 L 202.75964775817727,99.5081069548261 L 202.46929486706583,107.30483602944142 L 195.5449157930083,107.09853458984338 L 179.00619057476226,101.39998874227813 L 179.7626014381331,80.15698684951184 z" id="c29175"/>
		<path d="M 303.93355551405654,222.96947101445033 L 303.8853845039561,196.7134781164979 L 304.68151792222505,201.9896067370754 L 317.529040993359,199.14013776168144 L 323.2679460616226,203.7006017785037 L 315.10616294312723,211.73346012149943 L 331.16438844908157,227.54087220940914 L 336.63585355080613,227.3068341495831 L 334.4665380497711,229.63142016091558 L 310.75487964831933,229.87559187543042 L 303.86352107113146,230.03809355903763 L 303.93355551405654,222.96947101445033 z" id="c29187"/>
		<path d="M 200.6663192903847,3.266195977207308 L 210.71755832884486,3.0410314557620866 L 224.62497623585244,2.623230595318792 L 224.24742199864815,26.15023154560478 L 200.76262858967996,25.96648457419362 L 200.6463489016691,22.594645710415772 L 200.6663192903847,3.266195977207308 z" id="c29199"/>
		<path d="M 90.1830491054212,67.43075094315847 L 90.2643604145392,64.11225087835636 L 116.79647273132335,64.97612298372903 L 116.595987274504,78.31402259074513 L 116.4273847657124,84.99709376377942 L 89.65928752669734,84.2543165072042 L 90.1830491054212,67.43075094315847 z" id="c29025"/>
		<path d="M 219.99585484662057,202.34797918054957 L 227.64100556045713,199.22832381497022 L 243.6153432070491,199.2090733691852 L 243.6998145233886,191.32739573428609 L 249.53554050724668,191.37380712254736 L 250.09636638390614,192.67478328063382 L 250.00823951187957,219.30778090466472 L 233.0955595658944,219.18843958967662 L 232.94828170893,233.96919208236056 L 219.49456669613744,233.6976643942491 L 219.99585484662057,202.34797918054957 z" id="c29161"/>
		<path d="M 122.33689938965595,271.6226488411251 L 155.75976308526123,272.802857000935 L 165.24280722818034,273.1377447943764 L 165.7110830117813,274.28771138429005 L 165.15270085885112,294.35711725791697 L 140.77849669266269,293.4928970392055 L 138.9193458718399,279.9837837429821 L 122.13296211120404,279.47789764797665 L 122.33689938965595,271.6226488411251 z" id="c29043"/>
		<path d="M 149.29295218623426,210.09097769099557 L 155.9994270413143,210.29109330677306 L 169.20772533848628,210.94983086259882 L 169.64654830740764,224.37425892155684 L 169.04942168519298,242.57822573883274 L 155.70489134918842,242.18095752738614 L 155.53432846081148,247.74379641963657 L 148.85338352827418,247.4971471075972 L 149.70929056077938,223.50754907705672 L 148.87829166287062,217.8836462989569 L 149.29295218623426,210.09097769099557 z" id="c29059"/>
		<path d="M 209.43041919305412,180.69736553144148 L 242.80227352225984,180.9567534557883 L 242.82743119305658,190.48500869544165 L 243.6998145233886,191.32739573428609 L 243.6153432070491,199.2090733691852 L 227.64100556045713,199.22832381497022 L 219.99585484662057,202.34797918054957 L 210.0146795332024,201.89963714597909 L 210.2782083635871,190.76615919852006 L 209.43041919305412,180.69736553144148 z" id="c29125"/>
		<path d="M 37.06169190657891,82.37199668775435 L 66.25974888275455,83.45404030431806 L 66.1328920236011,89.14922518423458 L 65.45490819041564,112.27311230871919 L 64.1401527122297,112.15357933181468 L 60.82117411915889,109.93238365642048 L 57.104041151112796,110.91516390165943 L 54.175346505177345,108.44256906626786 L 53.726909862374114,108.06364818744444 L 52.2501102965651,105.27283767220204 L 50.443380673993666,102.75018270105923 L 47.508365709381565,98.8278332257296 L 48.80419950888072,93.57188446041636 L 45.37776668636729,92.90945771165718 L 44.28968722594915,91.18569824947876 L 43.355430762894365,89.70458852759863 L 39.445767614796814,85.43744403432846 L 37.06169190657891,82.37199668775435 z" id="c29165"/>
		<path d="M 204.2188735733456,52.961527475033634 L 210.77199789094337,52.822666381423346 L 224.0846571976801,53.22177789258259 L 230.74575373136622,53.306505016947845 L 230.40170129167427,75.61546472106296 L 210.27592030810342,75.27203436272067 L 210.16588438252563,79.8021108650469 L 203.45989667998674,79.68841564369342 L 204.2188735733456,52.961527475033634 z" id="c29205"/>
		<path d="M 94.64245500972724,229.50872952459244 L 95.54277209198057,209.45361503271278 L 111.15612500650512,210.39724504054294 L 110.92489467772404,214.85978429355254 L 122.06623837681347,215.44902752498697 L 123.10850560065043,222.20247711354773 L 122.49625481266283,235.180122591391 L 94.43467544714315,233.97182069100867 L 94.64245500972724,229.50872952459244 z" id="c29039"/>
		<path d="M 122.06623837681347,215.44902752498697 L 125.42760464356643,215.61124424633488 L 126.12836181952443,216.77892144475317 L 148.87829166287062,217.8836462989569 L 149.70929056077938,223.50754907705672 L 148.85338352827418,247.4971471075972 L 121.9996255365564,246.32995008778704 L 122.49625481266283,235.180122591391 L 123.10850560065043,222.20247711354773 L 122.06623837681347,215.44902752498697 z" id="c29167"/>
		<path d="M 67.04876633865912,44.2659475552523 L 89.92171066763024,45.160164362786254 L 90.804793465939,45.93789353126788 L 90.2643604145392,64.11225087835636 L 90.1830491054212,67.43075094315847 L 66.63914922903726,66.7515035950587 L 66.75308256557877,61.15403611876853 L 67.04876633865912,44.2659475552523 z" id="c29063"/>
		<path d="M 180.9229530005669,3.7364310812653754 L 183.79103834801077,3.6672482211822817 L 194.61600446552822,3.393305973064124 L 200.6663192903847,3.266195977207308 L 200.6463489016691,22.594645710415772 L 180.9394747516478,22.72535968553609 L 179.51318168998915,14.82086688282358 L 181.10092519703088,5.963620112072035 L 179.2828166094427,3.742197252770497 L 180.9229530005669,3.7364310812653754 z" id="c29197"/>
		<path d="M 66.63914922903726,66.7515035950587 L 90.1830491054212,67.43075094315847 L 89.65928752669734,84.2543165072042 L 89.40175832929701,89.83125715334717 L 66.1328920236011,89.14922518423458 L 66.25974888275455,83.45404030431806 L 66.63914922903726,66.7515035950587 z" id="c29049"/>
		<path d="M 129.91909121813939,163.0791114069478 L 143.25301030578314,163.7422149090551 L 143.36666976741526,161.50906274934283 L 156.8358622365723,162.08494068333806 L 155.9833079352696,182.59166502087922 L 157.04743809213298,188.55220375582178 L 156.57347999048642,198.0149654311955 L 129.9346220933596,196.8494861728114 L 130.4866587237634,187.1774121652083 L 128.90742587102145,186.5284205797257 L 129.91909121813939,163.0791114069478 z" id="c29015"/>
		<path d="M 165.7110830117813,274.28771138429005 L 170.54552693298487,274.48192750758983 L 179.08421406459308,274.6720386294198 L 205.8159454494216,275.36726579686 L 215.8238850684806,275.6459740932337 L 215.36569564567645,295.4378123741738 L 214.34638555719454,295.759763446227 L 174.06805297769824,294.66943826851997 L 165.15270085885112,294.35711725791697 L 165.7110830117813,274.28771138429005 z" id="c29067"/>
		<path d="M 93.83334548807971,137.7529826760096 L 94.26818454183565,131.2904164469579 L 111.08463000689767,130.04266418827038 L 131.33936256151017,131.11452759610054 L 131.5554175899544,133.38020984694904 L 130.07413254924683,159.71910846092106 L 96.69902739530895,158.25425185030747 L 93.36149809707878,158.0809083644515 L 93.83334548807971,137.7529826760096 z" id="c29101"/>
		<path d="M 310.0494781419706,233.36050872036895 L 310.75487964831933,229.87559187543042 L 334.4665380497711,229.63142016091558 L 334.53132436329935,233.02446410046747 L 335.0089995750427,254.93307776006404 L 330.5922225695682,254.79376610640045 L 310.2251679865412,254.92637312757677 L 310.0494781419706,233.36050872036895 z" id="c29123"/>
		<path d="M 96.21037399884753,199.04404656579956 L 97.0038285330619,185.42917654506155 L 126.86737262400368,186.9685599490399 L 128.90742587102145,186.5284205797257 L 130.4866587237634,187.1774121652083 L 129.9346220933596,196.8494861728114 L 129.25092261217128,209.10192511066833 L 125.80767464950358,208.94178888191985 L 125.42760464356643,215.61124424633488 L 122.06623837681347,215.44902752498697 L 110.92489467772404,214.85978429355254 L 111.15612500650512,210.39724504054294 L 95.54277209198057,209.45361503271278 L 96.21037399884753,199.04404656579956 z" id="c29185"/>
		<path d="M 117.200306723572,28.058080961807615 L 140.58190964097497,28.250556692477264 L 140.38793305138734,44.794384231860114 L 140.6440276243031,46.2202252048984 L 140.57390069183452,51.26408209472419 L 116.86038955152664,51.508252537081965 L 116.97824774161681,38.15490583663257 L 117.200306723572,28.058080961807615 z" id="c29079"/>
		<path d="M 242.47639479344343,276.1736040787808 L 242.926070818058,247.4687796642282 L 269.55878586200896,247.88684161705135 L 271.79222600521695,247.90479914506062 L 272.88210449323225,260.17253749827864 L 274.9634503063434,264.41278567917544 L 280.6172501148433,266.6740836487463 L 281.6923999473185,272.3198440987563 L 269.43584741999433,273.15759383086265 L 269.20908716265234,288.6942474737356 L 242.36500476546655,288.47315309934004 L 242.47639479344343,276.1736040787808 z" id="c29203"/>
		<path d="M 170.6708885658777,150.3805258032902 L 184.08886903602604,150.78435598358703 L 191.34093086941579,132.2106807253574 L 198.34065640742435,140.95908538760037 L 197.50321651354704,146.30781742028452 L 191.3415866721756,170.2123339649627 L 183.4825532945711,169.94094289540413 L 170.4910068294125,157.0820060182374 L 170.6708885658777,150.3805258032902 z" id="c29135"/>
		<path d="M 214.34638555719454,295.759763446227 L 215.36569564567645,295.4378123741738 L 215.8238850684806,275.6459740932337 L 242.47639479344343,276.1736040787808 L 242.36500476546655,288.47315309934004 L 241.39622586610892,296.2216674933582 L 241.5869126817503,318.37201784960877 L 222.16231239042364,318.4691088236126 L 213.81955302884958,318.4828663119416 L 214.34638555719454,295.759763446227 z" id="c29091"/>
		<path d="M 191.3415866721756,170.2123339649627 L 197.50321651354704,146.30781742028452 L 199.71792137401795,150.89986993449696 L 207.97747002970226,153.71888896185493 L 211.52659843374286,158.7314435017803 L 220.74032576001898,159.28963564927585 L 218.65425363263412,167.31615692271805 L 211.16882346034865,167.06154954627746 L 214.32814739058028,172.27371844518706 L 209.5096153656218,177.36973832094918 L 196.56093015832167,176.88370512323291 L 196.8853783906629,170.42964304269407 L 191.3415866721756,170.2123339649627 z" id="c29051"/>
		<path d="M 90.06439982249921,3.7615744470225834 L 98.36212786658949,3.875727744273132 L 102.80693919469999,3.877692161266866 L 113.07078334090981,3.869184142691817 L 116.98535805000935,3.884039593542184 L 117.39986755449043,11.988294674860326 L 117.200306723572,28.058080961807615 L 116.97824774161681,38.15490583663257 L 90.22268088330627,37.32757969029758 L 90.79467802169103,18.254803199657655 L 89.92652081245886,11.597056071046275 L 90.06439982249921,3.7615744470225834 z" id="c29081"/>
		<path d="M 121.9872970724205,285.0790367141366 L 122.13296211120404,279.47789764797665 L 138.9193458718399,279.9837837429821 L 140.77849669266269,293.4928970392055 L 139.77495936321537,317.93383164534123 L 132.85632091111157,317.8165793856845 L 123.1117503840865,317.6432551402205 L 124.15399680550385,293.0068388278969 L 121.73999536386202,292.9270798472773 L 121.9872970724205,285.0790367141366 z" id="c29209"/>
		<path d="M 94.67965496022961,123.78453733687783 L 95.20184971363577,113.90735576390851 L 100.04762308438787,113.16025563497074 L 102.76902054437943,109.2652996320663 L 102.1596574766083,113.33803412554875 L 111.15763586605917,108.68987169671492 L 116.03393393779376,109.4288967678248 L 122.54674001590726,106.371900926398 L 132.00265949078738,108.4274974709779 L 132.9638979793989,103.10672877669916 L 131.41032080249886,130.00745093085018 L 131.33936256151017,131.11452759610054 L 111.08463000689767,130.04266418827038 L 94.26818454183565,131.2904164469579 L 94.67965496022961,123.78453733687783 z" id="c29107"/>
		<path d="M 203.36730644493065,79.68782554020882 L 203.45989667998674,79.68841564369342 L 210.16588438252563,79.8021108650469 L 210.27592030810342,75.27203436272067 L 230.40170129167427,75.61546472106296 L 238.22626460643718,75.66495926816303 L 238.4365849768257,80.1714384360419 L 238.13457566754627,100.18051197083034 L 228.77252112068982,100.30206702341857 L 202.75964775817727,99.5081069548261 L 203.36730644493065,79.68782554020882 z" id="c29137"/>
		<path d="M 140.72320614321455,19.25961654049289 L 170.87620964021778,19.376765120865045 L 170.82868456862252,22.70255954556278 L 170.59088980055628,46.23749027176664 L 140.6440276243031,46.2202252048984 L 140.38793305138734,44.794384231860114 L 140.58190964097497,28.250556692477264 L 140.72320614321455,19.25961654049289 z" id="c29211"/>
		<path d="M 140.77849669266269,293.4928970392055 L 165.15270085885112,294.35711725791697 L 174.06805297769824,294.66943826851997 L 173.421812707529,318.3081635731293 L 169.29833641062757,318.2782751477989 L 168.35809369142888,318.2709302579681 L 151.50804539009127,318.1147358742817 L 141.13066007633688,317.9558875148612 L 139.77495936321537,317.93383164534123 L 140.77849669266269,293.4928970392055 z" id="c29213"/>
		<path d="M 156.8358622365723,162.08494068333806 L 157.41263839396223,149.55268402859693 L 170.6708885658777,150.3805258032902 L 170.4910068294125,157.0820060182374 L 183.4825532945711,169.94094289540413 L 182.9236750962166,176.29365699968739 L 179.52975405306893,176.2408698698852 L 179.0947812781434,185.95548969538146 L 174.91347222366184,188.41532902740633 L 172.34167933604988,188.2766119897662 L 159.72430909849498,188.26607995449345 L 155.9833079352696,182.59166502087922 L 156.8358622365723,162.08494068333806 z" id="c29141"/>
		<path d="M 60.39518182430765,265.52692298572754 L 60.795621193585994,251.84883361517865 L 60.85347785253149,249.87210120630445 L 93.64817001884634,251.79784884857 L 93.44594198876378,256.2821981663917 L 95.37807449545116,256.38215636050074 L 94.5664671203025,274.9468530373089 L 60.19932399177074,273.46463488965253 L 60.39518182430765,265.52692298572754 z" id="c29097"/>
		<path d="M 61.48951329514952,225.4540476531588 L 62.32147939693271,201.99242830875514 L 62.44411731306099,198.20972478295835 L 62.50136397243436,196.44367401439888 L 85.1560043987343,197.71182670786652 L 85.28617591962525,199.62110101420197 L 91.57083555807395,197.29357988424462 L 96.21037399884753,199.04404656579956 L 95.54277209198057,209.45361503271278 L 94.64245500972724,229.50872952459244 L 61.433449489346856,227.6528947697043 L 61.47169056530876,226.15305521457944 L 61.48951329514952,225.4540476531588 z" id="c29217"/>
		<path d="M 66.1328920236011,89.14922518423458 L 89.40175832929701,89.83125715334717 L 88.86196939963976,108.87590518692711 L 84.2316761324818,106.47445781893236 L 81.47642411369313,110.53290914711211 L 79.59762589624974,112.0355881354251 L 77.1013487944636,109.6374693956827 L 77.58678055331293,111.09609472611758 L 77.42427159568572,111.86452175809312 L 75.9776313035438,113.59581013716542 L 74.16516881181161,114.99009819559683 L 73.79085505720167,115.19097947513987 L 72.46027353168208,113.22359195883955 L 71.8233513581511,112.83117694176251 L 70.14038267932177,112.91317263123818 L 69.18407477183554,113.35554199205001 L 68.54127523967847,114.24759935221323 L 66.28765860387578,114.77087988327968 L 67.02659176493279,110.33818999781423 L 66.05294536511907,112.32738533436923 L 65.45490819041564,112.27311230871919 L 66.1328920236011,89.14922518423458 z" id="c29047"/>
		<path d="M 164.72559154279097,116.6585688697946 L 170.46489601861936,108.67265202633516 L 174.0591902006008,99.67161507679756 L 179.00619057476226,101.39998874227813 L 195.5449157930083,107.09853458984338 L 187.36909902876658,126.29335819574034 L 187.77495325339305,128.4530566561187 L 170.09865105698532,127.44260123417189 L 165.23994991315308,121.06303322795577 L 164.72559154279097,116.6585688697946 z" id="c29089"/>
		<path d="M 302.7275487938405,285.06392719906944 L 328.6172933407037,285.0026624203897 L 332.1770217470079,296.43887985434765 L 336.2639552905523,302.21256207193403 L 335.8272306251289,307.2430213771802 L 332.1433073947995,314.11469033154697 L 331.53875382067235,317.6643492360833 L 314.56895069376696,317.7608569909792 L 309.51252252219683,317.8331644242098 L 306.0838873592256,303.9767705056948 L 305.9970678513532,293.88954107727454 L 303.83018411484574,293.8810511272266 L 303.84034386467,288.3949105440367 L 302.7275487938405,285.06392719906944 z" id="c29023"/>
		<path d="M 179.25671208127045,242.84430199305635 L 205.84174986477674,243.63161281150718 L 205.8159454494216,275.36726579686 L 179.08421406459308,274.6720386294198 L 179.25671208127045,242.84430199305635 z" id="c29229"/>
		<path d="M 155.9833079352696,182.59166502087922 L 159.72430909849498,188.26607995449345 L 172.34167933604988,188.2766119897662 L 174.91347222366184,188.41532902740633 L 179.0947812781434,185.95548969538146 L 184.59956676467868,189.93401680371036 L 186.64025821129155,197.94533124595156 L 189.9210120226764,201.36722212115023 L 196.58846614592937,201.48734550971787 L 196.53840814553757,204.81992868557384 L 196.35706897761446,213.93261050714233 L 187.8144805608625,218.39594490899836 L 183.5248197781178,211.3041100067656 L 169.20772533848628,210.94983086259882 L 155.9994270413143,210.29109330677306 L 156.57347999048642,198.0149654311955 L 157.04743809213298,188.55220375582178 L 155.9833079352696,182.59166502087922 z" id="c29029"/>
		<path d="M 96.42080501642346,167.49752957160402 L 96.32402090864558,166.040159280844 L 96.69902739530895,158.25425185030747 L 130.07413254924683,159.71910846092106 L 129.91909121813939,163.0791114069478 L 128.90742587102145,186.5284205797257 L 126.86737262400368,186.9685599490399 L 97.0038285330619,185.42917654506155 L 95.47333976510512,185.28527372534631 L 96.42080501642346,167.49752957160402 z" id="c29083"/>
		<path d="M 41.361505273467465,36.525458128430536 L 67.19249357642576,37.5725344844434 L 67.04876633865912,44.2659475552523 L 66.75308256557877,61.15403611876853 L 50.43096967321662,60.63848680322376 L 50.39544714158755,60.18896102680255 L 47.554772693075456,56.26696982654584 L 46.24217408659951,54.36416296665672 L 43.75735845485314,54.44073288084654 L 43.08845123519966,43.00113693047342 L 40.17107160223693,41.100038091476485 L 41.361505273467465,36.525458128430536 z" id="c29003"/>
		<path d="M 33.07629222758845,1.6979129188551276 L 40.90716661907874,2.062738457787126 L 49.952665234687174,2.488766178530485 L 55.52758191409041,2.7442704487037304 L 66.5684249821025,3.200752155186538 L 66.37199418476123,10.848979291870108 L 67.73442331087963,11.568037443784913 L 68.16304414483264,17.511941326418494 L 67.19249357642576,37.5725344844434 L 41.361505273467465,36.525458128430536 L 40.34690176691341,27.514424675030888 L 33.56011826468969,26.13370418996744 L 34.27169742711321,9.40893708118088 L 33.07629222758845,1.6979129188551276 z" id="c29147"/>
		<path d="M 11.882388057969026,25.183871817833076 L 33.56011826468969,26.13370418996744 L 40.34690176691341,27.514424675030888 L 41.361505273467465,36.525458128430536 L 40.17107160223693,41.100038091476485 L 43.08845123519966,43.00113693047342 L 43.75735845485314,54.44073288084654 L 42.25049080126964,54.4866503550328 L 38.44184684997064,57.11559213700532 L 34.911766451010614,54.407368109878966 L 29.777090950478982,50.51453190301754 L 25.350077914528757,46.03554053170514 L 23.02990485887984,43.699061252839634 L 21.001409113473848,43.79809166920677 L 19.23493268055887,40.4454142580495 L 20.55055075333072,37.52776995767108 L 18.395131756521945,34.927607755859505 L 15.637682366019241,31.169077164064515 L 16.267157851224855,27.525075718753214 L 11.927832383319082,25.597916674876508 L 11.896246523183484,25.310145605181233 L 11.882388057969026,25.183871817833076 z" id="c29087"/>
		<path d="M 200.76262858967996,25.96648457419362 L 224.24742199864815,26.15023154560478 L 224.18626573170388,29.51162814468841 L 224.39887042938264,32.85638634031394 L 224.0846571976801,53.22177789258259 L 210.77199789094337,52.822666381423346 L 204.2188735733456,52.961527475033634 L 200.85086224792994,52.88855559756528 L 200.8524113132554,46.42540023438599 L 200.76262858967996,25.96648457419362 z" id="c29103"/>
		<path d="M 253.47520667011415,91.5283315704291 L 269.94167878430386,80.060969453084 L 270.46042129782234,80.53838203587951 L 272.0369771555208,84.07946133322359 L 274.90032021931944,84.60073477886932 L 277.07804172627107,87.97114842388382 L 278.6651964467036,91.51222547385636 L 284.72192279669713,95.11587306939396 L 284.85029667643323,95.21625948790776 L 290.58627843425614,99.69518023947701 L 297.25107140261485,106.11861785118505 L 297.68211694936133,108.55920106288961 L 270.17463344121506,108.6108501946131 L 270.08008303922134,115.39603129733031 L 265.6002575783707,115.37023044838223 L 256.684810200236,115.22299635420305 L 254.8581294714345,101.67905825134174 L 253.47520667011415,91.5283315704291 z" id="c29163"/>
		<path d="M 130.07413254924683,159.71910846092106 L 131.5554175899544,133.38020984694904 L 131.33936256151017,131.11452759610054 L 131.41032080249886,130.00745093085018 L 158.17923656719182,131.47609257186463 L 157.41263839396223,149.55268402859693 L 156.8358622365723,162.08494068333806 L 143.36666976741526,161.50906274934283 L 143.25301030578314,163.7422149090551 L 129.91909121813939,163.0791114069478 L 130.07413254924683,159.71910846092106 z" id="c29159"/>
		<path d="M 328.6172933407037,285.0026624203897 L 332.9682972557624,279.4491939136202 L 335.2266394186261,275.70165830707714 L 337.5206811599066,275.68849114425063 L 344.63123618305553,275.6319910614445 L 346.71652129088744,268.88938075678425 L 352.43151308256853,268.85470935484415 L 358.66529283456765,268.7287758255973 L 357.4014599078638,271.7497188315857 L 363.6773113746604,283.97733119437066 L 363.6692203339478,289.08278721464126 L 363.5085649767277,306.90540447752994 L 347.5576118529936,307.11283220789005 L 337.5476839481827,307.175643324964 L 335.8272306251289,307.2430213771802 L 336.2639552905523,302.21256207193403 L 332.1770217470079,296.43887985434765 L 328.6172933407037,285.0026624203897 z" id="c29207"/>
		<path d="M 170.82868456862252,22.70255954556278 L 180.9394747516478,22.72535968553609 L 200.6463489016691,22.594645710415772 L 200.76262858967996,25.96648457419362 L 200.8524113132554,46.42540023438599 L 171.106829280676,46.238256495142274 L 170.59088980055628,46.23749027176664 L 170.82868456862252,22.70255954556278 z" id="c29001"/>
		<path d="M 347.7837136029212,325.5737106377173 L 360.764398919918,325.4758949029696 L 362.13667169300953,322.28848737999107 L 369.4556456013851,323.36136861759127 L 373.6942197268868,328.40102918529703 L 370.25092437858495,328.58468657075764 L 369.6141548892977,331.20248327850226 L 373.2463913808837,333.5190678279617 L 370.33331458883447,336.6342631937874 L 365.6115559397358,335.9661014626626 L 364.7471483532212,337.77701804515533 L 368.86018100813095,340.7114413743025 L 369.10317024480804,340.88462536334737 L 371.16404817408915,344.48026389703506 L 368.05403852987894,347.01332119836115 L 365.7880760186421,348.6888579880477 L 365.1268248395171,353.46266300933115 L 362.62797166551866,355.0481839895451 L 352.15107440991346,355.3758981842757 L 348.5236656430674,355.47909146711424 L 347.7837136029212,325.5737106377173 z" id="c29155"/>
		<path d="M 256.41315283910603,138.08725232440685 L 265.48896462440115,138.13926689933948 L 265.44187194147423,126.68556123973738 L 269.9977017051284,126.69752900660633 L 269.9781870946473,131.31176389153526 L 274.7334236126407,131.28992923407645 L 274.71059955862023,135.84253339417802 L 283.8924128684408,135.89434937067224 L 283.79767500106516,160.75635151632875 L 276.9398602072315,156.07345311458067 L 267.9312956625313,155.2112253697674 L 262.3078445226096,148.57891384736942 L 259.2898616966159,149.29440842708584 L 256.30599614428246,148.50897247581034 L 256.41315283910603,138.08725232440685 z" id="c29219"/>
		<path d="M 93.64817001884634,251.79784884857 L 94.43467544714315,233.97182069100867 L 122.49625481266283,235.180122591391 L 121.9996255365564,246.32995008778704 L 121.52799007869227,257.49019468506225 L 95.37807449545116,256.38215636050074 L 93.44594198876378,256.2821981663917 L 93.64817001884634,251.79784884857 z" id="c29057"/>
		<path d="M 205.84174986477674,243.63161281150718 L 206.03862021284638,233.52492956815507 L 210.0840984634302,233.48005430740503 L 219.49456669613744,233.6976643942491 L 232.94828170893,233.96919208236056 L 236.26723907141664,233.96913875604108 L 236.2856383453218,247.38305361241274 L 242.926070818058,247.4687796642282 L 242.47639479344343,276.1736040787808 L 215.8238850684806,275.6459740932337 L 205.8159454494216,275.36726579686 L 205.84174986477674,243.63161281150718 z" id="c29215"/>
		<path d="M 242.54007329377237,149.0649825299111 L 243.2320599473603,121.71050099110182 L 243.4702365236986,114.878933814546 L 256.684810200236,115.22299635420305 L 265.6002575783707,115.37023044838223 L 265.44187194147423,126.68556123973738 L 265.48896462440115,138.13926689933948 L 256.41315283910603,138.08725232440685 L 256.30599614428246,148.50897247581034 L 247.91059236503642,151.1008956352707 L 242.94959334355386,149.03305308506444 L 242.54007329377237,149.0649825299111 z" id="c29139"/>
		<path d="M 121.9996255365564,246.32995008778704 L 148.85338352827418,247.4971471075972 L 155.53432846081148,247.74379641963657 L 155.20441387988424,258.87170997480354 L 156.07367235597042,261.5629315392054 L 155.75976308526123,272.802857000935 L 122.33689938965595,271.6226488411251 L 122.79763717814859,257.6460393246284 L 121.52799007869227,257.49019468506225 L 121.9996255365564,246.32995008778704 z" id="c29077"/>
		<path d="M 265.6002575783707,115.37023044838223 L 270.08008303922134,115.39603129733031 L 270.17463344121506,108.6108501946131 L 297.68211694936133,108.55920106288961 L 298.67645349653407,114.18152708372621 L 300.33437945637905,118.02701037532206 L 298.43080052445845,121.63809391085582 L 300.735857842498,126.98303873459675 L 301.67670169785026,130.76951743480862 L 298.94770817769404,133.27118000098048 L 292.3463573917853,135.4065778076797 L 283.8924128684408,135.89434937067224 L 274.71059955862023,135.84253339417802 L 274.7334236126407,131.28992923407645 L 269.9781870946473,131.31176389153526 L 269.9977017051284,126.69752900660633 L 265.44187194147423,126.68556123973738 L 265.6002575783707,115.37023044838223 z" id="c29113"/>
		<path d="M 224.24742199864815,26.15023154560478 L 224.62497623585244,2.623230595318792 L 224.84976168516155,2.6162026219462677 L 237.19845366335645,2.017929897673092 L 237.9327422534374,2.7791439987425712 L 239.77661824283393,4.689283172458096 L 240.6295815012402,6.8416681234288 L 243.69058678278566,7.7444006611954705 L 244.3290400138405,10.751738420567866 L 246.9611081042379,13.7509349891958 L 249.6039867317765,15.909638761533062 L 250.8553640921145,18.284715173672307 L 255.50144536594638,20.082854807604324 L 252.56389377267237,24.40400306457753 L 251.21426006183253,28.45567920493459 L 250.98259331830644,30.09191075196877 L 224.18626573170388,29.51162814468841 L 224.24742199864815,26.15023154560478 z" id="c29045"/>
		<path d="M 0.0,0.0 L 13.646098306385314,0.7342909730402335 L 22.99642345408425,1.2102383957958982 L 25.24742579855968,1.322553240240344 L 33.07629222758845,1.6979129188551276 L 34.27169742711321,9.40893708118088 L 33.56011826468969,26.13370418996744 L 11.882388057969026,25.183871817833076 L 11.65529729528917,23.113591338482166 L 9.032680819605059,21.580118997698616 L 5.8225153720813285,20.476869255363614 L 6.696047619515508,17.130166705109353 L 6.286705591816376,14.820608272902803 L 4.422783926292079,9.566745476715068 L 3.900544031589968,7.214865158441574 L 2.9558198048331827,4.853326018904721 L 2.8476673534389008,4.582824536807301 L 0.32714588226756336,4.581111891738386 L 0.0,0.0 z" id="c29005"/>
		<path d="M 64.71804778905603,125.61936067082253 L 64.8727303446695,120.83150365406246 L 65.04495553628358,115.49892981524728 L 66.05294536511907,112.32738533436923 L 67.02659176493279,110.33818999781423 L 66.28765860387578,114.77087988327968 L 68.54127523967847,114.24759935221323 L 69.18407477183554,113.35554199205001 L 70.14038267932177,112.91317263123818 L 71.8233513581511,112.83117694176251 L 72.46027353168208,113.22359195883955 L 73.79085505720167,115.19097947513987 L 74.16516881181161,114.99009819559683 L 75.9776313035438,113.59581013716542 L 77.42427159568572,111.86452175809312 L 77.58678055331293,111.09609472611758 L 77.1013487944636,109.6374693956827 L 79.59762589624974,112.0355881354251 L 81.47642411369313,110.53290914711211 L 84.2316761324818,106.47445781893236 L 88.86196939963976,108.87590518692711 L 91.20697432881218,108.40923787439667 L 95.20184971363577,113.90735576390851 L 94.67965496022961,123.78453733687783 L 94.26818454183565,131.2904164469579 L 93.83334548807971,137.7529826760096 L 64.4062174686674,135.96600667877522 L 64.71804778905603,125.61936067082253 z" id="c29095"/>
		<path d="M 276.1135564728232,187.23206715580613 L 295.24884496241407,187.02343751619546 L 301.1548169184712,196.00348423681942 L 303.8853845039561,196.7134781164979 L 303.93355551405654,222.96947101445033 L 276.1816218720428,222.88786397824236 L 276.1135564728232,187.23206715580613 z" id="c29221"/>
		<path d="M 169.20772533848628,210.94983086259882 L 183.5248197781178,211.3041100067656 L 187.8144805608625,218.39594490899836 L 196.35706897761446,213.93261050714233 L 196.03988819948614,225.08836015801592 L 206.083684070767,230.15324196071828 L 206.03862021284638,233.52492956815507 L 205.84174986477674,243.63161281150718 L 179.25671208127045,242.84430199305635 L 169.04942168519298,242.57822573883274 L 169.64654830740764,224.37425892155684 L 169.20772533848628,210.94983086259882 z" id="c29105"/>
		<path d="M 171.106829280676,46.238256495142274 L 200.8524113132554,46.42540023438599 L 200.85086224792994,52.88855559756528 L 204.2188735733456,52.961527475033634 L 203.45989667998674,79.68841564369342 L 203.36730644493065,79.68782554020882 L 180.07184999820606,79.19185422941669 L 180.2869658325059,72.43191430392126 L 170.26223245764749,72.20756100128152 L 171.106829280676,46.238256495142274 z" id="c29121"/>
		<path d="M 358.66529283456765,268.7287758255973 L 367.3762264970539,260.3110431433712 L 375.7526109515369,257.956426299947 L 376.526194134538,258.5198874012996 L 377.54041292033247,263.5046410571945 L 382.1307283733544,269.9016971965067 L 383.7752333159613,274.51686247449044 L 387.00465407816597,275.49285444595915 L 382.97391067890936,280.5026507432046 L 377.46878944853245,282.89081322565045 L 375.29042094894226,285.20943891174824 L 374.2441409851071,288.0500027285677 L 371.3256853809106,288.0256875118263 L 363.6692203339478,289.08278721464126 L 363.6773113746604,283.97733119437066 L 357.4014599078638,271.7497188315857 L 358.66529283456765,268.7287758255973 z" id="c29201"/>
		<path d="M 145.19125867231654,78.42970474084413 L 146.19366346280455,77.85593013367162 L 145.94094188051625,71.66971796318099 L 156.92424148258436,71.55806797450697 L 170.26223245764749,72.20756100128152 L 180.2869658325059,72.43191430392126 L 180.07184999820606,79.19185422941669 L 179.7626014381331,80.15698684951184 L 179.00619057476226,101.39998874227813 L 174.0591902006008,99.67161507679756 L 170.46489601861936,108.67265202633516 L 166.72667093658634,108.81403222797745 L 163.91289493418256,101.97151957597696 L 157.17133599361168,100.13251546951204 L 155.32652386779952,96.40779119033957 L 154.49977016900127,93.82445724904247 L 145.1682973561383,90.54003975934495 L 145.19125867231654,78.42970474084413 z" id="c29041"/>
		<path d="M 179.52975405306893,176.2408698698852 L 182.9236750962166,176.29365699968739 L 183.4825532945711,169.94094289540413 L 191.3415866721756,170.2123339649627 L 196.8853783906629,170.42964304269407 L 196.56093015832167,176.88370512323291 L 209.5096153656218,177.36973832094918 L 209.43041919305412,180.69736553144148 L 210.2782083635871,190.76615919852006 L 210.0146795332024,201.89963714597909 L 196.58846614592937,201.48734550971787 L 189.9210120226764,201.36722212115023 L 186.64025821129155,197.94533124595156 L 184.59956676467868,189.93401680371036 L 179.0947812781434,185.95548969538146 L 179.52975405306893,176.2408698698852 z" id="c29131"/>
		<path d="M 249.47000217586444,186.88758554144223 L 259.6346387878305,186.9258495599935 L 260.72460695870444,187.35394535261943 L 276.1135564728232,187.23206715580613 L 276.1816218720428,222.88786397824236 L 273.3444092653068,222.85174989272832 L 272.956869896909,226.1943883409347 L 263.3543938814404,226.06127348753668 L 263.45042938836866,219.3669066141438 L 250.00823951187957,219.30778090466472 L 250.09636638390614,192.67478328063382 L 249.53554050724668,191.37380712254736 L 249.47000217586444,186.88758554144223 z" id="c29055"/>
		<path d="M 347.346355968214,324.4717796301284 L 347.5576118529936,307.11283220789005 L 363.5085649767277,306.90540447752994 L 363.6692203339478,289.08278721464126 L 371.3256853809106,288.0256875118263 L 374.2441409851071,288.0500027285677 L 374.29279968567647,289.7167826799681 L 383.5917813508448,300.606192095537 L 386.6246144150615,306.59093499266015 L 383.4505483514986,306.8033106437308 L 381.7648761863235,311.4509348188842 L 377.3351659312601,311.26590282780387 L 373.29063599003723,310.7341459012515 L 371.685619384703,313.57050759585513 L 373.75946748182724,316.6018904311501 L 374.957200113714,319.3358327593722 L 373.71620188198847,322.5785762917776 L 375.77888495063723,325.7318714190982 L 375.0796350198948,328.32658463097135 L 373.6942197268868,328.40102918529703 L 369.4556456013851,323.36136861759127 L 362.13667169300953,322.28848737999107 L 360.764398919918,325.4758949029696 L 347.7837136029212,325.5737106377173 L 347.346355968214,324.4717796301284 z" id="c29143"/>
		<path d="M 242.80227352225984,180.9567534557883 L 242.94959334355386,149.03305308506444 L 247.91059236503642,151.1008956352707 L 256.30599614428246,148.50897247581034 L 259.2898616966159,149.29440842708584 L 259.6346387878305,186.9258495599935 L 249.47000217586444,186.88758554144223 L 249.53554050724668,191.37380712254736 L 243.6998145233886,191.32739573428609 L 242.82743119305658,190.48500869544165 L 242.80227352225984,180.9567534557883 z" id="c29073"/>
		<path d="M 224.39887042938264,32.85638634031394 L 224.18626573170388,29.51162814468841 L 250.98259331830644,30.09191075196877 L 250.45203656386892,33.835318449847044 L 250.12696219431612,36.126284447705615 L 251.00793372641044,43.22355448781079 L 251.83642137859138,47.75821365246334 L 254.65031827262146,53.358810539605926 L 254.66546063679672,53.44910626930207 L 230.74575373136622,53.306505016947845 L 224.0846571976801,53.22177789258259 L 224.39887042938264,32.85638634031394 z" id="c29111"/>
		<path d="M 283.8924128684408,135.89434937067224 L 292.3463573917853,135.4065778076797 L 298.94770817769404,133.27118000098048 L 301.67670169785026,130.76951743480862 L 301.9518456774593,131.8759137594412 L 305.72003105294027,135.3013414905822 L 308.10881712128906,135.59480667401786 L 311.40316923230966,132.49801125912106 L 313.2842329159274,128.51537757524085 L 314.2942495131901,128.53141786354618 L 317.60739097201287,128.5828221445356 L 323.48628939782117,131.3026495846954 L 324.82751899972004,131.59289525279863 L 327.61076418053284,132.19412769183043 L 329.0127484651392,133.1016081623081 L 334.7309842712098,136.7964647600146 L 334.531669038373,140.1504614181129 L 329.81917860172285,139.04556906098077 L 322.2370037744862,133.80446484900185 L 318.5953012470137,139.1882534595322 L 315.0787312220697,138.805997535076 L 312.64680381880805,143.71227754574116 L 312.06867177852865,144.6866636066094 L 309.33730220725795,149.70138842819608 L 301.9986985159857,149.69542367825224 L 297.7199599747866,153.53889290270783 L 297.1166062412405,153.9110051225895 L 295.2729522447913,157.0055665769431 L 286.70053719544995,161.71069779550166 L 283.79767500106516,160.75635151632875 L 283.8924128684408,135.89434937067224 z" id="c29183"/>
		<path d="M 158.17923656719182,131.47609257186463 L 158.33447191478794,128.0801170447796 L 165.23994991315308,121.06303322795577 L 170.09865105698532,127.44260123417189 L 187.77495325339305,128.4530566561187 L 191.34093086941579,132.2106807253574 L 184.08886903602604,150.78435598358703 L 170.6708885658777,150.3805258032902 L 157.41263839396223,149.55268402859693 L 158.17923656719182,131.47609257186463 z" id="c29053"/>
		<path d="M 208.5012285162406,147.80364153729468 L 213.14575052783934,140.60097370458027 L 211.51257406759947,136.62345484386867 L 214.66286001153327,121.35167335201486 L 243.2320599473603,121.71050099110182 L 242.54007329377237,149.0649825299111 L 230.03035583983512,151.638491083416 L 220.74032576001898,159.28963564927585 L 211.52659843374286,158.7314435017803 L 207.97747002970226,153.71888896185493 L 208.5012285162406,147.80364153729468 z" id="c29027"/>
		<path d="M 269.20908716265234,288.6942474737356 L 269.43584741999433,273.15759383086265 L 281.6923999473185,272.3198440987563 L 285.0043578913673,275.51788369334037 L 296.3855966173828,275.6378035614121 L 299.4526819975536,275.6596674381753 L 302.7275487938405,285.06392719906944 L 303.84034386467,288.3949105440367 L 303.83018411484574,293.8810511272266 L 275.8429730299625,293.25871412365063 L 269.1212225571105,293.1612751765641 L 269.20908716265234,288.6942474737356 z" id="c29035"/>
		<path d="M 67.19249357642576,37.5725344844434 L 68.16304414483264,17.511941326418494 L 90.79467802169103,18.254803199657655 L 90.22268088330627,37.32757969029758 L 89.92171066763024,45.160164362786254 L 67.04876633865912,44.2659475552523 L 67.19249357642576,37.5725344844434 z" id="c29075"/>
		<path d="M 233.0955595658944,219.18843958967662 L 250.00823951187957,219.30778090466472 L 263.45042938836866,219.3669066141438 L 263.3543938814404,226.06127348753668 L 272.956869896909,226.1943883409347 L 272.9234116829721,234.5862069512359 L 263.3018631260125,234.29762700685689 L 263.2401085412267,241.0332518430032 L 269.5593123363785,241.23330812715787 L 269.55878586200896,247.88684161705135 L 242.926070818058,247.4687796642282 L 236.2856383453218,247.38305361241274 L 236.26723907141664,233.96913875604108 L 232.94828170893,233.96919208236056 L 233.0955595658944,219.18843958967662 z" id="c29065"/>
		<path d="M 116.4273847657124,84.99709376377942 L 116.595987274504,78.31402259074513 L 145.19125867231654,78.42970474084413 L 145.1682973561383,90.54003975934495 L 154.49977016900127,93.82445724904247 L 155.32652386779952,96.40779119033957 L 149.59771301068884,94.94537642256115 L 147.7732432122816,100.61075510826595 L 141.6487455290572,101.93706927370906 L 141.5218050965863,106.52108302592042 L 137.5603519883097,108.28010704351891 L 132.9638979793989,103.10672877669916 L 132.00265949078738,108.4274974709779 L 122.54674001590726,106.371900926398 L 116.03393393779376,109.4288967678248 L 116.4273847657124,84.99709376377942 z" id="c29033"/>
		<path d="M 374.2441409851071,288.0500027285677 L 375.29042094894226,285.20943891174824 L 377.46878944853245,282.89081322565045 L 382.97391067890936,280.5026507432046 L 387.00465407816597,275.49285444595915 L 390.09908800837604,276.42612284063443 L 394.00595243583814,278.2920737022903 L 397.8475811507886,278.7736402327878 L 399.99999999999994,280.5698134115192 L 399.76521220980504,281.5820405266265 L 398.8160428635236,285.67010440352016 L 397.23890939904584,289.1527110716943 L 396.86079345201955,293.61964644080797 L 396.8612790986869,293.83722417031197 L 396.86645030699003,296.16589709029057 L 394.141649779826,299.2658227531237 L 396.5484384857604,303.3585073291253 L 395.94473118524473,304.22876305331033 L 394.54874200733707,306.23988047198446 L 392.92737394902565,310.60696778548606 L 389.71521331016675,310.0574305340807 L 386.78906280044043,306.5798864066259 L 386.6246144150615,306.59093499266015 L 383.5917813508448,300.606192095537 L 374.29279968567647,289.7167826799681 L 374.2441409851071,288.0500027285677 z" id="c29133"/>
		<path d="M 263.3018631260125,234.29762700685689 L 272.9234116829721,234.5862069512359 L 283.1796883619213,233.2789261101283 L 296.5230110885814,233.19145259436922 L 296.48258032091877,250.80750261575176 L 298.88160751576385,258.6579327639447 L 298.8807573197214,266.69238362739463 L 296.3346905803477,268.9124097286679 L 296.3855966173828,275.6378035614121 L 285.0043578913673,275.51788369334037 L 281.6923999473185,272.3198440987563 L 280.6172501148433,266.6740836487463 L 274.9634503063434,264.41278567917544 L 272.88210449323225,260.17253749827864 L 271.79222600521695,247.90479914506062 L 269.55878586200896,247.88684161705135 L 269.5593123363785,241.23330812715787 L 263.2401085412267,241.0332518430032 L 263.3018631260125,234.29762700685689 z" id="c29179"/>
		<path d="M 351.9807534049938,232.5284054857475 L 363.51442593867455,233.45950621486392 L 367.7538198916893,231.862401171224 L 374.0124290413141,235.11255642340925 L 373.42041179001416,237.36213403602642 L 376.06444642174597,242.16064316238288 L 378.9525840749483,246.6184704867876 L 378.91801381720853,250.5612322388291 L 376.1264881980938,252.29720009308508 L 374.87504073751376,253.0746890816554 L 373.61718688717457,256.39995591723965 L 375.7526109515369,257.956426299947 L 367.3762264970539,260.3110431433712 L 358.66529283456765,268.7287758255973 L 352.43151308256853,268.85470935484415 L 351.9807534049938,232.5284054857475 z" id="c29031"/>
		<path d="M 61.433449489346856,227.6528947697043 L 94.64245500972724,229.50872952459244 L 94.43467544714315,233.97182069100867 L 93.64817001884634,251.79784884857 L 60.85347785253149,249.87210120630445 L 60.958477275208864,246.28437649162285 L 61.433449489346856,227.6528947697043 z" id="c29011"/>
		<path d="M 323.2679460616226,203.7006017785037 L 317.529040993359,199.14013776168144 L 327.32925156462977,193.34723639666203 L 327.3325789529998,192.40681345761973 L 327.3487757117371,192.4221139508862 L 329.4447618975188,194.93652459284073 L 330.35416922267547,195.45795451887994 L 335.1371230795257,198.1965372310432 L 337.9262364483105,200.84343938444638 L 342.409123390629,204.23165987404386 L 345.66455844990077,204.4363400269981 L 344.5651982761818,208.1038246158813 L 347.13066949785116,211.056406165852 L 343.1628099601399,215.6222908441114 L 336.63585355080613,227.3068341495831 L 331.16438844908157,227.54087220940914 L 315.10616294312723,211.73346012149943 L 323.2679460616226,203.7006017785037 z" id="c29186"/>
		<path d="M 322.72578516620666,156.2316350031568 L 326.5866611015214,146.9771048687433 L 331.63833510221167,142.76597421771092 L 329.09625881383454,146.38115855332802 L 330.0357697419579,149.32469794576372 L 330.90873667797393,151.4222354478604 L 330.92507900398766,151.4614869011933 L 330.7881884423435,155.15490608376575 L 326.9953036579441,160.35977051077631 L 326.62896846130684,161.43301198842516 L 323.0468499887045,157.81329405679693 L 322.72578516620666,156.2316350031568 z" id="c29510"/>
		<path d="M 259.2898616966159,149.29440842708584 L 262.3078445226096,148.57891384736942 L 267.9312956625313,155.2112253697674 L 276.9398602072315,156.07345311458067 L 283.79767500106516,160.75635151632875 L 286.70053719544995,161.71069779550166 L 295.2729522447913,157.0055665769431 L 297.1166062412405,153.9110051225895 L 297.7199599747866,153.53889290270783 L 297.65015274863094,166.8140692042033 L 297.62232891324106,170.71538350683113 L 296.9650717733897,175.15958077481278 L 295.24884496241407,187.02343751619546 L 276.1135564728232,187.23206715580613 L 260.72460695870444,187.35394535261943 L 259.6346387878305,186.9258495599935 L 259.2898616966159,149.29440842708584 z" id="c29071"/>
		<path d="M 63.615061617390694,158.98685582950026 L 64.1520675697153,144.3522980971893 L 64.15938872765331,144.1526364555249 L 64.4062174686674,135.96600667877522 L 93.83334548807971,137.7529826760096 L 93.36149809707878,158.0809083644515 L 96.69902739530895,158.25425185030747 L 96.32402090864558,166.040159280844 L 96.42080501642346,167.49752957160402 L 87.59880111792931,167.34378345229422 L 81.57040141596946,165.29061820517435 L 63.41744772818718,164.36700801753176 L 63.615061617390694,158.98685582950026 z" id="c29037"/>
		<path d="M 272.956869896909,226.1943883409347 L 273.3444092653068,222.85174989272832 L 276.1816218720428,222.88786397824236 L 303.93355551405654,222.96947101445033 L 303.86352107113146,230.03809355903763 L 310.75487964831933,229.87559187543042 L 310.0494781419706,233.36050872036895 L 310.2251679865412,254.92637312757677 L 310.22241877195,258.38121517427726 L 298.88160751576385,258.6579327639447 L 296.48258032091877,250.80750261575176 L 296.5230110885814,233.19145259436922 L 283.1796883619213,233.2789261101283 L 272.9234116829721,234.5862069512359 L 272.956869896909,226.1943883409347 z" id="c29093"/>
		<path d="M 334.4665380497711,229.63142016091558 L 336.63585355080613,227.3068341495831 L 343.1628099601399,215.6222908441114 L 347.13066949785116,211.056406165852 L 347.74929579454454,211.7677710543529 L 352.08552115897703,209.11524065015013 L 356.37012019641094,212.7769175112895 L 361.6484357613847,215.78738017804378 L 362.248977673062,217.14943147631672 L 363.4886411572745,219.9589243795954 L 368.2325711952972,222.60200892181663 L 372.5144604839369,224.57985215200821 L 373.5920988108742,230.0405465516795 L 374.4440458460432,233.47124748173556 L 374.23803382040654,234.25477874985754 L 374.0124290413141,235.11255642340925 L 367.7538198916893,231.862401171224 L 363.51442593867455,233.45950621486392 L 351.9807534049938,232.5284054857475 L 334.53132436329935,233.02446410046747 L 334.4665380497711,229.63142016091558 z" id="c29157"/>
		<path d="M 140.4964838375163,4.038969936405553 L 142.19783439649774,4.053450820203144 L 154.52188869741786,4.028320660556883 L 156.78622791431775,3.9792506754273056 L 165.94027920762917,3.771832168398869 L 179.2828166094427,3.742197252770497 L 181.10092519703088,5.963620112072035 L 179.51318168998915,14.82086688282358 L 180.9394747516478,22.72535968553609 L 170.82868456862252,22.70255954556278 L 170.87620964021778,19.376765120865045 L 140.72320614321455,19.25961654049289 L 140.3533696073757,12.377638827052973 L 140.4964838375163,4.038969936405553 z" id="c29171"/>
		<path d="M 187.36909902876658,126.29335819574034 L 195.5449157930083,107.09853458984338 L 202.46929486706583,107.30483602944142 L 215.03776358033403,107.84282717309607 L 214.66286001153327,121.35167335201486 L 211.51257406759947,136.62345484386867 L 213.14575052783934,140.60097370458027 L 208.5012285162406,147.80364153729468 L 207.97747002970226,153.71888896185493 L 199.71792137401795,150.89986993449696 L 197.50321651354704,146.30781742028452 L 198.34065640742435,140.95908538760037 L 191.34093086941579,132.2106807253574 L 187.77495325339305,128.4530566561187 L 187.36909902876658,126.29335819574034 z" id="c29019"/>
		<path d="M 324.77139878534007,352.2338753548655 L 327.47864005542766,347.13440822132026 L 331.1097169147196,345.03449863954654 L 331.9904443443289,341.5423547037651 L 333.917151771584,340.415531769943 L 335.9602386437269,339.21952588095184 L 338.43428571950864,335.2179314640226 L 341.54327310200495,332.28340987590394 L 341.49015961536224,328.14897684952155 L 341.2839073260727,325.89914208054887 L 337.21510691691117,323.7671186492025 L 336.5075770131977,320.34102299037437 L 335.6834175534481,317.6336065348721 L 331.53875382067235,317.6643492360833 L 332.1433073947995,314.11469033154697 L 335.8272306251289,307.2430213771802 L 337.5476839481827,307.175643324964 L 347.5576118529936,307.11283220789005 L 347.346355968214,324.4717796301284 L 347.7837136029212,325.5737106377173 L 348.5236656430674,355.47909146711424 L 339.51802636304643,355.7260102351016 L 327.9790833486056,356.06242840711826 L 323.00619393551153,356.20071813125935 L 324.77139878534007,352.2338753548655 z" id="c29069"/>
		<path d="M 94.5664671203025,274.9468530373089 L 95.37807449545116,256.38215636050074 L 121.52799007869227,257.49019468506225 L 122.79763717814859,257.6460393246284 L 122.33689938965595,271.6226488411251 L 122.13296211120404,279.47789764797665 L 121.9872970724205,285.0790367141366 L 94.1622157148441,283.8731322614879 L 94.5664671203025,274.9468530373089 z" id="c29109"/>
		<path d="M 238.13457566754627,100.18051197083034 L 238.4365849768257,80.1714384360419 L 238.22626460643718,75.66495926816303 L 238.2049718198663,73.4441675339347 L 262.5763488246473,73.34432791114409 L 264.349734012402,74.9064347122514 L 269.94167878430386,80.060969453084 L 253.47520667011415,91.5283315704291 L 254.8581294714345,101.67905825134174 L 238.10797522079773,101.30533916518239 L 238.13457566754627,100.18051197083034 z" id="c29173"/>
		<path d="M 202.75964775817727,99.5081069548261 L 228.77252112068982,100.30206702341857 L 238.13457566754627,100.18051197083034 L 238.10797522079773,101.30533916518239 L 254.8581294714345,101.67905825134174 L 256.684810200236,115.22299635420305 L 243.4702365236986,114.878933814546 L 243.2320599473603,121.71050099110182 L 214.66286001153327,121.35167335201486 L 215.03776358033403,107.84282717309607 L 202.46929486706583,107.30483602944142 L 202.75964775817727,99.5081069548261 z" id="c29007"/>
		<path d="M 241.39622586610892,296.2216674933582 L 242.36500476546655,288.47315309934004 L 269.20908716265234,288.6942474737356 L 269.1212225571105,293.1612751765641 L 275.8429730299625,293.25871412365063 L 275.40991366004835,318.2776988472675 L 258.15982002119296,318.4583583394105 L 258.0220875556623,318.4575994570556 L 255.36545323815164,318.4423534692622 L 243.4305975513726,318.3595890652617 L 241.5869126817503,318.37201784960877 L 241.39622586610892,296.2216674933582 z" id="c29149"/>
		<path d="M 89.40175832929701,89.83125715334717 L 89.65928752669734,84.2543165072042 L 116.4273847657124,84.99709376377942 L 116.03393393779376,109.4288967678248 L 111.15763586605917,108.68987169671492 L 102.1596574766083,113.33803412554875 L 102.76902054437943,109.2652996320663 L 100.04762308438787,113.16025563497074 L 95.20184971363577,113.90735576390851 L 91.20697432881218,108.40923787439667 L 88.86196939963976,108.87590518692711 L 89.40175832929701,89.83125715334717 z" id="c29177"/>
		<path d="M 90.22268088330627,37.32757969029758 L 116.97824774161681,38.15490583663257 L 116.86038955152664,51.508252537081965 L 116.79647273132335,64.97612298372903 L 90.2643604145392,64.11225087835636 L 90.804793465939,45.93789353126788 L 89.92171066763024,45.160164362786254 L 90.22268088330627,37.32757969029758 z" id="c29061"/>
		<path d="M 62.94358732447775,182.79455282091612 L 63.24179253333458,171.19681847080162 L 63.417359725488495,164.36940331456574 L 63.41744772818718,164.36700801753176 L 81.57040141596946,165.29061820517435 L 87.59880111792931,167.34378345229422 L 96.42080501642346,167.49752957160402 L 95.47333976510512,185.28527372534631 L 97.0038285330619,185.42917654506155 L 96.21037399884753,199.04404656579956 L 91.57083555807395,197.29357988424462 L 85.28617591962525,199.62110101420197 L 85.1560043987343,197.71182670786652 L 62.50136397243436,196.44367401439888 L 62.94358732447775,182.79455282091612 z" id="c29013"/>
		<path d="M 297.7199599747866,153.53889290270783 L 301.9986985159857,149.69542367825224 L 309.33730220725795,149.70138842819608 L 312.06867177852865,144.6866636066094 L 312.64680381880805,143.71227754574116 L 315.0787312220697,138.805997535076 L 318.5953012470137,139.1882534595322 L 322.2370037744862,133.80446484900185 L 329.81917860172285,139.04556906098077 L 334.531669038373,140.1504614181129 L 331.64922306919425,142.75047758514881 L 331.63833510221167,142.76597421771092 L 326.5866611015214,146.9771048687433 L 322.72578516620666,156.2316350031568 L 323.0468499887045,157.81329405679693 L 326.62896846130684,161.43301198842516 L 326.2957709454987,162.40878416330585 L 325.70882198952387,164.12677497200997 L 324.7286712411179,168.57209350188535 L 321.68645765051167,172.5723419077135 L 317.6116868273292,163.87126620093738 L 311.13287055258684,163.9495372437586 L 302.2059235521367,165.78891016152784 L 301.14840171196255,168.36450738700526 L 297.65015274863094,166.8140692042033 L 297.7199599747866,153.53889290270783 z" id="c29189"/>
		<path d="M 132.9638979793989,103.10672877669916 L 137.5603519883097,108.28010704351891 L 141.5218050965863,106.52108302592042 L 141.6487455290572,101.93706927370906 L 147.7732432122816,100.61075510826595 L 149.59771301068884,94.94537642256115 L 155.32652386779952,96.40779119033957 L 157.17133599361168,100.13251546951204 L 163.91289493418256,101.97151957597696 L 166.72667093658634,108.81403222797745 L 170.46489601861936,108.67265202633516 L 164.72559154279097,116.6585688697946 L 165.23994991315308,121.06303322795577 L 158.33447191478794,128.0801170447796 L 158.17923656719182,131.47609257186463 L 131.41032080249886,130.00745093085018 L 132.9638979793989,103.10672877669916 z" id="c29195"/>
		<path d="M 296.3346905803477,268.9124097286679 L 298.8807573197214,266.69238362739463 L 298.88160751576385,258.6579327639447 L 310.22241877195,258.38121517427726 L 310.2251679865412,254.92637312757677 L 330.5922225695682,254.79376610640045 L 330.56698456481513,272.3382530689553 L 337.50982221973317,272.25873621922744 L 337.5206811599066,275.68849114425063 L 335.2266394186261,275.70165830707714 L 332.9682972557624,279.4491939136202 L 328.6172933407037,285.0026624203897 L 302.7275487938405,285.06392719906944 L 299.4526819975536,275.6596674381753 L 296.3855966173828,275.6378035614121 L 296.3346905803477,268.9124097286679 z" id="c29223"/>
		<path d="M 140.57390069183452,51.26408209472419 L 140.6440276243031,46.2202252048984 L 170.59088980055628,46.23749027176664 L 171.106829280676,46.238256495142274 L 170.26223245764749,72.20756100128152 L 156.92424148258436,71.55806797450697 L 145.94094188051625,71.66971796318099 L 140.12340392920024,71.57341067721939 L 140.57390069183452,51.26408209472419 z" id="c29115"/>
		<path d="M 93.486068598579,297.9839129042852 L 94.1622157148441,283.8731322614879 L 121.9872970724205,285.0790367141366 L 121.73999536386202,292.9270798472773 L 124.15399680550385,293.0068388278969 L 123.1117503840865,317.6432551402205 L 115.93034242270095,317.50555552363693 L 105.61273015259324,317.3392851758232 L 99.88141230644422,317.23938327703814 L 92.57732725568675,317.0697751547789 L 93.486068598579,297.9839129042852 z" id="c29009"/>
		<path d="M 174.06805297769824,294.66943826851997 L 214.34638555719454,295.759763446227 L 213.81955302884958,318.4828663119416 L 211.96807918369345,318.48437280260174 L 199.575944798921,318.47999206304644 L 188.492331539216,318.4014300644696 L 186.31718236656693,318.3836488870339 L 173.421812707529,318.3081635731293 L 174.06805297769824,294.66943826851997 z" id="c29153"/>
		<path d="M 116.98535805000935,3.884039593542184 L 127.39057074453707,3.910653070382453 L 129.7685219722228,3.9361391883043724 L 140.4964838375163,4.038969936405553 L 140.3533696073757,12.377638827052973 L 140.72320614321455,19.25961654049289 L 140.58190964097497,28.250556692477264 L 117.200306723572,28.058080961807615 L 117.39986755449043,11.988294674860326 L 116.98535805000935,3.884039593542184 z" id="c29129"/>
		<path d="M 330.5922225695682,254.79376610640045 L 335.0089995750427,254.93307776006404 L 334.53132436329935,233.02446410046747 L 351.9807534049938,232.5284054857475 L 352.43151308256853,268.85470935484415 L 346.71652129088744,268.88938075678425 L 344.63123618305553,275.6319910614445 L 337.5206811599066,275.68849114425063 L 337.50982221973317,272.25873621922744 L 330.56698456481513,272.3382530689553 L 330.5922225695682,254.79376610640045 z" id="c29017"/>
		<path d="M 155.53432846081148,247.74379641963657 L 155.70489134918842,242.18095752738614 L 169.04942168519298,242.57822573883274 L 179.25671208127045,242.84430199305635 L 179.08421406459308,274.6720386294198 L 170.54552693298487,274.48192750758983 L 165.7110830117813,274.28771138429005 L 165.24280722818034,273.1377447943764 L 155.75976308526123,272.802857000935 L 156.07367235597042,261.5629315392054 L 155.20441387988424,258.87170997480354 L 155.53432846081148,247.74379641963657 z" id="c29225"/>
		<path d="M 35.79326091870796,80.73924210469693 L 38.04388530843099,79.05239878270707 L 39.84533791333378,77.6950346049039 L 40.074851219718,76.27343239289091 L 40.55998767174317,73.26653586295343 L 44.572206838647034,70.8084456491383 L 44.67174365748591,67.98193107432647 L 48.93829767736349,68.04014104423162 L 51.30965019690194,66.14631625362975 L 50.72233554306423,64.32185622232628 L 50.43096967321662,60.63848680322376 L 66.75308256557877,61.15403611876853 L 66.63914922903726,66.7515035950587 L 66.25974888275455,83.45404030431806 L 37.06169190657891,82.37199668775435 L 35.79326091870796,80.73924210469693 z" id="c29021"/>
		<path d="M 230.74575373136622,53.306505016947845 L 254.66546063679672,53.44910626930207 L 255.14975501851427,56.335485652633636 L 254.75641405958663,61.1291725896757 L 257.03516400269194,62.99365216011059 L 259.2061531866067,65.5652012599059 L 259.0395661572965,67.78609476459754 L 258.8678687630541,70.07309228217183 L 262.5763488246473,73.34432791114409 L 238.2049718198663,73.4441675339347 L 238.22626460643718,75.66495926816303 L 230.40170129167427,75.61546472106296 L 230.74575373136622,53.306505016947845 z" id="c29127"/>
		<path d="M 296.9650717733897,175.15958077481278 L 297.62232891324106,170.71538350683113 L 297.65015274863094,166.8140692042033 L 301.14840171196255,168.36450738700526 L 302.2059235521367,165.78891016152784 L 311.13287055258684,163.9495372437586 L 317.6116868273292,163.87126620093738 L 321.68645765051167,172.5723419077135 L 321.52834649221643,172.78004698893983 L 321.1241222724023,173.31097361582763 L 319.8152067779355,177.50330447367438 L 320.4464980921689,184.17990500475 L 321.2415667350392,185.45869702900183 L 323.0377362494256,188.34522819089565 L 327.3325789529998,192.40681345761973 L 327.32925156462977,193.34723639666203 L 317.529040993359,199.14013776168144 L 304.68151792222505,201.9896067370754 L 303.8853845039561,196.7134781164979 L 301.1548169184712,196.00348423681942 L 295.24884496241407,187.02343751619546 L 296.9650717733897,175.15958077481278 z" id="c29099"/>
	</g>
</svg>