<?xml version="1.0" encoding="UTF-8"?>
<svg baseProfile="full" fill="#d0d0d0" height="229.88424177354884" stroke="#ffffff" stroke-width="1" version="1.1" width="400.0" xmlns="http://www.w3.org/2000/svg" xmlns:ev="http://www.w3.org/2001/xml-events" xmlns:xlink="http://www.w3.org/1999/xlink">
	<defs/>
	<g id="counties"><path d="M 322.45900929737434,183.12319533428206 L 323.9538349648571,183.06132888760357 L 323.11404005178923,161.93557434609832 L 324.56093069144663,161.8737553695472 L 365.4799677551125,159.90614977197023 L 366.5104536361432,180.93504788234608 L 364.7764524869234,181.0347388153101 L 365.74431185215474,198.03541623367454 L 364.42916743436757,198.10985047378355 L 337.96508416562796,199.47045309884348 L 331.9039654453675,199.8826766303385 L 323.7193274200611,200.41750597774356 L 323.71489559795583,200.4176682190103 L 323.37009715040296,192.0525065657276 L 322.79592470377634,191.44611523986615 L 322.45900929737434,183.12319533428206 z" id="c30075"/>
		<path d="M 172.6396820680604,12.610373800002604 L 172.94463848247665,8.549076920487714 L 179.68480283170288,8.628451300461386 L 182.6644809452502,8.627255557375245 L 191.161214888247,8.710985210833195 L 212.54624116617273,8.745695884622188 L 212.9028539786016,8.746603790032632 L 212.3936706318006,12.937721567928245 L 212.39830888310402,29.697611690614416 L 213.7176477510907,31.762997609463458 L 213.7192500057266,35.2801252048569 L 212.67472764948465,35.347023836709724 L 210.9009119949114,42.98746062421268 L 211.45815761249358,50.6828790138574 L 205.21472098392456,50.75502579777665 L 205.22622067195462,46.461669892454445 L 201.3792910686866,46.56967965565333 L 201.39400733155873,42.358405079280494 L 176.21360180965598,42.09729233480532 L 176.14891141843972,46.29749149883889 L 171.93187681138355,46.23967509478517 L 172.6396820680604,12.610373800002604 z" id="c30041"/>
		<path d="M 271.4565279235236,130.02559641553955 L 290.3059099772555,129.48980689637438 L 291.1368752842948,133.6824850556268 L 295.3217280678519,133.56113982238924 L 296.16345677793845,137.87119736293732 L 296.427879308638,146.17742797285908 L 298.72187346286927,145.98383680020396 L 299.14278910425867,158.88188817518065 L 295.3218438029056,159.00356697947703 L 295.263342428063,156.9019501276911 L 291.0622259806269,157.03799611375783 L 290.9999306657813,154.93646628180682 L 282.6053574052464,155.1764457959336 L 282.5009130475667,150.9813906405285 L 279.5828759565014,151.05569714584865 L 280.9438011177212,144.51501635190726 L 275.82450867973034,136.22952121419394 L 271.4565279235236,130.02559641553955 z" id="c30103"/>
		<path d="M 207.40032023427534,143.38282822971846 L 215.83166481745448,143.3712673746654 L 215.79408147987647,130.2573999327944 L 216.2609105390088,120.43318983227002 L 216.26327503221566,120.43318648526453 L 216.25545988917696,117.63925206135347 L 228.88500038555193,117.62219217480741 L 229.6240447495233,125.98360406031082 L 232.4307992170192,126.00942753084675 L 233.952153213389,132.05932847326142 L 233.93709363041714,136.27416805995338 L 236.75698988625973,140.46973169041527 L 236.80602787426588,147.4846982796399 L 231.9318921097336,147.52922442969054 L 215.38865908008194,147.59878958336256 L 215.3618162877459,151.83926840447864 L 209.0257048519509,151.82699187240559 L 207.3930970878387,147.59066373793877 L 207.40032023427534,143.38282822971846 z" id="c30037"/>
		<path d="M 92.85648741200137,67.96414568920521 L 95.69099473061512,66.63403807202478 L 95.88004018064582,58.487795736011584 L 99.27004728050855,56.9089666522699 L 101.32319386545677,63.18813184126737 L 101.01488970982129,69.53524221046254 L 102.7505665189212,72.78256799436814 L 105.18465462164666,74.38146477880186 L 112.83700789213285,72.10584570217839 L 116.68904679860835,74.60693775573222 L 117.38381135047226,77.10674404822295 L 120.23734921228443,77.70740603228086 L 121.46775891212643,79.51683310822 L 129.03118805565668,79.26980390584755 L 128.63680409675237,94.91037302378703 L 130.8188158656355,95.40279132714721 L 131.9318811038998,97.40008093442529 L 136.9570306991088,98.26181618364681 L 136.6209355560463,108.67052195118876 L 141.00017065969226,108.81142180586403 L 141.5103803205071,112.7613626763868 L 146.11991609007012,116.25453471482416 L 142.6758943611702,115.40136491428804 L 141.39419801253507,117.30729389375917 L 141.41728234440455,125.45218961481734 L 136.21005479284364,125.32977969433952 L 128.15896744858443,125.11408268009613 L 126.26718468511594,127.57731204112076 L 122.15440402114328,128.25753940494192 L 123.06875552634872,130.39103346379372 L 118.51692052510387,131.93483938486548 L 118.57684409648803,124.5151264480092 L 119.27380614953434,122.04327159221556 L 118.58156928308769,120.56772896174836 L 115.59214313816578,120.45423608304237 L 115.66343061213853,118.35032689300344 L 111.51228177769667,118.19378927772954 L 111.75997430571164,111.67645711186618 L 103.12919319215733,111.45188009156057 L 103.82681485223327,94.75137206360586 L 95.15262600235557,94.2472374612601 L 95.82731448172194,79.30376646017145 L 93.79362638105441,77.89572434812155 L 93.27645581308616,74.00565338022979 L 92.85648741200137,67.96414568920521 z" id="c30049"/>
		<path d="M 232.47566477409393,60.862403424719766 L 241.02655805393897,60.89317559124518 L 241.57364643637385,57.46926051406901 L 247.22485630995135,58.09799747648547 L 247.0689974414353,46.333094505140714 L 247.6743147195016,35.23738165199618 L 249.75660547415248,36.47551315611708 L 249.6563099340378,29.398300616158583 L 250.39959703644752,20.970112070623724 L 252.31305649843426,20.93975669667166 L 252.1819591688977,12.639460335678944 L 252.84841075778115,8.46351328122906 L 269.79388186596657,8.117370571511747 L 278.1973146762123,7.9352371180490024 L 280.66399338016436,7.837366149862421 L 286.519820760541,7.675933560368885 L 285.80807620576667,11.923351328377871 L 286.28766291942503,28.605576388180083 L 286.80927011544134,31.437740621989438 L 284.7000062145448,31.236452297118586 L 283.3407633221835,32.91639063739121 L 283.4798116040355,37.12471406961432 L 284.7948533667308,37.08356732146524 L 284.91273068892013,41.407032830732035 L 281.3987720387352,41.48595558498949 L 281.497624633327,45.68754703617189 L 280.3723555801486,45.714663525577265 L 280.81769099551826,62.55511754918575 L 280.71559159905905,71.21592773307492 L 279.9772791171719,74.44485117511523 L 274.36411842021596,73.52552877922152 L 271.6420007978144,74.44233278038156 L 269.5301513482126,78.44673949730739 L 266.189771945297,80.17995188663926 L 264.80254893776447,83.26116849860513 L 264.0498077390132,77.61535394597962 L 259.54061579960927,76.21632860264968 L 251.4441770257674,77.06083738224456 L 250.71014010069769,77.85859050422117 L 244.44551099820785,75.35764047284462 L 236.39801071507583,74.24934654204125 L 232.45543349003995,69.97750702683223 L 232.47566477409393,60.862403424719766 z" id="c30071"/>
		<path d="M 126.72680875185459,7.34451370013188 L 128.30837777168134,7.397293311390933 L 137.53680881904563,7.733020864988156 L 148.79290488817438,8.099526450804605 L 156.15350272965378,8.26380412480405 L 155.1263122192605,45.91784093598982 L 150.80064433726093,45.81555325035807 L 142.500587642026,45.59927571218866 L 142.66942846318162,39.310831992441024 L 138.4721251165184,39.174009252625254 L 138.53176241825457,37.07946373545549 L 132.24798488793783,36.83002592733193 L 132.31439914102924,34.68659416664111 L 126.13623771859538,32.59105758808532 L 126.72680875185459,7.34451370013188 z" id="c30101"/>
		<path d="M 354.10527320832955,4.7896109419869 L 359.9015997279578,4.465295755612283 L 370.4600426273324,3.7920384317529843 L 386.20017772605746,2.7284409114060315 L 386.7086758289226,10.098346604088228 L 387.4537772405088,20.41204953537818 L 387.9416795912082,27.16395806142322 L 388.31971194674196,32.22733715728624 L 369.6209737337012,33.45851903369555 L 369.36018667052747,29.253911516086866 L 365.18401305676,29.50050567350832 L 364.93108112373534,25.315372855004277 L 358.00775828811936,25.7224449434797 L 357.7670076175782,21.521849590463873 L 355.6757655378008,21.64007785952924 L 354.969653082879,9.045398273259515 L 354.10527320832955,4.7896109419869 z" id="c30091"/>
		<path d="M 351.65360362564485,63.553645542862974 L 352.7388887369817,59.73269241774011 L 352.22182832798296,50.134128207008665 L 352.67725908766397,48.339848417511575 L 356.6508713633107,49.35047436816493 L 360.1626482805653,48.34684870461918 L 361.8151150507227,45.51024001996739 L 364.1302708881435,46.91266151976822 L 368.73817763546225,47.39081238868982 L 373.1052894606719,45.99098969270266 L 383.0739855738816,49.9765833318252 L 386.34704200417883,48.58981158800035 L 387.9408092157464,51.148793092371626 L 389.73139442871275,51.214787507049486 L 389.7314535495432,51.21558464558405 L 389.8194321935157,52.40178610651521 L 390.4368306514758,60.52477476152489 L 391.06111272690356,70.18833179390664 L 391.72083140929976,80.1465308909466 L 389.01494791857135,82.42815768202613 L 379.5447722472509,83.03479626899446 L 376.4928378925498,83.2174064954515 L 375.9626771130721,74.77622889922895 L 373.3127078542242,74.94899297774998 L 373.06169104091356,70.74686743180979 L 360.4861698493512,71.50568194039126 L 360.2582257752029,67.29909536557753 L 351.8746437113513,67.75587520421968 L 351.65360362564485,63.553645542862974 z" id="c30083"/>
		<path d="M 239.88919194453246,185.38104419886136 L 240.44043702570931,181.2999181854898 L 241.68156824427166,179.7888385395649 L 252.88812898242006,179.81554845459584 L 252.87131250861978,178.41215711074273 L 257.06036337591627,178.3444375160569 L 261.2367875520969,176.86704488371652 L 261.00869584306,164.04339479279975 L 261.656953111374,158.41723775749284 L 267.24914736753635,158.31951062814755 L 267.2193235438156,156.92025345273157 L 269.9938028651602,155.4781303139842 L 269.9656585374618,154.076863681964 L 274.1579087633711,153.97864099319526 L 274.09312652577137,151.179360859942 L 279.5828759565014,151.05569714584865 L 282.5009130475667,150.9813906405285 L 282.6053574052464,155.1764457959336 L 290.9999306657813,154.93646628180682 L 291.0622259806269,157.03799611375783 L 295.263342428063,156.9019501276911 L 295.3218438029056,159.00356697947703 L 299.14278910425867,158.88188817518065 L 299.2042080828862,160.74110398203882 L 301.2959496500697,160.6667283089423 L 300.16217521732653,162.8107733499636 L 300.3235186660444,167.8569161050948 L 306.622124736596,168.00196387312275 L 305.7744941528774,183.70755828464388 L 306.08929208391316,192.0812199452243 L 322.79592470377634,191.44611523986615 L 323.37009715040296,192.0525065657276 L 323.71489559795583,200.4176682190103 L 302.2537785752358,201.11756836881068 L 286.36027132434845,201.33316707899854 L 267.1276789282482,201.78542557891686 L 264.1801012300416,201.8425793386644 L 255.55479681054263,202.03952031793696 L 255.20288475912267,201.67953968125252 L 256.5456203136716,197.49697784652471 L 260.5320606635384,191.30849389430514 L 239.95424677657053,191.73375907041878 L 239.88919194453246,185.38104419886136 z" id="c30003"/>
		<path d="M 141.00017065969226,108.81142180586403 L 144.94283442960526,108.9196049338491 L 145.04742709554523,104.70087027948495 L 153.45963204402128,104.88368384626632 L 157.6710453730699,104.45607399169582 L 157.74375068560522,100.75255889606048 L 160.30966345642054,100.8186028101182 L 159.4620722366261,103.6575462492372 L 165.764857608908,106.12579192145004 L 167.60299877856093,109.02468021643857 L 171.00480203907426,110.58986850195335 L 171.00695210952088,112.79982888823491 L 174.2697504100606,113.86184808578263 L 180.3641896468307,120.95480627198332 L 184.96808250134515,121.27945182302514 L 186.82396865754166,119.49151700797033 L 186.29981937077432,143.19864319651217 L 186.2841727497874,144.9510355047762 L 182.007384532942,144.53371045442668 L 169.41910013230867,144.3267763935947 L 160.07242705174068,144.15042803444823 L 159.6860223961942,141.33663339426298 L 157.97237067287685,140.22177292882478 L 160.43911281680946,133.9775646540962 L 158.19765908116878,132.15893356458642 L 154.13492565411238,132.15116123503765 L 153.83722572971567,129.22160403290252 L 150.9652803962306,126.85814386044487 L 151.53925579460196,122.61974510738636 L 148.8646064182464,122.2551472805055 L 147.51548144213444,117.25657423803185 L 146.11991609007012,116.25453471482416 L 141.5103803205071,112.7613626763868 L 141.00017065969226,108.81142180586403 z" id="c30059"/>
		<path d="M 67.03035029377499,4.552894751300206 L 72.14302219178371,4.870316884068722 L 78.96747963543835,5.304855520950338 L 89.06360636465861,5.78023578963196 L 97.32844478282668,6.180674903196202 L 126.72680875185459,7.34451370013188 L 126.13623771859538,32.59105758808532 L 113.52693606627099,31.847438209767343 L 113.23272092318805,40.25254617712645 L 88.28176879648882,39.12078732246599 L 87.1307073933934,37.54927579438322 L 88.96988617650527,35.38738952042025 L 88.32901165542606,33.61276703328313 L 84.43516570106384,32.00180391026168 L 85.0460051359336,27.453105479552026 L 82.69981308126782,25.426287010812885 L 80.88723535354875,25.899376503412302 L 76.13093288670065,23.746160873440655 L 77.92886365964027,18.724344124442414 L 75.4586296170465,12.494081030552856 L 68.60588464010445,12.706459815778908 L 67.04022700938569,9.911097188305712 L 68.41891605462008,6.478284310512127 L 67.03035029377499,4.552894751300206 z" id="c30035"/>
		<path d="M 263.0964134315423,87.97608826531294 L 264.83496134612056,85.63834988150637 L 264.80254893776447,83.26116849860513 L 266.189771945297,80.17995188663926 L 269.5301513482126,78.44673949730739 L 271.6420007978144,74.44233278038156 L 274.36411842021596,73.52552877922152 L 279.9772791171719,74.44485117511523 L 280.71559159905905,71.21592773307492 L 286.1776191718334,72.5257167308239 L 293.9436658358391,72.21584800076775 L 297.80156548274783,71.52326268473087 L 298.71537632286083,68.46262925874197 L 302.8729534150953,68.47493756127028 L 303.54141769444055,66.61249021396733 L 307.06869738033265,65.87257316503076 L 309.92051116584213,61.198987407858304 L 310.05336388967976,57.35217294572019 L 312.7555818007615,57.28746331569285 L 314.7166004272691,57.22119727308748 L 314.8956178117417,61.516968473648774 L 318.0578817627528,61.38716644850117 L 317.5204480588651,77.85348092271445 L 317.86334851965563,86.30530159354154 L 322.05278641026547,86.12098915629608 L 322.41840816081105,94.51941384959655 L 325.1759754616011,94.39521971610515 L 325.85844805699884,109.9002290388769 L 325.89287874504964,110.59679680973913 L 305.2137722621696,111.44945155739035 L 280.0337571955988,111.54403912658759 L 265.9524904730712,112.26049260458525 L 264.3665952332779,111.0810471651824 L 266.1082689315781,105.13469519622647 L 264.8077037741524,103.91878168592763 L 263.0391516438125,93.02144506802745 L 263.0964134315423,87.97608826531294 z" id="c30033"/>
		<path d="M 104.35708010673403,169.963172965764 L 109.13602905417547,167.27301441134992 L 111.01579149963273,163.68933454760315 L 112.21641939292424,164.56889363048708 L 121.42310981718504,164.6145374585457 L 125.13487167679136,159.77379315102797 L 130.50160553178344,159.72014797989073 L 134.5341492243001,162.6209688227622 L 139.3855614259716,165.42066850206467 L 143.44218097926796,170.42406144317053 L 149.71636302322312,170.59524498204846 L 149.42906315256624,184.69736485770517 L 147.80870920473475,213.6836648207249 L 147.54194012597296,213.48683570375277 L 145.64532350262107,215.11549319540086 L 144.98866801141065,216.30546559285895 L 144.38267584367918,215.65417517026 L 133.81599329525628,215.36353173446201 L 133.9157663912583,211.8699093640799 L 124.10861784949618,211.44778406291147 L 124.180128641427,209.39075249472367 L 120.6883523281373,209.23759105730682 L 120.14817945348771,200.80073159795145 L 115.23723811409778,200.62710166018405 L 115.40316013525829,196.37459651488908 L 111.18949089155653,196.21459787084314 L 111.62588717548954,183.56761184017083 L 110.17842436038096,179.0025530748833 L 105.98426295091203,178.9556130542976 L 103.93034474010011,176.79283515419084 L 104.35708010673403,169.963172965764 z" id="c30057"/>
		<path d="M 129.03118805565668,79.26980390584755 L 132.9627450534832,80.16419575058104 L 133.26589250673152,74.79352439750899 L 141.66477980073145,75.03857888279298 L 141.77333669521175,70.85209193955744 L 150.19089467869728,71.05359505838751 L 164.3289468837878,71.32936564935387 L 161.82537414633327,76.14254178010916 L 167.8269195383358,79.81863423054783 L 170.98036833273966,79.82690868904155 L 170.89621301788011,83.67648717325949 L 175.1490396742888,83.77436972318874 L 175.1296446660229,85.17507903293749 L 175.11049515913842,87.9562211927012 L 170.89390976710288,87.886805562655 L 170.1566333916343,90.35733682113587 L 170.5702151590999,100.59328237674755 L 174.71702867110804,100.68996432439447 L 174.82723309782955,113.21482324370683 L 174.2697504100606,113.86184808578263 L 171.00695210952088,112.79982888823491 L 171.00480203907426,110.58986850195335 L 167.60299877856093,109.02468021643857 L 165.764857608908,106.12579192145004 L 159.4620722366261,103.6575462492372 L 160.30966345642054,100.8186028101182 L 157.74375068560522,100.75255889606048 L 157.6710453730699,104.45607399169582 L 153.45963204402128,104.88368384626632 L 145.04742709554523,104.70087027948495 L 144.94283442960526,108.9196049338491 L 141.00017065969226,108.81142180586403 L 136.6209355560463,108.67052195118876 L 136.9570306991088,98.26181618364681 L 131.9318811038998,97.40008093442529 L 130.8188158656355,95.40279132714721 L 128.63680409675237,94.91037302378703 L 129.03118805565668,79.26980390584755 z" id="c30013"/>
		<path d="M 193.29859453958227,185.4604199182485 L 197.82454465436786,185.4892128209848 L 197.86952276262326,177.08105324877891 L 202.06099493124088,177.1001987621105 L 202.0709208082514,174.99677624362675 L 206.26668695035556,175.02525995584614 L 206.27166048120773,172.92392531380665 L 210.46103581400507,172.9258478341296 L 210.40551324492495,164.48657490434329 L 210.9190023550721,160.26250498347733 L 212.36811600967226,160.28871309254222 L 212.34680556796258,155.98611822499095 L 215.1680741090074,155.94133832104808 L 215.3618162877459,151.83926840447864 L 215.38865908008194,147.59878958336256 L 231.9318921097336,147.52922442969054 L 232.7675369953372,155.8942661556214 L 232.7656197191806,169.28247381237074 L 234.88835277670012,172.73999904062939 L 230.47735734577876,172.50653163434353 L 227.23594117819783,174.13889626114306 L 225.2348701759921,173.93473338632583 L 225.21974738663445,177.0640301148548 L 223.06501638111348,177.06999817247575 L 223.0690321117205,179.9061486986885 L 217.46051256951364,179.93094140177314 L 211.85743990199444,183.44355795119 L 208.8519633765559,187.65352730665427 L 208.86022445606451,189.75386049800207 L 206.14732578699952,189.7489701586858 L 206.13862600568555,194.30440468992808 L 202.34141999708393,194.2926128560327 L 201.87797289418677,194.05891540806752 L 193.23912058598648,194.01056489888487 L 193.29859453958227,185.4604199182485 z" id="c30095"/>
		<path d="M 238.29419629353774,92.39339934607744 L 242.51377178089376,92.35790416753471 L 242.50242395464892,90.59690150207328 L 251.56104717251912,90.0577608320669 L 251.4441770257674,77.06083738224456 L 259.54061579960927,76.21632860264968 L 264.0498077390132,77.61535394597962 L 264.80254893776447,83.26116849860513 L 264.83496134612056,85.63834988150637 L 263.0964134315423,87.97608826531294 L 263.0391516438125,93.02144506802745 L 264.8077037741524,103.91878168592763 L 266.1082689315781,105.13469519622647 L 264.3665952332779,111.0810471651824 L 265.9524904730712,112.26049260458525 L 266.9782141619189,112.99488434625036 L 268.19380994039176,116.82906768935493 L 241.4639201088298,117.57647277372955 L 242.0927575780729,113.33972996246794 L 242.02066016079996,100.68997641153132 L 237.793929235022,100.73015806706685 L 238.29419629353774,92.39339934607744 z" id="c30069"/>
		<path d="M 185.89515149871372,147.39377131828527 L 186.2841727497874,144.9510355047762 L 186.29981937077432,143.19864319651217 L 207.40032023427534,143.38282822971846 L 207.3930970878387,147.59066373793877 L 209.0257048519509,151.82699187240559 L 215.3618162877459,151.83926840447864 L 215.1680741090074,155.94133832104808 L 212.34680556796258,155.98611822499095 L 212.36811600967226,160.28871309254222 L 210.9190023550721,160.26250498347733 L 210.40551324492495,164.48657490434329 L 210.46103581400507,172.9258478341296 L 206.27166048120773,172.92392531380665 L 206.26668695035556,175.02525995584614 L 202.0709208082514,174.99677624362675 L 202.06099493124088,177.1001987621105 L 197.86952276262326,177.08105324877891 L 197.82454465436786,185.4892128209848 L 193.29859453958227,185.4604199182485 L 193.23912058598648,194.01056489888487 L 187.63942000083088,193.96435947782743 L 188.01381887675552,185.41497242443614 L 188.15707691892354,164.30241010517702 L 185.72733683295442,164.27486724622588 L 185.89515149871372,147.39377131828527 z" id="c30097"/>
		<path d="M 91.35893976825596,157.977116473948 L 96.99816260034854,154.64685820495788 L 96.59203188734888,151.7869797574166 L 99.61131112142334,149.2448969575216 L 102.13795878675711,149.35776594490255 L 102.33522697478675,145.12665966022612 L 105.56623294111287,145.2673963853655 L 109.14168248317812,143.31247968525898 L 111.56742582701435,143.15290417822553 L 110.98082270342589,145.4468704069259 L 114.42365167277251,157.60582017712215 L 113.99802767570817,160.0778781026493 L 121.42310981718504,164.6145374585457 L 112.21641939292424,164.56889363048708 L 111.01579149963273,163.68933454760315 L 109.13602905417547,167.27301441134992 L 104.35708010673403,169.963172965764 L 102.15251799831978,163.89653293578718 L 94.52883487297385,160.64816273885822 L 91.35893976825596,157.977116473948 z" id="c30093"/>
		<path d="M 366.0749807022664,126.16320922891894 L 371.85931798862015,125.81950765022725 L 371.4622588337146,119.51618364598077 L 371.3411852559109,117.41092095998964 L 375.44366383055376,115.76783068962614 L 381.7230832086345,115.36898781975431 L 383.9605919332402,117.3317655726246 L 394.25217813864515,116.62972030988571 L 394.599783935462,121.48839239954022 L 394.7071116650931,122.98847785488024 L 395.3168315234928,131.93339696083126 L 395.46667810816507,134.0802142550593 L 396.59489839643715,150.2438877899676 L 396.8523717399004,153.29881775295544 L 393.79403548640016,153.51275636078543 L 393.5055977013614,149.31634155580622 L 384.87877643655537,149.81980202821512 L 384.6167433966439,145.7401353919312 L 380.4020111355464,146.01119646998336 L 380.15002582531673,142.0818084453412 L 367.7439881200972,142.82355605216176 L 366.0749807022664,126.16320922891894 z" id="c30025"/>
		<path d="M 159.52763316544932,201.84789764465197 L 160.07202964961357,184.88677841113355 L 164.1762736811419,184.96994903224743 L 164.28336978183722,176.5677068951151 L 166.35756209330413,176.6036152077904 L 166.44232885676385,173.42096324065392 L 168.56974025520856,173.45543511248303 L 169.1455052987467,146.7838950445392 L 169.41910013230867,144.3267763935947 L 182.007384532942,144.53371045442668 L 186.2841727497874,144.9510355047762 L 185.89515149871372,147.39377131828527 L 185.72733683295442,164.27486724622588 L 188.15707691892354,164.30241010517702 L 188.01381887675552,185.41497242443614 L 187.63942000083088,193.96435947782743 L 193.23912058598648,194.01056489888487 L 201.87797289418677,194.05891540806752 L 202.34141999708393,194.2926128560327 L 202.31756670633902,202.25250427224387 L 195.56616033650715,202.20602174057277 L 184.25079349532072,202.3052439789801 L 171.16530903402125,202.4664813312983 L 168.43483634635962,201.9084599398649 L 159.5295724358601,201.82541907186825 L 159.52763316544932,201.84789764465197 z" id="c30067"/>
		<path d="M 108.55273999456539,140.48409450435727 L 109.92751002333986,139.13701211329595 L 109.61781414536735,137.22854563042446 L 113.71066092667971,135.97517023127168 L 118.51692052510387,131.93483938486548 L 123.06875552634872,130.39103346379372 L 122.15440402114328,128.25753940494192 L 126.26718468511594,127.57731204112076 L 128.15896744858443,125.11408268009613 L 136.21005479284364,125.32977969433952 L 135.5894771721836,150.47339213960126 L 139.7706552162833,150.62213340665477 L 139.49508252946623,161.05825867670427 L 137.93548151233978,162.83159721886727 L 134.5341492243001,162.6209688227622 L 130.50160553178344,159.72014797989073 L 125.13487167679136,159.77379315102797 L 121.42310981718504,164.6145374585457 L 113.99802767570817,160.0778781026493 L 114.42365167277251,157.60582017712215 L 110.98082270342589,145.4468704069259 L 111.56742582701435,143.15290417822553 L 109.14168248317812,143.31247968525898 L 108.55273999456539,140.48409450435727 z" id="c30043"/>
		<path d="M 82.75220523894515,73.27341290824421 L 87.34067344037472,73.72238080807412 L 93.27645581308616,74.00565338022979 L 93.79362638105441,77.89572434812155 L 95.82731448172194,79.30376646017145 L 95.15262600235557,94.2472374612601 L 103.82681485223327,94.75137206360586 L 103.12919319215733,111.45188009156057 L 111.75997430571164,111.67645711186618 L 111.51228177769667,118.19378927772954 L 115.66343061213853,118.35032689300344 L 115.59214313816578,120.45423608304237 L 118.58156928308769,120.56772896174836 L 119.27380614953434,122.04327159221556 L 118.57684409648803,124.5151264480092 L 118.51692052510387,131.93483938486548 L 113.71066092667971,135.97517023127168 L 109.61781414536735,137.22854563042446 L 109.92751002333986,139.13701211329595 L 93.89129353722534,138.4127650274351 L 94.8385813705907,115.74635498892926 L 92.24672312865476,116.70170560190131 L 86.29776017935106,110.66472172114597 L 87.11271636219615,93.86557906686227 L 81.72210628786392,93.62015172388635 L 82.75220523894515,73.27341290824421 z" id="c30077"/>
		<path d="M 88.28176879648882,39.12078732246599 L 113.23272092318805,40.25254617712645 L 113.52693606627099,31.847438209767343 L 126.13623771859538,32.59105758808532 L 132.31439914102924,34.68659416664111 L 132.24798488793783,36.83002592733193 L 138.53176241825457,37.07946373545549 L 138.4721251165184,39.174009252625254 L 142.66942846318162,39.310831992441024 L 142.500587642026,45.59927571218866 L 150.80064433726093,45.81555325035807 L 150.69503729869672,50.042621135494066 L 150.54282904799663,57.06367801821494 L 131.83250313803717,56.66412752258045 L 131.92630404974014,53.84897924828437 L 129.84254448709376,53.77513614944552 L 129.92250010198055,51.660560826695686 L 125.7163572654163,51.49355052050143 L 125.78831246967319,49.38584028306481 L 98.67749199877854,48.2984038445348 L 91.77122727282283,46.06909553482926 L 91.75859890937745,42.346130005384296 L 88.28176879648882,39.12078732246599 z" id="c30073"/>
		<path d="M 323.85205529077905,145.01684767029576 L 325.13590189231184,144.95854388385334 L 324.36272525508724,128.211910486665 L 325.5243074850677,128.16133917455852 L 325.89287874504964,110.59679680973913 L 325.85844805699884,109.9002290388769 L 334.27841973279664,109.49370438167051 L 334.3452247293043,110.88895121483965 L 341.4607089353638,110.5366734738861 L 343.05742261656394,114.67926934689356 L 343.27932749337776,118.88510427097229 L 346.0767680797619,118.73781246716639 L 346.22319565155203,121.54272818551927 L 347.7194257114826,122.87685463174604 L 354.72550159617634,122.53879661327146 L 354.79601933851666,123.9443558303086 L 363.203506695087,122.10594096533151 L 367.4026206181245,121.87335608942114 L 367.27847032226333,119.77444738664201 L 371.4622588337146,119.51618364598077 L 371.85931798862015,125.81950765022725 L 366.0749807022664,126.16320922891894 L 367.7439881200972,142.82355605216176 L 365.9399653422902,142.93031057633564 L 365.4799677551125,159.90614977197023 L 324.56093069144663,161.8737553695472 L 323.85205529077905,145.01684767029576 z" id="c30017"/>
		<path d="M 150.80064433726093,45.81555325035807 L 155.1263122192605,45.91784093598982 L 156.15350272965378,8.26380412480405 L 164.62996588975813,8.42608747751918 L 172.94463848247665,8.549076920487714 L 172.6396820680604,12.610373800002604 L 171.93187681138355,46.23967509478517 L 169.61715425146775,46.20319548354595 L 169.55422825215626,50.38448657441414 L 150.69503729869672,50.042621135494066 L 150.80064433726093,45.81555325035807 z" id="c30051"/>
		<path d="M 189.12418633509375,85.332360760354 L 190.89834955009076,85.41302236236747 L 195.14879099274933,82.33561665200948 L 201.07069121975553,79.4842235186645 L 201.5633785719196,71.11628033419508 L 205.2917248568875,71.58563627069707 L 206.3291786338614,70.33291589973192 L 211.30666705057715,69.84108879571116 L 215.0095714170688,70.74607056347575 L 219.9369886266279,67.19835001340847 L 224.55272355167543,67.76749878850033 L 229.58338716315072,66.6963153050189 L 232.45543349003995,69.97750702683223 L 236.39801071507583,74.24934654204125 L 244.44551099820785,75.35764047284462 L 250.71014010069769,77.85859050422117 L 251.4441770257674,77.06083738224456 L 251.56104717251912,90.0577608320669 L 242.50242395464892,90.59690150207328 L 242.51377178089376,92.35790416753471 L 238.29419629353774,92.39339934607744 L 237.793929235022,100.73015806706685 L 242.02066016079996,100.68997641153132 L 242.0927575780729,113.33972996246794 L 241.4639201088298,117.57647277372955 L 228.88500038555193,117.62219217480741 L 216.25545988917696,117.63925206135347 L 216.26327503221566,120.43318648526453 L 216.2609105390088,120.43318983227002 L 204.38583403382208,120.40011833490256 L 204.03582578209185,116.22242935700572 L 201.42317237103057,114.81996779743102 L 204.09540539722897,110.62583121687429 L 204.10334394867127,96.60506388256944 L 200.2946809178644,96.60773973276916 L 200.28853832160334,94.49921502731509 L 196.08300793995213,94.48387499356517 L 196.0876937251326,92.38229016244773 L 191.8901605378323,92.36285938900747 L 191.9156302155172,88.14635371445996 L 189.1088873647099,88.13437556900197 L 189.12418633509375,85.332360760354 z" id="c30027"/>
		<path d="M 61.73034300057757,165.0865926893553 L 64.63530756635743,160.45096540389443 L 65.92493848048105,162.0171254969221 L 70.63977235314793,157.7756832951376 L 76.4443899551617,156.25763438400836 L 77.00728730191892,153.49234763123437 L 81.24298400743558,162.37307513863945 L 88.22963426705255,156.65149620152275 L 91.35893976825596,157.977116473948 L 94.52883487297385,160.64816273885822 L 102.15251799831978,163.89653293578718 L 104.35708010673403,169.963172965764 L 103.93034474010011,176.79283515419084 L 105.98426295091203,178.9556130542976 L 110.17842436038096,179.0025530748833 L 111.62588717548954,183.56761184017083 L 111.18949089155653,196.21459787084314 L 115.40316013525829,196.37459651488908 L 115.23723811409778,200.62710166018405 L 120.14817945348771,200.80073159795145 L 120.6883523281373,209.23759105730682 L 124.180128641427,209.39075249472367 L 124.10861784949618,211.44778406291147 L 133.9157663912583,211.8699093640799 L 133.81599329525628,215.36353173446201 L 144.38267584367918,215.65417517026 L 144.98866801141065,216.30546559285895 L 144.55844777649287,217.08447516053423 L 142.7011652734946,221.70757014433943 L 141.15442782910716,223.00940691045483 L 139.27774730651856,222.8663961115326 L 136.26703264127218,222.63422715564076 L 132.60925958657282,224.87790789177728 L 130.51806913437548,222.28084368160145 L 124.81496948460743,223.37724755462966 L 121.65107715780272,223.7182309022083 L 118.33204786785964,222.87848820844394 L 116.14304714480251,221.59240177591212 L 113.55702774783833,223.41925573855997 L 112.42721247415362,227.29276141353876 L 109.51097288240598,225.63435464997463 L 105.0747857716098,224.9297177081836 L 101.42885088500142,224.2008107904333 L 100.47687294285781,224.34891232557845 L 97.1360985655107,226.95645708736058 L 97.28236177260163,228.66093607431446 L 97.10674392673072,228.76174466350997 L 95.14904033173424,229.88424177354884 L 92.81931080105991,228.01883534107284 L 91.00711982957468,225.2713556118141 L 91.10901450133184,223.01097639803706 L 89.36117541186287,220.07741293125986 L 89.88064087586696,217.5779187481098 L 88.26742216635344,213.66532364041427 L 87.35063078498217,210.90079145459202 L 83.4960768561682,207.89742068943764 L 81.56939490536706,208.96620076639724 L 79.05071153153976,207.1036477204888 L 77.51339567817274,206.65197056036965 L 75.88527834853853,203.26112463878266 L 76.8696024925091,201.24105669898566 L 77.38522346499617,198.67730218456347 L 77.02428413838604,196.12483496748766 L 75.10836287388562,194.05660221428573 L 72.99374633760614,192.56534378416148 L 70.68608536247045,187.29096122063623 L 68.0014815433437,182.75714909687412 L 68.26729880739602,179.87284980144764 L 67.32453395357442,177.75290686223906 L 67.57911214828587,175.197287981083 L 66.23446641661569,173.06707958491177 L 66.31276498036561,169.24224707229547 L 64.51585995648807,168.09974987301817 L 63.300633363905845,167.0375451529595 L 61.73034300057757,165.0865926893553 z" id="c30001"/>
		<path d="M 76.9677893088193,153.42852751234201 L 81.84247689320894,149.86814827856477 L 85.28728384586768,148.74581288826636 L 85.48276576349113,140.1534896996503 L 93.79650031424032,140.51582339411442 L 93.89129353722534,138.4127650274351 L 109.92751002333986,139.13701211329595 L 108.55273999456539,140.48409450435727 L 109.14168248317812,143.31247968525898 L 105.56623294111287,145.2673963853655 L 102.33522697478675,145.12665966022612 L 102.13795878675711,149.35776594490255 L 99.61131112142334,149.2448969575216 L 96.59203188734888,151.7869797574166 L 96.99816260034854,154.64685820495788 L 91.35893976825596,157.977116473948 L 88.22963426705255,156.65149620152275 L 81.24298400743558,162.37307513863945 L 77.00728730191892,153.49234763123437 L 76.9677893088193,153.42852751234201 z" id="c30023"/>
		<path d="M 4.047574976459036,0.0 L 21.46464590995011,1.4089615688144228 L 30.776550618756424,2.1775014132227626 L 46.072436069790776,3.180953706313887 L 47.32857848509492,4.590648687085976 L 46.13479769125785,6.19110557975946 L 46.68906130051372,10.91624822491375 L 45.28036613181104,12.39356722209437 L 48.943849966965466,15.446359084091352 L 46.16890141894213,18.529585485353085 L 47.78738670047349,19.883958763518596 L 39.796464098474544,19.351614596287398 L 39.50987137284323,23.46920332902229 L 40.75629707116758,23.55691590380989 L 39.6632020481482,40.34423843763764 L 34.11145691103135,39.96675138821154 L 33.705940319147246,50.05078988427892 L 29.04499527858578,49.71457594939699 L 27.70482629641799,54.408095996336854 L 24.559094891234547,55.57217870171008 L 23.055153269054287,54.140066492466374 L 16.64780937091285,54.085446213504994 L 15.688440992979281,52.37496830827503 L 16.33287010846148,49.652323071249555 L 15.12622598193684,48.4616130145457 L 13.574536292253976,42.8925700665275 L 12.113664818910147,40.6725159816853 L 12.990733085167607,39.33716237284782 L 11.11517566868645,36.42441367595787 L 8.93071404741049,38.21539787059963 L 4.372496979260603,39.7217938200047 L 3.570675966064194,41.36218329138224 L 0.8815241431975339,37.87873698686045 L 1.2599280856921373,33.3562784038738 L 1.9464976181422646,25.084185987121323 L 2.0305618147931503,24.080560893412333 L 4.047574976459036,0.0 z" id="c30053"/>
		<path d="M 374.9862307758142,108.66998122041298 L 375.016011737456,107.26291621763687 L 381.2299264240878,104.77359132553072 L 384.2979811337055,97.87601164416004 L 383.52106593899543,91.20931584153684 L 379.5447722472509,83.03479626899446 L 389.01494791857135,82.42815768202613 L 391.72083140929976,80.1465308909466 L 391.92911490151744,83.29134964467207 L 391.9353808213883,83.37897566181478 L 392.6352932362597,93.16600171957624 L 393.26227851383777,102.5129168741286 L 394.00221714136507,113.13560133801879 L 394.25217813864515,116.62972030988571 L 383.9605919332402,117.3317655726246 L 381.7230832086345,115.36898781975431 L 375.44366383055376,115.76783068962614 L 374.9862307758142,108.66998122041298 z" id="c30109"/>
		<path d="M 313.14091250275067,52.210402088748566 L 318.7680813010806,53.70197437615216 L 325.9925447324669,53.0373407434932 L 331.3100572004313,53.928631483548166 L 337.5094582805632,50.38277666904716 L 342.149626460005,49.15682510627902 L 352.22182832798296,50.134128207008665 L 352.7388887369817,59.73269241774011 L 351.65360362564485,63.553645542862974 L 347.4678394126,63.782386979923444 L 348.12647039072124,76.39362636695992 L 347.60504037720955,93.28831768627484 L 333.54067182799906,94.0094421600606 L 333.7534135114836,98.26279580906291 L 329.5514807696418,98.46309284991635 L 329.3615322386492,94.20630680649656 L 325.1759754616011,94.39521971610515 L 322.41840816081105,94.51941384959655 L 322.05278641026547,86.12098915629608 L 317.86334851965563,86.30530159354154 L 317.5204480588651,77.85348092271445 L 318.0578817627528,61.38716644850117 L 314.8956178117417,61.516968473648774 L 314.7166004272691,57.22119727308748 L 312.7555818007615,57.28746331569285 L 313.14091250275067,52.210402088748566 z" id="c30055"/>
		<path d="M 202.34141999708393,194.2926128560327 L 206.13862600568555,194.30440468992808 L 206.14732578699952,189.7489701586858 L 208.86022445606451,189.75386049800207 L 208.8519633765559,187.65352730665427 L 211.85743990199444,183.44355795119 L 217.46051256951364,179.93094140177314 L 223.0690321117205,179.9061486986885 L 223.06501638111348,177.06999817247575 L 225.21974738663445,177.0640301148548 L 225.2348701759921,173.93473338632583 L 227.23594117819783,174.13889626114306 L 230.47735734577876,172.50653163434353 L 234.88835277670012,172.73999904062939 L 236.9488467321279,171.3860521829432 L 236.31529551999643,175.58736376754712 L 239.81474797960092,176.97395796137883 L 241.68156824427166,179.7888385395649 L 240.44043702570931,181.2999181854898 L 239.88919194453246,185.38104419886136 L 239.95424677657053,191.73375907041878 L 260.5320606635384,191.30849389430514 L 256.5456203136716,197.49697784652471 L 255.20288475912267,201.67953968125252 L 255.55479681054263,202.03952031793696 L 246.89504648902775,202.20941053030396 L 242.7454274507067,202.25986377298943 L 227.60578513460695,202.38965933785647 L 226.18964571377467,202.09310785393816 L 210.0169756528949,202.28483422040807 L 202.31756670633902,202.25250427224387 L 202.34141999708393,194.2926128560327 z" id="c30009"/>
		<path d="M 34.11145691103135,39.96675138821154 L 39.6632020481482,40.34423843763764 L 40.75629707116758,23.55691590380989 L 39.50987137284323,23.46920332902229 L 39.796464098474544,19.351614596287398 L 47.78738670047349,19.883958763518596 L 46.16890141894213,18.529585485353085 L 48.943849966965466,15.446359084091352 L 45.28036613181104,12.39356722209437 L 46.68906130051372,10.91624822491375 L 46.13479769125785,6.19110557975946 L 47.32857848509492,4.590648687085976 L 46.072436069790776,3.180953706313887 L 47.62592794442726,3.2775925817122835 L 57.24247727962868,3.8633638222112654 L 63.466263911183034,4.3253874671286505 L 67.03035029377499,4.552894751300206 L 68.41891605462008,6.478284310512127 L 67.04022700938569,9.911097188305712 L 68.60588464010445,12.706459815778908 L 75.4586296170465,12.494081030552856 L 77.92886365964027,18.724344124442414 L 76.13093288670065,23.746160873440655 L 80.88723535354875,25.899376503412302 L 82.69981308126782,25.426287010812885 L 85.0460051359336,27.453105479552026 L 84.43516570106384,32.00180391026168 L 88.32901165542606,33.61276703328313 L 88.96988617650527,35.38738952042025 L 87.1307073933934,37.54927579438322 L 88.28176879648882,39.12078732246599 L 91.75859890937745,42.346130005384296 L 91.77122727282283,46.06909553482926 L 98.67749199877854,48.2984038445348 L 102.7533770036996,56.005430121304755 L 99.27004728050855,56.9089666522699 L 95.88004018064582,58.487795736011584 L 95.69099473061512,66.63403807202478 L 92.85648741200137,67.96414568920521 L 93.27645581308616,74.00565338022979 L 87.34067344037472,73.72238080807412 L 82.75220523894515,73.27341290824421 L 77.2720014335427,72.99122972782905 L 78.5658122357148,67.17352732862699 L 77.36605791012006,67.18023286917688 L 76.24487920453473,62.992227283542476 L 76.9095447222374,58.86736025680111 L 74.50000928817781,55.732217487563105 L 71.48015748679212,54.30937500804294 L 70.30733407968926,50.702859891611425 L 65.62325434598101,50.44802394071073 L 63.94682696422874,51.73295262755015 L 65.06542951610655,54.73709643461007 L 50.339138627819594,53.86725090471612 L 50.293729848505116,62.210918340464026 L 46.15308232440578,61.947463389490736 L 46.41942527110846,57.80530253241018 L 33.906085589898254,57.09354266092374 L 33.705940319147246,50.05078988427892 L 34.11145691103135,39.96675138821154 z" id="c30029"/>
		<path d="M 280.81769099551826,62.55511754918575 L 280.3723555801486,45.714663525577265 L 281.497624633327,45.68754703617189 L 281.3987720387352,41.48595558498949 L 284.91273068892013,41.407032830732035 L 284.7948533667308,37.08356732146524 L 283.4798116040355,37.12471406961432 L 283.3407633221835,32.91639063739121 L 284.7000062145448,31.236452297118586 L 286.80927011544134,31.437740621989438 L 286.28766291942503,28.605576388180083 L 285.80807620576667,11.923351328377871 L 286.519820760541,7.675933560368885 L 304.43412624826226,7.096682271840229 L 316.6516304932459,6.6246654639364 L 320.5350373083089,6.466576135270272 L 319.6290727010581,15.008341958074057 L 323.8041910956496,14.823948972945473 L 324.3626295227949,27.431951927324707 L 331.3273294054261,27.115963428173632 L 332.10851186173477,43.77235598514707 L 331.3100572004313,53.928631483548166 L 325.9925447324669,53.0373407434932 L 318.7680813010806,53.70197437615216 L 313.14091250275067,52.210402088748566 L 312.7555818007615,57.28746331569285 L 310.05336388967976,57.35217294572019 L 309.92051116584213,61.198987407858304 L 307.06869738033265,65.87257316503076 L 303.54141769444055,66.61249021396733 L 302.8729534150953,68.47493756127028 L 298.71537632286083,68.46262925874197 L 297.80156548274783,71.52326268473087 L 293.9436658358391,72.21584800076775 L 286.1776191718334,72.5257167308239 L 280.71559159905905,71.21592773307492 L 280.81769099551826,62.55511754918575 z" id="c30105"/>
		<path d="M 320.5350373083089,6.466576135270272 L 322.4944386088763,6.3845125723563285 L 331.24214200367885,5.962789382697942 L 344.61187166301914,5.30427272978975 L 347.4985204749945,5.142787705411393 L 354.10527320832955,4.7896109419869 L 354.969653082879,9.045398273259515 L 355.6757655378008,21.64007785952924 L 357.7670076175782,21.521849590463873 L 358.00775828811936,25.7224449434797 L 331.3273294054261,27.115963428173632 L 324.3626295227949,27.431951927324707 L 323.8041910956496,14.823948972945473 L 319.6290727010581,15.008341958074057 L 320.5350373083089,6.466576135270272 z" id="c30019"/>
		<path d="M 325.1759754616011,94.39521971610515 L 329.3615322386492,94.20630680649656 L 329.5514807696418,98.46309284991635 L 333.7534135114836,98.26279580906291 L 333.54067182799906,94.0094421600606 L 347.60504037720955,93.28831768627484 L 350.2896680769753,93.15069544090447 L 350.81970575188296,103.02512032264278 L 355.05461087817366,102.79685289047924 L 355.19957419466135,105.59943463623519 L 359.4209580414653,105.36481468079953 L 360.9709272216019,108.07461144974266 L 375.016011737456,107.26291621763687 L 374.9862307758142,108.66998122041298 L 375.44366383055376,115.76783068962614 L 371.3411852559109,117.41092095998964 L 371.4622588337146,119.51618364598077 L 367.27847032226333,119.77444738664201 L 367.4026206181245,121.87335608942114 L 363.203506695087,122.10594096533151 L 354.79601933851666,123.9443558303086 L 354.72550159617634,122.53879661327146 L 347.7194257114826,122.87685463174604 L 346.22319565155203,121.54272818551927 L 346.0767680797619,118.73781246716639 L 343.27932749337776,118.88510427097229 L 343.05742261656394,114.67926934689356 L 341.4607089353638,110.5366734738861 L 334.3452247293043,110.88895121483965 L 334.27841973279664,109.49370438167051 L 325.85844805699884,109.9002290388769 L 325.1759754616011,94.39521971610515 z" id="c30079"/>
		<path d="M 332.10851186173477,43.77235598514707 L 331.3273294054261,27.115963428173632 L 358.00775828811936,25.7224449434797 L 364.93108112373534,25.315372855004277 L 365.18401305676,29.50050567350832 L 369.36018667052747,29.253911516086866 L 369.6209737337012,33.45851903369555 L 388.31971194674196,32.22733715728624 L 388.8530717601977,39.368854616977835 L 389.73139442871275,51.214787507049486 L 387.9408092157464,51.148793092371626 L 386.34704200417883,48.58981158800035 L 383.0739855738816,49.9765833318252 L 373.1052894606719,45.99098969270266 L 368.73817763546225,47.39081238868982 L 364.1302708881435,46.91266151976822 L 361.8151150507227,45.51024001996739 L 360.1626482805653,48.34684870461918 L 356.6508713633107,49.35047436816493 L 352.67725908766397,48.339848417511575 L 352.22182832798296,50.134128207008665 L 342.149626460005,49.15682510627902 L 337.5094582805632,50.38277666904716 L 331.3100572004313,53.928631483548166 L 332.10851186173477,43.77235598514707 z" id="c30085"/>
		<path d="M 66.45690370566595,125.32267213951445 L 68.77223014376943,121.53734490660011 L 68.42981285754952,118.03678864116823 L 73.7387337202465,118.44733209843109 L 73.88202463837804,115.65071991100632 L 80.21217936077024,114.59972779525913 L 80.35569599370716,111.79336973627244 L 86.29776017935106,110.66472172114597 L 92.24672312865476,116.70170560190131 L 94.8385813705907,115.74635498892926 L 93.89129353722534,138.4127650274351 L 93.79650031424032,140.51582339411442 L 85.48276576349113,140.1534896996503 L 85.28728384586768,148.74581288826636 L 81.84247689320894,149.86814827856477 L 76.9677893088193,153.42852751234201 L 72.61578544586648,151.99226432891973 L 71.47267273644843,148.52068217232124 L 67.57401245363944,148.19916487293844 L 69.46875812436048,144.66125678425908 L 67.4516048060926,139.71966924775637 L 69.97846997139972,136.96524846148415 L 68.83868922079321,136.13087713208708 L 69.15369846997277,132.68523356736134 L 67.12457537744926,128.6247069530787 L 66.45690370566595,125.32267213951445 z" id="c30039"/>
		<path d="M 137.93548151233978,162.83159721886727 L 139.49508252946623,161.05825867670427 L 142.03686351832587,157.58376012695408 L 147.82051886151635,153.39164983011253 L 147.75645432448064,150.21263662586526 L 150.33379040963084,147.33810836603774 L 150.49967606194423,144.18652897554557 L 160.07242705174068,144.15042803444823 L 169.41910013230867,144.3267763935947 L 169.1455052987467,146.7838950445392 L 168.56974025520856,173.45543511248303 L 166.44232885676385,173.42096324065392 L 166.35756209330413,176.6036152077904 L 164.28336978183722,176.5677068951151 L 164.1762736811419,184.96994903224743 L 160.07202964961357,184.88677841113355 L 159.52763316544932,201.84789764465197 L 158.96681047520187,208.33650769706017 L 158.8783385078734,215.17838998229223 L 158.82768837875065,218.03870117000943 L 158.7922581437076,220.03994633933655 L 158.86333822544086,227.34793006915217 L 156.32869392746426,226.34787770268093 L 155.64705268679216,224.29579971008096 L 153.68403010161762,222.3181892961998 L 152.94931102934592,219.99147268621437 L 151.45677718524837,217.78459660396496 L 149.62292941174877,215.0207952234278 L 147.80870920473475,213.6836648207249 L 149.42906315256624,184.69736485770517 L 149.71636302322312,170.59524498204846 L 143.44218097926796,170.42406144317053 L 139.3855614259716,165.42066850206467 L 134.5341492243001,162.6209688227622 L 137.93548151233978,162.83159721886727 z" id="c30031"/>
		<path d="M 46.15308232440578,61.947463389490736 L 50.293729848505116,62.210918340464026 L 50.339138627819594,53.86725090471612 L 65.06542951610655,54.73709643461007 L 63.94682696422874,51.73295262755015 L 65.62325434598101,50.44802394071073 L 70.30733407968926,50.702859891611425 L 71.48015748679212,54.30937500804294 L 74.50000928817781,55.732217487563105 L 76.9095447222374,58.86736025680111 L 76.24487920453473,62.992227283542476 L 77.36605791012006,67.18023286917688 L 78.5658122357148,67.17352732862699 L 77.2720014335427,72.99122972782905 L 66.98114997230542,72.42847994412416 L 67.58362538210577,72.53510528381263 L 68.06436703957752,76.6381278139247 L 66.56384914733005,78.41704263785189 L 68.96065572820487,82.62596019732104 L 68.69158236456605,87.64383490952876 L 70.27082579688307,88.67486051336724 L 70.02938330451944,92.87866057147265 L 66.33506970111213,92.6714430630881 L 66.21828327468663,94.770402757411 L 57.854091989000494,94.28761889959804 L 57.45525671065723,92.14382668745023 L 57.963262742817975,83.74461668291266 L 55.15538541680299,83.56802234038042 L 53.13884996159644,81.79603997481577 L 55.1505111775752,76.72108120198847 L 52.42405737769481,77.22141503183138 L 54.81634190364478,71.97173062807074 L 46.236275705744355,71.0808892810691 L 46.667809025133394,64.0921737603431 L 46.15308232440578,61.947463389490736 z" id="c30047"/>
		<path d="M 150.69503729869672,50.042621135494066 L 169.55422825215626,50.38448657441414 L 169.61715425146775,46.20319548354595 L 171.93187681138355,46.23967509478517 L 176.14891141843972,46.29749149883889 L 176.21360180965598,42.09729233480532 L 201.39400733155873,42.358405079280494 L 201.3792910686866,46.56967965565333 L 205.22622067195462,46.461669892454445 L 205.21472098392456,50.75502579777665 L 211.45815761249358,50.6828790138574 L 211.30666705057715,69.84108879571116 L 206.3291786338614,70.33291589973192 L 205.2917248568875,71.58563627069707 L 201.5633785719196,71.11628033419508 L 201.07069121975553,79.4842235186645 L 195.14879099274933,82.33561665200948 L 190.89834955009076,85.41302236236747 L 189.12418633509375,85.332360760354 L 175.1296446660229,85.17507903293749 L 175.1490396742888,83.77436972318874 L 170.89621301788011,83.67648717325949 L 170.98036833273966,79.82690868904155 L 167.8269195383358,79.81863423054783 L 161.82537414633327,76.14254178010916 L 164.3289468837878,71.32936564935387 L 150.19089467869728,71.05359505838751 L 150.54282904799663,57.06367801821494 L 150.69503729869672,50.042621135494066 z" id="c30015"/>
		<path d="M 136.21005479284364,125.32977969433952 L 141.41728234440455,125.45218961481734 L 141.39419801253507,117.30729389375917 L 142.6758943611702,115.40136491428804 L 146.11991609007012,116.25453471482416 L 147.51548144213444,117.25657423803185 L 148.8646064182464,122.2551472805055 L 151.53925579460196,122.61974510738636 L 150.9652803962306,126.85814386044487 L 153.83722572971567,129.22160403290252 L 154.13492565411238,132.15116123503765 L 158.19765908116878,132.15893356458642 L 160.43911281680946,133.9775646540962 L 157.97237067287685,140.22177292882478 L 159.6860223961942,141.33663339426298 L 160.07242705174068,144.15042803444823 L 150.49967606194423,144.18652897554557 L 150.33379040963084,147.33810836603774 L 147.75645432448064,150.21263662586526 L 147.82051886151635,153.39164983011253 L 142.03686351832587,157.58376012695408 L 139.49508252946623,161.05825867670427 L 139.7706552162833,150.62213340665477 L 135.5894771721836,150.47339213960126 L 136.21005479284364,125.32977969433952 z" id="c30007"/>
		<path d="M 170.1566333916343,90.35733682113587 L 170.89390976710288,87.886805562655 L 175.11049515913842,87.9562211927012 L 175.1296446660229,85.17507903293749 L 189.12418633509375,85.332360760354 L 189.1088873647099,88.13437556900197 L 191.9156302155172,88.14635371445996 L 191.8901605378323,92.36285938900747 L 196.0876937251326,92.38229016244773 L 196.08300793995213,94.48387499356517 L 200.28853832160334,94.49921502731509 L 200.2946809178644,96.60773973276916 L 204.10334394867127,96.60506388256944 L 204.09540539722897,110.62583121687429 L 201.42317237103057,114.81996779743102 L 204.03582578209185,116.22242935700572 L 204.38583403382208,120.40011833490256 L 201.9173096879962,120.42271396087106 L 196.95458939191832,117.51767629531923 L 186.82396865754166,119.49151700797033 L 184.96808250134515,121.27945182302514 L 180.3641896468307,120.95480627198332 L 174.2697504100606,113.86184808578263 L 174.82723309782955,113.21482324370683 L 174.71702867110804,100.68996432439447 L 170.5702151590999,100.59328237674755 L 170.1566333916343,90.35733682113587 z" id="c30045"/>
		<path d="M 265.9524904730712,112.26049260458525 L 280.0337571955988,111.54403912658759 L 305.2137722621696,111.44945155739035 L 325.89287874504964,110.59679680973913 L 325.5243074850677,128.16133917455852 L 324.36272525508724,128.211910486665 L 325.13590189231184,144.95854388385334 L 323.85205529077905,145.01684767029576 L 324.56093069144663,161.8737553695472 L 323.11404005178923,161.93557434609832 L 323.9538349648571,183.06132888760357 L 322.45900929737434,183.12319533428206 L 322.79592470377634,191.44611523986615 L 306.08929208391316,192.0812199452243 L 305.7744941528774,183.70755828464388 L 306.622124736596,168.00196387312275 L 300.3235186660444,167.8569161050948 L 300.16217521732653,162.8107733499636 L 301.2959496500697,160.6667283089423 L 299.2042080828862,160.74110398203882 L 299.14278910425867,158.88188817518065 L 298.72187346286927,145.98383680020396 L 296.427879308638,146.17742797285908 L 296.16345677793845,137.87119736293732 L 295.3217280678519,133.56113982238924 L 291.1368752842948,133.6824850556268 L 290.3059099772555,129.48980689637438 L 271.4565279235236,130.02559641553955 L 270.01531134057024,129.36979078249388 L 269.43282944949823,124.5105239092818 L 268.02328684688166,124.5410648001566 L 269.42961789997787,120.48384285946784 L 268.19380994039176,116.82906768935493 L 266.9782141619189,112.99488434625036 L 265.9524904730712,112.26049260458525 z" id="c30087"/>
		<path d="M 186.82396865754166,119.49151700797033 L 196.95458939191832,117.51767629531923 L 201.9173096879962,120.42271396087106 L 204.38583403382208,120.40011833490256 L 216.2609105390088,120.43318983227002 L 215.79408147987647,130.2573999327944 L 215.83166481745448,143.3712673746654 L 207.40032023427534,143.38282822971846 L 186.29981937077432,143.19864319651217 L 186.82396865754166,119.49151700797033 z" id="c30107"/>
		<path d="M 364.7764524869234,181.0347388153101 L 366.5104536361432,180.93504788234608 L 365.4799677551125,159.90614977197023 L 365.9399653422902,142.93031057633564 L 367.7439881200972,142.82355605216176 L 380.15002582531673,142.0818084453412 L 380.4020111355464,146.01119646998336 L 384.6167433966439,145.7401353919312 L 384.87877643655537,149.81980202821512 L 393.5055977013614,149.31634155580622 L 393.79403548640016,153.51275636078543 L 396.8523717399004,153.29881775295544 L 396.92259529876446,154.13181176532223 L 397.34890431068783,159.66774174320653 L 398.01858083189416,168.9411752879931 L 398.25069460813563,172.182140074749 L 398.82048966741047,179.6560818415847 L 399.2429667529092,185.59808183337967 L 399.54478911237493,189.84282417321012 L 400.0,195.9486389473306 L 399.36766261410224,196.04557267756613 L 366.1896559710669,198.0100643402671 L 365.74431185215474,198.03541623367454 L 364.7764524869234,181.0347388153101 z" id="c30011"/>
		<path d="M 231.9318921097336,147.52922442969054 L 236.80602787426588,147.4846982796399 L 249.421315384658,147.31453095471178 L 249.3495575383548,142.32946990413714 L 252.15149607156474,140.93166243458342 L 261.9334658879855,140.7633734776762 L 262.45105447614526,137.23151171835218 L 265.18961890201274,134.34751331315815 L 270.0931669603824,134.24947167096818 L 270.01531134057024,129.36979078249388 L 271.4565279235236,130.02559641553955 L 275.82450867973034,136.22952121419394 L 280.9438011177212,144.51501635190726 L 279.5828759565014,151.05569714584865 L 274.09312652577137,151.179360859942 L 274.1579087633711,153.97864099319526 L 269.9656585374618,154.076863681964 L 269.9938028651602,155.4781303139842 L 267.2193235438156,156.92025345273157 L 267.24914736753635,158.31951062814755 L 261.656953111374,158.41723775749284 L 261.00869584306,164.04339479279975 L 261.2367875520969,176.86704488371652 L 257.06036337591627,178.3444375160569 L 252.87131250861978,178.41215711074273 L 252.88812898242006,179.81554845459584 L 241.68156824427166,179.7888385395649 L 239.81474797960092,176.97395796137883 L 236.31529551999643,175.58736376754712 L 236.9488467321279,171.3860521829432 L 234.88835277670012,172.73999904062939 L 232.7656197191806,169.28247381237074 L 232.7675369953372,155.8942661556214 L 231.9318921097336,147.52922442969054 z" id="c30111"/>
		<path d="M 38.17443785928416,86.6911993881174 L 45.80497870236288,87.8905623871781 L 52.72816165354713,92.13041787357454 L 55.26591107196195,94.96149431594972 L 57.854091989000494,94.28761889959804 L 66.21828327468663,94.770402757411 L 66.33506970111213,92.6714430630881 L 70.02938330451944,92.87866057147265 L 70.27082579688307,88.67486051336724 L 68.69158236456605,87.64383490952876 L 68.96065572820487,82.62596019732104 L 66.56384914733005,78.41704263785189 L 68.06436703957752,76.6381278139247 L 67.58362538210577,72.53510528381263 L 66.98114997230542,72.42847994412416 L 77.2720014335427,72.99122972782905 L 82.75220523894515,73.27341290824421 L 81.72210628786392,93.62015172388635 L 87.11271636219615,93.86557906686227 L 86.29776017935106,110.66472172114597 L 80.35569599370716,111.79336973627244 L 80.21217936077024,114.59972779525913 L 73.88202463837804,115.65071991100632 L 73.7387337202465,118.44733209843109 L 68.42981285754952,118.03678864116823 L 52.126209661508064,117.10060589382063 L 51.51453204716596,117.31880572619762 L 50.72487707041422,116.6013431164616 L 47.58747567361056,117.36439404691275 L 44.44319388998578,117.39526368074085 L 43.011781753372254,116.91130724446016 L 42.01954241190064,116.57527529453017 L 42.01953373117955,113.91989211434563 L 40.41477478892795,112.8950330819939 L 44.703886458938285,112.4222913783109 L 44.8152694236159,101.95119758173696 L 46.30572772395312,99.82375742349933 L 47.741158022465434,99.23134211957482 L 47.861609818953156,97.09772612881076 L 45.14170601786079,96.9292029810505 L 44.63759645602897,94.1619462454116 L 40.686900627054584,91.06750977743852 L 40.82689819027073,88.97130879780774 L 38.73574222095861,88.83191759480583 L 38.17443785928416,86.6911993881174 z" id="c30063"/>
		<path d="M 348.12647039072124,76.39362636695992 L 347.4678394126,63.782386979923444 L 351.65360362564485,63.553645542862974 L 351.8746437113513,67.75587520421968 L 360.2582257752029,67.29909536557753 L 360.4861698493512,71.50568194039126 L 373.06169104091356,70.74686743180979 L 373.3127078542242,74.94899297774998 L 375.9626771130721,74.77622889922895 L 376.4928378925498,83.2174064954515 L 379.5447722472509,83.03479626899446 L 383.52106593899543,91.20931584153684 L 384.2979811337055,97.87601164416004 L 381.2299264240878,104.77359132553072 L 375.016011737456,107.26291621763687 L 360.9709272216019,108.07461144974266 L 359.4209580414653,105.36481468079953 L 355.19957419466135,105.59943463623519 L 355.05461087817366,102.79685289047924 L 350.81970575188296,103.02512032264278 L 350.2896680769753,93.15069544090447 L 347.60504037720955,93.28831768627484 L 348.12647039072124,76.39362636695992 z" id="c30021"/>
		<path d="M 0.5133201731831875,42.279316947357295 L 0.8815241431975339,37.87873698686045 L 3.570675966064194,41.36218329138224 L 4.372496979260603,39.7217938200047 L 8.93071404741049,38.21539787059963 L 11.11517566868645,36.42441367595787 L 12.990733085167607,39.33716237284782 L 12.113664818910147,40.6725159816853 L 13.574536292253976,42.8925700665275 L 15.12622598193684,48.4616130145457 L 16.33287010846148,49.652323071249555 L 15.688440992979281,52.37496830827503 L 16.64780937091285,54.085446213504994 L 23.055153269054287,54.140066492466374 L 24.559094891234547,55.57217870171008 L 27.70482629641799,54.408095996336854 L 29.04499527858578,49.71457594939699 L 33.705940319147246,50.05078988427892 L 33.906085589898254,57.09354266092374 L 46.41942527110846,57.80530253241018 L 46.15308232440578,61.947463389490736 L 46.667809025133394,64.0921737603431 L 46.236275705744355,71.0808892810691 L 54.81634190364478,71.97173062807074 L 52.42405737769481,77.22141503183138 L 55.1505111775752,76.72108120198847 L 53.13884996159644,81.79603997481577 L 55.15538541680299,83.56802234038042 L 57.963262742817975,83.74461668291266 L 57.45525671065723,92.14382668745023 L 57.854091989000494,94.28761889959804 L 55.26591107196195,94.96149431594972 L 52.72816165354713,92.13041787357454 L 45.80497870236288,87.8905623871781 L 38.17443785928416,86.6911993881174 L 32.67592560407523,84.19197540444239 L 32.52455318242313,80.09665620107235 L 24.07491682190449,75.4319960473386 L 11.461471348249393,74.40804314276419 L 8.96331602995762,71.7374146416314 L 8.994191028166147,69.62112514053372 L 10.053617033726361,67.41620483572676 L 8.804340069070847,65.79674712722716 L 9.37294963092946,63.80678708582078 L 5.988873096939116,60.41266726144698 L 5.871565542967325,57.77977717714241 L 4.180052250697629,56.27704100225908 L 2.4828650772578995,53.46179744148299 L 0.488743339956354,49.642268557695246 L 0.28111211541520303,49.076600159517945 L 0.0,48.31022835222828 L 0.5133201731831875,42.279316947357295 z" id="c30089"/>
		<path d="M 98.67749199877854,48.2984038445348 L 125.78831246967319,49.38584028306481 L 125.7163572654163,51.49355052050143 L 129.92250010198055,51.660560826695686 L 129.84254448709376,53.77513614944552 L 131.92630404974014,53.84897924828437 L 131.83250313803717,56.66412752258045 L 150.54282904799663,57.06367801821494 L 150.19089467869728,71.05359505838751 L 141.77333669521175,70.85209193955744 L 141.66477980073145,75.03857888279298 L 133.26589250673152,74.79352439750899 L 132.9627450534832,80.16419575058104 L 129.03118805565668,79.26980390584755 L 121.46775891212643,79.51683310822 L 120.23734921228443,77.70740603228086 L 117.38381135047226,77.10674404822295 L 116.68904679860835,74.60693775573222 L 112.83700789213285,72.10584570217839 L 105.18465462164666,74.38146477880186 L 102.7505665189212,72.78256799436814 L 101.01488970982129,69.53524221046254 L 101.32319386545677,63.18813184126737 L 99.27004728050855,56.9089666522699 L 102.7533770036996,56.005430121304755 L 98.67749199877854,48.2984038445348 z" id="c30099"/>
		<path d="M 9.462241705006601,75.44116784817031 L 11.461471348249393,74.40804314276419 L 24.07491682190449,75.4319960473386 L 32.52455318242313,80.09665620107235 L 32.67592560407523,84.19197540444239 L 38.17443785928416,86.6911993881174 L 38.73574222095861,88.83191759480583 L 40.82689819027073,88.97130879780774 L 40.686900627054584,91.06750977743852 L 44.63759645602897,94.1619462454116 L 45.14170601786079,96.9292029810505 L 47.861609818953156,97.09772612881076 L 47.741158022465434,99.23134211957482 L 46.30572772395312,99.82375742349933 L 44.8152694236159,101.95119758173696 L 44.703886458938285,112.4222913783109 L 40.41477478892795,112.8950330819939 L 39.70514994463934,112.4412712032087 L 37.43732149012593,112.35719697795949 L 36.80871872971389,110.37915765741828 L 33.914804919684926,108.57779405144596 L 32.02531991155633,105.72137858739598 L 32.705032100750294,103.52642224305612 L 31.643485154367227,102.54479076464625 L 29.45283120256465,100.51527742155282 L 28.31787178043803,97.98255994620963 L 26.814115201683098,95.97495341392307 L 24.79839355024716,92.44207422965054 L 22.768303499782128,90.17294771505297 L 21.698320186662265,88.38858544023002 L 20.719545403151784,86.08065061314485 L 19.276973346490824,85.52125060486095 L 16.09235868218467,84.32567490103825 L 14.197599428929166,82.76029632394423 L 12.865037569383828,80.08942955707263 L 8.741180995942088,77.29975432924452 L 9.462241705006601,75.44116784817031 z" id="c30061"/>
		<path d="M 228.88500038555193,117.62219217480741 L 241.4639201088298,117.57647277372955 L 268.19380994039176,116.82906768935493 L 269.42961789997787,120.48384285946784 L 268.02328684688166,124.5410648001566 L 269.43282944949823,124.5105239092818 L 270.01531134057024,129.36979078249388 L 270.0931669603824,134.24947167096818 L 265.18961890201274,134.34751331315815 L 262.45105447614526,137.23151171835218 L 261.9334658879855,140.7633734776762 L 252.15149607156474,140.93166243458342 L 249.3495575383548,142.32946990413714 L 249.421315384658,147.31453095471178 L 236.80602787426588,147.4846982796399 L 236.75698988625973,140.46973169041527 L 233.93709363041714,136.27416805995338 L 233.952153213389,132.05932847326142 L 232.4307992170192,126.00942753084675 L 229.6240447495233,125.98360406031082 L 228.88500038555193,117.62219217480741 z" id="c30065"/>
		<path d="M 42.94222986118596,156.51070121136172 L 46.18112476281814,155.77618762440045 L 47.43446051509925,154.547361637998 L 46.68195336088114,153.0870801450398 L 47.2011328950062,150.69434866856662 L 45.97211644411455,149.3093556531516 L 44.78584132003658,147.20341593701588 L 45.66973701804687,144.02092798754003 L 43.69890471478232,142.5283465504077 L 44.05178125997893,140.49271284839347 L 46.37891220276362,140.33985526442493 L 46.44147676249826,137.27950938252928 L 46.83807100061662,135.52569057375547 L 47.27274085784087,133.76149029937153 L 47.81445668765189,130.092840783746 L 49.14917165611318,128.97932727988547 L 48.80205680810799,124.74391099150456 L 50.54377429654653,124.3945352687712 L 51.429255933486544,121.07127801032112 L 51.99073474001157,117.7511633609302 L 51.51453204716596,117.31880572619762 L 52.126209661508064,117.10060589382063 L 68.42981285754952,118.03678864116823 L 68.77223014376943,121.53734490660011 L 66.45690370566595,125.32267213951445 L 67.12457537744926,128.6247069530787 L 69.15369846997277,132.68523356736134 L 68.83868922079321,136.13087713208708 L 69.97846997139972,136.96524846148415 L 67.4516048060926,139.71966924775637 L 69.46875812436048,144.66125678425908 L 67.57401245363944,148.19916487293844 L 71.47267273644843,148.52068217232124 L 72.61578544586648,151.99226432891973 L 76.9677893088193,153.42852751234201 L 77.00728730191892,153.49234763123437 L 76.4443899551617,156.25763438400836 L 70.63977235314793,157.7756832951376 L 65.92493848048105,162.0171254969221 L 64.63530756635743,160.45096540389443 L 61.73034300057757,165.0865926893553 L 60.99290074453848,164.16903795884812 L 59.48815812422096,164.30122561146672 L 59.393054488342564,166.33784002423744 L 56.94114190846342,168.62015058728855 L 53.26764172555619,171.2370805540615 L 51.02575667625576,171.47654954353948 L 49.92723385340704,174.18336907968066 L 46.9284070025606,173.41162240295216 L 44.08700105325195,170.74668180995863 L 42.451236793339234,169.903658468742 L 41.94070483396885,168.60445681948502 L 41.52060202198362,167.5342255134999 L 41.73683076991145,165.42467710154435 L 43.017810618114375,164.61332462260353 L 43.004866718243434,162.0350389555502 L 41.235275080931885,159.12006533189236 L 42.94222986118596,156.51070121136172 z" id="c30081"/>
		<path d="M 210.9009119949114,42.98746062421268 L 212.67472764948465,35.347023836709724 L 213.7192500057266,35.2801252048569 L 213.7176477510907,31.762997609463458 L 212.39830888310402,29.697611690614416 L 212.3936706318006,12.937721567928245 L 212.9028539786016,8.746603790032632 L 220.5159694257544,8.753835524302938 L 228.48582500536133,8.753395439552177 L 243.06950836733392,8.610906155485296 L 252.84841075778115,8.46351328122906 L 252.1819591688977,12.639460335678944 L 252.31305649843426,20.93975669667166 L 250.39959703644752,20.970112070623724 L 249.6563099340378,29.398300616158583 L 249.75660547415248,36.47551315611708 L 247.6743147195016,35.23738165199618 L 247.0689974414353,46.333094505140714 L 247.22485630995135,58.09799747648547 L 241.57364643637385,57.46926051406901 L 241.02655805393897,60.89317559124518 L 232.47566477409393,60.862403424719766 L 232.45543349003995,69.97750702683223 L 229.58338716315072,66.6963153050189 L 224.55272355167543,67.76749878850033 L 219.9369886266279,67.19835001340847 L 215.0095714170688,70.74607056347575 L 211.30666705057715,69.84108879571116 L 211.45815761249358,50.6828790138574 L 210.9009119949114,42.98746062421268 z" id="c30005"/>
	</g>
</svg>