<?xml version="1.0" encoding="UTF-8"?>
<svg baseProfile="full" fill="#d0d0d0" height="183.88443482328623" stroke="#ffffff" stroke-width="1" version="1.1" width="400.0" xmlns="http://www.w3.org/2000/svg" xmlns:ev="http://www.w3.org/2001/xml-events" xmlns:xlink="http://www.w3.org/1999/xlink">
	<defs/>
	<g id="counties"><path d="M 221.5170182777652,162.78755219824228 L 242.26139632901047,162.55331297738329 L 242.58940640784695,183.40534234117783 L 226.89371045760362,183.6171982388199 L 226.03765006011253,183.62697440310734 L 221.72767544903087,183.6716686025522 L 221.5170182777652,162.78755219824228 z" id="c31061"/>
		<path d="M 262.4123927732204,141.3579625607601 L 283.0344538132136,140.87740600759014 L 283.0774662797706,140.8774026090765 L 283.63248271983537,161.71943297326303 L 263.0352255098104,162.19524890248607 L 262.8281331520886,162.20009843311715 L 262.4123927732204,141.3579625607601 z" id="c31035"/>
		<path d="M 283.7836063793653,161.71538625020133 L 304.50102183155764,161.14805597869886 L 305.1127957863339,182.0171290789535 L 302.9647334296431,182.07823336209916 L 286.3209416654489,182.53109188994458 L 284.2780913151537,182.58190913132196 L 283.7836063793653,161.71538625020133 z" id="c31169"/>
		<path d="M 282.2044088041536,112.43834464024292 L 289.67081287656094,104.3669241378252 L 292.1032084326023,103.76151628617508 L 292.3470369957027,102.59990984371818 L 295.72105928231355,100.77760373281541 L 302.61664744231865,98.50696999084597 L 303.2569704849283,119.43457629566122 L 282.4845782709978,120.03395350774466 L 282.2044088041536,112.43834464024292 z" id="c31143"/>
		<path d="M 198.14511549578648,20.319314146891546 L 204.34436854194126,21.08701560335835 L 209.7263178232189,17.789241756251847 L 216.695037644998,15.805641133927784 L 217.20235808378342,17.107871893150165 L 218.06417557567076,58.725043596447016 L 198.97235682186016,58.965836750268046 L 198.82982503034782,38.07555277355138 L 198.14511549578648,20.319314146891546 z" id="c31149"/>
		<path d="M 363.6546998028905,148.54380934288116 L 379.8527427734959,147.7367781657995 L 380.7442428651464,149.50118764365408 L 381.3080442961331,151.28683916164238 L 383.1077174731701,155.2288321927677 L 383.58142845512526,156.98965352962045 L 383.13197266044756,159.64089355207128 L 385.69320622598605,160.27748297640255 L 387.8287061040751,161.28704977844396 L 388.14531286093944,162.87519308714926 L 388.1646304346739,162.9720615635836 L 366.97370363216356,164.08551324650367 L 364.378758290517,164.1711495425769 L 363.6546998028905,148.54380934288116 z" id="c31127"/>
		<path d="M 91.5528257646866,62.49436762844629 L 94.14763544832589,62.57315387889489 L 94.37455271027842,57.33755546520963 L 120.23459680751024,58.099368941196964 L 119.91801192715411,79.017206173673 L 94.8101353904265,78.56787891630853 L 91.11342224770354,78.49265370550813 L 91.5528257646866,62.49436762844629 z" id="c31075"/>
		<path d="M 200.8414215839749,162.9035557707615 L 221.5170182777652,162.78755219824228 L 221.72767544903087,183.6716686025522 L 206.85981423653212,183.7900589233041 L 201.16738348900205,183.83366484171793 L 201.0325018520894,183.83459942928906 L 200.8414215839749,162.9035557707615 z" id="c31083"/>
		<path d="M 209.93748864039156,121.19344645323088 L 219.8438379620312,121.08328763934173 L 240.66306334449303,120.85893843242283 L 241.86717336961365,120.83928577060662 L 242.19999818997545,141.6720532208197 L 242.07325120757662,142.221038756932 L 233.8154369815485,144.55414301476304 L 221.34789157733027,144.22371901697204 L 212.16235523616135,144.0414582307248 L 210.48239804777631,143.69575519899107 L 210.05865758434703,141.96428566151252 L 209.93748864039156,121.19344645323088 z" id="c31019"/>
		<path d="M 64.25348180892487,61.97974249706713 L 91.5528257646866,62.49436762844629 L 91.11342224770354,78.49265370550813 L 94.8101353904265,78.56787891630853 L 94.37220524544243,99.3884355293791 L 91.18737973695983,99.2870461594915 L 90.92752071878986,109.68551498821094 L 65.83657200264588,109.0042873302908 L 66.19668579241542,98.6155457627564 L 65.04546697747872,95.94692488114131 L 65.6108337532715,77.73632036829545 L 64.33786262919747,77.67821834955994 L 64.25348180892487,61.97974249706713 z" id="c31069"/>
		<path d="M 302.61664744231865,98.50696999084597 L 306.2353097566544,98.14202429842796 L 307.81050582834166,99.07690463007482 L 311.2099076593269,99.41075071079253 L 323.3318509494517,94.2228017674626 L 323.34054493311095,94.40516442319719 L 324.09375797550416,118.7959600540013 L 323.9834208828969,118.7984067610975 L 303.2569704849283,119.43457629566122 L 302.61664744231865,98.50696999084597 z" id="c31023"/>
		<path d="M 120.23459680751024,58.099368941196964 L 146.13575822943363,58.68120417425664 L 146.0965177548704,79.519736492711 L 120.7910153555201,79.02305782216169 L 119.91801192715411,79.017206173673 L 120.23459680751024,58.099368941196964 z" id="c31091"/>
		<path d="M 197.87518411007824,58.96601030697889 L 198.97235682186016,58.965836750268046 L 218.06417557567076,58.725043596447016 L 218.5951769133964,58.725040402221 L 218.82268606619064,79.52352860631196 L 197.9558047082915,79.68314994300107 L 197.87518411007824,58.96601030697889 z" id="c31115"/>
		<path d="M 218.5951769133964,58.725040402221 L 239.1958701767828,58.44876117686042 L 239.58549321990446,79.30565168169655 L 219.26317678221122,79.53026446645913 L 218.82268606619064,79.52352860631196 L 218.5951769133964,58.725040402221 z" id="c31071"/>
		<path d="M 282.4845782709978,120.03395350774466 L 303.2569704849283,119.43457629566122 L 303.8792295002293,140.293723250783 L 283.0774662797706,140.8774026090765 L 283.0344538132136,140.87740600759014 L 282.4845782709978,120.03395350774466 z" id="c31185"/>
		<path d="M 31.029463680477317,34.89441822755752 L 60.81014348445179,35.8117557998505 L 61.84607644049207,36.41257869682852 L 61.52940539296164,56.67215315001079 L 63.34794142665028,61.97790150400689 L 57.52831273041076,62.030414658178806 L 33.618682867666934,61.05008956522982 L 31.909556335598865,60.94660963183554 L 32.113417937657125,55.73601836952646 L 30.220965217332175,55.65230141565187 L 31.029463680477317,34.89441822755752 z" id="c31013"/>
		<path d="M 123.24311311794754,162.50948856850007 L 148.26777740135117,162.8786536684685 L 149.13601888980838,162.88390882299714 L 148.93532878592785,183.6862173649016 L 135.04343021739624,183.5397647526041 L 124.27683861357238,183.37806491266474 L 122.82441920567007,183.3556802272088 L 123.24311311794754,162.50948856850007 z" id="c31087"/>
		<path d="M 122.55821673151395,141.67436042024403 L 126.99883560987688,141.75839998451792 L 148.4358414229777,141.86977212586817 L 148.26777740135117,162.8786536684685 L 123.24311311794754,162.50948856850007 L 122.35223311542829,162.50228276624875 L 122.55821673151395,141.67436042024403 z" id="c31085"/>
		<path d="M 280.02774270475857,36.71637464730493 L 295.51948230365355,36.243365246512 L 300.742120399306,36.07604850199942 L 300.8947354654167,41.28263503561569 L 301.34040649912345,56.913446066242045 L 280.5452633082327,57.56074959330246 L 280.02774270475857,36.71637464730493 z" id="c31139"/>
		<path d="M 5.61963815256309,0.0 L 29.71159431971726,1.0433039050857624 L 30.276802305552767,14.012710762262252 L 29.4523476022013,34.836445692626654 L 31.029463680477317,34.89441822755752 L 30.220965217332175,55.65230141565187 L 32.113417937657125,55.73601836952646 L 31.909556335598865,60.94660963183554 L 2.830446442016274,59.80150256531139 L 2.872918931295785,58.9276912390205 L 3.5261256901854634,44.94196545332163 L 4.2142798567340005,29.975093416146056 L 4.54796881029228,23.282476777451727 L 4.605121507118529,22.136055292356517 L 5.61963815256309,0.0 z" id="c31165"/>
		<path d="M 30.818132202831567,118.21280558373381 L 31.55730314841329,97.44462189436653 L 32.04523780302012,94.88411522664798 L 65.04546697747872,95.94692488114131 L 66.19668579241542,98.6155457627564 L 65.83657200264588,109.0042873302908 L 65.52963083966526,119.3821280704143 L 64.95798194602915,122.12775008219857 L 63.4867001873354,122.08273040275685 L 44.29510394898914,121.44488108849549 L 30.417445261223314,120.94585875696336 L 30.818132202831567,118.21280558373381 z" id="c31033"/>
		<path d="M 323.34054493311095,94.40516442319719 L 338.51850399347876,95.03242723376816 L 343.08721386951197,97.25484115364914 L 345.38080702076144,98.9038918307824 L 350.06485237021235,109.15121768122219 L 349.77646017628894,115.60956374891533 L 350.80572075467427,117.81478250010491 L 349.50884362180744,119.65598252468307 L 344.32036657976374,119.82029874724961 L 344.24892905322446,118.08350176141684 L 324.09375797550416,118.7959600540013 L 323.34054493311095,94.40516442319719 z" id="c31155"/>
		<path d="M 65.52963083966526,119.3821280704143 L 65.83657200264588,109.0042873302908 L 90.92752071878986,109.68551498821094 L 90.67988998762502,120.11258124124743 L 90.78876262671189,122.72605810279266 L 90.78858471179517,122.81672703087702 L 67.87254941687907,122.21530180520698 L 64.95798194602915,122.12775008219857 L 65.52963083966526,119.3821280704143 z" id="c31049"/>
		<path d="M 283.0774662797706,140.8774026090765 L 303.8792295002293,140.293723250783 L 304.50102183155764,161.14805597869886 L 283.7836063793653,161.71538625020133 L 283.63248271983537,161.71943297326303 L 283.0774662797706,140.8774026090765 z" id="c31059"/>
		<path d="M 325.2394632680934,160.50222334996437 L 325.3159802503978,159.32214892757392 L 325.024075239055,150.08445577852908 L 345.53866273328185,149.33493600749435 L 346.17610033788475,164.94985382244573 L 346.8140121428146,180.58802433014762 L 346.5270116191602,180.59931387234718 L 331.0626203728183,181.17685379680606 L 327.92899117656833,181.28655513706053 L 325.9674228127574,181.3567838289243 L 325.2394632680934,160.50222334996437 z" id="c31067"/>
		<path d="M 173.73157939437715,121.25913563142356 L 209.93748864039156,121.19344645323088 L 210.05865758434703,141.96428566151252 L 210.48239804777631,143.69575519899107 L 209.24416099110323,143.28050080915378 L 200.1629160182354,142.90787878852706 L 197.61457973744672,142.0154086159911 L 184.7346265723643,142.03713189282382 L 173.71989487542655,142.0090322223666 L 173.73157939437715,121.25913563142356 z" id="c31047"/>
		<path d="M 301.34040649912345,56.913446066242045 L 316.9118764132587,56.42856146427955 L 317.60502156253136,77.2450898380167 L 307.1766506717133,77.58434850665569 L 301.9894623792586,77.73846230213873 L 301.34040649912345,56.913446066242045 z" id="c31167"/>
		<path d="M 300.8947354654167,41.28263503561569 L 316.44299414532355,40.80843706860461 L 316.62520276455336,46.01267244080248 L 325.2846209713076,45.713753406843914 L 325.310421063617,45.71280486725209 L 325.6409641467312,56.12757127306361 L 316.9118764132587,56.42856146427955 L 301.34040649912345,56.913446066242045 L 300.8947354654167,41.28263503561569 z" id="c31179"/>
		<path d="M 90.78876262671189,122.72605810279266 L 127.172267425759,123.4172662846669 L 126.99883560987688,141.75839998451792 L 122.55821673151395,141.67436042024403 L 90.37453718816121,141.07481351022537 L 90.44860631602414,137.95764603253056 L 90.79328178403426,122.81683657339306 L 90.78858471179517,122.81672703087702 L 90.78876262671189,122.72605810279266 z" id="c31135"/>
		<path d="M 307.1766506717133,77.58434850665569 L 317.60502156253136,77.2450898380167 L 322.7175047050758,77.07843648508583 L 323.3318509494517,94.2228017674626 L 311.2099076593269,99.41075071079253 L 307.81050582834166,99.07690463007482 L 307.1766506717133,77.58434850665569 z" id="c31037"/>
		<path d="M 316.9118764132587,56.42856146427955 L 325.6409641467312,56.12757127306361 L 337.60214241413206,55.6965909191655 L 337.80775106444645,60.13110927335518 L 338.44772477924477,76.52798010960015 L 322.7175047050758,77.07843648508583 L 317.60502156253136,77.2450898380167 L 316.9118764132587,56.42856146427955 z" id="c31039"/>
		<path d="M 239.1958701767828,58.44876117686042 L 259.74962164846016,58.07939541979051 L 260.0020693916749,59.174708263848316 L 260.1777123377729,68.49329950734364 L 260.37587475441524,78.90381670564629 L 239.8954737021637,79.30178933101988 L 239.58549321990446,79.30565168169655 L 239.1958701767828,58.44876117686042 z" id="c31183"/>
		<path d="M 241.86717336961365,120.83928577060662 L 261.5860253201739,120.51681998124177 L 261.82599592417034,121.69649805705575 L 262.00562030390483,131.155972592505 L 262.1959436167688,141.3626874249485 L 242.19999818997545,141.6720532208197 L 241.86717336961365,120.83928577060662 z" id="c31079"/>
		<path d="M 304.50102183155764,161.14805597869886 L 325.2394632680934,160.50222334996437 L 325.9674228127574,181.3567838289243 L 321.6956504701307,181.50637519772465 L 305.1127957863339,182.0171290789535 L 304.50102183155764,161.14805597869886 z" id="c31095"/>
		<path d="M 175.14737563086456,13.430475186663948 L 178.89912850629193,16.219779439093326 L 198.14511549578648,20.319314146891546 L 198.82982503034782,38.07555277355138 L 198.97235682186016,58.965836750268046 L 197.87518411007824,58.96601030697889 L 176.42084034151262,58.997657549372285 L 175.77033493946,38.16662629310514 L 175.80992190156738,17.334092664700734 L 175.14737563086456,13.430475186663948 z" id="c31017"/>
		<path d="M 303.2569704849283,119.43457629566122 L 323.9834208828969,118.7984067610975 L 324.68899949411554,138.6772732903097 L 324.6121981688803,139.64844725837514 L 303.8792295002293,140.293723250783 L 303.2569704849283,119.43457629566122 z" id="c31159"/>
		<path d="M 346.17610033788475,164.94985382244573 L 364.378758290517,164.1711495425769 L 366.97370363216356,164.08551324650367 L 367.6713523472326,179.69493598274653 L 367.0539593149109,179.72253584190088 L 361.05741423814703,180.00739795943042 L 357.15262725582573,180.16752141836741 L 357.15097537239205,180.16759075385437 L 346.8140121428146,180.58802433014762 L 346.17610033788475,164.94985382244573 z" id="c31133"/>
		<path d="M 242.07325120757662,142.221038756932 L 242.19999818997545,141.6720532208197 L 262.1959436167688,141.3626874249485 L 262.4123927732204,141.3579625607601 L 262.8281331520886,162.20009843311715 L 242.39335948790483,162.5517868174657 L 242.07325120757662,142.221038756932 z" id="c31001"/>
		<path d="M 120.7910153555201,79.02305782216169 L 146.0965177548704,79.519736492711 L 151.96341839935897,79.61099760503022 L 151.7235305969541,100.35527330556809 L 126.62133470745611,99.98213791790998 L 120.41623953340279,99.85718661323801 L 120.7910153555201,79.02305782216169 z" id="c31117"/>
		<path d="M 90.92752071878986,109.68551498821094 L 91.18737973695983,99.2870461594915 L 94.37220524544243,99.3884355293791 L 120.41623953340279,99.85718661323801 L 126.62133470745611,99.98213791790998 L 126.28445181365782,120.80138360021137 L 127.172267425759,123.4172662846669 L 90.78876262671189,122.72605810279266 L 90.67988998762502,120.11258124124743 L 90.92752071878986,109.68551498821094 z" id="c31101"/>
		<path d="M 240.55096954321766,100.0366680505327 L 260.9818097519329,99.70341330156467 L 261.1998990683293,99.69885708932155 L 261.5860253201739,120.51681998124177 L 241.86717336961365,120.83928577060662 L 240.66306334449303,120.85893843242283 L 240.55096954321766,100.0366680505327 z" id="c31093"/>
		<path d="M 172.6281316086061,79.72272043293269 L 197.9558047082915,79.68314994300107 L 218.82268606619064,79.52352860631196 L 219.26317678221122,79.53026446645913 L 219.4273834891951,99.41748810387644 L 219.84734535320442,100.28469460355154 L 219.8438379620312,121.08328763934173 L 209.93748864039156,121.19344645323088 L 173.73157939437715,121.25913563142356 L 173.10451642854096,120.35411294369634 L 172.5734888210613,100.48431431535305 L 172.6281316086061,79.72272043293269 z" id="c31041"/>
		<path d="M 281.248118111312,78.37262328144136 L 301.9894623792586,77.73846230213873 L 307.1766506717133,77.58434850665569 L 307.81050582834166,99.07690463007482 L 306.2353097566544,98.14202429842796 L 302.61664744231865,98.50696999084597 L 295.72105928231355,100.77760373281541 L 292.3470369957027,102.59990984371818 L 292.2345662133169,98.89005917071492 L 287.4857955287998,99.03061212958552 L 287.2821152486454,91.12941374599465 L 281.6020509310911,91.31344429020818 L 281.248118111312,78.37262328144136 z" id="c31141"/>
		<path d="M 316.44299414532355,40.80843706860461 L 315.70077625868174,16.535088358236372 L 317.9732019085154,18.37484519675471 L 320.5539242908389,17.727476529141004 L 325.0177193179647,19.551734221070433 L 325.2745916736837,19.656498297089918 L 326.39142880607267,21.761173662951027 L 329.96065287561123,21.857370003274898 L 329.57148370341866,25.194572112513256 L 331.8943344089153,27.34432199069508 L 333.3501468716836,29.646785882356973 L 329.1790360016984,29.95386864750858 L 329.53873308651924,44.58798442306544 L 329.54229210763833,44.73249897515205 L 329.0792364531967,45.58365700913012 L 325.310421063617,45.71280486725209 L 325.2846209713076,45.713753406843914 L 316.62520276455336,46.01267244080248 L 316.44299414532355,40.80843706860461 z" id="c31051"/>
		<path d="M 219.84734535320442,100.28469460355154 L 240.22498665657199,100.0470215535788 L 240.55096954321766,100.0366680505327 L 240.66306334449303,120.85893843242283 L 219.8438379620312,121.08328763934173 L 219.84734535320442,100.28469460355154 z" id="c31163"/>
		<path d="M 171.95648616918407,58.968503750397446 L 176.42084034151262,58.997657549372285 L 197.87518411007824,58.96601030697889 L 197.9558047082915,79.68314994300107 L 172.6281316086061,79.72272043293269 L 171.98865196061098,79.71847280230772 L 171.95648616918407,58.968503750397446 z" id="c31009"/>
		<path d="M 263.0352255098104,162.19524890248607 L 283.63248271983537,161.71943297326303 L 283.7836063793653,161.71538625020133 L 284.2780913151537,182.58190913132196 L 279.19575235908803,182.70378690461416 L 272.5522020097831,182.8533189659905 L 263.43103004084503,183.04369358583563 L 263.0352255098104,162.19524890248607 z" id="c31129"/>
		<path d="M 149.13601888980838,162.88390882299714 L 174.8347867195539,162.9948703931778 L 174.98134327272757,183.87336056276553 L 161.92085337349408,183.81198346355833 L 149.85712825822884,183.6965409076541 L 148.93532878592785,183.6862173649016 L 149.13601888980838,162.88390882299714 z" id="c31145"/>
		<path d="M 1.9747412833375753,77.98261440680866 L 32.594398221266324,79.22257203540627 L 32.04523780302012,94.88411522664798 L 31.55730314841329,97.44462189436653 L 1.143425721002751,96.22208647894122 L 1.1436928237242099,96.21652097296301 L 1.608000136148035,85.98362645564221 L 1.7421765218113132,83.02684601016013 L 1.9747412833375753,77.98261440680866 z" id="c31007"/>
		<path d="M 61.06250889732389,2.2288789504192494 L 77.92801592625888,2.760893469723898 L 92.27155483359653,3.162630452905566 L 91.85660756475194,15.962787671538507 L 92.18033868697758,36.12102845876807 L 92.85475237663356,57.27764803312591 L 94.37455271027842,57.33755546520963 L 94.14763544832589,62.57315387889489 L 91.5528257646866,62.49436762844629 L 64.25348180892487,61.97974249706713 L 63.34794142665028,61.97790150400689 L 61.52940539296164,56.67215315001079 L 61.84607644049207,36.41257869682852 L 60.81014348445179,35.8117557998505 L 61.47386299382199,15.123551532173659 L 60.62242194057184,15.102132376773724 L 61.06250889732389,2.2288789504192494 z" id="c31161"/>
		<path d="M 242.26139632901047,162.55331297738329 L 242.39335948790483,162.5517868174657 L 262.8281331520886,162.20009843311715 L 263.0352255098104,162.19524890248607 L 263.43103004084503,183.04369358583563 L 252.8141380442676,183.23897178976793 L 247.7782226647533,183.3217008951208 L 242.58940640784695,183.40534234117783 L 242.26139632901047,162.55331297738329 z" id="c31181"/>
		<path d="M 219.26317678221122,79.53026446645913 L 239.58549321990446,79.30565168169655 L 239.8954737021637,79.30178933101988 L 240.22498665657199,100.0470215535788 L 219.84734535320442,100.28469460355154 L 219.4273834891951,99.41748810387644 L 219.26317678221122,79.53026446645913 z" id="c31175"/>
		<path d="M 260.1777123377729,68.49329950734364 L 280.86140910874076,67.95034100035721 L 281.248118111312,78.37262328144136 L 281.6020509310911,91.31344429020818 L 272.10411812873497,92.47760065134716 L 269.5231246320646,94.31851978852228 L 260.88238448462084,94.50189233062343 L 260.60925226944164,79.8109048231281 L 260.37587475441524,78.90381670564629 L 260.1777123377729,68.49329950734364 z" id="c31011"/>
		<path d="M 324.6121981688803,139.64844725837514 L 324.68899949411554,138.6772732903097 L 323.9834208828969,118.7984067610975 L 324.09375797550416,118.7959600540013 L 344.24892905322446,118.08350176141684 L 344.32036657976374,119.82029874724961 L 344.89337212637514,133.7144230481123 L 345.53866273328185,149.33493600749435 L 325.024075239055,150.08445577852908 L 324.6121981688803,139.64844725837514 z" id="c31109"/>
		<path d="M 151.96341839935897,79.61099760503022 L 171.98865196061098,79.71847280230772 L 172.6281316086061,79.72272043293269 L 172.5734888210613,100.48431431535305 L 151.7235305969541,100.35527330556809 L 151.96341839935897,79.61099760503022 z" id="c31113"/>
		<path d="M 337.80775106444645,60.13110927335518 L 348.75791514999156,59.72025105421263 L 350.31663713892436,57.73101220657435 L 352.579282444889,59.10740296560601 L 356.7732237339904,61.80255367515486 L 355.75858265923745,65.72060811805346 L 357.3197699301034,68.2877051088543 L 358.2353369417225,69.79140547246098 L 360.30585839785584,72.5368753363561 L 359.46474632800516,76.82291932350591 L 358.6758794590316,79.59778709376036 L 357.4772918774861,79.27848172002284 L 343.5410851025016,79.82278389001505 L 343.42334243427075,76.34100199404749 L 338.44772477924477,76.52798010960015 L 337.80775106444645,60.13110927335518 z" id="c31021"/>
		<path d="M 322.7175047050758,77.07843648508583 L 338.44772477924477,76.52798010960015 L 343.42334243427075,76.34100199404749 L 343.5410851025016,79.82278389001505 L 344.4556388968622,91.10098240714906 L 349.4753225674862,96.99486270621516 L 343.08721386951197,97.25484115364914 L 338.51850399347876,95.03242723376816 L 323.34054493311095,94.40516442319719 L 323.3318509494517,94.2228017674626 L 322.7175047050758,77.07843648508583 z" id="c31053"/>
		<path d="M 216.695037644998,15.805641133927784 L 228.74598902250432,10.159351869026509 L 232.73723291899148,13.146421214198211 L 243.1808379436356,15.202841413868056 L 246.43437171026983,16.9065680682224 L 258.7563978930277,17.795693571793667 L 259.1074421175913,36.35991971808561 L 259.35550671695484,37.2247713615183 L 259.74962164846016,58.07939541979051 L 239.1958701767828,58.44876117686042 L 218.5951769133964,58.725040402221 L 218.06417557567076,58.725043596447016 L 217.20235808378342,17.107871893150165 L 216.695037644998,15.805641133927784 z" id="c31089"/>
		<path d="M 239.8954737021637,79.30178933101988 L 260.37587475441524,78.90381670564629 L 260.60925226944164,79.8109048231281 L 260.88238448462084,94.50189233062343 L 260.9818097519329,99.70341330156467 L 240.55096954321766,100.0366680505327 L 240.22498665657199,100.0470215535788 L 239.8954737021637,79.30178933101988 z" id="c31077"/>
		<path d="M 344.89337212637514,133.7144230481123 L 373.53300528742454,132.44845650953937 L 373.53921698831107,132.49424558969588 L 371.19135535044245,135.40923038319573 L 373.2878463133947,138.52909646800626 L 376.2948059150753,140.14285017097342 L 377.9586652496863,143.05550724876798 L 377.23567156550797,144.17955297036457 L 377.7990932842432,147.7040719491603 L 379.75067913988863,147.53467540440397 L 379.8527427734959,147.7367781657995 L 363.6546998028905,148.54380934288116 L 345.53866273328185,149.33493600749435 L 344.89337212637514,133.7144230481123 z" id="c31131"/>
		<path d="M 262.00562030390483,131.155972592505 L 274.0934127536476,118.66708663574252 L 280.2050411208392,115.50199247762332 L 282.2044088041536,112.43834464024292 L 282.4845782709978,120.03395350774466 L 283.0344538132136,140.87740600759014 L 262.4123927732204,141.3579625607601 L 262.1959436167688,141.3626874249485 L 262.00562030390483,131.155972592505 z" id="c31081"/>
		<path d="M 221.34789157733027,144.22371901697204 L 233.8154369815485,144.55414301476304 L 242.07325120757662,142.221038756932 L 242.39335948790483,162.5517868174657 L 242.26139632901047,162.55331297738329 L 221.5170182777652,162.78755219824228 L 221.34789157733027,144.22371901697204 z" id="c31099"/>
		<path d="M 29.71159431971726,1.0433039050857624 L 30.98516310324974,1.094198842585331 L 51.893578102987014,1.9082252797044459 L 61.06250889732389,2.2288789504192494 L 60.62242194057184,15.102132376773724 L 61.47386299382199,15.123551532173659 L 60.81014348445179,35.8117557998505 L 31.029463680477317,34.89441822755752 L 29.4523476022013,34.836445692626654 L 30.276802305552767,14.012710762262252 L 29.71159431971726,1.0433039050857624 z" id="c31045"/>
		<path d="M 261.1998990683293,99.69885708932155 L 261.85883866357005,107.44938913459183 L 269.71710643367084,107.30269215320581 L 271.86571982414694,105.5121039049473 L 287.5439978434979,104.16792021913226 L 287.4857955287998,99.03061212958552 L 292.2345662133169,98.89005917071492 L 292.3470369957027,102.59990984371818 L 292.1032084326023,103.76151628617508 L 289.67081287656094,104.3669241378252 L 282.2044088041536,112.43834464024292 L 280.2050411208392,115.50199247762332 L 274.0934127536476,118.66708663574252 L 262.00562030390483,131.155972592505 L 261.82599592417034,121.69649805705575 L 261.5860253201739,120.51681998124177 L 261.1998990683293,99.69885708932155 z" id="c31121"/>
		<path d="M 92.27155483359653,3.162630452905566 L 92.27426998177287,3.1627013743305517 L 129.86596955445071,3.9587415498457212 L 139.8796179534335,4.108107305271419 L 175.17110140943586,4.325997820678747 L 175.14737563086456,13.430475186663948 L 175.80992190156738,17.334092664700734 L 175.77033493946,38.16662629310514 L 176.42084034151262,58.997657549372285 L 171.95648616918407,58.968503750397446 L 146.13575822943363,58.68120417425664 L 120.23459680751024,58.099368941196964 L 94.37455271027842,57.33755546520963 L 92.85475237663356,57.27764803312591 L 92.18033868697758,36.12102845876807 L 91.85660756475194,15.962787671538507 L 92.27155483359653,3.162630452905566 z" id="c31031"/>
		<path d="M 325.310421063617,45.71280486725209 L 329.0792364531967,45.58365700913012 L 329.54229210763833,44.73249897515205 L 344.94853854443886,44.21722873688235 L 346.1972354796669,43.89218021252582 L 346.9474331760652,44.82545793913498 L 347.0496848082288,47.57327579502955 L 347.0202740937427,47.81879108199216 L 346.6729309038196,50.71510946349872 L 350.3225669962184,53.75103034057238 L 350.31663713892436,57.73101220657435 L 348.75791514999156,59.72025105421263 L 337.80775106444645,60.13110927335518 L 337.60214241413206,55.6965909191655 L 325.6409641467312,56.12757127306361 L 325.310421063617,45.71280486725209 z" id="c31173"/>
		<path d="M 260.88238448462084,94.50189233062343 L 269.5231246320646,94.31851978852228 L 272.10411812873497,92.47760065134716 L 281.6020509310911,91.31344429020818 L 287.2821152486454,91.12941374599465 L 287.4857955287998,99.03061212958552 L 287.5439978434979,104.16792021913226 L 271.86571982414694,105.5121039049473 L 269.71710643367084,107.30269215320581 L 261.85883866357005,107.44938913459183 L 261.1998990683293,99.69885708932155 L 260.9818097519329,99.70341330156467 L 260.88238448462084,94.50189233062343 z" id="c31125"/>
		<path d="M 200.1629160182354,142.90787878852706 L 209.24416099110323,143.28050080915378 L 210.48239804777631,143.69575519899107 L 212.16235523616135,144.0414582307248 L 221.34789157733027,144.22371901697204 L 221.5170182777652,162.78755219824228 L 200.8414215839749,162.9035557707615 L 200.3028007581375,162.90102817966505 L 200.1629160182354,142.90787878852706 z" id="c31137"/>
		<path d="M 126.62133470745611,99.98213791790998 L 151.7235305969541,100.35527330556809 L 172.5734888210613,100.48431431535305 L 173.10451642854096,120.35411294369634 L 173.73157939437715,121.25913563142356 L 173.71989487542655,142.0090322223666 L 148.4358414229777,141.86977212586817 L 126.99883560987688,141.75839998451792 L 127.172267425759,123.4172662846669 L 126.28445181365782,120.80138360021137 L 126.62133470745611,99.98213791790998 z" id="c31111"/>
		<path d="M 175.17110140943586,4.325997820678747 L 175.1711536957399,4.325997900977028 L 190.50116080354536,4.31865597600952 L 204.4055919450424,4.26754199181915 L 216.70884282496587,4.179936447604198 L 216.695037644998,15.805641133927784 L 209.7263178232189,17.789241756251847 L 204.34436854194126,21.08701560335835 L 198.14511549578648,20.319314146891546 L 178.89912850629193,16.219779439093326 L 175.14737563086456,13.430475186663948 L 175.17110140943586,4.325997820678747 z" id="c31103"/>
		<path d="M 90.00800114711113,156.50022972288605 L 90.37453718816121,141.07481351022537 L 122.55821673151395,141.67436042024403 L 122.35223311542829,162.50228276624875 L 89.87878737956653,161.9380639417896 L 90.00800114711113,156.50022972288605 z" id="c31029"/>
		<path d="M 0.3222523034343073,112.9028712101854 L 0.813091445025248,103.10484465288654 L 1.143425721002751,96.22208647894122 L 31.55730314841329,97.44462189436653 L 30.818132202831567,118.21280558373381 L 30.417445261223314,120.94585875696336 L 21.74207889979538,120.60892227818856 L 21.708156022189097,120.6075670402376 L 0.0,119.6682384978105 L 0.3222523034343073,112.9028712101854 z" id="c31105"/>
		<path d="M 258.4753039414036,10.28985296670298 L 259.73098007817,10.95417904843064 L 261.86758231404895,11.74184704568665 L 265.3910425508203,12.86652176001445 L 265.5921456653225,12.93059394694874 L 267.54591323175816,14.779202945720336 L 270.68021208127124,17.363540770863263 L 274.42066315795654,16.952065470180557 L 276.37137295041924,15.151294619480034 L 277.53284988147635,11.897550313288406 L 278.3490466444116,11.132069277925297 L 280.85550083806766,11.494282644287585 L 285.30063233241987,12.230501823003339 L 288.1796106270723,11.672381209645852 L 289.7674844723662,11.36355817662651 L 293.4445614954201,11.408198516593849 L 294.8191329866822,11.593262180792472 L 295.51948230365355,36.243365246512 L 280.02774270475857,36.71637464730493 L 259.35550671695484,37.2247713615183 L 259.1074421175913,36.35991971808561 L 258.7563978930277,17.795693571793667 L 258.50419855544004,16.397055919168093 L 258.4753039414036,10.28985296670298 z" id="c31107"/>
		<path d="M 366.97370363216356,164.08551324650367 L 388.1646304346739,162.9720615635836 L 388.20865696548714,163.1928203738344 L 391.7010144859092,164.3904785576346 L 391.46138015067817,167.2561672403771 L 393.8535303221478,169.9802489826737 L 395.7006592587675,171.8479296839723 L 394.88012148960644,174.19825254303126 L 396.47745389780306,176.67577843458596 L 398.0425974959372,176.46069688335174 L 400.0,178.11295689495304 L 398.5455598459639,178.1898420607874 L 378.0795603879018,179.21520216046764 L 377.9167978427611,179.2229141468952 L 367.6713523472326,179.69493598274653 L 366.97370363216356,164.08551324650367 z" id="c31147"/>
		<path d="M 280.5452633082327,57.56074959330246 L 301.34040649912345,56.913446066242045 L 301.9894623792586,77.73846230213873 L 281.248118111312,78.37262328144136 L 280.86140910874076,67.95034100035721 L 280.5452633082327,57.56074959330246 z" id="c31119"/>
		<path d="M 32.594398221266324,79.22257203540627 L 33.04638397678743,76.58157142801664 L 33.618682867666934,61.05008956522982 L 57.52831273041076,62.030414658178806 L 63.34794142665028,61.97790150400689 L 64.25348180892487,61.97974249706713 L 64.33786262919747,77.67821834955994 L 65.6108337532715,77.73632036829545 L 65.04546697747872,95.94692488114131 L 32.04523780302012,94.88411522664798 L 32.594398221266324,79.22257203540627 z" id="c31123"/>
		<path d="M 216.70884282496587,4.179936447604198 L 234.59378931155217,3.9816202945980517 L 249.9685475006222,3.7273850150621612 L 250.8691916722754,5.811456027676514 L 252.8616803324436,7.833160003883669 L 254.9904785088021,8.442759203525602 L 258.4753039414036,10.28985296670298 L 258.50419855544004,16.397055919168093 L 258.7563978930277,17.795693571793667 L 246.43437171026983,16.9065680682224 L 243.1808379436356,15.202841413868056 L 232.73723291899148,13.146421214198211 L 228.74598902250432,10.159351869026509 L 216.695037644998,15.805641133927784 L 216.70884282496587,4.179936447604198 z" id="c31015"/>
		<path d="M 259.35550671695484,37.2247713615183 L 280.02774270475857,36.71637464730493 L 280.5452633082327,57.56074959330246 L 280.86140910874076,67.95034100035721 L 260.1777123377729,68.49329950734364 L 260.0020693916749,59.174708263848316 L 259.74962164846016,58.07939541979051 L 259.35550671695484,37.2247713615183 z" id="c31003"/>
		<path d="M 148.4358414229777,141.86977212586817 L 173.71989487542655,142.0090322223666 L 184.7346265723643,142.03713189282382 L 184.76311570304324,157.71692041240374 L 179.54889157960017,157.69275161512334 L 179.55674539905107,162.92988517181573 L 174.8347867195539,162.9948703931778 L 149.13601888980838,162.88390882299714 L 148.26777740135117,162.8786536684685 L 148.4358414229777,141.86977212586817 z" id="c31063"/>
		<path d="M 174.8347867195539,162.9948703931778 L 179.55674539905107,162.92988517181573 L 200.3028007581375,162.90102817966505 L 200.8414215839749,162.9035557707615 L 201.0325018520894,183.83459942928906 L 192.50085085008087,183.88443482328623 L 175.70907320254304,183.87535415577722 L 174.98134327272757,183.87336056276553 L 174.8347867195539,162.9948703931778 z" id="c31065"/>
		<path d="M 179.54889157960017,157.69275161512334 L 184.76311570304324,157.71692041240374 L 184.7346265723643,142.03713189282382 L 197.61457973744672,142.0154086159911 L 200.1629160182354,142.90787878852706 L 200.3028007581375,162.90102817966505 L 179.55674539905107,162.92988517181573 L 179.54889157960017,157.69275161512334 z" id="c31073"/>
		<path d="M 94.8101353904265,78.56787891630853 L 119.91801192715411,79.017206173673 L 120.7910153555201,79.02305782216169 L 120.41623953340279,99.85718661323801 L 94.37220524544243,99.3884355293791 L 94.8101353904265,78.56787891630853 z" id="c31005"/>
		<path d="M 2.492230786280335,66.75931286117367 L 2.830446442016274,59.80150256531139 L 31.909556335598865,60.94660963183554 L 33.618682867666934,61.05008956522982 L 33.04638397678743,76.58157142801664 L 32.594398221266324,79.22257203540627 L 1.9747412833375753,77.98261440680866 L 2.492230786280335,66.75931286117367 z" id="c31157"/>
		<path d="M 89.86335847825217,162.58737274445028 L 89.87878737956653,161.9380639417896 L 122.35223311542829,162.50228276624875 L 123.24311311794754,162.50948856850007 L 122.82441920567007,183.3556802272088 L 118.8843713332385,183.29228875294595 L 112.83751525616621,183.1874187015728 L 99.4823479251482,182.90734530505665 L 89.366706018797,182.67140827214925 L 89.86335847825217,162.58737274445028 z" id="c31057"/>
		<path d="M 343.5410851025016,79.82278389001505 L 357.4772918774861,79.27848172002284 L 358.6758794590316,79.59778709376036 L 358.5382380098499,80.08145993737924 L 358.38909060867627,83.39004244705366 L 359.7116634971335,86.473698314498 L 360.31015603453346,88.41901905403198 L 363.65823426151377,87.31772867254608 L 364.25846621893686,89.51594268514035 L 364.85925114701604,91.714009775597 L 367.61917414815457,92.42515113912992 L 367.5883095878179,96.37197454128665 L 366.3311078294682,96.2446784680336 L 349.4753225674862,96.99486270621516 L 344.4556388968622,91.10098240714906 L 343.5410851025016,79.82278389001505 z" id="c31177"/>
		<path d="M 303.8792295002293,140.293723250783 L 324.6121981688803,139.64844725837514 L 325.024075239055,150.08445577852908 L 325.3159802503978,159.32214892757392 L 325.2394632680934,160.50222334996437 L 304.50102183155764,161.14805597869886 L 303.8792295002293,140.293723250783 z" id="c31151"/>
		<path d="M 350.06485237021235,109.15121768122219 L 364.45263528548907,108.47111179036933 L 368.93672926823564,108.22644542464313 L 368.966113499014,108.6379999295357 L 371.35006735294974,108.36245569757217 L 371.1958609649818,109.97706280059903 L 370.990666886762,112.1224377900028 L 371.3281035376118,114.57692794546 L 371.3731067266017,116.413848751917 L 366.20753801410433,116.6267094176234 L 364.99084271829133,116.247609106665 L 362.6647041748248,116.0706768740874 L 355.4814829812586,120.65261500075418 L 350.80572075467427,117.81478250010491 L 349.77646017628894,115.60956374891533 L 350.06485237021235,109.15121768122219 z" id="c31153"/>
		<path d="M 344.32036657976374,119.82029874724961 L 349.50884362180744,119.65598252468307 L 350.80572075467427,117.81478250010491 L 355.4814829812586,120.65261500075418 L 362.6647041748248,116.0706768740874 L 364.99084271829133,116.247609106665 L 366.20753801410433,116.6267094176234 L 371.3731067266017,116.413848751917 L 371.4250770363753,118.53719760139118 L 373.25708137548673,121.14974966324037 L 372.96612349861374,124.02282973272747 L 373.9081397989111,125.58266795485247 L 374.3049176281219,126.23926072833093 L 373.03355634176944,128.7645300175617 L 373.53300528742454,132.44845650953937 L 344.89337212637514,133.7144230481123 L 344.32036657976374,119.82029874724961 z" id="c31025"/>
		<path d="M 345.53866273328185,149.33493600749435 L 363.6546998028905,148.54380934288116 L 364.378758290517,164.1711495425769 L 346.17610033788475,164.94985382244573 L 345.53866273328185,149.33493600749435 z" id="c31097"/>
		<path d="M 146.13575822943363,58.68120417425664 L 171.95648616918407,58.968503750397446 L 171.98865196061098,79.71847280230772 L 151.96341839935897,79.61099760503022 L 146.0965177548704,79.519736492711 L 146.13575822943363,58.68120417425664 z" id="c31171"/>
		<path d="M 343.08721386951197,97.25484115364914 L 349.4753225674862,96.99486270621516 L 366.3311078294682,96.2446784680336 L 367.5883095878179,96.37197454128665 L 367.5788891721408,97.56552737623498 L 367.8538311484418,100.42551378081001 L 369.58208582080385,102.976098383158 L 368.7374058090661,105.4339527696476 L 368.93672926823564,108.22644542464313 L 364.45263528548907,108.47111179036933 L 350.06485237021235,109.15121768122219 L 345.38080702076144,98.9038918307824 L 343.08721386951197,97.25484115364914 z" id="c31055"/>
		<path d="M 329.53873308651924,44.58798442306544 L 329.1790360016984,29.95386864750858 L 333.3501468716836,29.646785882356973 L 334.12845189792455,30.876407851351562 L 337.944540888755,30.476179580429047 L 339.0666057955827,32.079516976541655 L 341.5210839737,31.506617758112693 L 344.4389027298936,33.12122019845493 L 343.212879363469,36.219531912461626 L 343.56485773868764,40.61273556778487 L 346.1972354796669,43.89218021252582 L 344.94853854443886,44.21722873688235 L 329.54229210763833,44.73249897515205 L 329.53873308651924,44.58798442306544 z" id="c31043"/>
		<path d="M 294.8191329866822,11.593262180792472 L 296.26955560963796,11.787978557508161 L 297.7820300195729,10.551455313324812 L 301.14520838067057,11.051360238574894 L 302.8507798202647,10.412081433153586 L 305.7046204518463,11.072885619716896 L 306.8223923505747,13.015951067276587 L 309.0345621179321,14.654882598210145 L 310.56240805934016,15.785236800873784 L 315.2816269918384,16.19540154771466 L 315.70077625868174,16.535088358236372 L 316.44299414532355,40.80843706860461 L 300.8947354654167,41.28263503561569 L 300.742120399306,36.07604850199942 L 295.51948230365355,36.243365246512 L 294.8191329866822,11.593262180792472 z" id="c31027"/>
	</g>
</svg>