<?xml version="1.0" encoding="UTF-8"?>
<svg baseProfile="full" fill="#d0d0d0" height="400.0" stroke="#ffffff" stroke-width="1" version="1.1" width="265.3735756220135" xmlns="http://www.w3.org/2000/svg" xmlns:ev="http://www.w3.org/2001/xml-events" xmlns:xlink="http://www.w3.org/1999/xlink">
	<defs/>
	<g id="counties"><path d="M 150.6657786890985,152.743849187936 L 150.80009094361543,113.29789615284568 L 151.21061698543252,99.27640163267088 L 151.5060828508342,63.852511663103094 L 151.93914400347188,62.82123853968427 L 151.97129703940033,60.80620385397397 L 170.34111445438947,60.99969934833216 L 170.23117430287883,79.8664391395078 L 176.84686525554775,110.39292979546873 L 184.05109996617543,110.39368744107688 L 184.01899644410682,116.64188322641623 L 185.75547112795056,125.93716852857335 L 184.06915258134194,132.928544615435 L 184.9064626473236,140.61628209922645 L 182.15221753016797,147.83620498373543 L 180.72369107940165,165.01618393091704 L 150.17490946450334,164.81212302314904 L 150.6657786890985,152.743849187936 z" id="c32011"/>
		<path d="M 15.967684328558049,151.4064106736298 L 14.822555603114987,140.6678718759649 L 18.041644314569073,141.29126488443336 L 21.714537513770562,138.50075013835246 L 29.225600257101974,137.51093677653657 L 33.11363457306452,135.7076355707474 L 23.877893664452614,151.4228431322587 L 16.292232176243648,155.1048903131193 L 13.379819091228384,155.86286066041137 L 15.967684328558049,151.4064106736298 z" id="c32029"/>
		<path d="M 182.15221753016797,147.83620498373543 L 184.9064626473236,140.61628209922645 L 184.06915258134194,132.928544615435 L 185.75547112795056,125.93716852857335 L 184.01899644410682,116.64188322641623 L 184.05109996617543,110.39368744107688 L 208.85370024201768,110.68392066233004 L 252.8050847886696,110.606839323022 L 261.7185544499987,110.4491216454643 L 261.73659762911035,111.52609532429797 L 261.88528232076106,122.37537471684763 L 261.97161154091987,128.70713416216964 L 262.24128831337475,142.92672734486013 L 262.28708713676855,145.3473842375113 L 262.6722554483259,173.31208453872435 L 262.83940510588525,180.48314823654852 L 262.9692326157178,191.8697542488328 L 220.7956455215807,192.35887369565188 L 180.72369107940165,165.01618393091704 L 182.15221753016797,147.83620498373543 z" id="c32033"/>
		<path d="M 181.09293936924786,227.85850216711026 L 221.0191981111844,227.78731739644053 L 220.7956455215807,192.35887369565188 L 262.9692326157178,191.8697542488328 L 263.0360795372356,197.77341467669726 L 263.03611480986,197.77653724293899 L 263.1962422503906,207.29846918113816 L 263.34053007050596,216.0393859397615 L 263.4457224994348,221.76154362178184 L 263.44589077477417,221.77070530615845 L 263.70599486763786,236.8811647580851 L 263.7387012140213,244.53697132975196 L 263.8357216441174,252.52240181911296 L 263.9292450632539,258.8982037849883 L 264.1524442630451,270.6297253878897 L 264.34175905311434,281.71524668500103 L 264.4740338671491,286.69173753639376 L 264.6368955400484,295.5818093539866 L 232.26513684955844,295.3965197836724 L 186.81438603291085,296.2026383385758 L 180.72841886139915,296.1770949654594 L 181.09293936924786,227.85850216711026 z" id="c32017"/>
		<path d="M 180.72841886139915,296.1770949654594 L 186.81438603291085,296.2026383385758 L 232.26513684955844,295.3965197836724 L 264.6368955400484,295.5818093539866 L 264.8836511936501,309.0974533878165 L 265.22151625462254,324.83917106418374 L 265.24299717311277,328.0448077750166 L 265.3735756220135,332.27245249655084 L 263.0062000529715,336.403748180499 L 261.30571059706534,340.301945087191 L 260.70879916605304,341.92766186851725 L 257.8706109886938,342.47448396196774 L 255.23976470099325,341.37393232683377 L 253.1323244769874,339.8534085705787 L 252.12848675717765,337.3273311491857 L 250.5060258954127,335.36381162292315 L 248.4482319759434,335.2393524549705 L 247.00750525529102,336.3503922824514 L 245.24560451259137,336.2018128663379 L 244.10013213645615,334.9957626880002 L 241.33498635569794,334.9884447533287 L 238.78180332863005,335.6134041904394 L 237.0208945177758,336.9683643082481 L 233.83409479598265,337.7307903310738 L 233.52140903761625,339.6459443505636 L 233.52561537315282,339.9059241531846 L 233.57679776046564,343.06942689601425 L 234.14305091012156,346.79792551386316 L 235.58426664712098,349.1673695787228 L 237.01010216057634,351.2281093448533 L 235.47044009252636,354.0967284481151 L 235.80646115197186,358.66653685504014 L 236.2129457696079,363.3133561706993 L 237.89541956592035,365.59394315570285 L 237.49333760306834,370.4756240052406 L 237.46834540250282,374.71475107265263 L 239.2181405626359,376.9586707181189 L 241.15293962846533,385.25566358876875 L 241.89066379251463,392.2371951790761 L 240.6761871351789,393.2483715916193 L 239.71073087462682,393.2249179456506 L 239.49983409250873,396.23122159403783 L 239.14453477188525,400.0 L 231.1429948061617,392.27933004659366 L 219.9628203615614,381.48398968268015 L 214.5564368104467,376.30413130211247 L 207.89180898771127,369.8805308919286 L 203.22755895977357,365.40403956067837 L 192.01382230693036,354.5730794148997 L 191.99776421518246,354.55774020178274 L 182.90184763164027,345.8427752511282 L 182.94028066023301,336.88446310758377 L 180.65883770215254,334.0414568439242 L 180.72841886139915,296.1770949654594 z" id="c32003"/>
		<path d="M 36.5426654181079,114.43574410499328 L 68.0519747112922,115.63655678372203 L 109.78719824786907,116.64531930497341 L 113.13605609178666,123.18092195179011 L 111.5000217211292,130.98109192995523 L 112.82500363983976,138.12322009455838 L 111.69838767949678,142.45789338178454 L 107.06481168409114,143.94741935244605 L 104.10217248126246,146.68027352991345 L 104.50385058758395,149.03466398394113 L 99.43435347944927,152.16266327238606 L 100.97769873259757,161.01928215222352 L 97.08748168461103,164.74752483671583 L 98.3686260715351,167.74527161156934 L 94.38930933996218,168.76618250791003 L 55.207011467116175,167.53488797896898 L 55.2730083220315,165.41935754361424 L 49.497829419923605,158.6577791795753 L 45.307362902547766,155.21423353557574 L 39.834318646425096,149.18401832536077 L 40.14797605558034,141.81748124905013 L 42.33402508229644,130.36105057496798 L 43.16272836834715,129.37657934171673 L 37.22767241299964,135.27412788476013 L 37.3060890155255,134.21741670614418 L 38.19095493985954,132.57651639677314 L 36.830848445802985,125.18226050251506 L 36.5426654181079,114.43574410499328 z" id="c32001"/>
		<path d="M 33.967909397439776,84.6445672172351 L 35.16807158799379,59.908002316056894 L 57.59794277259013,60.77152066718699 L 57.37894718194907,66.70798294482108 L 72.35178482926968,67.23949344234177 L 106.46054799936815,68.07679459807544 L 106.22221054289804,77.8908129196269 L 121.00104812981779,78.32154213055142 L 120.85321095458728,87.15878360873923 L 109.78719824786907,116.64531930497341 L 68.0519747112922,115.63655678372203 L 36.5426654181079,114.43574410499328 L 31.574943326393896,114.27329513227927 L 33.967909397439776,84.6445672172351 z" id="c32027"/>
		<path d="M 13.379819091228384,155.86286066041137 L 16.292232176243648,155.1048903131193 L 23.877893664452614,151.4228431322587 L 33.11363457306452,135.7076355707474 L 34.266220386785925,134.18789685334423 L 37.3060890155255,134.21741670614418 L 37.22767241299964,135.27412788476013 L 43.16272836834715,129.37657934171673 L 42.33402508229644,130.36105057496798 L 40.14797605558034,141.81748124905013 L 39.834318646425096,149.18401832536077 L 45.307362902547766,155.21423353557574 L 49.497829419923605,158.6577791795753 L 55.2730083220315,165.41935754361424 L 55.207011467116175,167.53488797896898 L 48.621165400200844,167.33123148071002 L 47.41980400249453,167.36087921754807 L 43.41781823417918,174.54460396470893 L 43.23547748014237,179.7508622817589 L 48.20940215860127,179.8862674371123 L 47.10263063747539,204.62562643528446 L 35.95930935784114,204.2245068743718 L 30.722101761079387,199.17204521837405 L 28.60349904533516,197.13484121696038 L 28.11543004805822,186.07361152733833 L 24.507762143156476,177.26287813994688 L 26.423515087972298,171.60108765668258 L 30.535624281294318,169.72841122416648 L 30.627541918118897,166.09186683877425 L 20.08082635298094,165.5212787614996 L 19.889406116660002,159.35477229401502 L 16.039370024476018,159.1347746180928 L 13.379819091228384,155.86286066041137 z" id="c32019"/>
		<path d="M 97.08748168461103,164.74752483671583 L 100.97769873259757,161.01928215222352 L 99.43435347944927,152.16266327238606 L 104.50385058758395,149.03466398394113 L 104.10217248126246,146.68027352991345 L 107.06481168409114,143.94741935244605 L 111.69838767949678,142.45789338178454 L 112.82500363983976,138.12322009455838 L 111.5000217211292,130.98109192995523 L 113.13605609178666,123.18092195179011 L 109.78719824786907,116.64531930497341 L 120.85321095458728,87.15878360873923 L 123.30020724638547,80.62388582151853 L 133.1306669906596,80.76369201083139 L 133.47216318441204,60.556040903515765 L 151.97129703940033,60.80620385397397 L 151.93914400347188,62.82123853968427 L 151.5060828508342,63.852511663103094 L 151.21061698543252,99.27640163267088 L 150.80009094361543,113.29789615284568 L 150.6657786890985,152.743849187936 L 150.17490946450334,164.81212302314904 L 117.99632250627101,164.21020855063975 L 98.3686260715351,167.74527161156934 L 97.08748168461103,164.74752483671583 z" id="c32015"/>
		<path d="M 34.33756725534126,59.10872423235094 L 35.99819840984471,44.40118579388443 L 35.65864160429806,34.18319326677409 L 37.0750151107599,1.397032989948479 L 41.966353994748644,1.6472887903727762 L 50.71729542294074,1.9726538674809146 L 60.219652938077516,2.402193600781063 L 71.8281976037841,2.66068448570062 L 84.64752145812533,2.987366335931528 L 84.65512985769051,2.9875467057078 L 98.32110062667616,3.3032200323972405 L 108.8619074101725,3.5624129263054884 L 118.1532731567488,3.725357655043804 L 126.84091327087046,3.8379537638142804 L 134.08271637886318,3.995003296487862 L 134.42004058544921,4.003511132329157 L 133.47216318441204,60.556040903515765 L 133.1306669906596,80.76369201083139 L 123.30020724638547,80.62388582151853 L 120.85321095458728,87.15878360873923 L 121.00104812981779,78.32154213055142 L 106.22221054289804,77.8908129196269 L 106.46054799936815,68.07679459807544 L 72.35178482926968,67.23949344234177 L 57.37894718194907,66.70798294482108 L 57.59794277259013,60.77152066718699 L 35.16807158799379,59.908002316056894 L 34.33756725534126,59.10872423235094 z" id="c32013"/>
		<path d="M 35.95930935784114,204.2245068743718 L 47.10263063747539,204.62562643528446 L 48.20940215860127,179.8862674371123 L 43.23547748014237,179.7508622817589 L 43.41781823417918,174.54460396470893 L 47.41980400249453,167.36087921754807 L 48.621165400200844,167.33123148071002 L 55.207011467116175,167.53488797896898 L 94.38930933996218,168.76618250791003 L 79.66915483481054,172.54305140549792 L 79.53962791418708,177.11711173577186 L 101.28273527188507,202.87683351528034 L 70.93776397358096,234.9073777719469 L 67.51301370318087,234.66165286964645 L 64.33654886291961,231.57465221709407 L 44.896480800227046,212.80014680899825 L 35.95930935784114,204.2245068743718 z" id="c32021"/>
		<path d="M 0.3541286901008113,160.0815563147043 L 5.753195275837117,160.34814328491834 L 10.725037767076635,157.75855255799522 L 13.379819091228384,155.86286066041137 L 16.039370024476018,159.1347746180928 L 19.889406116660002,159.35477229401502 L 20.08082635298094,165.5212787614996 L 10.88577847247426,163.5085693736282 L 0.24100188619707968,163.07863736694796 L 0.3541286901008113,160.0815563147043 z" id="c32510"/>
		<path d="M 79.66915483481054,172.54305140549792 L 94.38930933996218,168.76618250791003 L 98.3686260715351,167.74527161156934 L 117.99632250627101,164.21020855063975 L 150.17490946450334,164.81212302314904 L 180.72369107940165,165.01618393091704 L 220.7956455215807,192.35887369565188 L 221.0191981111844,227.78731739644053 L 181.09293936924786,227.85850216711026 L 180.72841886139915,296.1770949654594 L 180.65883770215254,334.0414568439242 L 182.94028066023301,336.88446310758377 L 182.90184763164027,345.8427752511282 L 180.75515540904837,343.7782942871955 L 171.58695030322863,334.93125493099717 L 158.74825202242386,322.59232030456576 L 153.6579670978004,317.65566204869964 L 130.57280743976588,295.4055714830483 L 123.18698308331611,288.30488012599824 L 124.18405393097962,230.04112901659323 L 101.28273527188507,202.87683351528034 L 79.53962791418708,177.11711173577186 L 79.66915483481054,172.54305140549792 z" id="c32023"/>
		<path d="M 134.42004058544921,4.003511132329157 L 150.97310405840648,4.38227599407027 L 163.34690629181245,4.517194628546069 L 182.86997501693438,4.664580269017876 L 193.17926659359495,4.647690576894913 L 206.34886588197904,4.704476272386009 L 217.98684062661434,4.505903418490304 L 223.84838119914164,4.391689741671285 L 236.55268874875657,4.573305510653069 L 249.90784255289992,4.411793363755668 L 249.9101865655457,4.411764198693231 L 260.04383479790533,4.271463381190666 L 260.3649012966466,17.845797743489808 L 260.6162510674122,32.67452266932417 L 260.85018884134485,48.73925897452082 L 261.0283334907767,60.497091181403434 L 261.0283566040935,60.49875579136043 L 261.2422911315663,75.97776424643243 L 261.38095744965864,89.01781349776687 L 261.4510070900728,94.53285128599902 L 261.7185544499987,110.4491216454643 L 252.8050847886696,110.606839323022 L 208.85370024201768,110.68392066233004 L 184.05109996617543,110.39368744107688 L 176.84686525554775,110.39292979546873 L 170.23117430287883,79.8664391395078 L 170.34111445438947,60.99969934833216 L 151.97129703940033,60.80620385397397 L 133.47216318441204,60.556040903515765 L 134.42004058544921,4.003511132329157 z" id="c32007"/>
		<path d="M 70.93776397358096,234.9073777719469 L 101.28273527188507,202.87683351528034 L 124.18405393097962,230.04112901659323 L 123.18698308331611,288.30488012599824 L 119.66535018275005,284.9061790929629 L 100.31992580141333,266.2439683441617 L 93.56899813038977,259.7779496700597 L 85.26665918022086,251.78257197240086 L 67.51301370318087,234.66165286964645 L 70.93776397358096,234.9073777719469 z" id="c32009"/>
		<path d="M 0.7085923589506213,151.54264113912964 L 1.143023916807067,144.2711251838668 L 1.4604244002186297,138.9657328734472 L 2.0512007068133022,128.5827884334 L 2.80691718579329,115.34064324150164 L 3.306449650910395,105.72970869612841 L 3.898157536571261,94.70326988346258 L 4.973089906174372,72.0786586045631 L 5.313732400802261,63.87444454022805 L 6.199039631479648,45.87236814712421 L 7.523277519046604,21.269203838016775 L 8.226350190602194,6.771451674990705 L 8.580391866051647,0.0 L 20.12943356824335,0.47855066311124544 L 35.55834016161484,1.31808326545812 L 37.0750151107599,1.397032989948479 L 35.65864160429806,34.18319326677409 L 35.99819840984471,44.40118579388443 L 34.33756725534126,59.10872423235094 L 35.16807158799379,59.908002316056894 L 33.967909397439776,84.6445672172351 L 31.574943326393896,114.27329513227927 L 36.5426654181079,114.43574410499328 L 36.830848445802985,125.18226050251506 L 38.19095493985954,132.57651639677314 L 37.3060890155255,134.21741670614418 L 34.266220386785925,134.18789685334423 L 33.11363457306452,135.7076355707474 L 29.225600257101974,137.51093677653657 L 21.714537513770562,138.50075013835246 L 18.041644314569073,141.29126488443336 L 14.822555603114987,140.6678718759649 L 15.967684328558049,151.4064106736298 L 13.379819091228384,155.86286066041137 L 10.725037767076635,157.75855255799522 L 5.753195275837117,160.34814328491834 L 0.3541286901008113,160.0815563147043 L 0.6234671018874243,152.9688207194394 L 0.7085923589506213,151.54264113912964 z" id="c32031"/>
		<path d="M 0.24100188619707968,163.07863736694796 L 10.88577847247426,163.5085693736282 L 20.08082635298094,165.5212787614996 L 30.627541918118897,166.09186683877425 L 30.535624281294318,169.72841122416648 L 26.423515087972298,171.60108765668258 L 24.507762143156476,177.26287813994688 L 28.11543004805822,186.07361152733833 L 28.60349904533516,197.13484121696038 L 17.638307311974785,186.5378396355119 L 17.541479149721695,186.44386301102512 L 4.091441730204917,173.4366080789653 L 0.0,169.48268774949827 L 0.1445948409185777,165.63728362278377 L 0.24100188619707968,163.07863736694796 z" id="c32005"/>
	</g>
</svg>