<?xml version="1.0" encoding="UTF-8"?>
<svg baseProfile="full" fill="#d0d0d0" height="305.48664358845417" stroke="#ffffff" stroke-width="1" version="1.1" width="400.0" xmlns="http://www.w3.org/2000/svg" xmlns:ev="http://www.w3.org/2001/xml-events" xmlns:xlink="http://www.w3.org/1999/xlink">
	<defs/>
	<g id="counties"><path d="M 1.17259158068672,176.5191163585713 L 8.14990210663106,173.2579465012825 L 17.225540665871822,167.973247125931 L 21.03623206170219,164.45981230284997 L 26.145599658297137,161.7399493268166 L 30.786457819765555,159.66987325787647 L 33.58916609251995,158.57642452853653 L 33.738856813859826,158.26564387825385 L 35.147688440703256,158.2948403130349 L 37.36804167152237,160.59943401989395 L 35.23884371924089,196.98708891568384 L 14.535093060560898,195.78025042967138 L 7.571919174640089,195.32120458675183 L 0.0,194.80948788632816 L 0.547906180666153,185.87138256259797 L 1.17259158068672,176.5191163585713 z" id="c36013"/>
		<path d="M 69.1345966688699,122.30427946669843 L 92.32640589501311,123.12993117542963 L 96.85098237697586,123.29489206347401 L 96.64980714740086,129.82229557408274 L 96.21782454960574,133.14154136097915 L 93.70015084772047,138.5750982929163 L 93.59664733213867,141.48968599302688 L 87.6937018790604,140.71551661045117 L 68.29009186396115,139.95378683192206 L 69.04927120291465,125.0043571683149 L 69.1345966688699,122.30427946669843 z" id="c36037"/>
		<path d="M 309.714243608447,98.22176664084239 L 315.2808351720396,92.10023317401998 L 317.9102415969027,82.16183082709125 L 320.63436049962826,81.84068081129706 L 322.2135355604041,84.38173394981172 L 321.71176860716525,85.552036982529 L 320.13638019074057,89.22169659386516 L 319.1321126648874,92.00377442055611 L 318.6458284744778,96.03068701200948 L 320.0972064491881,98.09840490230718 L 323.41736636075234,94.15949263590888 L 325.1901326692622,96.9485418343721 L 327.683046726113,100.28433460424333 L 327.25065773893033,111.8921006079967 L 327.1540993997918,115.19447660172175 L 326.59857757098655,134.06525138346097 L 326.5901622217011,134.41775833277796 L 326.44919443210625,140.31096743420636 L 318.6496428679147,139.35254297272456 L 308.47560577321934,140.5813015311882 L 311.30031822909774,132.74732733483776 L 310.3746894557788,115.88624830851093 L 308.25719188167847,102.94603327718544 L 309.714243608447,98.22176664084239 z" id="c36115"/>
		<path d="M 142.00938311089104,143.51177540897086 L 143.223006096483,133.26724445651595 L 155.65791038738828,132.93398871728942 L 154.4063682831467,136.53338143510328 L 154.1334715403619,153.4149476950996 L 157.1782620931314,160.09226718454124 L 161.05342584181508,165.1852265002422 L 155.51521306221082,165.22929997467403 L 145.55933367796618,165.2668657854654 L 145.82810061125863,157.51224989057093 L 143.47554629867983,150.1123871375681 L 142.28137021457047,150.08603809603702 L 142.00938311089104,143.51177540897086 z" id="c36099"/>
		<path d="M 37.36804167152237,160.59943401989395 L 40.78418838510608,161.37855162989527 L 44.047212341878705,167.4475163753816 L 55.349345176388695,166.06668623262158 L 67.17107829966193,162.32434440583023 L 67.78629708558928,163.5152787165169 L 74.86907189122401,163.73371628129428 L 73.16871845237682,199.00173553356566 L 58.63919927409754,198.20803592112742 L 42.41033430831738,197.37810985092383 L 39.17668705970274,197.2055929532194 L 35.23884371924089,196.98708891568384 L 37.36804167152237,160.59943401989395 z" id="c36009"/>
		<path d="M 289.14827420688124,289.62325246313463 L 289.6475151377873,288.3292660035122 L 291.14725127228604,285.56218197193687 L 291.8342724137716,284.29328480761876 L 291.994674135444,283.9969112085748 L 292.10995998944276,283.7234685514834 L 294.85234045992195,285.6578221091317 L 294.4144298024962,286.6278765845398 L 292.28482904940466,289.6670097597778 L 292.27664903431145,290.6169081353993 L 292.1262477645988,290.873586369154 L 288.76568322190013,290.61435045401265 L 289.14827420688124,289.62325246313463 z" id="c36061"/>
		<path d="M 263.6369631686621,194.2958354872604 L 267.63379156612416,192.77991043850614 L 274.87137221664443,196.5221114827231 L 286.5892516866264,197.7483534583543 L 290.23268257523296,192.31329717690204 L 294.85205500320166,195.6715658719554 L 293.9007978989252,198.95284245215805 L 292.15305178407465,210.1525538382339 L 293.33937322083966,222.12877755670516 L 292.7255504340401,232.00009139681978 L 287.63103892418576,232.633093493649 L 276.9519665725602,229.09721350919278 L 271.7284237037369,231.89409616730833 L 270.3230963554928,228.2443488887318 L 261.23976167230717,221.40785362804286 L 267.4317724021099,212.63247271168277 L 250.99364086060717,202.99819658257502 L 263.6369631686621,194.2958354872604 z" id="c36111"/>
		<path d="M 141.48661815989027,182.92980316536188 L 153.1187814931053,182.2782080047113 L 153.0844321251264,185.3668473378953 L 157.59595236709657,186.4748471632572 L 158.8482102283319,183.18854013586486 L 162.9093714584733,183.38241634360557 L 161.38664247218142,192.0846001692239 L 161.38598099406525,202.387771265567 L 161.36109743384793,202.38661941434304 L 142.77549070101176,201.76610031044518 L 140.81580448235817,201.69610719906797 L 141.48661815989027,182.92980316536188 z" id="c36015"/>
		<path d="M 122.29249068426222,156.7508133667886 L 123.95876676221117,151.56198833885477 L 125.25781893688999,149.67534962261854 L 142.28137021457047,150.08603809603702 L 143.47554629867983,150.1123871375681 L 145.82810061125863,157.51224989057093 L 145.55933367796618,165.2668657854654 L 145.67373287661906,170.5815919655195 L 140.76411755700497,170.40429527614498 L 140.74305355947348,168.94309615401315 L 134.84348966976575,168.80877326489468 L 133.23881084843234,162.45085207756802 L 122.11245460109771,162.07111089999762 L 122.29249068426222,156.7508133667886 z" id="c36123"/>
		<path d="M 167.68762414148875,119.51566436388245 L 178.60122826741485,119.13737750827028 L 181.53666213346517,120.89766378100109 L 181.03430695591612,117.10055747279443 L 187.47109002207608,121.93284650086217 L 191.6531365721567,123.11578119988214 L 192.3941109959262,129.36614354030212 L 195.2812800557258,129.8024817163903 L 195.89627209616134,149.76641406553057 L 177.00459483571663,150.65007694923418 L 173.04666142403732,145.25393805530888 L 168.37413297118263,145.37540542753007 L 166.6302303414248,134.55102206945622 L 167.68762414148875,119.51566436388245 z" id="c36067"/>
		<path d="M 293.0507055655326,281.490783043103 L 293.53243524830896,280.34654530101335 L 293.69560597842974,279.8091215282146 L 294.3534190859608,277.641153131611 L 294.43313000121935,277.378298157813 L 297.9763065979541,277.952379779553 L 299.3804660259391,279.31353091943356 L 303.28132616390303,280.53035055339444 L 301.7063865288947,284.59027529447445 L 299.2105373369536,285.121489704283 L 298.23147472035896,285.3201176276758 L 294.85234045992195,285.6578221091317 L 292.10995998944276,283.7234685514834 L 293.0507055655326,281.490783043103 z" id="c36005"/>
		<path d="M 232.39522007611004,214.03438379332633 L 250.99364086060717,202.99819658257502 L 267.4317724021099,212.63247271168277 L 261.23976167230717,221.40785362804286 L 270.3230963554928,228.2443488887318 L 271.7284237037369,231.89409616730833 L 266.187072587426,237.75021065938978 L 251.65542100217974,238.5742462651225 L 251.88129329580335,242.80908235842006 L 249.68208019882232,242.54196800921716 L 245.07903239535662,240.8728888522416 L 240.42664733165626,238.04186018839954 L 237.3689358114294,232.6910853941396 L 237.27434548342083,230.7517336376316 L 237.1488089923099,228.17460015967288 L 237.0283555624286,220.69061173206455 L 236.00746414766405,217.32116453379135 L 234.07004107940278,214.6934406082574 L 232.39522007611004,214.03438379332633 z" id="c36105"/>
		<path d="M 196.10949241959182,154.31245622095489 L 219.12929704646314,153.28872425043943 L 225.74780299915864,153.48062441041276 L 223.85875593572274,165.35999854286916 L 220.12150497301585,169.2939024040977 L 221.45420119057465,175.96260310679733 L 219.32349399101892,182.4644832537309 L 219.03739669141535,190.51601549530855 L 215.75875154889002,190.45148845695752 L 208.04361475928206,190.28394814869787 L 208.0509380423402,186.69562190229578 L 198.08874142912455,186.7958041814854 L 196.9530836500355,175.1769291767181 L 196.10949241959182,154.31245622095489 z" id="c36017"/>
		<path d="M 74.86907189122401,163.73371628129428 L 88.39183229161411,164.35784128205222 L 98.25506361366608,165.05566749449432 L 98.1501746025586,167.97527689521016 L 104.0062090801677,168.45569540259126 L 103.40903163196676,172.98428192922486 L 101.28996188968271,200.3174508965521 L 97.1525766724999,200.15394667849412 L 87.12166602538667,199.64312592061265 L 78.28305292274607,199.24933394793766 L 75.02840747051265,199.09985958410834 L 73.16871845237682,199.00173553356566 L 74.86907189122401,163.73371628129428 z" id="c36003"/>
		<path d="M 258.8566895637624,161.78847103206922 L 257.07849868704096,153.38500610318508 L 258.0758295358708,148.05849095490677 L 267.6849808761965,151.9465249003049 L 269.8552894452419,151.71974687158988 L 275.933469754844,151.24922144519704 L 277.23815241133843,150.39225100298378 L 276.7734410155679,155.95564653925578 L 281.36576001933093,154.90488976046143 L 281.8836328960628,159.1371814826862 L 278.27545232726277,167.0169691687218 L 277.1687131957645,175.6429719175856 L 277.610808845414,176.6591261405803 L 278.08662417365235,178.76021009333198 L 268.1102276027713,180.21842905803933 L 259.3462165858336,175.47370412278346 L 254.75365474733255,169.12116712769617 L 258.8566895637624,161.78847103206922 z" id="c36095"/>
		<path d="M 177.00459483571663,150.65007694923418 L 195.89627209616134,149.76641406553057 L 196.10949241959182,154.31245622095489 L 196.9530836500355,175.1769291767181 L 189.059245696877,175.45465413931097 L 183.60985771086544,175.23559260152211 L 177.4337607905818,175.26835128726708 L 177.19910022013707,160.64718459124322 L 177.00459483571663,150.65007694923418 z" id="c36023"/>
		<path d="M 277.1687131957645,175.6429719175856 L 278.27545232726277,167.0169691687218 L 281.8836328960628,159.1371814826862 L 281.36576001933093,154.90488976046143 L 298.6976767151706,152.04585753503594 L 299.8553561630936,151.59661776386233 L 303.96749085311734,148.62896463346038 L 306.46225085699194,151.27905034721354 L 302.28351128983235,162.98777443105757 L 301.70685869649964,169.82068570906478 L 301.18597953875724,172.87534617394377 L 277.610808845414,176.6591261405803 L 277.1687131957645,175.6429719175856 z" id="c36001"/>
		<path d="M 103.40903163196676,172.98428192922486 L 104.0062090801677,168.45569540259126 L 104.30697968591716,164.14620323583284 L 107.27062962176159,164.27108480390038 L 107.46859113995194,161.20994338301603 L 115.90198831073431,161.76562562043387 L 117.66195689879261,161.86204768727248 L 122.11245460109771,162.07111089999762 L 133.23881084843234,162.45085207756802 L 134.84348966976575,168.80877326489468 L 134.71518585883553,183.1106911740648 L 141.48661815989027,182.92980316536188 L 140.81580448235817,201.69610719906797 L 138.70375250308962,201.61969690962906 L 108.34108435909111,200.58715335499497 L 101.28996188968271,200.3174508965521 L 103.40903163196676,172.98428192922486 z" id="c36101"/>
		<path d="M 92.87419255835414,112.85943705359186 L 93.12748480409647,107.42756696228491 L 93.1644106704508,107.43272492220395 L 101.8961612783952,109.29235782077951 L 102.30321821107233,109.33395527402391 L 104.6676562401373,109.5748084342803 L 109.4322027806338,113.71659832320857 L 114.70394210709675,117.13301740716922 L 117.22039492091412,116.24553516496265 L 123.45426210894132,114.8872224842603 L 123.05709085845092,131.07940329584014 L 117.40576254712988,130.86704229679276 L 117.30385277869999,137.0518344221172 L 112.44590688013328,136.80178136156005 L 103.56265243142873,136.66648675827858 L 105.09590808962768,133.48767788857808 L 96.21782454960574,133.14154136097915 L 96.64980714740086,129.82229557408274 L 96.85098237697586,123.29489206347401 L 92.32640589501311,123.12993117542963 L 92.87419255835414,112.85943705359186 z" id="c36055"/>
		<path d="M 252.46885089474222,132.55998505607434 L 255.8866996603546,124.72444234464525 L 255.1247429597742,117.14106306404874 L 263.8987606300805,121.1306175728025 L 274.2086552003936,120.26634337531925 L 279.4235175379,121.65178975369085 L 283.42358721362996,119.45551791294756 L 285.5143302324752,137.79881842101508 L 266.0740042877058,137.585993400149 L 263.4156097758693,137.54247011425048 L 252.64718027319196,133.2746502885514 L 252.46885089474222,132.55998505607434 z" id="c36035"/>
		<path d="M 155.51521306221082,165.22929997467403 L 161.05342584181508,165.1852265002422 L 157.1782620931314,160.09226718454124 L 167.55799850777387,160.7241159594822 L 177.19910022013707,160.64718459124322 L 177.4337607905818,175.26835128726708 L 177.40197258928703,182.7692437853191 L 169.15387254207118,181.08211271479493 L 169.00571422000817,184.8252698340734 L 162.9093714584733,183.38241634360557 L 158.8482102283319,183.18854013586486 L 155.23226966740967,182.98052593346807 L 155.51521306221082,165.22929997467403 z" id="c36109"/>
		<path d="M 292.28482904940466,289.6670097597778 L 294.4144298024962,286.6278765845398 L 294.85234045992195,285.6578221091317 L 298.23147472035896,285.3201176276758 L 299.2105373369536,285.121489704283 L 301.7063865288947,284.59027529447445 L 303.1838564232921,286.56215379836914 L 305.69063436200753,288.58084225791714 L 305.3871135413347,290.25100255980533 L 304.5099521969045,290.4891735934825 L 304.28201586685753,290.837740869751 L 304.3935277630353,291.49093496833444 L 304.4727332584189,293.51206142067684 L 304.34886553470386,294.05176779085383 L 304.3637993505707,294.6183448772471 L 304.5171795373704,295.2786328963404 L 303.6553646370901,296.04150661424507 L 303.20423605840426,299.61650899633105 L 301.9516946361388,299.5226329931711 L 299.3484879305443,300.5159210584017 L 298.1634174376209,295.9649461821901 L 297.3641580652529,293.42558804217606 L 297.10913827379113,292.51305508727904 L 296.5488179785247,292.7514848396774 L 294.3303713724626,291.0392485537894 L 294.3089468624658,291.00236652812066 L 292.28482904940466,289.6670097597778 z" id="c36081"/>
		<path d="M 134.84348966976575,168.80877326489468 L 140.74305355947348,168.94309615401315 L 140.76411755700497,170.40429527614498 L 145.67373287661906,170.5815919655195 L 145.55933367796618,165.2668657854654 L 155.51521306221082,165.22929997467403 L 155.23226966740967,182.98052593346807 L 158.8482102283319,183.18854013586486 L 157.59595236709657,186.4748471632572 L 153.0844321251264,185.3668473378953 L 153.1187814931053,182.2782080047113 L 141.48661815989027,182.92980316536188 L 134.71518585883553,183.1106911740648 L 134.84348966976575,168.80877326489468 z" id="c36097"/>
		<path d="M 291.30447043513874,249.93286232556073 L 293.0386462712945,245.19570522425343 L 291.2976414414035,242.21275353908214 L 293.72198492538394,238.87407197142878 L 306.9554408286128,237.05832930222957 L 311.70218633438,236.24313320469517 L 314.2471686907184,236.18287588884343 L 313.9075446916321,242.00263956499157 L 313.6142736483752,246.37742378182497 L 313.5685353245215,247.05886734695935 L 301.56242438939336,248.71579468156366 L 291.24336581261946,250.1356546570111 L 291.30447043513874,249.93286232556073 z" id="c36079"/>
		<path d="M 68.29009186396115,139.95378683192206 L 87.6937018790604,140.71551661045117 L 93.59664733213867,141.48968599302688 L 92.93164811323231,154.6933267948071 L 87.30993884542237,163.54324877995978 L 88.39183229161411,164.35784128205222 L 74.86907189122401,163.73371628129428 L 67.78629708558928,163.5152787165169 L 67.17107829966193,162.32434440583023 L 68.04740049417478,145.83453020139044 L 67.16820391765557,140.58268917989892 L 68.29009186396115,139.95378683192206 z" id="c36121"/>
		<path d="M 277.8346911842397,70.98334076872008 L 276.60211554835075,60.76889325908651 L 285.7953083625318,59.63279885039358 L 283.4865027601122,41.36110069612832 L 294.74112743464764,39.84443881231597 L 306.41121277781326,39.026551952145304 L 314.77661126891604,35.95583469960101 L 316.3447298212903,32.449574898300355 L 321.9560639623854,31.836673077316448 L 323.6784412426568,34.461002133191606 L 324.64878571868945,38.97252909628489 L 323.3519006182325,42.905556205415095 L 322.70030745145493,44.65818990850659 L 323.230737365021,47.82875047993735 L 323.58477136074856,50.97651369910684 L 323.62860703399133,51.3659476654644 L 322.0225122461555,53.235348980516065 L 319.8354458068325,57.5495733516815 L 319.6242097859618,58.527667069640614 L 318.8458870377023,62.127344818931924 L 317.86705136640165,65.98398684407883 L 319.391070722862,68.07984593615011 L 319.14977050729743,70.51214077332988 L 319.34216366130755,73.6064466249465 L 321.0173265062848,77.27364129359695 L 320.24872852912966,81.21960311289382 L 320.63436049962826,81.84068081129706 L 317.9102415969027,82.16183082709125 L 287.5577836725121,86.25591299302997 L 288.0477272080759,82.74685269845835 L 283.0482321103511,80.4884759672557 L 279.87561906274266,81.75070616831798 L 273.8696915061474,73.98859019922413 L 277.8346911842397,70.98334076872008 z" id="c36031"/>
		<path d="M 69.9677737828297,105.92973165325216 L 76.69049599458027,106.11478480649326 L 85.78081150345211,106.39486499377807 L 93.12748480409647,107.42756696228491 L 92.87419255835414,112.85943705359186 L 92.32640589501311,123.12993117542963 L 69.1345966688699,122.30427946669843 L 69.9677737828297,105.92973165325216 z" id="c36073"/>
		<path d="M 87.30993884542237,163.54324877995978 L 92.93164811323231,154.6933267948071 L 93.59664733213867,141.48968599302688 L 93.70015084772047,138.5750982929163 L 96.21782454960574,133.14154136097915 L 105.09590808962768,133.48767788857808 L 103.56265243142873,136.66648675827858 L 112.44590688013328,136.80178136156005 L 110.38768602888678,148.9583935664281 L 110.77449619762882,155.1489160412462 L 116.35278278744848,155.4887877841067 L 115.90198831073431,161.76562562043387 L 107.46859113995194,161.20994338301603 L 107.27062962176159,164.27108480390038 L 104.30697968591716,164.14620323583284 L 104.0062090801677,168.45569540259126 L 98.1501746025586,167.97527689521016 L 98.25506361366608,165.05566749449432 L 88.39183229161411,164.35784128205222 L 87.30993884542237,163.54324877995978 z" id="c36051"/>
		<path d="M 200.21595332970352,75.86645986174896 L 204.24396493744726,76.30080578864354 L 211.9243948271585,70.17762607261959 L 214.8920329763888,70.47260972719579 L 217.8687523451295,63.31828329004043 L 214.90747403846626,61.315638269290204 L 219.90423202719586,53.63173011836304 L 233.23847527414273,62.00758743954982 L 235.75356227888284,94.66364630700949 L 214.70212385517613,107.57919755114341 L 203.7848697031754,103.9464882103374 L 203.18055801495956,89.14014920691663 L 202.71833373973922,82.39689195915153 L 199.59583323451636,82.0905479563757 L 200.21595332970352,75.86645986174896 z" id="c36049"/>
		<path d="M 391.3684914814574,252.20945220305705 L 396.039319776767,251.0190341075811 L 396.58690236755007,253.62861196613542 L 390.62116114191883,254.88305124330776 L 391.3684914814574,252.20945220305705 z M 316.7287465868117,275.42440650616953 L 319.22942959532065,276.18627943253875 L 321.4648896142598,274.79254685169576 L 324.6293740986866,276.5065229486821 L 329.5396185026943,278.01462913273775 L 329.876011147553,278.117712809471 L 333.97737319753344,276.47268050806935 L 334.1810739900758,274.64955789539914 L 335.92768289537355,273.54422890616104 L 339.51488816277504,274.0092389854603 L 348.76604740240145,273.79088676877757 L 356.5284633033189,272.88801790749875 L 362.79323010096687,271.45716513731924 L 366.8887260763098,268.2971013115377 L 369.85926805808936,265.35303115355816 L 372.6659847041601,263.8024137288357 L 374.44978777212435,261.62981898627135 L 377.6480096826759,260.49220726574566 L 382.80216914146905,257.84166654413764 L 383.18744134703667,258.86155162026506 L 379.5680004416599,263.4979551077419 L 378.17399422226873,266.43090533734073 L 381.56727759238555,268.2061420031452 L 384.3417939538043,267.2986413118896 L 386.10365542340577,263.07312722004343 L 388.2955401763781,263.946154883432 L 387.77731584601366,267.16894855484037 L 390.0672128825539,269.38427784570354 L 394.7125458244874,265.8488046342017 L 396.75380927868713,265.17338464415695 L 400.0,265.76570104841977 L 395.97274740479565,270.220466685282 L 387.832163622711,273.5995479702332 L 377.5906412688513,277.5775721794012 L 372.65628298449263,280.1373929200263 L 354.2180800002329,287.35114700669305 L 345.7291681195736,290.9166590932001 L 341.1611842852776,293.24355317942127 L 334.31280250315086,295.5623408876002 L 331.11233481214674,296.641609639973 L 326.07423650184796,297.36882758471165 L 323.7484994483469,296.7280944397073 L 320.0226550976756,297.92032285149855 L 320.0342590397939,294.0222820132333 L 319.3481987454866,289.3945856301495 L 319.2148607656192,288.59434939922625 L 317.9458771711305,280.80292481026817 L 316.12352346850827,276.99694834412253 L 316.7287465868117,275.42440650616953 z" id="c36103"/>
		<path d="M 229.8654211945072,132.6758548916024 L 237.44932505223153,120.9414004616343 L 237.37539726686686,120.93663985873681 L 237.3013176862157,120.92003260804373 L 237.26863803777255,120.90122424671053 L 237.23621741320787,120.84918922011431 L 237.22242305846763,120.79162970016034 L 237.2250901917544,120.73149713300951 L 237.23648841136733,120.68575149239767 L 237.27305643136503,120.64552531093811 L 237.31254749422922,120.62922476636399 L 237.38252087315718,120.60889749437241 L 237.40540998758797,120.58643752822152 L 237.41468116623477,120.56069794367683 L 237.40014457367909,120.51517633834726 L 237.38119191069637,120.48685848815299 L 237.3400974055914,120.4563747687777 L 237.26566795882317,120.43265626131051 L 237.23244816259648,120.43400881716562 L 237.19193565366834,120.44494958564485 L 237.15231194406462,120.46408989486434 L 237.0756747941284,120.52744226793227 L 237.03704138111925,120.55045131902634 L 236.94513016983424,120.61618516749462 L 236.8729027605865,120.63451493647794 L 236.85408497785977,120.64761518010866 L 236.82615371539,120.67738684236096 L 236.78912102811174,120.69878917532753 L 236.7212658089786,120.71554619250371 L 236.6564902925495,120.71934620871417 L 236.57948167757013,120.71595502264115 L 236.51359152364665,120.71784410153599 L 236.48897957017374,120.71523724769966 L 236.37655659909302,120.7143799863508 L 236.2672592851182,120.69305247698615 L 236.21987965692398,120.67493241580141 L 236.0403722436705,120.58971358597711 L 235.9308177707811,120.53406158869933 L 235.8663467761607,120.48229001976458 L 235.80883892523963,120.43175560773953 L 235.72670657091757,120.36811889857334 L 235.66315398075824,120.32237906512137 L 235.60457010175094,120.2947034304006 L 235.55877986062475,120.27666371878172 L 235.4582519242195,120.25170407549793 L 235.3814701721401,120.21161271826705 L 235.34131890468532,120.1860622232019 L 235.2918356967788,120.14340550732354 L 235.25651235250487,120.1196074914917 L 235.23173543801772,120.11083259509988 L 235.17207181681948,120.12563929354309 L 235.1096125231776,120.12294849975444 L 235.05781322761405,120.10692483006642 L 234.99081749998865,120.06816947437406 L 234.95873988290347,120.04610240957236 L 234.91739245373336,120.02540544709237 L 234.83696239630953,119.9927021853151 L 234.81302626447393,119.98021330896466 L 234.7929124767073,119.95904276316529 L 234.78109423490343,119.9314813586387 L 234.78958982713317,119.8515940722935 L 234.76985799939237,119.72742111748873 L 234.7657064624994,119.65380090072637 L 234.75646597627565,119.61050317368246 L 234.7367551222292,119.59278903574028 L 234.68072026579148,119.56046331572337 L 234.65604640112142,119.55940174379067 L 234.63844306554685,119.5471285538724 L 234.61254902893646,119.54862284717993 L 234.57694650615855,119.53564405832854 L 234.36842717228336,119.51170353936357 L 234.21571103104952,119.48049017737274 L 234.1413049552157,119.45367203661212 L 234.10700571840965,119.41668011415138 L 234.07990606608337,119.370103267234 L 234.06232644526582,119.35999372303046 L 234.02209679070043,119.29219756736187 L 233.92218158088946,119.24155902972392 L 233.8704043407699,119.17943133233528 L 233.851967747886,119.11374478972115 L 233.83499329827745,119.02323873693024 L 233.81130652514028,119.01122107383601 L 233.77952525693476,119.009181860185 L 233.7498087842813,119.01948709860234 L 233.73367647382366,119.05020591480333 L 233.7275575182555,119.1512393183237 L 233.70670682678448,119.19847780667443 L 233.69320350487038,119.20967139655123 L 233.6055529827181,119.22395516569696 L 233.57002042348947,119.26267606338892 L 233.54105490146912,119.32117750189096 L 233.5331662281673,119.35308643590201 L 233.54115288639744,119.3816165276391 L 233.55759425551028,119.41431819256195 L 233.57181273921444,119.46188010165481 L 233.55419556166703,119.53772072607401 L 233.53581432608374,119.55859565764264 L 233.499333681082,119.57882697852155 L 233.47812225954564,119.58159416687707 L 233.41871219082353,119.565856803482 L 233.38822163411888,119.52931530487959 L 233.37824874489615,119.48634316189764 L 233.3915029895506,119.35122629494091 L 233.3992236978929,119.33217450069428 L 233.40719833861738,119.22981251173812 L 233.35079314427315,119.11015762792377 L 233.32652070558748,119.0186735831254 L 233.33166157906405,118.92500468338383 L 233.35274135022192,118.82674013052755 L 233.3393042392414,118.7915727596396 L 233.30661447403963,118.76474720617563 L 233.26733377374927,118.76889968446126 L 233.24136118331387,118.81417368310521 L 233.22539433169192,118.87338617078814 L 233.21038972022262,118.90086937365065 L 233.14440008939783,118.9571202935694 L 233.10101974246237,118.97563295215096 L 233.05895980268033,118.97656587218765 L 232.96290043285813,118.95735924940475 L 232.8883174423303,118.8518727025663 L 237.1683463935282,113.94168869363028 L 235.75356227888284,94.66364630700949 L 233.23847527414273,62.00758743954982 L 238.44134433173312,65.22769914454086 L 248.64405633645674,64.00570473003204 L 252.13022326623994,103.5425278786313 L 247.49307699548103,113.43893869281682 L 255.1247429597742,117.14106306404874 L 255.8866996603546,124.72444234464525 L 252.46885089474222,132.55998505607434 L 252.64718027319196,133.2746502885514 L 253.4360205898291,134.4101833092597 L 252.36948332037585,145.7340445493415 L 246.64454188304433,143.30995067563836 L 245.20473756693238,148.25645672425622 L 235.6028732111212,142.5025688814039 L 230.1021788132321,145.93562171818363 L 230.048659916938,144.3500621971996 L 229.8654211945072,132.6758548916024 z" id="c36043"/>
		<path d="M 282.45116070817545,111.49813822059201 L 296.07403668798634,109.70739324503901 L 298.96435022242855,115.97608388932709 L 298.47748594407614,119.46854330860471 L 301.8622504593746,121.60158045256256 L 303.21603090409883,118.71583179940164 L 310.3746894557788,115.88624830851093 L 311.30031822909774,132.74732733483776 L 308.47560577321934,140.5813015311882 L 307.236748322597,141.17867435035095 L 306.1182441574892,143.1284782036604 L 306.6786760222678,150.43170241254109 L 306.46225085699194,151.27905034721354 L 303.96749085311734,148.62896463346038 L 299.8553561630936,151.59661776386233 L 295.53568450601995,146.71917372364945 L 295.11074114721305,142.65464014908295 L 292.5714352259141,143.59414523590507 L 285.73527377432873,139.63026479986576 L 285.5423782831346,138.03944042654177 L 285.5143302324752,137.79881842101508 L 283.42358721362996,119.45551791294756 L 282.45116070817545,111.49813822059201 z" id="c36091"/>
		<path d="M 251.65542100217974,238.5742462651225 L 266.187072587426,237.75021065938978 L 271.7284237037369,231.89409616730833 L 276.9519665725602,229.09721350919278 L 287.63103892418576,232.633093493649 L 292.7255504340401,232.00009139681978 L 290.350416545899,241.02018756056543 L 291.2976414414035,242.21275353908214 L 293.0386462712945,245.19570522425343 L 291.30447043513874,249.93286232556073 L 278.3812849696226,262.2089700180851 L 278.3756646130023,262.20572901285766 L 274.93265878610316,260.1870110174272 L 271.6197307451981,258.03730204354 L 267.0132264507941,255.04065697262192 L 254.96510123790057,247.58024379703875 L 252.9678693352981,242.94064478062108 L 251.88129329580335,242.80908235842006 L 251.65542100217974,238.5742462651225 z" id="c36071"/>
		<path d="M 301.70685869649964,169.82068570906478 L 302.28351128983235,162.98777443105757 L 306.46225085699194,151.27905034721354 L 306.6786760222678,150.43170241254109 L 306.1182441574892,143.1284782036604 L 307.236748322597,141.17867435035095 L 308.47560577321934,140.5813015311882 L 318.6496428679147,139.35254297272456 L 326.44919443210625,140.31096743420636 L 326.2700266357327,147.76948662502127 L 325.67632302118716,149.90466441880952 L 327.00256693735145,153.68070995556366 L 324.96691486720533,161.3605036932004 L 322.75467658005266,169.67337389015185 L 301.18597953875724,172.87534617394377 L 301.70685869649964,169.82068570906478 z" id="c36083"/>
		<path d="M 253.4360205898291,134.4101833092597 L 252.64718027319196,133.2746502885514 L 263.4156097758693,137.54247011425048 L 266.0740042877058,137.585993400149 L 285.5143302324752,137.79881842101508 L 285.5423782831346,138.03944042654177 L 285.73527377432873,139.63026479986576 L 286.18355754206664,143.58946345340814 L 277.23815241133843,150.39225100298378 L 275.933469754844,151.24922144519704 L 269.8552894452419,151.71974687158988 L 267.6849808761965,151.9465249003049 L 258.0758295358708,148.05849095490677 L 252.36948332037585,145.7340445493415 L 253.4360205898291,134.4101833092597 z" id="c36057"/>
		<path d="M 191.70371154074496,122.99590749254969 L 192.33238812544616,123.53561553776836 L 193.33357304251692,123.3558818484433 L 193.50733012067252,123.91526429509359 L 194.64389740577337,123.642609584972 L 197.01481623585198,125.11707093438964 L 204.96614926883848,124.80477727680471 L 213.29289981472152,133.4229202629376 L 213.66165844950677,140.58740629779214 L 218.56565975400136,140.58204591619466 L 218.83646074267494,145.30729456358387 L 228.2593435683885,144.8911688393232 L 228.0034246205192,150.77624558629375 L 225.74780299915864,153.48062441041276 L 219.12929704646314,153.28872425043943 L 196.10949241959182,154.31245622095489 L 195.89627209616134,149.76641406553057 L 195.2812800557258,129.8024817163903 L 192.3941109959262,129.36614354030212 L 191.6531365721567,123.11578119988214 L 191.70371154074496,122.99590749254969 z" id="c36053"/>
		<path d="M 277.5076904583299,302.60745373623246 L 279.17891161025716,301.6958791154484 L 279.8621350472347,299.3947591852828 L 279.9423361092686,296.8124500722462 L 280.05185354063724,296.7474225839278 L 281.57314549626966,295.8436645294944 L 282.11192220419827,295.7914585701059 L 285.88770417452224,295.4237548920372 L 286.7050541902627,294.36936083687766 L 287.4868366676727,295.4139723180979 L 287.43990467743396,297.06791025450667 L 288.223719196491,298.70257818745006 L 288.3996173903163,299.6174037567907 L 287.4032658624421,299.07787795784577 L 284.5517377121405,302.45040755118276 L 280.0436153150398,304.86683043271063 L 276.9113875125631,305.48664358845417 L 277.5076904583299,302.60745373623246 z" id="c36085"/>
		<path d="M 291.24336581261946,250.1356546570111 L 301.56242438939336,248.71579468156366 L 313.5685353245215,247.05886734695935 L 313.2463362693811,251.85280670174234 L 316.75853975668286,257.42079375310414 L 305.89833830158517,264.062118592338 L 304.27392169037984,265.0515279175383 L 307.784667525888,270.63823102035605 L 307.797054142322,271.57245251272764 L 307.90373460100227,272.82302716844913 L 307.90577482409543,272.84693737676287 L 305.8350893428982,275.93471287256136 L 302.82649438793584,277.7688486899155 L 302.3450917844181,279.89912480025953 L 303.6325834900871,280.2499537105152 L 303.28132616390303,280.53035055339444 L 299.3804660259391,279.31353091943356 L 297.9763065979541,277.952379779553 L 294.43313000121935,277.378298157813 L 295.1070727220273,275.15460313757137 L 295.7849048200095,272.06517365534154 L 295.8047224292525,271.5176913114768 L 296.10544773961533,262.5281715958402 L 291.84631542425944,255.12381690607825 L 291.24336581261946,250.1356546570111 z" id="c36119"/>
		<path d="M 197.13892012164519,113.64927966213489 L 200.9242998207077,102.99518180580074 L 203.7848697031754,103.9464882103374 L 214.70212385517613,107.57919755114341 L 235.75356227888284,94.66364630700949 L 237.1683463935282,113.94168869363028 L 232.8883174423303,118.8518727025663 L 232.96290043285813,118.95735924940475 L 233.05895980268033,118.97656587218765 L 233.10101974246237,118.97563295215096 L 233.14440008939783,118.9571202935694 L 233.21038972022262,118.90086937365065 L 233.22539433169192,118.87338617078814 L 233.24136118331387,118.81417368310521 L 233.26733377374927,118.76889968446126 L 233.30661447403963,118.76474720617563 L 233.3393042392414,118.7915727596396 L 233.35274135022192,118.82674013052755 L 233.33166157906405,118.92500468338383 L 233.32652070558748,119.0186735831254 L 233.35079314427315,119.11015762792377 L 233.40719833861738,119.22981251173812 L 233.3992236978929,119.33217450069428 L 233.3915029895506,119.35122629494091 L 233.37824874489615,119.48634316189764 L 233.38822163411888,119.52931530487959 L 233.41871219082353,119.565856803482 L 233.47812225954564,119.58159416687707 L 233.499333681082,119.57882697852155 L 233.53581432608374,119.55859565764264 L 233.55419556166703,119.53772072607401 L 233.57181273921444,119.46188010165481 L 233.55759425551028,119.41431819256195 L 233.54115288639744,119.3816165276391 L 233.5331662281673,119.35308643590201 L 233.54105490146912,119.32117750189096 L 233.57002042348947,119.26267606338892 L 233.6055529827181,119.22395516569696 L 233.69320350487038,119.20967139655123 L 233.70670682678448,119.19847780667443 L 233.7275575182555,119.1512393183237 L 233.73367647382366,119.05020591480333 L 233.7498087842813,119.01948709860234 L 233.77952525693476,119.009181860185 L 233.81130652514028,119.01122107383601 L 233.83499329827745,119.02323873693024 L 233.851967747886,119.11374478972115 L 233.8704043407699,119.17943133233528 L 233.92218158088946,119.24155902972392 L 234.02209679070043,119.29219756736187 L 234.06232644526582,119.35999372303046 L 234.07990606608337,119.370103267234 L 234.10700571840965,119.41668011415138 L 234.1413049552157,119.45367203661212 L 234.21571103104952,119.48049017737274 L 234.36842717228336,119.51170353936357 L 234.57694650615855,119.53564405832854 L 234.61254902893646,119.54862284717993 L 234.63844306554685,119.5471285538724 L 234.65604640112142,119.55940174379067 L 234.68072026579148,119.56046331572337 L 234.7367551222292,119.59278903574028 L 234.75646597627565,119.61050317368246 L 234.7657064624994,119.65380090072637 L 234.76985799939237,119.72742111748873 L 234.78958982713317,119.8515940722935 L 234.78109423490343,119.9314813586387 L 234.7929124767073,119.95904276316529 L 234.81302626447393,119.98021330896466 L 234.83696239630953,119.9927021853151 L 234.91739245373336,120.02540544709237 L 234.95873988290347,120.04610240957236 L 234.99081749998865,120.06816947437406 L 235.05781322761405,120.10692483006642 L 235.1096125231776,120.12294849975444 L 235.17207181681948,120.12563929354309 L 235.23173543801772,120.11083259509988 L 235.25651235250487,120.1196074914917 L 235.2918356967788,120.14340550732354 L 235.34131890468532,120.1860622232019 L 235.3814701721401,120.21161271826705 L 235.4582519242195,120.25170407549793 L 235.55877986062475,120.27666371878172 L 235.60457010175094,120.2947034304006 L 235.66315398075824,120.32237906512137 L 235.72670657091757,120.36811889857334 L 235.80883892523963,120.43175560773953 L 235.8663467761607,120.48229001976458 L 235.9308177707811,120.53406158869933 L 236.0403722436705,120.58971358597711 L 236.21987965692398,120.67493241580141 L 236.2672592851182,120.69305247698615 L 236.37655659909302,120.7143799863508 L 236.48897957017374,120.71523724769966 L 236.51359152364665,120.71784410153599 L 236.57948167757013,120.71595502264115 L 236.6564902925495,120.71934620871417 L 236.7212658089786,120.71554619250371 L 236.78912102811174,120.69878917532753 L 236.82615371539,120.67738684236096 L 236.85408497785977,120.64761518010866 L 236.8729027605865,120.63451493647794 L 236.94513016983424,120.61618516749462 L 237.03704138111925,120.55045131902634 L 237.0756747941284,120.52744226793227 L 237.15231194406462,120.46408989486434 L 237.19193565366834,120.44494958564485 L 237.23244816259648,120.43400881716562 L 237.26566795882317,120.43265626131051 L 237.3400974055914,120.4563747687777 L 237.38119191069637,120.48685848815299 L 237.40014457367909,120.51517633834726 L 237.41468116623477,120.56069794367683 L 237.40540998758797,120.58643752822152 L 237.38252087315718,120.60889749437241 L 237.31254749422922,120.62922476636399 L 237.27305643136503,120.64552531093811 L 237.23648841136733,120.68575149239767 L 237.2250901917544,120.73149713300951 L 237.22242305846763,120.79162970016034 L 237.23621741320787,120.84918922011431 L 237.26863803777255,120.90122424671053 L 237.3013176862157,120.92003260804373 L 237.37539726686686,120.93663985873681 L 237.44932505223153,120.9414004616343 L 229.8654211945072,132.6758548916024 L 230.048659916938,144.3500621971996 L 228.2593435683885,144.8911688393232 L 218.83646074267494,145.30729456358387 L 218.56565975400136,140.58204591619466 L 213.66165844950677,140.58740629779214 L 213.29289981472152,133.4229202629376 L 204.96614926883848,124.80477727680471 L 197.01481623585198,125.11707093438964 L 197.13892012164519,113.64927966213489 z" id="c36065"/>
		<path d="M 263.34148663045613,190.5783626254861 L 268.1102276027713,180.21842905803933 L 278.08662417365235,178.76021009333198 L 277.610808845414,176.6591261405803 L 301.18597953875724,172.87534617394377 L 301.0616678254124,185.80762892692331 L 294.85205500320166,195.6715658719554 L 290.23268257523296,192.31329717690204 L 286.5892516866264,197.7483534583543 L 274.87137221664443,196.5221114827231 L 267.63379156612416,192.77991043850614 L 263.34148663045613,190.5783626254861 z" id="c36039"/>
		<path d="M 286.87109070023746,294.15509260516575 L 287.92196379394045,292.7983365706665 L 287.9398089891181,292.75216750883794 L 288.239074246587,291.977756930448 L 288.76568322190013,290.61435045401265 L 292.1262477645988,290.873586369154 L 292.27664903431145,290.6169081353993 L 292.28482904940466,289.6670097597778 L 294.3089468624658,291.00236652812066 L 294.3303713724626,291.0392485537894 L 296.5488179785247,292.7514848396774 L 297.10913827379113,292.51305508727904 L 297.3641580652529,293.42558804217606 L 298.1634174376209,295.9649461821901 L 299.3484879305443,300.5159210584017 L 293.4188774396123,302.77121084619125 L 291.70677165264135,301.5583481591265 L 290.8019023820813,300.916808740199 L 288.4723938463829,299.6567986236695 L 288.3996173903163,299.6174037567907 L 288.223719196491,298.70257818745006 L 287.43990467743396,297.06791025450667 L 287.4868366676727,295.4139723180979 L 286.7050541902627,294.36936083687766 L 286.87109070023746,294.15509260516575 z" id="c36047"/>
		<path d="M 252.13022326623994,103.5425278786313 L 248.64405633645674,64.00570473003204 L 264.234375740009,62.15412104308816 L 276.60211554835075,60.76889325908651 L 277.8346911842397,70.98334076872008 L 273.8696915061474,73.98859019922413 L 279.87561906274266,81.75070616831798 L 283.0482321103511,80.4884759672557 L 288.0477272080759,82.74685269845835 L 287.5577836725121,86.25591299302997 L 279.8182976494281,87.31435232913223 L 282.45116070817545,111.49813822059201 L 283.42358721362996,119.45551791294756 L 279.4235175379,121.65178975369085 L 274.2086552003936,120.26634337531925 L 263.8987606300805,121.1306175728025 L 255.1247429597742,117.14106306404874 L 247.49307699548103,113.43893869281682 L 252.13022326623994,103.5425278786313 z" id="c36041"/>
		<path d="M 279.8182976494281,87.31435232913223 L 287.5577836725121,86.25591299302997 L 317.9102415969027,82.16183082709125 L 315.2808351720396,92.10023317401998 L 309.714243608447,98.22176664084239 L 308.25719188167847,102.94603327718544 L 310.3746894557788,115.88624830851093 L 303.21603090409883,118.71583179940164 L 301.8622504593746,121.60158045256256 L 298.47748594407614,119.46854330860471 L 298.96435022242855,115.97608388932709 L 296.07403668798634,109.70739324503901 L 282.45116070817545,111.49813822059201 L 279.8182976494281,87.31435232913223 z" id="c36113"/>
		<path d="M 301.7063865288947,284.59027529447445 L 303.28132616390303,280.53035055339444 L 303.6325834900871,280.2499537105152 L 305.045802612264,280.6345537864211 L 308.0861045507815,280.07613940867066 L 309.9681165715764,278.7369332310603 L 315.99268945827623,277.33673389814214 L 316.12352346850827,276.99694834412253 L 317.9458771711305,280.80292481026817 L 319.2148607656192,288.59434939922625 L 319.3481987454866,289.3945856301495 L 320.0342590397939,294.0222820132333 L 320.0226550976756,297.92032285149855 L 316.89236265289554,298.91911940826316 L 315.7375783276616,299.2869223507816 L 308.85892697687456,300.03594289435637 L 303.20423605840426,299.61650899633105 L 303.6553646370901,296.04150661424507 L 304.5171795373704,295.2786328963404 L 304.3637993505707,294.6183448772471 L 304.34886553470386,294.05176779085383 L 304.4727332584189,293.51206142067684 L 304.3935277630353,291.49093496833444 L 304.28201586685753,290.837740869751 L 304.5099521969045,290.4891735934825 L 305.3871135413347,290.25100255980533 L 305.69063436200753,288.58084225791714 L 303.1838564232921,286.56215379836914 L 301.7063865288947,284.59027529447445 z" id="c36059"/>
		<path d="M 39.68900923619921,120.96054368952592 L 39.96929814130981,120.36583294325794 L 40.57368524003594,119.08289091986413 L 40.43151673249066,114.411330625368 L 39.720074783430285,111.63160981507743 L 51.599367594411135,108.56893017901928 L 65.92737979303477,105.81347887015046 L 69.9677737828297,105.92973165325216 L 69.1345966688699,122.30427946669843 L 69.04927120291465,125.0043571683149 L 66.80646596903533,124.26230823492013 L 62.07914074048437,125.77324890664669 L 56.00557029573729,124.487592642566 L 55.13696638204281,125.51421232990401 L 50.740427599249195,126.63775655439694 L 50.9706532632205,127.77466523338568 L 50.22455254255178,128.6959072183739 L 48.78122490550936,128.35773266994798 L 47.71543574710081,128.38680446859814 L 47.62519385077251,127.2432889456261 L 47.049300595163146,126.34362232175593 L 45.15601696533632,125.19340467625119 L 41.47267633544064,125.02837261418021 L 38.799445605577255,124.09079676436373 L 39.68900923619921,120.96054368952592 z" id="c36063"/>
		<path d="M 294.85205500320166,195.6715658719554 L 301.0616678254124,185.80762892692331 L 301.18597953875724,172.87534617394377 L 322.75467658005266,169.67337389015185 L 319.91860584717824,180.39648071627258 L 315.1288838556797,198.37901911539478 L 316.07152155268557,200.56840189871008 L 314.21498797207045,205.70517686467747 L 304.93331241797426,203.88565175108084 L 293.9007978989252,198.95284245215805 L 294.85205500320166,195.6715658719554 z" id="c36021"/>
		<path d="M 219.32349399101892,182.4644832537309 L 223.03533770724826,182.47920293860412 L 230.3087404769754,179.6404105253131 L 248.11906832941477,169.41450167904173 L 254.75365474733255,169.12116712769617 L 259.3462165858336,175.47370412278346 L 268.1102276027713,180.21842905803933 L 263.34148663045613,190.5783626254861 L 267.63379156612416,192.77991043850614 L 263.6369631686621,194.2958354872604 L 250.99364086060717,202.99819658257502 L 232.39522007611004,214.03438379332633 L 230.20594860245902,213.17163367265724 L 226.54904376947817,211.58860847257338 L 225.15814326980677,207.37722842118845 L 222.71417019410794,204.25165361975047 L 221.77027929790927,204.17530292231277 L 219.6514496025277,202.99145020751885 L 219.03739669141535,190.51601549530855 L 219.32349399101892,182.4644832537309 z" id="c36025"/>
		<path d="M 35.1400297835225,155.35440556721355 L 37.63684637605268,153.37212482057438 L 38.552645489723076,150.41677377817538 L 42.46590009387015,148.82282618249653 L 45.943267821111135,146.97771862784268 L 48.77676907113485,144.04371062517612 L 48.552415396318764,143.11431342521269 L 48.19681240906263,141.6401733266229 L 47.509171370549375,138.8577871607071 L 46.096702180893715,137.47107670995445 L 46.437533876103174,134.32580377237454 L 45.57932027618312,132.94501801860912 L 43.92054669997447,132.52370870904596 L 41.176310449847456,129.85979334906 L 42.13737749699317,125.68084594349075 L 41.5375556881108,125.0511023370636 L 41.47267633544064,125.02837261418021 L 45.15601696533632,125.19340467625119 L 47.049300595163146,126.34362232175593 L 47.62519385077251,127.2432889456261 L 47.71543574710081,128.38680446859814 L 48.78122490550936,128.35773266994798 L 50.22455254255178,128.6959072183739 L 50.9706532632205,127.77466523338568 L 50.740427599249195,126.63775655439694 L 55.13696638204281,125.51421232990401 L 56.00557029573729,124.487592642566 L 62.07914074048437,125.77324890664669 L 66.80646596903533,124.26230823492013 L 69.04927120291465,125.0043571683149 L 68.29009186396115,139.95378683192206 L 67.16820391765557,140.58268917989892 L 68.04740049417478,145.83453020139044 L 67.17107829966193,162.32434440583023 L 55.349345176388695,166.06668623262158 L 44.047212341878705,167.4475163753816 L 40.78418838510608,161.37855162989527 L 37.36804167152237,160.59943401989395 L 35.147688440703256,158.2948403130349 L 33.738856813859826,158.26564387825385 L 35.1400297835225,155.35440556721355 z" id="c36029"/>
		<path d="M 289.0360049847083,1.365493747843449 L 296.3894856467465,1.0997736601686123 L 307.6896680324121,0.916470769628725 L 321.9553350001314,0.3334241896001106 L 321.8980774504228,3.0717435612043866 L 322.20239980918245,6.649045947923973 L 320.2638224970747,10.775265350285286 L 320.96091770068955,12.844057475448937 L 322.11207727817447,14.08141250396165 L 322.48105321357696,14.477790607510013 L 321.38473477042226,17.955077293009673 L 321.0285520191277,21.396085342073587 L 319.88672154735184,26.87284395029891 L 321.010632934641,30.39442868995341 L 321.23562438618563,30.737761517116212 L 321.9560639623854,31.836673077316448 L 316.3447298212903,32.449574898300355 L 314.77661126891604,35.95583469960101 L 306.41121277781326,39.026551952145304 L 294.74112743464764,39.84443881231597 L 291.0142115533362,21.00033633732009 L 289.0360049847083,1.365493747843449 z" id="c36019"/>
		<path d="M 172.30736508294348,72.3641730447922 L 178.88861488628623,69.37085953084288 L 177.5962408152262,65.75882926506557 L 174.29142961782313,65.24640097348191 L 175.03699220234634,62.476070029105685 L 174.65492537834152,60.58356866221299 L 175.44779753773622,58.38520610143492 L 176.5337480070573,56.26709594431182 L 178.94389402475048,53.69951704561277 L 182.84822874648356,53.06984235551318 L 184.96080300943748,51.42435231333674 L 185.1480462448281,48.638694569199075 L 188.31596601203213,47.443683576454546 L 193.07714218880733,44.302941127145324 L 195.5807657089278,44.25130948602657 L 199.95192225331638,40.54682381993766 L 219.90423202719586,53.63173011836304 L 214.90747403846626,61.315638269290204 L 217.8687523451295,63.31828329004043 L 214.8920329763888,70.47260972719579 L 211.9243948271585,70.17762607261959 L 204.24396493744726,76.30080578864354 L 200.21595332970352,75.86645986174896 L 199.59583323451636,82.0905479563757 L 202.71833373973922,82.39689195915153 L 203.18055801495956,89.14014920691663 L 190.90345142955238,87.64581520868859 L 190.99413264477647,90.2805616777695 L 182.19689900542588,89.24610190773522 L 181.7463460473472,84.27533664394444 L 181.04546864713888,80.8288685638872 L 177.83088230490392,77.15959289943899 L 174.71071224033687,76.02624546471668 L 170.7729436928583,75.2219428786411 L 172.30736508294348,72.3641730447922 z" id="c36045"/>
		<path d="M 221.45420119057465,175.96260310679733 L 220.12150497301585,169.2939024040977 L 223.85875593572274,165.35999854286916 L 225.74780299915864,153.48062441041276 L 228.0034246205192,150.77624558629375 L 228.2593435683885,144.8911688393232 L 230.048659916938,144.3500621971996 L 230.1021788132321,145.93562171818363 L 235.6028732111212,142.5025688814039 L 245.20473756693238,148.25645672425622 L 246.64454188304433,143.30995067563836 L 252.36948332037585,145.7340445493415 L 258.0758295358708,148.05849095490677 L 257.07849868704096,153.38500610318508 L 258.8566895637624,161.78847103206922 L 254.75365474733255,169.12116712769617 L 248.11906832941477,169.41450167904173 L 230.3087404769754,179.6404105253131 L 223.03533770724826,182.47920293860412 L 219.32349399101892,182.4644832537309 L 221.45420119057465,175.96260310679733 z" id="c36077"/>
		<path d="M 123.45426210894132,114.8872224842603 L 125.19883675298914,114.50531391539585 L 128.99080815347529,114.87170076404718 L 135.6197879057273,114.55358095087205 L 142.04669159312346,115.73870948841126 L 144.39336440844218,115.87019696684764 L 149.9309286527614,113.70328090303046 L 153.54772934086566,112.93530294450174 L 155.910415864085,111.71417537507647 L 156.34476130567424,129.1559663179284 L 155.65791038738828,132.93398871728942 L 143.223006096483,133.26724445651595 L 134.8120709670885,133.02138309651184 L 130.78940922950406,131.02171132127938 L 129.24066903521296,131.31534452911933 L 123.05709085845092,131.07940329584014 L 123.45426210894132,114.8872224842603 z" id="c36117"/>
		<path d="M 260.95552442406324,1.1385361402454353 L 269.331858399502,1.3938553556110158 L 279.0891711513469,1.7044587608775765 L 289.0360049847083,1.365493747843449 L 291.0142115533362,21.00033633732009 L 294.74112743464764,39.84443881231597 L 283.4865027601122,41.36110069612832 L 285.7953083625318,59.63279885039358 L 276.60211554835075,60.76889325908651 L 264.234375740009,62.15412104308816 L 264.7257755219566,57.321530540494166 L 259.33341973477377,1.2744408779886252 L 260.95552442406324,1.1385361402454353 z" id="c36033"/>
		<path d="M 183.60985771086544,175.23559260152211 L 189.059245696877,175.45465413931097 L 196.9530836500355,175.1769291767181 L 198.08874142912455,186.7958041814854 L 208.0509380423402,186.69562190229578 L 208.04361475928206,190.28394814869787 L 215.75875154889002,190.45148845695752 L 219.03739669141535,190.51601549530855 L 219.6514496025277,202.99145020751885 L 221.77027929790927,204.17530292231277 L 215.86202386014486,203.69275044072498 L 215.55919066310665,203.6882303995657 L 212.03111028975937,203.63404060310725 L 196.01761536135118,203.35264878789093 L 184.16054454920393,203.08144504241434 L 184.2646553360282,200.87168336175216 L 184.1273712270712,197.94773865787224 L 185.84535186656555,185.5885215609736 L 183.60985771086544,175.23559260152211 z" id="c36007"/>
		<path d="M 277.23815241133843,150.39225100298378 L 286.18355754206664,143.58946345340814 L 285.73527377432873,139.63026479986576 L 292.5714352259141,143.59414523590507 L 295.11074114721305,142.65464014908295 L 295.53568450601995,146.71917372364945 L 299.8553561630936,151.59661776386233 L 298.6976767151706,152.04585753503594 L 281.36576001933093,154.90488976046143 L 276.7734410155679,155.95564653925578 L 277.23815241133843,150.39225100298378 z" id="c36093"/>
		<path d="M 161.38664247218142,192.0846001692239 L 162.9093714584733,183.38241634360557 L 169.00571422000817,184.8252698340734 L 169.15387254207118,181.08211271479493 L 177.40197258928703,182.7692437853191 L 177.4337607905818,175.26835128726708 L 183.60985771086544,175.23559260152211 L 185.84535186656555,185.5885215609736 L 184.1273712270712,197.94773865787224 L 184.2646553360282,200.87168336175216 L 184.16054454920393,203.08144504241434 L 182.15998376089433,203.03231647845666 L 166.196476523312,202.60780606934748 L 165.64844622580523,202.58300409659577 L 161.38598099406525,202.387771265567 L 161.38664247218142,192.0846001692239 z" id="c36107"/>
		<path d="M 290.350416545899,241.02018756056543 L 292.7255504340401,232.00009139681978 L 293.33937322083966,222.12877755670516 L 292.15305178407465,210.1525538382339 L 293.9007978989252,198.95284245215805 L 304.93331241797426,203.88565175108084 L 314.21498797207045,205.70517686467747 L 316.07152155268557,200.56840189871008 L 316.19238884550975,200.84895740594354 L 315.3870122940105,216.1246688430427 L 314.7925684090653,226.74555711264705 L 314.6956657262381,228.47154444534098 L 314.2471686907184,236.18287588884343 L 311.70218633438,236.24313320469517 L 306.9554408286128,237.05832930222957 L 293.72198492538394,238.87407197142878 L 291.2976414414035,242.21275353908214 L 290.350416545899,241.02018756056543 z" id="c36027"/>
		<path d="M 161.25158624183592,106.2842036570916 L 166.34782311832075,102.9827644290367 L 171.28550844778033,99.72593607340909 L 173.58991337114318,99.4949071053828 L 173.6933639322687,99.48450606683777 L 176.08898234703113,100.46597279234504 L 180.24863668762646,99.42430623853043 L 181.9198151921944,96.37059165488164 L 182.3851088129569,91.31805723636256 L 182.19689900542588,89.24610190773522 L 190.99413264477647,90.2805616777695 L 190.90345142955238,87.64581520868859 L 203.18055801495956,89.14014920691663 L 203.7848697031754,103.9464882103374 L 200.9242998207077,102.99518180580074 L 197.13892012164519,113.64927966213489 L 197.01481623585198,125.11707093438964 L 194.64389740577337,123.642609584972 L 193.50733012067252,123.91526429509359 L 193.33357304251692,123.3558818484433 L 192.33238812544616,123.53561553776836 L 191.70371154074496,122.99590749254969 L 191.6531365721567,123.11578119988214 L 187.47109002207608,121.93284650086217 L 181.03430695591612,117.10055747279443 L 181.53666213346517,120.89766378100109 L 178.60122826741485,119.13737750827028 L 167.68762414148875,119.51566436388245 L 161.5180329217999,117.57287695530037 L 161.25158624183592,106.2842036570916 z" id="c36075"/>
		<path d="M 278.3812849696226,262.2089700180851 L 291.30447043513874,249.93286232556073 L 291.24336581261946,250.1356546570111 L 291.84631542425944,255.12381690607825 L 296.10544773961533,262.5281715958402 L 295.8047224292525,271.5176913114768 L 295.7849048200095,272.06517365534154 L 288.2556246424832,267.8848899515224 L 279.54182489900944,262.8779483894409 L 278.3812849696226,262.2089700180851 z" id="c36087"/>
		<path d="M 154.4063682831467,136.53338143510328 L 155.65791038738828,132.93398871728942 L 156.34476130567424,129.1559663179284 L 155.910415864085,111.71417537507647 L 157.7759258182276,110.74858633563233 L 160.56901325270601,106.72553470001331 L 161.25158624183592,106.2842036570916 L 161.5180329217999,117.57287695530037 L 167.68762414148875,119.51566436388245 L 166.6302303414248,134.55102206945622 L 168.37413297118263,145.37540542753007 L 173.04666142403732,145.25393805530888 L 177.00459483571663,150.65007694923418 L 177.19910022013707,160.64718459124322 L 167.55799850777387,160.7241159594822 L 157.1782620931314,160.09226718454124 L 154.1334715403619,153.4149476950996 L 154.4063682831467,136.53338143510328 z" id="c36011"/>
		<path d="M 201.29465940387186,39.40663150059368 L 202.64269396173535,36.0992284585228 L 204.71872305170405,33.14515876578113 L 214.5306838570121,23.64778302720961 L 221.57811599146797,17.14977680501557 L 225.9861247337138,13.825716488923108 L 229.81110960977455,10.405611050464781 L 235.27639378740224,7.592682632724613 L 238.99773699165598,5.609506768031133 L 241.96210971597117,3.7302818159865394 L 242.5736792863127,2.4455497615138606 L 246.6591797655306,2.0890735789959654 L 250.2063544904853,0.0 L 254.5229552631013,1.67374901711563 L 255.4295739452937,1.598918411879274 L 259.33341973477377,1.2744408779886252 L 264.7257755219566,57.321530540494166 L 264.234375740009,62.15412104308816 L 248.64405633645674,64.00570473003204 L 238.44134433173312,65.22769914454086 L 233.23847527414273,62.00758743954982 L 219.90423202719586,53.63173011836304 L 199.95192225331638,40.54682381993766 L 201.29465940387186,39.40663150059368 z" id="c36089"/>
		<path d="M 110.38768602888678,148.9583935664281 L 112.44590688013328,136.80178136156005 L 117.30385277869999,137.0518344221172 L 117.40576254712988,130.86704229679276 L 123.05709085845092,131.07940329584014 L 129.24066903521296,131.31534452911933 L 130.78940922950406,131.02171132127938 L 134.8120709670885,133.02138309651184 L 143.223006096483,133.26724445651595 L 142.00938311089104,143.51177540897086 L 142.28137021457047,150.08603809603702 L 125.25781893688999,149.67534962261854 L 123.95876676221117,151.56198833885477 L 122.29249068426222,156.7508133667886 L 122.11245460109771,162.07111089999762 L 117.66195689879261,161.86204768727248 L 115.90198831073431,161.76562562043387 L 116.35278278744848,155.4887877841067 L 110.77449619762882,155.1489160412462 L 110.38768602888678,148.9583935664281 z" id="c36069"/>
	</g>
</svg>