<?xml version="1.0" encoding="UTF-8"?>
<svg baseProfile="full" fill="#d0d0d0" height="238.46129150925128" stroke="#ffffff" stroke-width="1" version="1.1" width="400.0" xmlns="http://www.w3.org/2000/svg" xmlns:ev="http://www.w3.org/2001/xml-events" xmlns:xlink="http://www.w3.org/1999/xlink">
	<defs/>
	<g id="counties"><path d="M 200.91982813777844,38.94922312924901 L 207.58075544220813,38.894202986987075 L 240.82721395537197,38.635120761255465 L 241.01198269819173,51.97369705251598 L 222.91309342256753,52.14545561102843 L 223.07559040837353,78.97373747331113 L 225.04758778014624,92.31450662173066 L 211.77350979139985,92.3956685122345 L 205.13053257898045,92.40970095455847 L 203.07122332240667,79.05631424307799 L 200.95795797871799,52.26799846309245 L 200.91982813777844,38.94922312924901 z" id="c38069"/>
		<path d="M 322.6818758420819,63.610957379217176 L 361.70503589064776,62.219310938120834 L 361.5697881576226,63.79685762709318 L 361.5389320861676,64.15650412667068 L 363.9030159309671,69.98110840091746 L 366.0013727578981,74.88715576256476 L 367.9414999642418,81.9403814893452 L 370.35589193422464,88.65620454338988 L 374.2023545064188,96.12194692166743 L 376.2674572067745,101.61258865220574 L 346.29319387925256,102.8848140302333 L 325.09589066251567,103.63695398798552 L 324.2156164234709,76.9130032744905 L 322.6818758420819,63.610957379217176 z" id="c38035"/>
		<path d="M 139.218755600426,3.784041174351825 L 157.95812387681622,3.9826410211399845 L 192.9907279719772,4.082309713830975 L 205.56794066731533,4.064312602136916 L 205.63322626359658,25.57549694606182 L 207.53916657951578,25.56995980606479 L 207.58075544220813,38.894202986987075 L 200.91982813777844,38.94922312924901 L 194.30291454089215,38.97683859699912 L 194.28136934389497,32.28277823920279 L 161.08079042042192,32.147157883700814 L 161.03128385817837,38.81735160471637 L 141.08392127772103,38.57487032803978 L 141.257151820914,25.23073878009662 L 139.218755600426,3.784041174351825 z" id="c38009"/>
		<path d="M 105.8133186751256,158.01428228492608 L 123.20398307049305,158.33269470525124 L 166.66641246569657,158.6854980366983 L 168.10844909599263,164.70938093435646 L 174.81039590729492,177.60242984764884 L 174.35834618711553,181.122698316322 L 180.98523711740194,185.43696924541803 L 186.31477891532347,189.02861978328548 L 184.7593402713876,201.28899852761577 L 177.80391556117448,204.17368044933994 L 169.14943576573597,202.6828633268976 L 161.60157872617748,212.19723058380708 L 160.4345186360468,205.51704492587865 L 147.14480498931715,205.4065823384774 L 147.3555356695451,185.55089360942893 L 125.1973105787452,185.2010435401518 L 125.31255984160572,178.56699065115512 L 105.38514969188438,178.21472120325294 L 105.8133186751256,158.01428228492608 z" id="c38059"/>
		<path d="M 266.8170906771712,185.0624418757354 L 298.3649308635792,184.28492467338322 L 319.7549498644315,183.69853689445236 L 320.55562852849874,210.36925528225242 L 269.09360071009917,211.64894625505127 L 267.2778054945701,211.68522639504945 L 266.8170906771712,185.0624418757354 z" id="c38045"/>
		<path d="M 319.81669635324016,103.79999911204987 L 325.09589066251567,103.63695398798552 L 346.29319387925256,102.8848140302333 L 347.2555658822848,129.51329192591382 L 348.68017578721,136.01697225306933 L 335.40194208930905,136.44071598880402 L 322.07952475670777,136.8664089016402 L 320.55286305473135,130.32793926604842 L 319.81669635324016,103.79999911204987 z" id="c38091"/>
		<path d="M 242.65464417406386,132.0163884254059 L 253.85522764181468,131.85792470333269 L 293.8296475102536,131.07016591167573 L 295.53930920035896,132.06895430484582 L 295.6775430211695,137.6288458158927 L 297.6284849563825,157.5774754624893 L 298.3649308635792,184.28492467338322 L 266.8170906771712,185.0624418757354 L 245.00286156324225,185.30269584332063 L 244.84648775373674,158.58113406867193 L 242.65464417406386,132.0163884254059 z" id="c38093"/>
		<path d="M 300.6801627385517,37.50154728115473 L 320.58934258059145,36.948621437260186 L 360.2514094764892,35.634896564040936 L 360.22717684082465,36.28395840514183 L 361.0676010923804,44.06312695251405 L 361.41441377242523,50.6471403861999 L 362.1275790807691,57.27857142327897 L 361.70503589064776,62.219310938120834 L 322.6818758420819,63.610957379217176 L 302.74808429759867,64.19526512206029 L 301.03342303799553,50.849228061818835 L 300.6801627385517,37.50154728115473 z" id="c38099"/>
		<path d="M 251.6297545981605,92.02704290543775 L 289.8640520896294,91.2132768916592 L 291.45899599396597,91.26424241175943 L 291.8007378709246,104.59980282633633 L 293.1058363984874,104.55949296253269 L 293.27708885539886,111.08927275399105 L 253.5630332287472,111.87838611504327 L 251.82784725619877,105.35569736116177 L 251.6297545981605,92.02704290543775 z" id="c38027"/>
		<path d="M 24.513241884476457,128.863201596911 L 54.0733042492656,129.9901313398378 L 57.55516996182666,130.10604698538998 L 56.67843128445066,156.78022421372918 L 46.27514372644951,156.45332669634743 L 45.30939646907286,183.30849611242704 L 25.381212261667994,182.5628174549896 L 26.426345965029693,155.74899477660745 L 23.412544451881168,155.6345864988269 L 24.513241884476457,128.863201596911 z" id="c38007"/>
		<path d="M 112.42104174761246,18.09331734503075 L 112.73083326807223,3.3893236081752574 L 132.71094266455273,3.694356777457697 L 139.218755600426,3.784041174351825 L 141.257151820914,25.23073878009662 L 141.08392127772103,38.57487032803978 L 161.03128385817837,38.81735160471637 L 160.97507356039208,45.489314730092495 L 121.02612660824772,44.92945429739229 L 121.39823309305493,24.93715539495496 L 112.30291041988356,24.75454588803218 L 112.42104174761246,18.09331734503075 z" id="c38075"/>
		<path d="M 161.03128385817837,38.81735160471637 L 161.08079042042192,32.147157883700814 L 194.28136934389497,32.28277823920279 L 194.30291454089215,38.97683859699912 L 200.91982813777844,38.94922312924901 L 200.95795797871799,52.26799846309245 L 203.07122332240667,79.05631424307799 L 205.13053257898045,92.40970095455847 L 185.14347964309277,92.42892623064277 L 165.2191471865857,92.28666795499255 L 163.04230315076745,78.92514236633419 L 163.25813356311724,52.18033301696991 L 160.97507356039208,45.489314730092495 L 161.03128385817837,38.81735160471637 z" id="c38049"/>
		<path d="M 165.20012134042082,145.3144093101515 L 176.49959568063466,145.35730992519282 L 176.54295551395475,132.28978142831212 L 180.5112332992231,132.30344442596925 L 209.7011194460464,132.2932134898845 L 211.82712766291857,158.8081625580394 L 211.65613980920415,185.47913692888162 L 180.98523711740194,185.43696924541803 L 174.35834618711553,181.122698316322 L 174.81039590729492,177.60242984764884 L 168.10844909599263,164.70938093435646 L 166.66641246569657,158.6854980366983 L 169.59160556119588,155.89679672920374 L 165.20012134042082,145.3144093101515 z" id="c38015"/>
		<path d="M 56.93750932643312,210.47295100137467 L 60.695404154822825,210.5241717061477 L 83.37982505046685,211.0342437986561 L 83.25603645691405,216.95801909707956 L 109.81845327534272,217.59350544101682 L 109.5750161057742,229.24692751008092 L 109.39431888046283,237.58068278722905 L 109.29022420228922,237.57859280797214 L 104.64520098839722,237.48270434707106 L 91.77751655490347,237.18694611947768 L 79.87089120918925,236.87687066836364 L 71.64236791412982,236.64954614244945 L 62.2672053452594,236.376088131 L 58.96287751850557,236.27268300753528 L 56.12044156134707,236.18164962945232 L 56.93750932643312,210.47295100137467 z" id="c38001"/>
		<path d="M 293.1058363984874,104.55949296253269 L 319.81669635324016,103.79999911204987 L 320.55286305473135,130.32793926604842 L 322.07952475670777,136.8664089016402 L 295.6775430211695,137.6288458158927 L 295.53930920035896,132.06895430484582 L 293.8296475102536,131.07016591167573 L 293.27708885539886,111.08927275399105 L 293.1058363984874,104.55949296253269 z" id="c38039"/>
		<path d="M 291.1172045849206,77.85950698180544 L 296.42207515991765,77.72580578815865 L 296.0911464010693,64.4072143507588 L 302.74808429759867,64.19526512206029 L 322.6818758420819,63.610957379217176 L 324.2156164234709,76.9130032744905 L 325.09589066251567,103.63695398798552 L 319.81669635324016,103.79999911204987 L 293.1058363984874,104.55949296253269 L 291.8007378709246,104.59980282633633 L 291.45899599396597,91.26424241175943 L 291.32441840199243,85.9912738724122 L 291.1172045849206,77.85950698180544 z" id="c38063"/>
		<path d="M 295.6775430211695,137.6288458158927 L 322.07952475670777,136.8664089016402 L 335.40194208930905,136.44071598880402 L 337.3957514604211,156.43036701156083 L 338.32799880674054,183.13490422315397 L 319.7549498644315,183.69853689445236 L 298.3649308635792,184.28492467338322 L 297.6284849563825,157.5774754624893 L 295.6775430211695,137.6288458158927 z" id="c38003"/>
		<path d="M 220.40170098884388,185.4593220547857 L 245.00286156324225,185.30269584332063 L 266.8170906771712,185.0624418757354 L 267.2778054945701,211.68522639504945 L 222.5801550282977,212.2814877424287 L 220.53888191986684,212.27092500006302 L 220.40170098884388,185.4593220547857 z" id="c38047"/>
		<path d="M 205.56794066731533,4.064312602136916 L 219.14288138940915,4.000138302427374 L 238.73473043415567,3.788482200301301 L 238.99615213859414,25.341606591729548 L 240.66607361742237,25.322466409783168 L 240.82721395537197,38.635120761255465 L 207.58075544220813,38.894202986987075 L 207.53916657951578,25.56995980606479 L 205.63322626359658,25.57549694606182 L 205.56794066731533,4.064312602136916 z" id="c38079"/>
		<path d="M 61.366563665913255,183.8163361908351 L 105.22341851864388,184.8627984795952 L 107.62580612764987,184.91929947672412 L 107.33680156255988,211.53256821961105 L 109.81845327534272,217.59350544101682 L 83.25603645691405,216.95801909707956 L 83.37982505046685,211.0342437986561 L 60.695404154822825,210.5241717061477 L 61.366563665913255,183.8163361908351 z" id="c38041"/>
		<path d="M 66.40006886424034,2.1756862791299505 L 70.86727423689699,2.3056980579355115 L 102.84294642319583,3.2011250215123566 L 112.73083326807223,3.3893236081752574 L 112.42104174761246,18.09331734503075 L 105.80709483687092,17.95262658827717 L 105.64751294096399,24.619227454256478 L 101.53332269658758,24.530847447221138 L 101.22393642558082,37.87359681624647 L 68.02950381180362,36.99906322835753 L 68.23137009853914,30.33434649507024 L 68.43903370009471,23.6477346698497 L 65.68624370779729,23.564613664505124 L 66.40006886424034,2.1756862791299505 z" id="c38013"/>
		<path d="M 238.73473043415567,3.788482200301301 L 246.29394258744114,3.680941913053043 L 265.2906260969205,3.3153126099935366 L 265.6992705893587,24.940605109346368 L 267.45644320630174,38.251359676241535 L 267.69308129180195,51.58375322463359 L 255.96644401924252,51.776203383049214 L 241.01198269819173,51.97369705251598 L 240.82721395537197,38.635120761255465 L 240.66607361742237,25.322466409783168 L 238.99615213859414,25.341606591729548 L 238.73473043415567,3.788482200301301 z" id="c38095"/>
		<path d="M 1.3102944617092782,204.96579581366026 L 1.9734247007524197,190.7807674402315 L 2.0766467901965373,188.4009679215595 L 14.983680178585503,188.9783297185186 L 15.270853118863922,182.15705761454106 L 25.381212261667994,182.5628174549896 L 45.30939646907286,183.30849611242704 L 61.366563665913255,183.8163361908351 L 60.695404154822825,210.5241717061477 L 56.93750932643312,210.47295100137467 L 1.1566663537597122,208.3708768260012 L 1.3102944617092782,204.96579581366026 z" id="c38087"/>
		<path d="M 209.7011194460464,132.2932134898845 L 213.86987141127108,132.27800485967086 L 242.65464417406386,132.0163884254059 L 244.84648775373674,158.58113406867193 L 245.00286156324225,185.30269584332063 L 220.40170098884388,185.4593220547857 L 211.65613980920415,185.47913692888162 L 211.82712766291857,158.8081625580394 L 209.7011194460464,132.2932134898845 z" id="c38043"/>
		<path d="M 10.40242310620783,0.0 L 44.369092815126386,1.460813756275211 L 66.40006886424034,2.1756862791299505 L 65.68624370779729,23.564613664505124 L 68.43903370009471,23.6477346698497 L 68.23137009853914,30.33434649507024 L 9.167159941083534,28.055447842745448 L 9.86564059270876,11.690061072118109 L 10.40242310620783,0.0 z" id="c38023"/>
		<path d="M 335.40194208930905,136.44071598880402 L 348.68017578721,136.01697225306933 L 380.79363692733176,134.72688882859205 L 381.59944458629917,141.4006770644061 L 382.2400009704012,146.69620062070103 L 381.7394592347711,152.1720729549002 L 385.73731543361265,159.474537394577 L 384.92286712713457,169.86902981840416 L 385.33293844005266,176.3554635321195 L 385.34152098566994,180.6470796987853 L 385.3844687827347,180.7320278989572 L 384.0055463603343,181.22380263568758 L 359.5469565017949,182.36349939698414 L 338.32799880674054,183.13490422315397 L 337.3957514604211,156.43036701156083 L 335.40194208930905,136.44071598880402 z" id="c38017"/>
		<path d="M 109.5750161057742,229.24692751008092 L 117.55114666172999,227.8580112555465 L 118.08460642739644,230.95173039695942 L 122.83464492130261,230.36878610603404 L 127.34102342460046,232.74045532088232 L 129.60188899955614,230.8266398739301 L 133.22933210877676,233.19161738970857 L 146.88748768600655,225.83911327449377 L 146.8147628063345,223.65923671277147 L 152.79131096623385,222.53353972135295 L 152.3716141032938,219.8407762653333 L 161.60157872617748,212.19723058380708 L 169.14943576573597,202.6828633268976 L 177.80391556117448,204.17368044933994 L 184.7593402713876,201.28899852761577 L 186.82341607668454,206.22767671114548 L 186.42686374921925,214.92821614129073 L 182.65933414540356,222.92571560533074 L 183.43120206900096,228.58524993401878 L 188.9015317848372,238.4129043988153 L 175.52295159550175,238.3809096066554 L 157.08796706525067,238.26231240945404 L 143.26644705817907,238.12452045627128 L 132.99950295241837,237.99826210170642 L 120.30897514177968,237.78550183383027 L 109.39431888046283,237.58068278722905 L 109.5750161057742,229.24692751008092 z" id="c38085"/>
		<path d="M 4.803013684673848,127.81349814470315 L 5.045732408398115,122.82723038772275 L 5.814033614072704,107.03785700536827 L 6.584657756608672,91.7183748120528 L 7.086659141112008,78.82419564678695 L 7.163397500260617,76.94164188179859 L 13.421957991184332,80.30008032413447 L 16.88298719279562,75.91096381661407 L 19.668777523261426,77.62597798999242 L 20.72255476132289,72.66357175301798 L 24.59101118933872,72.3652142939362 L 22.996587612923648,70.15489585427716 L 30.544403536258432,67.31327663021024 L 32.92151033960012,70.98843035723345 L 30.961426617281397,73.49085197788659 L 35.946195593100974,77.3215235317651 L 38.94584727122906,75.19348320883435 L 46.15403922444697,75.13362871387807 L 49.454725554488064,72.56350171459597 L 50.84991372172365,68.00054983757497 L 55.74335408455147,67.29984205028933 L 69.98526174358959,69.49931617302332 L 78.35512825476968,73.34597194198886 L 83.92589632267523,79.59511722165107 L 78.96129876522981,86.40050779053088 L 78.91648922801816,92.76696637371734 L 78.58259628204885,104.24186608202054 L 54.925994559946744,103.48874916648205 L 54.0733042492656,129.9901313398378 L 24.513241884476457,128.863201596911 L 4.796978261309665,127.9525172093029 L 4.803013684673848,127.81349814470315 z" id="c38053"/>
		<path d="M 68.02950381180362,36.99906322835753 L 101.22393642558082,37.87359681624647 L 114.4967491743237,38.13338048781569 L 114.2328243855807,51.495345417915075 L 116.85463393802151,51.53945579836541 L 116.37564335638294,78.31642272657679 L 118.97791018043527,78.36247053530448 L 118.72603320040817,91.8261330608373 L 92.2095564182098,91.26221807577838 L 92.03859487741194,98.14377042889673 L 82.97440841024189,96.22045647014838 L 78.91648922801816,92.76696637371734 L 78.96129876522981,86.40050779053088 L 83.92589632267523,79.59511722165107 L 78.35512825476968,73.34597194198886 L 69.98526174358959,69.49931617302332 L 70.56731192982996,50.41043293611446 L 67.6198286193791,50.31728547420494 L 68.02950381180362,36.99906322835753 z" id="c38061"/>
		<path d="M 318.28207929789176,1.9083038926365299 L 327.0764925955751,1.608440419267568 L 354.66265087529865,0.5465654197831206 L 354.89764417396543,4.747818956323854 L 357.19589970766333,10.662914515478972 L 359.2653167333397,17.871256744513786 L 361.047818272241,22.326863718778114 L 362.2771162046774,25.780985835764312 L 360.37458845846294,32.32848169358001 L 360.26044354136695,35.39280527857794 L 360.2514094764892,35.634896564040936 L 320.58934258059145,36.948621437260186 L 319.0149970385899,23.59914093485464 L 318.28207929789176,1.9083038926365299 z" id="c38067"/>
		<path d="M 101.0594849502245,112.42490603714545 L 109.80860994799983,112.74360205615346 L 121.27012678255656,118.79558861482718 L 126.8430654120024,115.6813660129929 L 130.25037006480224,116.49143412851396 L 141.37590926992345,114.06087815142477 L 144.30613149298662,117.41402419524876 L 140.67013777593797,120.54649351122296 L 144.61191920008636,128.97285258022401 L 145.42421438728053,134.81683644805577 L 150.03120763788644,136.9342045116229 L 149.98237470932267,138.73954983806627 L 123.51176397841779,138.38538461848094 L 123.20398307049305,158.33269470525124 L 105.8133186751256,158.01428228492608 L 103.29645005989342,155.74029361106656 L 103.82310267947216,131.3829586852177 L 100.63857395013606,131.31565813149828 L 101.0594849502245,112.42490603714545 z" id="c38057"/>
		<path d="M 222.91309342256753,52.14545561102843 L 241.01198269819173,51.97369705251598 L 255.96644401924252,51.776203383049214 L 256.2600032091809,68.29207058422234 L 262.96971844708526,71.81557546691063 L 263.09434313260897,78.40279334301778 L 266.61413154202324,75.93319677063276 L 267.2100406446875,80.757055209611 L 276.73850071887927,75.22043416930624 L 279.60963185073615,81.09851565291869 L 277.41180545178634,83.53579590302535 L 283.6197827116045,79.63064334535305 L 286.17671750593036,86.01438897217503 L 291.32441840199243,85.9912738724122 L 291.45899599396597,91.26424241175943 L 289.8640520896294,91.2132768916592 L 251.6297545981605,92.02704290543775 L 225.04758778014624,92.31450662173066 L 223.07559040837353,78.97373747331113 L 222.91309342256753,52.14545561102843 z" id="c38005"/>
		<path d="M 322.0346960462733,210.32493411349083 L 360.6040974450177,208.93973503056074 L 361.76166915971436,209.62919078094603 L 362.61741638016144,230.7390642852967 L 364.486852401583,235.38231630243433 L 347.6896017504145,236.07923463742773 L 335.157539576945,236.5221839576857 L 324.3716369743997,236.8408510461354 L 322.80377329633995,236.8848653843566 L 322.0346960462733,210.32493411349083 z" id="c38081"/>
		<path d="M 359.5469565017949,182.36349939698414 L 384.0055463603343,181.22380263568758 L 385.3844687827347,180.7320278989572 L 385.61777378035055,181.1934278618184 L 388.03215779201565,185.9619953110557 L 390.38178814930524,195.87735898052404 L 393.9418942914083,201.59799281011576 L 396.5420767077122,204.4586996950285 L 397.2066716371791,212.07825445408554 L 399.9171731884099,222.37148024851012 L 399.1859035721933,227.1736070702502 L 399.12282558765384,227.58714604293297 L 400.0,233.7834282461396 L 372.29897066271263,235.03525052166907 L 364.486852401583,235.38231630243433 L 362.61741638016144,230.7390642852967 L 361.76166915971436,209.62919078094603 L 360.6040974450177,208.93973503056074 L 359.5469565017949,182.36349939698414 z" id="c38077"/>
		<path d="M 54.925994559946744,103.48874916648205 L 78.58259628204885,104.24186608202054 L 78.91648922801816,92.76696637371734 L 82.97440841024189,96.22045647014838 L 92.03859487741194,98.14377042889673 L 94.71111063372496,94.90085869201637 L 98.4749612171825,96.45222405462805 L 98.02746032620705,108.53826601260214 L 101.0594849502245,112.42490603714545 L 100.63857395013606,131.31565813149828 L 103.82310267947216,131.3829586852177 L 103.29645005989342,155.74029361106656 L 83.33861351883465,155.27910623219736 L 83.28658136184627,157.4981020448372 L 56.67843128445066,156.78022421372918 L 57.55516996182666,130.10604698538998 L 54.0733042492656,129.9901313398378 L 54.925994559946744,103.48874916648205 z" id="c38025"/>
		<path d="M 101.53332269658758,24.530847447221138 L 105.64751294096399,24.619227454256478 L 105.80709483687092,17.95262658827717 L 112.42104174761246,18.09331734503075 L 112.30291041988356,24.75454588803218 L 121.39823309305493,24.93715539495496 L 121.02612660824772,44.92945429739229 L 160.97507356039208,45.489314730092495 L 163.25813356311724,52.18033301696991 L 163.04230315076745,78.92514236633419 L 165.2191471865857,92.28666795499255 L 118.72603320040817,91.8261330608373 L 118.97791018043527,78.36247053530448 L 116.37564335638294,78.31642272657679 L 116.85463393802151,51.53945579836541 L 114.2328243855807,51.495345417915075 L 114.4967491743237,38.13338048781569 L 101.22393642558082,37.87359681624647 L 101.53332269658758,24.530847447221138 z" id="c38101"/>
		<path d="M 92.2095564182098,91.26221807577838 L 118.72603320040817,91.8261330608373 L 165.2191471865857,92.28666795499255 L 185.14347964309277,92.42892623064277 L 185.1350978884978,105.74701664937513 L 180.611334571085,105.7434371388213 L 180.5112332992231,132.30344442596925 L 176.54295551395475,132.28978142831212 L 176.49959568063466,145.35730992519282 L 165.20012134042082,145.3144093101515 L 164.6059856953282,138.1913937489318 L 161.64965633585706,135.38140985001968 L 150.03120763788644,136.9342045116229 L 145.42421438728053,134.81683644805577 L 144.61191920008636,128.97285258022401 L 140.67013777593797,120.54649351122296 L 144.30613149298662,117.41402419524876 L 141.37590926992345,114.06087815142477 L 130.25037006480224,116.49143412851396 L 126.8430654120024,115.6813660129929 L 121.27012678255656,118.79558861482718 L 109.80860994799983,112.74360205615346 L 101.0594849502245,112.42490603714545 L 98.02746032620705,108.53826601260214 L 98.4749612171825,96.45222405462805 L 94.71111063372496,94.90085869201637 L 92.03859487741194,98.14377042889673 L 92.2095564182098,91.26221807577838 z" id="c38055"/>
		<path d="M 9.167159941083534,28.055447842745448 L 68.23137009853914,30.33434649507024 L 68.02950381180362,36.99906322835753 L 67.6198286193791,50.31728547420494 L 70.56731192982996,50.41043293611446 L 69.98526174358959,69.49931617302332 L 55.74335408455147,67.29984205028933 L 50.84991372172365,68.00054983757497 L 49.454725554488064,72.56350171459597 L 46.15403922444697,75.13362871387807 L 38.94584727122906,75.19348320883435 L 35.946195593100974,77.3215235317651 L 30.961426617281397,73.49085197788659 L 32.92151033960012,70.98843035723345 L 30.544403536258432,67.31327663021024 L 22.996587612923648,70.15489585427716 L 24.59101118933872,72.3652142939362 L 20.72255476132289,72.66357175301798 L 19.668777523261426,77.62597798999242 L 16.88298719279562,75.91096381661407 L 13.421957991184332,80.30008032413447 L 7.163397500260617,76.94164188179859 L 7.163449071779967,76.94037678740887 L 7.930223870274843,58.140270491574235 L 8.38643535494534,46.80549246345433 L 8.710087577473763,38.76903210565034 L 9.167159941083534,28.055447842745448 z" id="c38105"/>
		<path d="M 319.7549498644315,183.69853689445236 L 338.32799880674054,183.13490422315397 L 359.5469565017949,182.36349939698414 L 360.6040974450177,208.93973503056074 L 322.0346960462733,210.32493411349083 L 320.55562852849874,210.36925528225242 L 319.7549498644315,183.69853689445236 z" id="c38073"/>
		<path d="M 253.5630332287472,111.87838611504327 L 293.27708885539886,111.08927275399105 L 293.8296475102536,131.07016591167573 L 253.85522764181468,131.85792470333269 L 253.5630332287472,111.87838611504327 z" id="c38031"/>
		<path d="M 211.77350979139985,92.3956685122345 L 225.04758778014624,92.31450662173066 L 251.6297545981605,92.02704290543775 L 251.82784725619877,105.35569736116177 L 253.5630332287472,111.87838611504327 L 253.85522764181468,131.85792470333269 L 242.65464417406386,132.0163884254059 L 213.86987141127108,132.27800485967086 L 213.7371392318926,105.70957770246743 L 211.77350979139985,92.3956685122345 z" id="c38103"/>
		<path d="M 1.1566663537597122,208.3708768260012 L 56.93750932643312,210.47295100137467 L 56.12044156134707,236.18164962945232 L 44.1936003901644,235.77867417441996 L 32.62562716938318,235.3558739672363 L 20.552277958405117,234.89103985080374 L 0.0,234.00792741275214 L 1.1566663537597122,208.3708768260012 z" id="c38011"/>
		<path d="M 222.5801550282977,212.2814877424287 L 267.2778054945701,211.68522639504945 L 269.09360071009917,211.64894625505127 L 269.45357102841797,237.93726859294824 L 264.79487411869866,238.00493491931726 L 251.31378295597335,238.2159922757656 L 243.54364560524058,238.31823377624477 L 237.07702603752935,238.33995869314495 L 231.35951042761167,238.41540692618932 L 222.69577334320235,238.43415146448623 L 222.5801550282977,212.2814877424287 z" id="c38051"/>
		<path d="M 180.98523711740194,185.43696924541803 L 211.65613980920415,185.47913692888162 L 220.40170098884388,185.4593220547857 L 220.53888191986684,212.27092500006302 L 222.5801550282977,212.2814877424287 L 222.69577334320235,238.43415146448623 L 222.6834706064642,238.43416537858997 L 208.14748683187537,238.46129150925128 L 200.55079479646477,238.42804449842572 L 189.5751035953178,238.41464485964153 L 188.9098760788306,238.41291105927766 L 188.9015317848372,238.4129043988153 L 183.43120206900096,228.58524993401878 L 182.65933414540356,222.92571560533074 L 186.42686374921925,214.92821614129073 L 186.82341607668454,206.22767671114548 L 184.7593402713876,201.28899852761577 L 186.31477891532347,189.02861978328548 L 180.98523711740194,185.43696924541803 z" id="c38029"/>
		<path d="M 255.96644401924252,51.776203383049214 L 267.69308129180195,51.58375322463359 L 267.45644320630174,38.251359676241535 L 300.6801627385517,37.50154728115473 L 301.03342303799553,50.849228061818835 L 302.74808429759867,64.19526512206029 L 296.0911464010693,64.4072143507588 L 296.42207515991765,77.72580578815865 L 291.1172045849206,77.85950698180544 L 291.32441840199243,85.9912738724122 L 286.17671750593036,86.01438897217503 L 283.6197827116045,79.63064334535305 L 277.41180545178634,83.53579590302535 L 279.60963185073615,81.09851565291869 L 276.73850071887927,75.22043416930624 L 267.2100406446875,80.757055209611 L 266.61413154202324,75.93319677063276 L 263.09434313260897,78.40279334301778 L 262.96971844708526,71.81557546691063 L 256.2600032091809,68.29207058422234 L 255.96644401924252,51.776203383049214 z" id="c38071"/>
		<path d="M 346.29319387925256,102.8848140302333 L 376.2674572067745,101.61258865220574 L 376.92420247724715,103.35573456779026 L 378.66317056651786,109.18709309974054 L 378.82437910484657,114.77056801178543 L 378.9541345102248,119.27149446699406 L 380.43476593528214,131.75031092557978 L 380.79363692733176,134.72688882859205 L 348.68017578721,136.01697225306933 L 347.2555658822848,129.51329192591382 L 346.29319387925256,102.8848140302333 z" id="c38097"/>
		<path d="M 105.38514969188438,178.21472120325294 L 125.31255984160572,178.56699065115512 L 125.1973105787452,185.2010435401518 L 147.3555356695451,185.55089360942893 L 147.14480498931715,205.4065823384774 L 160.4345186360468,205.51704492587865 L 161.60157872617748,212.19723058380708 L 152.3716141032938,219.8407762653333 L 152.79131096623385,222.53353972135295 L 146.8147628063345,223.65923671277147 L 146.88748768600655,225.83911327449377 L 133.22933210877676,233.19161738970857 L 129.60188899955614,230.8266398739301 L 127.34102342460046,232.74045532088232 L 122.83464492130261,230.36878610603404 L 118.08460642739644,230.95173039695942 L 117.55114666172999,227.8580112555465 L 109.5750161057742,229.24692751008092 L 109.81845327534272,217.59350544101682 L 107.33680156255988,211.53256821961105 L 107.62580612764987,184.91929947672412 L 105.22341851864388,184.8627984795952 L 105.38514969188438,178.21472120325294 z" id="c38037"/>
		<path d="M 269.45357102841797,237.93726859294824 L 269.09360071009917,211.64894625505127 L 320.55562852849874,210.36925528225242 L 322.0346960462733,210.32493411349083 L 322.80377329633995,236.8848653843566 L 319.4666843708244,236.97659674386307 L 301.0738116288998,237.48046976171128 L 289.7959044193561,237.63260140259416 L 284.5017504864544,237.72137257442097 L 269.45957929670294,237.93717798789095 L 269.45357102841797,237.93726859294824 z" id="c38021"/>
		<path d="M 46.27514372644951,156.45332669634743 L 56.67843128445066,156.78022421372918 L 83.28658136184627,157.4981020448372 L 83.33861351883465,155.27910623219736 L 103.29645005989342,155.74029361106656 L 105.8133186751256,158.01428228492608 L 105.38514969188438,178.21472120325294 L 105.22341851864388,184.8627984795952 L 61.366563665913255,183.8163361908351 L 45.30939646907286,183.30849611242704 L 46.27514372644951,156.45332669634743 z" id="c38089"/>
		<path d="M 123.51176397841779,138.38538461848094 L 149.98237470932267,138.73954983806627 L 150.03120763788644,136.9342045116229 L 161.64965633585706,135.38140985001968 L 164.6059856953282,138.1913937489318 L 165.20012134042082,145.3144093101515 L 169.59160556119588,155.89679672920374 L 166.66641246569657,158.6854980366983 L 123.20398307049305,158.33269470525124 L 123.51176397841779,138.38538461848094 z" id="c38065"/>
		<path d="M 265.2906260969205,3.3153126099935366 L 271.8922083859599,3.1669372604397377 L 318.28207929789176,1.9083038926365299 L 319.0149970385899,23.59914093485464 L 320.58934258059145,36.948621437260186 L 300.6801627385517,37.50154728115473 L 267.45644320630174,38.251359676241535 L 265.6992705893587,24.940605109346368 L 265.2906260969205,3.3153126099935366 z" id="c38019"/>
		<path d="M 180.611334571085,105.7434371388213 L 185.1350978884978,105.74701664937513 L 185.14347964309277,92.42892623064277 L 205.13053257898045,92.40970095455847 L 211.77350979139985,92.3956685122345 L 213.7371392318926,105.70957770246743 L 213.86987141127108,132.27800485967086 L 209.7011194460464,132.2932134898845 L 180.5112332992231,132.30344442596925 L 180.611334571085,105.7434371388213 z" id="c38083"/>
		<path d="M 3.414080185917483,158.30077572290915 L 4.122984619020508,143.47960309427265 L 4.796978261309665,127.9525172093029 L 24.513241884476457,128.863201596911 L 23.412544451881168,155.6345864988269 L 26.426345965029693,155.74899477660745 L 25.381212261667994,182.5628174549896 L 15.270853118863922,182.15705761454106 L 14.983680178585503,188.9783297185186 L 2.0766467901965373,188.4009679215595 L 2.4110104692063947,180.6929399770925 L 2.6515010927109373,175.1496817061481 L 3.414080185917483,158.30077572290915 z" id="c38033"/>
	</g>
</svg>