<?xml version="1.0" encoding="UTF-8"?>
<svg baseProfile="full" fill="#d0d0d0" height="152.16906338487698" stroke="#ffffff" stroke-width="1" version="1.1" width="400.0" xmlns="http://www.w3.org/2000/svg" xmlns:ev="http://www.w3.org/2001/xml-events" xmlns:xlink="http://www.w3.org/1999/xlink">
	<defs/>
	<g id="counties"><path d="M 263.1876495399889,5.589631364262604 L 264.97704282964776,4.106203895949072 L 270.9093991326506,4.016232670972464 L 273.071981973352,17.008199942174137 L 271.75973123288475,19.216068341616243 L 268.59800909278675,20.950270661988498 L 266.67032176212075,24.856424801895905 L 263.33194907713556,24.275220404973897 L 262.6042218307581,8.888043016276448 L 263.1876495399889,5.589631364262604 z" id="c37181"/>
		<path d="M 234.72394352210782,4.157388079664494 L 243.4449306651046,4.134783445219172 L 249.91859823704536,4.145710318299651 L 249.68289800624683,20.988222684610356 L 243.0717415886381,20.802374152814576 L 234.00266783307038,20.656965842939456 L 234.72394352210782,4.157388079664494 z" id="c37145"/>
		<path d="M 289.29552582759896,12.659417402319155 L 289.77480831434815,5.948293197815752 L 301.1008623359379,7.1083886122951805 L 305.1416380588905,10.501990254768724 L 303.8529373665951,15.059702257676845 L 305.86463484515315,16.80570420695353 L 310.0879401756464,15.551214234590294 L 312.8280842265631,21.63666149462088 L 316.24864266208493,24.00714146262646 L 317.1109623010922,24.053485807333303 L 319.90587787241986,27.49137183315989 L 315.5922835232225,29.41779857720637 L 315.04200316294884,29.832331112159192 L 312.29840564279044,33.12669301473813 L 307.12883692814205,31.45603627522788 L 306.0504348370795,28.207406313209002 L 298.9856282903249,25.164598648836467 L 297.98229708367256,26.238113531866595 L 290.5804722653181,25.770843941261084 L 285.18477657140886,22.600457828772075 L 289.29552582759896,12.659417402319155 z" id="c37083"/>
		<path d="M 176.90782285574494,3.2046395823995444 L 177.28486594302015,3.230809728765831 L 183.33647287916463,3.65780568841831 L 194.07504926681744,3.858265292222096 L 195.2349891827964,3.8783524051292284 L 194.7256541774806,19.579083167031342 L 176.16019518755525,19.108840738890528 L 176.90782285574494,3.2046395823995444 z" id="c37169"/>
		<path d="M 298.3150528585398,88.18733496193761 L 304.13913995883644,84.62968640827003 L 308.29875779647136,78.98664726981107 L 307.3506632705539,75.13842905207558 L 309.77682569978793,75.87308055840181 L 322.83663046299534,83.79248128918154 L 326.3781108243733,84.41306508524679 L 326.6637978687866,97.49585788136596 L 328.07202152610347,98.5396202725907 L 324.3039672523788,99.50508784456258 L 324.11858223839863,100.06119441054085 L 319.3693176850184,92.40050593300694 L 314.8936507472871,93.41959525232377 L 308.67932331091043,90.16165019076414 L 300.88516211342363,90.03776518078907 L 298.3150528585398,88.18733496193761 z" id="c37103"/>
		<path d="M 160.59466842862045,60.43766121294273 L 162.6993581138152,60.48671898058752 L 182.58090238267647,60.94915866921143 L 173.24487144107172,77.37189961811477 L 172.88694781346987,78.30782772903159 L 170.85808485219485,76.9881277212167 L 168.65096726195156,75.539201298669 L 165.66928040177643,73.62848325066557 L 164.54354531470673,69.29240808378147 L 161.29098418221943,66.20342722897854 L 160.59466842862045,60.43766121294273 z" id="c37025"/>
		<path d="M 130.27315917839587,64.53471613489569 L 152.80091251412472,66.12132715010428 L 154.19122959015291,68.31855194111718 L 151.94756845383776,68.84194052550343 L 149.9428907890772,73.29715637108417 L 150.23585300260743,79.44676198072949 L 148.57537088286864,79.97724624435989 L 148.55253360494524,79.84032551025517 L 135.68256255778937,78.83937890598686 L 136.09626757843483,73.44628790603176 L 134.61087152649972,69.54996331641065 L 130.27315917839587,64.53471613489569 z" id="c37071"/>
		<path d="M 161.32399235477948,51.30655288091476 L 164.35751239804472,41.410466521616485 L 165.08493338503527,40.84064706358242 L 174.86085504692292,46.23349252207329 L 175.42048537454124,47.635561278962484 L 177.00651983311738,48.60339378737506 L 180.9831556284674,48.95543977551717 L 181.12773399197093,51.25079152624554 L 186.4993377998674,56.649378859081374 L 187.65973272246777,60.944807404309394 L 182.58090238267647,60.94915866921143 L 162.6993581138152,60.48671898058752 L 162.47066464927323,57.524811312210915 L 161.32399235477948,51.30655288091476 z" id="c37159"/>
		<path d="M 126.8881817470425,56.285120314061544 L 152.72789201744274,58.03260542699165 L 153.62364630833395,59.012871770565376 L 153.23488068971997,61.26488066351315 L 153.42236205095148,63.10271936649035 L 152.80091251412472,66.12132715010428 L 130.27315917839587,64.53471613489569 L 127.79037619374836,56.878071666069395 L 126.78398257786209,56.497631137432776 L 126.8881817470425,56.285120314061544 z" id="c37109"/>
		<path d="M 337.4683878910307,48.33743291117453 L 340.43284922952006,40.68378376474894 L 341.1768182562397,40.279092025949176 L 344.5050904589202,35.346686429080876 L 347.94056636786365,33.8916634691867 L 352.15462484041734,33.64075993000192 L 357.2358179255528,30.99353646951003 L 358.9614000864233,31.301616900315114 L 358.14829551013923,37.12330202742614 L 359.410512948999,40.02769822152719 L 357.18749794602564,44.21562058302253 L 357.29856064765795,49.0964231717702 L 346.8981574925806,48.93578204368552 L 337.6193579519639,49.11934519464266 L 337.4683878910307,48.33743291117453 z" id="c37187"/>
		<path d="M 293.7970091227379,56.477840930363854 L 294.7284105500596,56.42145903675289 L 299.2242772325639,52.72777457297228 L 303.3458960210661,57.33565184187401 L 308.1816428266714,59.98554013071459 L 309.5275024434267,64.99886420877493 L 300.52458386390566,69.49257903808012 L 299.56559575189334,67.86795483603179 L 294.6713374176407,68.38860573921522 L 293.7116398972219,65.35493571379293 L 293.7970091227379,56.477840930363854 z" id="c37079"/>
		<path d="M 232.5896076052701,72.09360085282262 L 242.23472222186297,60.29756680061159 L 244.70181021205988,56.88425364064156 L 253.96470388408875,60.40023976094665 L 256.1440736000646,61.670665830608115 L 262.06779661165774,70.5227980388999 L 261.68936780732605,71.54391990729057 L 259.6598156840346,72.63309597739922 L 258.15153661694046,75.45648955486735 L 250.13984951592553,74.35393630302842 L 246.26824593995437,76.31951851835127 L 236.54138479284916,78.43205324159808 L 230.80470908910016,74.23744348478782 L 232.5896076052701,72.09360085282262 z" id="c37085"/>
		<path d="M 243.72703071389284,46.52699546210785 L 244.92744234018747,42.61666057336083 L 245.07641900647187,41.2319548483058 L 248.48563493402432,41.288949036434566 L 249.51928443303376,38.20809697231432 L 251.69257004489222,38.27856657836204 L 254.31394465819196,33.324297790112546 L 251.9825170824512,30.062337383741063 L 255.02242124409509,29.852792032264325 L 261.14826865495894,32.72716610526935 L 266.50803943010425,35.275918724711076 L 272.9246390619051,40.76166909216225 L 274.21739407561523,43.85927230540579 L 264.7242943406831,50.0314609943046 L 256.9328405218171,57.605755873640916 L 253.96470388408875,60.40023976094665 L 244.70181021205988,56.88425364064156 L 241.09097262200976,55.42968199839866 L 243.72703071389284,46.52699546210785 z" id="c37183"/>
		<path d="M 49.91571864418356,45.55809400543353 L 49.953773352001875,45.498810583312306 L 52.53484772403734,45.098513865732535 L 54.26892101928941,43.08576921846373 L 57.18125008466485,42.50726409602227 L 59.38783502401067,41.95679825572862 L 62.51795040804476,42.36408624236887 L 63.07327523925869,41.67937268175168 L 63.39109654216763,44.36887047785431 L 66.52772347256403,48.27126141898838 L 68.08823430145388,51.85250072836643 L 71.39993102073156,54.092982767979144 L 69.93557737413718,59.881247831686345 L 72.2240180440887,62.54741393581957 L 68.10967284466646,68.13788444295099 L 64.02983710815924,69.4406785512266 L 53.5472349321748,57.03366669436973 L 52.58058549704391,56.72878569860457 L 54.0390946710559,54.68322986524712 L 53.13964750438307,48.107515780487304 L 49.50155393166574,46.203180874106586 L 49.91571864418356,45.55809400543353 z" id="c37087"/>
		<path d="M 93.88186368152037,60.843011356268775 L 95.4406777120142,58.05403255940876 L 98.34007959178969,57.68459659081443 L 107.39369207274265,58.06383970884693 L 113.04667350478408,57.334408602696534 L 113.92266250107119,55.55817803936303 L 117.15944082122012,53.52392977565347 L 119.86818909017823,55.44496832530778 L 119.04632170196061,67.68359317574935 L 115.83226231328626,77.37082035754102 L 111.03917368633176,77.0246799736403 L 106.75747069440379,76.71109915295303 L 106.89977363038558,72.8158942962343 L 98.9005991693121,64.31403595108132 L 93.9490063498943,64.95347872231403 L 93.17242971243553,62.18219746132328 L 93.88186368152037,60.843011356268775 z" id="c37161"/>
		<path d="M 357.18749794602564,44.21562058302253 L 359.410512948999,40.02769822152719 L 358.14829551013923,37.12330202742614 L 358.9614000864233,31.301616900315114 L 366.5914745781395,29.566514743827316 L 367.8574374167294,28.881187056854287 L 372.2781949066629,27.59191010887234 L 373.84179151159293,26.657018471820813 L 373.86774606420806,27.210773742340926 L 379.0533359436585,27.094934589112025 L 380.53574806105024,29.47614980241856 L 382.11136383469227,30.13960819503893 L 376.25129456407115,33.19603747464235 L 374.8116139969132,37.690763735586266 L 374.32926231112725,50.20042051781674 L 369.01662393887347,48.50447116916059 L 365.9769524122432,54.33581850939806 L 362.28087904332847,53.84542412874091 L 363.44406085391586,49.30727664530498 L 357.29856064765795,49.0964231717702 L 357.18749794602564,44.21562058302253 z" id="c37177"/>
		<path d="M 289.73892722525244,3.7140043324497225 L 295.63119842351375,3.6121848232950056 L 296.40387981114986,3.5982485112722298 L 316.4311337259017,3.2719243933848263 L 321.2538776242763,3.1797467139191444 L 322.40201554740213,3.159278355041541 L 326.8012160381973,5.808989350901864 L 324.31699054708923,7.2492637794474994 L 320.7390626622763,19.682702681074943 L 316.77347555891123,21.89225840875599 L 317.1109623010922,24.053485807333303 L 316.24864266208493,24.00714146262646 L 312.8280842265631,21.63666149462088 L 310.0879401756464,15.551214234590294 L 305.86463484515315,16.80570420695353 L 303.8529373665951,15.059702257676845 L 305.1416380588905,10.501990254768724 L 301.1008623359379,7.1083886122951805 L 289.77480831434815,5.948293197815752 L 289.73892722525244,3.7140043324497225 z" id="c37131"/>
		<path d="M 352.3370908122202,4.457534323323107 L 354.7990418010817,6.75317719653028 L 364.099954487162,11.776819072262985 L 364.8865335923234,15.817430789200738 L 369.0223046859618,17.59038165220162 L 373.43669398717066,23.25006075499067 L 373.84179151159293,26.657018471820813 L 372.2781949066629,27.59191010887234 L 367.8574374167294,28.881187056854287 L 366.9111941636117,26.173145217452493 L 361.682541374901,20.02508377880422 L 357.87724180577567,18.191562886884157 L 354.1957129996749,11.710971974078275 L 352.39248555199316,6.770498527356645 L 352.3370908122202,4.457534323323107 z" id="c37139"/>
		<path d="M 285.1482723682888,125.55334647615554 L 294.55067441868715,122.28663736368757 L 299.6196912085051,127.67360177008851 L 297.3437540835428,130.15709353390162 L 294.4192212039463,134.76111799084353 L 291.9235545366827,141.63410656473465 L 288.55097445505385,130.87159629755826 L 285.1482723682888,125.55334647615554 z" id="c37129"/>
		<path d="M 331.81733593304085,79.55446567594117 L 335.8290027050251,74.02611206499691 L 338.14907587558827,76.05837465954762 L 347.7369422669166,74.77965561905903 L 349.46639717726043,67.77360004511327 L 352.558362594376,68.1506855856533 L 355.6225822651072,69.13254850888895 L 362.6094812708732,76.26459890545318 L 344.49219274316073,88.81100825291789 L 341.4065635636892,90.60558822907217 L 333.50426869970784,86.87817000223065 L 333.9567267879062,81.48341206424527 L 331.81733593304085,79.55446567594117 z" id="c37137"/>
		<path d="M 157.34741825037847,20.180832390069547 L 171.89347344192643,17.727778951103108 L 176.11612205336678,20.2137153215341 L 176.99278450492181,21.515871141146317 L 176.6244537194926,25.806628680148428 L 173.63349396019478,27.45730602062628 L 173.99457562377003,30.90904944381115 L 165.1989982303357,30.508208003255092 L 156.78517098909288,30.111303943944176 L 157.34741825037847,20.180832390069547 z" id="c37197"/>
		<path d="M 195.2349891827964,3.8783524051292284 L 195.23809445246957,3.8784057705391017 L 201.2609334193728,3.9620079357840736 L 209.11486129764117,4.0586660798688605 L 218.05212834241382,4.151637705119224 L 217.15705753742955,20.169556819752113 L 217.13033671174733,20.621310584463163 L 194.7256541774806,19.579083167031342 L 195.2349891827964,3.8783524051292284 z" id="c37157"/>
		<path d="M 348.3124367639961,19.523912125150144 L 349.5184525653759,13.317130515025688 L 354.1957129996749,11.710971974078275 L 357.87724180577567,18.191562886884157 L 361.682541374901,20.02508377880422 L 366.9111941636117,26.173145217452493 L 367.8574374167294,28.881187056854287 L 366.5914745781395,29.566514743827316 L 358.9614000864233,31.301616900315114 L 357.2358179255528,30.99353646951003 L 356.89355097346015,28.4466016852013 L 349.29030535827593,26.62427413100663 L 348.3124367639961,19.523912125150144 z" id="c37143"/>
		<path d="M 194.22120887610282,33.13752004131956 L 194.50878022759807,25.67127474180853 L 194.7256541774806,19.579083167031342 L 217.13033671174733,20.621310584463163 L 216.6122777475112,39.420179855508515 L 208.93575165806072,38.98977071956797 L 194.00658613433365,38.092252960561645 L 194.22120887610282,33.13752004131956 z" id="c37081"/>
		<path d="M 75.52980121244451,60.661907321611096 L 81.7730394218775,63.24736636170112 L 83.51671951265858,61.73598183066171 L 90.92608005162674,58.960778870189834 L 93.88186368152037,60.843011356268775 L 93.17242971243553,62.18219746132328 L 93.9490063498943,64.95347872231403 L 89.2658762653626,72.98448515324708 L 89.4504498692019,75.51087615807958 L 86.83383042082158,75.21419327999605 L 84.78594825674509,76.52294033751105 L 81.26898422756209,77.59979333837853 L 79.21164215045003,78.02940892828047 L 77.65118076021334,69.31558250164777 L 72.2240180440887,62.54741393581957 L 75.52980121244451,60.661907321611096 z" id="c37089"/>
		<path d="M 157.54347665737697,88.14996277435993 L 160.65589585572988,86.46177607764577 L 170.85808485219485,76.9881277212167 L 172.88694781346987,78.30782772903159 L 179.55689679922727,79.507756490164 L 183.2000001113091,77.862206576706 L 180.93293409556446,98.85848573791384 L 170.0091106187312,98.48746219597135 L 170.0067729824128,98.4873483596229 L 159.33806945735645,97.95512184227684 L 160.12704190722866,91.81095811654572 L 157.54347665737697,88.14996277435993 z" id="c37179"/>
		<path d="M 240.44357249619523,39.34600970928131 L 243.0717415886381,20.802374152814576 L 249.68289800624683,20.988222684610356 L 249.4629015034193,29.140332711997942 L 251.9825170824512,30.062337383741063 L 254.31394465819196,33.324297790112546 L 251.69257004489222,38.27856657836204 L 249.51928443303376,38.20809697231432 L 248.48563493402432,41.288949036434566 L 245.07641900647187,41.2319548483058 L 240.1385225732314,41.50277594673668 L 240.44357249619523,39.34600970928131 z" id="c37063"/>
		<path d="M 312.29840564279044,33.12669301473813 L 315.04200316294884,29.832331112159192 L 315.5922835232225,29.41779857720637 L 321.0972126432751,32.9567219697717 L 321.609946726299,36.719156306298046 L 329.150533981461,36.967508466884816 L 328.4856653673621,40.727085601526994 L 330.22700384086124,40.867909734987826 L 333.14335495061505,38.43717023767997 L 335.2048243876165,40.572205425071914 L 335.39303774351015,43.280977901781625 L 337.8309276316369,39.3612279965333 L 341.1768182562397,40.279092025949176 L 340.43284922952006,40.68378376474894 L 337.4683878910307,48.33743291117453 L 331.31913101054374,51.83143564546157 L 322.7956006978947,47.92428857565633 L 319.101040590148,45.04495903422893 L 314.8042611696879,43.30894265428861 L 315.08153174069105,38.56897514854503 L 312.29840564279044,33.12669301473813 z" id="c37117"/>
		<path d="M 319.90587787241986,27.49137183315989 L 317.1109623010922,24.053485807333303 L 316.77347555891123,21.89225840875599 L 320.7390626622763,19.682702681074943 L 321.99958081679574,19.869625278654222 L 343.1140599461348,19.37543154106737 L 341.8782255241703,24.53561673223477 L 344.45948037495634,31.06229397797892 L 347.94056636786365,33.8916634691867 L 344.5050904589202,35.346686429080876 L 341.1768182562397,40.279092025949176 L 337.8309276316369,39.3612279965333 L 335.39303774351015,43.280977901781625 L 335.2048243876165,40.572205425071914 L 333.14335495061505,38.43717023767997 L 330.22700384086124,40.867909734987826 L 328.4856653673621,40.727085601526994 L 329.150533981461,36.967508466884816 L 321.609946726299,36.719156306298046 L 321.0972126432751,32.9567219697717 L 315.5922835232225,29.41779857720637 L 319.90587787241986,27.49137183315989 z" id="c37015"/>
		<path d="M 119.22937177097866,9.548781913002925 L 121.04550440431579,6.593430815161081 L 120.94196058380481,2.7954241693795026 L 122.01402598129519,0.0 L 129.88902126644186,0.6623191680187993 L 136.39182653044307,1.0185421540638098 L 140.99319845309282,11.80454761760863 L 140.54984470271808,12.658213925623048 L 135.8495371957892,12.558236897715062 L 135.40950129062333,17.06184419653227 L 130.41303505323035,19.37332118809764 L 126.49889255924255,17.514600417097387 L 123.41141515875593,13.171618195832014 L 119.5912781890225,10.858496474350064 L 119.22937177097866,9.548781913002925 z" id="c37009"/>
		<path d="M 225.11976183985016,60.471790646423806 L 231.88089493795727,58.25882034173126 L 235.6081328661999,54.43447466717405 L 242.23472222186297,60.29756680061159 L 232.5896076052701,72.09360085282262 L 228.5367491009387,69.54167443038072 L 224.6728637916415,63.11039507479442 L 225.11976183985016,60.471790646423806 z" id="c37105"/>
		<path d="M 209.42080523754177,99.62387422862754 L 213.00507620775784,99.0781648978207 L 215.40285616367672,93.86294613944987 L 214.90460586958469,89.3559132482654 L 220.10993698507218,86.55318929523132 L 224.87020029322207,92.04175208818286 L 225.08795121388724,97.85776699065693 L 225.84112427995305,101.3891795026618 L 219.86650875987303,109.30980899599261 L 210.2216059587152,99.64140495517178 L 209.42080523754177,99.62387422862754 z" id="c37165"/>
		<path d="M 274.21739407561523,43.85927230540579 L 285.18477657140886,22.600457828772075 L 290.5804722653181,25.770843941261084 L 297.98229708367256,26.238113531866595 L 298.9856282903249,25.164598648836467 L 298.61047848476295,27.241721319631157 L 293.3473060552788,40.97314418320714 L 292.6364652729996,42.61000182129719 L 289.45936086927264,42.71012403937408 L 277.1186799707948,48.6560939497931 L 275.2974699117978,47.53077137893481 L 274.21739407561523,43.85927230540579 z" id="c37127"/>
		<path d="M 343.1140599461348,19.37543154106737 L 343.4935357636106,16.484857154942823 L 344.6536072270759,15.407491477524475 L 349.5184525653759,13.317130515025688 L 348.3124367639961,19.523912125150144 L 349.29030535827593,26.62427413100663 L 356.89355097346015,28.4466016852013 L 357.2358179255528,30.99353646951003 L 352.15462484041734,33.64075993000192 L 347.94056636786365,33.8916634691867 L 344.45948037495634,31.06229397797892 L 341.8782255241703,24.53561673223477 L 343.1140599461348,19.37543154106737 z" id="c37041"/>
		<path d="M 131.32716531646525,21.587836971114594 L 130.41303505323035,19.37332118809764 L 135.40950129062333,17.06184419653227 L 135.8495371957892,12.558236897715062 L 140.54984470271808,12.658213925623048 L 144.66535594566616,9.120602253120502 L 147.6920474835048,8.730844764148868 L 150.65873032210354,12.513135763256855 L 153.33978920190825,10.980072669427729 L 157.63960688712686,15.223824846953603 L 157.34741825037847,20.180832390069547 L 156.78517098909288,30.111303943944176 L 152.58471228478024,29.859480449222186 L 150.19484222722775,30.53559212139505 L 139.6794771840092,31.40006175185326 L 136.74873259305315,32.941670198132364 L 133.73648475493295,29.024686369641678 L 127.21001529494906,26.051942199070606 L 131.32716531646525,21.587836971114594 z" id="c37193"/>
		<path d="M 374.8116139969132,37.690763735586266 L 376.25129456407115,33.19603747464235 L 382.11136383469227,30.13960819503893 L 385.3569669527471,28.48651129657288 L 384.84821252037494,18.85930875309655 L 387.39639557210535,25.296259343292427 L 390.23696905872754,30.33620314444298 L 394.50109422716264,38.84324158872598 L 396.95645507499256,43.94565584941754 L 398.0627321201952,46.140807433461624 L 400.0,53.33595724904278 L 399.1363426783703,64.65125216518284 L 397.3449435768448,73.84446825329978 L 392.758760523048,74.30870941806009 L 387.6734478668463,76.38548217447622 L 384.2077516503009,59.1797837542879 L 379.9905857184241,50.02157782879895 L 374.32926231112725,50.20042051781674 L 374.8116139969132,37.690763735586266 z" id="c37055"/>
		<path d="M 324.3039672523788,99.50508784456258 L 328.07202152610347,98.5396202725907 L 333.6926422898625,98.55144590993547 L 336.88272856461293,96.51285976979587 L 345.47650969214845,94.98469990303668 L 347.2211894475168,91.17843131296037 L 344.49219274316073,88.81100825291789 L 362.6094812708732,76.26459890545318 L 373.4949142734038,80.16769046928692 L 375.9774336467617,83.56612816335888 L 370.4817499652285,87.80135792899527 L 366.2709220845188,92.45538611365657 L 362.8557225290535,95.4757806864279 L 359.48095043259036,99.29389227374355 L 356.6916328077916,103.22635730991597 L 352.9805403568554,110.24803917816055 L 352.1143089006048,108.08581338422688 L 349.1043782543234,105.72094456243325 L 344.15460322194895,104.50841499130692 L 336.02517903400417,105.45057972158006 L 326.67873161934875,108.09945845778653 L 325.9789066453685,101.58520293375044 L 324.11858223839863,100.06119441054085 L 324.3039672523788,99.50508784456258 z" id="c37031"/>
		<path d="M 192.2675069874096,80.86632676824472 L 202.41459299279074,78.72117076629212 L 213.1119391816302,79.91031934303913 L 214.81584749499956,85.08041039567979 L 220.10993698507218,86.55318929523132 L 214.90460586958469,89.3559132482654 L 215.40285616367672,93.86294613944987 L 213.00507620775784,99.0781648978207 L 209.42080523754177,99.62387422862754 L 198.90553178193488,99.38046137367056 L 202.35917541475695,94.33937980571761 L 201.17110894935442,86.88404286425244 L 199.09538253298916,82.45660745207516 L 195.96091361324724,84.06830297380267 L 192.2675069874096,80.86632676824472 z" id="c37153"/>
		<path d="M 261.2049974227845,29.478602563228275 L 263.33194907713556,24.275220404973897 L 266.67032176212075,24.856424801895905 L 268.59800909278675,20.950270661988498 L 271.75973123288475,19.216068341616243 L 279.50546554724207,20.245520660397613 L 280.6435243986224,22.244903002137896 L 285.18477657140886,22.600457828772075 L 274.21739407561523,43.85927230540579 L 272.9246390619051,40.76166909216225 L 266.50803943010425,35.275918724711076 L 261.14826865495894,32.72716610526935 L 261.2049974227845,29.478602563228275 z" id="c37069"/>
		<path d="M 45.03428724207314,58.95283731066296 L 50.36821762986132,56.0733153847421 L 52.58058549704391,56.72878569860457 L 53.5472349321748,57.03366669436973 L 64.02983710815924,69.4406785512266 L 60.866492557322026,78.1319007945647 L 57.361525203776395,82.28827283689333 L 59.49537225284071,83.85793724763734 L 54.9138882200627,85.11452409329185 L 53.514362824057955,80.80414452009475 L 50.06060351751006,76.28254778816739 L 50.22661262459447,71.81440017136222 L 47.828098223049686,72.29542416039315 L 45.2495435723656,66.51345970805562 L 45.03428724207314,58.95283731066296 z" id="c37099"/>
		<path d="M 89.2658762653626,72.98448515324708 L 93.9490063498943,64.95347872231403 L 98.9005991693121,64.31403595108132 L 106.89977363038558,72.8158942962343 L 106.75747069440379,76.71109915295303 L 103.5879252240231,76.4763124879098 L 103.19362905844558,76.45383878884729 L 95.6330561364021,76.01616661511927 L 92.05365616347385,75.80448882703641 L 89.4504498692019,75.51087615807958 L 89.2658762653626,72.98448515324708 z" id="c37149"/>
		<path d="M 360.19031882347946,2.056185419800924 L 368.66442754558295,1.8185482924742702 L 372.9087393945377,1.6933972116877507 L 379.9985190269641,1.4642084136594238 L 381.4715672061167,7.798441850034402 L 383.59669111627113,15.690860632119666 L 384.84821252037494,18.85930875309655 L 385.3569669527471,28.48651129657288 L 382.11136383469227,30.13960819503893 L 380.53574806105024,29.47614980241856 L 379.0533359436585,27.094934589112025 L 379.73737101769933,22.809615435799575 L 376.81817263210485,16.15229629139259 L 372.1548938457216,12.219957479208636 L 369.3409807293234,12.430496800092994 L 367.2553146804371,8.755118324817637 L 360.18641293195054,2.056286212650381 L 360.19031882347946,2.056185419800924 z" id="c37053"/>
		<path d="M 274.797340875589,121.91748713073088 L 278.3968479645967,118.26370602511383 L 274.78044004218435,115.9120516695263 L 274.80862873331284,113.43683146541517 L 281.12664992741674,104.95084939690517 L 281.11877849214227,104.1300195084568 L 287.17728229809785,104.50194706010403 L 300.8294521091461,103.97704650791152 L 305.7445736318068,117.33504588959063 L 308.5537041877736,119.45220062747708 L 303.1509922545646,123.81258702976483 L 299.6196912085051,127.67360177008851 L 294.55067441868715,122.28663736368757 L 285.1482723682888,125.55334647615554 L 280.227930271284,123.40090485268095 L 279.0920161262039,124.21971525150146 L 277.26013457438137,124.43844814176079 L 274.797340875589,121.91748713073088 z" id="c37141"/>
		<path d="M 173.24487144107172,77.37189961811477 L 182.58090238267647,60.94915866921143 L 187.65973272246777,60.944807404309394 L 190.96463148632142,63.442799940070444 L 193.49159436562525,68.30811448009968 L 191.30442161366008,74.68770328306283 L 192.2675069874096,80.86632676824472 L 190.6140703389041,78.05269144585213 L 187.86633998461429,80.5542303147398 L 183.2000001113091,77.862206576706 L 179.55689679922727,79.507756490164 L 172.88694781346987,78.30782772903159 L 173.24487144107172,77.37189961811477 z" id="c37167"/>
		<path d="M 272.1530648378698,73.06810680537995 L 279.04121781452045,69.54432200114395 L 278.93462056760274,65.85074282165093 L 282.9072760236123,56.60032875352381 L 283.6303921127224,56.009362024006755 L 291.49333911095886,56.457355219843016 L 293.7970091227379,56.477840930363854 L 293.7116398972219,65.35493571379293 L 294.6713374176407,68.38860573921522 L 294.12030264520456,69.07777940382287 L 293.53274587375114,78.9074611862615 L 290.9342766821416,80.67227304108347 L 284.02923470975304,78.20071897127976 L 278.65707886341426,78.4043299129053 L 278.19225552679546,77.43801290346703 L 274.9020737872755,76.43808528092345 L 272.1530648378698,73.06810680537995 z" id="c37191"/>
		<path d="M 147.7808485581573,84.01021442266763 L 148.79851246300916,81.3145886869361 L 148.57537088286864,79.97724624435989 L 150.23585300260743,79.44676198072949 L 149.9428907890772,73.29715637108417 L 151.94756845383776,68.84194052550343 L 154.19122959015291,68.31855194111718 L 152.80091251412472,66.12132715010428 L 153.42236205095148,63.10271936649035 L 153.23488068971997,61.26488066351315 L 155.09048118228293,59.85276577822083 L 160.59466842862045,60.43766121294273 L 161.29098418221943,66.20342722897854 L 164.54354531470673,69.29240808378147 L 165.66928040177643,73.62848325066557 L 168.65096726195156,75.539201298669 L 170.85808485219485,76.9881277212167 L 160.65589585572988,86.46177607764577 L 157.54347665737697,88.14996277435993 L 154.76924990795024,84.21033328400847 L 154.64775008597962,84.03759255430936 L 153.38388709458914,82.2397091877358 L 148.49664258574919,85.59276070894062 L 147.7808485581573,84.01021442266763 z" id="c37119"/>
		<path d="M 194.00658613433365,38.092252960561645 L 208.93575165806072,38.98977071956797 L 216.6122777475112,39.420179855508515 L 216.56393013392614,42.53196682596747 L 215.86344775830278,60.59260357981561 L 206.3173855430474,60.72457996398548 L 192.86709710012556,60.92071178714942 L 194.00658613433365,38.092252960561645 z" id="c37151"/>
		<path d="M 83.98445489281755,32.19234048302762 L 85.97384770367563,30.913320011448135 L 88.22791651102348,27.33144345279778 L 91.16344744296666,26.80575209731292 L 95.38347147027795,31.29722431140367 L 97.91001393014645,30.82810128216919 L 100.45229140695038,41.48235968989926 L 97.61243367491363,46.23676514003094 L 94.65683531293863,48.14826296376182 L 93.87930218194575,47.815104458138165 L 93.49896595414215,46.6414240475212 L 91.28627313064844,45.25331198366867 L 90.21915416926804,41.270742002677444 L 88.11875095659202,41.358333295158026 L 84.43523582648307,36.20233751805284 L 83.98445489281755,32.19234048302762 z" id="c37199"/>
		<path d="M 135.82412705842486,42.41145685907711 L 136.74873259305315,32.941670198132364 L 139.6794771840092,31.40006175185326 L 150.19484222722775,30.53559212139505 L 151.13855034143506,35.36395536232753 L 149.4234780067668,40.85728513993585 L 146.27519930715195,45.26438257465901 L 144.83210656261272,42.41008168030245 L 140.0700035933873,42.97467715603826 L 139.35717215962077,43.53667238833445 L 136.22361108598514,43.955694567677085 L 135.82412705842486,42.41145685907711 z" id="c37003"/>
		<path d="M 216.6122777475112,39.420179855508515 L 217.13033671174733,20.621310584463163 L 217.15705753742955,20.169556819752113 L 229.36785545814692,20.56093393841353 L 228.8593093224683,38.95662095032726 L 229.6922791711188,40.740340400375075 L 230.2363511131679,42.53371154506234 L 216.56393013392614,42.53196682596747 L 216.6122777475112,39.420179855508515 z" id="c37001"/>
		<path d="M 183.2000001113091,77.862206576706 L 187.86633998461429,80.5542303147398 L 190.6140703389041,78.05269144585213 L 192.2675069874096,80.86632676824472 L 195.96091361324724,84.06830297380267 L 199.09538253298916,82.45660745207516 L 201.17110894935442,86.88404286425244 L 202.35917541475695,94.33937980571761 L 198.90553178193488,99.38046137367056 L 198.78239740081145,99.3774654747525 L 191.98449893469112,99.206843245809 L 180.93293409556446,98.85848573791384 L 183.2000001113091,77.862206576706 z" id="c37007"/>
		<path d="M 293.3473060552788,40.97314418320714 L 298.61047848476295,27.241721319631157 L 298.9856282903249,25.164598648836467 L 306.0504348370795,28.207406313209002 L 307.12883692814205,31.45603627522788 L 312.29840564279044,33.12669301473813 L 315.08153174069105,38.56897514854503 L 314.8042611696879,43.30894265428861 L 313.0089376063164,42.5770028356167 L 306.7508812872998,47.05144873017932 L 300.8045678932366,51.46083420632818 L 298.37302613279564,48.52717127552856 L 296.8282329374193,43.099921596906604 L 293.3473060552788,40.97314418320714 z" id="c37065"/>
		<path d="M 277.1186799707948,48.6560939497931 L 289.45936086927264,42.71012403937408 L 292.6364652729996,42.61000182129719 L 293.3473060552788,40.97314418320714 L 296.8282329374193,43.099921596906604 L 298.37302613279564,48.52717127552856 L 300.8045678932366,51.46083420632818 L 299.2242772325639,52.72777457297228 L 294.7284105500596,56.42145903675289 L 293.7970091227379,56.477840930363854 L 291.49333911095886,56.457355219843016 L 283.6303921127224,56.009362024006755 L 282.9072760236123,56.60032875352381 L 280.6138588541933,55.78653552369037 L 278.5116443452576,49.61717860699997 L 277.1186799707948,48.6560939497931 z" id="c37195"/>
		<path d="M 19.639645308424356,57.462392077099395 L 22.832899198363233,55.10473004032536 L 26.39568957790355,52.916308156725314 L 31.298002213409752,52.83643218182916 L 31.737330293565446,52.8290104257998 L 34.66808454614539,53.03966762891803 L 38.6776146961062,53.442641492723965 L 40.83805385212695,51.3402167394773 L 42.24359053997404,50.947651280812956 L 45.698497898320625,48.38543353527435 L 47.9401976249321,48.63314025914512 L 49.50155393166574,46.203180874106586 L 53.13964750438307,48.107515780487304 L 54.0390946710559,54.68322986524712 L 52.58058549704391,56.72878569860457 L 50.36821762986132,56.0733153847421 L 45.03428724207314,58.95283731066296 L 45.2495435723656,66.51345970805562 L 39.42071256313604,68.0796092756193 L 29.77780556233075,68.64639588096868 L 34.42534870796027,60.3069704643231 L 17.96453134491966,58.1278439376452 L 19.639645308424356,57.462392077099395 z" id="c37173"/>
		<path d="M 294.12030264520456,69.07777940382287 L 294.6713374176407,68.38860573921522 L 299.56559575189334,67.86795483603179 L 300.52458386390566,69.49257903808012 L 309.5275024434267,64.99886420877493 L 311.8160184542359,69.20783602593688 L 313.4100242983885,69.73210593744253 L 311.60203429623726,70.29771701150797 L 309.77682569978793,75.87308055840181 L 307.3506632705539,75.13842905207558 L 308.29875779647136,78.98664726981107 L 304.13913995883644,84.62968640827003 L 298.3150528585398,88.18733496193761 L 297.60593820840387,86.98806543951703 L 296.49429766875505,80.6474429996733 L 293.53274587375114,78.9074611862615 L 294.12030264520456,69.07777940382287 z" id="c37107"/>
		<path d="M 237.61568024359755,127.55479785654896 L 242.6918111261255,119.66645898736796 L 246.8392096997603,117.34678497182776 L 248.6003159969099,118.56560913364147 L 256.89405771645954,118.63786667952797 L 266.17361935110364,123.18820937517539 L 271.2296846842594,123.69989000015912 L 274.797340875589,121.91748713073088 L 277.26013457438137,124.43844814176079 L 279.0920161262039,124.21971525150146 L 274.9397364596031,131.99492950980977 L 269.47358979453486,132.66062332056097 L 267.28006625239817,136.26495658458543 L 263.40120341531247,134.656295755313 L 261.6746694416142,135.95756177068898 L 261.244594768723,140.2886728993677 L 257.3341179061836,143.45292465484115 L 256.88001931217076,147.02016139009177 L 249.48976136042,139.55938919383553 L 237.61908480140994,127.55831907751995 L 237.61568024359755,127.55479785654896 z" id="c37047"/>
		<path d="M 103.32398935452039,26.022182476424685 L 105.64992340657729,25.069465608411956 L 108.88376061163063,19.45082283528187 L 110.09026944986462,17.4720611999577 L 110.83643127635364,16.247270793551206 L 111.19711890238295,20.288359778984955 L 114.62435676313339,22.885741335560255 L 115.36993573482627,26.060823085150684 L 118.64445352576745,28.570901829383384 L 115.28693704728059,34.29280125624415 L 111.2016510411557,32.085668011316415 L 109.20027309465586,34.22134830295618 L 107.3860478288019,36.84794620469069 L 105.10397336522166,35.08867308520991 L 103.27903653983199,26.02232252101343 L 103.32398935452039,26.022182476424685 z" id="c37011"/>
		<path d="M 253.96470388408875,60.40023976094665 L 256.9328405218171,57.605755873640916 L 264.7242943406831,50.0314609943046 L 274.21739407561523,43.85927230540579 L 275.2974699117978,47.53077137893481 L 277.1186799707948,48.6560939497931 L 278.5116443452576,49.61717860699997 L 280.6138588541933,55.78653552369037 L 282.9072760236123,56.60032875352381 L 278.93462056760274,65.85074282165093 L 279.04121781452045,69.54432200114395 L 272.1530648378698,73.06810680537995 L 267.419770193655,74.9112551837249 L 263.7992848431003,74.4549519366365 L 261.68936780732605,71.54391990729057 L 262.06779661165774,70.5227980388999 L 256.1440736000646,61.670665830608115 L 253.96470388408875,60.40023976094665 z" id="c37101"/>
		<path d="M 110.71076954086891,38.48737424961204 L 109.20027309465586,34.22134830295618 L 111.2016510411557,32.085668011316415 L 115.28693704728059,34.29280125624415 L 119.51312394490827,39.19742233481907 L 126.25936867807586,44.7419800719342 L 134.86298476460712,45.49116690588004 L 131.64336500549828,50.3650576432669 L 126.8881817470425,56.285120314061544 L 126.78398257786209,56.497631137432776 L 125.44265733732063,56.79489719416783 L 119.86818909017823,55.44496832530778 L 117.15944082122012,53.52392977565347 L 113.92266250107119,55.55817803936303 L 112.11852080313471,47.54370009939881 L 106.99005808260583,42.58614498704222 L 110.71076954086891,38.48737424961204 z" id="c37023"/>
		<path d="M 279.5286908169265,94.20053378600556 L 278.65707886341426,78.4043299129053 L 284.02923470975304,78.20071897127976 L 290.9342766821416,80.67227304108347 L 293.53274587375114,78.9074611862615 L 296.49429766875505,80.6474429996733 L 297.60593820840387,86.98806543951703 L 298.3150528585398,88.18733496193761 L 300.88516211342363,90.03776518078907 L 301.8815822397146,91.86033483794333 L 300.8294521091461,103.97704650791152 L 287.17728229809785,104.50194706010403 L 281.11877849214227,104.1300195084568 L 277.26516383402947,103.07099306130716 L 279.5286908169265,94.20053378600556 z" id="c37061"/>
		<path d="M 301.8815822397146,91.86033483794333 L 300.88516211342363,90.03776518078907 L 308.67932331091043,90.16165019076414 L 314.8936507472871,93.41959525232377 L 319.3693176850184,92.40050593300694 L 324.11858223839863,100.06119441054085 L 325.9789066453685,101.58520293375044 L 326.67873161934875,108.09945845778653 L 325.59835550477004,108.40420631446688 L 320.90688306932526,110.98925286030581 L 317.24563564196217,113.91050543375349 L 310.90845707952366,117.54709209130617 L 308.5537041877736,119.45220062747708 L 305.7445736318068,117.33504588959063 L 300.8294521091461,103.97704650791152 L 301.8815822397146,91.86033483794333 z" id="c37133"/>
		<path d="M 63.07327523925869,41.67937268175168 L 64.4515333980353,39.97879506656812 L 66.24285707773177,37.44546367385336 L 65.86888015500621,34.54871888932797 L 66.63777566155296,34.197427605642716 L 68.14392672893202,33.50874727528805 L 70.08844363123713,34.87516067729547 L 71.42979242579084,33.374716450748984 L 71.87507463199314,31.16952837678402 L 74.35640282950767,29.84831880114892 L 78.76528929002848,27.59387172176505 L 79.72750271685416,29.000609287296765 L 80.15989784457454,29.632388520178225 L 79.37044030292623,32.44377911222372 L 81.69985112701087,33.65913272576413 L 83.98445489281755,32.19234048302762 L 84.43523582648307,36.20233751805284 L 88.11875095659202,41.358333295158026 L 87.6940096366676,41.60907909676046 L 87.26987387766536,41.57203871810467 L 86.90298145443175,41.844366695073845 L 86.38572995000868,41.72533016108746 L 86.05101101813061,41.88318084371562 L 85.6284588733979,41.74356320839055 L 85.55381203458033,42.17156725753347 L 85.05696133054148,42.34565147915099 L 84.52182769262218,42.153967057505724 L 84.217466260868,42.25311366546636 L 84.01547004311959,42.13200841812834 L 83.40624605708958,42.00882921368558 L 70.07527336793778,47.97740553599074 L 66.52772347256403,48.27126141898838 L 63.39109654216763,44.36887047785431 L 63.07327523925869,41.67937268175168 z" id="c37115"/>
		<path d="M 219.86650875987303,109.30980899599261 L 225.84112427995305,101.3891795026618 L 225.08795121388724,97.85776699065693 L 232.185984441629,98.14313222166518 L 239.11363312148242,91.60366269680333 L 243.5504218813064,94.3183779187333 L 245.31497222343157,98.06396916134318 L 249.6984736443383,106.0943164330514 L 246.8392096997603,117.34678497182776 L 242.6918111261255,119.66645898736796 L 237.61568024359755,127.55479785654896 L 237.61519707575775,127.5542981314659 L 224.55570688435543,113.98805576564742 L 220.38780303594214,109.83060589011562 L 219.86650875987303,109.30980899599261 z" id="c37155"/>
		<path d="M 14.311688241768957,83.96895457939125 L 21.492945840623626,76.04544631646345 L 26.8387292078515,75.31271520089905 L 30.384534823899717,75.24084211498285 L 37.951020987861405,84.92192065257169 L 34.94646646702725,84.89919842885953 L 31.738089376476587,84.87271572720509 L 17.42770232100885,84.13421842489707 L 17.417814987224673,84.13369236898959 L 14.311688241768957,83.96895457939125 z" id="c37043"/>
		<path d="M 187.65973272246777,60.944807404309394 L 192.86709710012556,60.92071178714942 L 206.3173855430474,60.72457996398548 L 209.15470026695965,74.8092298520174 L 213.1119391816302,79.91031934303913 L 202.41459299279074,78.72117076629212 L 192.2675069874096,80.86632676824472 L 191.30442161366008,74.68770328306283 L 193.49159436562525,68.30811448009968 L 190.96463148632142,63.442799940070444 L 187.65973272246777,60.944807404309394 z" id="c37123"/>
		<path d="M 216.56393013392614,42.53196682596747 L 230.2363511131679,42.53371154506234 L 229.6922791711188,40.740340400375075 L 237.19386128887578,41.635267203252994 L 240.1385225732314,41.50277594673668 L 245.07641900647187,41.2319548483058 L 244.92744234018747,42.61666057336083 L 243.72703071389284,46.52699546210785 L 241.09097262200976,55.42968199839866 L 244.70181021205988,56.88425364064156 L 242.23472222186297,60.29756680061159 L 235.6081328661999,54.43447466717405 L 231.88089493795727,58.25882034173126 L 225.11976183985016,60.471790646423806 L 215.86344775830278,60.59260357981561 L 216.56393013392614,42.53196682596747 z" id="c37037"/>
		<path d="M 173.63349396019478,27.45730602062628 L 176.6244537194926,25.806628680148428 L 176.99278450492181,21.515871141146317 L 176.11612205336678,20.2137153215341 L 176.16019518755525,19.108840738890528 L 194.7256541774806,19.579083167031342 L 194.50878022759807,25.67127474180853 L 194.22120887610282,33.13752004131956 L 186.6089196879119,32.167596157344725 L 186.58365130299413,33.824486399569075 L 178.494912352138,35.035714546172905 L 175.4685282495145,30.05055798387677 L 173.99457562377003,30.90904944381115 L 173.63349396019478,27.45730602062628 z" id="c37067"/>
		<path d="M 131.64336500549828,50.3650576432669 L 134.86298476460712,45.49116690588004 L 135.33504553306273,45.03636026932334 L 136.22361108598514,43.955694567677085 L 139.35717215962077,43.53667238833445 L 140.0700035933873,42.97467715603826 L 144.83210656261272,42.41008168030245 L 146.27519930715195,45.26438257465901 L 148.35995101904902,48.93841910744592 L 150.87262554230088,49.01367072238079 L 151.35170729128717,49.4691016981005 L 151.88699134406914,50.55961403832439 L 152.5798997315602,51.24373214561508 L 153.224943227422,52.847113554599474 L 154.26969110988043,53.88217590058335 L 153.96880279451682,55.61824665349385 L 152.72789201744274,58.03260542699165 L 126.8881817470425,56.285120314061544 L 131.64336500549828,50.3650576432669 z" id="c37035"/>
		<path d="M 174.20706841686686,42.67084013660893 L 178.19099658622622,42.26440656576678 L 179.5157213821835,39.83918766291319 L 178.494912352138,35.035714546172905 L 186.58365130299413,33.824486399569075 L 186.6089196879119,32.167596157344725 L 194.22120887610282,33.13752004131956 L 194.00658613433365,38.092252960561645 L 192.86709710012556,60.92071178714942 L 187.65973272246777,60.944807404309394 L 186.4993377998674,56.649378859081374 L 181.12773399197093,51.25079152624554 L 180.9831556284674,48.95543977551717 L 177.00651983311738,48.60339378737506 L 175.42048537454124,47.635561278962484 L 174.20706841686686,42.67084013660893 z" id="c37057"/>
		<path d="M 229.36785545814692,20.56093393841353 L 234.00266783307038,20.656965842939456 L 243.0717415886381,20.802374152814576 L 240.44357249619523,39.34600970928131 L 240.1385225732314,41.50277594673668 L 237.19386128887578,41.635267203252994 L 229.6922791711188,40.740340400375075 L 228.8593093224683,38.95662095032726 L 229.36785545814692,20.56093393841353 z" id="c37135"/>
		<path d="M 136.39182653044307,1.0185421540638098 L 144.22188086742898,1.4346791185961743 L 149.31473541450129,1.8135620379249093 L 156.4190594837239,2.2455285722601377 L 156.42194050038552,2.2455734643423573 L 153.10736039669922,8.142538954729812 L 153.33978920190825,10.980072669427729 L 150.65873032210354,12.513135763256855 L 147.6920474835048,8.730844764148868 L 144.66535594566616,9.120602253120502 L 140.54984470271808,12.658213925623048 L 140.99319845309282,11.80454761760863 L 136.39182653044307,1.0185421540638098 z" id="c37005"/>
		<path d="M 153.10736039669922,8.142538954729812 L 156.42194050038552,2.2455734643423573 L 159.1505245780867,2.287244737868078 L 165.1621963817568,2.373094465954529 L 169.27213604163148,2.6676541443360384 L 176.90782285574494,3.2046395823995444 L 176.16019518755525,19.108840738890528 L 176.11612205336678,20.2137153215341 L 171.89347344192643,17.727778951103108 L 157.34741825037847,20.180832390069547 L 157.63960688712686,15.223824846953603 L 153.33978920190825,10.980072669427729 L 153.10736039669922,8.142538954729812 z" id="c37171"/>
		<path d="M 29.21468641707481,70.90904201257241 L 28.675880467296405,70.30083597202514 L 29.77780556233075,68.64639588096868 L 39.42071256313604,68.0796092756193 L 45.2495435723656,66.51345970805562 L 47.828098223049686,72.29542416039315 L 50.22661262459447,71.81440017136222 L 50.06060351751006,76.28254778816739 L 53.514362824057955,80.80414452009475 L 54.9138882200627,85.11452409329185 L 54.90444252657297,85.11710921093798 L 45.20551661076165,84.96849818346529 L 37.951020987861405,84.92192065257169 L 30.384534823899717,75.24084211498285 L 26.8387292078515,75.31271520089905 L 29.21468641707481,70.90904201257241 z" id="c37113"/>
		<path d="M 2.2314258639636853,71.32507390867515 L 2.4447190612341037,70.18928665169018 L 5.2504688262762285,67.99605253640222 L 7.205991254967346,69.66338028141281 L 10.87689413500989,69.4842277129089 L 14.085171909771537,67.18292034912128 L 16.602033122236385,71.38197100027476 L 22.895627506292737,69.60454565245772 L 28.675880467296405,70.30083597202514 L 29.21468641707481,70.90904201257241 L 26.8387292078515,75.31271520089905 L 21.492945840623626,76.04544631646345 L 14.311688241768957,83.96895457939125 L 8.69985474965579,83.66585785152274 L 0.0,83.18206427535323 L 2.2314258639636853,71.32507390867515 z" id="c37039"/>
		<path d="M 322.7956006978947,47.92428857565633 L 331.31913101054374,51.83143564546157 L 337.4683878910307,48.33743291117453 L 337.6193579519639,49.11934519464266 L 346.8981574925806,48.93578204368552 L 349.2243579495063,53.534508189101636 L 354.723811596061,56.928680234395685 L 352.8954708209646,59.07479939742074 L 348.8690176191501,59.08572631936711 L 352.558362594376,68.1506855856533 L 349.46639717726043,67.77360004511327 L 347.7369422669166,74.77965561905903 L 338.14907587558827,76.05837465954762 L 335.8290027050251,74.02611206499691 L 332.9342663164145,71.49302654414646 L 322.4331682527641,65.23842921433175 L 322.9142539296183,59.701286007507534 L 326.2702578794419,57.84177359644291 L 326.94014227024815,57.7264253646923 L 322.9458959849763,53.08037900183035 L 321.8519260546449,49.760705400218406 L 322.7956006978947,47.92428857565633 z" id="c37013"/>
		<path d="M 88.58164117543994,26.76873598983219 L 91.43571250325861,25.114679396432457 L 93.66516370337182,24.18149674930411 L 95.08085624762916,24.552998786018524 L 97.15533435304054,23.177671960720303 L 97.56617852809944,22.90507398158917 L 100.66722146052082,24.259634417069567 L 101.2234830271758,26.028239097835193 L 103.27903653983199,26.02232252101343 L 105.10397336522166,35.08867308520991 L 107.3860478288019,36.84794620469069 L 107.42250176097461,38.29790098777234 L 100.45229140695038,41.48235968989926 L 97.91001393014645,30.82810128216919 L 95.38347147027795,31.29722431140367 L 91.16344744296666,26.80575209731292 L 88.22791651102348,27.33144345279778 L 88.58164117543994,26.76873598983219 z" id="c37121"/>
		<path d="M 311.60203429623726,70.29771701150797 L 313.4100242983885,69.73210593744253 L 317.73128401306536,67.48043553963947 L 319.8479891640255,68.80410789651317 L 322.4331682527641,65.23842921433175 L 332.9342663164145,71.49302654414646 L 335.8290027050251,74.02611206499691 L 331.81733593304085,79.55446567594117 L 333.9567267879062,81.48341206424527 L 333.50426869970784,86.87817000223065 L 341.4065635636892,90.60558822907217 L 344.49219274316073,88.81100825291789 L 347.2211894475168,91.17843131296037 L 345.47650969214845,94.98469990303668 L 336.88272856461293,96.51285976979587 L 333.6926422898625,98.55144590993547 L 328.07202152610347,98.5396202725907 L 326.6637978687866,97.49585788136596 L 326.3781108243733,84.41306508524679 L 322.83663046299534,83.79248128918154 L 309.77682569978793,75.87308055840181 L 311.60203429623726,70.29771701150797 z" id="c37049"/>
		<path d="M 111.31918115826262,15.454438356547554 L 114.72761311440117,13.05708136939899 L 117.57665550918011,13.484244466979657 L 120.37777914966834,13.70170307253478 L 119.5912781890225,10.858496474350064 L 123.41141515875593,13.171618195832014 L 126.49889255924255,17.514600417097387 L 130.41303505323035,19.37332118809764 L 131.32716531646525,21.587836971114594 L 127.21001529494906,26.051942199070606 L 121.4293689207842,25.621589449631834 L 115.36993573482627,26.060823085150684 L 114.62435676313339,22.885741335560255 L 111.19711890238295,20.288359778984955 L 110.83643127635364,16.247270793551206 L 111.31918115826262,15.454438356547554 z" id="c37189"/>
		<path d="M 66.52772347256403,48.27126141898838 L 70.07527336793778,47.97740553599074 L 83.40624605708958,42.00882921368558 L 84.01547004311959,42.13200841812834 L 84.217466260868,42.25311366546636 L 84.52182769262218,42.153967057505724 L 85.05696133054148,42.34565147915099 L 85.55381203458033,42.17156725753347 L 85.6284588733979,41.74356320839055 L 86.05101101813061,41.88318084371562 L 86.38572995000868,41.72533016108746 L 86.90298145443175,41.844366695073845 L 87.26987387766536,41.57203871810467 L 87.6940096366676,41.60907909676046 L 88.11875095659202,41.358333295158026 L 90.21915416926804,41.270742002677444 L 91.28627313064844,45.25331198366867 L 93.49896595414215,46.6414240475212 L 93.87930218194575,47.815104458138165 L 92.97194414548451,54.01315336369338 L 98.34007959178969,57.68459659081443 L 95.4406777120142,58.05403255940876 L 93.88186368152037,60.843011356268775 L 90.92608005162674,58.960778870189834 L 83.51671951265858,61.73598183066171 L 81.7730394218775,63.24736636170112 L 75.52980121244451,60.661907321611096 L 72.2240180440887,62.54741393581957 L 69.93557737413718,59.881247831686345 L 71.39993102073156,54.092982767979144 L 68.08823430145388,51.85250072836643 L 66.52772347256403,48.27126141898838 z" id="c37021"/>
		<path d="M 93.87930218194575,47.815104458138165 L 94.65683531293863,48.14826296376182 L 97.61243367491363,46.23676514003094 L 100.45229140695038,41.48235968989926 L 107.42250176097461,38.29790098777234 L 107.3860478288019,36.84794620469069 L 109.20027309465586,34.22134830295618 L 110.71076954086891,38.48737424961204 L 106.99005808260583,42.58614498704222 L 112.11852080313471,47.54370009939881 L 113.92266250107119,55.55817803936303 L 113.04667350478408,57.334408602696534 L 107.39369207274265,58.06383970884693 L 98.34007959178969,57.68459659081443 L 92.97194414548451,54.01315336369338 L 93.87930218194575,47.815104458138165 z" id="c37111"/>
		<path d="M 220.10993698507218,86.55318929523132 L 225.71013162963737,80.08564229579994 L 229.85559621097792,77.23221150624455 L 236.45988329261405,79.4137586812343 L 235.76425077816523,82.08572191547555 L 239.19662191824318,91.37051055002301 L 239.11363312148242,91.60366269680333 L 232.185984441629,98.14313222166518 L 225.08795121388724,97.85776699065693 L 224.87020029322207,92.04175208818286 L 220.10993698507218,86.55318929523132 z" id="c37093"/>
		<path d="M 206.3173855430474,60.72457996398548 L 215.86344775830278,60.59260357981561 L 225.11976183985016,60.471790646423806 L 224.6728637916415,63.11039507479442 L 228.5367491009387,69.54167443038072 L 232.5896076052701,72.09360085282262 L 230.80470908910016,74.23744348478782 L 236.54138479284916,78.43205324159808 L 236.45988329261405,79.4137586812343 L 229.85559621097792,77.23221150624455 L 225.71013162963737,80.08564229579994 L 220.10993698507218,86.55318929523132 L 214.81584749499956,85.08041039567979 L 213.1119391816302,79.91031934303913 L 209.15470026695965,74.8092298520174 L 206.3173855430474,60.72457996398548 z" id="c37125"/>
		<path d="M 333.428349987346,2.945501273111358 L 333.44192173289105,2.9447516285581505 L 341.31383630058224,2.5028647295077535 L 350.03324025896535,2.3065866797215717 L 352.3370908122202,4.457534323323107 L 352.39248555199316,6.770498527356645 L 354.1957129996749,11.710971974078275 L 349.5184525653759,13.317130515025688 L 344.6536072270759,15.407491477524475 L 343.4935357636106,16.484857154942823 L 339.7192372092768,12.918821720848742 L 332.23691568833243,10.252531972443219 L 333.428349987346,2.945501273111358 z" id="c37073"/>
		<path d="M 300.8045678932366,51.46083420632818 L 306.7508812872998,47.05144873017932 L 313.0089376063164,42.5770028356167 L 314.8042611696879,43.30894265428861 L 319.101040590148,45.04495903422893 L 322.7956006978947,47.92428857565633 L 321.8519260546449,49.760705400218406 L 322.9458959849763,53.08037900183035 L 326.94014227024815,57.7264253646923 L 326.2702578794419,57.84177359644291 L 322.9142539296183,59.701286007507534 L 322.4331682527641,65.23842921433175 L 319.8479891640255,68.80410789651317 L 317.73128401306536,67.48043553963947 L 313.4100242983885,69.73210593744253 L 311.8160184542359,69.20783602593688 L 309.5275024434267,64.99886420877493 L 308.1816428266714,59.98554013071459 L 303.3458960210661,57.33565184187401 L 299.2242772325639,52.72777457297228 L 300.8045678932366,51.46083420632818 z" id="c37147"/>
		<path d="M 115.36993573482627,26.060823085150684 L 121.4293689207842,25.621589449631834 L 127.21001529494906,26.051942199070606 L 133.73648475493295,29.024686369641678 L 136.74873259305315,32.941670198132364 L 135.82412705842486,42.41145685907711 L 136.22361108598514,43.955694567677085 L 135.33504553306273,45.03636026932334 L 134.86298476460712,45.49116690588004 L 126.25936867807586,44.7419800719342 L 119.51312394490827,39.19742233481907 L 115.28693704728059,34.29280125624415 L 118.64445352576745,28.570901829383384 L 115.36993573482627,26.060823085150684 z" id="c37027"/>
		<path d="M 218.05212834241382,4.151637705119224 L 218.1854170903286,4.1528871600716775 L 219.98849705811352,4.156390472958923 L 225.62737840703176,4.162588375200947 L 231.16494659124643,4.161657341533655 L 234.72394352210782,4.157388079664494 L 234.00266783307038,20.656965842939456 L 229.36785545814692,20.56093393841353 L 217.15705753742955,20.169556819752113 L 218.05212834241382,4.151637705119224 z" id="c37033"/>
		<path d="M 119.04632170196061,67.68359317574935 L 119.86818909017823,55.44496832530778 L 125.44265733732063,56.79489719416783 L 126.78398257786209,56.497631137432776 L 127.79037619374836,56.878071666069395 L 130.27315917839587,64.53471613489569 L 134.61087152649972,69.54996331641065 L 136.09626757843483,73.44628790603176 L 135.68256255778937,78.83937890598686 L 133.89997470011525,78.69779740295536 L 128.18661864410578,78.23918837985597 L 115.83226231328626,77.37082035754102 L 119.04632170196061,67.68359317574935 z" id="c37045"/>
		<path d="M 346.8981574925806,48.93578204368552 L 357.29856064765795,49.0964231717702 L 363.44406085391586,49.30727664530498 L 362.28087904332847,53.84542412874091 L 365.9769524122432,54.33581850939806 L 369.01662393887347,48.50447116916059 L 374.32926231112725,50.20042051781674 L 379.9905857184241,50.02157782879895 L 384.2077516503009,59.1797837542879 L 387.6734478668463,76.38548217447622 L 387.30081064798605,76.53736149818474 L 380.4078823117279,80.25176581388516 L 375.9774336467617,83.56612816335888 L 373.4949142734038,80.16769046928692 L 362.6094812708732,76.26459890545318 L 355.6225822651072,69.13254850888895 L 352.558362594376,68.1506855856533 L 348.8690176191501,59.08572631936711 L 352.8954708209646,59.07479939742074 L 354.723811596061,56.928680234395685 L 349.2243579495063,53.534508189101636 L 346.8981574925806,48.93578204368552 z" id="c37095"/>
		<path d="M 352.27486418724754,2.253338107385056 L 360.18641293195054,2.056286212650381 L 367.2553146804371,8.755118324817637 L 369.3409807293234,12.430496800092994 L 372.1548938457216,12.219957479208636 L 376.81817263210485,16.15229629139259 L 379.73737101769933,22.809615435799575 L 379.0533359436585,27.094934589112025 L 373.86774606420806,27.210773742340926 L 373.84179151159293,26.657018471820813 L 373.43669398717066,23.25006075499067 L 369.0223046859618,17.59038165220162 L 364.8865335923234,15.817430789200738 L 364.099954487162,11.776819072262985 L 354.7990418010817,6.75317719653028 L 352.3370908122202,4.457534323323107 L 350.03324025896535,2.3065866797215717 L 352.27486418724754,2.253338107385056 z" id="c37029"/>
		<path d="M 13.837711380458376,64.0718299530305 L 15.27537995261495,62.86101546487909 L 14.73587978749046,60.863679094386804 L 17.04746354500946,58.4918018702735 L 17.703014381674894,58.231658069361714 L 17.96453134491966,58.1278439376452 L 34.42534870796027,60.3069704643231 L 29.77780556233075,68.64639588096868 L 28.675880467296405,70.30083597202514 L 22.895627506292737,69.60454565245772 L 16.602033122236385,71.38197100027476 L 14.085171909771537,67.18292034912128 L 14.347417082784743,66.99460459823887 L 13.837711380458376,64.0718299530305 z" id="c37075"/>
		<path d="M 57.361525203776395,82.28827283689333 L 60.866492557322026,78.1319007945647 L 64.02983710815924,69.4406785512266 L 68.10967284466646,68.13788444295099 L 72.2240180440887,62.54741393581957 L 77.65118076021334,69.31558250164777 L 79.21164215045003,78.02940892828047 L 74.27445842339556,79.05618201455385 L 71.45202665947774,81.45103567287289 L 70.74496933668365,81.27184816271286 L 69.79991174974056,81.03215001846463 L 64.57412986823793,82.45861842144343 L 59.49537225284071,83.85793724763734 L 57.361525203776395,82.28827283689333 z" id="c37175"/>
		<path d="M 270.9093991326506,4.016232670972464 L 279.3842193738729,3.8738514464328597 L 283.2351543293254,3.817245009022966 L 289.73892722525244,3.7140043324497225 L 289.77480831434815,5.948293197815752 L 289.29552582759896,12.659417402319155 L 285.18477657140886,22.600457828772075 L 280.6435243986224,22.244903002137896 L 279.50546554724207,20.245520660397613 L 271.75973123288475,19.216068341616243 L 273.071981973352,17.008199942174137 L 270.9093991326506,4.016232670972464 z" id="c37185"/>
		<path d="M 165.1989982303357,30.508208003255092 L 173.99457562377003,30.90904944381115 L 175.4685282495145,30.05055798387677 L 178.494912352138,35.035714546172905 L 179.5157213821835,39.83918766291319 L 178.19099658622622,42.26440656576678 L 174.20706841686686,42.67084013660893 L 175.42048537454124,47.635561278962484 L 174.86085504692292,46.23349252207329 L 165.08493338503527,40.84064706358242 L 164.35751239804472,41.410466521616485 L 165.1989982303357,30.508208003255092 z" id="c37059"/>
		<path d="M 320.7390626622763,19.682702681074943 L 324.31699054708923,7.2492637794474994 L 326.8012160381973,5.808989350901864 L 322.40201554740213,3.159278355041541 L 333.37153149105694,2.9486392253497122 L 333.428349987346,2.945501273111358 L 332.23691568833243,10.252531972443219 L 339.7192372092768,12.918821720848742 L 343.4935357636106,16.484857154942823 L 343.1140599461348,19.37543154106737 L 321.99958081679574,19.869625278654222 L 320.7390626622763,19.682702681074943 z" id="c37091"/>
		<path d="M 236.45988329261405,79.4137586812343 L 236.54138479284916,78.43205324159808 L 246.26824593995437,76.31951851835127 L 250.13984951592553,74.35393630302842 L 258.15153661694046,75.45648955486735 L 257.1685725790471,82.60248985354434 L 255.690556406962,84.28543678859515 L 256.85116870874725,89.4000691082137 L 263.78658971013476,96.85711174249674 L 262.81793676676705,97.42663340550081 L 249.95883912573996,97.19925428619311 L 245.31497222343157,98.06396916134318 L 243.5504218813064,94.3183779187333 L 239.11363312148242,91.60366269680333 L 239.19662191824318,91.37051055002301 L 235.76425077816523,82.08572191547555 L 236.45988329261405,79.4137586812343 z" id="c37051"/>
		<path d="M 249.68289800624683,20.988222684610356 L 249.91859823704536,4.145710318299651 L 252.6794146025075,4.147479480660904 L 262.63676817461936,4.139500917888253 L 264.97704282964776,4.106203895949072 L 263.1876495399889,5.589631364262604 L 262.6042218307581,8.888043016276448 L 263.33194907713556,24.275220404973897 L 261.2049974227845,29.478602563228275 L 261.14826865495894,32.72716610526935 L 255.02242124409509,29.852792032264325 L 251.9825170824512,30.062337383741063 L 249.4629015034193,29.140332711997942 L 249.68289800624683,20.988222684610356 z" id="c37077"/>
		<path d="M 146.27519930715195,45.26438257465901 L 149.4234780067668,40.85728513993585 L 151.13855034143506,35.36395536232753 L 150.19484222722775,30.53559212139505 L 152.58471228478024,29.859480449222186 L 156.78517098909288,30.111303943944176 L 165.1989982303357,30.508208003255092 L 164.35751239804472,41.410466521616485 L 161.32399235477948,51.30655288091476 L 162.47066464927323,57.524811312210915 L 162.6993581138152,60.48671898058752 L 160.59466842862045,60.43766121294273 L 155.09048118228293,59.85276577822083 L 153.23488068971997,61.26488066351315 L 153.62364630833395,59.012871770565376 L 152.72789201744274,58.03260542699165 L 153.96880279451682,55.61824665349385 L 154.26969110988043,53.88217590058335 L 153.224943227422,52.847113554599474 L 152.5798997315602,51.24373214561508 L 151.88699134406914,50.55961403832439 L 151.35170729128717,49.4691016981005 L 150.87262554230088,49.01367072238079 L 148.35995101904902,48.93841910744592 L 146.27519930715195,45.26438257465901 z" id="c37097"/>
		<path d="M 245.31497222343157,98.06396916134318 L 249.95883912573996,97.19925428619311 L 262.81793676676705,97.42663340550081 L 263.78658971013476,96.85711174249674 L 268.5375419970603,102.70239312605737 L 268.4844461421925,103.15379442388495 L 269.29854321491615,105.3795202562146 L 274.80862873331284,113.43683146541517 L 274.78044004218435,115.9120516695263 L 278.3968479645967,118.26370602511383 L 274.797340875589,121.91748713073088 L 271.2296846842594,123.69989000015912 L 266.17361935110364,123.18820937517539 L 256.89405771645954,118.63786667952797 L 248.6003159969099,118.56560913364147 L 246.8392096997603,117.34678497182776 L 249.6984736443383,106.0943164330514 L 245.31497222343157,98.06396916134318 z" id="c37017"/>
		<path d="M 257.3341179061836,143.45292465484115 L 261.244594768723,140.2886728993677 L 261.6746694416142,135.95756177068898 L 263.40120341531247,134.656295755313 L 267.28006625239817,136.26495658458543 L 269.47358979453486,132.66062332056097 L 274.9397364596031,131.99492950980977 L 279.0920161262039,124.21971525150146 L 280.227930271284,123.40090485268095 L 285.1482723682888,125.55334647615554 L 288.55097445505385,130.87159629755826 L 291.9235545366827,141.63410656473465 L 290.58566004818437,145.30935050445672 L 289.7315163132672,148.1347142662521 L 288.6076690161898,151.84651117114137 L 286.4656802390096,151.57188647297554 L 285.90220666908925,149.94942430202642 L 280.4637259673908,148.68534959786308 L 274.0778077825875,148.7261569864925 L 269.13501459265984,149.33279862509116 L 261.93860462195374,152.16906338487698 L 258.4886182717972,148.63931846378983 L 256.88001931217076,147.02016139009177 L 257.3341179061836,143.45292465484115 z" id="c37019"/>
		<path d="M 255.690556406962,84.28543678859515 L 257.1685725790471,82.60248985354434 L 258.15153661694046,75.45648955486735 L 259.6598156840346,72.63309597739922 L 261.68936780732605,71.54391990729057 L 263.7992848431003,74.4549519366365 L 267.419770193655,74.9112551837249 L 272.1530648378698,73.06810680537995 L 274.9020737872755,76.43808528092345 L 278.19225552679546,77.43801290346703 L 278.65707886341426,78.4043299129053 L 279.5286908169265,94.20053378600556 L 277.26516383402947,103.07099306130716 L 281.11877849214227,104.1300195084568 L 281.12664992741674,104.95084939690517 L 274.80862873331284,113.43683146541517 L 269.29854321491615,105.3795202562146 L 268.4844461421925,103.15379442388495 L 268.5375419970603,102.70239312605737 L 263.78658971013476,96.85711174249674 L 256.85116870874725,89.4000691082137 L 255.690556406962,84.28543678859515 z" id="c37163"/>
	</g>
</svg>