<?xml version="1.0" encoding="UTF-8"?>
<svg baseProfile="full" fill="#d0d0d0" height="400.0" stroke="#ffffff" stroke-width="1" version="1.1" width="369.5212079101421" xmlns="http://www.w3.org/2000/svg" xmlns:ev="http://www.w3.org/2001/xml-events" xmlns:xlink="http://www.w3.org/1999/xlink">
	<defs/>
	<g id="counties"><path d="M 47.111222640554786,55.06399893363475 L 85.56093849955207,55.549385587475165 L 85.40749775148991,63.685967419475745 L 85.14713769109939,91.16869298512124 L 55.927948098165906,90.86639987634064 L 56.48677305430733,61.68712596976631 L 46.99482382898976,61.519792096340325 L 47.111222640554786,55.06399893363475 z" id="c39069"/>
		<path d="M 102.18730340701552,253.07722321125223 L 136.65833557193642,255.84246996937975 L 135.25190760410393,275.79550188211726 L 125.95191145476593,291.17769974758755 L 107.0891182396663,290.81825982865877 L 108.38600012413494,274.64400243007185 L 107.78286974264613,272.28809050330824 L 100.487174950328,271.6204452951648 L 102.18730340701552,253.07722321125223 z" id="c39047"/>
		<path d="M 180.54268556625303,183.2138904149803 L 188.93118602859136,183.7370381409376 L 190.91498973881218,160.9244387980667 L 212.0497235200931,160.81374639198145 L 215.27252659708026,160.34832826716615 L 225.19682760075378,158.85204823430357 L 228.68140652754406,158.29349979190428 L 228.2580345301449,171.31054442536916 L 227.38047016384064,195.51159316441473 L 203.35911637988323,194.8058494448462 L 203.45747929630983,192.70107226295394 L 180.02371387387868,191.30111044474114 L 180.54268556625303,183.2138904149803 z" id="c39083"/>
		<path d="M 68.29697639693406,234.3969875965069 L 69.89404791265622,216.55579930972587 L 114.36989895121732,220.54847720489698 L 107.87656002734502,247.3673383611128 L 102.79964766933476,246.82862795567405 L 87.17905963889262,243.8505779554866 L 77.79370634316334,238.57260320362795 L 68.00494881451884,237.6623959073967 L 68.29697639693406,234.3969875965069 z" id="c39023"/>
		<path d="M 84.62526673213068,129.9244037329191 L 115.44159668250077,130.5465956823561 L 116.99304500494902,143.55717659225766 L 121.71003027914135,143.53310431957965 L 123.41576054923436,145.2645537686579 L 123.52740141452657,163.12406867890513 L 123.30154673826284,165.49459208716513 L 114.6647027381571,165.5269279689624 L 84.12281985586435,162.00756457550477 L 84.13157838036986,161.24995775939524 L 84.30526703284924,149.44295910417176 L 84.62526673213068,129.9244037329191 z" id="c39065"/>
		<path d="M 136.65833557193642,255.84246996937975 L 137.52116489187304,242.80694995061722 L 173.55202508161213,244.97805287730353 L 171.84270159604165,270.98865298658285 L 181.4507575979995,271.804122225883 L 180.62984082950908,281.3945475317931 L 158.40214381831262,279.99553235554583 L 135.25190760410393,275.79550188211726 L 136.65833557193642,255.84246996937975 z" id="c39129"/>
		<path d="M 127.41458895408066,311.2312102617603 L 176.62027693829936,314.76370065329843 L 174.69484681035388,339.3510499241705 L 154.1174633768078,338.2626318962972 L 139.460256986058,337.79948529638915 L 134.40697057591998,331.5554089814104 L 130.6395897219895,327.4641967897882 L 124.46984959198586,327.0695053352405 L 127.41458895408066,311.2312102617603 z" id="c39131"/>
		<path d="M 64.61452871123176,238.95095377989674 L 68.00494881451884,237.6623959073967 L 77.79370634316334,238.57260320362795 L 87.17905963889262,243.8505779554866 L 102.79964766933476,246.82862795567405 L 102.18730340701552,253.07722321125223 L 100.487174950328,271.6204452951648 L 74.0622199868053,269.111681534908 L 62.25229223116491,267.92018397399113 L 64.61452871123176,238.95095377989674 z" id="c39057"/>
		<path d="M 136.77382560672447,216.49486255713947 L 140.59573603673095,214.6705534588553 L 141.00329042799973,209.9438733407415 L 144.1379587990394,206.0298695227004 L 158.22127835399124,206.87686566623537 L 161.11878448821162,207.04939054322125 L 179.02775403291395,208.13600581095255 L 178.51849225638327,216.4706414085836 L 177.94932538069236,224.8136078044274 L 177.1930600834509,228.87347153135178 L 174.7665691611575,228.6981053803986 L 175.72881020899882,237.7788829753029 L 175.43446032304033,241.87008939614515 L 173.55202508161213,244.97805287730353 L 137.52116489187304,242.80694995061722 L 136.77382560672447,216.49486255713947 z" id="c39049"/>
		<path d="M 85.40749775148991,63.685967419475745 L 87.83725279162829,63.72989747917311 L 96.89678402250992,58.09683294151427 L 102.64404245396433,49.190690781157954 L 110.42354750140763,43.26438904289008 L 112.31987093696785,41.43613281204896 L 124.83685771386013,41.406396942336116 L 124.80789156289012,54.65289598967207 L 124.0815888329912,82.0801950659466 L 123.87715192518698,91.79622174632189 L 85.14713769109939,91.16869298512124 L 85.40749775148991,63.685967419475745 z" id="c39173"/>
		<path d="M 7.042581320435403,109.40387224887375 L 41.08628171432917,110.11935125995531 L 40.96626590624386,119.8169522546956 L 45.75336066397099,124.84103837186325 L 40.841935879066895,129.54488550223368 L 40.574963195280304,144.13811626707908 L 35.538431328640584,144.03397825734785 L 35.647654488377164,139.19539472849004 L 6.336986982756999,138.49753787200976 L 6.337039886328842,138.49563771055742 L 6.86208818868748,116.84424285949089 L 7.042581320435403,109.40387224887375 z" id="c39161"/>
		<path d="M 40.841935879066895,129.54488550223368 L 45.75336066397099,124.84103837186325 L 65.2873957685615,125.01630710342324 L 65.38322903581457,120.14482177233685 L 84.7720251554936,118.72798798394254 L 84.62526673213068,129.9244037329191 L 84.30526703284924,149.44295910417176 L 64.99200051645398,149.29270108952042 L 55.328384114339855,144.32942593674738 L 40.574963195280304,144.13811626707908 L 40.841935879066895,129.54488550223368 z" id="c39003"/>
		<path d="M 300.65349396594627,197.6606274811656 L 300.81456668716123,187.6242321160692 L 305.8717170415379,187.65320037742987 L 306.1251920570363,173.16000592364583 L 311.03158540870965,173.09241247791883 L 334.0639629540273,173.6922944511029 L 340.571682046114,173.77049785430663 L 339.63564700219604,203.1405363408687 L 321.9474239693052,202.6115704775302 L 312.8644968344215,202.1802384761357 L 310.30133597993245,202.44797913182236 L 300.5873432106686,202.36920284871607 L 300.65349396594627,197.6606274811656 z" id="c39067"/>
		<path d="M 73.18919874881124,186.223575054146 L 73.62901585885587,167.26888935795301 L 74.45170290050487,161.48264852254405 L 84.13157838036986,161.24995775939524 L 84.12281985586435,162.00756457550477 L 114.6647027381571,165.5269279689624 L 111.65042634544595,196.0965140942692 L 91.81945337824403,192.41324330772352 L 72.1695209480118,190.6034582025538 L 73.18919874881124,186.223575054146 z" id="c39091"/>
		<path d="M 320.8839943797551,121.0862903257219 L 320.879619768523,120.77984423205075 L 336.9522544744725,117.31754183987174 L 343.256958305343,120.4583104198242 L 368.7852359702627,119.99093357706151 L 368.9230510553503,125.44663758150737 L 369.5212079101421,149.11647670481298 L 364.0937722745975,151.83198776644167 L 360.38797055832566,151.42043094494974 L 357.0141076104467,155.6639709979522 L 350.2599596675992,154.18767729578505 L 340.5012555518354,154.10854334877743 L 335.646710326196,149.28891070966552 L 335.55881497262595,139.99013166432576 L 321.14166667325867,140.13947414022223 L 320.8839943797551,121.0862903257219 z" id="c39029"/>
		<path d="M 162.43062481725192,167.4261377816675 L 162.57373914938836,151.27447175815453 L 170.89244034395327,150.11675217596138 L 171.04239379681084,143.58640400361432 L 172.69013189901065,142.7484329587593 L 182.16194858339702,142.93480316408835 L 185.3875453921491,142.96143974412308 L 190.63651917847343,143.15109791912045 L 189.12077005208903,147.93808341587524 L 190.91498973881218,160.9244387980667 L 188.93118602859136,183.7370381409376 L 180.54268556625303,183.2138904149803 L 164.80850721462534,182.2038849680611 L 165.24903066606544,175.86925364599773 L 157.0858017125384,173.7315988058694 L 162.43062481725192,167.4261377816675 z" id="c39117"/>
		<path d="M 270.62568303078405,239.40253101345556 L 280.40546227517183,239.69930059117516 L 280.48448756682865,233.17185546228473 L 290.3118096745996,233.41064244090356 L 296.93371882606607,227.07364244579867 L 309.96049662507517,226.83171547461663 L 309.8153323357202,236.13094555658296 L 303.2653579442058,236.03985351862062 L 303.0348604826381,254.1056176722941 L 306.2946975923239,265.3775769592966 L 296.66112797442366,265.9792743439699 L 289.86112161058105,261.11194312206806 L 289.91650266275667,268.09286079147563 L 280.02308540676756,267.79555296085175 L 280.1101448017826,259.2129573934224 L 275.19446181422677,259.0747821666377 L 275.3834048724871,249.29717622356657 L 270.43188863630417,249.10460642117866 L 270.62568303078405,239.40253101345556 z" id="c39121"/>
		<path d="M 2.359151446992935,250.01382830787043 L 2.359404446640992,250.00709088979835 L 3.1543682776737314,228.81964365786578 L 31.1204874101815,229.3328969132483 L 30.820392015602753,265.81927736579667 L 30.78883518173205,268.29643912709685 L 1.7537177740210623,267.7004873597038 L 2.359151446992935,250.01382830787043 z" id="c39135"/>
		<path d="M 182.44469929059258,111.24792365042536 L 207.08708246120023,111.57032488441057 L 208.32592856603623,131.2562192029935 L 215.12605835887317,151.0463246910023 L 215.27252659708026,160.34832826716615 L 212.0497235200931,160.81374639198145 L 190.91498973881218,160.9244387980667 L 189.12077005208903,147.93808341587524 L 190.63651917847343,143.15109791912045 L 185.3875453921491,142.96143974412308 L 182.16194858339702,142.93480316408835 L 182.44469929059258,111.24792365042536 z" id="c39139"/>
		<path d="M 42.817372559315395,30.408253528443506 L 46.08644387458819,30.363430341621054 L 64.96621846505121,30.075824929964128 L 86.1850399445542,29.633126556656972 L 85.56093849955207,55.549385587475165 L 47.111222640554786,55.06399893363475 L 47.16601250447268,51.87917342503873 L 43.92672253544375,51.82841650607014 L 44.125443100277096,40.37717082002333 L 42.817372559315395,30.408253528443506 z" id="c39051"/>
		<path d="M 137.7046158360193,172.45488213469557 L 157.0858017125384,173.7315988058694 L 165.24903066606544,175.86925364599773 L 164.80850721462534,182.2038849680611 L 180.54268556625303,183.2138904149803 L 180.02371387387868,191.30111044474114 L 179.02775403291395,208.13600581095255 L 161.11878448821162,207.04939054322125 L 158.22127835399124,206.87686566623537 L 144.1379587990394,206.0298695227004 L 144.0240158553975,194.75788518588536 L 137.52808764600871,194.68168942427064 L 137.7046158360193,172.45488213469557 z" id="c39041"/>
		<path d="M 36.335636529657634,198.4105114852855 L 54.61273790622648,198.46254276587382 L 71.29954521622086,200.56203365252472 L 69.89404791265622,216.55579930972587 L 68.29697639693406,234.3969875965069 L 59.19564509457573,233.54050088471973 L 59.23497983542671,229.42106014329278 L 36.223147645702966,229.32129958326738 L 36.335636529657634,198.4105114852855 z" id="c39109"/>
		<path d="M 36.57000330364971,180.86566036209436 L 44.78967915817526,178.29508435278643 L 44.98325111010273,166.9472531325079 L 73.62901585885587,167.26888935795301 L 73.18919874881124,186.223575054146 L 72.1695209480118,190.6034582025538 L 71.29954521622086,200.56203365252472 L 54.61273790622648,198.46254276587382 L 36.335636529657634,198.4105114852855 L 36.54853344614602,180.89582745488133 L 36.57000330364971,180.86566036209436 z" id="c39149"/>
		<path d="M 269.89711487794443,95.32060418696187 L 269.92193339930157,79.58951173853254 L 271.13542785153504,79.56592587418692 L 277.8559452345016,79.46561033036134 L 279.99065931414606,79.4203086797058 L 277.1399724601756,71.27218597096697 L 283.8902509696661,71.31101863982622 L 289.54368687230055,71.3572474203092 L 294.46752315172796,71.3939356478565 L 294.557405200444,79.3726943936599 L 294.73307043871614,95.07315996409567 L 294.7476158509226,99.00459487137309 L 294.7906099867073,107.36034236726933 L 294.84556568431816,111.4713487202699 L 292.66712910910763,120.59235003540485 L 273.4449951343951,120.01366579710132 L 273.367722701742,111.709016634684 L 269.9234531988874,111.73886313746544 L 269.89711487794443,95.32060418696187 z" id="c39153"/>
		<path d="M 45.36574948286673,312.5618109541012 L 46.35060648174106,311.24014993822715 L 43.684628588877366,307.06719947016876 L 49.042058289491564,301.8984435948195 L 70.89029263925292,304.06044848855 L 72.07209192858474,304.1736091107096 L 65.95853118052234,357.8581100640045 L 58.80406072464054,355.73533438092244 L 52.05318611666637,353.7974554225352 L 50.95027004812778,351.09257762371783 L 50.35979813305184,349.64358014177606 L 50.51436304750654,346.0755186289944 L 50.54221708608926,345.4323306835398 L 45.83429913498007,336.9431771462813 L 45.12127770558695,333.1493001919516 L 43.11046396881054,329.66420337166744 L 45.36574948286673,312.5618109541012 z" id="c39025"/>
		<path d="M 3.5221770193866253,219.0049315951971 L 3.9480181020088962,207.63226806317587 L 4.869250795867739,185.0470565623622 L 5.062738197748611,180.29734526227298 L 36.54853344614602,180.89582745488133 L 36.335636529657634,198.4105114852855 L 36.223147645702966,229.32129958326738 L 31.1204874101815,229.3328969132483 L 3.1543682776737314,228.81964365786578 L 3.5221770193866253,219.0049315951971 z" id="c39037"/>
		<path d="M 71.29954521622086,200.56203365252472 L 72.1695209480118,190.6034582025538 L 91.81945337824403,192.41324330772352 L 111.65042634544595,196.0965140942692 L 116.49853966420615,196.58821846885508 L 115.56546222128192,209.27837243326871 L 114.36989895121732,220.54847720489698 L 69.89404791265622,216.55579930972587 L 71.29954521622086,200.56203365252472 z" id="c39021"/>
		<path d="M 335.45335675431096,168.8455968309447 L 335.5853425321961,159.00027637964715 L 340.4596609364391,159.0111361128857 L 340.5012555518354,154.10854334877743 L 350.2599596675992,154.18767729578505 L 357.0141076104467,155.6639709979522 L 361.0487723143601,162.48657443802617 L 362.697898023462,170.67769110427417 L 360.9093023561398,176.4544800634512 L 360.5719616051578,177.5429003784978 L 362.89849392241405,186.5852191244561 L 359.78262645115416,192.5132649202509 L 356.55428627378006,199.74074373564181 L 355.0509163607886,203.10098971722107 L 349.6120290718608,203.4373519159956 L 339.63564700219604,203.1405363408687 L 340.571682046114,173.77049785430663 L 334.0639629540273,173.6922944511029 L 335.45335675431096,168.8455968309447 z" id="c39081"/>
		<path d="M 163.51492907002864,59.63472354351375 L 182.11035325065575,57.35610087868987 L 185.4555333530257,55.429615206298166 L 185.67614514556823,55.91831350035915 L 191.61193575527977,63.04823525610011 L 198.63274599794283,67.20656816268175 L 204.72510965999933,67.74571826009316 L 213.00948008034868,63.24406117959864 L 214.16364302633394,63.173139074240545 L 214.4136948911492,70.95329036902753 L 214.4274046771958,71.39346872229821 L 214.6710126060084,79.1836889428164 L 172.72414503965678,78.41876046298911 L 172.49634288592839,70.35462279298598 L 172.25473164679198,62.763684341470466 L 163.51492907002864,59.63472354351375 z" id="c39043"/>
		<path d="M 177.94932538069236,224.8136078044274 L 178.51849225638327,216.4706414085836 L 179.02775403291395,208.13600581095255 L 180.02371387387868,191.30111044474114 L 203.45747929630983,192.70107226295394 L 203.35911637988323,194.8058494448462 L 227.38047016384064,195.51159316441473 L 228.4455075680207,196.82360393844252 L 228.1611286026096,203.55126332709725 L 227.56165453680472,219.83941330591986 L 227.24738902848995,227.7007712180646 L 224.2415835443236,231.8192977302546 L 208.39576434505094,230.82734337905896 L 204.60849416799564,229.94611553374412 L 201.98451186643567,230.42772306787742 L 177.1930600834509,228.87347153135178 L 177.94932538069236,224.8136078044274 z" id="c39089"/>
		<path d="M 172.72414503965678,78.41876046298911 L 214.6710126060084,79.1836889428164 L 214.54347373933945,87.23771037925945 L 214.53830595644976,88.2531245234436 L 215.20544900692076,103.44721380602323 L 206.73819599982627,103.50077097099165 L 207.08708246120023,111.57032488441057 L 182.44469929059258,111.24792365042536 L 173.60591707413303,111.10998770044094 L 172.93936573967324,86.55545132328956 L 172.82571181531782,82.28365961400584 L 172.72414503965678,78.41876046298911 z" id="c39077"/>
		<path d="M 237.8163497517854,247.61939569647978 L 270.43188863630417,249.10460642117866 L 275.3834048724871,249.29717622356657 L 275.19446181422677,259.0747821666377 L 280.1101448017826,259.2129573934224 L 280.02308540676756,267.79555296085175 L 269.290797403277,268.1080120241149 L 269.75654540446874,279.7287598785615 L 259.8477669076724,278.33057194553174 L 258.01081187422284,283.2311878026512 L 239.78615318549092,282.24998432994755 L 240.44631170406743,272.1327200580562 L 241.23369278924454,270.0556448249027 L 242.35110374781172,252.75157159342052 L 237.5313533434301,252.4435234626659 L 237.8163497517854,247.61939569647978 z" id="c39115"/>
		<path d="M 194.8314584445738,350.9404274168257 L 205.32543138898373,350.93124474571675 L 207.04147895315836,329.7000258052051 L 216.81519147545816,330.5116787443208 L 236.59486136472543,333.2201253716603 L 236.32055243325175,337.89067407381515 L 233.2228725236419,344.0671960644194 L 230.92385042598642,353.0978470675946 L 226.7717217069848,355.56027791368524 L 227.46398905468865,360.2723722100252 L 228.89808444946215,371.50092503881086 L 229.82817526366043,377.19307081463035 L 226.0035728521827,379.07904862011014 L 221.1651397472299,378.8701786230479 L 220.48112963599556,380.4125926247576 L 213.52082817937736,379.83368394770815 L 214.13435994598908,369.70223719037443 L 203.82342321402385,369.0204259846886 L 202.85171041376506,358.9898485294233 L 194.20573803801526,358.22880201747614 L 194.8314584445738,350.9404274168257 z" id="c39053"/>
		<path d="M 229.11926003080893,103.65574005065588 L 229.22458657564903,95.46003715523484 L 237.27778053963067,95.4965542003853 L 237.39485204826207,88.43314123294897 L 245.68915825791808,88.38991105791519 L 245.75726536395524,80.03365968979787 L 253.69409251122593,79.95740222142167 L 256.96678152886284,79.87561934437979 L 268.2240273391992,79.59314988646135 L 269.92193339930157,79.58951173853254 L 269.89711487794443,95.32060418696187 L 269.9234531988874,111.73886313746544 L 245.535933337351,111.77265203761465 L 232.7080252068434,111.63268675312081 L 228.9916621725778,111.62091704205487 L 229.11926003080893,103.65574005065588 z" id="c39103"/>
		<path d="M 176.62027693829936,314.76370065329843 L 178.6284132656082,310.40211512940004 L 198.27029987303365,313.4678457021797 L 197.92360692237327,317.5111289970259 L 207.95563353531625,318.2333187308136 L 207.04147895315836,329.7000258052051 L 205.32543138898373,350.93124474571675 L 194.8314584445738,350.9404274168257 L 188.34302788024178,350.419930668679 L 178.70169454979137,349.7506067410654 L 179.3670516325355,339.6669596810475 L 174.69484681035388,339.3510499241705 L 176.62027693829936,314.76370065329843 z" id="c39079"/>
		<path d="M 124.80789156289012,54.65289598967207 L 131.1638876741933,59.476836974321756 L 153.85562079749644,59.697476176775616 L 163.51492907002864,59.63472354351375 L 172.25473164679198,62.763684341470466 L 172.49634288592839,70.35462279298598 L 172.72414503965678,78.41876046298911 L 172.82571181531782,82.28365961400584 L 124.0815888329912,82.0801950659466 L 124.80789156289012,54.65289598967207 z" id="c39143"/>
		<path d="M 228.2580345301449,171.31054442536916 L 268.7304319951113,172.33556881749968 L 268.5362563605452,180.57824879870287 L 276.7407176854095,180.7988595048707 L 276.33836306124,197.15890086098005 L 272.29552165911315,205.03411987174124 L 268.4153399382987,204.93742083930084 L 228.1611286026096,203.55126332709725 L 228.4455075680207,196.82360393844252 L 227.38047016384064,195.51159316441473 L 228.2580345301449,171.31054442536916 z" id="c39031"/>
		<path d="M 83.09914160772539,305.1235354490595 L 87.54639830659997,307.8986828054064 L 90.13196202888852,303.4969390883288 L 107.0891182396663,290.81825982865877 L 125.95191145476593,291.17769974758755 L 124.73278229081757,297.59783625270916 L 124.00421568275132,303.34500628486666 L 127.41458895408066,311.2312102617603 L 124.46984959198586,327.0695053352405 L 104.78698998862585,330.8903742477851 L 99.44977668725579,330.64883467920157 L 82.13673503083464,330.2987812527515 L 83.09914160772539,305.1235354490595 z" id="c39071"/>
		<path d="M 285.95540680504655,39.60759925718693 L 287.82880427010724,37.949345099969904 L 294.21505947268014,31.40801433391294 L 302.62448545342,25.378660658351517 L 311.1356552950214,22.310070810867263 L 322.08229579811814,16.242669389411798 L 326.2007014988697,15.101470467350827 L 326.3435164708192,30.036914980062484 L 318.1118434411351,30.26600425851426 L 318.3117978962376,38.381264179525594 L 302.1622476088938,38.68566128859313 L 302.1701630441567,46.59059229176703 L 294.21164023635635,46.72221178013022 L 286.1089719906575,46.78341998732987 L 285.95540680504655,39.60759925718693 z" id="c39085"/>
		<path d="M 258.01081187422284,283.2311878026512 L 259.8477669076724,278.33057194553174 L 269.75654540446874,279.7287598785615 L 269.290797403277,268.1080120241149 L 280.02308540676756,267.79555296085175 L 289.91650266275667,268.09286079147563 L 289.86112161058105,261.11194312206806 L 296.66112797442366,265.9792743439699 L 306.2946975923239,265.3775769592966 L 327.5808011182593,268.8032106926167 L 327.5949536339189,272.59864282447404 L 324.3183325309142,275.81711482618755 L 320.4986149491986,281.6689067982159 L 319.88628077210996,282.60596801974634 L 314.95862875808643,284.75942588113827 L 309.5683893639469,289.3784222416959 L 301.11987036608355,294.422693679769 L 299.1412742682318,294.1220035328741 L 297.11244645649316,293.8131151753953 L 295.4169229647179,289.05264303820064 L 291.6423784341729,287.4656290448169 L 287.62213254444134,291.5277361770519 L 282.79092029076685,296.3136626165887 L 282.3715555756276,302.40229565838666 L 278.1594942415441,302.53942516161857 L 272.58097494321777,302.770553840998 L 269.75223623887763,308.87280019731156 L 268.90757453257504,309.8016390015037 L 268.81981562597645,303.26838799799765 L 260.45474463981793,303.0058863279744 L 257.3592739427795,297.95002787184086 L 258.01081187422284,283.2311878026512 z" id="c39167"/>
		<path d="M 70.89029263925292,304.06044848855 L 74.0622199868053,269.111681534908 L 100.487174950328,271.6204452951648 L 107.78286974264613,272.28809050330824 L 108.38600012413494,274.64400243007185 L 107.0891182396663,290.81825982865877 L 90.13196202888852,303.4969390883288 L 87.54639830659997,307.8986828054064 L 83.09914160772539,305.1235354490595 L 72.07209192858474,304.1736091107096 L 70.89029263925292,304.06044848855 z" id="c39027"/>
		<path d="M 218.17983946336759,310.6934544740771 L 221.4822124606002,310.8786340747408 L 248.16913647360005,312.43400509920104 L 266.2637657237755,313.159588509196 L 267.1461287322946,321.44924028184244 L 266.51359324413784,321.7385184025227 L 261.5314209015717,324.01441690713796 L 262.83453155681974,328.86556163368874 L 264.4165908619552,335.49638358393946 L 259.95665287954665,339.4147491488353 L 253.78034464028212,341.27588165839506 L 249.96070364016796,334.2031586264546 L 244.26488489087527,330.1940510264467 L 241.27296011846786,331.5142236808826 L 237.16543380831163,336.20409729744813 L 236.32055243325175,337.89067407381515 L 236.59486136472543,333.2201253716603 L 216.81519147545816,330.5116787443208 L 218.17983946336759,310.6934544740771 z" id="c39105"/>
		<path d="M 180.62984082950908,281.3945475317931 L 181.4507575979995,271.804122225883 L 191.06296101872005,270.760351361702 L 191.28887559522641,265.7894705108018 L 201.7531488740451,266.43759999703417 L 202.25179192563957,259.8802195171399 L 212.2244990990881,260.6239837077065 L 211.77191101026912,267.1113426311442 L 221.93928350826872,267.77523202207203 L 221.80891924786786,270.9459651068205 L 230.81512409967837,271.53597724127104 L 230.144712133614,281.59609305580415 L 220.38133851204424,280.89173594140146 L 219.60615043633456,290.7780123905384 L 200.16726128800693,289.5104509523934 L 179.91906905338618,292.55542372653116 L 180.62984082950908,281.3945475317931 z" id="c39073"/>
		<path d="M 309.96049662507517,226.83171547461663 L 310.30133597993245,202.44797913182236 L 312.8644968344215,202.1802384761357 L 321.9474239693052,202.6115704775302 L 339.63564700219604,203.1405363408687 L 349.6120290718608,203.4373519159956 L 355.0509163607886,203.10098971722107 L 354.7714685231315,203.72521583345696 L 352.2992447538085,211.74488402819938 L 352.2829285607868,216.92985630410703 L 352.26065880218283,223.9225351653139 L 350.2191407176651,226.25255540897336 L 346.9513090394689,229.82555740050915 L 345.3793557487539,237.51452327231706 L 309.8153323357202,236.13094555658296 L 309.96049662507517,226.83171547461663 z" id="c39013"/>
		<path d="M 178.87936505649338,307.09595159601145 L 179.91906905338618,292.55542372653116 L 200.16726128800693,289.5104509523934 L 219.60615043633456,290.7780123905384 L 222.17795544341865,300.94229242228573 L 221.4822124606002,310.8786340747408 L 218.17983946336759,310.6934544740771 L 216.81519147545816,330.5116787443208 L 207.04147895315836,329.7000258052051 L 207.95563353531625,318.2333187308136 L 197.92360692237327,317.5111289970259 L 198.27029987303365,313.4678457021797 L 178.6284132656082,310.40211512940004 L 178.87936505649338,307.09595159601145 z" id="c39163"/>
		<path d="M 246.62369701998588,54.87850677169105 L 248.51177548191865,55.88166726165345 L 258.1723772783745,55.3877753451133 L 259.1559333954461,55.336771660937174 L 262.69334340035005,55.771297906847295 L 265.19429081425,56.0774418327367 L 273.9418469114191,50.211954867754145 L 285.95540680504655,39.60759925718693 L 286.1089719906575,46.78341998732987 L 294.21164023635635,46.72221178013022 L 294.3450130983049,60.59278226993215 L 294.3601140606162,63.813377141757485 L 294.46752315172796,71.3939356478565 L 289.54368687230055,71.3572474203092 L 283.8902509696661,71.31101863982622 L 277.1399724601756,71.27218597096697 L 279.99065931414606,79.4203086797058 L 277.8559452345016,79.46561033036134 L 271.13542785153504,79.56592587418692 L 269.92193339930157,79.58951173853254 L 268.2240273391992,79.59314988646135 L 256.96678152886284,79.87561934437979 L 253.69409251122593,79.95740222142167 L 253.72575517065664,71.5294849359572 L 245.80842860363762,71.51680821778973 L 246.62369701998588,54.87850677169105 z" id="c39035"/>
		<path d="M 273.5167475068234,147.40849225086944 L 273.5193934044455,129.84380190811476 L 273.4449951343951,120.01366579710132 L 292.66712910910763,120.59235003540485 L 294.84556568431816,111.4713487202699 L 297.8604340775842,111.41174724443599 L 311.5228632605388,111.27713234878594 L 312.5214086252813,111.26179571959506 L 320.75458243673916,111.15265669716759 L 320.879619768523,120.77984423205075 L 320.8839943797551,121.0862903257219 L 321.14166667325867,140.13947414022223 L 311.69532943949275,140.1381666121995 L 308.21918786528136,148.94788999172033 L 301.72821715676406,148.92230444972458 L 289.7214913679666,147.36617234942955 L 273.6243821207283,151.08514895112052 L 273.5167475068234,147.40849225086944 z" id="c39151"/>
		<path d="M 124.73278229081757,297.59783625270916 L 125.95191145476593,291.17769974758755 L 135.25190760410393,275.79550188211726 L 158.40214381831262,279.99553235554583 L 180.62984082950908,281.3945475317931 L 179.91906905338618,292.55542372653116 L 178.87936505649338,307.09595159601145 L 178.6284132656082,310.40211512940004 L 176.62027693829936,314.76370065329843 L 127.41458895408066,311.2312102617603 L 124.00421568275132,303.34500628486666 L 124.73278229081757,297.59783625270916 z" id="c39141"/>
		<path d="M 8.210201947746086,60.766979941996226 L 46.99482382898976,61.519792096340325 L 56.48677305430733,61.68712596976631 L 55.927948098165906,90.86639987634064 L 46.38358788139839,90.70870514401783 L 46.46738854041018,85.84407523761303 L 36.77518057747951,85.60621104223837 L 36.8720191521295,80.69933914001756 L 7.75070258222191,80.09073889236831 L 7.800793460832642,78.0082903866224 L 8.168018630003298,62.74507050514501 L 8.210201947746086,60.766979941996226 z" id="c39039"/>
		<path d="M 301.72821715676406,148.92230444972458 L 308.21918786528136,148.94788999172033 L 311.69532943949275,140.1381666121995 L 321.14166667325867,140.13947414022223 L 335.55881497262595,139.99013166432576 L 335.646710326196,149.28891070966552 L 340.5012555518354,154.10854334877743 L 340.4596609364391,159.0111361128857 L 335.5853425321961,159.00027637964715 L 335.45335675431096,168.8455968309447 L 334.0639629540273,173.6922944511029 L 311.03158540870965,173.09241247791883 L 306.1251920570363,173.16000592364583 L 306.186315104151,168.34294284667536 L 306.3608336312699,158.49950303607184 L 301.5234735298466,158.38751213977469 L 301.72821715676406,148.92230444972458 z" id="c39019"/>
		<path d="M 96.00567076702633,373.2231180082363 L 99.44977668725579,330.64883467920157 L 104.78698998862585,330.8903742477851 L 124.46984959198586,327.0695053352405 L 130.6395897219895,327.4641967897882 L 134.40697057591998,331.5554089814104 L 134.25166118250635,374.10474724242056 L 134.58033182106732,376.4372060187897 L 132.6237090616881,377.96601770918903 L 129.6729887049264,375.3224878824775 L 124.84002113408391,370.9550808388858 L 119.24791380141127,370.01760396152787 L 111.17099596694273,366.27641629264656 L 102.96552239137291,368.707061938124 L 101.50872177469986,372.7136650880103 L 101.16423430658074,372.86754786522874 L 98.29933233914663,374.1464607059967 L 96.00567076702633,373.2231180082363 z" id="c39001"/>
		<path d="M 171.07400155974756,33.43486790056839 L 174.22815526738734,30.20286080813038 L 177.80742546397684,33.42526495390006 L 177.27441270963735,39.10137962032908 L 172.81955907892825,40.725894947751684 L 171.07400155974756,33.43486790056839 z M 124.83685771386013,41.406396942336116 L 144.3684501883663,41.134753574901794 L 145.92043605785426,41.037943268845616 L 154.0282204554253,44.303143148944635 L 157.22336755984372,48.744976051772795 L 165.0426080562318,53.39021661485803 L 171.338390773271,46.508661952093576 L 173.47080000931456,45.267413425374656 L 183.18034622123662,50.385366726213 L 185.4555333530257,55.429615206298166 L 182.11035325065575,57.35610087868987 L 163.51492907002864,59.63472354351375 L 153.85562079749644,59.697476176775616 L 131.1638876741933,59.476836974321756 L 124.80789156289012,54.65289598967207 L 124.83685771386013,41.406396942336116 z" id="c39123"/>
		<path d="M 8.852385924199938,30.68508304662022 L 39.5993212953401,30.45094255246669 L 42.817372559315395,30.408253528443506 L 44.125443100277096,40.37717082002333 L 43.92672253544375,51.82841650607014 L 47.16601250447268,51.87917342503873 L 47.111222640554786,55.06399893363475 L 46.99482382898976,61.519792096340325 L 8.210201947746086,60.766979941996226 L 8.457577644145998,49.17205620953958 L 8.852385924199938,30.68508304662022 z" id="c39171"/>
		<path d="M 65.95853118052234,357.8581100640045 L 72.07209192858474,304.1736091107096 L 83.09914160772539,305.1235354490595 L 82.13673503083464,330.2987812527515 L 99.44977668725579,330.64883467920157 L 96.00567076702633,373.2231180082363 L 90.24313552600393,370.8993317342488 L 89.30320090507995,366.7064454429566 L 84.93658491918372,364.3706300970189 L 83.42009657560487,360.3985340211377 L 78.88547912167475,358.5600216456278 L 76.79807283787213,357.7125067426002 L 72.4286493985242,356.24399292677305 L 66.04569935210247,357.88392491923264 L 65.95853118052234,357.8581100640045 z" id="c39015"/>
		<path d="M 326.3435164708192,30.036914980062484 L 326.2007014988697,15.101470467350827 L 334.65140112003394,12.751384738115357 L 342.8531336360999,8.057442301042414 L 360.9540262992256,2.3346319088454743 L 366.09747431745404,0.0 L 366.42362232487375,14.25574494261156 L 366.88187835788847,34.28516492735844 L 367.3267082083324,53.204348019510746 L 326.79393660277685,53.8163362236957 L 326.3435164708192,30.036914980062484 z" id="c39007"/>
		<path d="M 102.79964766933476,246.82862795567405 L 107.87656002734502,247.3673383611128 L 114.36989895121732,220.54847720489698 L 115.56546222128192,209.27837243326871 L 141.00329042799973,209.9438733407415 L 140.59573603673095,214.6705534588553 L 136.77382560672447,216.49486255713947 L 137.52116489187304,242.80694995061722 L 136.65833557193642,255.84246996937975 L 102.18730340701552,253.07722321125223 L 102.79964766933476,246.82862795567405 z" id="c39097"/>
		<path d="M 204.60849416799564,229.94611553374412 L 208.39576434505094,230.82734337905896 L 224.2415835443236,231.8192977302546 L 230.38491093792172,232.23130776449645 L 229.76490003839245,242.10696636767042 L 238.1101796376486,242.57466185916982 L 237.8163497517854,247.61939569647978 L 237.5313533434301,252.4435234626659 L 242.35110374781172,252.75157159342052 L 241.23369278924454,270.0556448249027 L 240.44631170406743,272.1327200580562 L 230.81512409967837,271.53597724127104 L 221.80891924786786,270.9459651068205 L 221.93928350826872,267.77523202207203 L 211.77191101026912,267.1113426311442 L 212.2244990990881,260.6239837077065 L 210.3008894359143,240.78419480592348 L 203.78933881982098,240.32495092584188 L 204.60849416799564,229.94611553374412 z" id="c39127"/>
		<path d="M 85.14713769109939,91.16869298512124 L 123.87715192518698,91.79622174632189 L 123.73342633256345,111.28015559955992 L 120.56523376900401,111.27032892088029 L 115.65208387482423,120.85826390347285 L 115.44159668250077,130.5465956823561 L 84.62526673213068,129.9244037329191 L 84.7720251554936,118.72798798394254 L 85.14713769109939,91.16869298512124 z" id="c39063"/>
		<path d="M 41.08628171432917,110.11935125995531 L 45.94625282222336,110.18160028017088 L 46.38358788139839,90.70870514401783 L 55.927948098165906,90.86639987634064 L 85.14713769109939,91.16869298512124 L 84.7720251554936,118.72798798394254 L 65.38322903581457,120.14482177233685 L 65.2873957685615,125.01630710342324 L 45.75336066397099,124.84103837186325 L 40.96626590624386,119.8169522546956 L 41.08628171432917,110.11935125995531 z" id="c39137"/>
		<path d="M 0.360686093641048,305.616028830433 L 0.702532802095117,296.93974183749293 L 0.7026318519168706,296.93722696198404 L 17.035226525756904,296.5860730860615 L 40.9724106995065,299.3360897070904 L 48.80438803332862,299.9378055713957 L 49.042058289491564,301.8984435948195 L 43.684628588877366,307.06719947016876 L 46.35060648174106,311.24014993822715 L 45.36574948286673,312.5618109541012 L 43.11046396881054,329.66420337166744 L 42.663114945985924,328.8883536850493 L 36.243364929195444,326.64459424467935 L 33.556053212452,322.39459243043325 L 32.56377067852459,318.97291146297283 L 31.124000961543718,318.127091085482 L 29.47111947854587,318.64703530144476 L 28.323834430128162,320.2148188547635 L 27.85044541349801,320.23692919441834 L 27.213072213651344,320.26665165534723 L 23.359150092289568,320.4452214623169 L 18.333565615259655,323.23713289372955 L 17.122967693942584,322.64044257480833 L 12.383652059853747,320.3017431988796 L 9.286456283826613,316.38930387747973 L 6.144553009901582,314.67036839361595 L 0.0,319.1775497331219 L 0.360686093641048,305.616028830433 z" id="c39061"/>
		<path d="M 174.1578083181806,381.2227116816735 L 180.39213621999238,378.4784183612073 L 178.36341970424186,369.2428341301754 L 183.3489342583929,369.53259275202214 L 187.202363675541,361.68512440695736 L 188.34302788024178,350.419930668679 L 194.8314584445738,350.9404274168257 L 194.20573803801526,358.22880201747614 L 202.85171041376506,358.9898485294233 L 203.82342321402385,369.0204259846886 L 214.13435994598908,369.70223719037443 L 213.52082817937736,379.83368394770815 L 220.48112963599556,380.4125926247576 L 219.51182072851074,382.5971866783719 L 218.56931639500095,389.73049089896614 L 216.84749755716447,394.9777595811401 L 211.78513940947107,396.6009857469269 L 206.0599034231755,397.47620964825296 L 200.63254716403864,398.8529574370729 L 196.09762075752312,400.0 L 193.20420032007948,398.04986167563345 L 191.03760998681264,391.8850286168215 L 187.04453768713742,388.46462443233787 L 186.0296610089749,387.5944852611608 L 181.73982082758852,382.89232360559396 L 175.1544846181263,382.25019233203375 L 174.1578083181806,381.2227116816735 z" id="c39087"/>
		<path d="M 85.56093849955207,55.549385587475165 L 86.1850399445542,29.633126556656972 L 95.97689221916167,29.407951566193493 L 95.98623357956072,29.407730453269124 L 110.80923410201491,29.025389254761944 L 121.8072582356432,28.722168051435062 L 125.45660342175599,33.3745326606049 L 132.37473907156954,32.293972282263745 L 140.26771829648956,38.75438120677223 L 145.92043605785426,41.037943268845616 L 144.3684501883663,41.134753574901794 L 124.83685771386013,41.406396942336116 L 112.31987093696785,41.43613281204896 L 110.42354750140763,43.26438904289008 L 102.64404245396433,49.190690781157954 L 96.89678402250992,58.09683294151427 L 87.83725279162829,63.72989747917311 L 85.40749775148991,63.685967419475745 L 85.56093849955207,55.549385587475165 z" id="c39095"/>
		<path d="M 220.38133851204424,280.89173594140146 L 230.144712133614,281.59609305580415 L 230.81512409967837,271.53597724127104 L 240.44631170406743,272.1327200580562 L 239.78615318549092,282.24998432994755 L 258.01081187422284,283.2311878026512 L 257.3592739427795,297.95002787184086 L 260.45474463981793,303.0058863279744 L 268.81981562597645,303.26838799799765 L 268.90757453257504,309.8016390015037 L 266.220660039709,312.75419288184276 L 266.2637657237755,313.159588509196 L 248.16913647360005,312.43400509920104 L 221.4822124606002,310.8786340747408 L 222.17795544341865,300.94229242228573 L 219.60615043633456,290.7780123905384 L 220.38133851204424,280.89173594140146 z" id="c39009"/>
		<path d="M 268.4153399382987,204.93742083930084 L 272.29552165911315,205.03411987174124 L 276.33836306124,197.15890086098005 L 300.65349396594627,197.6606274811656 L 300.5873432106686,202.36920284871607 L 310.30133597993245,202.44797913182236 L 309.96049662507517,226.83171547461663 L 296.93371882606607,227.07364244579867 L 290.3118096745996,233.41064244090356 L 280.48448756682865,233.17185546228473 L 280.40546227517183,239.69930059117516 L 270.62568303078405,239.40253101345556 L 270.79586998127667,229.58317692502757 L 267.5781219747176,229.50403655768767 L 268.4153399382987,204.93742083930084 z" id="c39059"/>
		<path d="M 1.0822014308318668,287.2959964236992 L 1.5791952007749577,272.7954122000295 L 1.7537177740210623,267.7004873597038 L 30.78883518173205,268.29643912709685 L 30.820392015602753,265.81927736579667 L 40.639812554443374,266.20635338617245 L 43.401019549249774,270.7994701318286 L 40.9724106995065,299.3360897070904 L 17.035226525756904,296.5860730860615 L 0.7026318519168706,296.93722696198404 L 1.0822014308318668,287.2959964236992 z" id="c39017"/>
		<path d="M 5.063108931457849,180.28824247915682 L 5.495314786531427,167.75770915699113 L 5.635120980794635,163.70232059735332 L 5.853465753885835,155.86227240899856 L 6.336986982756999,138.49753787200976 L 35.647654488377164,139.19539472849004 L 35.538431328640584,144.03397825734785 L 35.28583552063378,157.06285695738816 L 35.05281930604652,170.0485705857076 L 34.791871458381586,179.77531905617315 L 36.57000330364971,180.86566036209436 L 36.54853344614602,180.89582745488133 L 5.062738197748611,180.29734526227298 L 5.063108931457849,180.28824247915682 z" id="c39107"/>
		<path d="M 115.65208387482423,120.85826390347285 L 120.56523376900401,111.27032892088029 L 123.73342633256345,111.28015559955992 L 149.69759157735876,111.33478118259065 L 149.58693978044954,143.70152733031836 L 133.19584822175332,143.66972799458355 L 132.68285209073258,145.324626086146 L 123.41576054923436,145.2645537686579 L 121.71003027914135,143.53310431957965 L 116.99304500494902,143.55717659225766 L 115.44159668250077,130.5465956823561 L 115.65208387482423,120.85826390347285 z" id="c39175"/>
		<path d="M 123.87715192518698,91.79622174632189 L 124.0815888329912,82.0801950659466 L 172.82571181531782,82.28365961400584 L 172.93936573967324,86.55545132328956 L 173.60591707413303,111.10998770044094 L 171.40139651678788,111.43087326346523 L 149.69759157735876,111.33478118259065 L 123.73342633256345,111.28015559955992 L 123.87715192518698,91.79622174632189 z" id="c39147"/>
		<path d="M 294.3601140606162,63.813377141757485 L 294.3450130983049,60.59278226993215 L 294.21164023635635,46.72221178013022 L 302.1701630441567,46.59059229176703 L 302.1622476088938,38.68566128859313 L 318.3117978962376,38.381264179525594 L 318.1118434411351,30.26600425851426 L 326.3435164708192,30.036914980062484 L 326.79393660277685,53.8163362236957 L 327.07179124549236,70.95288490512495 L 294.46752315172796,71.3939356478565 L 294.3601140606162,63.813377141757485 z" id="c39055"/>
		<path d="M 294.7906099867073,107.36034236726933 L 294.7476158509226,99.00459487137309 L 294.73307043871614,95.07315996409567 L 294.557405200444,79.3726943936599 L 294.46752315172796,71.3939356478565 L 327.07179124549236,70.95288490512495 L 327.08253825164866,70.95281188275112 L 327.2540225279418,79.42047794019815 L 327.5669567200872,94.75346682739799 L 327.6989814064509,102.78452461578655 L 327.89726496532415,111.06103574320447 L 320.75458243673916,111.15265669716759 L 312.5214086252813,111.26179571959506 L 311.5228632605388,111.27713234878594 L 297.8604340775842,111.41174724443599 L 294.84556568431816,111.4713487202699 L 294.7906099867073,107.36034236726933 z" id="c39133"/>
		<path d="M 31.1204874101815,229.3328969132483 L 36.223147645702966,229.32129958326738 L 59.23497983542671,229.42106014329278 L 59.19564509457573,233.54050088471973 L 68.29697639693406,234.3969875965069 L 68.00494881451884,237.6623959073967 L 64.61452871123176,238.95095377989674 L 62.25229223116491,267.92018397399113 L 40.639812554443374,266.20635338617245 L 30.820392015602753,265.81927736579667 L 31.1204874101815,229.3328969132483 z" id="c39113"/>
		<path d="M 227.24738902848995,227.7007712180646 L 227.56165453680472,219.83941330591986 L 228.1611286026096,203.55126332709725 L 268.4153399382987,204.93742083930084 L 267.5781219747176,229.50403655768767 L 270.79586998127667,229.58317692502757 L 270.62568303078405,239.40253101345556 L 270.43188863630417,249.10460642117866 L 237.8163497517854,247.61939569647978 L 238.1101796376486,242.57466185916982 L 229.76490003839245,242.10696636767042 L 230.38491093792172,232.23130776449645 L 224.2415835443236,231.8192977302546 L 227.24738902848995,227.7007712180646 z" id="c39119"/>
		<path d="M 214.16364302633394,63.173139074240545 L 220.83256926330571,62.75974667523679 L 228.1011206395591,58.191834076891354 L 237.3427226034217,55.33576013603352 L 243.7467223250739,53.3484575899728 L 245.93831242946794,54.51416331102499 L 246.62369701998588,54.87850677169105 L 245.80842860363762,71.51680821778973 L 253.72575517065664,71.5294849359572 L 253.69409251122593,79.95740222142167 L 245.75726536395524,80.03365968979787 L 245.68915825791808,88.38991105791519 L 237.39485204826207,88.43314123294897 L 237.27778053963067,95.4965542003853 L 229.22458657564903,95.46003715523484 L 229.11926003080893,103.65574005065588 L 215.20544900692076,103.44721380602323 L 214.53830595644976,88.2531245234436 L 214.54347373933945,87.23771037925945 L 214.6710126060084,79.1836889428164 L 214.4274046771958,71.39346872229821 L 214.4136948911492,70.95329036902753 L 214.16364302633394,63.173139074240545 z" id="c39093"/>
		<path d="M 134.40697057591998,331.5554089814104 L 139.460256986058,337.79948529638915 L 154.1174633768078,338.2626318962972 L 174.69484681035388,339.3510499241705 L 179.3670516325355,339.6669596810475 L 178.70169454979137,349.7506067410654 L 188.34302788024178,350.419930668679 L 187.202363675541,361.68512440695736 L 183.3489342583929,369.53259275202214 L 178.36341970424186,369.2428341301754 L 180.39213621999238,378.4784183612073 L 174.1578083181806,381.2227116816735 L 170.6920039936483,377.64665747552965 L 169.1282422214493,369.40958472015114 L 169.007522682192,364.9284794032089 L 168.04983687757817,362.3338645445643 L 167.45448437789744,360.7199565535082 L 162.73875997674915,362.12362910192314 L 156.73637796668086,363.56454865748464 L 155.11071677149664,365.0248784744234 L 154.05671004543672,365.9712131683695 L 147.91207783091232,370.0137411083795 L 146.43628231582238,373.50916083193715 L 142.60134576814107,375.7074777986886 L 136.76228070483592,374.7310349423779 L 134.58033182106732,376.4372060187897 L 134.25166118250635,374.10474724242056 L 134.40697057591998,331.5554089814104 z" id="c39145"/>
		<path d="M 225.1142209907002,147.78168824300866 L 233.12715959633996,147.67938312855543 L 273.5167475068234,147.40849225086944 L 273.6243821207283,151.08514895112052 L 272.0913023358182,172.40560026643195 L 268.7304319951113,172.33556881749968 L 228.2580345301449,171.31054442536916 L 228.68140652754406,158.29349979190428 L 225.19682760075378,158.85204823430357 L 225.1142209907002,147.78168824300866 z" id="c39075"/>
		<path d="M 7.75070258222191,80.09073889236831 L 36.8720191521295,80.69933914001756 L 36.77518057747951,85.60621104223837 L 46.46738854041018,85.84407523761303 L 46.38358788139839,90.70870514401783 L 45.94625282222336,110.18160028017088 L 41.08628171432917,110.11935125995531 L 7.042581320435403,109.40387224887375 L 7.399424948015581,94.69784215020854 L 7.75070258222191,80.09073889236831 z" id="c39125"/>
		<path d="M 206.73819599982627,103.50077097099165 L 215.20544900692076,103.44721380602323 L 229.11926003080893,103.65574005065588 L 228.9916621725778,111.62091704205487 L 232.7080252068434,111.63268675312081 L 233.12715959633996,147.67938312855543 L 225.1142209907002,147.78168824300866 L 225.19682760075378,158.85204823430357 L 215.27252659708026,160.34832826716615 L 215.12605835887317,151.0463246910023 L 208.32592856603623,131.2562192029935 L 207.08708246120023,111.57032488441057 L 206.73819599982627,103.50077097099165 z" id="c39005"/>
		<path d="M 173.55202508161213,244.97805287730353 L 175.43446032304033,241.87008939614515 L 175.72881020899882,237.7788829753029 L 174.7665691611575,228.6981053803986 L 177.1930600834509,228.87347153135178 L 201.98451186643567,230.42772306787742 L 204.60849416799564,229.94611553374412 L 203.78933881982098,240.32495092584188 L 210.3008894359143,240.78419480592348 L 212.2244990990881,260.6239837077065 L 202.25179192563957,259.8802195171399 L 201.7531488740451,266.43759999703417 L 191.28887559522641,265.7894705108018 L 191.06296101872005,270.760351361702 L 181.4507575979995,271.804122225883 L 171.84270159604165,270.98865298658285 L 173.55202508161213,244.97805287730353 z" id="c39045"/>
		<path d="M 40.639812554443374,266.20635338617245 L 62.25229223116491,267.92018397399113 L 74.0622199868053,269.111681534908 L 70.89029263925292,304.06044848855 L 49.042058289491564,301.8984435948195 L 48.80438803332862,299.9378055713957 L 40.9724106995065,299.3360897070904 L 43.401019549249774,270.7994701318286 L 40.639812554443374,266.20635338617245 z" id="c39165"/>
		<path d="M 303.2653579442058,236.03985351862062 L 309.8153323357202,236.13094555658296 L 345.3793557487539,237.51452327231706 L 345.31356730180335,237.8359368609607 L 345.3526313218031,242.968471373514 L 341.5675377127062,247.22299507886285 L 344.61996420193964,252.10213514928247 L 345.1310738315932,252.91839551571073 L 342.1526392412965,258.4448859753025 L 335.53026389955886,264.78682471204763 L 327.5949536339189,272.59864282447404 L 327.5808011182593,268.8032106926167 L 306.2946975923239,265.3775769592966 L 303.0348604826381,254.1056176722941 L 303.2653579442058,236.03985351862062 z" id="c39111"/>
		<path d="M 327.07179124549236,70.95288490512495 L 326.79393660277685,53.8163362236957 L 367.3267082083324,53.204348019510746 L 367.3552889591327,54.41980897630072 L 367.76263228333806,71.74149683139635 L 368.02707736348225,82.98513710385122 L 368.25245269754816,94.03142347052597 L 327.5669567200872,94.75346682739799 L 327.2540225279418,79.42047794019815 L 327.08253825164866,70.95281188275112 L 327.07179124549236,70.95288490512495 z" id="c39155"/>
		<path d="M 268.7304319951113,172.33556881749968 L 272.0913023358182,172.40560026643195 L 273.6243821207283,151.08514895112052 L 289.7214913679666,147.36617234942955 L 301.72821715676406,148.92230444972458 L 301.5234735298466,158.38751213977469 L 306.3608336312699,158.49950303607184 L 306.186315104151,168.34294284667536 L 306.1251920570363,173.16000592364583 L 305.8717170415379,187.65320037742987 L 300.81456668716123,187.6242321160692 L 300.65349396594627,197.6606274811656 L 276.33836306124,197.15890086098005 L 276.7407176854095,180.7988595048707 L 268.5362563605452,180.57824879870287 L 268.7304319951113,172.33556881749968 z" id="c39157"/>
		<path d="M 114.6647027381571,165.5269279689624 L 123.30154673826284,165.49459208716513 L 136.134592852379,165.43183852372462 L 137.78438274437337,166.1044820732153 L 137.7046158360193,172.45488213469557 L 137.52808764600871,194.68168942427064 L 144.0240158553975,194.75788518588536 L 144.1379587990394,206.0298695227004 L 141.00329042799973,209.9438733407415 L 115.56546222128192,209.27837243326871 L 116.49853966420615,196.58821846885508 L 111.65042634544595,196.0965140942692 L 114.6647027381571,165.5269279689624 z" id="c39159"/>
		<path d="M 320.75458243673916,111.15265669716759 L 327.89726496532415,111.06103574320447 L 327.6989814064509,102.78452461578655 L 327.5669567200872,94.75346682739799 L 368.25245269754816,94.03142347052597 L 368.27129573732634,94.95514651173161 L 368.5840937862115,110.29300356503867 L 368.76740941679105,119.2851716256336 L 368.7852359702627,119.99093357706151 L 343.256958305343,120.4583104198242 L 336.9522544744725,117.31754183987174 L 320.879619768523,120.77984423205075 L 320.75458243673916,111.15265669716759 z" id="c39099"/>
		<path d="M 123.41576054923436,145.2645537686579 L 132.68285209073258,145.324626086146 L 133.19584822175332,143.66972799458355 L 149.58693978044954,143.70152733031836 L 171.04239379681084,143.58640400361432 L 170.89244034395327,150.11675217596138 L 162.57373914938836,151.27447175815453 L 162.43062481725192,167.4261377816675 L 157.0858017125384,173.7315988058694 L 137.7046158360193,172.45488213469557 L 137.78438274437337,166.1044820732153 L 136.134592852379,165.43183852372462 L 123.30154673826284,165.49459208716513 L 123.52740141452657,163.12406867890513 L 123.41576054923436,145.2645537686579 z" id="c39101"/>
		<path d="M 232.7080252068434,111.63268675312081 L 245.535933337351,111.77265203761465 L 269.9234531988874,111.73886313746544 L 273.367722701742,111.709016634684 L 273.4449951343951,120.01366579710132 L 273.5193934044455,129.84380190811476 L 273.5167475068234,147.40849225086944 L 233.12715959633996,147.67938312855543 L 232.7080252068434,111.63268675312081 z" id="c39169"/>
		<path d="M 35.538431328640584,144.03397825734785 L 40.574963195280304,144.13811626707908 L 55.328384114339855,144.32942593674738 L 64.99200051645398,149.29270108952042 L 84.30526703284924,149.44295910417176 L 84.13157838036986,161.24995775939524 L 74.45170290050487,161.48264852254405 L 73.62901585885587,167.26888935795301 L 44.98325111010273,166.9472531325079 L 44.78967915817526,178.29508435278643 L 36.57000330364971,180.86566036209436 L 34.791871458381586,179.77531905617315 L 35.05281930604652,170.0485705857076 L 35.28583552063378,157.06285695738816 L 35.538431328640584,144.03397825734785 z" id="c39011"/>
		<path d="M 149.69759157735876,111.33478118259065 L 171.40139651678788,111.43087326346523 L 173.60591707413303,111.10998770044094 L 182.44469929059258,111.24792365042536 L 182.16194858339702,142.93480316408835 L 172.69013189901065,142.7484329587593 L 171.04239379681084,143.58640400361432 L 149.58693978044954,143.70152733031836 L 149.69759157735876,111.33478118259065 z" id="c39033"/>
	</g>
</svg>