<?xml version="1.0" encoding="UTF-8"?>
<svg baseProfile="full" fill="#d0d0d0" height="196.52439668758257" stroke="#ffffff" stroke-width="1" version="1.1" width="400.0" xmlns="http://www.w3.org/2000/svg" xmlns:ev="http://www.w3.org/2001/xml-events" xmlns:xlink="http://www.w3.org/1999/xlink">
	<defs/>
	<g id="counties"><path d="M 247.25733101976434,128.6769980850709 L 282.0140879739601,128.47434420009495 L 282.14527820437604,140.94992652112683 L 269.47495708315046,141.8724067976072 L 272.18923557411324,148.5074674359994 L 262.3111089053917,148.57016277573948 L 252.34131816546918,148.61001472572792 L 252.26580010521937,138.62941750779893 L 247.27053516586534,138.63954901745103 L 247.25733101976434,128.6769980850709 z" id="c40049"/>
		<path d="M 0.4928369535808346,18.619550494876243 L 1.1845351575750855,5.189182195700787 L 1.431057441179261,0.0 L 8.794989271059013,0.3884376561956501 L 15.396699552556253,0.9562365603097333 L 31.160964073629856,1.7005982381474378 L 45.555085095451425,2.3814157644039478 L 46.20080254112791,2.4036735421355697 L 44.880814706733865,30.663322829640986 L 38.860110120185546,30.40385049942532 L 0.0,28.63441627306654 L 0.3021254680281285,22.77269898197647 L 0.4928369535808346,18.619550494876243 z" id="c40025"/>
		<path d="M 350.31051582693743,32.305497819161246 L 355.2838516331776,32.17188471345847 L 370.2094950802219,31.772950411640306 L 370.54236864799157,51.73886299624553 L 365.5598733510392,51.89141217446273 L 365.70814202685955,56.88334079358596 L 361.5397651536105,56.99111106204281 L 350.74130615671504,57.249231767626604 L 350.31051582693743,32.305497819161246 z" id="c40097"/>
		<path d="M 295.6528339020792,53.465616053198346 L 296.6684312199939,53.24522431788751 L 310.7272332816756,53.099341044114894 L 310.8100971891349,58.059918905651465 L 323.29965555560597,57.85563347269829 L 323.3988293020149,62.842370232502304 L 323.4953080552015,67.8462205661916 L 323.3792896257091,70.38804501401182 L 318.3155661818465,70.46863475222167 L 315.9463579324676,70.51768375691086 L 316.161648123441,83.00908465926452 L 296.1209931987524,83.33014475924219 L 295.93866367481024,65.98305754596647 L 295.6528339020792,53.465616053198346 z" id="c40037"/>
		<path d="M 187.10585207540262,33.78844698303453 L 192.50634091267713,33.871069109928875 L 194.14700079727174,36.49860434551272 L 202.5766638131517,40.4675167728508 L 206.83072961581814,40.18960164136818 L 206.85245072803474,36.44042731488084 L 226.73790399782294,36.510445227576646 L 226.744529230121,53.6152172556259 L 221.79199274269425,53.60681848364602 L 201.959224135892,53.52329258123247 L 187.12597701486683,53.59649464096795 L 187.10585207540262,33.78844698303453 z" id="c40093"/>
		<path d="M 296.07838937683175,93.43869584103413 L 296.1209931987524,83.33014475924219 L 316.161648123441,83.00908465926452 L 316.24465800008727,88.00296717453973 L 321.1594785798602,87.91039819078104 L 321.36124882796344,97.94782764999754 L 326.34014993950683,97.85597010604884 L 326.43772042475433,102.8426524728805 L 304.82783403809424,103.20598796681293 L 304.67755635728633,93.02486514894137 L 300.26332711870737,97.50400682069167 L 296.1728896414189,96.9911015896221 L 296.07838937683175,93.43869584103413 z" id="c40107"/>
		<path d="M 167.59690214746934,93.29552118240115 L 202.34183744341703,93.70083478701092 L 202.45899149112796,113.59594281901154 L 202.33667000136208,114.70772196979811 L 200.90612775542726,113.18453222571837 L 196.29288371600634,113.60163909934589 L 167.5148001164964,113.27846710109662 L 167.59690214746934,93.29552118240115 z" id="c40149"/>
		<path d="M 335.84030604324806,70.15968749378503 L 341.23880232033525,70.01645355390006 L 344.19577870811713,75.19357062951866 L 354.8250545240051,71.64405567762411 L 359.2591367033097,72.05052729537972 L 365.7264587087581,71.9001652204003 L 366.0077907971946,81.86470763191372 L 365.95491789305737,88.33755048965119 L 368.2466333499148,91.98017008679211 L 369.9246105733225,92.07490551481688 L 364.5127727544337,100.762659304115 L 361.28774486503977,103.592814767494 L 356.3513657809499,101.9633694495186 L 355.9597343728163,87.13738533111399 L 338.71669143025855,87.56034007486438 L 338.48461625946203,77.58337864271844 L 335.99886708912,77.642319104184 L 335.84030604324806,70.15968749378503 z" id="c40101"/>
		<path d="M 167.32395295174604,73.40391463847526 L 202.0611817792861,73.7371319944351 L 201.96286211270285,87.86194443725368 L 202.3770519204206,88.69638613986722 L 202.34183744341703,93.70083478701092 L 167.59690214746934,93.29552118240115 L 167.63413918961166,90.8040544933215 L 167.06257982175637,88.3339145777888 L 167.32395295174604,73.40391463847526 z" id="c40039"/>
		<path d="M 323.5893277467928,4.844273430015435 L 325.2707881976009,4.809394410482216 L 326.93430041176873,4.774288481206424 L 333.43934541652123,4.634704976766627 L 332.449665717365,7.947570999913652 L 332.89131072638924,27.701933402745432 L 332.784342048159,28.74362979545639 L 332.97798134717146,37.68123335880138 L 324.22651319329196,37.856659856556206 L 323.5893277467928,4.844273430015435 z" id="c40147"/>
		<path d="M 261.61259503070625,53.85451965713679 L 271.53951602807325,53.771386053348316 L 271.48300423159117,48.770516625764024 L 281.5123195548965,48.672199300974945 L 286.44103328578547,48.61689086421646 L 286.49808649817203,53.63998782921388 L 295.6528339020792,53.465616053198346 L 295.93866367481024,65.98305754596647 L 271.6495318987393,66.22845772098509 L 268.71031887841934,66.09177609688506 L 263.0884891970045,62.343407708571974 L 261.68869998794594,63.84025394043269 L 261.61259503070625,53.85451965713679 z" id="c40119"/>
		<path d="M 201.959224135892,53.52329258123247 L 221.79199274269425,53.60681848364602 L 221.89376620181815,78.820102097867 L 216.9357649873003,78.80881581394878 L 216.90029007995474,88.76370005256652 L 202.3770519204206,88.69638613986722 L 201.96286211270285,87.86194443725368 L 202.0611817792861,73.7371319944351 L 201.959224135892,53.52329258123247 z" id="c40011"/>
		<path d="M 202.3770519204206,88.69638613986722 L 216.90029007995474,88.76370005256652 L 217.1944096564021,98.75583065989765 L 227.06850475819266,98.7460441960921 L 227.17640261443927,128.7108360693548 L 202.29261571323605,128.60278402078566 L 202.33667000136208,114.70772196979811 L 202.45899149112796,113.59594281901154 L 202.34183744341703,93.70083478701092 L 202.3770519204206,88.69638613986722 z" id="c40015"/>
		<path d="M 224.86283784792664,138.6710342998044 L 227.3580114029151,138.67360151111382 L 247.27053516586534,138.63954901745103 L 252.26580010521937,138.62941750779893 L 252.34131816546918,148.61001472572792 L 252.38646353531442,161.09519830926718 L 224.95367453832753,161.098992095541 L 224.96630905177503,149.66814654206837 L 224.8322579667015,148.652691517171 L 224.86283784792664,138.6710342998044 z" id="c40137"/>
		<path d="M 380.48511715082583,51.440213497746896 L 391.41361132809624,51.062225817670516 L 392.0132271827905,54.475938103332034 L 393.1600456464129,60.99334557424595 L 395.3447250268096,73.51405225614961 L 395.4333871861594,74.03513237253456 L 396.6053502494442,80.91398951301187 L 380.9525550189086,81.43521128070564 L 380.48511715082583,51.440213497746896 z" id="c40001"/>
		<path d="M 200.13280477940634,154.34537104794023 L 207.59301157549453,153.55724812952542 L 217.5266217648949,151.95807542367749 L 219.99433902101725,148.63615640279485 L 224.8322579667015,148.652691517171 L 224.96630905177503,149.66814654206837 L 224.95367453832753,161.098992095541 L 224.97723531658588,169.61627519738468 L 223.51488503700776,171.16341034449178 L 220.83949442686935,170.40891887920452 L 216.38834581262364,169.29795414060814 L 214.2333728645184,168.67813882302804 L 212.58714279261696,170.31402077707097 L 211.81511598114898,172.79712892278533 L 211.38011556740742,172.97438942089883 L 208.91801052178675,173.97669729831742 L 206.39300789951875,172.20518787093724 L 204.07757657214898,169.09769796312904 L 202.50468795894264,168.67495981106964 L 202.59187907717288,158.50035019239024 L 200.10326874826603,158.5012370550485 L 200.13280477940634,154.34537104794023 z" id="c40033"/>
		<path d="M 246.66088327702494,53.60573884913212 L 256.65073973192614,53.57453215327486 L 260.792716638229,53.56072967963529 L 261.61259503070625,53.85451965713679 L 261.68869998794594,63.84025394043269 L 263.0884891970045,62.343407708571974 L 268.71031887841934,66.09177609688506 L 271.6495318987393,66.22845772098509 L 271.73317171494716,78.70424584190815 L 246.81610304702275,78.76053513808644 L 246.66088327702494,53.60573884913212 z" id="c40083"/>
		<path d="M 96.01951598809264,3.832325891567623 L 100.15331170286127,3.9293755152403866 L 110.38439297687069,4.118772254947266 L 114.09574094282088,4.1819047558285884 L 135.41087024826479,4.629387336214697 L 139.41041322543015,4.702449693505703 L 138.91838494775598,28.12794516531045 L 138.78402377239482,33.4926651179051 L 124.55759760584012,33.189354999037036 L 113.67125994008858,32.93787778604537 L 111.51982867809568,32.88517653165059 L 98.02236360071738,32.506695790336025 L 94.78262829382075,32.42172972060885 L 96.01951598809264,3.832325891567623 z" id="c40007"/>
		<path d="M 288.9997219476919,96.4672423251761 L 296.1728896414189,96.9911015896221 L 300.26332711870737,97.50400682069167 L 304.67755635728633,93.02486514894137 L 304.82783403809424,103.20598796681293 L 304.9851122122967,113.19874285489985 L 302.6714184500283,113.22897972271528 L 302.83074941301817,124.9936075559623 L 301.0804337062179,127.36958990096988 L 298.7515616194776,124.70898304160818 L 292.4366993475567,125.07291525278403 L 291.670819907268,128.20847045654 L 289.3881402694047,125.78478555801716 L 288.9997219476919,96.4672423251761 z" id="c40133"/>
		<path d="M 142.54709813035893,117.85534525328656 L 147.52026917769538,117.9330698609855 L 147.61862733616442,112.95711315051706 L 165.20238777063264,113.37451920398064 L 167.10898040132741,114.92799361684499 L 168.98584067743764,117.59968962505937 L 169.86595788764342,128.1620396486063 L 172.66384826762754,130.2332918808451 L 165.12516057580885,130.65447629048268 L 164.232562971145,135.68712153115038 L 152.7040352487701,135.53730337049188 L 150.24173257841025,132.97979900050686 L 149.8802096180104,122.90720949140221 L 142.46536892957792,122.78349234519725 L 142.54709813035893,117.85534525328656 z" id="c40055"/>
		<path d="M 221.79199274269425,53.60681848364602 L 226.744529230121,53.6152172556259 L 246.66088327702494,53.60573884913212 L 246.81610304702275,78.76053513808644 L 221.89376620181815,78.820102097867 L 221.79199274269425,53.60681848364602 z" id="c40073"/>
		<path d="M 137.2704920894319,117.75133957487893 L 142.54709813035893,117.85534525328656 L 142.46536892957792,122.78349234519725 L 149.8802096180104,122.90720949140221 L 150.24173257841025,132.97979900050686 L 152.7040352487701,135.53730337049188 L 152.5142507541515,147.9974986693627 L 144.18646584459407,147.86354203459592 L 140.12318928379023,143.7876600972962 L 136.8686443227713,144.6172811079752 L 136.73749176430826,144.65066073907357 L 136.94850853749548,134.0011115559466 L 137.2704920894319,117.75133957487893 z" id="c40057"/>
		<path d="M 167.30820696077419,53.21075379702328 L 187.12597701486683,53.59649464096795 L 201.959224135892,53.52329258123247 L 202.0611817792861,73.7371319944351 L 167.32395295174604,73.40391463847526 L 167.23836054143345,61.89142059870123 L 167.30820696077419,53.21075379702328 z" id="c40043"/>
		<path d="M 271.8535089972493,98.62822246322138 L 271.8403303625617,93.63409208142174 L 296.07838937683175,93.43869584103413 L 296.1728896414189,96.9911015896221 L 288.9997219476919,96.4672423251761 L 289.3881402694047,125.78478555801716 L 287.5745832439478,123.24474817158699 L 284.1908354345517,124.33789295572932 L 282.03477526770024,122.17658930398319 L 278.03995638663196,125.4853396055652 L 272.0609937517845,124.34605834580407 L 271.8535089972493,98.62822246322138 z" id="c40125"/>
		<path d="M 332.449665717365,7.947570999913652 L 333.43934541652123,4.634704976766627 L 343.24823205414765,4.406994586382593 L 345.6034002097505,4.349211296150291 L 350.880276601252,4.215406689474912 L 349.8576598847834,7.49912740234983 L 350.3700028177438,27.28983819004061 L 332.89131072638924,27.701933402745432 L 332.449665717365,7.947570999913652 z" id="c40105"/>
		<path d="M 321.81158518050444,132.8755552024758 L 321.6568886554987,116.6897941405255 L 326.52227954079865,110.75777749625755 L 330.0673493701053,111.15579235131335 L 331.7719061731013,108.68395703124615 L 337.1790975655831,109.07065480851105 L 343.682471945352,104.76464593653857 L 344.3481511483894,106.40932127370486 L 351.3442245845779,101.92136023927786 L 351.3629270289632,109.68722924717771 L 356.32796227834456,109.59119115489771 L 356.4861761702131,115.40700514105089 L 349.0678379648055,117.2734090938847 L 349.2421588153887,137.25221876204034 L 349.362604393547,142.21200760391474 L 341.91019272729403,142.41387201174354 L 331.9515974508668,142.64492784033638 L 331.83708142577905,137.65970788592676 L 321.90375902369306,137.85655502444388 L 321.81158518050444,132.8755552024758 z" id="c40121"/>
		<path d="M 206.50642694012433,5.72668962659799 L 215.27875936140012,5.798064933965193 L 215.59747309207012,5.798700900977601 L 226.421773867436,5.807319833662771 L 226.5178138638602,28.052123174429365 L 226.75216934611984,29.02605912233039 L 226.73790399782294,36.510445227576646 L 206.85245072803474,36.44042731488084 L 206.50642694012433,5.72668962659799 z" id="c40003"/>
		<path d="M 256.32352975701815,5.711203428940922 L 259.8870295335394,5.689779271464866 L 270.8047905953862,5.603001202592825 L 272.971200197761,5.582731059142178 L 289.11764904706513,5.411381382237359 L 289.15406235012586,17.85757804551115 L 282.8472382156471,19.702005572584884 L 280.92618067120526,23.459780617935177 L 274.8206984670998,23.62882359915883 L 275.1717739386685,28.808167502038028 L 256.4817291726268,28.95874631325713 L 256.4421353491219,28.959531004878936 L 256.32352975701815,5.711203428940922 z" id="c40071"/>
		<path d="M 369.289346129262,3.695645957379196 L 369.85647194527087,3.6784242307483224 L 382.85548845324746,3.315359548693373 L 387.2166620856193,3.1648603263660973 L 387.64744489447577,16.48992919612822 L 387.85155970029774,22.145383902643218 L 370.22827677712803,22.54720478732882 L 369.77522528262233,6.920382688911753 L 368.0789290923103,4.0355187403739325 L 369.289346129262,3.695645957379196 z" id="c40115"/>
		<path d="M 333.3509189092639,70.21579325482217 L 335.98916084866323,67.58336616072151 L 335.65896040996495,52.585629417318806 L 337.2978639175821,52.56626105821195 L 342.31358992556324,52.446972052294356 L 344.61874723177374,57.39584729533314 L 350.74130615671504,57.249231767626604 L 361.5397651536105,56.99111106204281 L 358.4180666816376,63.421291842725935 L 360.7970477660524,69.83304031291303 L 359.2591367033097,72.05052729537972 L 354.8250545240051,71.64405567762411 L 344.19577870811713,75.19357062951866 L 341.23880232033525,70.01645355390006 L 335.84030604324806,70.15968749378503 L 333.3509189092639,70.21579325482217 z" id="c40145"/>
		<path d="M 247.01067282161247,101.0325536720391 L 252.39791374239883,103.82226428449626 L 253.14701842610737,108.07655953527427 L 259.49398124509696,112.40112617325977 L 262.00683482569707,115.9102183412493 L 263.01066424304565,122.6505819104288 L 272.0609937517845,124.34605834580407 L 278.03995638663196,125.4853396055652 L 282.03477526770024,122.17658930398319 L 282.0140879739601,128.47434420009495 L 247.25733101976434,128.6769980850709 L 247.1344706335526,127.6574133585736 L 247.011003242528,101.11962814404059 L 247.01067282161247,101.0325536720391 z" id="c40087"/>
		<path d="M 226.75216934611984,29.02605912233039 L 256.4421353491219,28.959531004878936 L 256.4817291726268,28.95874631325713 L 256.65073973192614,53.57453215327486 L 246.66088327702494,53.60573884913212 L 226.744529230121,53.6152172556259 L 226.73790399782294,36.510445227576646 L 226.75216934611984,29.02605912233039 z" id="c40047"/>
		<path d="M 165.43877550635563,113.24086462194292 L 167.5148001164964,113.27846710109662 L 196.29288371600634,113.60163909934589 L 200.90612775542726,113.18453222571837 L 202.33667000136208,114.70772196979811 L 202.29261571323605,128.60278402078566 L 192.54944286410034,128.54549826581925 L 192.42873065077714,143.4871423537045 L 184.13036275535956,143.41473041886707 L 184.15897562135416,140.92146642917706 L 179.32167176414256,140.8665757440097 L 181.75829043944216,137.24689317641005 L 177.1865333073054,137.15146722556386 L 177.49725341363433,128.7185135774467 L 172.66384826762754,130.2332918808451 L 169.86595788764342,128.1620396486063 L 168.98584067743764,117.59968962505937 L 167.10898040132741,114.92799361684499 L 165.20238777063264,113.37451920398064 L 165.43877550635563,113.24086462194292 z" id="c40075"/>
		<path d="M 366.0077907971946,81.86470763191372 L 380.9525550189086,81.43521128070564 L 396.6053502494442,80.91398951301187 L 397.98684590161605,89.00149970676486 L 398.8901624747278,94.90856834530085 L 398.94975667787355,95.29786180459166 L 396.3756840884968,100.23987453884331 L 391.5143583922029,98.90376006660473 L 388.1024917824596,100.90722040968576 L 384.1634098102717,97.4831547326819 L 381.24818166148754,99.50462636439212 L 376.47131163952315,98.26625946402287 L 376.9751565101655,95.3594364836089 L 372.035703214546,94.55304771433477 L 369.9246105733225,92.07490551481688 L 368.2466333499148,91.98017008679211 L 365.95491789305737,88.33755048965119 L 366.0077907971946,81.86470763191372 z" id="c40135"/>
		<path d="M 46.20080254112791,2.4036735421355697 L 51.98669887757968,2.599101036561792 L 67.96019561203747,3.0981998513419784 L 71.17790837727887,3.192084150746382 L 83.77864357767568,3.5233552968906325 L 90.45238468428788,3.695808646500721 L 96.01951598809264,3.832325891567623 L 94.78262829382075,32.42172972060885 L 88.7177701327886,32.25662912267808 L 63.78097369841844,31.411308373101452 L 54.40247759775189,31.05780393734683 L 44.880814706733865,30.663322829640986 L 46.20080254112791,2.4036735421355697 z" id="c40139"/>
		<path d="M 282.0140879739601,128.47434420009495 L 282.03477526770024,122.17658930398319 L 284.1908354345517,124.33789295572932 L 287.5745832439478,123.24474817158699 L 289.3881402694047,125.78478555801716 L 291.670819907268,128.20847045654 L 292.4366993475567,125.07291525278403 L 298.7515616194776,124.70898304160818 L 301.0804337062179,127.36958990096988 L 302.83074941301817,124.9936075559623 L 306.80568627701706,123.5793416644885 L 306.94023549271225,133.14217101722366 L 307.0251892574124,138.14519890626434 L 302.01590803967986,138.21925775184576 L 302.086792904106,148.22993047727846 L 287.2110532694681,148.38768900851372 L 287.16245543331854,143.39275265888827 L 282.17304973021476,143.44577611515294 L 282.14527820437604,140.94992652112683 L 282.0140879739601,128.47434420009495 z" id="c40123"/>
		<path d="M 226.421773867436,5.807319833662771 L 229.4892744775837,5.805176529913177 L 240.67552784543264,5.775409874797755 L 242.22248641829833,5.769173588493534 L 256.32352975701815,5.711203428940922 L 256.4421353491219,28.959531004878936 L 226.75216934611984,29.02605912233039 L 226.5178138638602,28.052123174429365 L 226.421773867436,5.807319833662771 z" id="c40053"/>
		<path d="M 302.6714184500283,113.22897972271528 L 304.9851122122967,113.19874285489985 L 304.82783403809424,103.20598796681293 L 326.43772042475433,102.8426524728805 L 326.52227954079865,110.75777749625755 L 321.6568886554987,116.6897941405255 L 321.81158518050444,132.8755552024758 L 306.94023549271225,133.14217101722366 L 306.80568627701706,123.5793416644885 L 302.83074941301817,124.9936075559623 L 302.6714184500283,113.22897972271528 z" id="c40063"/>
		<path d="M 138.91838494775598,28.12794516531045 L 157.3041029324225,28.48509717277475 L 157.3572738648548,53.07771264222446 L 167.30820696077419,53.21075379702328 L 167.23836054143345,61.89142059870123 L 161.86193828305275,63.775719730824434 L 158.84134871662727,70.19552770883045 L 155.9574535112346,71.52061335369727 L 151.4333598406848,70.43195446783298 L 147.55181710363067,67.4466744093546 L 147.2680248085079,62.314517697270745 L 143.58076710480591,62.946498585133085 L 141.78319334305303,67.16704069085827 L 138.2370052855451,68.95800406172526 L 138.43509512956092,58.957029382978384 L 138.9394163921861,33.495738932820565 L 138.78402377239482,33.4926651179051 L 138.91838494775598,28.12794516531045 z" id="c40045"/>
		<path d="M 139.41041322543015,4.702449693505703 L 139.74960126494867,4.708487414677414 L 155.28171812240367,5.0718620775228676 L 160.6449911942281,5.17334133761196 L 164.5527183289553,5.2433791673991434 L 168.2320931733878,12.187548200866969 L 171.8306506356295,15.67992794656442 L 171.6650413516797,28.560825870595558 L 157.3041029324225,28.48509717277475 L 138.91838494775598,28.12794516531045 L 139.41041322543015,4.702449693505703 z" id="c40059"/>
		<path d="M 157.3041029324225,28.48509717277475 L 171.6650413516797,28.560825870595558 L 171.8306506356295,15.67992794656442 L 173.87270534255632,17.68824248475895 L 178.97192644129038,17.861943237294177 L 187.17280049954445,28.506880216698967 L 187.10585207540262,33.78844698303453 L 187.12597701486683,53.59649464096795 L 167.30820696077419,53.21075379702328 L 157.3572738648548,53.07771264222446 L 157.3041029324225,28.48509717277475 z" id="c40153"/>
		<path d="M 327.25661159464124,167.77492613836282 L 337.36439851095133,167.56923222277348 L 367.0291092821156,166.80970330885228 L 367.41106636754176,179.32501852653772 L 364.0085634206567,178.07405728792543 L 362.7589973753355,179.9568092692144 L 361.41500978524584,182.97231030469513 L 360.1305721852541,183.23047137340956 L 358.13797542112195,183.63023849856356 L 353.5947717667673,183.6864674086265 L 349.8459676815703,182.826084553236 L 348.2787701727074,180.48332502081342 L 346.0461612399061,180.52682238215615 L 342.906915477429,181.82428111172533 L 339.69350425857493,182.4635869368984 L 337.2322454426066,183.8669306825921 L 330.9936634212817,180.98327912184433 L 329.83865958221,169.54022614930588 L 327.25661159464124,167.77492613836282 z" id="c40023"/>
		<path d="M 370.2094950802219,31.772950411640306 L 370.0620133484246,26.740212292309874 L 370.22827677712803,22.54720478732882 L 387.85155970029774,22.145383902643218 L 387.96603748185106,25.316802439979384 L 388.17874514128454,31.806439404489264 L 390.03370788108913,43.19024135884661 L 391.41361132809624,51.062225817670516 L 380.48511715082583,51.440213497746896 L 370.54236864799157,51.73886299624553 L 370.2094950802219,31.772950411640306 z" id="c40041"/>
		<path d="M 192.42873065077714,143.4871423537045 L 192.54944286410034,128.54549826581925 L 202.29261571323605,128.60278402078566 L 227.17640261443927,128.7108360693548 L 227.36989544850155,129.86774144724924 L 227.3580114029151,138.67360151111382 L 224.86283784792664,138.6710342998044 L 224.8322579667015,148.652691517171 L 219.99433902101725,148.63615640279485 L 217.5266217648949,151.95807542367749 L 207.59301157549453,153.55724812952542 L 200.13280477940634,154.34537104794023 L 200.16972287439364,148.52774878434124 L 192.38145708886742,148.47549649643793 L 192.42873065077714,143.4871423537045 z" id="c40031"/>
		<path d="M 282.289135644268,158.3863457267602 L 284.77521926494694,158.33558651070203 L 284.6754619860625,148.41699140729438 L 287.2110532694681,148.38768900851372 L 302.086792904106,148.22993047727846 L 302.1601152597067,153.14820598910583 L 307.22786337985787,153.13848236307902 L 307.4428636625563,168.09902817697713 L 305.2743182842301,170.60978658008318 L 299.0055973751999,170.68115420684484 L 297.2797165299765,167.97788116474035 L 282.3764891207666,167.5447790895042 L 282.289135644268,158.3863457267602 z" id="c40069"/>
		<path d="M 310.7272332816756,53.099341044114894 L 312.1038873403219,53.093072913032486 L 324.5219371948201,52.90281230568092 L 324.22651319329196,37.856659856556206 L 332.97798134717146,37.68123335880138 L 333.8195672328289,38.081735357662765 L 333.07430822572553,41.842560426357466 L 333.20721028566356,47.66052982190545 L 333.16014428003905,52.6472672282289 L 335.65896040996495,52.585629417318806 L 335.98916084866323,67.58336616072151 L 333.3509189092639,70.21579325482217 L 323.3792896257091,70.38804501401182 L 323.4953080552015,67.8462205661916 L 323.3988293020149,62.842370232502304 L 323.29965555560597,57.85563347269829 L 310.8100971891349,58.059918905651465 L 310.7272332816756,53.099341044114894 z" id="c40143"/>
		<path d="M 271.73317171494716,78.70424584190815 L 271.6495318987393,66.22845772098509 L 295.93866367481024,65.98305754596647 L 296.1209931987524,83.33014475924219 L 296.07838937683175,93.43869584103413 L 271.8403303625617,93.63409208142174 L 271.73317171494716,78.70424584190815 z" id="c40081"/>
		<path d="M 166.81638699824737,5.282446569977195 L 179.59106778951866,5.451967664075614 L 185.53512700506613,5.51834402896629 L 195.12534341497556,5.60940148410184 L 206.50642694012433,5.72668962659799 L 206.85245072803474,36.44042731488084 L 206.83072961581814,40.18960164136818 L 202.5766638131517,40.4675167728508 L 194.14700079727174,36.49860434551272 L 192.50634091267713,33.871069109928875 L 187.10585207540262,33.78844698303453 L 187.17280049954445,28.506880216698967 L 178.97192644129038,17.861943237294177 L 173.87270534255632,17.68824248475895 L 171.8306506356295,15.67992794656442 L 168.2320931733878,12.187548200866969 L 164.5527183289553,5.2433791673991434 L 166.81638699824737,5.282446569977195 z" id="c40151"/>
		<path d="M 252.54400005745336,183.45239298129738 L 253.6889383345305,178.586498519477 L 252.5241262492196,173.59009410105932 L 280.7153739953972,173.392320943419 L 282.4097881178928,176.7040129469409 L 282.47389979569846,180.56282824837052 L 281.98357862807694,180.60097357697617 L 281.6162662371987,180.62951619865987 L 279.89124161712505,182.14376750698693 L 280.06147137254374,183.97296230293517 L 276.71944692567996,185.7695173100185 L 275.654124644674,188.2429271990238 L 275.2310865152464,190.4622904493372 L 275.0971011726644,192.6977670670096 L 272.31097693726844,193.4755942103258 L 269.5772722676766,188.4626130060395 L 271.42632281980565,186.29926287000436 L 269.50679979279806,182.47664347460386 L 267.59974170396333,183.289952882784 L 264.16969479485084,185.33301118201604 L 261.5709899847891,187.9670772751649 L 258.161401949318,187.73952967716372 L 257.79869714624584,185.03891931781104 L 256.2241358006939,182.58521862140762 L 256.11039525081134,182.40785644724988 L 252.6865748255623,183.56424261355576 L 252.54400005745336,183.45239298129738 z" id="c40085"/>
		<path d="M 262.3111089053917,148.57016277573948 L 272.18923557411324,148.5074674359994 L 269.47495708315046,141.8724067976072 L 282.14527820437604,140.94992652112683 L 282.17304973021476,143.44577611515294 L 287.16245543331854,143.39275265888827 L 287.2110532694681,148.38768900851372 L 284.6754619860625,148.41699140729438 L 284.77521926494694,158.33558651070203 L 282.289135644268,158.3863457267602 L 277.7485941798913,158.44719735185637 L 277.27696157257776,155.96387793989862 L 262.3623783847685,156.05523037117572 L 262.3111089053917,148.57016277573948 z" id="c40099"/>
		<path d="M 137.7160275448652,95.26077984847113 L 157.63475849217485,95.65431398757016 L 157.71734927872998,90.65556236056088 L 167.63413918961166,90.8040544933215 L 167.59690214746934,93.29552118240115 L 167.5148001164964,113.27846710109662 L 165.43877550635563,113.24086462194292 L 165.20238777063264,113.37451920398064 L 147.61862733616442,112.95711315051706 L 147.52026917769538,117.9330698609855 L 142.54709813035893,117.85534525328656 L 137.2704920894319,117.75133957487893 L 137.44397066625058,108.99628579120586 L 137.7160275448652,95.26077984847113 z" id="c40009"/>
		<path d="M 351.3442245845779,101.92136023927786 L 354.16329419536487,100.04429656441354 L 356.3513657809499,101.9633694495186 L 361.28774486503977,103.592814767494 L 364.5127727544337,100.762659304115 L 369.9246105733225,92.07490551481688 L 372.035703214546,94.55304771433477 L 376.9751565101655,95.3594364836089 L 376.47131163952315,98.26625946402287 L 381.24818166148754,99.50462636439212 L 381.43668981926237,106.43887960839395 L 376.09879649987596,106.58839673544512 L 376.3464185904947,114.85958942806614 L 356.4861761702131,115.40700514105089 L 356.32796227834456,109.59119115489771 L 351.3629270289632,109.68722924717771 L 351.3442245845779,101.92136023927786 z" id="c40061"/>
		<path d="M 349.0678379648055,117.2734090938847 L 356.4861761702131,115.40700514105089 L 376.3464185904947,114.85958942806614 L 376.55851712646887,121.51769747302377 L 373.2345886660183,121.62123569197392 L 373.39677952926866,126.60789491238926 L 370.48371551839483,126.68770613996794 L 370.7697353262652,136.67245841236843 L 349.2421588153887,137.25221876204034 L 349.0678379648055,117.2734090938847 z" id="c40077"/>
		<path d="M 276.3962529246292,33.78264209662363 L 277.43041216114335,33.7738732831844 L 280.68192511874634,36.68996224828504 L 283.6798449624704,35.77468891661843 L 286.1493906046191,31.853862726730465 L 289.255787285291,30.44944500259741 L 291.50973620623637,35.29946281938241 L 291.0901570457969,37.28168637401959 L 294.81390441140417,38.219213654924694 L 297.6379989631217,41.137924155651795 L 300.2782993655978,40.91469572289436 L 297.788302420598,44.49936721895007 L 300.5065420305926,45.45691441642668 L 303.14776919879176,43.44798776626037 L 304.29708918488734,46.11335848464378 L 309.32496632217754,49.4362801698808 L 312.5830948156385,49.43132384386799 L 312.1038873403219,53.093072913032486 L 310.7272332816756,53.099341044114894 L 296.6684312199939,53.24522431788751 L 295.6528339020792,53.465616053198346 L 286.49808649817203,53.63998782921388 L 286.44103328578547,48.61689086421646 L 281.5123195548965,48.672199300974945 L 281.4654351663987,43.69010809735342 L 276.49228849735437,43.73986232674036 L 276.3962529246292,33.78264209662363 z" id="c40117"/>
		<path d="M 227.06850475819266,98.7460441960921 L 233.68401624179762,100.56519381710656 L 238.0187707324841,99.65659131721976 L 239.389169345116,101.17179027460962 L 241.43274821385805,101.30378319246554 L 242.29594846098828,100.5714858423255 L 247.011003242528,101.11962814404059 L 247.1344706335526,127.6574133585736 L 247.25733101976434,128.6769980850709 L 247.27053516586534,138.63954901745103 L 227.3580114029151,138.67360151111382 L 227.36989544850155,129.86774144724924 L 227.17640261443927,128.7108360693548 L 227.06850475819266,98.7460441960921 z" id="c40051"/>
		<path d="M 216.9357649873003,78.80881581394878 L 221.89376620181815,78.820102097867 L 246.81610304702275,78.76053513808644 L 246.9993452558094,97.09137748458802 L 247.0054269629574,98.75758154381025 L 247.01067282161247,101.0325536720391 L 247.011003242528,101.11962814404059 L 242.29594846098828,100.5714858423255 L 241.43274821385805,101.30378319246554 L 239.389169345116,101.17179027460962 L 238.0187707324841,99.65659131721976 L 233.68401624179762,100.56519381710656 L 227.06850475819266,98.7460441960921 L 217.1944096564021,98.75583065989765 L 216.90029007995474,88.76370005256652 L 216.9357649873003,78.80881581394878 z" id="c40017"/>
		<path d="M 246.81610304702275,78.76053513808644 L 271.73317171494716,78.70424584190815 L 271.8403303625617,93.63409208142174 L 271.8535089972493,98.62822246322138 L 263.6036372030529,98.66673663089031 L 258.63954573234594,98.69596511835462 L 247.0054269629574,98.75758154381025 L 246.9993452558094,97.09137748458802 L 246.81610304702275,78.76053513808644 z" id="c40109"/>
		<path d="M 252.38646353531442,161.09519830926718 L 252.34131816546918,148.61001472572792 L 262.3111089053917,148.57016277573948 L 262.3623783847685,156.05523037117572 L 277.27696157257776,155.96387793989862 L 277.7485941798913,158.44719735185637 L 282.289135644268,158.3863457267602 L 282.3764891207666,167.5447790895042 L 280.7132022900012,167.56573354959394 L 280.7153739953972,173.392320943419 L 252.5241262492196,173.59009410105932 L 252.44174142767295,172.23220677759906 L 252.38646353531442,161.09519830926718 z" id="c40019"/>
		<path d="M 370.48371551839483,126.68770613996794 L 373.39677952926866,126.60789491238926 L 373.2345886660183,121.62123569197392 L 376.55851712646887,121.51769747302377 L 376.3464185904947,114.85958942806614 L 376.09879649987596,106.58839673544512 L 381.43668981926237,106.43887960839395 L 381.24818166148754,99.50462636439212 L 384.1634098102717,97.4831547326819 L 388.1024917824596,100.90722040968576 L 391.5143583922029,98.90376006660473 L 396.3756840884968,100.23987453884331 L 398.94975667787355,95.29786180459166 L 399.0962601151017,96.25466560889544 L 399.1075380247581,101.62873246452818 L 399.1809776041923,113.86518056609766 L 399.2243086867036,121.2352186807351 L 399.2387935826619,123.72492015702692 L 399.31216320332135,132.9899334760969 L 399.3543922068905,138.37997037794815 L 399.4368138940317,145.68816120738302 L 376.845390281167,146.43634123490122 L 376.5460875514637,136.49744073989467 L 370.7697353262652,136.67245841236843 L 370.48371551839483,126.68770613996794 z" id="c40079"/>
		<path d="M 247.0054269629574,98.75758154381025 L 258.63954573234594,98.69596511835462 L 263.6036372030529,98.66673663089031 L 271.8535089972493,98.62822246322138 L 272.0609937517845,124.34605834580407 L 263.01066424304565,122.6505819104288 L 262.00683482569707,115.9102183412493 L 259.49398124509696,112.40112617325977 L 253.14701842610737,108.07655953527427 L 252.39791374239883,103.82226428449626 L 247.01067282161247,101.0325536720391 L 247.0054269629574,98.75758154381025 z" id="c40027"/>
		<path d="M 336.93470917113484,147.51842393422478 L 342.02795040028394,147.3950368565297 L 341.91019272729403,142.41387201174354 L 349.362604393547,142.21200760391474 L 349.2421588153887,137.25221876204034 L 370.7697353262652,136.67245841236843 L 376.5460875514637,136.49744073989467 L 376.845390281167,146.43634123490122 L 371.6696233493761,146.59176041125167 L 372.11904137433226,161.68635610476292 L 367.1363353284262,161.83183464033377 L 367.0291092821156,166.80970330885228 L 337.36439851095133,167.56923222277348 L 336.93470917113484,147.51842393422478 z" id="c40127"/>
		<path d="M 333.20721028566356,47.66052982190545 L 333.07430822572553,41.842560426357466 L 333.8195672328289,38.081735357662765 L 332.97798134717146,37.68123335880138 L 332.784342048159,28.74362979545639 L 332.89131072638924,27.701933402745432 L 350.3700028177438,27.28983819004061 L 355.14192616943694,27.160785298932964 L 355.2838516331776,32.17188471345847 L 350.31051582693743,32.305497819161246 L 350.74130615671504,57.249231767626604 L 344.61874723177374,57.39584729533314 L 342.31358992556324,52.446972052294356 L 337.2978639175821,52.56626105821195 L 335.65896040996495,52.585629417318806 L 333.16014428003905,52.6472672282289 L 333.20721028566356,47.66052982190545 z" id="c40131"/>
		<path d="M 358.4180666816376,63.421291842725935 L 361.5397651536105,56.99111106204281 L 365.70814202685955,56.88334079358596 L 365.5598733510392,51.89141217446273 L 370.54236864799157,51.73886299624553 L 380.48511715082583,51.440213497746896 L 380.9525550189086,81.43521128070564 L 366.0077907971946,81.86470763191372 L 365.7264587087581,71.9001652204003 L 359.2591367033097,72.05052729537972 L 360.7970477660524,69.83304031291303 L 358.4180666816376,63.421291842725935 z" id="c40021"/>
		<path d="M 224.95367453832753,161.098992095541 L 252.38646353531442,161.09519830926718 L 252.44174142767295,172.23220677759906 L 252.5241262492196,173.59009410105932 L 253.6889383345305,178.586498519477 L 252.54400005745336,183.45239298129738 L 250.8703277694763,182.13869800131624 L 250.24209673540813,179.50566074875456 L 247.2447711141731,178.18233830927716 L 243.05002758949126,181.98575561157702 L 240.97023855145264,184.5703362044353 L 237.99504862548508,186.34017838693885 L 233.90826488097738,184.6801262117587 L 233.87488736352788,183.9464753523369 L 233.78851107476532,182.04686580955942 L 234.07905041710362,178.22532989353388 L 231.30579739180632,177.94452582865466 L 227.62237254838243,177.57338005931095 L 226.8490214953778,174.92344162434492 L 226.84109279246334,171.73382144671513 L 225.69813710577748,168.8530464214427 L 224.97723531658588,169.61627519738468 L 224.95367453832753,161.098992095541 z" id="c40067"/>
		<path d="M 144.18646584459407,147.86354203459592 L 152.5142507541515,147.9974986693627 L 152.7040352487701,135.53730337049188 L 164.232562971145,135.68712153115038 L 165.12516057580885,130.65447629048268 L 172.66384826762754,130.2332918808451 L 177.49725341363433,128.7185135774467 L 177.1865333073054,137.15146722556386 L 181.75829043944216,137.24689317641005 L 179.32167176414256,140.8665757440097 L 176.438660126617,143.6950680809354 L 172.7895127716138,152.90114788268934 L 173.4939567355621,158.7147479139743 L 170.98368443364097,155.17458789408298 L 167.45609190869814,152.23519424152394 L 165.34491514808192,151.9189857164128 L 164.08570919635247,155.43410266514397 L 161.69802237390493,154.48244173162394 L 161.50582702115585,154.45671086026155 L 156.31619396185113,153.75891703030325 L 155.54788345785207,155.637415797903 L 150.97206801611162,155.19883716273588 L 147.77588130971677,152.03562578095955 L 145.29943096444535,148.97813146274703 L 144.18646584459407,147.86354203459592 z" id="c40065"/>
		<path d="M 367.0291092821156,166.80970330885228 L 367.1363353284262,161.83183464033377 L 372.11904137433226,161.68635610476292 L 371.6696233493761,146.59176041125167 L 376.845390281167,146.43634123490122 L 399.4368138940317,145.68816120738302 L 399.53176631474565,154.16678695885972 L 399.6469889354354,163.8752881884722 L 399.7620762723038,173.64978967725477 L 399.80642357387137,178.1637685520668 L 399.8913750151541,186.87160807282874 L 400.0,195.53502280222085 L 397.96896913801896,196.52439668758257 L 395.769771632823,193.84441065032834 L 392.99901068127656,193.7361652361903 L 388.8996521202988,191.9297527964765 L 388.0573922723073,191.17901940563502 L 386.3698364911964,189.67371436894857 L 382.7730963971347,190.28075108698224 L 379.8061584699552,188.2593727908973 L 377.96318321976776,186.35389377632154 L 375.8789510588555,184.02112505599192 L 372.75898037005516,183.52398386633683 L 370.37466237620464,181.17078643249863 L 367.72230260641993,179.43929427570362 L 367.41106636754176,179.32501852653772 L 367.0291092821156,166.80970330885228 z" id="c40089"/>
		<path d="M 274.8206984670998,23.62882359915883 L 280.92618067120526,23.459780617935177 L 282.8472382156471,19.702005572584884 L 289.15406235012586,17.85757804551115 L 289.11764904706513,5.411381382237359 L 299.4390840478918,5.289868923023518 L 300.6032334844036,5.27472434265487 L 313.6141112323275,5.038671319690984 L 323.5893277467928,4.844273430015435 L 324.22651319329196,37.856659856556206 L 324.5219371948201,52.90281230568092 L 312.1038873403219,53.093072913032486 L 312.5830948156385,49.43132384386799 L 309.32496632217754,49.4362801698808 L 304.29708918488734,46.11335848464378 L 303.14776919879176,43.44798776626037 L 300.5065420305926,45.45691441642668 L 297.788302420598,44.49936721895007 L 300.2782993655978,40.91469572289436 L 297.6379989631217,41.137924155651795 L 294.81390441140417,38.219213654924694 L 291.0901570457969,37.28168637401959 L 291.50973620623637,35.29946281938241 L 289.255787285291,30.44944500259741 L 286.1493906046191,31.853862726730465 L 283.6798449624704,35.77468891661843 L 280.68192511874634,36.68996224828504 L 277.43041216114335,33.7738732831844 L 283.02599479944325,29.817444932229442 L 281.86653715617103,28.449592387331094 L 275.1717739386685,28.808167502038028 L 274.8206984670998,23.62882359915883 z" id="c40113"/>
		<path d="M 307.22786337985787,153.13848236307902 L 319.6530260066946,152.9306929405326 L 319.5598574017343,147.90934654117146 L 322.09425001192994,147.8555147552116 L 321.90375902369306,137.85655502444388 L 331.83708142577905,137.65970788592676 L 331.9515974508668,142.64492784033638 L 341.91019272729403,142.41387201174354 L 342.02795040028394,147.3950368565297 L 336.93470917113484,147.51842393422478 L 337.36439851095133,167.56923222277348 L 327.25661159464124,167.77492613836282 L 307.4428636625563,168.09902817697713 L 307.22786337985787,153.13848236307902 z" id="c40005"/>
		<path d="M 172.7895127716138,152.90114788268934 L 176.438660126617,143.6950680809354 L 179.32167176414256,140.8665757440097 L 184.15897562135416,140.92146642917706 L 184.13036275535956,143.41473041886707 L 192.42873065077714,143.4871423537045 L 192.38145708886742,148.47549649643793 L 200.16972287439364,148.52774878434124 L 200.13280477940634,154.34537104794023 L 200.10326874826603,158.5012370550485 L 202.59187907717288,158.50035019239024 L 202.50468795894264,168.67495981106964 L 200.70338916492793,168.19011029167052 L 198.69041259110963,169.96979059392734 L 196.44210111977495,170.07785818439166 L 193.1377055538747,168.6250220250048 L 190.02329364260004,168.33863848332356 L 186.80737264100438,165.83160195404008 L 186.23154277613784,165.76981436888317 L 183.8250755500791,165.5108329179645 L 181.15987552834423,165.9149481241698 L 177.70096834765366,165.4134129005566 L 174.94495471979445,165.0974507961702 L 173.96192336301618,159.3739750247674 L 173.4939567355621,158.7147479139743 L 172.7895127716138,152.90114788268934 z" id="c40141"/>
		<path d="M 316.161648123441,83.00908465926452 L 315.9463579324676,70.51768375691086 L 318.3155661818465,70.46863475222167 L 323.3792896257091,70.38804501401182 L 333.3509189092639,70.21579325482217 L 335.84030604324806,70.15968749378503 L 335.99886708912,77.642319104184 L 338.48461625946203,77.58337864271844 L 338.71669143025855,87.56034007486438 L 333.59216895929563,87.67626951036208 L 333.6978169016292,92.72049482546527 L 331.21656821475386,92.77693479205722 L 331.3187333019531,97.75940161066349 L 326.34014993950683,97.85597010604884 L 321.36124882796344,97.94782764999754 L 321.1594785798602,87.91039819078104 L 316.24465800008727,88.00296717453973 L 316.161648123441,83.00908465926452 z" id="c40111"/>
		<path d="M 349.8576598847834,7.49912740234983 L 350.880276601252,4.215406689474912 L 354.79903647626907,4.112157645787632 L 366.2582008546644,3.786516403784583 L 369.289346129262,3.695645957379196 L 368.0789290923103,4.0355187403739325 L 369.77522528262233,6.920382688911753 L 370.22827677712803,22.54720478732882 L 370.0620133484246,26.740212292309874 L 370.2094950802219,31.772950411640306 L 355.2838516331776,32.17188471345847 L 355.14192616943694,27.160785298932964 L 350.3700028177438,27.28983819004061 L 349.8576598847834,7.49912740234983 z" id="c40035"/>
		<path d="M 256.4817291726268,28.95874631325713 L 275.1717739386685,28.808167502038028 L 281.86653715617103,28.449592387331094 L 283.02599479944325,29.817444932229442 L 277.43041216114335,33.7738732831844 L 276.3962529246292,33.78264209662363 L 276.49228849735437,43.73986232674036 L 281.4654351663987,43.69010809735342 L 281.5123195548965,48.672199300974945 L 271.48300423159117,48.770516625764024 L 271.53951602807325,53.771386053348316 L 261.61259503070625,53.85451965713679 L 260.792716638229,53.56072967963529 L 256.65073973192614,53.57453215327486 L 256.4817291726268,28.95874631325713 z" id="c40103"/>
		<path d="M 138.2370052855451,68.95800406172526 L 141.78319334305303,67.16704069085827 L 143.58076710480591,62.946498585133085 L 147.2680248085079,62.314517697270745 L 147.55181710363067,67.4466744093546 L 151.4333598406848,70.43195446783298 L 155.9574535112346,71.52061335369727 L 158.84134871662727,70.19552770883045 L 161.86193828305275,63.775719730824434 L 167.23836054143345,61.89142059870123 L 167.32395295174604,73.40391463847526 L 167.06257982175637,88.3339145777888 L 167.63413918961166,90.8040544933215 L 157.71734927872998,90.65556236056088 L 157.63475849217485,95.65431398757016 L 137.7160275448652,95.26077984847113 L 137.93939433012775,83.98356130990801 L 138.2370052855451,68.95800406172526 z" id="c40129"/>
		<path d="M 297.2071912558852,176.70887919884692 L 300.8268442530554,173.5873636009626 L 299.0055973751999,170.68115420684484 L 305.2743182842301,170.60978658008318 L 307.4428636625563,168.09902817697713 L 327.25661159464124,167.77492613836282 L 329.83865958221,169.54022614930588 L 330.9936634212817,180.98327912184433 L 337.2322454426066,183.8669306825921 L 335.77002542288557,184.69967232422522 L 334.6069005688459,184.6124737300364 L 332.5658944426188,184.45877466189162 L 330.26630943780344,183.86189248972465 L 324.15705211138106,185.9075843052913 L 319.973589924556,186.53496783190448 L 318.9830523002229,188.352027252899 L 316.357081081299,191.4103210854579 L 314.02642326900934,190.206041335623 L 312.6183864624177,192.22052921439354 L 309.98741677773563,194.6019293917397 L 309.1762357136488,193.39323655823765 L 308.0064318835234,191.64890104498082 L 306.3992456940578,189.73897824144092 L 303.25476429724523,190.16437985466362 L 302.1847713816223,187.6207482648082 L 299.83676314902544,187.59811786391663 L 298.87125435926987,186.93431928971702 L 298.96600714078795,184.08162010607973 L 298.7460746187242,183.9497869494174 L 299.52456143164693,179.2741540072206 L 297.2071912558852,176.70887919884692 z" id="c40013"/>
		<path d="M 302.086792904106,148.22993047727846 L 302.01590803967986,138.21925775184576 L 307.0251892574124,138.14519890626434 L 306.94023549271225,133.14217101722366 L 321.81158518050444,132.8755552024758 L 321.90375902369306,137.85655502444388 L 322.09425001192994,147.8555147552116 L 319.5598574017343,147.90934654117146 L 319.6530260066946,152.9306929405326 L 307.22786337985787,153.13848236307902 L 302.1601152597067,153.14820598910583 L 302.086792904106,148.22993047727846 z" id="c40029"/>
		<path d="M 326.43772042475433,102.8426524728805 L 326.34014993950683,97.85597010604884 L 331.3187333019531,97.75940161066349 L 331.21656821475386,92.77693479205722 L 333.6978169016292,92.72049482546527 L 333.59216895929563,87.67626951036208 L 338.71669143025855,87.56034007486438 L 355.9597343728163,87.13738533111399 L 356.3513657809499,101.9633694495186 L 354.16329419536487,100.04429656441354 L 351.3442245845779,101.92136023927786 L 344.3481511483894,106.40932127370486 L 343.682471945352,104.76464593653857 L 337.1790975655831,109.07065480851105 L 331.7719061731013,108.68395703124615 L 330.0673493701053,111.15579235131335 L 326.52227954079865,110.75777749625755 L 326.43772042475433,102.8426524728805 z" id="c40091"/>
		<path d="M 280.7132022900012,167.56573354959394 L 282.3764891207666,167.5447790895042 L 297.2797165299765,167.97788116474035 L 299.0055973751999,170.68115420684484 L 300.8268442530554,173.5873636009626 L 297.2071912558852,176.70887919884692 L 299.52456143164693,179.2741540072206 L 298.7460746187242,183.9497869494174 L 295.6032882982567,182.06403651772737 L 294.5722959152415,184.37139623087566 L 293.1560195818682,186.96951408732812 L 290.0716746223825,186.41507563749923 L 289.215961032378,184.883056543488 L 286.53798954465896,186.15657051670507 L 284.27483899170255,182.9870104608726 L 283.86223573335207,180.454546838934 L 282.47389979569846,180.56282824837052 L 282.4097881178928,176.7040129469409 L 280.7153739953972,173.392320943419 L 280.7132022900012,167.56573354959394 z" id="c40095"/>
	</g>
</svg>