<?xml version="1.0" encoding="UTF-8"?>
<svg baseProfile="full" fill="#d0d0d0" height="296.71533941217575" stroke="#ffffff" stroke-width="1" version="1.1" width="400.0" xmlns="http://www.w3.org/2000/svg" xmlns:ev="http://www.w3.org/2001/xml-events" xmlns:xlink="http://www.w3.org/1999/xlink">
	<defs/>
	<g id="counties"><path d="M 41.22232373578284,133.80721393736064 L 46.32614317920197,130.89732969170166 L 46.29541008160662,125.87566265562744 L 52.324352847965045,126.12142173289894 L 52.815488819582406,106.30580385122511 L 67.55773065271471,106.91653169024426 L 75.05433685585908,107.13373223963994 L 78.60698607217171,112.0452778797971 L 73.79393747939383,113.01327284933059 L 69.23065299154396,118.31079275968945 L 71.36058717537338,121.64826813261986 L 69.43927356717705,133.6726168264687 L 72.55525111877098,137.10341927973636 L 52.141458539750566,136.88346354847445 L 43.156960409747676,136.06985555868874 L 41.22232373578284,133.80721393736064 z" id="c41003"/>
		<path d="M 175.03083398259355,131.76141596822137 L 180.90918745635764,131.82292724161704 L 180.92166176188033,125.89072247744187 L 188.89858543680884,125.92853927580121 L 188.88949201653622,119.99082586483905 L 210.58303564856382,119.93488630195033 L 210.61896591979578,128.73695148053574 L 228.5841540268535,128.4869630387452 L 228.64849523189878,131.86528291028947 L 234.63892203490113,131.8343621301654 L 234.6937419617628,137.54144932465294 L 246.72193151719856,137.40840323528684 L 246.8806390910743,161.35658184845823 L 241.0066371346958,161.40013287370866 L 241.0559508478789,179.3618928949785 L 235.07233237883798,179.3925153767642 L 217.09028773754034,179.4445561344364 L 217.0427255190192,173.4926310195318 L 211.07686083031567,173.49649909557704 L 211.03665966822118,167.51694929227384 L 192.6696928451399,167.5739854323841 L 192.66726994103763,161.65977321880044 L 180.8257579126676,161.3641741021165 L 180.86108380995725,149.45149999818267 L 175.1406914738358,149.1322833431751 L 175.03083398259355,131.76141596822137 z" id="c41013"/>
		<path d="M 47.68794998020436,83.84708516311812 L 47.78657098070725,81.6608124783401 L 79.74355271221833,82.86060612290996 L 80.62842642904243,91.89692966157087 L 77.4020405100574,92.71554717673689 L 73.79332390349573,97.63806408264773 L 77.98523557692256,100.76592095591887 L 75.37077195962074,105.16847971957057 L 75.05433685585908,107.13373223963994 L 67.55773065271471,106.91653169024426 L 52.815488819582406,106.30580385122511 L 47.82161200093652,106.11766943504495 L 46.862304595288755,104.84866323321775 L 47.68794998020436,83.84708516311812 z" id="c41053"/>
		<path d="M 26.513112859534655,258.41486501002134 L 32.51145552210707,258.373966156444 L 35.89168378331869,249.44048840015685 L 42.11584425551604,239.24052201500413 L 41.997938344029585,242.29176365662445 L 48.827098024871425,242.53064646148692 L 55.639550354260784,245.3147359141626 L 64.38247359685785,243.6176278693074 L 66.57962315918009,245.71410415826668 L 66.11953254927035,259.94075402310455 L 65.64240597780312,274.0169350735392 L 64.94533863056074,293.662296379775 L 58.95615659852929,293.8661149688857 L 54.49131333348941,293.537614735189 L 50.16146892518811,293.55350754139147 L 43.0825668985468,293.57008435384984 L 34.623451158988004,293.20940892061606 L 34.86889759180314,286.8940304625473 L 33.136482257139384,283.54923416133863 L 36.80702432649532,276.64012446637304 L 32.211443846941656,268.61056330374515 L 24.4893971151398,265.81108759834217 L 26.513112859534655,258.41486501002134 z" id="c41033"/>
		<path d="M 6.621583857774089,217.95198157685886 L 8.155256767706724,211.92815927988485 L 9.153826789962407,207.56477139499472 L 9.96173997371493,204.41753585734048 L 9.163258515488778,202.18045844927178 L 11.653324801770026,199.5043274304753 L 15.275678252003052,193.22366680915266 L 18.317748864237977,185.04141298645672 L 19.205393088993684,181.37687456386428 L 36.34225893476443,182.27699627580222 L 36.08950288779908,188.63117298753957 L 39.040167056204844,188.71457603856652 L 38.76039114671057,194.5638924602452 L 41.545240487362605,195.2936176815984 L 40.96341521927648,206.57493833516108 L 43.95631686245203,206.7121313694497 L 43.63867168502394,218.4449818310735 L 40.64697956910281,218.59946599010593 L 40.40130431297924,224.56655864904292 L 37.39881914214665,224.4503558729436 L 37.31730052153251,238.72471919058384 L 31.499326069361,239.47633951841422 L 27.671951465302303,245.4342473937479 L 20.690012487925618,246.44150239760754 L 19.53869740744368,241.34929767062343 L 20.805836395352603,233.78886360255666 L 17.109469784149375,227.8994804702105 L 15.217894019781882,226.3580877584768 L 4.0393929395803125,225.88420227067712 L 6.621583857774089,217.95198157685886 z" id="c41011"/>
		<path d="M 205.23885869387698,85.23468131204945 L 239.60044883394846,85.11956245724866 L 239.62043301824508,90.14888927079777 L 245.42841364067488,90.07068807238942 L 246.51487660651003,101.88569945297462 L 246.72193151719856,137.40840323528684 L 234.6937419617628,137.54144932465294 L 234.63892203490113,131.8343621301654 L 228.64849523189878,131.86528291028947 L 228.5841540268535,128.4869630387452 L 210.61896591979578,128.73695148053574 L 210.58303564856382,119.93488630195033 L 209.67385755044776,104.0599706380289 L 211.29958533455965,102.19622493494751 L 207.1952676411235,99.18348315308157 L 205.23885869387698,85.23468131204945 z" id="c41069"/>
		<path d="M 302.19001345813376,109.02659607633379 L 308.96093403438033,106.2215456068152 L 313.58800462176146,105.63724680100796 L 312.8840313838482,97.94066548039567 L 316.1785635638366,97.70561439781487 L 315.2025355307807,91.31396499230883 L 320.62694818229295,85.19238370060363 L 328.5860772408677,88.35380094267924 L 334.5828786727844,83.85399790837907 L 337.94580628932744,88.31286675793787 L 348.36405737648874,87.91222337192518 L 348.181840423493,81.95557293813677 L 362.67660563288115,81.3439251796241 L 386.2135930256628,80.56346527714027 L 386.18751099051093,80.61564494123382 L 383.51935110901906,83.90701483901692 L 382.8464731878397,87.52894352497373 L 384.20097672783163,90.89960766795016 L 382.82660039827186,94.98111317945224 L 381.7444305259131,97.09931170359368 L 379.8214949344603,100.85661193465116 L 375.893165789982,103.11194862601356 L 373.6023717495202,105.25216144457413 L 372.2099199644912,110.48354759576023 L 370.117322119026,117.09491324320989 L 369.0174377402772,119.46677282387822 L 366.24640047841365,122.60885820295651 L 366.9218810848897,126.1785956257914 L 365.64144011063524,128.7203619034803 L 367.01194300807464,130.78827789065744 L 368.3162321420764,132.90808591572696 L 367.426431095368,135.15873918659378 L 353.8373956458532,135.404028254297 L 353.63558600746865,129.42668678775752 L 348.3655880875874,125.66637373975408 L 329.6006195784222,126.32559070505845 L 320.97747120585575,136.51165498699254 L 317.1190068565253,139.60358361937097 L 304.00779454374634,139.9985555156837 L 308.0538398836831,126.31435304467063 L 312.88330379849,116.8187886691373 L 309.37885778304144,112.96554174769051 L 302.998070295711,111.80301120378212 L 302.19001345813376,109.02659607633379 z" id="c41001"/>
		<path d="M 203.78740603774247,62.03688865065289 L 205.19372214465085,57.912756210853196 L 211.5422887634758,55.697140017444944 L 211.86823035135976,53.1496021723052 L 205.5554846498684,41.746354539937975 L 209.63753261288414,41.78941128492265 L 215.51167260746155,40.26317676470197 L 218.95500820731786,39.928985307810024 L 222.2887815880932,36.665175848152174 L 225.71628373710718,35.82252748803443 L 229.1095413063873,33.97615298250021 L 228.99474452046198,72.12429973900961 L 235.0342579395679,72.13862241680857 L 235.0024653674609,78.18072654647682 L 241.0478882654471,78.127709912645 L 241.05398960066512,84.18081042808889 L 239.60044883394846,85.11956245724866 L 205.23885869387698,85.23468131204945 L 204.82073713713433,84.18856105150563 L 207.32886574978554,79.92199115006822 L 203.04411814490356,74.99340792924242 L 203.78740603774247,62.03688865065289 z" id="c41021"/>
		<path d="M 45.23219919860898,71.91239398445094 L 60.840912711981055,72.49367380012876 L 61.30352805930015,57.559568335028786 L 77.26584644129242,58.08472746222061 L 82.2101904475119,60.20033673310397 L 85.09378869649622,64.31653829889403 L 90.00343572447318,66.46330020536432 L 90.7643982815662,70.45506941700523 L 89.65765549088515,70.8326709179772 L 85.04439028699039,68.56645983268939 L 81.38876743949253,72.86091988558279 L 83.33885020290359,80.06303741269508 L 79.74355271221833,82.86060612290996 L 47.78657098070725,81.6608124783401 L 44.870998989749964,81.51790963066395 L 45.23219919860898,71.91239398445094 z" id="c41071"/>
		<path d="M 163.23012805866884,202.78306839459572 L 163.38006835304543,184.9030400884848 L 211.11156712315923,185.15365300571418 L 212.45140653187454,185.4503964290199 L 235.15803074798757,185.3783745902497 L 235.35264644100712,215.0986159424913 L 233.55887824746543,215.11486434802706 L 233.73227996045344,233.12901612552662 L 233.19439416035578,244.86715759058404 L 262.50851874049505,244.39330690711873 L 263.47928174799193,296.2962459734755 L 244.7226447294274,296.3590425079768 L 230.69627487876642,296.58659021871273 L 221.3391593203062,296.6290578881137 L 204.94793390603968,296.71533941217575 L 195.14144175786592,296.7114501539892 L 185.5115886741942,296.6918794687518 L 185.5733990926474,245.06464432163486 L 161.93808649093845,244.7235407610521 L 163.23012805866884,202.78306839459572 z" id="c41037"/>
		<path d="M 33.79502223925548,83.09297006349605 L 35.74987510168899,76.40846909373488 L 36.07534854441256,71.50900884864532 L 36.74355743695289,67.16600219287766 L 36.119415241537126,62.48859782446681 L 37.28491291936227,56.81369665631095 L 36.6790010357499,52.72577029522882 L 38.294665487842515,47.61377105179849 L 38.98227054077639,40.95346229075979 L 39.09343162068535,37.72727581343179 L 37.82732330304568,34.35090799418853 L 38.01165738890755,32.56172297982754 L 49.84373567344313,33.723939761862674 L 67.12074375738592,33.90361599704197 L 66.98260738911635,38.7836677316294 L 61.01787645043779,38.57072218587727 L 63.80672940390821,43.671249494025346 L 69.71918503603203,45.86669077405682 L 61.62446534472402,53.55913383158425 L 61.30352805930015,57.559568335028786 L 60.840912711981055,72.49367380012876 L 45.23219919860898,71.91239398445094 L 44.870998989749964,81.51790963066395 L 47.78657098070725,81.6608124783401 L 47.68794998020436,83.84708516311812 L 33.77253187929873,83.24820760920669 L 33.79502223925548,83.09297006349605 z" id="c41057"/>
		<path d="M 256.3469878871936,26.72774187966029 L 259.59610531877655,26.106598091448237 L 264.73278713076763,24.77146646695633 L 271.037393461104,25.15984215260011 L 274.1144671280178,23.339730714686223 L 277.6291786820813,20.434067763358684 L 277.6338407571541,20.430208634992006 L 292.4772199358002,20.06020630461507 L 295.8891179406493,19.9894561962537 L 307.36070302445603,19.730330994338484 L 325.1580826327955,19.26740984644243 L 326.0849561575359,19.241140791379674 L 326.3292508908425,27.279068250529882 L 326.59948629353914,28.844617410630338 L 326.6918361620595,31.853162413979685 L 323.2227110402797,31.944183071112832 L 322.45095073640834,40.83300172639244 L 319.9990273603798,40.88892124675587 L 320.4613452195613,55.88520111320387 L 316.5154181063712,56.01848379148791 L 316.6009914070164,58.99147554723281 L 305.4185461572697,59.15459789993207 L 305.5545510056383,64.23989041346148 L 292.493314640223,65.19922339458087 L 292.6616951170689,71.2577368381974 L 294.64884991071716,71.20647559881695 L 294.7463508763895,75.39095469644569 L 300.06775736261204,75.2723553652169 L 300.2044902178934,83.26633343378117 L 301.7547420425156,89.07362890780924 L 270.2961339324665,89.67189598752618 L 271.00743683844445,83.69211544102595 L 270.587641778535,53.88707643597852 L 265.59852057800515,53.95322502375415 L 265.494056701815,48.0417976730751 L 256.49851739826136,48.09391905922369 L 256.3469878871936,26.72774187966029 z" id="c41059"/>
		<path d="M 245.42841364067488,90.07068807238942 L 246.81974780029992,90.09256048513527 L 270.2961339324665,89.67189598752618 L 301.7547420425156,89.07362890780924 L 305.843696868383,91.27830491964174 L 309.30551042124387,89.24008699052398 L 315.2025355307807,91.31396499230883 L 316.1785635638366,97.70561439781487 L 312.8840313838482,97.94066548039567 L 313.58800462176146,105.63724680100796 L 308.96093403438033,106.2215456068152 L 302.19001345813376,109.02659607633379 L 302.998070295711,111.80301120378212 L 309.37885778304144,112.96554174769051 L 312.88330379849,116.8187886691373 L 308.0538398836831,126.31435304467063 L 304.00779454374634,139.9985555156837 L 317.1190068565253,139.60358361937097 L 317.36691852638114,142.59603827013856 L 317.748469948602,154.46973109409006 L 299.91518541705085,154.88762667272408 L 288.505966396654,154.61230047251436 L 288.62432835631415,160.60230108753305 L 246.8806390910743,161.35658184845823 L 246.72193151719856,137.40840323528684 L 246.51487660651003,101.88569945297462 L 245.42841364067488,90.07068807238942 z" id="c41023"/>
		<path d="M 77.4020405100574,92.71554717673689 L 80.62842642904243,91.89692966157087 L 79.74355271221833,82.86060612290996 L 83.33885020290359,80.06303741269508 L 81.38876743949253,72.86091988558279 L 85.04439028699039,68.56645983268939 L 89.65765549088515,70.8326709179772 L 90.7643982815662,70.45506941700523 L 96.153468098756,70.62603102816622 L 93.57593006098035,79.55929041151015 L 97.43877348623313,84.45561381418592 L 102.71569715415217,87.30011521726298 L 105.48255118520764,93.04964785564162 L 111.99878364067551,96.74422410042907 L 144.61766242428936,97.35486814907054 L 143.6418926493638,101.18113630882071 L 140.51869468838075,102.58859740255375 L 143.2407910206513,105.85424009148053 L 141.1829036727854,111.22613985065455 L 129.74902725275038,110.87677391381378 L 124.61432354187383,108.06168038818429 L 120.0699600602945,109.85011656912836 L 117.87746343356545,106.4818774236094 L 103.84057431295693,104.65661568028823 L 101.09701088351127,103.1260465627623 L 97.62319978488794,103.98634452560638 L 93.16319497598924,102.56406752630714 L 84.49974356604265,107.35997371454648 L 81.9581255564475,109.64079149194524 L 80.33891697672706,106.09311988504768 L 75.37077195962074,105.16847971957057 L 77.98523557692256,100.76592095591887 L 73.79332390349573,97.63806408264773 L 77.4020405100574,92.71554717673689 z" id="c41047"/>
		<path d="M 69.23065299154396,118.31079275968945 L 73.79393747939383,113.01327284933059 L 78.60698607217171,112.0452778797971 L 75.05433685585908,107.13373223963994 L 75.37077195962074,105.16847971957057 L 80.33891697672706,106.09311988504768 L 81.9581255564475,109.64079149194524 L 84.49974356604265,107.35997371454648 L 93.16319497598924,102.56406752630714 L 97.62319978488794,103.98634452560638 L 101.09701088351127,103.1260465627623 L 103.84057431295693,104.65661568028823 L 117.87746343356545,106.4818774236094 L 120.0699600602945,109.85011656912836 L 124.61432354187383,108.06168038818429 L 129.74902725275038,110.87677391381378 L 141.1829036727854,111.22613985065455 L 141.38831262617154,117.37971899771372 L 138.66958223940128,124.4226114837316 L 138.7452150446786,131.19913402729856 L 138.7157296952212,138.5596965095339 L 139.77353217904272,140.17679994525705 L 129.39648025446317,140.58860216334864 L 114.66217728730201,140.36233265871542 L 111.7686675774323,142.7602003103558 L 102.26758989493634,141.79099866535265 L 98.88448353966686,139.03984043167281 L 93.20014955319742,137.24401258124834 L 88.11928409562492,137.32519815276223 L 86.16008287578747,139.20944883284514 L 85.9579147068333,143.22251131350058 L 73.11109159531951,142.8792046841194 L 72.55525111877098,137.10341927973636 L 69.43927356717705,133.6726168264687 L 71.36058717537338,121.64826813261986 L 69.23065299154396,118.31079275968945 z" id="c41043"/>
		<path d="M 131.81718548139511,183.75463361724533 L 130.79303398995884,181.35210956065276 L 132.12194624681155,174.37050288210926 L 131.58717625792784,167.89220541663104 L 133.98167402067094,164.38309517620775 L 136.88026922479676,164.26070377936463 L 137.58194150490795,160.58575809351413 L 142.0990174341649,151.24587982155472 L 139.77353217904272,140.17679994525705 L 138.7157296952212,138.5596965095339 L 138.7452150446786,131.19913402729856 L 175.03083398259355,131.76141596822137 L 175.1406914738358,149.1322833431751 L 180.86108380995725,149.45149999818267 L 180.8257579126676,161.3641741021165 L 192.66726994103763,161.65977321880044 L 192.6696928451399,167.5739854323841 L 211.03665966822118,167.51694929227384 L 211.07686083031567,173.49649909557704 L 217.0427255190192,173.4926310195318 L 217.09028773754034,179.4445561344364 L 235.07233237883798,179.3925153767642 L 235.15803074798757,185.3783745902497 L 212.45140653187454,185.4503964290199 L 211.11156712315923,185.15365300571418 L 163.38006835304543,184.9030400884848 L 129.93247882250577,184.5155582004007 L 131.81718548139511,183.75463361724533 z" id="c41017"/>
		<path d="M 233.73227996045344,233.12901612552662 L 233.55887824746543,215.11486434802706 L 235.35264644100712,215.0986159424913 L 235.15803074798757,185.3783745902497 L 235.07233237883798,179.3925153767642 L 241.0559508478789,179.3618928949785 L 241.0066371346958,161.40013287370866 L 246.8806390910743,161.35658184845823 L 288.62432835631415,160.60230108753305 L 288.505966396654,154.61230047251436 L 299.91518541705085,154.88762667272408 L 317.748469948602,154.46973109409006 L 318.02856049724113,172.97467669153954 L 320.3942922471776,231.81179293304677 L 321.7007292228056,275.72253668421985 L 322.7070678490835,276.2984208764685 L 323.11267280734256,294.87083689780286 L 307.54402080898035,295.3772589565224 L 293.45040448241645,295.8800305095092 L 281.90006467368426,296.0265892110375 L 271.2693325940212,296.2460970022956 L 265.32306816853287,296.28565247946636 L 263.47928174799193,296.2962459734755 L 262.50851874049505,244.39330690711873 L 233.19439416035578,244.86715759058404 L 233.73227996045344,233.12901612552662 z" id="c41025"/>
		<path d="M 61.01787645043779,38.57072218587727 L 66.98260738911635,38.7836677316294 L 67.12074375738592,33.90361599704197 L 83.05123764367359,34.4456161594057 L 87.8364011601186,38.56151152611949 L 87.66516597123507,44.49337876593871 L 90.55227492202005,47.568433187043944 L 96.39336459534401,52.910464270861 L 96.25602604488601,58.29930440761541 L 96.24626302282492,58.64914967980562 L 96.05859188858622,65.6161130436089 L 90.00343572447318,66.46330020536432 L 85.09378869649622,64.31653829889403 L 82.2101904475119,60.20033673310397 L 77.26584644129242,58.08472746222061 L 61.30352805930015,57.559568335028786 L 61.62446534472402,53.55913383158425 L 69.71918503603203,45.86669077405682 L 63.80672940390821,43.671249494025346 L 61.01787645043779,38.57072218587727 z" id="c41067"/>
		<path d="M 23.538718099611366,160.9185792227283 L 25.498723456558945,147.67416751222498 L 26.44827145084068,138.72030775396874 L 26.406466129633095,135.88672878806787 L 33.931269184702316,136.1235072084746 L 34.98362333735596,135.78296034457068 L 43.156960409747676,136.06985555868874 L 52.141458539750566,136.88346354847445 L 72.55525111877098,137.10341927973636 L 73.11109159531951,142.8792046841194 L 85.9579147068333,143.22251131350058 L 86.16008287578747,139.20944883284514 L 88.11928409562492,137.32519815276223 L 93.20014955319742,137.24401258124834 L 98.88448353966686,139.03984043167281 L 102.26758989493634,141.79099866535265 L 111.7686675774323,142.7602003103558 L 114.66217728730201,140.36233265871542 L 129.39648025446317,140.58860216334864 L 139.77353217904272,140.17679994525705 L 142.0990174341649,151.24587982155472 L 137.58194150490795,160.58575809351413 L 136.88026922479676,164.26070377936463 L 133.98167402067094,164.38309517620775 L 131.58717625792784,167.89220541663104 L 132.12194624681155,174.37050288210926 L 130.79303398995884,181.35210956065276 L 131.81718548139511,183.75463361724533 L 129.93247882250577,184.5155582004007 L 123.42703145454247,188.39840780446528 L 123.21888423792353,196.44707743109996 L 92.66782514134748,195.93479220420278 L 92.85881108215533,188.5603668246172 L 74.553877704389,188.34976769090127 L 73.22007694169379,183.77356492929653 L 73.59099071265548,171.82770912730817 L 63.086035594452774,171.4491333592126 L 63.15625056482346,169.45276630180055 L 57.076427961376524,169.18338793763976 L 51.77737421715692,164.98369778759775 L 49.96179907786921,161.28023894141114 L 45.81019585923966,159.5263152963548 L 39.69292851038271,159.25201751738422 L 33.53668482723345,164.65866982011116 L 22.90323438334553,164.13574521292557 L 23.538718099611366,160.9185792227283 z" id="c41039"/>
		<path d="M 65.64240597780312,274.0169350735392 L 66.11953254927035,259.94075402310455 L 66.57962315918009,245.71410415826668 L 70.6185505834177,242.18184801744385 L 77.82733872273118,242.65802831833767 L 80.8396925049967,241.19043515963375 L 88.76759192141299,241.17792355095236 L 94.9065130030495,234.2658761352691 L 100.88957868140747,231.41729859068607 L 105.97016360436727,230.49485162116574 L 109.04903345445801,226.66151665331003 L 115.01881632846721,226.80198083844547 L 114.15503080843239,262.6887839436821 L 113.94850786423561,265.0376789353086 L 113.21160473197645,294.77307284689743 L 102.37331612368042,294.47990364480745 L 87.0370504758103,294.38792509138966 L 74.46419867135607,294.0944280259076 L 69.31448662867233,293.508320616838 L 64.94533863056074,293.662296379775 L 65.64240597780312,274.0169350735392 z" id="c41029"/>
		<path d="M 90.00343572447318,66.46330020536432 L 96.05859188858622,65.6161130436089 L 96.24626302282492,58.64914967980562 L 98.12120677306949,58.71666210403661 L 100.29955225275324,57.06654019396627 L 107.41344592218508,57.00690499915586 L 139.45570132789808,57.72163496775317 L 141.0662045421888,57.64823797795677 L 146.893664186065,63.7963215393778 L 146.83019010652606,71.76469401828695 L 147.54836230961666,72.40155959072699 L 145.0422586484391,77.74828180609107 L 148.81386645586983,82.5274305560032 L 148.48394869604093,84.97612625815708 L 141.31951710832487,88.55210423200707 L 144.61766242428936,97.35486814907054 L 111.99878364067551,96.74422410042907 L 105.48255118520764,93.04964785564162 L 102.71569715415217,87.30011521726298 L 97.43877348623313,84.45561381418592 L 93.57593006098035,79.55929041151015 L 96.153468098756,70.62603102816622 L 90.7643982815662,70.45506941700523 L 90.00343572447318,66.46330020536432 z" id="c41005"/>
		<path d="M 87.8364011601186,38.56151152611949 L 94.79906901147635,38.794445702864806 L 95.69227658179155,38.28707264537504 L 95.21633930067638,41.59669792506186 L 96.05476743089544,42.86056461614339 L 96.9061764086325,44.142966261345165 L 101.3943100329035,46.6301174821053 L 108.67822001830085,48.63256400370175 L 111.23715999621314,50.04930628776805 L 114.0789913830457,49.26303781860864 L 116.39666912469525,51.22232807702759 L 119.72268225400786,51.563702529936506 L 120.38043207842372,51.186426118139465 L 123.5871829591767,49.344505178528976 L 127.5604539401913,49.021594179731395 L 132.33766065065487,46.87764936496347 L 134.87777352267267,44.92361968534688 L 136.2453494102789,44.299760966275706 L 136.91902647458127,53.47942893118103 L 141.0662045421888,57.64823797795677 L 139.45570132789808,57.72163496775317 L 107.41344592218508,57.00690499915586 L 100.29955225275324,57.06654019396627 L 98.12120677306949,58.71666210403661 L 96.24626302282492,58.64914967980562 L 96.25602604488601,58.29930440761541 L 96.39336459534401,52.910464270861 L 90.55227492202005,47.568433187043944 L 87.66516597123507,44.49337876593871 L 87.8364011601186,38.56151152611949 z" id="c41051"/>
		<path d="M 229.1095413063873,33.97615298250021 L 230.7300834055721,33.092746696456125 L 235.42228780879705,32.10528415017309 L 238.57025195714814,31.43946700411514 L 244.9551010087933,30.73807664611235 L 248.24521433779935,26.38395093383127 L 249.6332070535644,25.96407805038789 L 253.67519680927262,27.23640970306717 L 256.3469878871936,26.72774187966029 L 256.49851739826136,48.09391905922369 L 265.494056701815,48.0417976730751 L 265.59852057800515,53.95322502375415 L 270.587641778535,53.88707643597852 L 271.00743683844445,83.69211544102595 L 270.2961339324665,89.67189598752618 L 246.81974780029992,90.09256048513527 L 245.42841364067488,90.07068807238942 L 239.62043301824508,90.14888927079777 L 239.60044883394846,85.11956245724866 L 241.05398960066512,84.18081042808889 L 241.0478882654471,78.127709912645 L 235.0024653674609,78.18072654647682 L 235.0342579395679,72.13862241680857 L 228.99474452046198,72.12429973900961 L 229.1095413063873,33.97615298250021 z" id="c41049"/>
		<path d="M 20.772163019965276,174.89521152177895 L 22.90323438334553,164.13574521292557 L 33.53668482723345,164.65866982011116 L 39.69292851038271,159.25201751738422 L 45.81019585923966,159.5263152963548 L 49.96179907786921,161.28023894141114 L 51.77737421715692,164.98369778759775 L 57.076427961376524,169.18338793763976 L 63.15625056482346,169.45276630180055 L 63.086035594452774,171.4491333592126 L 73.59099071265548,171.82770912730817 L 73.22007694169379,183.77356492929653 L 74.553877704389,188.34976769090127 L 92.85881108215533,188.5603668246172 L 92.66782514134748,195.93479220420278 L 123.21888423792353,196.44707743109996 L 129.19484706727147,203.12999794745622 L 130.911275085617,208.8699514027958 L 127.5619801339324,212.0831543879678 L 124.65949637484333,221.51027704568932 L 115.13037685674732,221.90544442699792 L 115.01881632846721,226.80198083844547 L 109.04903345445801,226.66151665331003 L 105.97016360436727,230.49485162116574 L 100.88957868140747,231.41729859068607 L 94.9065130030495,234.2658761352691 L 88.76759192141299,241.17792355095236 L 80.8396925049967,241.19043515963375 L 77.82733872273118,242.65802831833767 L 70.6185505834177,242.18184801744385 L 66.57962315918009,245.71410415826668 L 64.38247359685785,243.6176278693074 L 55.639550354260784,245.3147359141626 L 48.827098024871425,242.53064646148692 L 41.997938344029585,242.29176365662445 L 42.11584425551604,239.24052201500413 L 38.775536220260136,238.05341087101402 L 37.31730052153251,238.72471919058384 L 37.39881914214665,224.4503558729436 L 40.40130431297924,224.56655864904292 L 40.64697956910281,218.59946599010593 L 43.63867168502394,218.4449818310735 L 43.95631686245203,206.7121313694497 L 40.96341521927648,206.57493833516108 L 41.545240487362605,195.2936176815984 L 38.76039114671057,194.5638924602452 L 39.040167056204844,188.71457603856652 L 36.08950288779908,188.63117298753957 L 36.34225893476443,182.27699627580222 L 19.205393088993684,181.37687456386428 L 20.772163019965276,174.89521152177895 z" id="c41019"/>
		<path d="M 292.493314640223,65.19922339458087 L 305.5545510056383,64.23989041346148 L 305.4185461572697,59.15459789993207 L 316.6009914070164,58.99147554723281 L 316.5154181063712,56.01848379148791 L 320.4613452195613,55.88520111320387 L 319.9990273603798,40.88892124675587 L 322.45095073640834,40.83300172639244 L 323.2227110402797,31.944183071112832 L 326.6918361620595,31.853162413979685 L 326.59948629353914,28.844617410630338 L 337.45276694590257,28.469520786698396 L 337.63514528887436,34.48994878181853 L 335.6726303367912,34.561571990994935 L 335.8970405051087,40.33901212797585 L 338.9761341099247,45.238979374760945 L 339.20863699572834,52.27345583158399 L 342.64510440885607,62.425399911575816 L 346.64253770082735,64.1930006847946 L 349.73088566234213,68.93156591956715 L 349.9363432926201,72.91705801590365 L 352.19595797137646,75.81379993791046 L 362.448095671012,75.430621349154 L 362.67660563288115,81.3439251796241 L 348.181840423493,81.95557293813677 L 348.36405737648874,87.91222337192518 L 337.94580628932744,88.31286675793787 L 334.5828786727844,83.85399790837907 L 328.5860772408677,88.35380094267924 L 320.62694818229295,85.19238370060363 L 315.2025355307807,91.31396499230883 L 309.30551042124387,89.24008699052398 L 305.843696868383,91.27830491964174 L 301.7547420425156,89.07362890780924 L 300.2044902178934,83.26633343378117 L 300.06775736261204,75.2723553652169 L 294.7463508763895,75.39095469644569 L 294.64884991071716,71.20647559881695 L 292.6616951170689,71.2577368381974 L 292.493314640223,65.19922339458087 z" id="c41061"/>
		<path d="M 37.78278417515557,1.3695096010776773 L 41.71789584831839,5.385519672721719 L 45.27303443064137,4.648884951802528 L 49.21197798390391,3.3704217576213837 L 51.033656680106844,5.0966940885178795 L 53.84389615141302,3.32078930108402 L 57.44416455603949,2.6029777886214873 L 59.36267373069024,0.5732266480274004 L 62.63612192630061,0.0 L 65.02454953881335,2.8274114117425286 L 64.75617926678053,6.094521742901893 L 67.51438170161047,8.634534596778096 L 67.88207082451825,8.656009630490187 L 67.12074375738592,33.90361599704197 L 49.84373567344313,33.723939761862674 L 38.01165738890755,32.56172297982754 L 38.393345922567754,28.853843842372722 L 38.30218731190955,23.975545675073963 L 37.16045699167908,21.26512860180428 L 39.94766639820741,19.251790032000788 L 40.52073790558448,14.816194393917844 L 39.37300241004538,7.894262115015922 L 35.61513015457535,3.875349902700482 L 37.78278417515557,1.3695096010776773 z" id="c41007"/>
		<path d="M 113.21160473197645,294.77307284689743 L 113.94850786423561,265.0376789353086 L 114.15503080843239,262.6887839436821 L 115.01881632846721,226.80198083844547 L 115.13037685674732,221.90544442699792 L 124.65949637484333,221.51027704568932 L 127.5619801339324,212.0831543879678 L 130.911275085617,208.8699514027958 L 129.19484706727147,203.12999794745622 L 123.21888423792353,196.44707743109996 L 123.42703145454247,188.39840780446528 L 129.93247882250577,184.5155582004007 L 163.38006835304543,184.9030400884848 L 163.23012805866884,202.78306839459572 L 161.93808649093845,244.7235407610521 L 185.5733990926474,245.06464432163486 L 185.5115886741942,296.6918794687518 L 177.5458882211837,296.6593794866044 L 166.4723281951297,296.2822561184106 L 156.80193443747055,296.2183390443426 L 156.39523815306026,296.2061890099576 L 144.71273514125477,295.8407115518023 L 135.92625255549083,295.5213882889591 L 122.84085266119722,295.1055691270099 L 113.22299260882143,294.77336648478564 L 113.21160473197645,294.77307284689743 z" id="c41035"/>
		<path d="M 138.66958223940128,124.4226114837316 L 141.38831262617154,117.37971899771372 L 141.1829036727854,111.22613985065455 L 143.2407910206513,105.85424009148053 L 140.51869468838075,102.58859740255375 L 143.6418926493638,101.18113630882071 L 145.00494022856395,101.50414734995522 L 176.13105070789547,101.99601007821343 L 211.29958533455965,102.19622493494751 L 209.67385755044776,104.0599706380289 L 210.58303564856382,119.93488630195033 L 188.88949201653622,119.99082586483905 L 188.89858543680884,125.92853927580121 L 180.92166176188033,125.89072247744187 L 180.90918745635764,131.82292724161704 L 175.03083398259355,131.76141596822137 L 138.7452150446786,131.19913402729856 L 138.66958223940128,124.4226114837316 z" id="c41031"/>
		<path d="M 317.1190068565253,139.60358361937097 L 320.97747120585575,136.51165498699254 L 329.6006195784222,126.32559070505845 L 348.3655880875874,125.66637373975408 L 353.63558600746865,129.42668678775752 L 353.8373956458532,135.404028254297 L 367.426431095368,135.15873918659378 L 367.2024494285794,135.72481978689603 L 369.5857020218337,137.65952197699156 L 371.9696257306969,136.27678772861898 L 375.1299948870059,138.92568657048267 L 379.4533176057629,138.85360702058532 L 379.89316061779124,141.69611946982633 L 383.03930048238635,142.57145543343006 L 383.45117974645416,144.28702045889915 L 383.36080886485803,144.4030521952841 L 379.6216329101522,149.19629003624183 L 381.7674946230064,152.96035383237285 L 380.7853945951068,156.20021644960636 L 380.23663721636893,162.23912672221456 L 379.8049187869198,163.24612957283568 L 378.07814799135053,167.26812267907124 L 378.38372077432354,177.13536733899176 L 378.56288764875706,182.92832170639252 L 380.2026590157706,222.15730972867073 L 380.8435207469667,237.11333456586183 L 382.05136077088076,266.58256617684435 L 383.1492425022055,292.6002572030217 L 374.3524081262288,292.92260056730356 L 363.805163355881,293.4007337054682 L 352.52266701194077,293.8598575248349 L 339.71873444449875,294.2897449671547 L 323.1219126384964,294.8705195623074 L 323.11267280734256,294.87083689780286 L 322.7070678490835,276.2984208764685 L 321.7007292228056,275.72253668421985 L 320.3942922471776,231.81179293304677 L 318.02856049724113,172.97467669153954 L 317.748469948602,154.46973109409006 L 317.36691852638114,142.59603827013856 L 317.1190068565253,139.60358361937097 z" id="c41045"/>
		<path d="M 136.2453494102789,44.299760966275706 L 137.3595657590133,43.79098943927485 L 139.02140832275708,41.66477988853798 L 141.7317487555127,40.77936345482207 L 145.39523825833447,41.71132908524136 L 148.62667872333452,40.99709212094862 L 155.1709634481411,39.60508016268715 L 155.6075967956721,39.79673945360936 L 159.60691855344498,41.54917812163012 L 157.46071525625206,53.884384137002 L 157.26320214959452,71.8860680077874 L 146.83019010652606,71.76469401828695 L 146.893664186065,63.7963215393778 L 141.0662045421888,57.64823797795677 L 136.91902647458127,53.47942893118103 L 136.2453494102789,44.299760966275706 z" id="c41027"/>
		<path d="M 0.0,233.52212302993544 L 3.9768827825277517,226.07588992458503 L 4.0393929395803125,225.88420227067712 L 15.217894019781882,226.3580877584768 L 17.109469784149375,227.8994804702105 L 20.805836395352603,233.78886360255666 L 19.53869740744368,241.34929767062343 L 20.690012487925618,246.44150239760754 L 27.671951465302303,245.4342473937479 L 31.499326069361,239.47633951841422 L 37.31730052153251,238.72471919058384 L 38.775536220260136,238.05341087101402 L 42.11584425551604,239.24052201500413 L 35.89168378331869,249.44048840015685 L 32.51145552210707,258.373966156444 L 26.513112859534655,258.41486501002134 L 24.4893971151398,265.81108759834217 L 32.211443846941656,268.61056330374515 L 36.80702432649532,276.64012446637304 L 33.136482257139384,283.54923416133863 L 34.86889759180314,286.8940304625473 L 34.623451158988004,293.20940892061606 L 25.44198360776975,292.7990307557547 L 14.66452184126001,292.1753528557277 L 11.793902783074207,288.8051552998994 L 9.61959186272727,287.17070565111516 L 7.908846586490209,282.82879749235366 L 7.585876622640485,279.30595660500876 L 6.577862191753761,276.0644444491207 L 5.256622927440608,274.3928649076435 L 5.460959918170024,270.48629005204975 L 4.8394312053052735,267.3975569003473 L 4.637965224439875,261.30991146559984 L 6.790989204144461,254.54252699234726 L 6.881262679858351,250.5820870668931 L 6.45610082971417,246.40302481018298 L 4.606599477227362,245.08629982986196 L 4.770026063811659,244.12254634070766 L 1.7961591422310936,240.89429761727573 L 0.0,233.52212302993544 z" id="c41015"/>
		<path d="M 26.396038829034023,135.1775500524756 L 28.296824355716616,126.36722904891039 L 28.58792480384329,120.49068661200455 L 29.887384013013722,111.49775019633493 L 30.172892732522165,106.64226052781906 L 29.928915478554856,100.09312621223687 L 30.572028637012735,97.55632472121121 L 32.827264098155524,89.76498607685689 L 33.77253187929873,83.24820760920669 L 47.68794998020436,83.84708516311812 L 46.862304595288755,104.84866323321775 L 47.82161200093652,106.11766943504495 L 52.815488819582406,106.30580385122511 L 52.324352847965045,126.12142173289894 L 46.29541008160662,125.87566265562744 L 46.32614317920197,130.89732969170166 L 41.22232373578284,133.80721393736064 L 43.156960409747676,136.06985555868874 L 34.98362333735596,135.78296034457068 L 33.931269184702316,136.1235072084746 L 26.406466129633095,135.88672878806787 L 26.396038829034023,135.1775500524756 z" id="c41041"/>
		<path d="M 67.88207082451825,8.656009630490187 L 71.87925014660574,8.887279773185245 L 75.17706021259058,7.185557429206505 L 77.42098710345384,6.0252364166536 L 79.82900812778111,6.356623171313331 L 85.06497683467099,10.063089690298419 L 86.99573142330527,12.11974535835296 L 89.7594393027225,13.653257520809747 L 91.92363775740114,18.488685073871274 L 93.84470970556029,22.228276140246574 L 93.87245170789673,25.554695387057098 L 95.0607900204248,28.690009547336008 L 94.88217200876277,29.83528802579359 L 94.44299306299317,32.648870574602896 L 95.9929599290907,36.193781120962285 L 95.69227658179155,38.28707264537504 L 94.79906901147635,38.794445702864806 L 87.8364011601186,38.56151152611949 L 83.05123764367359,34.4456161594057 L 67.12074375738592,33.90361599704197 L 67.88207082451825,8.656009630490187 z" id="c41009"/>
		<path d="M 141.31951710832487,88.55210423200707 L 148.48394869604093,84.97612625815708 L 148.81386645586983,82.5274305560032 L 145.0422586484391,77.74828180609107 L 147.54836230961666,72.40155959072699 L 146.83019010652606,71.76469401828695 L 157.26320214959452,71.8860680077874 L 157.46071525625206,53.884384137002 L 159.60691855344498,41.54917812163012 L 160.4284157793039,41.90846362383813 L 164.57775848273835,41.19731146704797 L 170.4442069643017,43.573475224020136 L 171.94973586817127,48.048522595175356 L 174.93398357354175,47.40888551070822 L 176.75024752889027,45.23020319019035 L 183.5615344810732,44.683084454950155 L 185.00950543106774,45.26755337356118 L 185.24382853575557,51.45445228503763 L 189.20247403762934,54.45091640623758 L 187.12586457167018,62.28022976626503 L 182.82826802613175,68.51065048959455 L 179.95019862960166,68.71404934329891 L 179.5045190850379,74.7986506407579 L 186.05393590920582,75.96480998191629 L 194.10919585336703,80.90892416352375 L 193.79706489784724,84.15570797782082 L 204.82073713713433,84.18856105150563 L 205.23885869387698,85.23468131204945 L 207.1952676411235,99.18348315308157 L 211.29958533455965,102.19622493494751 L 176.13105070789547,101.99601007821343 L 145.00494022856395,101.50414734995522 L 143.6418926493638,101.18113630882071 L 144.61766242428936,97.35486814907054 L 141.31951710832487,88.55210423200707 z" id="c41065"/>
		<path d="M 179.95019862960166,68.71404934329891 L 182.82826802613175,68.51065048959455 L 187.12586457167018,62.28022976626503 L 189.20247403762934,54.45091640623758 L 185.24382853575557,51.45445228503763 L 185.00950543106774,45.26755337356118 L 185.89463088679545,45.624491199852876 L 187.83039068521725,43.663551671356636 L 195.86663519237416,40.6386266551973 L 198.49458261559107,38.57754954554164 L 200.60677843370635,38.532189991367346 L 204.71983993804122,41.73703177414351 L 205.5554846498684,41.746354539937975 L 211.86823035135976,53.1496021723052 L 211.5422887634758,55.697140017444944 L 205.19372214465085,57.912756210853196 L 203.78740603774247,62.03688865065289 L 203.04411814490356,74.99340792924242 L 207.32886574978554,79.92199115006822 L 204.82073713713433,84.18856105150563 L 193.79706489784724,84.15570797782082 L 194.10919585336703,80.90892416352375 L 186.05393590920582,75.96480998191629 L 179.5045190850379,74.7986506407579 L 179.95019862960166,68.71404934329891 z" id="c41055"/>
		<path d="M 326.0849561575359,19.241140791379674 L 338.5529306824265,18.866984060530775 L 344.046163821758,18.756896590731067 L 349.9743958625971,18.62966554004664 L 356.0235618460412,18.49082201657419 L 377.0366406731671,17.710580664876673 L 378.54412279096766,20.18295434404609 L 379.9961475148948,23.660859660243894 L 383.0780633246177,27.401881134539988 L 383.67302559692246,28.123020076129023 L 386.1813772425672,28.977976071960814 L 389.73244117854375,31.86296206844011 L 393.2259272673799,31.939734588121723 L 396.1290561447212,34.85837440871712 L 396.6590615373749,38.470797797734924 L 400.0,42.839827772625476 L 398.26681405108246,46.31339394910245 L 394.536606031183,55.01601494073091 L 390.75497220626306,64.05285720822263 L 390.1075392007718,67.20828713037129 L 389.9030953385658,68.20341413648731 L 387.4898456709015,78.0082032850218 L 386.2135930256628,80.56346527714027 L 362.67660563288115,81.3439251796241 L 362.448095671012,75.430621349154 L 352.19595797137646,75.81379993791046 L 349.9363432926201,72.91705801590365 L 349.73088566234213,68.93156591956715 L 346.64253770082735,64.1930006847946 L 342.64510440885607,62.425399911575816 L 339.20863699572834,52.27345583158399 L 338.9761341099247,45.238979374760945 L 335.8970405051087,40.33901212797585 L 335.6726303367912,34.561571990994935 L 337.63514528887436,34.48994878181853 L 337.45276694590257,28.469520786698396 L 326.59948629353914,28.844617410630338 L 326.3292508908425,27.279068250529882 L 326.0849561575359,19.241140791379674 z" id="c41063"/>
	</g>
</svg>