<?xml version="1.0" encoding="UTF-8"?>
<svg baseProfile="full" fill="#d0d0d0" height="230.1454784257405" stroke="#ffffff" stroke-width="1" version="1.1" width="400.0" xmlns="http://www.w3.org/2000/svg" xmlns:ev="http://www.w3.org/2001/xml-events" xmlns:xlink="http://www.w3.org/1999/xlink">
	<defs/>
	<g id="counties"><path d="M 265.09637764487877,162.08645445375595 L 274.7618845558932,154.74843933875962 L 281.35271772742135,159.96312458610194 L 297.62423833905603,171.83176947280845 L 301.4212513193465,175.77162566699153 L 290.7807472388002,181.4162305960088 L 273.0780065345192,186.91794331579484 L 265.09637764487877,162.08645445375595 z" id="c42075"/>
		<path d="M 340.3731417779738,214.5637395146532 L 353.3500877536672,200.48705972112276 L 356.2429182610876,196.99159802902977 L 357.073103998172,198.10256029392852 L 359.773875652408,200.9967974010476 L 362.2896822297035,204.7701050750915 L 365.25970556494235,208.22924621478577 L 363.50527927439447,213.74067308360506 L 367.07556275670436,214.53975493787678 L 366.41066850830293,215.04367829385487 L 361.44450882369557,216.28987151169252 L 358.1084620043712,216.62394206085415 L 353.45892700261754,220.46288315102782 L 353.1495824578463,220.71799949936567 L 348.5142387826546,218.39295034730762 L 342.32635757921975,217.6525345859847 L 340.6861721213648,218.1044435984658 L 340.3731417779738,214.5637395146532 z" id="c42045"/>
		<path d="M 294.2964867311339,68.7090282339155 L 294.78836205562186,65.9960942007779 L 296.1122075025612,56.41560698022512 L 301.6770374844312,55.95616049244511 L 302.87669595534385,56.61511132396885 L 328.2834521719962,56.26186533365389 L 325.0429495998975,68.57229856182516 L 320.97888921250245,75.71524444979754 L 310.635610304877,79.32944371904318 L 308.17497053439763,79.87936038097152 L 290.79171606474654,80.84390430278474 L 294.2964867311339,68.7090282339155 z" id="c42131"/>
		<path d="M 3.9792311341527036,100.52754176568612 L 4.278604978871088,91.6392341790494 L 4.555166697774815,82.59043217417747 L 4.981285078071428,68.64972517271896 L 31.51019148465759,70.19585230960077 L 39.99659158808032,69.55196613185855 L 39.26969297302019,98.07898511221303 L 33.49408210421434,105.71814309699164 L 32.35607208938107,106.94197898210888 L 29.135659296048086,103.01030751701353 L 21.671863493252932,101.52477242396947 L 3.954194059850171,101.27080058163297 L 3.9792311341527036,100.52754176568612 z" id="c42085"/>
		<path d="M 246.52239444763794,162.79267879677303 L 243.5021207177955,153.9569469587515 L 246.39189122340647,148.5258872309761 L 248.47167647617573,150.7141655480895 L 263.2865421488806,145.66625555163728 L 274.7618845558932,154.74843933875962 L 265.09637764487877,162.08645445375595 L 273.0780065345192,186.91794331579484 L 265.4444632084582,191.311199495333 L 264.0929679864614,190.64530343914882 L 262.48295450290885,193.91648973272072 L 260.288617294748,188.94454206285556 L 252.9300269796924,184.49307728014116 L 248.40178633976572,178.90297618893388 L 248.9988426065101,175.37205858845527 L 241.7094239391846,172.0522621998979 L 246.52239444763794,162.79267879677303 z" id="c42043"/>
		<path d="M 247.04371157467455,147.6040011435378 L 252.15496692534853,141.42927561390417 L 253.0418369280221,132.24554695857734 L 256.33709795272335,125.66637287039403 L 251.20998101402603,119.78740303491735 L 252.2107383385546,108.57371276070117 L 249.58989119051014,102.6814705714098 L 250.4063058778505,101.028410631333 L 260.63573437174296,99.60762518517434 L 260.56774802894165,106.7746410085525 L 256.7144549684988,119.65454518083521 L 265.6939579535478,117.84609245997946 L 272.82045299217276,120.38867648614914 L 273.24260956498887,125.3341480288642 L 274.8604009676954,125.39188101144447 L 276.75194932725947,130.53957639740403 L 282.9815956556043,129.65846961642254 L 285.0723024282545,134.83778845322755 L 272.7306416381855,140.99105601541967 L 264.2587699671878,144.98040881827956 L 263.2865421488806,145.66625555163728 L 248.47167647617573,150.7141655480895 L 246.39189122340647,148.5258872309761 L 247.04371157467455,147.6040011435378 z" id="c42097"/>
		<path d="M 161.14535996500533,25.743259633278445 L 172.88509790883694,25.76298855743475 L 186.2121145734306,25.870331667877316 L 191.7063425519043,25.85211726397041 L 201.0693515345137,25.809307715694366 L 201.85817440904947,66.79192320497424 L 201.9454246627131,72.50466137543468 L 175.56717538476747,72.82831411178998 L 171.43597455785599,72.75829038148215 L 161.18278705917112,59.9156960076459 L 161.14535996500533,25.743259633278445 z" id="c42105"/>
		<path d="M 254.7459631524858,62.18235181761664 L 294.78836205562186,65.9960942007779 L 294.2964867311339,68.7090282339155 L 290.79171606474654,80.84390430278474 L 289.06275279115187,86.8208361108238 L 282.4525924712809,87.08470421688573 L 279.81413266464233,90.06512600339721 L 269.97559937212725,87.62776799949629 L 259.25845285939744,78.67837718634311 L 254.7459631524858,62.18235181761664 z" id="c42113"/>
		<path d="M 201.0693515345137,25.809307715694366 L 241.37988290849907,25.455576177330773 L 244.1841772821652,25.437133023219577 L 246.78611551315427,25.418830507452746 L 250.63365419776716,61.6069493955891 L 244.89563587039044,65.7335073357397 L 201.85817440904947,66.79192320497424 L 201.0693515345137,25.809307715694366 z" id="c42117"/>
		<path d="M 148.05235637857552,229.79864887871707 L 153.75020696053332,220.62033424054044 L 161.9728696334082,199.73796206237765 L 160.23841518338358,197.27802976575305 L 165.2294997692336,190.23095398898118 L 179.61516060186958,195.75942908656842 L 183.81470697315575,199.56852584045242 L 179.91443393545507,205.04177230321991 L 174.23325214036348,220.61477734603338 L 167.54145694715788,229.92805859200226 L 150.67508809565257,229.82094765031096 L 150.65843684541034,229.82080962857623 L 148.05235637857552,229.79864887871707 z" id="c42057"/>
		<path d="M 201.00596784670654,187.28538156184635 L 218.46267795624104,176.87574401453773 L 214.31201446527191,182.15618302765424 L 229.14263678978594,179.24248114766326 L 244.94776985011703,177.03671480936745 L 248.9988426065101,175.37205858845527 L 248.40178633976572,178.90297618893388 L 252.9300269796924,184.49307728014116 L 249.8379611558839,184.72235365759346 L 248.55475855567883,188.95060023266686 L 241.32177055721473,191.6401139546198 L 233.8957572645916,198.67625498593395 L 231.11283115032023,201.67064225662588 L 215.58793509337266,205.54175495166322 L 210.9490892717564,210.07690459906647 L 212.11204738434478,207.53094147080574 L 206.68916866461387,200.7044711228229 L 201.00596784670654,187.28538156184635 z" id="c42041"/>
		<path d="M 324.21405090920325,140.20367033033438 L 327.5671563650827,137.62473210934866 L 331.7945574807569,134.41913894618105 L 337.6017683480523,132.72841001928987 L 346.59270195847546,144.31127733637084 L 353.0748765706549,146.20646498957305 L 352.0304033686327,150.85938035742456 L 356.9834989105919,154.68102681439106 L 351.88812905590987,159.2197819788214 L 346.96188586713765,165.58468557679296 L 343.77121279268766,163.10569472305679 L 318.56238155046077,143.0357546462037 L 324.21405090920325,140.20367033033438 z" id="c42077"/>
		<path d="M 113.50140181268091,39.49781968255769 L 113.4824974139382,25.303269133098183 L 135.04429708345972,25.479902566881766 L 154.3512099514768,25.705766014241565 L 156.82217838789683,25.730119223187405 L 161.14535996500533,25.743259633278445 L 161.18278705917112,59.9156960076459 L 147.15601924425368,59.93485401987188 L 146.65409884384212,61.25573605454356 L 142.34651549853078,58.735973931341974 L 110.53364582219592,58.92797732126493 L 113.50140181268091,39.49781968255769 z" id="c42083"/>
		<path d="M 210.9490892717564,210.07690459906647 L 215.58793509337266,205.54175495166322 L 231.11283115032023,201.67064225662588 L 233.8957572645916,198.67625498593395 L 242.11849721658092,203.63434202724562 L 245.7965104914456,210.66382484409283 L 246.63753660568742,217.6803259394264 L 243.52155659835512,220.00561017982054 L 243.6749680700541,229.9699361672301 L 228.6023146904811,230.06607253628053 L 227.01502669344165,230.0740339678703 L 211.83958986481568,230.14319161863693 L 210.9490892717564,210.07690459906647 z" id="c42001"/>
		<path d="M 246.78611551315427,25.418830507452746 L 271.4603709309076,25.188319660852464 L 271.4934245398397,25.188437236325694 L 277.1552720296534,25.205848643513722 L 277.88320557517136,25.20769360821895 L 299.07022482087604,24.866769470669883 L 301.6770374844312,55.95616049244511 L 296.1122075025612,56.41560698022512 L 294.78836205562186,65.9960942007779 L 254.7459631524858,62.18235181761664 L 250.63365419776716,61.6069493955891 L 246.78611551315427,25.418830507452746 z" id="c42015"/>
		<path d="M 305.7554823935278,228.7714075994805 L 313.1690780682312,215.65474550472726 L 312.81372276056555,208.15478564487935 L 316.7106405604827,200.45046907088286 L 316.0878903827342,194.0246318974998 L 320.82661739923816,191.42914178215048 L 332.75701037536805,181.76930771739794 L 342.14595521592344,184.41790052841156 L 344.70159454686154,189.84305645734295 L 356.2429182610876,196.99159802902977 L 353.3500877536672,200.48705972112276 L 340.3731417779738,214.5637395146532 L 340.6861721213648,218.1044435984658 L 335.97876097898563,219.39863969292117 L 332.2919460238066,222.0943251878303 L 329.86066835717554,225.22899955075644 L 328.5102723202762,228.46885833262164 L 327.48518278027325,228.49180510182975 L 303.4598250336654,229.01695189137976 L 305.7554823935278,228.7714075994805 z" id="c42029"/>
		<path d="M 266.8812758882943,100.9962436850341 L 270.1427871173835,100.77080180611532 L 279.81413266464233,90.06512600339721 L 282.4525924712809,87.08470421688573 L 289.06275279115187,86.8208361108238 L 288.595629545043,95.98667757509993 L 291.5264517232148,102.78074485158243 L 294.81521627960586,102.1274922826048 L 296.54426112757363,119.02374250571621 L 291.4231213713625,125.04363047416729 L 290.0078930550161,132.400845955701 L 285.0723024282545,134.83778845322755 L 282.9815956556043,129.65846961642254 L 276.75194932725947,130.53957639740403 L 274.8604009676954,125.39188101144447 L 275.66059627785614,118.53972998488862 L 271.8052479344508,110.07621074354597 L 268.46405717420424,109.2232975610482 L 266.8812758882943,100.9962436850341 z" id="c42037"/>
		<path d="M 0.8445650723582488,200.62975019399917 L 1.2496964738909204,187.79192376368204 L 1.7655809287967508,171.44407135281512 L 1.927952728059238,166.28769415011288 L 2.147276676461819,159.3226548461124 L 12.970327038044452,159.63665047342812 L 24.83388791344404,173.00809790234203 L 43.05109348410801,180.63234948420524 L 40.08412458488226,184.05085750228156 L 45.92353564556876,185.64383975356296 L 43.47126156319885,189.45730657572008 L 45.30364942275182,191.9625295420821 L 47.86797555890212,195.26940584821182 L 45.132580234563044,200.02668548588912 L 36.67679684004522,204.6155623238659 L 15.857234270015056,200.70997570185406 L 0.6893791844247944,205.48746514008707 L 0.8445650723582488,200.62975019399917 z" id="c42125"/>
		<path d="M 260.56774802894165,106.7746410085525 L 260.63573437174296,99.60762518517434 L 264.3069820053557,101.1666769276102 L 266.8812758882943,100.9962436850341 L 268.46405717420424,109.2232975610482 L 271.8052479344508,110.07621074354597 L 275.66059627785614,118.53972998488862 L 274.8604009676954,125.39188101144447 L 273.24260956498887,125.3341480288642 L 272.82045299217276,120.38867648614914 L 265.6939579535478,117.84609245997946 L 256.7144549684988,119.65454518083521 L 260.56774802894165,106.7746410085525 z" id="c42093"/>
		<path d="M 3.294598700840203,120.84713623587805 L 3.5384112400325263,113.61198643756323 L 3.954194059850171,101.27080058163297 L 21.671863493252932,101.52477242396947 L 29.135659296048086,103.01030751701353 L 32.35607208938107,106.94197898210888 L 27.558880563702694,113.10323542946205 L 27.741620242243123,126.18984123646666 L 3.1516774946329003,125.80593003586617 L 3.2782267207694225,121.41514127515383 L 3.294598700840203,120.84713623587805 z" id="c42073"/>
		<path d="M 0.6893791844247944,205.48746514008707 L 15.857234270015056,200.70997570185406 L 36.67679684004522,204.6155623238659 L 41.690068939799296,210.28125081659334 L 41.75354068820215,228.26324515890192 L 30.685162019263036,227.95531424841428 L 6.777967585723088,227.29314727506 L 0.0,227.06509561630023 L 0.6893791844247944,205.48746514008707 z" id="c42059"/>
		<path d="M 299.07022482087604,24.866769470669883 L 301.72517100372704,24.818690650818596 L 317.4595749237964,24.507452022315036 L 338.7047909012835,23.97512511451475 L 343.3850809240287,23.847578171003672 L 345.6038098259036,55.899022408261054 L 328.2834521719962,56.26186533365389 L 302.87669595534385,56.61511132396885 L 301.6770374844312,55.95616049244511 L 299.07022482087604,24.866769470669883 z" id="c42115"/>
		<path d="M 59.06588238180278,143.58639917346105 L 60.20440983432726,98.68072061931942 L 64.57014691066797,116.3125061300055 L 87.4397321357026,113.69267162517345 L 92.24056442926926,110.07738019992598 L 92.5186243025485,111.70475720261688 L 92.02699153615795,122.55503157579427 L 91.83076663522414,134.68815083827715 L 75.39455467480934,156.44225659960213 L 60.76400314365214,142.69932631801643 L 59.08927013753575,143.58798998351 L 59.06588238180278,143.58639917346105 z" id="c42005"/>
		<path d="M 325.0429495998975,68.57229856182516 L 328.2834521719962,56.26186533365389 L 345.6038098259036,55.899022408261054 L 347.96620797606647,90.24137499246537 L 343.63062229975543,92.64850354909805 L 341.1152887888486,93.47335244791793 L 337.3474246598149,99.17774835544638 L 335.0276941820414,98.42903884662823 L 331.11402440651983,83.38396626578717 L 320.97888921250245,75.71524444979754 L 325.0429495998975,68.57229856182516 z" id="c42069"/>
		<path d="M 289.06275279115187,86.8208361108238 L 290.79171606474654,80.84390430278474 L 308.17497053439763,79.87936038097152 L 310.635610304877,79.32944371904318 L 320.97888921250245,75.71524444979754 L 331.11402440651983,83.38396626578717 L 335.0276941820414,98.42903884662823 L 337.3474246598149,99.17774835544638 L 334.1177606031349,102.76759375781147 L 331.0487729346683,102.094043588998 L 326.0896013062126,109.42259760942677 L 328.77268221932076,113.12899043874675 L 311.68124922775354,121.63729688651242 L 310.9170302265781,122.05198183065342 L 308.8413760624942,123.07928185616953 L 296.54426112757363,119.02374250571621 L 294.81521627960586,102.1274922826048 L 291.5264517232148,102.78074485158243 L 288.595629545043,95.98667757509993 L 289.06275279115187,86.8208361108238 z" id="c42079"/>
		<path d="M 351.88812905590987,159.2197819788214 L 356.9834989105919,154.68102681439106 L 362.02308727228217,150.50893748692647 L 366.6618812640984,147.9500385406712 L 366.7754436752778,149.42172840540374 L 366.93577647666746,151.49875897535367 L 370.33544073971,150.83174017263337 L 374.39008662130544,153.17133994922753 L 375.685310527629,159.13351353917005 L 375.1858600485233,161.50119284700665 L 376.2830866662916,164.97500358573276 L 378.4637692219276,166.03929270903495 L 382.25432900638503,166.25164850184254 L 383.9914420120872,170.00585703556794 L 385.26830521776463,171.53296641831903 L 387.0388954098728,173.6488758643211 L 390.361460220078,176.9675697112203 L 392.7055713733898,180.1106420585965 L 397.1816301369644,183.7820888779247 L 398.0561779915185,185.00835670262617 L 400.0,187.731770826362 L 399.8807491306396,187.8178949407919 L 396.7823362097857,190.05392135072208 L 392.9172743982229,190.65279066027009 L 390.4322239050965,194.47522826542072 L 385.76344660053513,195.8638570473886 L 383.02698274668626,197.9155109113221 L 383.44180054457667,191.520506382177 L 379.86589207826955,189.80792392811745 L 370.25066595561816,182.7954047146302 L 357.0876106075505,173.09816243260357 L 346.96188586713765,165.58468557679296 L 351.88812905590987,159.2197819788214 z" id="c42017"/>
		<path d="M 27.558880563702694,113.10323542946205 L 32.35607208938107,106.94197898210888 L 33.49408210421434,105.71814309699164 L 39.26969297302019,98.07898511221303 L 47.00921735130991,98.21718500945832 L 59.91922318157414,98.47943919135537 L 60.20440983432726,98.68072061931942 L 59.06588238180278,143.58639917346105 L 52.69276087373899,143.28144387806393 L 49.80625164687302,143.25633438629936 L 33.45298301617237,142.57163411082078 L 27.97154083458432,142.41498188312036 L 27.895097342710656,137.9469746031391 L 27.741620242243123,126.18984123646666 L 27.558880563702694,113.10323542946205 z" id="c42019"/>
		<path d="M 264.0929679864614,190.64530343914882 L 265.4444632084582,191.311199495333 L 273.0780065345192,186.91794331579484 L 290.7807472388002,181.4162305960088 L 301.4212513193465,175.77162566699153 L 305.5651527202437,179.12777241178597 L 320.82661739923816,191.42914178215048 L 316.0878903827342,194.0246318974998 L 316.7106405604827,200.45046907088286 L 312.81372276056555,208.15478564487935 L 313.1690780682312,215.65474550472726 L 305.7554823935278,228.7714075994805 L 303.4598250336654,229.01695189137976 L 296.7051048318743,229.14758307661734 L 296.6908691655357,229.14785049915506 L 296.2617750579101,229.15556430079815 L 279.77776093011994,209.17715875551312 L 275.41664974299,199.91300396535556 L 267.8597268708524,199.4106581888692 L 266.52334724814176,198.9647643596454 L 262.48295450290885,193.91648973272072 L 264.0929679864614,190.64530343914882 z" id="c42071"/>
		<path d="M 339.7211831003901,131.59790166436633 L 346.722020352605,130.04634177474657 L 359.54301829755,125.10099965342863 L 370.2187252993048,115.88830707231374 L 372.05753469065775,119.29853285195577 L 374.3637820083767,122.9066726506201 L 372.72613163622964,126.23017035501128 L 371.6879652859155,131.47270056510325 L 371.49655351753194,131.57815189685948 L 367.0598681820593,134.01964560218258 L 366.1539977194254,138.3831811709109 L 366.4622791876912,145.3622353225507 L 366.6618812640984,147.9500385406712 L 362.02308727228217,150.50893748692647 L 356.9834989105919,154.68102681439106 L 352.0304033686327,150.85938035742456 L 353.0748765706549,146.20646498957305 L 346.59270195847546,144.31127733637084 L 337.6017683480523,132.72841001928987 L 339.7211831003901,131.59790166436633 z" id="c42095"/>
		<path d="M 217.9726925402101,129.10004745337838 L 223.72658202195916,123.44332032623038 L 232.8325078119908,111.3153301069815 L 232.82075999558342,109.11817346819818 L 244.0829423387118,107.32258659790305 L 245.23560872129121,101.84931177716524 L 249.58989119051014,102.6814705714098 L 252.2107383385546,108.57371276070117 L 251.20998101402603,119.78740303491735 L 256.33709795272335,125.66637287039403 L 246.69955953191115,125.21834437357242 L 218.50273224095068,132.6488284038417 L 217.9726925402101,129.10004745337838 z" id="c42119"/>
		<path d="M 92.5186243025485,111.70475720261688 L 92.24056442926926,110.07738019992598 L 92.54674727127446,107.55132738683302 L 93.08740775732107,84.8572863115768 L 99.98282389988816,85.48395082433284 L 100.79001173884564,84.19053168434297 L 109.16025167604352,81.09154387688446 L 125.0301046741122,91.48315126517417 L 126.66435824996923,96.97697606895306 L 122.86384693571969,96.85372600535766 L 120.20420877510907,103.15178276632702 L 119.91879913303484,123.43429901321244 L 92.02699153615795,122.55503157579427 L 92.5186243025485,111.70475720261688 z" id="c42065"/>
		<path d="M 6.337745950330251,24.850274331476367 L 19.167951125648813,19.975130647705168 L 31.119498009727263,13.258597011682177 L 32.39819029872883,10.13562094918682 L 35.63718400678559,8.13567453968512 L 40.16365272285614,9.157491291507279 L 46.69482958773943,5.334002229367693 L 52.04034542005046,2.955427942308902 L 57.624320407215826,0.0 L 57.32956667929805,12.434165703752319 L 57.11298268867062,24.31468901493545 L 67.1802003088352,24.561283987598056 L 66.81667346594686,37.87558657823859 L 5.979706195012949,36.32417129987942 L 6.337745950330251,24.850274331476367 z" id="c42049"/>
		<path d="M 197.07338318482056,179.10663142519823 L 206.08671192873433,169.28371622521797 L 230.4761479487689,152.7694121861156 L 246.39189122340647,148.5258872309761 L 243.5021207177955,153.9569469587515 L 246.52239444763794,162.79267879677303 L 241.7094239391846,172.0522621998979 L 248.9988426065101,175.37205858845527 L 244.94776985011703,177.03671480936745 L 229.14263678978594,179.24248114766326 L 214.31201446527191,182.15618302765424 L 218.46267795624104,176.87574401453773 L 201.00596784670654,187.28538156184635 L 201.82295557294046,184.62567065004745 L 197.07338318482056,179.10663142519823 z" id="c42099"/>
		<path d="M 281.35271772742135,159.96312458610194 L 299.66991465035346,156.16680051347055 L 310.1563844157724,152.44652256892837 L 311.68573794631214,146.54480480505438 L 318.56238155046077,143.0357546462037 L 343.77121279268766,163.10569472305679 L 341.7957590854107,166.49784497373366 L 332.75701037536805,181.76930771739794 L 320.82661739923816,191.42914178215048 L 305.5651527202437,179.12777241178597 L 301.4212513193465,175.77162566699153 L 297.62423833905603,171.83176947280845 L 281.35271772742135,159.96312458610194 z" id="c42011"/>
		<path d="M 75.39455467480934,156.44225659960213 L 91.83076663522414,134.68815083827715 L 92.02699153615795,122.55503157579427 L 119.91879913303484,123.43429901321244 L 119.66198766753763,138.03185729981868 L 119.96110650480253,139.70519419178916 L 119.40412532992505,140.35555392655934 L 107.75551928610611,169.01004116677194 L 104.91018272028757,166.79035590238396 L 99.08177969147914,171.32745741953715 L 95.36240885327729,167.40932305579602 L 80.49701589274352,163.38019844017427 L 75.06967493966582,160.55207216788577 L 75.39455467480934,156.44225659960213 z" id="c42063"/>
		<path d="M 191.55635781627393,171.15458261826248 L 208.9623740678836,152.9114892214799 L 209.4653278579474,149.94651355129992 L 223.23579850066298,142.82445086957438 L 235.41818989176508,142.93158528292906 L 247.04371157467455,147.6040011435378 L 246.39189122340647,148.5258872309761 L 230.4761479487689,152.7694121861156 L 206.08671192873433,169.28371622521797 L 197.07338318482056,179.10663142519823 L 194.92779613952152,181.46155889612083 L 191.55635781627393,171.15458261826248 z" id="c42067"/>
		<path d="M 201.85817440904947,66.79192320497424 L 244.89563587039044,65.7335073357397 L 250.63365419776716,61.6069493955891 L 254.7459631524858,62.18235181761664 L 259.25845285939744,78.67837718634311 L 269.97559937212725,87.62776799949629 L 279.81413266464233,90.06512600339721 L 270.1427871173835,100.77080180611532 L 266.8812758882943,100.9962436850341 L 264.3069820053557,101.1666769276102 L 260.63573437174296,99.60762518517434 L 250.4063058778505,101.028410631333 L 249.58989119051014,102.6814705714098 L 245.23560872129121,101.84931177716524 L 244.0829423387118,107.32258659790305 L 232.82075999558342,109.11817346819818 L 220.75818607834566,95.72888650177114 L 206.8015433320527,83.26113335990573 L 202.00837414999245,75.86968692232648 L 201.9454246627131,72.50466137543468 L 201.85817440904947,66.79192320497424 z" id="c42081"/>
		<path d="M 332.75701037536805,181.76930771739794 L 341.7957590854107,166.49784497373366 L 343.77121279268766,163.10569472305679 L 346.96188586713765,165.58468557679296 L 357.0876106075505,173.09816243260357 L 370.25066595561816,182.7954047146302 L 379.86589207826955,189.80792392811745 L 374.43474008268953,196.16304127969477 L 373.63034732194257,198.24638906617923 L 373.62762430618403,198.25445339499188 L 371.51014894605896,196.75530120342694 L 365.63770680524703,194.27579893969207 L 362.9259532614682,197.83396411604213 L 367.0392006764887,201.49918907461247 L 367.07544893859597,201.52451411562265 L 367.0510711090912,201.55212426169186 L 366.9741912576251,201.62465767335232 L 366.89890779618077,201.69041718763447 L 366.7490421564097,201.80092514854547 L 364.0819963329566,203.53382350354204 L 362.2896822297035,204.7701050750915 L 359.773875652408,200.9967974010476 L 357.073103998172,198.10256029392852 L 356.2429182610876,196.99159802902977 L 344.70159454686154,189.84305645734295 L 342.14595521592344,184.41790052841156 L 332.75701037536805,181.76930771739794 z" id="c42091"/>
		<path d="M 167.54145694715788,229.92805859200226 L 174.23325214036348,220.61477734603338 L 179.91443393545507,205.04177230321991 L 183.81470697315575,199.56852584045242 L 190.4419840362126,186.79209834221717 L 194.92779613952152,181.46155889612083 L 197.07338318482056,179.10663142519823 L 201.82295557294046,184.62567065004745 L 201.00596784670654,187.28538156184635 L 206.68916866461387,200.7044711228229 L 212.11204738434478,207.53094147080574 L 210.9490892717564,210.07690459906647 L 211.83958986481568,230.14319161863693 L 211.14678932830995,230.14544982713335 L 211.13785826499625,230.1454784257405 L 190.41092032076187,230.0588756148514 L 169.14139533444308,229.9358028291408 L 167.54145694715788,229.92805859200226 z" id="c42055"/>
		<path d="M 135.87655155171115,171.60880163408916 L 137.64777756696685,159.47154321476467 L 144.47312024550138,151.04932275345303 L 144.59807237544652,147.09140646503843 L 150.74342283143804,139.96731573501123 L 150.1014274684588,139.26665391298226 L 164.16570154708137,138.48890822378172 L 166.70471220906913,138.77247576271276 L 159.48212153203053,144.5294798914594 L 163.25370061518777,149.62262306429923 L 161.12834966842985,154.94752441778243 L 165.68068806483666,161.8238167641954 L 156.8759644194357,178.28652483763483 L 154.68586773806166,183.27434469099893 L 144.72961803561356,177.80846322166826 L 143.75457398203136,182.99266647897096 L 131.97757374529303,175.4794397555643 L 135.87655155171115,171.60880163408916 z" id="c42013"/>
		<path d="M 66.81667346594686,37.87558657823859 L 67.1802003088352,24.561283987598056 L 76.43740213555145,24.772890326642674 L 103.95301430286413,25.193233188224486 L 109.1858403156823,25.258669956027155 L 113.4824974139382,25.303269133098183 L 113.50140181268091,39.49781968255769 L 110.53364582219592,58.92797732126493 L 110.53402328150445,58.96933637781564 L 73.1190986151689,58.23673313276619 L 66.3349777393856,58.16036902723128 L 66.81667346594686,37.87558657823859 z" id="c42123"/>
		<path d="M 146.65409884384212,61.25573605454356 L 147.15601924425368,59.93485401987188 L 161.18278705917112,59.9156960076459 L 171.43597455785599,72.75829038148215 L 175.56717538476747,72.82831411178998 L 175.56865881722644,82.45798895729769 L 168.44946485820634,95.93372231274896 L 158.7433875720692,94.67346753884149 L 157.67203401687115,79.0402914240216 L 146.45868240766745,78.9366079052033 L 146.65409884384212,61.25573605454356 z" id="c42023"/>
		<path d="M 168.44946485820634,95.93372231274896 L 175.56865881722644,82.45798895729769 L 175.56717538476747,72.82831411178998 L 201.9454246627131,72.50466137543468 L 202.00837414999245,75.86968692232648 L 206.8015433320527,83.26113335990573 L 220.75818607834566,95.72888650177114 L 232.82075999558342,109.11817346819818 L 232.8325078119908,111.3153301069815 L 219.56584568508887,116.5183837712476 L 208.21788308537796,118.70923680163145 L 207.72321561223143,118.14035797394142 L 200.40203193101718,107.24913602055018 L 192.25037086409765,105.78215534715878 L 188.41171665444972,99.11507082438536 L 182.03145170385193,99.43916223055218 L 181.6719747790265,92.75808924822229 L 172.16733746798695,101.62349714942941 L 170.6282923098075,99.74347052892138 L 168.44946485820634,95.93372231274896 z" id="c42035"/>
		<path d="M 103.0741276789977,74.12967075079683 L 110.10906001731156,75.6784034477857 L 110.53402328150445,58.96933637781564 L 110.53364582219592,58.92797732126493 L 142.34651549853078,58.735973931341974 L 146.65409884384212,61.25573605454356 L 146.45868240766745,78.9366079052033 L 157.67203401687115,79.0402914240216 L 158.7433875720692,94.67346753884149 L 131.0178728017982,92.36641407531432 L 126.66435824996923,96.97697606895306 L 125.0301046741122,91.48315126517417 L 109.16025167604352,81.09154387688446 L 100.79001173884564,84.19053168434297 L 103.0741276789977,74.12967075079683 z" id="c42047"/>
		<path d="M 12.970327038044452,159.63665047342812 L 28.085208757988475,147.872201258726 L 27.97154083458432,142.41498188312036 L 33.45298301617237,142.57163411082078 L 49.80625164687302,143.25633438629936 L 52.69276087373899,143.28144387806393 L 59.06588238180278,143.58639917346105 L 59.08927013753575,143.58798998351 L 53.39539150191188,151.43975090970167 L 53.87317060577427,154.22229321997625 L 58.18071450157036,156.504016575859 L 57.77860655379656,165.30723758592953 L 53.78115731073444,168.30812851737522 L 50.47000470014051,181.87891796053756 L 45.92353564556876,185.64383975356296 L 40.08412458488226,184.05085750228156 L 43.05109348410801,180.63234948420524 L 24.83388791344404,173.00809790234203 L 12.970327038044452,159.63665047342812 z" id="c42003"/>
		<path d="M 73.1190986151689,58.23673313276619 L 110.53402328150445,58.96933637781564 L 110.10906001731156,75.6784034477857 L 103.0741276789977,74.12967075079683 L 100.79001173884564,84.19053168434297 L 99.98282389988816,85.48395082433284 L 93.08740775732107,84.8572863115768 L 93.34768496444923,75.97602380668238 L 80.32632589012272,75.27839319169112 L 80.23177900939235,79.72282218924893 L 75.00584093812121,79.63182371120762 L 75.07697593886972,74.82014066461623 L 72.82010014233768,72.5233716498038 L 73.1190986151689,58.23673313276619 z" id="c42053"/>
		<path d="M 311.68124922775354,121.63729688651242 L 328.77268221932076,113.12899043874675 L 326.0896013062126,109.42259760942677 L 331.0487729346683,102.094043588998 L 334.1177606031349,102.76759375781147 L 344.84300311958555,114.62736880837222 L 339.5830836736986,117.97574145531999 L 343.5981036457266,124.43518726402974 L 346.722020352605,130.04634177474657 L 339.7211831003901,131.59790166436633 L 337.6017683480523,132.72841001928987 L 331.7945574807569,134.41913894618105 L 327.5671563650827,137.62473210934866 L 318.67034349399336,130.56753122380573 L 310.9170302265781,122.05198183065342 L 311.68124922775354,121.63729688651242 z" id="c42025"/>
		<path d="M 155.04023687260292,128.7937043658284 L 163.36176021628864,118.83167000589349 L 169.3970982647048,119.29633914412247 L 170.89587191406395,115.02230898648692 L 167.13470832949648,105.139668024331 L 172.16733746798695,101.62349714942941 L 181.6719747790265,92.75808924822229 L 182.03145170385193,99.43916223055218 L 188.41171665444972,99.11507082438536 L 192.25037086409765,105.78215534715878 L 200.40203193101718,107.24913602055018 L 207.72321561223143,118.14035797394142 L 208.21788308537796,118.70923680163145 L 219.56584568508887,116.5183837712476 L 232.8325078119908,111.3153301069815 L 223.72658202195916,123.44332032623038 L 217.9726925402101,129.10004745337838 L 198.3456909741136,138.30116510419958 L 196.38545892842174,139.66259717860132 L 186.62068524954267,138.41387120267777 L 178.44431452571467,143.0751010924604 L 168.83372692166412,139.5168199149427 L 166.70471220906913,138.77247576271276 L 164.16570154708137,138.48890822378172 L 150.1014274684588,139.26665391298226 L 155.04023687260292,128.7937043658284 z" id="c42027"/>
		<path d="M 5.979706195012949,36.32417129987942 L 66.81667346594686,37.87558657823859 L 66.3349777393856,58.16036902723128 L 51.79725370598205,57.99745499158588 L 39.99659158808032,69.55196613185855 L 31.51019148465759,70.19585230960077 L 4.981285078071428,68.64972517271896 L 5.011188215293223,67.67149198264065 L 5.476685253178492,52.44460416375114 L 5.979706195012949,36.32417129987942 z" id="c42039"/>
		<path d="M 36.67679684004522,204.6155623238659 L 45.132580234563044,200.02668548588912 L 47.86797555890212,195.26940584821182 L 45.30364942275182,191.9625295420821 L 54.456044553572646,192.05275523894198 L 64.7856745497918,196.41247864303492 L 70.93756409731881,191.29072018347685 L 76.67217269980875,194.19455936448995 L 82.05946385270573,200.26129868658919 L 85.33151070111954,200.5405951953095 L 76.48064260091654,217.11534445214892 L 80.56332978392894,223.67411139997213 L 76.80545048582596,227.77418139837854 L 77.99406330093431,229.01042896070504 L 72.16472635607127,228.93162298799257 L 52.29051440802218,228.5377546950831 L 41.75354068820215,228.26324515890192 L 41.690068939799296,210.28125081659334 L 36.67679684004522,204.6155623238659 z" id="c42051"/>
		<path d="M 103.09946619138222,177.34148161760564 L 107.76721851144133,169.10569883129537 L 107.75551928610611,169.01004116677194 L 119.40412532992505,140.35555392655934 L 119.96110650480253,139.70519419178916 L 150.74342283143804,139.96731573501123 L 144.59807237544652,147.09140646503843 L 144.47312024550138,151.04932275345303 L 137.64777756696685,159.47154321476467 L 135.87655155171115,171.60880163408916 L 131.97757374529303,175.4794397555643 L 129.7756827736938,179.52323849381196 L 129.290834156753,182.99220492141805 L 113.73544574142876,182.65999630356498 L 112.45400024933697,179.91221349314077 L 110.84771052879732,178.99884228873327 L 102.0336852562582,178.87059150246205 L 103.09946619138222,177.34148161760564 z" id="c42021"/>
		<path d="M 347.96620797606647,90.24137499246537 L 345.6038098259036,55.899022408261054 L 343.3850809240287,23.847578171003672 L 343.7868067915419,23.83645744459634 L 351.64673265932896,24.142355299888134 L 352.90237578149157,24.19025055129909 L 356.3189392715787,28.195800075790387 L 358.4007359318306,33.70027169892574 L 363.33808398299175,35.592347181147304 L 366.2891056945631,36.612459561252145 L 368.54661558123934,37.39159542406979 L 371.2633977772398,40.76574731771633 L 372.80700328398126,45.17492133340197 L 373.38919391576275,55.08940167682553 L 373.70110194100585,58.498705590496 L 359.5129149822749,79.67723583263488 L 353.7884307825133,80.25616371426587 L 356.54627720269605,83.43332510295703 L 353.523850621435,91.7907084156886 L 343.63062229975543,92.64850354909805 L 347.96620797606647,90.24137499246537 z" id="c42127"/>
		<path d="M 119.91879913303484,123.43429901321244 L 120.20420877510907,103.15178276632702 L 122.86384693571969,96.85372600535766 L 126.66435824996923,96.97697606895306 L 131.0178728017982,92.36641407531432 L 158.7433875720692,94.67346753884149 L 168.44946485820634,95.93372231274896 L 170.6282923098075,99.74347052892138 L 172.16733746798695,101.62349714942941 L 167.13470832949648,105.139668024331 L 170.89587191406395,115.02230898648692 L 169.3970982647048,119.29633914412247 L 163.36176021628864,118.83167000589349 L 155.04023687260292,128.7937043658284 L 150.1014274684588,139.26665391298226 L 150.74342283143804,139.96731573501123 L 119.96110650480253,139.70519419178916 L 119.66198766753763,138.03185729981868 L 119.91879913303484,123.43429901321244 z" id="c42033"/>
		<path d="M 337.3474246598149,99.17774835544638 L 341.1152887888486,93.47335244791793 L 343.63062229975543,92.64850354909805 L 353.523850621435,91.7907084156886 L 369.01636419671183,90.19414852035452 L 367.4722372717144,99.36942259018063 L 378.75227334295414,104.16949750622531 L 377.28879785677134,107.06923446012281 L 374.85100280722895,109.70894422137631 L 373.6556542511533,111.00206453557908 L 369.51120611622133,114.5750101135335 L 370.2187252993048,115.88830707231374 L 359.54301829755,125.10099965342863 L 346.722020352605,130.04634177474657 L 343.5981036457266,124.43518726402974 L 339.5830836736986,117.97574145531999 L 344.84300311958555,114.62736880837222 L 334.1177606031349,102.76759375781147 L 337.3474246598149,99.17774835544638 z" id="c42089"/>
		<path d="M 356.54627720269605,83.43332510295703 L 353.7884307825133,80.25616371426587 L 359.5129149822749,79.67723583263488 L 373.70110194100585,58.498705590496 L 373.9359789845756,61.06426727055605 L 378.2914556261574,67.98487022999906 L 384.61858835332714,71.47519427775086 L 390.8146968979929,73.42802986357619 L 393.7451000518137,73.65804425912798 L 395.19291468872444,73.77114662356435 L 398.1022125316778,79.80882215716628 L 393.7366784161509,81.49260786386313 L 390.12736712043323,85.57760042834812 L 386.8325174999251,91.82195005153794 L 384.47942194623215,98.367668166368 L 379.55183744830805,102.58382321563835 L 379.34937989403755,102.98542629450668 L 378.75227334295414,104.16949750622531 L 367.4722372717144,99.36942259018063 L 369.01636419671183,90.19414852035452 L 353.523850621435,91.7907084156886 L 356.54627720269605,83.43332510295703 z" id="c42103"/>
		<path d="M 264.2587699671878,144.98040881827956 L 272.7306416381855,140.99105601541967 L 285.0723024282545,134.83778845322755 L 290.0078930550161,132.400845955701 L 291.4231213713625,125.04363047416729 L 296.54426112757363,119.02374250571621 L 308.8413760624942,123.07928185616953 L 310.9170302265781,122.05198183065342 L 318.67034349399336,130.56753122380573 L 327.5671563650827,137.62473210934866 L 324.21405090920325,140.20367033033438 L 318.56238155046077,143.0357546462037 L 311.68573794631214,146.54480480505438 L 310.1563844157724,152.44652256892837 L 299.66991465035346,156.16680051347055 L 281.35271772742135,159.96312458610194 L 274.7618845558932,154.74843933875962 L 263.2865421488806,145.66625555163728 L 264.2587699671878,144.98040881827956 z" id="c42107"/>
		<path d="M 218.50273224095068,132.6488284038417 L 246.69955953191115,125.21834437357242 L 256.33709795272335,125.66637287039403 L 253.0418369280221,132.24554695857734 L 252.15496692534853,141.42927561390417 L 247.04371157467455,147.6040011435378 L 235.41818989176508,142.93158528292906 L 223.23579850066298,142.82445086957438 L 218.7176469560559,142.1226225759096 L 218.50273224095068,132.6488284038417 z" id="c42109"/>
		<path d="M 364.0819963329566,203.53382350354204 L 366.7490421564097,201.80092514854547 L 366.89890779618077,201.69041718763447 L 366.9741912576251,201.62465767335232 L 367.0510711090912,201.55212426169186 L 367.07544893859597,201.52451411562265 L 367.0392006764887,201.49918907461247 L 362.9259532614682,197.83396411604213 L 365.63770680524703,194.27579893969207 L 371.51014894605896,196.75530120342694 L 373.62762430618403,198.25445339499188 L 373.63034732194257,198.24638906617923 L 374.43474008268953,196.16304127969477 L 379.86589207826955,189.80792392811745 L 383.44180054457667,191.520506382177 L 383.02698274668626,197.9155109113221 L 381.8778670912986,198.7762760010449 L 377.24037606774095,202.9378184325675 L 377.1650302941408,202.98505228370988 L 373.16309278503337,205.4914595311427 L 372.3020292997829,206.8147273519469 L 372.0738800685508,207.16522317784242 L 372.21843729648083,209.40744342082144 L 372.36770975564696,211.72186269297742 L 371.8205021986546,211.9438703032522 L 368.9807649153415,213.0949388696239 L 367.07556275670436,214.53975493787678 L 363.50527927439447,213.74067308360506 L 365.25970556494235,208.22924621478577 L 362.2896822297035,204.7701050750915 L 364.0819963329566,203.53382350354204 z" id="c42101"/>
		<path d="M 180.47077720003367,169.3389846719545 L 187.14932736957658,160.25668820411215 L 185.4214031784669,155.77560901786822 L 195.99690808588983,144.41580109731277 L 196.38545892842174,139.66259717860132 L 198.3456909741136,138.30116510419958 L 217.9726925402101,129.10004745337838 L 218.50273224095068,132.6488284038417 L 218.7176469560559,142.1226225759096 L 223.23579850066298,142.82445086957438 L 209.4653278579474,149.94651355129992 L 208.9623740678836,152.9114892214799 L 191.55635781627393,171.15458261826248 L 184.36949957784756,172.34412325209468 L 180.47077720003367,169.3389846719545 z" id="c42087"/>
		<path d="M 3.1516774946329003,125.80593003586617 L 27.741620242243123,126.18984123646666 L 27.895097342710656,137.9469746031391 L 27.97154083458432,142.41498188312036 L 28.085208757988475,147.872201258726 L 12.970327038044452,159.63665047342812 L 2.147276676461819,159.3226548461124 L 2.6028421014027368,144.8551259290876 L 3.1516774946329003,125.80593003586617 z" id="c42007"/>
		<path d="M 76.48064260091654,217.11534445214892 L 85.33151070111954,200.5405951953095 L 93.01718309429796,194.3689190651514 L 102.0336852562582,178.87059150246205 L 110.84771052879732,178.99884228873327 L 112.45400024933697,179.91221349314077 L 113.73544574142876,182.65999630356498 L 129.290834156753,182.99220492141805 L 121.89996481059923,199.58230906712865 L 122.07210214341889,220.52195790755553 L 118.43475781142186,229.48256323178327 L 110.11936688863189,229.38374182360536 L 102.00879174704968,229.27645693143074 L 77.99406330093431,229.01042896070504 L 76.80545048582596,227.77418139837854 L 80.56332978392894,223.67411139997213 L 76.48064260091654,217.11534445214892 z" id="c42111"/>
		<path d="M 39.99659158808032,69.55196613185855 L 51.79725370598205,57.99745499158588 L 66.3349777393856,58.16036902723128 L 73.1190986151689,58.23673313276619 L 72.82010014233768,72.5233716498038 L 75.07697593886972,74.82014066461623 L 75.00584093812121,79.63182371120762 L 74.8952678880211,84.18391871327266 L 66.35181774600677,85.28707306269409 L 59.91922318157414,98.47943919135537 L 47.00921735130991,98.21718500945832 L 39.26969297302019,98.07898511221303 L 39.99659158808032,69.55196613185855 z" id="c42121"/>
		<path d="M 122.07210214341889,220.52195790755553 L 121.89996481059923,199.58230906712865 L 129.290834156753,182.99220492141805 L 129.7756827736938,179.52323849381196 L 131.97757374529303,175.4794397555643 L 143.75457398203136,182.99266647897096 L 144.72961803561356,177.80846322166826 L 154.68586773806166,183.27434469099893 L 156.8759644194357,178.28652483763483 L 158.28157444777722,184.86853255918444 L 165.2294997692336,190.23095398898118 L 160.23841518338358,197.27802976575305 L 161.9728696334082,199.73796206237765 L 153.75020696053332,220.62033424054044 L 148.05235637857552,229.79864887871707 L 124.29990270091828,229.54546255529567 L 118.43475781142186,229.48256323178327 L 122.07210214341889,220.52195790755553 z" id="c42009"/>
		<path d="M 156.8759644194357,178.28652483763483 L 165.68068806483666,161.8238167641954 L 161.12834966842985,154.94752441778243 L 163.25370061518777,149.62262306429923 L 159.48212153203053,144.5294798914594 L 166.70471220906913,138.77247576271276 L 168.83372692166412,139.5168199149427 L 178.44431452571467,143.0751010924604 L 186.62068524954267,138.41387120267777 L 196.38545892842174,139.66259717860132 L 195.99690808588983,144.41580109731277 L 185.4214031784669,155.77560901786822 L 187.14932736957658,160.25668820411215 L 180.47077720003367,169.3389846719545 L 184.36949957784756,172.34412325209468 L 191.55635781627393,171.15458261826248 L 194.92779613952152,181.46155889612083 L 190.4419840362126,186.79209834221717 L 183.81470697315575,199.56852584045242 L 179.61516060186958,195.75942908656842 L 165.2294997692336,190.23095398898118 L 158.28157444777722,184.86853255918444 L 156.8759644194357,178.28652483763483 z" id="c42061"/>
		<path d="M 59.91922318157414,98.47943919135537 L 66.35181774600677,85.28707306269409 L 74.8952678880211,84.18391871327266 L 75.00584093812121,79.63182371120762 L 80.23177900939235,79.72282218924893 L 80.32632589012272,75.27839319169112 L 93.34768496444923,75.97602380668238 L 93.08740775732107,84.8572863115768 L 92.54674727127446,107.55132738683302 L 92.24056442926926,110.07738019992598 L 87.4397321357026,113.69267162517345 L 64.57014691066797,116.3125061300055 L 60.20440983432726,98.68072061931942 L 59.91922318157414,98.47943919135537 z" id="c42031"/>
		<path d="M 43.47126156319885,189.45730657572008 L 45.92353564556876,185.64383975356296 L 50.47000470014051,181.87891796053756 L 53.78115731073444,168.30812851737522 L 57.77860655379656,165.30723758592953 L 58.18071450157036,156.504016575859 L 53.87317060577427,154.22229321997625 L 53.39539150191188,151.43975090970167 L 59.08927013753575,143.58798998351 L 60.76400314365214,142.69932631801643 L 75.39455467480934,156.44225659960213 L 75.06967493966582,160.55207216788577 L 80.49701589274352,163.38019844017427 L 95.36240885327729,167.40932305579602 L 99.08177969147914,171.32745741953715 L 104.91018272028757,166.79035590238396 L 107.75551928610611,169.01004116677194 L 107.76721851144133,169.10569883129537 L 103.09946619138222,177.34148161760564 L 102.0336852562582,178.87059150246205 L 93.01718309429796,194.3689190651514 L 85.33151070111954,200.5405951953095 L 82.05946385270573,200.26129868658919 L 76.67217269980875,194.19455936448995 L 70.93756409731881,191.29072018347685 L 64.7856745497918,196.41247864303492 L 54.456044553572646,192.05275523894198 L 45.30364942275182,191.9625295420821 L 43.47126156319885,189.45730657572008 z" id="c42129"/>
		<path d="M 241.32177055721473,191.6401139546198 L 248.55475855567883,188.95060023266686 L 249.8379611558839,184.72235365759346 L 252.9300269796924,184.49307728014116 L 260.288617294748,188.94454206285556 L 262.48295450290885,193.91648973272072 L 266.52334724814176,198.9647643596454 L 267.8597268708524,199.4106581888692 L 275.41664974299,199.91300396535556 L 279.77776093011994,209.17715875551312 L 296.2617750579101,229.15556430079815 L 283.8501528624594,229.3656482796159 L 273.4336993307568,229.5198260414001 L 263.30409799600733,229.65273321484472 L 258.3665387253962,229.73948614605376 L 244.24656202710008,229.9655591239319 L 243.6749680700541,229.9699361672301 L 243.52155659835512,220.00561017982054 L 246.63753660568742,217.6803259394264 L 245.7965104914456,210.66382484409283 L 242.11849721658092,203.63434202724562 L 233.8957572645916,198.67625498593395 L 241.32177055721473,191.6401139546198 z" id="c42133"/>
	</g>
</svg>