<?xml version="1.0" encoding="UTF-8"?>
<svg baseProfile="full" fill="#d0d0d0" height="191.1059086323511" stroke="#ffffff" stroke-width="1" version="1.1" width="400.00000000000006" xmlns="http://www.w3.org/2000/svg" xmlns:ev="http://www.w3.org/2001/xml-events" xmlns:xlink="http://www.w3.org/1999/xlink">
	<defs/>
	<g id="counties"><path d="M 247.3753099555469,37.99864679598764 L 251.37620378725333,30.297985195025447 L 256.1224626260926,33.326915080390535 L 253.4527780490098,36.877203494749466 L 247.3753099555469,37.99864679598764 z" id="c72033"/>
		<path d="M 255.6041615341408,37.91975672055323 L 253.4527780490098,36.877203494749466 L 256.1224626260926,33.326915080390535 L 263.0989320232469,48.091335933777685 L 268.60909855928116,54.118387535400394 L 268.4181801373624,56.380361608433766 L 260.07928429644704,60.4480869332478 L 255.6041615341408,37.91975672055323 z" id="c72061"/>
		<path d="M 206.7212792668087,63.639188322362145 L 209.65911563604433,62.6416673714752 L 216.8459801530935,59.85069308190214 L 221.2247722624674,63.17597556507379 L 223.63205162399876,64.25940973835208 L 224.02667887696816,71.12317030000442 L 223.22022890142895,75.09239282775734 L 214.3843124576358,81.11134382536306 L 211.54135442374422,77.60068243211371 L 206.7212792668087,63.639188322362145 z" id="c72101"/>
		<path d="M 149.76069939170904,123.28305627467564 L 160.91946802294584,121.54303471531813 L 162.12931360675333,115.45849021091784 L 163.504546736046,114.84442560731122 L 170.09074441523455,119.17633835445902 L 173.57097801447102,147.5708793842803 L 171.20659637974566,151.04575066794547 L 171.14407690573702,151.06368301635618 L 167.79732744682812,143.94666642565687 L 163.08671369935743,140.88156292091662 L 159.79532494466108,139.3460127142367 L 149.76069939170904,123.28305627467564 z" id="c72153"/>
		<path d="M 95.99559277606805,87.02320527145268 L 99.89335231895723,77.64846904526767 L 104.10531473045538,76.13573378022043 L 111.65774085258724,78.98753132675822 L 113.01748122811658,81.84775525493487 L 105.72049630541358,93.62702517516185 L 105.76442964720235,97.04631422341491 L 100.14365299594391,94.45304060730416 L 100.20958702330816,94.37401485157169 L 95.99559277606805,87.02320527145268 z" id="c72005"/>
		<path d="M 292.1608483075885,85.29726210161598 L 302.7935546054726,78.11671577802844 L 302.3146230463904,73.57087162188266 L 309.79561664719677,71.1344354239539 L 314.31337622112585,69.58783007771247 L 323.90073424859634,74.40606109820718 L 323.79092299038257,77.04205319647157 L 322.0553646530448,83.56864407180927 L 320.0675447966357,86.51119405843427 L 317.16804432578067,85.09214024253764 L 296.42264562613894,86.72554058790263 L 292.1608483075885,85.29726210161598 z" id="c72151"/>
		<path d="M 126.21340621342291,139.5461011804852 L 129.10411309963624,138.46819324901224 L 125.92364930009518,132.00580140219986 L 129.79675501486125,126.3672929947365 L 135.87626719862735,125.64800071131945 L 142.48993169732634,127.18873012050265 L 144.43860613890263,129.34769960151846 L 146.73991581183856,141.77988557903666 L 133.22297441447918,144.15549648389216 L 127.71036356364657,147.8687801130285 L 126.21340621342291,139.5461011804852 z" id="c72125"/>
		<path d="M 114.77237761361418,135.35405880198206 L 123.64357361982374,131.2789785372875 L 125.92364930009518,132.00580140219986 L 129.10411309963624,138.46819324901224 L 126.21340621342291,139.5461011804852 L 121.8922114410342,139.53363837646202 L 114.77237761361418,135.35405880198206 z" id="c72067"/>
		<path d="M 229.94603509565252,52.8508476347277 L 237.0395421193682,48.4230281845586 L 245.68215354593724,46.10236289578179 L 247.33157375903062,50.7044650379684 L 248.7825859268161,58.08147852595508 L 245.85227036361778,55.90959113392838 L 236.93212916987702,59.95230579976779 L 228.64356313220586,56.310177376872716 L 229.94603509565252,52.8508476347277 z" id="c72135"/>
		<path d="M 283.7106403467001,96.04665607580662 L 287.0691024655741,93.47720617235701 L 296.830192605291,101.69533976761682 L 295.85436460167574,101.87240810896762 L 295.53131315534574,109.35343301174137 L 290.90483293689135,109.1185867237148 L 282.68148988416175,98.5438498927579 L 283.7106403467001,96.04665607580662 z" id="c72015"/>
		<path d="M 232.66398546911972,39.163627800178304 L 241.0914651562065,33.226612639991835 L 242.5214895348437,32.859877339183264 L 249.6050327708285,29.476153307047884 L 251.01342670241092,29.25925438656252 L 251.37620378725333,30.297985195025447 L 247.3753099555469,37.99864679598764 L 245.68215354593724,46.10236289578179 L 237.0395421193682,48.4230281845586 L 232.66398546911972,39.163627800178304 z" id="c72137"/>
		<path d="M 210.4693738005523,101.3722184370486 L 216.73920168312395,94.43629200843097 L 220.70164372554976,93.26202032799875 L 226.25971796321966,96.78940059106047 L 228.2504892531843,107.39947923239184 L 214.8236275483709,111.71363468357183 L 210.4693738005523,101.3722184370486 z" id="c72149"/>
		<path d="M 296.42264562613894,86.72554058790263 L 317.16804432578067,85.09214024253764 L 320.0675447966357,86.51119405843427 L 316.26075538539504,92.13836550773394 L 312.0328429097625,94.72495029790613 L 298.8291681182442,90.18111372685192 L 298.8892119260827,89.42891528870709 L 297.6680353761575,88.74013805515146 L 297.42200218662543,87.88510312779309 L 296.4497132700286,87.07966902371318 L 296.42264562613894,86.72554058790263 z" id="c72095"/>
		<path d="M 241.66203877418252,90.03002825002395 L 250.9275731794487,84.23071923361165 L 250.921970857048,81.61336763149926 L 256.9611420137147,86.03650148489436 L 258.5746328487726,94.02329893514194 L 254.69871044704198,98.91652253337972 L 242.24494077429927,94.48001125398969 L 241.66203877418252,90.03002825002395 z" id="c72009"/>
		<path d="M 233.69202372119705,85.4099325132572 L 231.11557933130288,77.94824150389393 L 236.2955045549685,74.60817606826959 L 243.58560134630144,72.66242218428253 L 247.5084921729255,82.01812795945115 L 251.00280115456752,80.7699770035548 L 250.921970857048,81.61336763149926 L 250.9275731794487,84.23071923361165 L 241.66203877418252,90.03002825002395 L 239.62423617076496,88.41586791950256 L 231.53659593325804,89.8560976164009 L 233.69202372119705,85.4099325132572 z" id="c72019"/>
		<path d="M 317.632667190342,37.07980758821283 L 318.06590125318974,35.80535864651622 L 321.8264932927695,38.53492040028652 L 339.41505753400963,28.324608422777903 L 345.67151025897044,33.14854234944785 L 346.5031745404614,40.32935765055564 L 341.7715226107085,44.456344536908105 L 338.525440496218,47.19266150904132 L 331.4079085725397,38.793886373554784 L 317.05401221010794,39.212786614492934 L 317.632667190342,37.07980758821283 z" id="c72037"/>
		<path d="M 222.96972590622033,39.22121102973959 L 231.3968919294011,35.70913386951271 L 241.0914651562065,33.226612639991835 L 232.66398546911972,39.163627800178304 L 237.0395421193682,48.4230281845586 L 229.94603509565252,52.8508476347277 L 228.2519024978353,46.38980827084899 L 222.96972590622033,39.22121102973959 z" id="c72051"/>
		<path d="M 296.01065701019644,29.353702044869525 L 299.19620547513887,19.609861206915333 L 308.81103167304474,19.477455029675916 L 313.81415565728383,19.057819010034663 L 311.3919582873561,25.762262446655043 L 317.632667190342,37.07980758821283 L 317.05401221010794,39.212786614492934 L 308.77229200067694,43.56147161464522 L 306.80034758999057,43.901156249372754 L 300.9375743639297,42.736281130816856 L 296.01065701019644,29.353702044869525 z" id="c72119"/>
		<path d="M 105.76442964720235,97.04631422341491 L 105.72049630541358,93.62702517516185 L 113.01748122811658,81.84775525493487 L 121.17734677790617,90.81329005002469 L 120.25353658361885,99.04290429158489 L 122.24429922368968,105.70668071199589 L 111.79103753997902,106.49547226526646 L 110.05197785231982,108.07899186846542 L 107.59299038810536,99.5468166547606 L 105.76442964720235,97.04631422341491 z" id="c72099"/>
		<path d="M 291.56637664926916,53.64100312499757 L 294.669710784597,49.340159164806295 L 305.54014777830145,48.0300695184784 L 305.15088609350727,54.58313070894551 L 300.65533130045344,70.05991804355615 L 297.2695277891829,61.472081081689105 L 292.15457790118194,57.63077012468442 L 291.56637664926916,53.64100312499757 z" id="c72077"/>
		<path d="M 220.70164372554976,93.26202032799875 L 226.68073465983642,93.5315844744909 L 231.53659593325804,89.8560976164009 L 239.62423617076496,88.41586791950256 L 241.66203877418252,90.03002825002395 L 242.24494077429927,94.48001125398969 L 254.69871044704198,98.91652253337972 L 248.32985669204794,106.39965476713535 L 246.9888747672845,112.43902075530411 L 241.92670085840476,110.50777276314255 L 230.99782949967317,113.4388323908537 L 228.2504892531843,107.39947923239184 L 226.25971796321966,96.78940059106047 L 220.70164372554976,93.26202032799875 z" id="c72043"/>
		<path d="M 189.877311748283,117.89440641468414 L 185.79293339509303,114.06672811489247 L 188.0761962313838,109.29049865766581 L 190.89454082850088,107.20681070095411 L 198.86253343499155,101.92404952525385 L 205.81887895912598,103.03417194905828 L 217.6306429153937,125.29194361692367 L 217.66299151632884,130.19161678840837 L 212.02232479147762,134.74191855120895 L 201.53805651718739,135.10215244771916 L 199.38695112573262,137.99923201350813 L 193.69897213942863,137.5913380402809 L 189.877311748283,117.89440641468414 z" id="c72113"/>
		<path d="M 283.56843816270055,81.70561014462616 L 285.77225824486214,79.79396137428168 L 286.40476690664786,63.77210747853639 L 292.15457790118194,57.63077012468442 L 297.2695277891829,61.472081081689105 L 300.65533130045344,70.05991804355615 L 302.3146230463904,73.57087162188266 L 302.7935546054726,78.11671577802844 L 292.1608483075885,85.29726210161598 L 283.87004232267634,82.16845895499759 L 283.56843816270055,81.70561014462616 z" id="c72129"/>
		<path d="M 144.0510429515346,65.28212889892015 L 149.5127751090303,63.00208263926858 L 155.11419590583668,62.72705785569822 L 155.3638347186495,65.0630892180358 L 163.40761748762006,87.6610973399543 L 155.11733755431828,90.94454114260716 L 154.29360264993713,87.77167904934919 L 153.83601270345972,80.14609965436335 L 144.0510429515346,65.28212889892015 z" id="c72065"/>
		<path d="M 159.5055292513883,106.23958309376953 L 161.6893292270494,105.04036932468595 L 165.89399780047307,100.00378958164971 L 180.96517708474832,100.48538722954387 L 188.0761962313838,109.29049865766581 L 185.79293339509303,114.06672811489247 L 178.39840758931916,119.7074452542746 L 174.28269149559299,117.40405357664265 L 170.09074441523455,119.17633835445902 L 163.504546736046,114.84442560731122 L 159.5055292513883,106.23958309376953 z" id="c72001"/>
		<path d="M 133.3332182397778,121.3366898148925 L 138.8374294194111,117.18125014393955 L 151.99733020113106,116.043010616141 L 157.1408234797689,114.3797963217658 L 162.12931360675333,115.45849021091784 L 160.91946802294584,121.54303471531813 L 149.76069939170904,123.28305627467564 L 142.48993169732634,127.18873012050265 L 135.87626719862735,125.64800071131945 L 129.79675501486125,126.3672929947365 L 133.3332182397778,121.3366898148925 z" id="c72093"/>
		<path d="M 104.10531473045538,76.13573378022043 L 112.28429942120508,73.19386965327779 L 126.0654327546552,71.32414262243337 L 132.63702553673357,85.25622694110882 L 136.85912959097385,85.19387514471501 L 135.5994234716338,88.51157458204756 L 121.17734677790617,90.81329005002469 L 113.01748122811658,81.84775525493487 L 111.65774085258724,78.98753132675822 L 104.10531473045538,76.13573378022043 z" id="c72071"/>
		<path d="M 310.88246375698856,45.70115852372652 L 308.77229200067694,43.56147161464522 L 317.05401221010794,39.212786614492934 L 331.4079085725397,38.793886373554784 L 338.525440496218,47.19266150904132 L 333.79248448612907,51.17787141404275 L 328.8975661471318,55.454245995558125 L 317.5010440784297,52.28434478320932 L 312.78209876915264,55.18626456840847 L 310.88246375698856,45.70115852372652 z" id="c72103"/>
		<path d="M 120.25353658361885,99.04290429158489 L 121.17734677790617,90.81329005002469 L 135.5994234716338,88.51157458204756 L 136.85912959097385,85.19387514471501 L 141.83623800796488,88.18330189265376 L 142.61089918578674,87.73051896892531 L 143.74694768246508,98.67542686619694 L 146.9477261722531,106.30798168827292 L 125.85339418209438,109.02846915253863 L 125.3758436648613,107.5723410087986 L 122.24429922368968,105.70668071199589 L 120.25353658361885,99.04290429158489 z" id="c72131"/>
		<path d="M 254.22528522104096,66.3250035143396 L 260.07928429644704,60.4480869332478 L 268.4181801373624,56.380361608433766 L 268.60909855928116,54.118387535400394 L 270.4254581178268,52.36338485162191 L 271.2098734436188,65.67484167113233 L 268.07055144479966,69.99973500146552 L 265.2517295385914,73.19692196215406 L 259.4825884412192,70.58495652067289 L 254.22528522104096,66.3250035143396 z" id="c72007"/>
		<path d="M 192.79756321258574,62.69404421582848 L 194.5760008989525,57.396249748016594 L 189.8569651274497,50.5941545770792 L 200.0306811518196,48.70551795529185 L 204.00523553508057,45.02628207973729 L 207.94763917885868,60.38382799093096 L 209.65911563604433,62.6416673714752 L 206.7212792668087,63.639188322362145 L 197.3186463772195,70.66552854355548 L 192.79756321258574,62.69404421582848 z" id="c72091"/>
		<path d="M 251.01342670241092,29.25925438656252 L 265.56859137574116,27.01139804778999 L 266.30200007452834,26.624242597793526 L 276.09715397327403,33.127426975118375 L 275.96001047983094,36.5089200155985 L 272.097408526064,37.990913637930326 L 273.60486418971504,49.56340972254395 L 270.4254581178268,52.36338485162191 L 268.60909855928116,54.118387535400394 L 263.0989320232469,48.091335933777685 L 256.1224626260926,33.326915080390535 L 251.37620378725333,30.297985195025447 L 251.01342670241092,29.25925438656252 z" id="c72127"/>
		<path d="M 191.58648291147273,84.70876407651842 L 195.39078363294138,80.75823281395178 L 207.49214338061742,97.43307373256954 L 206.64033555109023,100.77314992162424 L 206.5922785353948,102.56396683681261 L 205.81887895912598,103.03417194905828 L 198.86253343499155,101.92404952525385 L 190.89454082850088,107.20681070095411 L 191.58648291147273,84.70876407651842 z" id="c72073"/>
		<path d="M 286.71719329900094,28.36227256571666 L 293.8117530660848,24.636319431507268 L 296.01065701019644,29.353702044869525 L 300.9375743639297,42.736281130816856 L 306.80034758999057,43.901156249372754 L 305.54014777830145,48.0300695184784 L 294.669710784597,49.340159164806295 L 294.49057825297024,41.110311846365796 L 286.71719329900094,28.36227256571666 z" id="c72029"/>
		<path d="M 223.63205162399876,64.25940973835208 L 225.68696282182603,57.30525687878115 L 228.64356313220586,56.310177376872716 L 236.93212916987702,59.95230579976779 L 238.41339335161706,72.36260539138094 L 236.2955045549685,74.60817606826959 L 231.11557933130288,77.94824150389393 L 224.02667887696816,71.12317030000442 L 223.63205162399876,64.25940973835208 z" id="c72047"/>
		<path d="M 181.76860325553858,141.39759659201437 L 186.31297772648128,133.97275692603927 L 180.2569766882855,132.27430225721037 L 174.28269149559299,117.40405357664265 L 178.39840758931916,119.7074452542746 L 185.79293339509303,114.06672811489247 L 189.877311748283,117.89440641468414 L 193.69897213942863,137.5913380402809 L 190.22947923544587,137.34207336974146 L 185.81932772729704,138.91006641742175 L 183.7100465659183,138.8038816104321 L 181.76860325553858,141.39759659201437 z" id="c72111"/>
		<path d="M 272.25239246784594,23.480648588960747 L 283.5312754323899,24.963028007336746 L 286.71719329900094,28.36227256571666 L 294.49057825297024,41.110311846365796 L 294.669710784597,49.340159164806295 L 289.6830065109413,46.98899452209496 L 289.29092573975316,44.3065468959745 L 275.96001047983094,36.5089200155985 L 276.09715397327403,33.127426975118375 L 266.30200007452834,26.624242597793526 L 272.25239246784594,23.480648588960747 z" id="c72031"/>
		<path d="M 206.5922785353948,102.56396683681261 L 210.4693738005523,101.3722184370486 L 214.8236275483709,111.71363468357183 L 228.2504892531843,107.39947923239184 L 230.99782949967317,113.4388323908537 L 233.22075341805257,116.79644425094345 L 230.57450777495518,124.73354697439648 L 221.67823982961755,126.94827313412098 L 217.66299151632884,130.19161678840837 L 217.6306429153937,125.29194361692367 L 205.81887895912598,103.03417194905828 L 206.5922785353948,102.56396683681261 z" id="c72075"/>
		<path d="M 272.5410514632002,23.328037980934514 L 286.03317189231944,19.979146263366143 L 298.5552024264805,19.61856327103853 L 299.19620547513887,19.609861206915333 L 296.01065701019644,29.353702044869525 L 293.8117530660848,24.636319431507268 L 286.71719329900094,28.36227256571666 L 283.5312754323899,24.963028007336746 L 272.25239246784594,23.480648588960747 L 272.5410514632002,23.328037980934514 z" id="c72087"/>
		<path d="M 207.94763917885868,60.38382799093096 L 204.00523553508057,45.02628207973729 L 206.29119629529404,42.90817100924273 L 217.53932923428374,40.43240708562867 L 220.69027592394326,48.14164547934927 L 221.2247722624674,63.17597556507379 L 216.8459801530935,59.85069308190214 L 209.65911563604433,62.6416673714752 L 207.94763917885868,60.38382799093096 z" id="c72145"/>
		<path d="M 97.24898936951564,114.7872539346278 L 99.09120460504055,114.0512679310352 L 100.16331526630374,112.93874528820126 L 102.72186788108053,111.86516048850689 L 102.47822336670232,111.64031572199963 L 110.05197785231982,108.07899186846542 L 111.79103753997902,106.49547226526646 L 122.24429922368968,105.70668071199589 L 125.3758436648613,107.5723410087986 L 120.73816425708893,115.34797614533468 L 113.2107160868676,119.61319094004017 L 103.7977162197125,119.29901056373573 L 99.44286426216303,115.89022086846003 L 97.00182238353014,116.22922532331435 L 97.24898936951564,114.7872539346278 z" id="c72011"/>
		<path d="M 377.6241905539755,4.495920494038416 L 390.9267142545168,0.0 L 397.45170489253377,1.3746731102439746 L 395.6620223405016,5.69301200679466 L 390.5267914712688,11.461637718377961 L 380.5696406195696,10.12104468690296 L 377.6241905539755,4.495920494038416 z" id="c72049"/>
		<path d="M 256.9611420137147,86.03650148489436 L 273.16409056320424,80.31858390381612 L 273.87432928869805,75.20331975720386 L 279.48305339899787,76.85468196231155 L 283.56843816270055,81.70561014462616 L 283.87004232267634,82.16845895499759 L 283.81452379188937,82.65339704973877 L 273.40409775731456,89.81446771878403 L 274.88388884750105,98.55408565409857 L 270.0119844321801,97.97072592577662 L 264.805113323356,100.57338277532405 L 258.5746328487726,94.02329893514194 L 256.9611420137147,86.03650148489436 z" id="c72035"/>
		<path d="M 134.5344984160371,69.24793140205364 L 144.0510429515346,65.28212889892015 L 153.83601270345972,80.14609965436335 L 154.29360264993713,87.77167904934919 L 145.65044382781332,88.45639342636052 L 142.61089918578674,87.73051896892531 L 141.83623800796488,88.18330189265376 L 134.5344984160371,69.24793140205364 z" id="c72027"/>
		<path d="M 113.75612024882983,156.4005646498622 L 112.279764604767,147.14017020879305 L 110.80509927310942,134.15097922097777 L 110.80722427917362,134.125026169182 L 114.77237761361418,135.35405880198206 L 121.8922114410342,139.53363837646202 L 126.21340621342291,139.5461011804852 L 127.71036356364657,147.8687801130285 L 128.06044963689365,152.07668590819281 L 133.64111152629454,164.16157900696317 L 129.7377674945999,165.47621144555998 L 123.42146757237326,171.33601239532499 L 115.7683313993421,163.14748233695363 L 113.75612024882983,156.4005646498622 z" id="c72023"/>
		<path d="M 221.2247722624674,63.17597556507379 L 220.69027592394326,48.14164547934927 L 217.53932923428374,40.43240708562867 L 222.9028238198971,39.24906519083314 L 222.96972590622033,39.22121102973959 L 228.2519024978353,46.38980827084899 L 229.94603509565252,52.8508476347277 L 228.64356313220586,56.310177376872716 L 225.68696282182603,57.30525687878115 L 223.63205162399876,64.25940973835208 L 221.2247722624674,63.17597556507379 z" id="c72143"/>
		<path d="M 183.69877484926738,54.90606047749569 L 181.59432823696773,52.12357703282276 L 189.8569651274497,50.5941545770792 L 194.5760008989525,57.396249748016594 L 192.79756321258574,62.69404421582848 L 186.96187728427464,67.67573584175999 L 183.69877484926738,54.90606047749569 z" id="c72017"/>
		<path d="M 126.0654327546552,71.32414262243337 L 131.237305141949,70.61990144845853 L 134.5344984160371,69.24793140205364 L 141.83623800796488,88.18330189265376 L 136.85912959097385,85.19387514471501 L 132.63702553673357,85.25622694110882 L 126.0654327546552,71.32414262243337 z" id="c72115"/>
		<path d="M 356.4154201593282,56.536735416673515 L 364.2821046574022,44.62524472963417 L 380.16351862693534,36.998868422555 L 397.808599879065,32.829485742033 L 400.00000000000006,40.152418092725796 L 387.0122099093983,44.20567442132601 L 376.57429475933066,52.11748085457749 L 363.0270848545096,58.07387649639868 L 356.4154201593282,56.536735416673515 z" id="c72147"/>
		<path d="M 309.8294245899513,60.495829880186406 L 312.78209876915264,55.18626456840847 L 317.5010440784297,52.28434478320932 L 328.8975661471318,55.454245995558125 L 325.5855611919922,58.3443063578892 L 324.33499509390253,63.75513358488022 L 323.90073424859634,74.40606109820718 L 314.31337622112585,69.58783007771247 L 309.79561664719677,71.1344354239539 L 309.8294245899513,60.495829880186406 z" id="c72069"/>
		<path d="M 281.28088605344243,92.74952016975266 L 283.81452379188937,82.65339704973877 L 283.87004232267634,82.16845895499759 L 292.1608483075885,85.29726210161598 L 296.42264562613894,86.72554058790263 L 296.4497132700286,87.07966902371318 L 297.42200218662543,87.88510312779309 L 297.6680353761575,88.74013805515146 L 298.8892119260827,89.42891528870709 L 298.8291681182442,90.18111372685192 L 312.0328429097625,94.72495029790613 L 302.22428876493785,100.71558523753629 L 296.830192605291,101.69533976761682 L 287.0691024655741,93.47720617235701 L 283.7106403467001,96.04665607580662 L 281.28088605344243,92.74952016975266 z" id="c72109"/>
		<path d="M 272.097408526064,37.990913637930326 L 275.96001047983094,36.5089200155985 L 289.29092573975316,44.3065468959745 L 289.6830065109413,46.98899452209496 L 284.8148152086129,45.79467036927877 L 277.02061175258257,49.61064664674627 L 273.60486418971504,49.56340972254395 L 272.097408526064,37.990913637930326 z" id="c72139"/>
		<path d="M 155.3638347186495,65.0630892180358 L 155.11419590583668,62.72705785569822 L 160.35963785901868,62.468307375293215 L 175.5028319669783,53.24857003270959 L 181.59432823696773,52.12357703282276 L 183.69877484926738,54.90606047749569 L 186.96187728427464,67.67573584175999 L 189.5096699908866,75.87392140076484 L 187.64517797688734,78.30737004175252 L 171.8335342795907,86.26570781852638 L 167.11352004308858,81.95000515230052 L 163.40761748762006,87.6610973399543 L 155.3638347186495,65.0630892180358 z" id="c72013"/>
		<path d="M 230.57450777495518,124.73354697439648 L 233.22075341805257,116.79644425094345 L 230.99782949967317,113.4388323908537 L 241.92670085840476,110.50777276314255 L 246.9888747672845,112.43902075530411 L 248.20184030133325,119.06615087593529 L 248.1578512804901,119.06297333770247 L 243.22661549139906,127.52600037609601 L 231.79824311454834,124.42848805026607 L 230.57450777495518,124.73354697439648 z" id="c72133"/>
		<path d="M 155.11733755431828,90.94454114260716 L 163.40761748762006,87.6610973399543 L 167.11352004308858,81.95000515230052 L 171.8335342795907,86.26570781852638 L 187.64517797688734,78.30737004175252 L 195.39078363294138,80.75823281395178 L 191.58648291147273,84.70876407651842 L 190.89454082850088,107.20681070095411 L 188.0761962313838,109.29049865766581 L 180.96517708474832,100.48538722954387 L 165.89399780047307,100.00378958164971 L 161.6893292270494,105.04036932468595 L 161.35989709248042,104.25845789128883 L 159.64053388434652,103.30697600427929 L 159.42667874455586,103.41885349623848 L 155.11733755431828,90.94454114260716 z" id="c72141"/>
		<path d="M 143.74694768246508,98.67542686619694 L 142.61089918578674,87.73051896892531 L 145.65044382781332,88.45639342636052 L 154.29360264993713,87.77167904934919 L 155.11733755431828,90.94454114260716 L 159.42667874455586,103.41885349623848 L 159.64053388434652,103.30697600427929 L 161.35989709248042,104.25845789128883 L 161.6893292270494,105.04036932468595 L 159.5055292513883,106.23958309376953 L 163.504546736046,114.84442560731122 L 162.12931360675333,115.45849021091784 L 157.1408234797689,114.3797963217658 L 151.99733020113106,116.043010616141 L 146.9477261722531,106.30798168827292 L 143.74694768246508,98.67542686619694 z" id="c72081"/>
		<path d="M 90.7318366660164,105.15198531159064 L 93.88755977785873,108.45803291947406 L 102.47822336670232,111.64031572199963 L 102.72186788108053,111.86516048850689 L 100.16331526630374,112.93874528820126 L 99.09120460504055,114.0512679310352 L 97.24898936951564,114.7872539346278 L 97.00182238353014,116.22922532331435 L 95.42082926141897,116.44862308417669 L 86.58078601266499,108.6475378706571 L 90.7318366660164,105.15198531159064 z" id="c72117"/>
		<path d="M 266.1719689516037,106.01296031299174 L 270.0119844321801,97.97072592577662 L 274.88388884750105,98.55408565409857 L 273.40409775731456,89.81446771878403 L 283.81452379188937,82.65339704973877 L 281.28088605344243,92.74952016975266 L 283.7106403467001,96.04665607580662 L 282.68148988416175,98.5438498927579 L 290.90483293689135,109.1185867237148 L 285.5586488801016,108.84639065284324 L 278.58323882515197,116.4949895185306 L 269.36259702661505,121.90563045151087 L 266.1719689516037,106.01296031299174 z" id="c72057"/>
		<path d="M 300.65533130045344,70.05991804355615 L 305.15088609350727,54.58313070894551 L 305.54014777830145,48.0300695184784 L 306.80034758999057,43.901156249372754 L 308.77229200067694,43.56147161464522 L 310.88246375698856,45.70115852372652 L 312.78209876915264,55.18626456840847 L 309.8294245899513,60.495829880186406 L 309.79561664719677,71.1344354239539 L 302.3146230463904,73.57087162188266 L 300.65533130045344,70.05991804355615 z" id="c72085"/>
		<path d="M 120.73816425708893,115.34797614533468 L 125.3758436648613,107.5723410087986 L 125.85339418209438,109.02846915253863 L 146.9477261722531,106.30798168827292 L 151.99733020113106,116.043010616141 L 138.8374294194111,117.18125014393955 L 133.3332182397778,121.3366898148925 L 125.11582519066425,115.46174402956959 L 120.73816425708893,115.34797614533468 z" id="c72083"/>
		<path d="M 268.07055144479966,69.99973500146552 L 271.2098734436188,65.67484167113233 L 270.4254581178268,52.36338485162191 L 273.60486418971504,49.56340972254395 L 277.02061175258257,49.61064664674627 L 276.62070314775053,52.30588367257717 L 286.40476690664786,63.77210747853639 L 285.77225824486214,79.79396137428168 L 283.56843816270055,81.70561014462616 L 279.48305339899787,76.85468196231155 L 273.87432928869805,75.20331975720386 L 268.07055144479966,69.99973500146552 z" id="c72025"/>
		<path d="M 243.58560134630144,72.66242218428253 L 248.88382181653645,69.11861956195936 L 250.85975656415116,64.37038411459571 L 254.22528522104096,66.3250035143396 L 259.4825884412192,70.58495652067289 L 255.9982588309029,81.03874983829938 L 251.00280115456752,80.7699770035548 L 247.5084921729255,82.01812795945115 L 243.58560134630144,72.66242218428253 z" id="c72045"/>
		<path d="M 90.7318366660164,105.15198531159064 L 92.32717656335332,103.80748317805201 L 100.14365299594391,94.45304060730416 L 105.76442964720235,97.04631422341491 L 107.59299038810536,99.5468166547606 L 110.05197785231982,108.07899186846542 L 102.47822336670232,111.64031572199963 L 93.88755977785873,108.45803291947406 L 90.7318366660164,105.15198531159064 z" id="c72003"/>
		<path d="M 206.64033555109023,100.77314992162424 L 211.0808550166981,98.63122830906349 L 207.6161641962334,83.73306694357665 L 214.3843124576358,81.11134382536306 L 223.22022890142895,75.09239282775734 L 224.02667887696816,71.12317030000442 L 231.11557933130288,77.94824150389393 L 233.69202372119705,85.4099325132572 L 231.53659593325804,89.8560976164009 L 226.68073465983642,93.5315844744909 L 220.70164372554976,93.26202032799875 L 216.73920168312395,94.43629200843097 L 210.4693738005523,101.3722184370486 L 206.5922785353948,102.56396683681261 L 206.64033555109023,100.77314992162424 z" id="c72107"/>
		<path d="M 248.7825859268161,58.08147852595508 L 247.33157375903062,50.7044650379684 L 245.68215354593724,46.10236289578179 L 247.3753099555469,37.99864679598764 L 253.4527780490098,36.877203494749466 L 255.6041615341408,37.91975672055323 L 260.07928429644704,60.4480869332478 L 254.22528522104096,66.3250035143396 L 250.85975656415116,64.37038411459571 L 248.7825859268161,58.08147852595508 z" id="c72021"/>
		<path d="M 277.02061175258257,49.61064664674627 L 284.8148152086129,45.79467036927877 L 289.6830065109413,46.98899452209496 L 294.669710784597,49.340159164806295 L 291.56637664926916,53.64100312499757 L 292.15457790118194,57.63077012468442 L 286.40476690664786,63.77210747853639 L 276.62070314775053,52.30588367257717 L 277.02061175258257,49.61064664674627 z" id="c72063"/>
		<path d="M 189.5096699908866,75.87392140076484 L 197.3186463772195,70.66552854355548 L 206.7212792668087,63.639188322362145 L 211.54135442374422,77.60068243211371 L 214.3843124576358,81.11134382536306 L 207.6161641962334,83.73306694357665 L 211.0808550166981,98.63122830906349 L 206.64033555109023,100.77314992162424 L 207.49214338061742,97.43307373256954 L 195.39078363294138,80.75823281395178 L 187.64517797688734,78.30737004175252 L 189.5096699908866,75.87392140076484 z" id="c72039"/>
		<path d="M 251.00280115456752,80.7699770035548 L 255.9982588309029,81.03874983829938 L 259.4825884412192,70.58495652067289 L 265.2517295385914,73.19692196215406 L 268.07055144479966,69.99973500146552 L 273.87432928869805,75.20331975720386 L 273.16409056320424,80.31858390381612 L 256.9611420137147,86.03650148489436 L 250.921970857048,81.61336763149926 L 251.00280115456752,80.7699770035548 z" id="c72041"/>
		<path d="M 153.32632507518835,150.19955470010385 L 151.5390972382561,143.617498888 L 159.19930104796046,142.42364080655878 L 163.08671369935743,140.88156292091662 L 167.79732744682812,143.94666642565687 L 171.14407690573702,151.06368301635618 L 167.2854575103485,152.16989875031126 L 162.11690469621,158.52292620024514 L 157.60132555825766,159.28576662398976 L 152.70562046803755,156.46890938350504 L 153.32632507518835,150.19955470010385 z" id="c72055"/>
		<path d="M 186.96187728427464,67.67573584175999 L 192.79756321258574,62.69404421582848 L 197.3186463772195,70.66552854355548 L 189.5096699908866,75.87392140076484 L 186.96187728427464,67.67573584175999 z" id="c72054"/>
		<path d="M 127.71036356364657,147.8687801130285 L 133.22297441447918,144.15549648389216 L 146.73991581183856,141.77988557903666 L 151.5390972382561,143.617498888 L 153.32632507518835,150.19955470010385 L 152.70562046803755,156.46890938350504 L 151.96369679095,156.04208435337785 L 146.67698769284314,156.61972041184538 L 140.45935776749,157.97810460502293 L 136.34949117661608,163.2486843984775 L 133.64111152629454,164.16157900696317 L 128.06044963689365,152.07668590819281 L 127.71036356364657,147.8687801130285 z" id="c72079"/>
		<path d="M 171.20659637974566,151.04575066794547 L 173.57097801447102,147.5708793842803 L 170.09074441523455,119.17633835445902 L 174.28269149559299,117.40405357664265 L 180.2569766882855,132.27430225721037 L 186.31297772648128,133.97275692603927 L 181.76860325553858,141.39759659201437 L 180.6656028690775,142.87021276654684 L 174.1768535615561,150.19347246770744 L 171.20659637974566,151.04575066794547 z" id="c72059"/>
		<path d="M 238.41339335161706,72.36260539138094 L 236.93212916987702,59.95230579976779 L 245.85227036361778,55.90959113392838 L 248.7825859268161,58.08147852595508 L 250.85975656415116,64.37038411459571 L 248.88382181653645,69.11861956195936 L 243.58560134630144,72.66242218428253 L 236.2955045549685,74.60817606826959 L 238.41339335161706,72.36260539138094 z" id="c72105"/>
		<path d="M 246.9888747672845,112.43902075530411 L 248.32985669204794,106.39965476713535 L 254.69871044704198,98.91652253337972 L 258.5746328487726,94.02329893514194 L 264.805113323356,100.57338277532405 L 270.0119844321801,97.97072592577662 L 266.1719689516037,106.01296031299174 L 269.36259702661505,121.90563045151087 L 266.14977010861344,123.78812676073323 L 255.30787379540172,119.57872222790378 L 248.20184030133325,119.06615087593529 L 246.9888747672845,112.43902075530411 z" id="c72123"/>
		<path d="M 103.7977162197125,119.29901056373573 L 113.2107160868676,119.61319094004017 L 120.73816425708893,115.34797614533468 L 125.11582519066425,115.46174402956959 L 133.3332182397778,121.3366898148925 L 129.79675501486125,126.3672929947365 L 125.92364930009518,132.00580140219986 L 123.64357361982374,131.2789785372875 L 114.77237761361418,135.35405880198206 L 110.80722427917362,134.125026169182 L 111.52075181480501,125.34745302038614 L 103.7977162197125,119.29901056373573 z M 0.0,179.91828328467128 L 6.1265871651210215,176.10326420562652 L 14.036577582195177,174.97932515523013 L 20.076120091434888,180.33424343911054 L 17.71480669657452,187.81177050240217 L 13.0550038397239,191.1059086323511 L 0.6359950108007765,188.81848617771612 L 0.0,179.91828328467128 z" id="c72097"/>
		<path d="M 318.06590125318974,35.80535864651622 L 321.83782098853055,35.94585083550426 L 326.5332749939932,15.917443776252515 L 332.2984902994245,14.078553166888945 L 337.6508173332816,10.926860144957674 L 342.83144118098056,15.328591180193698 L 344.98432615024984,20.559189749314598 L 336.7503755415423,26.270894589732134 L 339.41505753400963,28.324608422777903 L 321.8264932927695,38.53492040028652 L 318.06590125318974,35.80535864651622 z" id="c72053"/>
		<path d="M 144.43860613890263,129.34769960151846 L 142.48993169732634,127.18873012050265 L 149.76069939170904,123.28305627467564 L 159.79532494466108,139.3460127142367 L 163.08671369935743,140.88156292091662 L 159.19930104796046,142.42364080655878 L 151.5390972382561,143.617498888 L 146.73991581183856,141.77988557903666 L 144.43860613890263,129.34769960151846 z" id="c72121"/>
		<path d="M 311.3919582873561,25.762262446655043 L 313.81415565728383,19.057819010034663 L 317.6947251576436,18.73155172980581 L 326.5332749939932,15.917443776252515 L 321.83782098853055,35.94585083550426 L 318.06590125318974,35.80535864651622 L 317.632667190342,37.07980758821283 L 311.3919582873561,25.762262446655043 z" id="c72089"/>
	</g>
</svg>