<?xml version="1.0" encoding="UTF-8"?>
<svg baseProfile="full" fill="#d0d0d0" height="400.0" stroke="#ffffff" stroke-width="1" version="1.1" width="256.17853297002176" xmlns="http://www.w3.org/2000/svg" xmlns:ev="http://www.w3.org/2001/xml-events" xmlns:xlink="http://www.w3.org/1999/xlink">
	<defs/>
	<g id="counties"><path d="M 25.898524435898015,134.4718325012065 L 140.36784292978464,131.33868700176743 L 159.8672309507095,114.84841377615362 L 167.1879491746921,120.8101695612704 L 171.6876694473298,129.81160457078175 L 183.48876990478811,152.11250929122608 L 166.47574550666138,168.9375069005216 L 130.75751803041217,190.850336944719 L 25.816651373089147,193.31492913583725 L 25.817660097829933,193.2884148231531 L 25.846603669866514,173.52512311363094 L 25.903795390087176,134.684696896759 L 25.898524435898015,134.4718325012065 z" id="c44003"/>
		<path d="M 157.20490682743224,247.8560380107254 L 166.47574550666138,168.9375069005216 L 183.48876990478811,152.11250929122608 L 209.0665534356008,174.43620268428447 L 225.5380643807807,150.465514946028 L 228.0511284631825,154.3727173059819 L 230.01660726189672,157.4276934747914 L 251.61572716302618,164.21520151279032 L 250.14370410212956,190.6025551100361 L 256.17853297002176,238.7677016295449 L 249.4263947760695,244.1115361794569 L 231.27110455116434,256.98356083268146 L 224.47997443296106,253.03172173017163 L 215.10742921428547,247.5734640194001 L 212.97043301013784,246.32825607561955 L 199.2943293874945,243.38393137240757 L 190.00390225611724,260.09466560789014 L 176.75881008037808,260.395462980859 L 163.58118932472402,255.9210126082983 L 153.951401282936,258.02859810011057 L 157.20490682743224,247.8560380107254 z" id="c44005"/>
		<path d="M 171.6876694473298,129.81160457078175 L 188.0638341866524,110.7054632391423 L 207.31748398167244,122.09973709801542 L 225.5380643807807,150.465514946028 L 209.0665534356008,174.43620268428447 L 183.48876990478811,152.11250929122608 L 171.6876694473298,129.81160457078175 z" id="c44001"/>
		<path d="M 23.07167509179128,4.770305123190442 L 88.9169339357312,2.6155522593103218 L 94.25046753378624,2.434516291668168 L 105.07521301167209,2.0640974869597826 L 126.00582387119053,1.368679111654448 L 139.73096776483519,0.9045178099988035 L 165.94712925154303,0.0 L 165.9581589604502,15.457686183419403 L 165.96891229233125,30.561893068931308 L 165.92439383310585,57.58628950595302 L 180.4497963448735,57.47097647272879 L 180.39996195612554,85.62167076678432 L 183.9427909842996,108.26385886306161 L 188.0638341866524,110.7054632391423 L 171.6876694473298,129.81160457078175 L 167.1879491746921,120.8101695612704 L 159.8672309507095,114.84841377615362 L 140.36784292978464,131.33868700176743 L 25.898524435898015,134.4718325012065 L 24.971199612773123,96.96354420873374 L 23.07167509179128,4.770305123190442 z" id="c44007"/>
		<path d="M 79.85375441636684,390.6591056740949 L 93.09764640872694,358.2421182089823 L 109.68575871869541,355.824736337155 L 113.5938612893846,383.7303974257366 L 118.74209548886205,398.51080147774303 L 92.92878606717052,400.0 L 79.85375441636684,390.6591056740949 z M 0.800779401388831,320.0328216879348 L 9.34953739967378,304.6233027630651 L 8.176654839239198,277.9440375509282 L 22.667491809154008,275.8930397058911 L 22.67102120397571,275.8007105148512 L 25.816651373089147,193.31492913583725 L 130.75751803041217,190.850336944719 L 166.47574550666138,168.9375069005216 L 157.20490682743224,247.8560380107254 L 153.951401282936,258.02859810011057 L 150.00679370521172,258.89093563518435 L 140.80222318337115,280.075665490424 L 131.16750059024506,296.6931847562076 L 106.27377585204249,295.9568696467183 L 82.39486679588461,301.63790815951575 L 55.730245655926716,312.5455310081688 L 45.94086517721838,314.2499640936784 L 26.57659529495143,317.61149895493696 L 0.0,324.8234946872455 L 0.800779401388831,320.0328216879348 z" id="c44009"/>
	</g>
</svg>