<?xml version="1.0" encoding="UTF-8"?>
<svg baseProfile="full" fill="#d0d0d0" height="248.13903477949808" stroke="#ffffff" stroke-width="1" version="1.1" width="400.0" xmlns="http://www.w3.org/2000/svg" xmlns:ev="http://www.w3.org/2001/xml-events" xmlns:xlink="http://www.w3.org/1999/xlink">
	<defs/>
	<g id="counties"><path d="M 314.13853111987964,60.28439465237757 L 338.7487800526296,59.71537137195055 L 339.6640039277123,84.50175989822594 L 340.1922013251117,103.05685499309295 L 321.7898853374268,103.54934591539372 L 321.4628078407406,97.36385872257871 L 315.2702364763505,97.49296433250736 L 314.13853111987964,60.28439465237757 z" id="c46025"/>
		<path d="M 361.45416783538747,226.02659933030537 L 360.76537523101496,206.67064796785917 L 373.12297858651857,206.1769783726826 L 379.3157508252474,205.94153859194867 L 380.3052981654197,233.2613096971445 L 374.98384920643144,231.10187539736214 L 371.9122770024833,231.88024077949584 L 369.2008534212278,229.69566952205562 L 368.7007494393172,229.29231260512208 L 363.07965055596344,228.8167685924844 L 361.2571948050831,227.4747632264258 L 361.45416783538747,226.02659933030537 z" id="c46027"/>
		<path d="M 200.29957445115167,164.2477010054619 L 206.28401706284944,166.28865421658392 L 211.38806591586743,164.77200803180077 L 213.20780106083566,166.17254658818806 L 220.64564880738232,166.02495242305815 L 226.22301863083482,163.8867068595958 L 230.02809668978165,160.5114320935836 L 231.72143664984014,162.1816127994968 L 231.8023825940437,179.4902000581145 L 236.43077411756587,179.47027137949323 L 236.65894212506205,215.26827718524683 L 220.10463130034853,215.33314003720665 L 201.85304220061462,215.341533602973 L 201.06885707923564,206.03160283964291 L 201.09892879265038,187.33794510502258 L 200.24399059798674,181.07980965811038 L 200.29957445115167,164.2477010054619 z" id="c46123"/>
		<path d="M 371.90043352461964,126.81440937663595 L 394.3001481935377,125.81600612033769 L 395.36121451834515,150.57269180391842 L 395.36122050519754,150.5728315074732 L 392.5216064467045,150.83262907893916 L 372.8809809492171,151.57794431473243 L 371.90043352461964,126.81440937663595 z" id="c46101"/>
		<path d="M 339.6640039277123,84.50175989822594 L 370.46767855052997,83.40272275346146 L 371.1356240032014,101.98987119751648 L 358.7703882185476,102.49346271535599 L 340.1922013251117,103.05685499309295 L 339.6640039277123,84.50175989822594 z" id="c46057"/>
		<path d="M 267.3816348909066,129.4543392853613 L 278.95605609755813,129.2738022050121 L 297.87170017352184,128.92991952092527 L 298.2731592136832,147.40482741850423 L 273.7224332989991,148.0159882626861 L 267.57528580501975,148.10770443254572 L 267.3816348909066,129.4543392853613 z" id="c46073"/>
		<path d="M 192.4208842880077,70.58944222232698 L 198.09529075726078,71.07308064546548 L 195.80026070833887,65.37173479861966 L 199.13058590728568,54.860359050147 L 226.91772386148588,54.92243741639813 L 233.7562160797031,54.92794787361192 L 233.91912959517788,79.76670089520603 L 228.76869954794518,79.77353029625584 L 191.72056662829775,79.741752771732 L 192.4208842880077,70.58944222232698 z" id="c46107"/>
		<path d="M 233.98580436293153,130.0596273752442 L 248.17326941978064,129.78930786063043 L 267.3816348909066,129.4543392853613 L 267.57528580501975,148.10770443254572 L 245.4626642743585,148.39731493584608 L 245.94440926289005,145.03429468650788 L 234.74136917921257,136.54188663426535 L 233.98580436293153,130.0596273752442 z" id="c46017"/>
		<path d="M 314.00044993939395,54.06917964868642 L 313.4746073875269,29.235661421003933 L 343.84031749645015,28.42451092543748 L 344.34447052376663,30.472105708302916 L 351.2379282842537,30.282462494643866 L 351.91710489804586,48.860805616758924 L 352.2716889003421,59.260352394364574 L 351.12040655619086,59.34648819049132 L 338.7487800526296,59.71537137195055 L 314.13853111987964,60.28439465237757 L 314.00044993939395,54.06917964868642 z" id="c46037"/>
		<path d="M 275.76965777063657,5.004979174778075 L 280.6993650978624,4.956170761405557 L 291.2006691361437,4.88723549143913 L 308.32867462658015,4.538475115615329 L 311.43628022824487,4.475146495373533 L 312.8963323048355,4.444565083019135 L 313.4746073875269,29.235661421003933 L 314.00044993939395,54.06917964868642 L 276.8845524201789,54.589193759124434 L 276.646504643041,54.590673727026775 L 276.29914719925995,31.83712767451568 L 276.12890780889336,29.798212877540024 L 275.76965777063657,5.004979174778075 z" id="c46013"/>
		<path d="M 371.95822049518875,176.4914003569172 L 388.87387643080814,175.78230181256527 L 389.71021035756974,177.95035263489018 L 389.3154631628804,180.499576221181 L 393.24066695024504,183.79781921673538 L 393.2170796684003,186.5436530754201 L 393.0437720934066,189.9212622265501 L 390.54857415331884,190.66604809926707 L 391.681347919965,193.0137860829566 L 392.0286020309854,193.73295421023838 L 393.7187895302053,195.54083717047058 L 396.143930717974,195.4291748632365 L 397.25811032040673,200.9311239870765 L 398.36962644289247,202.98554276175784 L 397.8010064355973,205.25114355160346 L 379.3157508252474,205.94153859194867 L 373.12297858651857,206.1769783726826 L 371.95822049518875,176.4914003569172 z" id="c46083"/>
		<path d="M 278.18459807406276,98.07020936799383 L 315.2702364763505,97.49296433250736 L 321.4628078407406,97.36385872257871 L 321.7898853374268,103.54934591539372 L 322.4180954118912,128.45530959407645 L 297.87170017352184,128.92991952092527 L 278.95605609755813,129.2738022050121 L 278.18459807406276,98.07020936799383 z" id="c46005"/>
		<path d="M 297.87170017352184,128.92991952092527 L 322.4180954118912,128.45530959407645 L 322.6319818015249,128.44948936379643 L 323.203030121982,153.08736444870334 L 317.20461234475226,153.1831420309072 L 298.7240794972251,153.5798328266448 L 298.3729939308477,152.34086250657336 L 298.2731592136832,147.40482741850423 L 297.87170017352184,128.92991952092527 z" id="c46111"/>
		<path d="M 6.899834243343167,67.52908667481887 L 7.842195356662212,67.49844775035098 L 8.249926263401516,58.48327810879168 L 8.554819305308984,52.218143036309236 L 63.12071188709757,54.580643386141894 L 62.664579345647574,66.93713900175798 L 61.1861731026703,97.96293631740092 L 30.445980724232157,96.73565601219832 L 17.56575060127849,96.09900555823542 L 5.477372650612163,97.92411131764696 L 5.901568145802235,89.34709890168092 L 6.899834243343167,67.52908667481887 z" id="c46019"/>
		<path d="M 247.1530601436123,79.67808887160145 L 277.34044119974664,79.33200312809151 L 277.9228970547324,80.49280258467128 L 278.18459807406276,98.07020936799383 L 278.95605609755813,129.2738022050121 L 267.3816348909066,129.4543392853613 L 248.17326941978064,129.78930786063043 L 247.32801787969973,104.63274200528723 L 247.1530601436123,79.67808887160145 z" id="c46059"/>
		<path d="M 360.47471171566025,152.0659518510648 L 372.8809809492171,151.57794431473243 L 392.5216064467045,150.83262907893916 L 395.36122050519754,150.5728315074732 L 396.2691466423429,171.7618169314666 L 396.4342355165266,175.46246609390178 L 388.87387643080814,175.78230181256527 L 371.95822049518875,176.4914003569172 L 361.3357085261125,176.90478846380375 L 360.47471171566025,152.0659518510648 z" id="c46099"/>
		<path d="M 233.7562160797031,54.92794787361192 L 276.646504643041,54.590673727026775 L 276.8845524201789,54.589193759124434 L 277.34044119974664,79.33200312809151 L 247.1530601436123,79.67808887160145 L 233.91912959517788,79.76670089520603 L 233.7562160797031,54.92794787361192 z" id="c46049"/>
		<path d="M 1.6236520643999264,175.8330869561444 L 56.3307538223766,178.2876599049099 L 55.0861026902678,212.27845835498877 L 30.195591843033124,211.24592982595374 L 28.679483434235376,211.18117503859906 L 0.0,209.85383501552025 L 0.9940103788929207,189.236043818633 L 1.6236520643999264,175.8330869561444 z" id="c46047"/>
		<path d="M 338.7487800526296,59.71537137195055 L 351.12040655619086,59.34648819049132 L 352.2716889003421,59.260352394364574 L 369.54977568178083,58.74595243459715 L 370.1069090672276,71.10356742467081 L 370.46767855052997,83.40272275346146 L 339.6640039277123,84.50175989822594 L 338.7487800526296,59.71537137195055 z" id="c46029"/>
		<path d="M 242.94766439883097,164.76447753953573 L 242.74653149448818,159.81769685981234 L 247.83306187927715,154.02617149928514 L 245.4626642743585,148.39731493584608 L 267.57528580501975,148.10770443254572 L 273.7224332989991,148.0159882626861 L 274.37145388288843,154.18992200659463 L 274.8654079636723,179.11743141569937 L 248.72132503728457,179.37771104178228 L 244.6092320281208,168.20643131195817 L 239.7463349665645,167.1040677717379 L 242.94766439883097,164.76447753953573 z" id="c46015"/>
		<path d="M 273.7224332989991,148.0159882626861 L 298.2731592136832,147.40482741850423 L 298.3729939308477,152.34086250657336 L 298.7240794972251,153.5798328266448 L 299.48563126482145,178.71697897064305 L 279.4780735960834,179.03679368231187 L 274.8654079636723,179.11743141569937 L 274.37145388288843,154.18992200659463 L 273.7224332989991,148.0159882626861 z" id="c46003"/>
		<path d="M 148.32605606155226,186.94885854485227 L 201.09892879265038,187.33794510502258 L 201.06885707923564,206.03160283964291 L 201.85304220061462,215.341533602973 L 201.8529799496273,215.3415334976603 L 159.83580039174365,215.06231833880432 L 147.9139129232684,214.87404391441453 L 148.32605606155226,186.94885854485227 z" id="c46121"/>
		<path d="M 347.23079277641216,127.74185430718241 L 359.56455355626133,127.2540299068171 L 371.90043352461964,126.81440937663595 L 372.8809809492171,151.57794431473243 L 360.47471171566025,152.0659518510648 L 348.06735591166137,152.44820757460226 L 347.23079277641216,127.74185430718241 z" id="c46079"/>
		<path d="M 102.40256026990976,185.95048384259934 L 148.32605606155226,186.94885854485227 L 147.9139129232684,214.87404391441453 L 103.15932714688408,213.8680594486706 L 102.01830212174899,204.54846288774084 L 102.40256026990976,185.95048384259934 z" id="c46007"/>
		<path d="M 358.7703882185476,102.49346271535599 L 371.1356240032014,101.98987119751648 L 393.1723549800968,101.09247679513119 L 393.8008947050449,114.16981277513509 L 394.300080823658,125.8144344678518 L 394.3001481935377,125.81600612033769 L 371.90043352461964,126.81440937663595 L 359.56455355626133,127.2540299068171 L 358.7703882185476,102.49346271535599 z" id="c46011"/>
		<path d="M 322.6319818015249,128.44948936379643 L 347.23079277641216,127.74185430718241 L 348.06735591166137,152.44820757460226 L 335.72721467471945,152.7930320069546 L 323.203030121982,153.08736444870334 L 322.6319818015249,128.44948936379643 z" id="c46097"/>
		<path d="M 370.46767855052997,83.40272275346146 L 370.1069090672276,71.10356742467081 L 391.6880465079918,70.1811792666158 L 392.27576547463053,82.42552602252738 L 392.87206345267697,94.84207377023162 L 393.1723549800968,101.09247679513119 L 371.1356240032014,101.98987119751648 L 370.46767855052997,83.40272275346146 z" id="c46039"/>
		<path d="M 298.7240794972251,153.5798328266448 L 317.20461234475226,153.1831420309072 L 317.97446203902336,178.26486935220944 L 310.17671014392363,178.50683560636094 L 299.48563126482145,178.71697897064305 L 298.7240794972251,153.5798328266448 z" id="c46035"/>
		<path d="M 30.445980724232157,96.73565601219832 L 61.1861731026703,97.96293631740092 L 62.664579345647574,66.93713900175798 L 111.07408374092182,68.51223202050458 L 110.12352873929835,106.0758756568551 L 110.0897670787251,106.12764395828117 L 104.26072431969324,111.33553521179148 L 100.31381430138593,111.85105687519768 L 95.58118918555711,110.1904899777378 L 94.55693651088222,115.41799625425438 L 92.37307112976207,117.22657893854297 L 89.41004745424308,127.54803120374581 L 89.55892552584444,132.03416592124816 L 34.90334351132356,130.01972202265088 L 35.226875281968454,121.76065635043346 L 29.006549986135656,121.52850416026354 L 30.445980724232157,96.73565601219832 z" id="c46093"/>
		<path d="M 309.2822307659457,225.4408241741111 L 311.1017271605032,223.38311194514384 L 311.13261133873294,207.81166155112496 L 312.6913497621381,202.00273055636083 L 335.647902217722,201.36357492092282 L 336.4158333286988,223.97395195234338 L 332.9888540684542,224.64482859351304 L 327.694197353469,223.7775219360022 L 324.70889722176406,223.35130793041802 L 323.73853491824815,224.264437656087 L 322.3618753385162,228.1412803012783 L 320.04236620802357,230.28951288128954 L 315.58874048631077,230.7865566735237 L 311.85159868884534,227.71466761817646 L 309.5218110134871,225.5167717663609 L 309.2822307659457,225.4408241741111 z" id="c46009"/>
		<path d="M 3.9555847135431126,128.56155972958598 L 34.90334351132356,130.01972202265088 L 89.55892552584444,132.03416592124816 L 89.41004745424308,127.54803120374581 L 92.37307112976207,117.22657893854297 L 94.55693651088222,115.41799625425438 L 95.58118918555711,110.1904899777378 L 100.31381430138593,111.85105687519768 L 104.26072431969324,111.33553521179148 L 110.0897670787251,106.12764395828117 L 108.85631120162594,142.95491374582576 L 107.7527520422005,163.33549287610197 L 106.9632020005019,164.69167130358477 L 101.51461223519206,163.7227587841721 L 99.62245041943804,164.61402827918104 L 66.79879774653033,163.6171938190475 L 72.95470420724777,155.93051477283245 L 73.52130948661787,151.84770969259665 L 2.924283882565987,149.05761067098604 L 3.9555847135431126,128.56155972958598 z" id="c46103"/>
		<path d="M 185.38368855108408,104.6988396606306 L 228.75951538731695,104.70403364181495 L 229.4095771944617,105.3444186669529 L 229.51525860567816,128.28990951132045 L 227.87275471718348,131.51746479019303 L 232.26864201976622,133.17459063020698 L 232.18452124153478,136.3997213907537 L 224.13494269848889,134.14366574835955 L 218.18467931238413,134.59602288874706 L 215.4196507449944,129.91733136146345 L 217.78258970472305,126.58365987777037 L 207.87607505124123,121.83508227636763 L 193.54228052406881,118.4363878417683 L 192.49670455494544,112.40332001343297 L 182.6083337077131,110.78636155955117 L 185.38368855108408,104.6988396606306 z" id="c46065"/>
		<path d="M 236.43077411756587,179.47027137949323 L 248.71541498640727,179.39110758695082 L 248.1074608369535,181.6610463450944 L 256.30757950236324,184.5111659318008 L 260.7429190377679,192.0433400741459 L 265.3850448040389,196.3941958808802 L 269.80237682038387,197.19536253507346 L 271.34879314496385,203.2338703079391 L 276.34763737474634,204.3095495306303 L 280.76195954063314,209.191591169966 L 289.4729111190322,211.69789512854615 L 290.9046816269196,214.5832296243436 L 272.60014517792195,214.90500795539114 L 251.3068848349478,215.1570006730355 L 236.65894212506205,215.26827718524683 L 236.43077411756587,179.47027137949323 z" id="c46053"/>
		<path d="M 310.17671014392363,178.50683560636094 L 317.97446203902336,178.26486935220944 L 336.5414344955138,177.70088424192417 L 347.21504194009196,177.37479718875989 L 348.089635603437,200.93572138674895 L 335.647902217722,201.36357492092282 L 312.6913497621381,202.00273055636083 L 310.9525547730739,200.00850687908004 L 310.17671014392363,178.50683560636094 z" id="c46067"/>
		<path d="M 63.12071188709757,54.580643386141894 L 65.7861205765166,2.3856179396201442 L 68.86216010679784,2.4980940763920887 L 77.58969883208884,2.799053371019483 L 85.24985349666045,3.051866699765161 L 96.33412159909474,3.400913062966069 L 108.31323937510209,3.742548532826765 L 112.63755318159708,3.8560151603661277 L 111.84959386008559,37.54200673488591 L 111.07408374092182,68.51223202050458 L 62.664579345647574,66.93713900175798 L 63.12071188709757,54.580643386141894 z" id="c46105"/>
		<path d="M 379.3157508252474,205.94153859194867 L 397.8010064355973,205.25114355160346 L 397.5288219369919,206.33461746879811 L 394.82180107259256,208.42593405567263 L 395.91868239705855,210.86738871802746 L 394.5608560945267,212.88682357626013 L 395.66110813318494,214.14334065711492 L 393.6059443451722,216.8618982951569 L 393.7123392940513,217.85614954794005 L 393.94167089196185,219.99828804684375 L 391.9925398958706,223.71275242275692 L 389.8301294274532,227.26084858129514 L 389.84144810321123,231.10116831034543 L 391.6945265956681,233.69678968532725 L 395.2495470429676,236.89646880225266 L 397.95868539780395,242.48582106987183 L 398.1368711788892,242.8529224345612 L 397.4121835511029,245.6568216066952 L 398.25477175513987,246.16996204569338 L 400.0,247.44847747442512 L 397.07805779855534,248.13903477949808 L 395.73620543917787,246.23278364459767 L 391.19177621898496,246.72179757997733 L 390.2607772930848,245.25955162883128 L 388.5194511763813,242.5215504559752 L 385.7460282471905,239.96819499440429 L 386.1992444826118,235.9922473441568 L 381.9479902145,235.8885782525216 L 380.6115350582763,233.3853105267159 L 380.3052981654197,233.2613096971445 L 379.3157508252474,205.94153859194867 z" id="c46127"/>
		<path d="M 248.71541498640727,179.39110758695082 L 248.72132503728457,179.37771104178228 L 274.8654079636723,179.11743141569937 L 279.4780735960834,179.03679368231187 L 279.56966182808867,188.25986534715076 L 280.9282229782886,188.01796647576234 L 310.9525547730739,200.00850687908004 L 312.6913497621381,202.00273055636083 L 311.13261133873294,207.81166155112496 L 311.1017271605032,223.38311194514384 L 309.2822307659457,225.4408241741111 L 305.0847133026071,224.10756293499063 L 302.5392813617719,223.17314016190147 L 301.04305206600844,222.38411371196028 L 296.8908122139216,220.1901696660359 L 294.3552025203643,219.46750355462422 L 291.97993668328905,217.06325118231453 L 290.9046816269196,214.5832296243436 L 289.4729111190322,211.69789512854615 L 280.76195954063314,209.191591169966 L 276.34763737474634,204.3095495306303 L 271.34879314496385,203.2338703079391 L 269.80237682038387,197.19536253507346 L 265.3850448040389,196.3941958808802 L 260.7429190377679,192.0433400741459 L 256.30757950236324,184.5111659318008 L 248.1074608369535,181.6610463450944 L 248.71541498640727,179.39110758695082 z" id="c46023"/>
		<path d="M 347.21504194009196,177.37479718875989 L 361.3357085261125,176.90478846380375 L 371.95822049518875,176.4914003569172 L 373.12297858651857,206.1769783726826 L 360.76537523101496,206.67064796785917 L 360.5479993536936,200.47704343254802 L 348.089635603437,200.93572138674895 L 347.21504194009196,177.37479718875989 z" id="c46125"/>
		<path d="M 226.8928063948446,30.12217113168836 L 276.12890780889336,29.798212877540024 L 276.29914719925995,31.83712767451568 L 276.646504643041,54.590673727026775 L 233.7562160797031,54.92794787361192 L 226.91772386148588,54.92243741639813 L 226.8928063948446,30.12217113168836 z" id="c46045"/>
		<path d="M 226.28696878760988,5.321669417860974 L 231.61075765209077,5.285981100947532 L 237.63167857057272,5.305099134920699 L 244.86673905015482,5.257546522114573 L 257.41969308045185,5.144637240703387 L 261.75762013544687,5.110802853385653 L 261.763214731786,5.110756203211033 L 275.76965777063657,5.004979174778075 L 276.12890780889336,29.798212877540024 L 226.8928063948446,30.12217113168836 L 226.40374549536784,30.121266863069533 L 226.28696878760988,5.321669417860974 z" id="c46089"/>
		<path d="M 10.898351340124403,0.0 L 30.02987436188712,0.9161839305916722 L 41.268796816923974,1.405460596051941 L 52.03733944658903,1.8541362850352692 L 63.14006991872295,2.286982567424144 L 65.7861205765166,2.3856179396201442 L 63.12071188709757,54.580643386141894 L 8.554819305308984,52.218143036309236 L 8.981691471575976,43.44735952746276 L 9.462457785473465,32.40767262850347 L 9.69285900854829,27.622795211472997 L 10.344070507880932,13.929714688685554 L 10.694007165528271,5.749991546206584 L 10.737767298909528,4.518067269413861 L 10.898351340124403,0.0 z" id="c46063"/>
		<path d="M 157.43747399217645,143.84811168108405 L 158.32766384810463,143.85679195894218 L 158.48107227574616,131.47680267011654 L 193.38879497972798,131.76670559570397 L 193.33801573083807,154.72270823228197 L 194.70402614494978,164.00779481460728 L 193.19338951457274,162.42494636359976 L 187.76335361277887,163.69118528047363 L 182.08060093938371,160.2915689197208 L 174.20103127505533,164.53694157454015 L 171.38552747082306,163.23897747147961 L 168.73743069656607,160.7331955661874 L 164.16912839173852,155.61787752749214 L 158.99673785776366,153.64718993995226 L 157.27987137557542,154.82428578191494 L 157.43747399217645,143.84811168108405 z" id="c46075"/>
		<path d="M 112.63755318159708,3.8560151603661277 L 112.7344610450578,3.8585047496290494 L 122.89562198341149,4.106606973921135 L 134.710166894725,4.372427809356861 L 144.26864956739485,4.545550678498427 L 157.136584348502,4.74974554539419 L 174.30002046699911,4.963359532387965 L 186.75610591311852,5.0694369366740375 L 186.76387491490033,5.069491086729754 L 187.3832318015432,5.074929425376722 L 192.95052120630712,10.422197071692223 L 196.79999965566898,23.25053564442853 L 191.9046349679761,26.056752473114027 L 190.70042359033292,29.989176833277405 L 187.84561952917804,34.133830269425985 L 195.0803383147185,38.71087450103978 L 138.43443668794845,38.11169693661663 L 111.84959386008559,37.54200673488591 L 112.63755318159708,3.8560151603661277 z" id="c46031"/>
		<path d="M 137.04226421316267,69.06437464227496 L 137.50953187220827,44.29195318638887 L 138.43443668794845,38.11169693661663 L 195.0803383147185,38.71087450103978 L 198.45987549860462,45.22196868830289 L 196.76550719308062,51.63381143983571 L 199.13058590728568,54.860359050147 L 195.80026070833887,65.37173479861966 L 198.09529075726078,71.07308064546548 L 192.4208842880077,70.58944222232698 L 191.72056662829775,79.741752771732 L 190.99410174439382,83.61471150294555 L 185.32574980022062,89.08047743733418 L 181.29146969965356,88.8289776144644 L 177.9002127126227,84.96781715857719 L 175.7721459358416,88.67657581804464 L 165.99001013817295,87.66434767469563 L 160.23006105064087,91.84740199299443 L 154.4429691508444,90.13087062874762 L 154.724626708998,72.51229440577839 L 136.25494668372238,72.24177261749887 L 137.04226421316267,69.06437464227496 z" id="c46041"/>
		<path d="M 110.0897670787251,106.12764395828117 L 110.12352873929835,106.0758756568551 L 115.8538726523212,104.30111488471461 L 119.79955243803592,105.53930745413868 L 124.79338451433402,101.57217332145106 L 134.15936655363197,102.58839773237898 L 138.07002662184166,97.78433844968377 L 149.67254443265932,93.97449953804755 L 154.4429691508444,90.13087062874762 L 153.48597128403492,94.19763693725588 L 153.09868738080635,118.93971615560005 L 152.32654440753757,131.42112527926696 L 158.48107227574616,131.47680267011654 L 158.32766384810463,143.85679195894218 L 157.43747399217645,143.84811168108405 L 108.85631120162594,142.95491374582576 L 110.0897670787251,106.12764395828117 z" id="c46055"/>
		<path d="M 228.76869954794518,79.77353029625584 L 233.91912959517788,79.76670089520603 L 247.1530601436123,79.67808887160145 L 247.32801787969973,104.63274200528723 L 248.17326941978064,129.78930786063043 L 233.98580436293153,130.0596273752442 L 229.51525860567816,128.28990951132045 L 229.4095771944617,105.3444186669529 L 228.75951538731695,104.70403364181495 L 228.76869954794518,79.77353029625584 z" id="c46069"/>
		<path d="M 101.51461223519206,163.7227587841721 L 106.9632020005019,164.69167130358477 L 107.7527520422005,163.33549287610197 L 108.85631120162594,142.95491374582576 L 157.43747399217645,143.84811168108405 L 157.27987137557542,154.82428578191494 L 149.31579920972507,157.36983755757862 L 148.7641228856123,158.42106613138165 L 148.32605606155226,186.94885854485227 L 102.40256026990976,185.95048384259934 L 101.09732993975659,179.7215484241644 L 101.51461223519206,163.7227587841721 z" id="c46071"/>
		<path d="M 276.8845524201789,54.589193759124434 L 314.00044993939395,54.06917964868642 L 314.13853111987964,60.28439465237757 L 315.2702364763505,97.49296433250736 L 278.18459807406276,98.07020936799383 L 277.9228970547324,80.49280258467128 L 277.34044119974664,79.33200312809151 L 276.8845524201789,54.589193759124434 z" id="c46115"/>
		<path d="M 335.647902217722,201.36357492092282 L 348.089635603437,200.93572138674895 L 360.5479993536936,200.47704343254802 L 360.76537523101496,206.67064796785917 L 361.45416783538747,226.02659933030537 L 361.2571948050831,227.4747632264258 L 358.6185841599234,225.52890899042566 L 357.28251554087336,223.2180439779449 L 353.88260672636545,222.43848224442561 L 351.8532974891559,223.20398066310503 L 347.8473610604304,222.61696907716808 L 346.0493394954371,224.09300101881217 L 344.3217610233331,223.8645759657819 L 342.68453871685267,223.64742516919975 L 338.3059224627475,223.60267607824954 L 336.4158333286988,223.97395195234338 L 335.647902217722,201.36357492092282 z" id="c46135"/>
		<path d="M 2.924283882565987,149.05761067098604 L 73.52130948661787,151.84770969259665 L 72.95470420724777,155.93051477283245 L 66.79879774653033,163.6171938190475 L 61.94830520696352,164.35083402426628 L 56.66644050217649,169.09040844431536 L 56.3307538223766,178.2876599049099 L 1.6236520643999264,175.8330869561444 L 1.7091067279748258,174.0144801967209 L 1.894271437706398,170.0742478286008 L 2.924283882565987,149.05761067098604 z" id="c46033"/>
		<path d="M 317.20461234475226,153.1831420309072 L 323.203030121982,153.08736444870334 L 335.72721467471945,152.7930320069546 L 336.5414344955138,177.70088424192417 L 317.97446203902336,178.26486935220944 L 317.20461234475226,153.1831420309072 z" id="c46061"/>
		<path d="M 321.7898853374268,103.54934591539372 L 340.1922013251117,103.05685499309295 L 358.7703882185476,102.49346271535599 L 359.56455355626133,127.2540299068171 L 347.23079277641216,127.74185430718241 L 322.6319818015249,128.44948936379643 L 322.4180954118912,128.45530959407645 L 321.7898853374268,103.54934591539372 z" id="c46077"/>
		<path d="M 56.66644050217649,169.09040844431536 L 61.94830520696352,164.35083402426628 L 66.79879774653033,163.6171938190475 L 99.62245041943804,164.61402827918104 L 101.51461223519206,163.7227587841721 L 101.09732993975659,179.7215484241644 L 102.40256026990976,185.95048384259934 L 102.01830212174899,204.54846288774084 L 103.15932714688408,213.8680594486706 L 103.15609469365377,213.86796971919486 L 86.079869061822,213.35952516836534 L 66.00152067649715,212.6850753045591 L 55.0861026902678,212.27845835498877 L 56.3307538223766,178.2876599049099 L 56.66644050217649,169.09040844431536 z" id="c46102"/>
		<path d="M 279.4780735960834,179.03679368231187 L 299.48563126482145,178.71697897064305 L 310.17671014392363,178.50683560636094 L 310.9525547730739,200.00850687908004 L 280.9282229782886,188.01796647576234 L 279.56966182808867,188.25986534715076 L 279.4780735960834,179.03679368231187 z" id="c46043"/>
		<path d="M 187.3832318015432,5.074929425376722 L 197.60217982324355,5.150919284159146 L 204.67495530205287,5.226298588861289 L 218.20896487573262,5.287104792794509 L 218.22041951784317,5.287165266457766 L 226.28696878760988,5.321669417860974 L 226.40374549536784,30.121266863069533 L 190.70042359033292,29.989176833277405 L 191.9046349679761,26.056752473114027 L 196.79999965566898,23.25053564442853 L 192.95052120630712,10.422197071692223 L 187.3832318015432,5.074929425376722 z" id="c46021"/>
		<path d="M 350.25545957932746,3.3581445453710854 L 357.53132223169825,3.0891231920394513 L 383.33110835465124,2.1187368626699734 L 383.11471203938527,6.657073495774176 L 382.52310594495776,10.639748026191103 L 380.4629203681584,13.246870187837022 L 378.50287813002797,16.815341956970244 L 374.97447581901815,19.1559966040227 L 371.05598049401686,22.698043485566863 L 369.87907364849565,25.226066713934006 L 370.33327063830484,27.02309827061934 L 370.7826722701344,27.56793253558726 L 373.6479467309686,31.03714146430806 L 375.74301484766653,35.042089155032215 L 377.4554785616603,37.957724848848244 L 379.30772453681595,39.789986669053 L 382.2128783911238,39.82128186766428 L 385.0710563179036,41.27231283365339 L 387.1304980623781,41.930341198016045 L 389.19281578576425,43.939155127979774 L 389.88071631971565,45.30014196004805 L 363.5818804454482,46.35675805878579 L 362.9267543636973,48.524318579320635 L 351.91710489804586,48.860805616758924 L 351.2379282842537,30.282462494643866 L 350.25545957932746,3.3581445453710854 z" id="c46109"/>
		<path d="M 190.70042359033292,29.989176833277405 L 226.40374549536784,30.121266863069533 L 226.8928063948446,30.12217113168836 L 226.91772386148588,54.92243741639813 L 199.13058590728568,54.860359050147 L 196.76550719308062,51.63381143983571 L 198.45987549860462,45.22196868830289 L 195.0803383147185,38.71087450103978 L 187.84561952917804,34.133830269425985 L 190.70042359033292,29.989176833277405 z" id="c46129"/>
		<path d="M 193.39513280848328,129.91673655302063 L 215.4196507449944,129.91733136146345 L 218.18467931238413,134.59602288874706 L 224.13494269848889,134.14366574835955 L 232.18452124153478,136.3997213907537 L 232.26864201976622,133.17459063020698 L 227.87275471718348,131.51746479019303 L 229.51525860567816,128.28990951132045 L 233.98580436293153,130.0596273752442 L 234.74136917921257,136.54188663426535 L 245.94440926289005,145.03429468650788 L 245.4626642743585,148.39731493584608 L 247.83306187927715,154.02617149928514 L 242.74653149448818,159.81769685981234 L 242.94766439883097,164.76447753953573 L 239.7463349665645,167.1040677717379 L 244.6092320281208,168.20643131195817 L 248.72132503728457,179.37771104178228 L 248.71541498640727,179.39110758695082 L 236.43077411756587,179.47027137949323 L 231.8023825940437,179.4902000581145 L 231.72143664984014,162.1816127994968 L 230.02809668978165,160.5114320935836 L 226.22301863083482,163.8867068595958 L 220.64564880738232,166.02495242305815 L 213.20780106083566,166.17254658818806 L 211.38806591586743,164.77200803180077 L 206.28401706284944,166.28865421658392 L 200.29957445115167,164.2477010054619 L 197.749684195125,165.45711249613123 L 194.70402614494978,164.00779481460728 L 193.33801573083807,154.72270823228197 L 193.38879497972798,131.76670559570397 L 193.39513280848328,129.91673655302063 z" id="c46085"/>
		<path d="M 5.477372650612163,97.92411131764696 L 17.56575060127849,96.09900555823542 L 30.445980724232157,96.73565601219832 L 29.006549986135656,121.52850416026354 L 35.226875281968454,121.76065635043346 L 34.90334351132356,130.01972202265088 L 3.9555847135431126,128.56155972958598 L 4.096508303567863,125.76079121608173 L 4.346069971547982,120.80087550719814 L 5.477372650612163,97.92411131764696 z" id="c46081"/>
		<path d="M 351.91710489804586,48.860805616758924 L 362.9267543636973,48.524318579320635 L 363.5818804454482,46.35675805878579 L 389.88071631971565,45.30014196004805 L 390.5590092887784,46.64118123621578 L 390.6912950979642,49.40051815366384 L 391.6880465079918,70.1811792666158 L 370.1069090672276,71.10356742467081 L 369.54977568178083,58.74595243459715 L 352.2716889003421,59.260352394364574 L 351.91710489804586,48.860805616758924 z" id="c46051"/>
		<path d="M 312.8963323048355,4.444565083019135 L 322.9406734027708,4.219841046051564 L 334.61163066215533,3.8920172047926402 L 350.25545957932746,3.3581445453710854 L 351.2379282842537,30.282462494643866 L 344.34447052376663,30.472105708302916 L 343.84031749645015,28.42451092543748 L 313.4746073875269,29.235661421003933 L 312.8963323048355,4.444565083019135 z" id="c46091"/>
		<path d="M 148.7641228856123,158.42106613138165 L 149.31579920972507,157.36983755757862 L 157.27987137557542,154.82428578191494 L 158.99673785776366,153.64718993995226 L 164.16912839173852,155.61787752749214 L 168.73743069656607,160.7331955661874 L 171.38552747082306,163.23897747147961 L 174.20103127505533,164.53694157454015 L 182.08060093938371,160.2915689197208 L 187.76335361277887,163.69118528047363 L 193.19338951457274,162.42494636359976 L 194.70402614494978,164.00779481460728 L 197.749684195125,165.45711249613123 L 200.29957445115167,164.2477010054619 L 200.24399059798674,181.07980965811038 L 201.09892879265038,187.33794510502258 L 148.32605606155226,186.94885854485227 L 148.7641228856123,158.42106613138165 z" id="c46095"/>
		<path d="M 153.09868738080635,118.93971615560005 L 153.48597128403492,94.19763693725588 L 154.4429691508444,90.13087062874762 L 160.23006105064087,91.84740199299443 L 165.99001013817295,87.66434767469563 L 175.7721459358416,88.67657581804464 L 181.01537212365665,93.27182794326687 L 180.5776599583191,103.28935473484873 L 185.38368855108408,104.6988396606306 L 182.6083337077131,110.78636155955117 L 192.49670455494544,112.40332001343297 L 193.54228052406881,118.4363878417683 L 207.87607505124123,121.83508227636763 L 217.78258970472305,126.58365987777037 L 215.4196507449944,129.91733136146345 L 193.39513280848328,129.91673655302063 L 193.38879497972798,131.76670559570397 L 158.48107227574616,131.47680267011654 L 152.32654440753757,131.42112527926696 L 153.09868738080635,118.93971615560005 z" id="c46117"/>
		<path d="M 111.07408374092182,68.51223202050458 L 111.84959386008559,37.54200673488591 L 138.43443668794845,38.11169693661663 L 137.50953187220827,44.29195318638887 L 137.04226421316267,69.06437464227496 L 136.25494668372238,72.24177261749887 L 154.724626708998,72.51229440577839 L 154.4429691508444,90.13087062874762 L 149.67254443265932,93.97449953804755 L 138.07002662184166,97.78433844968377 L 134.15936655363197,102.58839773237898 L 124.79338451433402,101.57217332145106 L 119.79955243803592,105.53930745413868 L 115.8538726523212,104.30111488471461 L 110.12352873929835,106.0758756568551 L 111.07408374092182,68.51223202050458 z" id="c46137"/>
		<path d="M 177.9002127126227,84.96781715857719 L 181.29146969965356,88.8289776144644 L 185.32574980022062,89.08047743733418 L 190.99410174439382,83.61471150294555 L 191.72056662829775,79.741752771732 L 228.76869954794518,79.77353029625584 L 228.75951538731695,104.70403364181495 L 185.38368855108408,104.6988396606306 L 180.5776599583191,103.28935473484873 L 181.01537212365665,93.27182794326687 L 175.7721459358416,88.67657581804464 L 177.9002127126227,84.96781715857719 z" id="c46119"/>
		<path d="M 335.72721467471945,152.7930320069546 L 348.06735591166137,152.44820757460226 L 360.47471171566025,152.0659518510648 L 361.3357085261125,176.90478846380375 L 347.21504194009196,177.37479718875989 L 336.5414344955138,177.70088424192417 L 335.72721467471945,152.7930320069546 z" id="c46087"/>
	</g>
</svg>