<?xml version="1.0" encoding="UTF-8"?>
<svg baseProfile="full" fill="#d0d0d0" height="318.02558978118867" stroke="#ffffff" stroke-width="1" version="1.1" width="400.0" xmlns="http://www.w3.org/2000/svg" xmlns:ev="http://www.w3.org/2001/xml-events" xmlns:xlink="http://www.w3.org/1999/xlink">
	<defs/>
	<g id="counties"><path d="M 129.8861865141432,37.14888598353323 L 135.85950820694705,29.63371556792074 L 154.79600749458427,34.35931089452105 L 156.82222303939577,37.09469615146678 L 155.0633674267391,38.86686750069195 L 154.21023502951365,47.72484704176873 L 160.1553973151198,57.71199770236131 L 159.56623099526175,63.87542516057002 L 159.1477053209917,68.13509218039853 L 159.49005829173075,71.65226153369925 L 149.66168826899113,76.53526985270574 L 141.24595868142973,67.62467024064067 L 138.4630394052269,65.17103878954744 L 123.85369286816763,61.39924269411377 L 129.8861865141432,37.14888598353323 z" id="c45087"/>
		<path d="M 94.57835571566898,1.128835555747819 L 108.35863212970051,1.6420740076546383 L 109.07728117035722,1.6682252757950258 L 114.85615168424323,1.9770787988184817 L 122.6626032798751,2.3880260714875607 L 128.1687164332003,15.258597998296992 L 132.2921970863753,27.83496559586601 L 135.85950820694705,29.63371556792074 L 129.8861865141432,37.14888598353323 L 123.85369286816763,61.39924269411377 L 123.07369622025843,62.82687336957771 L 105.94391575635177,50.244976676985424 L 99.81653617933225,42.03409567661876 L 98.3166809043577,40.91210008359257 L 93.30394448936227,35.45019978044323 L 94.57835571566898,1.128835555747819 z" id="c45083"/>
		<path d="M 280.40021966053746,148.6861465717112 L 278.5767085724642,144.0661447364598 L 285.2410382565036,138.9176102523105 L 288.48508078069244,132.21395944584071 L 304.2571083031385,140.07241519050464 L 308.5999230138236,138.70193048646155 L 320.3069237816574,142.8121559274576 L 334.66170108187873,140.212823146614 L 335.30124953517935,142.12973052171924 L 327.72550047021485,151.36160959521052 L 325.6919862581481,163.02785725396524 L 317.22195424403355,170.7430074312363 L 305.7424308264509,186.9678069683334 L 305.8139432638126,190.1180250781822 L 280.9148167596729,170.80078514295715 L 269.9435703243278,171.28339727887249 L 280.40021966053746,148.6861465717112 z" id="c45089"/>
		<path d="M 283.4264491024035,39.86647465365789 L 302.57479580268875,39.93293382084924 L 304.03301916331293,39.93623513306938 L 321.9322716631368,57.189961658191194 L 322.89955526884745,58.11928767230773 L 308.16455512061765,90.64115364753003 L 306.1314784653083,89.94708326399225 L 298.2603132758872,76.86442629316446 L 297.9841415478451,69.12916225522821 L 291.5631471962169,67.4147632906324 L 295.8194198054164,59.19541388690558 L 287.90694022490686,51.237045274899785 L 283.2022155864728,39.86544198398476 L 283.4264491024035,39.86647465365789 z" id="c45069"/>
		<path d="M 272.08168097548236,112.25392747448699 L 300.5724426840556,90.83895053137381 L 306.1314784653083,89.94708326399225 L 308.16455512061765,90.64115364753003 L 310.8681306052033,91.35233582985353 L 315.363050704561,97.26144872728447 L 313.44030100636036,102.01786954911408 L 318.2685666046534,110.61109189575677 L 318.28095528777055,120.94896763574019 L 334.66170108187873,140.212823146614 L 320.3069237816574,142.8121559274576 L 308.5999230138236,138.70193048646155 L 304.2571083031385,140.07241519050464 L 288.48508078069244,132.21395944584071 L 282.6420054186562,132.22828823556137 L 280.1584233843072,126.16375782607082 L 286.88035277835615,121.93954774113789 L 286.01938932175364,120.52389300209754 L 277.89117031273184,116.03658623628516 L 275.75544369380674,113.5184436579676 L 272.08168097548236,112.25392747448699 z" id="c45041"/>
		<path d="M 85.615643338875,72.07066718801407 L 92.13531350848038,66.95990024046137 L 92.03678517744028,61.8377361809076 L 99.81653617933225,42.03409567661876 L 105.94391575635177,50.244976676985424 L 123.07369622025843,62.82687336957771 L 123.85369286816763,61.39924269411377 L 138.4630394052269,65.17103878954744 L 141.24595868142973,67.62467024064067 L 136.24709827011543,75.7068416076356 L 133.4185151466728,77.89923773081051 L 129.59117488434921,84.42659809947345 L 120.17557396652448,90.81910933673079 L 115.95698174974582,100.53092883469493 L 104.52196094392538,90.79511905257957 L 97.47732547545165,87.62251766793656 L 91.13660870750577,79.58352920413058 L 85.89895247591701,73.81166144620657 L 85.615643338875,72.07066718801407 z" id="c45059"/>
		<path d="M 147.32746453101888,131.94078118817555 L 155.25808421146442,113.47809735428403 L 161.7429990451878,114.01238002234805 L 158.18049009211379,108.1423193982165 L 166.38127090936945,101.40107025005301 L 171.60638162106028,111.45142539107044 L 182.979182513905,114.3823216671515 L 190.24015631664057,121.47131166470159 L 193.55657605911657,133.24188722602048 L 189.69124397919026,146.56092960073943 L 193.4155090998578,143.13893014297406 L 200.8618553417902,145.58375467405108 L 191.00008534226453,150.55900639689736 L 187.33542249962866,151.73044240856308 L 178.90461175350987,155.97200358383358 L 159.62195989343485,147.7542736171889 L 146.85549842768378,133.38654882372242 L 147.32746453101888,131.94078118817555 z" id="c45063"/>
		<path d="M 154.45681536161186,17.492069878753703 L 160.89996830493646,16.370806558737023 L 164.34215409889507,4.585031034973621 L 167.59252295906697,4.776937658284271 L 191.05865951848142,6.125299905104323 L 191.10526050869655,6.373719744698527 L 191.56057150937434,8.800086409964731 L 189.80697394593267,13.744600630300384 L 191.16809482150816,16.599151987620495 L 199.94184258430235,10.31605186659814 L 202.3084339450864,13.542647062939647 L 205.41996998582349,25.965686805333352 L 205.59478431671775,36.29054165658544 L 202.99447231529953,39.03064340990144 L 155.0633674267391,38.86686750069195 L 156.82222303939577,37.09469615146678 L 153.99626947504817,26.095017674427876 L 154.45681536161186,17.492069878753703 z" id="c45091"/>
		<path d="M 159.1477053209917,68.13509218039853 L 159.56623099526175,63.87542516057002 L 204.7393719434731,66.8338508352314 L 202.98537978070087,72.48969346783394 L 204.60549164865705,75.3841805418618 L 213.6909022752785,83.44743857841281 L 209.05955442894944,94.3075746870748 L 186.61105536509385,99.81279252799206 L 179.51292762251057,99.16105650077967 L 179.7465226275445,103.74130827430326 L 168.22891255956227,97.21379666459723 L 166.12668145973842,94.45609964135703 L 159.49005829173075,71.65226153369925 L 159.1477053209917,68.13509218039853 z" id="c45039"/>
		<path d="M 230.7976819259253,39.28504168559239 L 250.69438965985088,39.5641430285278 L 270.8227264621581,39.799292059829604 L 283.2022155864728,39.86544198398476 L 287.90694022490686,51.237045274899785 L 295.8194198054164,59.19541388690558 L 291.5631471962169,67.4147632906324 L 287.09646066970475,71.52277368746432 L 273.74186819601374,71.53363651798198 L 253.66597475136444,84.35738831270301 L 253.90090746267308,81.60449785792571 L 250.34198478907757,71.20412399736743 L 243.5765239739493,59.526455689381855 L 236.8944263551257,50.565604527492646 L 230.7934228843127,39.28491947754543 L 230.7976819259253,39.28504168559239 z" id="c45025"/>
		<path d="M 109.33892435669927,167.96753068816437 L 140.11156511281166,139.6359297774561 L 146.85549842768378,133.38654882372242 L 159.62195989343485,147.7542736171889 L 178.90461175350987,155.97200358383358 L 163.29909995916998,172.20268091628992 L 132.09015371385928,200.22736951569775 L 130.3993685916192,201.37455765240844 L 130.31746955253655,200.73492104254834 L 123.36243642821864,196.86603004513177 L 123.3699360235184,196.31477073363007 L 123.4469941298992,190.64898373102395 L 116.20202794570267,186.61166757859664 L 117.3221243509237,179.89172284889264 L 116.84708646492,174.6622337241177 L 111.45581464820914,171.47829569061182 L 109.33892435669927,167.96753068816437 z" id="c45003"/>
		<path d="M 122.6626032798751,2.3880260714875607 L 131.4012031613803,2.839495927155472 L 153.92420847292283,3.9615075354089053 L 164.34215409889507,4.585031034973621 L 160.89996830493646,16.370806558737023 L 154.45681536161186,17.492069878753703 L 153.99626947504817,26.095017674427876 L 156.82222303939577,37.09469615146678 L 154.79600749458427,34.35931089452105 L 135.85950820694705,29.63371556792074 L 132.2921970863753,27.83496559586601 L 128.1687164332003,15.258597998296992 L 122.6626032798751,2.3880260714875607 z" id="c45021"/>
		<path d="M 170.4802266131768,266.67653296499265 L 193.34893255642376,246.08822486427755 L 202.85266923285158,259.2510627847623 L 205.62225776931268,255.30550632252388 L 208.43888122203595,260.5172622616345 L 209.97779780625694,275.0247457797749 L 208.05713484402517,282.9255464324078 L 200.11964170198283,291.4412409854464 L 194.04471821773726,290.8007914459965 L 193.20962332402482,297.16030786670296 L 205.8899610248612,313.62844971092056 L 204.35246852223744,318.02558978118867 L 199.4282544895977,315.70392800012945 L 194.01139992837074,311.36625278293985 L 191.32396123612452,313.0363424922923 L 184.92689184182746,310.15396474904264 L 184.42060527077174,303.7506918674595 L 182.0231105026926,298.73788872708377 L 181.51941992812218,297.68394457110554 L 183.69424365600295,293.8205919489486 L 183.2765940672232,287.96238571549327 L 179.84684612064254,282.9396520598599 L 178.02871987365484,280.27421998282665 L 178.0475013216057,274.9074048292295 L 171.26913222926342,266.9743501047544 L 170.4802266131768,266.67653296499265 z" id="c45053"/>
		<path d="M 155.0633674267391,38.86686750069195 L 202.99447231529953,39.03064340990144 L 204.82350870939018,42.3040532571876 L 206.14556355074575,51.53760799768964 L 203.16288040207792,57.95806764344291 L 204.7393719434731,66.8338508352314 L 159.56623099526175,63.87542516057002 L 160.1553973151198,57.71199770236131 L 154.21023502951365,47.72484704176873 L 155.0633674267391,38.86686750069195 z" id="c45023"/>
		<path d="M 237.88212546914718,104.23158835263341 L 241.3564119297665,92.61595912502358 L 253.65942785851402,84.56454609474882 L 257.46434796526086,88.51189674064659 L 262.914768589915,84.28913913244565 L 268.4164226023084,101.18737546974577 L 264.62976853488453,104.76370961041478 L 272.08168097548236,112.25392747448699 L 275.75544369380674,113.5184436579676 L 277.89117031273184,116.03658623628516 L 262.97781434219723,125.76074037497561 L 258.94702929824825,121.47626223246557 L 251.10297486671158,113.00150803717453 L 237.78869759525952,109.84744550620347 L 237.88212546914718,104.23158835263341 z" id="c45061"/>
		<path d="M 189.69124397919026,146.56092960073943 L 193.55657605911657,133.24188722602048 L 201.49779105104452,139.88254041303819 L 212.57927054390836,145.1462508618496 L 226.36463584288703,146.88601048445133 L 225.74795599298503,148.0923420160262 L 233.60522097848673,156.80202986125025 L 233.07344051740836,158.2942541101363 L 236.81352193364867,165.34110204462215 L 232.11617936217868,164.6685262995039 L 226.7630753924729,174.64365689369353 L 210.70410219733336,160.86313744967237 L 199.6308123062643,160.40435936713243 L 195.90870762794074,156.8011672049417 L 191.00008534226453,150.55900639689736 L 200.8618553417902,145.58375467405108 L 193.4155090998578,143.13893014297406 L 189.69124397919026,146.56092960073943 z" id="c45017"/>
		<path d="M 336.1151762425749,116.84489479959925 L 340.637975519797,114.2605789529771 L 343.7858358211664,104.53083008825202 L 350.3891789023679,96.25228809296705 L 350.23259600238816,94.4231813624798 L 353.6561205058218,90.22336410084628 L 354.8789486318485,89.76421202515641 L 354.8798454985579,89.76510435324275 L 354.8861651128363,89.77139197898825 L 376.9087695544238,111.19155134942496 L 390.6166070651398,124.50758794325216 L 393.5999227385944,127.39730617187274 L 400.0,133.6988423329429 L 389.11952747449226,137.30872386805407 L 380.82972039721847,142.4067276735652 L 373.4189508082156,148.8585839878477 L 367.2630713554749,155.57638724220126 L 362.61603421446756,162.39400786888015 L 353.73733165886335,162.5311728933661 L 350.50495312695693,153.46059607637883 L 346.03013765888426,149.36831244029716 L 339.98748311747266,138.54941093015682 L 340.16784975766984,132.12540082856225 L 333.1535282966985,123.15212335221591 L 336.1151762425749,116.84489479959925 z" id="c45051"/>
		<path d="M 315.363050704561,97.26144872728447 L 320.86938953159347,91.45660314074253 L 329.19834803480285,90.07903260631585 L 343.0661274327524,94.3610039537597 L 350.23259600238816,94.4231813624798 L 350.3891789023679,96.25228809296705 L 343.7858358211664,104.53083008825202 L 340.637975519797,114.2605789529771 L 336.1151762425749,116.84489479959925 L 333.1535282966985,123.15212335221591 L 340.16784975766984,132.12540082856225 L 339.98748311747266,138.54941093015682 L 346.03013765888426,149.36831244029716 L 341.3520537076195,150.4944883100661 L 335.30124953517935,142.12973052171924 L 334.66170108187873,140.212823146614 L 318.28095528777055,120.94896763574019 L 318.2685666046534,110.61109189575677 L 313.44030100636036,102.01786954911408 L 315.363050704561,97.26144872728447 z" id="c45067"/>
		<path d="M 163.29909995916998,172.20268091628992 L 178.90461175350987,155.97200358383358 L 187.33542249962866,151.73044240856308 L 191.00008534226453,150.55900639689736 L 195.90870762794074,156.8011672049417 L 199.6308123062643,160.40435936713243 L 210.70410219733336,160.86313744967237 L 226.7630753924729,174.64365689369353 L 232.11617936217868,164.6685262995039 L 236.81352193364867,165.34110204462215 L 245.52511775854535,176.62312148523526 L 259.8694169306355,176.6895419820284 L 257.32398362893065,191.1726008398724 L 248.2680381360059,195.42032001093344 L 237.93294456598315,193.21601804549033 L 236.37510665109326,187.7705085821074 L 212.24251269858507,203.238089989992 L 211.60204252297362,203.62945702889203 L 207.5312019972055,197.49033036202607 L 204.08217193083718,194.90602119007013 L 203.8775782087518,195.19640773694002 L 203.64870928253816,194.48515315531762 L 201.4465134987362,192.9871803982222 L 199.6223020414362,190.96708108759103 L 175.8941764325686,177.28711992258704 L 169.29375244389144,173.14331872953395 L 163.29909995916998,172.20268091628992 z" id="c45075"/>
		<path d="M 248.2680381360059,195.42032001093344 L 257.32398362893065,191.1726008398724 L 259.8694169306355,176.6895419820284 L 265.9566900733972,176.14915338687106 L 269.9435703243278,171.28339727887249 L 280.9148167596729,170.80078514295715 L 305.8139432638126,190.1180250781822 L 324.2682753289254,196.84423786102377 L 325.3135691905828,199.00767147721965 L 319.3357085446596,205.62044098616082 L 308.9467981959264,208.18379200428984 L 293.507317177607,228.91588974764662 L 287.7730106743709,235.0068777866801 L 286.37603529549284,239.01436363112825 L 285.96210003811973,239.00878933497393 L 285.18733420906193,238.5169951894044 L 285.0106280525279,236.2053631129461 L 282.7732750306431,234.9561604248386 L 282.0722781818325,233.14491512395483 L 282.2261019480475,231.75234112223353 L 283.2277910123969,229.90661101676542 L 280.2562377783202,230.5335680131726 L 277.0629850601188,228.83956745597487 L 274.2771901762491,221.0474632939072 L 266.346600116516,218.90458007179586 L 257.68466296246464,212.15312903068556 L 254.40345812554298,209.6202077673241 L 253.83095902476327,203.19309148280968 L 248.2680381360059,195.42032001093344 z" id="c45015"/>
		<path d="M 115.95698174974582,100.53092883469493 L 120.17557396652448,90.81910933673079 L 129.59117488434921,84.42659809947345 L 133.4185151466728,77.89923773081051 L 136.24709827011543,75.7068416076356 L 141.24595868142973,67.62467024064067 L 149.66168826899113,76.53526985270574 L 159.49005829173075,71.65226153369925 L 166.12668145973842,94.45609964135703 L 168.22891255956227,97.21379666459723 L 166.38127090936945,101.40107025005301 L 158.18049009211379,108.1423193982165 L 161.7429990451878,114.01238002234805 L 155.25808421146442,113.47809735428403 L 152.71489572542467,113.73368259034893 L 147.2265441103611,111.12090803657743 L 133.7017813108655,102.23064160046746 L 122.96339853283874,102.97312019263332 L 122.13456710992811,107.37417172295613 L 119.89002622007416,106.25839443785767 L 115.95698174974582,100.53092883469493 z" id="c45071"/>
		<path d="M 159.62906555089404,246.89923809493467 L 165.9472928925223,244.49963434453124 L 172.46894793607024,237.44122982315702 L 174.58046986720038,227.32297805850126 L 187.6455157468787,218.6936489906192 L 195.70951467473088,231.3078475202434 L 203.03466949434358,238.1166717392607 L 209.29056679036916,250.95591175065337 L 205.62225776931268,255.30550632252388 L 202.85266923285158,259.2510627847623 L 193.34893255642376,246.08822486427755 L 170.4802266131768,266.67653296499265 L 166.70947036099676,265.2517894761902 L 161.79285284457166,261.4561324835836 L 160.93051356014126,260.7897802198442 L 161.2274574161652,255.99426657618562 L 159.66480208200323,247.41788163389856 L 159.62906555089404,246.89923809493467 z" id="c45049"/>
		<path d="M 92.19002359692308,150.47750693295026 L 101.51741796537307,137.76717354850936 L 98.12147537448065,127.7749426745035 L 107.22064131500555,125.47653195757239 L 110.45613311507145,124.66391549137212 L 119.954950346455,123.37253113802737 L 124.68782139000426,134.31868399902987 L 140.11156511281166,139.6359297774561 L 109.33892435669927,167.96753068816437 L 108.37729656493677,166.37158736954433 L 101.89207131096356,161.2275196077641 L 98.86834065362982,160.21704423484124 L 97.24461116831756,159.6738911240827 L 94.12928854628738,154.93510169787865 L 92.80912868926491,151.9011441809411 L 92.19002359692308,150.47750693295026 z" id="c45037"/>
		<path d="M 50.1713442569876,98.44426369372354 L 85.615643338875,72.07066718801407 L 85.89895247591701,73.81166144620657 L 91.13660870750577,79.58352920413058 L 83.75459905796387,86.20649100121496 L 90.78978647575816,98.61437403730466 L 89.03634823890562,109.73555275823949 L 84.00178012298643,114.10288568138785 L 67.04531135357334,113.08679172508347 L 61.58415997539011,118.85366991638926 L 57.70896878175003,112.00332263076545 L 51.7736143603655,105.21131316919492 L 50.1713442569876,98.44426369372354 z" id="c45001"/>
		<path d="M 142.6712539451109,212.26295378705925 L 148.95068538647237,205.39530121823316 L 163.84131293261115,210.48878931027295 L 178.31663384309257,209.46582622712566 L 186.16280306471648,216.52241129964798 L 187.6455157468787,218.6936489906192 L 174.58046986720038,227.32297805850126 L 172.46894793607024,237.44122982315702 L 165.9472928925223,244.49963434453124 L 159.62906555089404,246.89923809493467 L 159.02959782998013,238.18947856585564 L 155.38663642616453,231.50627119759687 L 152.4104610577609,226.89573717729706 L 152.23716247770233,219.74670390031574 L 148.71506033603472,216.79645705293908 L 143.87384794973872,212.73568547877915 L 142.6712539451109,212.26295378705925 z" id="c45005"/>
		<path d="M 30.550416271426982,70.33438837402973 L 42.23290076716421,57.47344838815937 L 46.6722879556641,52.581233325301504 L 71.73494551733182,38.344660625579266 L 74.06056687334868,42.34596531270477 L 73.12927634259133,53.56733299765953 L 76.89133379812709,64.4021861745014 L 85.615643338875,72.07066718801407 L 50.1713442569876,98.44426369372354 L 49.47225340052491,95.48800164150633 L 47.081858549327166,91.08975946152891 L 46.62422988555763,90.24712790458314 L 43.151389330219516,83.95935837410133 L 41.681724455454756,79.83714051655993 L 39.16973135615728,72.6057409978728 L 34.88191434537455,71.49575923400977 L 29.423486125799794,72.27594999753526 L 30.550416271426982,70.33438837402973 z" id="c45007"/>
		<path d="M 175.8941764325686,177.28711992258704 L 199.6223020414362,190.96708108759103 L 201.4465134987362,192.9871803982222 L 203.64870928253816,194.48515315531762 L 203.8775782087518,195.19640773694002 L 204.08217193083718,194.90602119007013 L 207.5312019972055,197.49033036202607 L 211.60204252297362,203.62945702889203 L 203.39665441947125,208.8077278703149 L 203.34849849520063,215.20962624179776 L 199.88222841702623,211.08983940000843 L 187.6455157468787,218.6936489906192 L 186.16280306471648,216.52241129964798 L 178.31663384309257,209.46582622712566 L 175.4018146028173,205.25169401761715 L 175.8941764325686,177.28711992258704 z" id="c45009"/>
		<path d="M 49.469880039097355,11.636166438125215 L 50.76378737118824,11.935521648584254 L 55.81089796713746,7.468917227706624 L 64.75978021678824,5.412824107734925 L 68.48879915982388,4.552954142995285 L 74.85059609519314,2.45978409418229 L 78.52934478751895,0.0 L 83.3040362387624,0.4415046473908279 L 88.05417487305441,0.8780341261272108 L 94.57835571566898,1.128835555747819 L 93.30394448936227,35.45019978044323 L 98.3166809043577,40.91210008359257 L 99.81653617933225,42.03409567661876 L 92.03678517744028,61.8377361809076 L 92.13531350848038,66.95990024046137 L 85.615643338875,72.07066718801407 L 76.89133379812709,64.4021861745014 L 73.12927634259133,53.56733299765953 L 74.06056687334868,42.34596531270477 L 71.73494551733182,38.344660625579266 L 67.84367341143866,18.562762807768884 L 63.19457533825093,19.242842417762034 L 65.17166343922231,12.62491023281597 L 50.47026289227106,15.066922943126848 L 49.469880039097355,11.636166438125215 z" id="c45045"/>
		<path d="M 305.7424308264509,186.9678069683334 L 317.22195424403355,170.7430074312363 L 325.6919862581481,163.02785725396524 L 327.72550047021485,151.36160959521052 L 335.30124953517935,142.12973052171924 L 341.3520537076195,150.4944883100661 L 346.03013765888426,149.36831244029716 L 350.50495312695693,153.46059607637883 L 353.73733165886335,162.5311728933661 L 362.61603421446756,162.39400786888015 L 359.89341159986975,166.38206758825146 L 355.2845916618663,171.44558319405425 L 351.1627737996598,179.51266104613248 L 349.0412492683271,187.223696916756 L 347.6664911108128,196.18978654436066 L 348.4092826443066,199.31891934708236 L 344.8737125505322,204.48871148150104 L 339.96130259683076,208.12839497497015 L 340.3626102416396,206.43665830926923 L 333.4782544626572,204.88242149290392 L 325.3135691905828,199.00767147721965 L 324.2682753289254,196.84423786102377 L 305.8139432638126,190.1180250781822 L 305.7424308264509,186.9678069683334 z" id="c45043"/>
		<path d="M 233.60522097848673,156.80202986125025 L 240.65626258870884,147.39332055774693 L 256.2262142744369,141.44137295776426 L 261.81889013008157,137.09551988955053 L 280.1584233843072,126.16375782607082 L 282.6420054186562,132.22828823556137 L 288.48508078069244,132.21395944584071 L 285.2410382565036,138.9176102523105 L 278.5767085724642,144.0661447364598 L 280.40021966053746,148.6861465717112 L 269.9435703243278,171.28339727887249 L 265.9566900733972,176.14915338687106 L 259.8694169306355,176.6895419820284 L 245.52511775854535,176.62312148523526 L 236.81352193364867,165.34110204462215 L 233.07344051740836,158.2942541101363 L 233.60522097848673,156.80202986125025 z" id="c45027"/>
		<path d="M 253.66597475136444,84.35738831270301 L 273.74186819601374,71.53363651798198 L 287.09646066970475,71.52277368746432 L 291.5631471962169,67.4147632906324 L 297.9841415478451,69.12916225522821 L 298.2603132758872,76.86442629316446 L 306.1314784653083,89.94708326399225 L 300.5724426840556,90.83895053137381 L 272.08168097548236,112.25392747448699 L 264.62976853488453,104.76370961041478 L 268.4164226023084,101.18737546974577 L 262.914768589915,84.28913913244565 L 257.46434796526086,88.51189674064659 L 253.65942785851402,84.56454609474882 L 253.66597475136444,84.35738831270301 z" id="c45031"/>
		<path d="M 308.16455512061765,90.64115364753003 L 322.89955526884745,58.11928767230773 L 330.6327371541836,65.53774684650077 L 354.8789486318485,89.76421202515641 L 353.6561205058218,90.22336410084628 L 350.23259600238816,94.4231813624798 L 343.0661274327524,94.3610039537597 L 329.19834803480285,90.07903260631585 L 320.86938953159347,91.45660314074253 L 315.363050704561,97.26144872728447 L 310.8681306052033,91.35233582985353 L 308.16455512061765,90.64115364753003 z" id="c45033"/>
		<path d="M 0.0,46.04447431326714 L 2.812448053739717,43.00536105114264 L 2.565847227095138,39.98443738260944 L 5.866146395817825,36.718491721434525 L 8.594300783262952,33.728477496251884 L 12.904081384411953,30.69827944321584 L 17.985584055492094,26.7709553281665 L 19.387878746251836,23.76142344859027 L 20.781248949752797,19.23903738037959 L 20.798344146516477,19.23397083197465 L 29.090096480864805,16.771726422039436 L 38.2818299649566,14.031034136000617 L 34.35656398154628,20.758186814690212 L 36.61938329068667,22.435429479825387 L 37.486458602871274,45.434218430612276 L 41.15161988212174,47.26741800097191 L 42.23290076716421,57.47344838815937 L 30.550416271426982,70.33438837402973 L 29.423486125799794,72.27594999753526 L 29.115536315966963,72.31985807003888 L 24.745060806629446,70.1536655800502 L 24.559278546377804,69.96970322005973 L 20.796094960785403,66.24076890149793 L 20.30960137869311,65.63915016179745 L 16.131284534025987,60.467321800368644 L 10.644093168071683,58.17229894578903 L 6.038636342130071,54.57502561135845 L 1.0970297256921793,50.74280820876413 L 0.9952412422736131,50.30711911569289 L 0.27356735113229047,47.21665499223013 L 0.0,46.04447431326714 z" id="c45073"/>
		<path d="M 111.95690983402504,121.17658905743392 L 122.13456710992811,107.37417172295613 L 122.96339853283874,102.97312019263332 L 133.7017813108655,102.23064160046746 L 147.2265441103611,111.12090803657743 L 152.71489572542467,113.73368259034893 L 155.25808421146442,113.47809735428403 L 147.32746453101888,131.94078118817555 L 146.85549842768378,133.38654882372242 L 140.11156511281166,139.6359297774561 L 124.68782139000426,134.31868399902987 L 119.954950346455,123.37253113802737 L 110.45613311507145,124.66391549137212 L 111.95690983402504,121.17658905743392 z" id="c45081"/>
		<path d="M 202.53593570893287,13.852654793705979 L 207.73017049318207,20.922702148362447 L 212.56682028006458,27.49241094229843 L 211.35512754761166,38.70498518142592 L 230.7934228843127,39.28491947754543 L 236.8944263551257,50.565604527492646 L 243.5765239739493,59.526455689381855 L 231.82716274427523,65.05923612856608 L 233.73629461701304,70.67080802573935 L 216.15275543242262,73.1414112772867 L 215.85759907596645,67.13695961004736 L 204.60549164865705,75.3841805418618 L 202.98537978070087,72.48969346783394 L 204.7393719434731,66.8338508352314 L 203.16288040207792,57.95806764344291 L 206.14556355074575,51.53760799768964 L 204.82350870939018,42.3040532571876 L 202.99447231529953,39.03064340990144 L 205.59478431671775,36.29054165658544 L 205.41996998582349,25.965686805333352 L 202.3084339450864,13.542647062939647 L 202.53593570893287,13.852654793705979 z" id="c45057"/>
		<path d="M 194.04471821773726,290.8007914459965 L 200.11964170198283,291.4412409854464 L 208.05713484402517,282.9255464324078 L 209.97779780625694,275.0247457797749 L 208.43888122203595,260.5172622616345 L 205.62225776931268,255.30550632252388 L 209.29056679036916,250.95591175065337 L 222.43628681882598,254.19607082157594 L 223.42108776354763,260.0964515728985 L 232.61492004179692,264.75891808403924 L 239.64051563963886,272.4000707793483 L 239.45155353013965,272.8102879182348 L 239.37340015666973,272.97993836563717 L 238.33864038405778,275.22544545203357 L 240.66714234545793,280.2915538543915 L 242.65691179229725,283.7927436521091 L 240.90759484892385,288.6823018346603 L 233.7631574791877,292.6658737307692 L 228.92293233030227,294.03546773257256 L 224.79916690390505,292.25333769669965 L 218.85215310816147,288.85119926495213 L 214.48626769179657,292.17148164066145 L 217.81660715742123,294.8572060469967 L 222.75011148187036,299.7418645361313 L 218.31331214592134,305.3984292208627 L 210.56735920837275,310.49115488141 L 206.6282437169955,311.5153648202533 L 205.8899610248612,313.62844971092056 L 193.20962332402482,297.16030786670296 L 194.04471821773726,290.8007914459965 z" id="c45013"/>
		<path d="M 61.58415997539011,118.85366991638926 L 67.04531135357334,113.08679172508347 L 84.00178012298643,114.10288568138785 L 85.60999195547079,123.39046435576319 L 90.77142632797616,118.72764889478816 L 94.45744227126944,122.79545108320453 L 107.22064131500555,125.47653195757239 L 98.12147537448065,127.7749426745035 L 101.51741796537307,137.76717354850936 L 92.19002359692308,150.47750693295026 L 90.92246065154536,147.5610873331535 L 83.89412973720542,138.54535464542502 L 75.04502400069178,133.71888162143023 L 68.31538545236998,126.62109001628419 L 64.66565815254098,125.7272511213019 L 64.16844785716575,124.59790441897995 L 61.84159723247257,119.30829252208558 L 61.58415997539011,118.85366991638926 z" id="c45065"/>
		<path d="M 226.56010087049026,111.20000975315094 L 229.56526754671958,111.15387612860937 L 237.88212546914718,104.23158835263341 L 237.78869759525952,109.84744550620347 L 251.10297486671158,113.00150803717453 L 258.94702929824825,121.47626223246557 L 262.97781434219723,125.76074037497561 L 277.89117031273184,116.03658623628516 L 286.01938932175364,120.52389300209754 L 286.88035277835615,121.93954774113789 L 280.1584233843072,126.16375782607082 L 261.81889013008157,137.09551988955053 L 256.2262142744369,141.44137295776426 L 240.65626258870884,147.39332055774693 L 233.60522097848673,156.80202986125025 L 225.74795599298503,148.0923420160262 L 226.36463584288703,146.88601048445133 L 225.2016855661352,135.9313392258435 L 227.84678550209242,117.5715352487709 L 224.9386837689471,112.6798445788542 L 226.56010087049026,111.20000975315094 z" id="c45085"/>
		<path d="M 130.3993685916192,201.37455765240844 L 132.09015371385928,200.22736951569775 L 163.29909995916998,172.20268091628992 L 169.29375244389144,173.14331872953395 L 175.8941764325686,177.28711992258704 L 175.4018146028173,205.25169401761715 L 178.31663384309257,209.46582622712566 L 163.84131293261115,210.48878931027295 L 148.95068538647237,205.39530121823316 L 142.6712539451109,212.26295378705925 L 139.09996418279903,210.85782391877612 L 130.98639418973045,205.95633291576175 L 130.3993685916192,201.37455765240844 z" id="c45011"/>
		<path d="M 83.75459905796387,86.20649100121496 L 91.13660870750577,79.58352920413058 L 97.47732547545165,87.62251766793656 L 104.52196094392538,90.79511905257957 L 115.95698174974582,100.53092883469493 L 119.89002622007416,106.25839443785767 L 122.13456710992811,107.37417172295613 L 111.95690983402504,121.17658905743392 L 110.45613311507145,124.66391549137212 L 107.22064131500555,125.47653195757239 L 94.45744227126944,122.79545108320453 L 90.77142632797616,118.72764889478816 L 85.60999195547079,123.39046435576319 L 84.00178012298643,114.10288568138785 L 89.03634823890562,109.73555275823949 L 90.78978647575816,98.61437403730466 L 83.75459905796387,86.20649100121496 z" id="c45047"/>
		<path d="M 187.6455157468787,218.6936489906192 L 199.88222841702623,211.08983940000843 L 203.34849849520063,215.20962624179776 L 203.39665441947125,208.8077278703149 L 211.60204252297362,203.62945702889203 L 212.24251269858507,203.238089989992 L 219.0321492476838,205.66174014583746 L 226.44584498991944,214.6881951941198 L 234.039112784222,214.29936725989597 L 245.98139479652963,216.81479024148172 L 243.63978542231536,224.50257022166872 L 245.17763060484086,235.38754269447335 L 240.82153753743,247.28358175264393 L 246.30820927934005,255.97222018920343 L 242.96459840795276,258.9169679376973 L 243.00677202013298,259.9239569326085 L 243.14925833998063,260.40269805287863 L 243.39662096410245,260.7477785048693 L 243.23459410654155,260.90468506796384 L 243.83133447020145,260.94500784743815 L 244.15848222222758,260.778045230406 L 244.81173362584363,260.25373888956614 L 245.77843302264233,259.56474317076857 L 246.0142762905698,259.47854989958887 L 246.34561305789708,259.63510634701714 L 246.4048767665767,259.9835146718699 L 245.90156477417943,260.6929077448639 L 245.576820791557,261.2957956726952 L 245.47550865947738,261.6564592429785 L 245.44795148464556,262.48711426240817 L 245.60919881756962,263.0276912623877 L 246.02140591068982,263.7390238507415 L 245.9121044526503,264.31542598411556 L 245.37032885930944,264.2471882676935 L 244.96760155061062,264.44216776669145 L 244.63942401723597,264.83626711122446 L 243.8984879940069,265.2876593214813 L 243.73207118001807,265.4767430817437 L 243.58546416032718,265.9340681546061 L 243.63472840947114,266.569234161983 L 243.87101099823937,266.9763500925889 L 244.65204305933037,267.58013072536795 L 244.4677798481695,267.8725680528483 L 244.8200337660697,268.9351714703452 L 245.23728982842385,274.06418139581353 L 244.36967839135937,274.17212679640085 L 239.9259253542358,271.7803953217916 L 239.64051563963886,272.4000707793483 L 232.61492004179692,264.75891808403924 L 223.42108776354763,260.0964515728985 L 222.43628681882598,254.19607082157594 L 209.29056679036916,250.95591175065337 L 203.03466949434358,238.1166717392607 L 195.70951467473088,231.3078475202434 L 187.6455157468787,218.6936489906192 z" id="c45029"/>
		<path d="M 204.60549164865705,75.3841805418618 L 215.85759907596645,67.13695961004736 L 216.15275543242262,73.1414112772867 L 233.73629461701304,70.67080802573935 L 231.82716274427523,65.05923612856608 L 243.5765239739493,59.526455689381855 L 250.34198478907757,71.20412399736743 L 253.90090746267308,81.60449785792571 L 253.66597475136444,84.35738831270301 L 253.65942785851402,84.56454609474882 L 241.3564119297665,92.61595912502358 L 237.88212546914718,104.23158835263341 L 229.56526754671958,111.15387612860937 L 226.56010087049026,111.20000975315094 L 220.1694752068129,113.05643930148572 L 217.97701359420043,114.29519202851469 L 205.44527035987053,102.97425541709599 L 209.05955442894944,94.3075746870748 L 213.6909022752785,83.44743857841281 L 204.60549164865705,75.3841805418618 z" id="c45055"/>
		<path d="M 212.24251269858507,203.238089989992 L 236.37510665109326,187.7705085821074 L 237.93294456598315,193.21601804549033 L 248.2680381360059,195.42032001093344 L 253.83095902476327,203.19309148280968 L 254.40345812554298,209.6202077673241 L 257.68466296246464,212.15312903068556 L 266.346600116516,218.90458007179586 L 264.07507681624645,220.08037729593948 L 270.5092555772139,226.4359403907287 L 270.8607371138027,232.3613944937634 L 263.3989128086663,235.0285777809826 L 266.57798399375275,239.18570380344437 L 264.7487141030326,239.01053680502238 L 254.41771592113216,236.2909718410753 L 245.17763060484086,235.38754269447335 L 243.63978542231536,224.50257022166872 L 245.98139479652963,216.81479024148172 L 234.039112784222,214.29936725989597 L 226.44584498991944,214.6881951941198 L 219.0321492476838,205.66174014583746 L 212.24251269858507,203.238089989992 z" id="c45035"/>
		<path d="M 245.17763060484086,235.38754269447335 L 254.41771592113216,236.2909718410753 L 264.7487141030326,239.01053680502238 L 266.57798399375275,239.18570380344437 L 263.3989128086663,235.0285777809826 L 270.8607371138027,232.3613944937634 L 270.5092555772139,226.4359403907287 L 264.07507681624645,220.08037729593948 L 266.346600116516,218.90458007179586 L 274.2771901762491,221.0474632939072 L 277.0629850601188,228.83956745597487 L 280.2562377783202,230.5335680131726 L 283.2277910123969,229.90661101676542 L 282.2261019480475,231.75234112223353 L 282.0722781818325,233.14491512395483 L 282.7732750306431,234.9561604248386 L 285.0106280525279,236.2053631129461 L 285.18733420906193,238.5169951894044 L 285.96210003811973,239.00878933497393 L 286.37603529549284,239.01436363112825 L 287.7730106743709,235.0068777866801 L 293.507317177607,228.91588974764662 L 308.9467981959264,208.18379200428984 L 319.3357085446596,205.62044098616082 L 325.3135691905828,199.00767147721965 L 333.4782544626572,204.88242149290392 L 340.3626102416396,206.43665830926923 L 339.96130259683076,208.12839497497015 L 338.5380700105248,209.18180467805337 L 335.3416678750244,211.2155101930291 L 334.6129578261611,215.1977608346501 L 332.94147248067543,219.59691419014007 L 327.57331249941024,218.83799786844764 L 322.5284216556259,220.29739412682497 L 319.19377777674976,216.93254723016085 L 314.319200624044,219.89509534194954 L 312.18136826310837,223.3487195057661 L 315.354511879174,227.86715082981868 L 312.7295489052601,230.76116024870547 L 304.86464657666636,235.64570509166987 L 302.27868932136636,240.124162907247 L 294.5580670974182,244.18562403742345 L 290.3532809791012,247.38722028898795 L 289.0022788164108,252.45339144432714 L 281.97621112629776,256.9993756538036 L 279.2698538717722,260.4145230462088 L 272.81105753693225,260.7322342922917 L 266.78305126777076,263.2713177142237 L 263.27252622830656,266.4675786623678 L 258.51333401620064,268.0783891459913 L 258.2532426488676,268.2559787510849 L 250.74377773212697,273.3770211883277 L 245.23728982842385,274.06418139581353 L 244.8200337660697,268.9351714703452 L 244.4677798481695,267.8725680528483 L 244.65204305933037,267.58013072536795 L 243.87101099823937,266.9763500925889 L 243.63472840947114,266.569234161983 L 243.58546416032718,265.9340681546061 L 243.73207118001807,265.4767430817437 L 243.8984879940069,265.2876593214813 L 244.63942401723597,264.83626711122446 L 244.96760155061062,264.44216776669145 L 245.37032885930944,264.2471882676935 L 245.9121044526503,264.31542598411556 L 246.02140591068982,263.7390238507415 L 245.60919881756962,263.0276912623877 L 245.44795148464556,262.48711426240817 L 245.47550865947738,261.6564592429785 L 245.576820791557,261.2957956726952 L 245.90156477417943,260.6929077448639 L 246.4048767665767,259.9835146718699 L 246.34561305789708,259.63510634701714 L 246.0142762905698,259.47854989958887 L 245.77843302264233,259.56474317076857 L 244.81173362584363,260.25373888956614 L 244.15848222222758,260.778045230406 L 243.83133447020145,260.94500784743815 L 243.23459410654155,260.90468506796384 L 243.39662096410245,260.7477785048693 L 243.14925833998063,260.40269805287863 L 243.00677202013298,259.9239569326085 L 242.96459840795276,258.9169679376973 L 246.30820927934005,255.97222018920343 L 240.82153753743,247.28358175264393 L 245.17763060484086,235.38754269447335 z" id="c45019"/>
		<path d="M 34.35656398154628,20.758186814690212 L 38.2818299649566,14.031034136000617 L 47.740421737231,11.235703475307805 L 49.469880039097355,11.636166438125215 L 50.47026289227106,15.066922943126848 L 65.17166343922231,12.62491023281597 L 63.19457533825093,19.242842417762034 L 67.84367341143866,18.562762807768884 L 71.73494551733182,38.344660625579266 L 46.6722879556641,52.581233325301504 L 42.23290076716421,57.47344838815937 L 41.15161988212174,47.26741800097191 L 37.486458602871274,45.434218430612276 L 36.61938329068667,22.435429479825387 L 34.35656398154628,20.758186814690212 z" id="c45077"/>
		<path d="M 168.22891255956227,97.21379666459723 L 179.7465226275445,103.74130827430326 L 179.51292762251057,99.16105650077967 L 186.61105536509385,99.81279252799206 L 209.05955442894944,94.3075746870748 L 205.44527035987053,102.97425541709599 L 217.97701359420043,114.29519202851469 L 220.1694752068129,113.05643930148572 L 226.56010087049026,111.20000975315094 L 224.9386837689471,112.6798445788542 L 227.84678550209242,117.5715352487709 L 225.2016855661352,135.9313392258435 L 226.36463584288703,146.88601048445133 L 212.57927054390836,145.1462508618496 L 201.49779105104452,139.88254041303819 L 193.55657605911657,133.24188722602048 L 190.24015631664057,121.47131166470159 L 182.979182513905,114.3823216671515 L 171.60638162106028,111.45142539107044 L 166.38127090936945,101.40107025005301 L 168.22891255956227,97.21379666459723 z" id="c45079"/>
	</g>
</svg>