<?xml version="1.0" encoding="UTF-8"?>
<svg baseProfile="full" fill="#d0d0d0" height="97.03891522375957" stroke="#ffffff" stroke-width="1" version="1.1" width="400.0" xmlns="http://www.w3.org/2000/svg" xmlns:ev="http://www.w3.org/2001/xml-events" xmlns:xlink="http://www.w3.org/1999/xlink">
	<defs/>
	<g id="counties"><path d="M 65.839406726189,14.165170707142975 L 71.92310362105198,14.308507436720353 L 71.57959427276032,9.121908433263483 L 72.05621490645107,9.136613720383373 L 85.80584457238393,9.538980586038948 L 84.65432466240742,29.333869775679272 L 84.5127546804545,31.406890562478345 L 78.84630852481514,31.147639010885076 L 77.049151773518,34.19556485986075 L 69.32195188393622,29.727299864230815 L 65.02906705729744,24.765929025361405 L 65.839406726189,14.165170707142975 z" id="c47183"/>
		<path d="M 110.15513500795419,18.50346753272276 L 117.41855055998472,20.039043723708566 L 122.33614167253286,17.886459023059466 L 127.98268219064745,18.014620891317474 L 128.20657725759054,19.48637530595818 L 131.56882145374928,19.94048295239565 L 131.0299282473728,24.799959883141703 L 128.98257628877008,28.796513557920726 L 128.12646569514453,27.678020655091245 L 118.40046084344756,24.820179226128566 L 111.45884584228563,24.777654521723456 L 111.72632207787947,23.590823530817133 L 110.15513500795419,18.50346753272276 z" id="c47083"/>
		<path d="M 80.4930818012336,59.059534737027974 L 80.587537339353,49.80046072232501 L 82.36308787072853,47.856510825868725 L 100.37633952864742,48.72845263009667 L 99.59153385938619,60.49143856557373 L 97.0525267161276,64.98449986138706 L 96.74193914950402,70.05726044224909 L 96.97934086561627,70.97208239865847 L 96.1943363625737,71.32690283604228 L 91.44461385560098,71.08530018808126 L 91.39834950198104,66.89654840966703 L 84.87333170795469,65.64348551034958 L 82.19402664105654,61.31649825814885 L 79.97107957324195,61.20088392212429 L 80.4930818012336,59.059534737027974 z" id="c47077"/>
		<path d="M 256.5625208725225,4.895511254255247 L 256.87747317725217,4.9007511634042755 L 269.618771556393,5.094130787481217 L 280.53429042837035,5.136793436730888 L 281.0595900521142,8.449466053467791 L 280.3616217353021,9.737201007712638 L 277.4273383474786,9.942386811169209 L 276.60270709527305,12.377830240899344 L 277.6946918850817,22.63774361091379 L 275.79402562942175,26.54419755397034 L 274.41297365863926,28.949133731673165 L 272.70373979779646,29.617603571532353 L 266.5468733708177,25.93984083312377 L 260.6040958245341,18.03398706309091 L 262.4961800922788,16.624622441984858 L 259.06684740744186,9.32770133448966 L 256.55982154000344,4.895350767013525 L 256.5625208725225,4.895511254255247 z" id="c47151"/>
		<path d="M 121.75138253041963,47.908157582710366 L 122.29416361469687,44.117422911815304 L 130.30168754772916,39.297681237706094 L 145.4976696805594,41.43222823117057 L 145.6145360224291,42.48890550536712 L 144.92074314143105,47.58028999312988 L 142.94140091534732,56.069542752458126 L 139.04176752341058,58.365988234407304 L 133.43536258416472,60.78029842331748 L 127.5863501125823,58.534608649026154 L 124.23503613204085,60.961250769425256 L 120.32874813341365,57.79662033560094 L 121.75138253041963,47.908157582710366 z" id="c47081"/>
		<path d="M 59.047596288946,54.65993856962837 L 61.23722231797489,55.9606734469122 L 66.31537480656152,48.9464756328597 L 75.9740499092269,49.577559636718135 L 80.587537339353,49.80046072232501 L 80.4930818012336,59.059534737027974 L 79.97107957324195,61.20088392212429 L 76.93513822439459,66.73042099066949 L 69.15080046938243,69.99038241210982 L 58.15015654018434,69.45319945818481 L 59.047596288946,54.65993856962837 z" id="c47113"/>
		<path d="M 201.13572839338607,55.793434755941874 L 206.31941264283753,48.54879460316223 L 207.10301501313631,48.167758974929725 L 215.69693168895876,49.00462477744633 L 216.5528501146892,49.66324820800481 L 219.36343821327594,51.04730320808314 L 218.8033134108881,52.973705614504695 L 219.78589652578455,61.088086007473585 L 221.52530838174292,65.89601489674432 L 219.2177690002705,65.98105126609796 L 209.3473367931843,67.54536079438324 L 206.72025254140024,66.44243893551838 L 203.3978677105589,63.62916736437062 L 201.70797861336635,58.7333850083141 L 201.13572839338607,55.793434755941874 z" id="c47177"/>
		<path d="M 292.65951746761516,23.19172025907569 L 293.71228072203627,22.34194852604666 L 294.7891410599615,16.49697558705707 L 296.3334167177219,16.449912974127816 L 297.00868272792263,14.614556649421237 L 301.57670259786227,13.61246055682672 L 305.0179900592767,18.69063846549444 L 308.0278202753875,18.653878525855006 L 306.0843423907606,28.37741041366857 L 305.2690177866522,28.918256797956843 L 297.34464445482064,29.303463430642925 L 295.63418197739287,27.89489993386977 L 292.9362331347129,24.20755457119457 L 292.65951746761516,23.19172025907569 z" id="c47173"/>
		<path d="M 266.534122178247,59.148981689417 L 277.31568920713016,48.32123217698611 L 278.07221381764765,44.875034295441125 L 281.1401743704961,44.59272847041971 L 285.0770547503854,48.87176330179845 L 285.71793940798455,49.71768771317301 L 285.51342185516216,54.959218049058634 L 287.3570346825464,58.63118011108848 L 284.90367653477904,60.76722258336643 L 280.11663033061166,58.33659425363002 L 270.2272079655462,57.87804323194621 L 269.26451393640747,60.25639036123332 L 267.35797201929154,59.96786430967395 L 266.534122178247,59.148981689417 z" id="c47105"/>
		<path d="M 194.47702406225204,44.31025153161309 L 193.95248166742,42.03973760462065 L 196.84498129312615,40.9062310558148 L 200.33210513498355,41.66748429347719 L 206.13107811665932,47.53481203063873 L 206.31941264283753,48.54879460316223 L 201.13572839338607,55.793434755941874 L 201.70797861336635,58.7333850083141 L 196.90241242319746,59.48489681438758 L 191.43572792464172,56.24629710024301 L 194.47702406225204,44.31025153161309 z" id="c47015"/>
		<path d="M 128.98257628877008,28.796513557920726 L 131.0299282473728,24.799959883141703 L 131.56882145374928,19.94048295239565 L 141.2056922357909,21.342359047550367 L 141.97591512013608,20.814238393513257 L 148.0892592149041,21.830981386560076 L 146.20242475153836,25.006095828938694 L 148.14902360349768,29.11807232626131 L 146.5586628264805,36.31040546222047 L 146.12767656241311,40.49295713717054 L 145.4976696805594,41.43222823117057 L 130.30168754772916,39.297681237706094 L 129.4772614935387,37.970975966589975 L 128.98257628877008,28.796513557920726 z" id="c47043"/>
		<path d="M 139.04176752341058,58.365988234407304 L 142.94140091534732,56.069542752458126 L 144.92074314143105,47.58028999312988 L 153.17070472027564,50.762349281701574 L 154.62613648426412,51.7520635669792 L 157.7692856453657,52.824895219630264 L 164.8485243693566,55.95287574808688 L 161.6349605580318,66.19457011697952 L 156.41863752594512,72.29865642098035 L 148.6320458476845,70.0040404004542 L 145.0222748379719,71.25459098039155 L 144.0285812521545,71.46197657025341 L 140.94927823220573,70.55215043369546 L 142.15895823962794,67.09881608260856 L 140.90401682435112,64.66818659655127 L 138.37847120918346,62.58115958192118 L 139.04176752341058,58.365988234407304 z" id="c47119"/>
		<path d="M 173.71633028348825,25.47652064028634 L 175.64386113519575,21.293230386920335 L 177.0633956925215,23.624411478881406 L 180.2891345988106,20.377716326158218 L 187.3181649809257,21.65207288055099 L 188.0211966795998,19.733498567363387 L 188.8773145849852,22.445777260369475 L 191.53934386981607,20.016854080616103 L 194.73620767850556,22.676642499656612 L 195.70748602164588,24.2076031925309 L 198.26838843245278,34.58015741151091 L 198.09716635918673,35.485811867792215 L 200.33210513498355,41.66748429347719 L 196.84498129312615,40.9062310558148 L 193.95248166742,42.03973760462065 L 189.41117017853415,41.64801731582662 L 177.28831359675524,33.691326667387955 L 175.39981819204274,31.732964270682814 L 173.71633028348825,25.47652064028634 z" id="c47189"/>
		<path d="M 225.54878331361937,97.02430481431419 L 230.6173097539829,91.95422561750858 L 229.56253926607033,87.72987857741056 L 236.05819970879966,77.93640971918818 L 236.97783108525948,75.93324588304054 L 239.60352822038524,70.16523265164913 L 241.13816155658031,69.97982742224487 L 242.68634781957147,71.67881746774992 L 246.67988754726042,72.72658915086953 L 246.0016597313393,74.42384295488564 L 250.00369860215028,79.58592671040357 L 246.35578163249357,88.21743253757812 L 247.22685964433984,90.67436787714577 L 249.4793564507454,95.04668130461107 L 248.75758427219165,96.63956040840243 L 248.62318826855474,96.64176991719242 L 245.57480125507294,96.6908236642366 L 235.31510046190817,96.88177243243108 L 234.73175845499588,96.8919365011926 L 230.7020118629046,97.01054693461673 L 229.71987405003927,97.03891522375957 L 225.54878331361937,97.02430481431419 z" id="c47065"/>
		<path d="M 38.82135077754743,60.338423464802645 L 43.94226300910591,46.785812798834215 L 46.04513463138778,47.143393319527945 L 46.79016908511746,48.77812977422554 L 59.047596288946,54.65993856962837 L 58.15015654018434,69.45319945818481 L 53.3436386237686,69.22064488413156 L 53.21319724732735,71.24124088805216 L 39.75774447602966,70.44788126901553 L 40.24615902857778,62.32149704525464 L 38.82135077754743,60.338423464802645 z" id="c47075"/>
		<path d="M 194.73620767850556,22.676642499656612 L 197.3054439190186,19.304603774024297 L 202.0645821286126,16.486804374386523 L 201.98409539724398,15.295978092486099 L 205.7965828311193,15.606433210007697 L 208.90027176421444,16.096607914138424 L 208.93268573385137,24.9758487252936 L 211.1172238901199,25.95037798100983 L 209.7874499622889,27.73465095455565 L 209.8763903193115,31.988693785616274 L 207.27512160654084,34.13516437503888 L 205.15239517872288,32.82671045584763 L 198.26838843245278,34.58015741151091 L 195.70748602164588,24.2076031925309 L 194.73620767850556,22.676642499656612 z" id="c47159"/>
		<path d="M 169.233389728167,16.252130181716723 L 175.32523220791856,3.046567642456911 L 175.81688704392224,3.2060083358689946 L 177.81048785481786,2.3966130375681995 L 182.20941655972052,2.6557590336236276 L 191.6203161382817,3.1955427714447606 L 191.10275048380078,10.69667778999832 L 190.55489731412973,11.801579667078522 L 188.70138874122244,13.757835639575612 L 188.0211966795998,19.733498567363387 L 187.3181649809257,21.65207288055099 L 180.2891345988106,20.377716326158218 L 177.0633956925215,23.624411478881406 L 175.64386113519575,21.293230386920335 L 173.71633028348825,25.47652064028634 L 171.66162247368302,24.896442225211942 L 166.41313918221744,16.329667970254068 L 169.233389728167,16.252130181716723 z" id="c47165"/>
		<path d="M 77.049151773518,34.19556485986075 L 78.84630852481514,31.147639010885076 L 84.5127546804545,31.406890562478345 L 84.65432466240742,29.333869775679272 L 99.29651677121802,30.031811437756904 L 99.22399835738636,31.48708754607542 L 98.64801474761524,46.99951402460678 L 100.47386083564105,47.082550947926386 L 100.37633952864742,48.72845263009667 L 82.36308787072853,47.856510825868725 L 80.587537339353,49.80046072232501 L 75.9740499092269,49.577559636718135 L 77.049151773518,34.19556485986075 z" id="c47017"/>
		<path d="M 318.2093813478303,25.57005764189323 L 323.65534168239134,20.959838357342953 L 327.0175976159523,21.297842233054194 L 331.1796884950147,17.99053842751967 L 335.03539012192266,23.720848570460063 L 332.3767048842031,26.914472143128545 L 331.28933889583163,27.314650041324708 L 330.3200336367858,27.677296388602112 L 330.962757585832,30.361471356390023 L 327.7169659221191,30.63345886282842 L 328.2947938483354,32.83539275483659 L 326.3859756018114,30.296297128604223 L 319.38846382797914,29.138156810708402 L 317.46445540245855,28.045884262829052 L 318.2093813478303,25.57005764189323 z" id="c47063"/>
		<path d="M 124.52874014478452,63.26802119030557 L 124.23503613204085,60.961250769425256 L 127.5863501125823,58.534608649026154 L 133.43536258416472,60.78029842331748 L 139.04176752341058,58.365988234407304 L 138.37847120918346,62.58115958192118 L 140.90401682435112,64.66818659655127 L 142.15895823962794,67.09881608260856 L 140.94927823220573,70.55215043369546 L 133.817373752631,69.70544438741078 L 133.77058885205255,71.81562518796576 L 127.87793695233543,72.98174083313754 L 124.6739403113314,68.71582924912474 L 121.36082930773321,68.05762492496152 L 124.52874014478452,63.26802119030557 z" id="c47101"/>
		<path d="M 106.42647114852402,0.0 L 109.10829242970047,0.11795015720461563 L 116.50431287825297,1.019764402116176 L 116.30544031157038,2.743661975605256 L 123.57703401450672,2.6717344217246595 L 126.00216404381105,2.6451163162029254 L 127.98268219064745,18.014620891317474 L 122.33614167253286,17.886459023059466 L 117.41855055998472,20.039043723708566 L 110.15513500795419,18.50346753272276 L 109.69609170645927,18.106943372335074 L 106.56263349954072,13.285003065935957 L 106.99931152875051,10.11713917738075 L 107.13144683803026,10.116690603708683 L 107.95524365471572,7.202097417761551 L 107.04546210251692,2.7159690991391834 L 106.42647114852402,0.0 z" id="c47161"/>
		<path d="M 143.73976159422566,79.2063146457974 L 145.0222748379719,71.25459098039155 L 148.6320458476845,70.0040404004542 L 156.41863752594512,72.29865642098035 L 158.8851191989497,78.15786276269804 L 162.49533665564965,81.04978025507802 L 161.99272906012118,96.40575988957612 L 144.52371711366715,95.86885266030892 L 144.24737255563434,95.85982143618715 L 143.90354171015522,95.85084158081021 L 144.51431722130903,79.56072996975087 L 143.73976159422566,79.2063146457974 z" id="c47055"/>
		<path d="M 188.70138874122244,13.757835639575612 L 190.55489731412973,11.801579667078522 L 193.30647894880605,14.256100569176331 L 201.98409539724398,15.295978092486099 L 202.0645821286126,16.486804374386523 L 197.3054439190186,19.304603774024297 L 194.73620767850556,22.676642499656612 L 191.53934386981607,20.016854080616103 L 188.8773145849852,22.445777260369475 L 188.0211966795998,19.733498567363387 L 188.70138874122244,13.757835639575612 z" id="c47169"/>
		<path d="M 234.77206558037258,51.04970775872833 L 235.73639478202713,50.73845133558015 L 235.95126862514158,44.25547308516454 L 234.9309298529152,40.513973681953566 L 235.70030350821207,33.61529710442668 L 240.0089410255554,33.6455019012947 L 242.40639716105343,31.411363026305906 L 245.6429234946585,29.572877657791956 L 251.24789404218149,30.31573901946582 L 255.99754886162114,33.9915650484124 L 259.96817682212304,39.362445437079955 L 261.8817744548359,44.240425167881966 L 259.6582439336472,47.10952881288076 L 257.2692264361318,49.03303610594805 L 256.35951820882246,49.15394616219945 L 251.11346509096833,52.68163156822377 L 250.53286909126447,52.31317628759261 L 235.49077377928924,52.619454748883086 L 234.77206558037258,51.04970775872833 z" id="c47035"/>
		<path d="M 69.15080046938243,69.99038241210982 L 76.93513822439459,66.73042099066949 L 79.97107957324195,61.20088392212429 L 82.19402664105654,61.31649825814885 L 84.87333170795469,65.64348551034958 L 91.39834950198104,66.89654840966703 L 91.44461385560098,71.08530018808126 L 91.31175101520756,73.23622760047098 L 81.83552868190712,72.92487218952915 L 78.35854866591774,74.03818390846588 L 74.51957935449282,80.36946035797695 L 71.63643809642257,80.2863039695056 L 71.25656917778741,75.64650552454869 L 69.15080046938243,69.99038241210982 z" id="c47023"/>
		<path d="M 142.240208557864,19.06731979812978 L 149.68307430816765,13.335534645025573 L 152.28721945493058,15.295583910040287 L 155.69862602048516,18.29545824077346 L 159.1376417836466,17.565058116905444 L 159.4490613718924,18.498276003719084 L 156.7745388103889,24.099722047267942 L 153.05615460874057,36.86141221208208 L 152.48953657120697,36.61318622998799 L 151.0312200552073,36.698026240965085 L 146.5586628264805,36.31040546222047 L 148.14902360349768,29.11807232626131 L 146.20242475153836,25.006095828938694 L 148.0892592149041,21.830981386560076 L 141.97591512013608,20.814238393513257 L 142.240208557864,19.06731979812978 z" id="c47021"/>
		<path d="M 206.92488097789388,83.49498099172337 L 213.11052874219692,83.94018724807896 L 214.52646521777334,79.74259005361678 L 221.5328709608292,78.01293174809169 L 228.7992879693809,83.42857955952596 L 229.56253926607033,87.72987857741056 L 230.6173097539829,91.95422561750858 L 225.54878331361937,97.02430481431419 L 219.44306246427792,96.99604833539578 L 207.3659544511028,96.89538622695162 L 207.37747863790406,84.19194451359117 L 206.92488097789388,83.49498099172337 z" id="c47115"/>
		<path d="M 171.43506380870005,57.174257606609316 L 175.89466239464713,56.53677202441317 L 182.3699645319654,61.05042896428489 L 185.19347251693924,58.47041226490977 L 189.66711323803108,60.31802153752965 L 190.13301258932495,70.47798281815082 L 189.05916604842122,72.75955947007203 L 181.38856684344745,78.04214102579908 L 176.61409753911565,75.98491691405066 L 173.17210218347495,75.38493261242984 L 172.2861131179112,75.2404348799416 L 170.21640931529762,68.17442566997131 L 171.43506380870005,57.174257606609316 z" id="c47003"/>
		<path d="M 272.70373979779646,29.617603571532353 L 274.41297365863926,28.949133731673165 L 275.79402562942175,26.54419755397034 L 281.84881628121326,28.662871518925495 L 282.4369750093286,24.83491005971634 L 289.6922161266144,25.52017725291478 L 291.32884386427315,21.43746968992352 L 292.65951746761516,23.19172025907569 L 292.9362331347129,24.20755457119457 L 295.63418197739287,27.89489993386977 L 288.7637497385712,34.69699406231923 L 280.6589615467421,42.1303431959169 L 280.74845627155753,43.84959282663977 L 278.4333448413334,39.2708156781548 L 277.37592457008265,36.03500506301344 L 272.3232983623538,30.86014748620202 L 272.70373979779646,29.617603571532353 z" id="c47001"/>
		<path d="M 357.8132797235348,35.256749549235536 L 357.32268374111595,34.63902105967375 L 357.69599589663505,31.277836769790614 L 360.69279436938245,28.17942615013262 L 365.57883171896526,27.194332232202477 L 369.0744582901077,21.98018624615759 L 371.63674064398634,21.947219322219844 L 374.8087972333918,27.379865018637787 L 372.7773252726942,28.94513599248196 L 371.29514464289986,28.666871800444124 L 369.07203280649645,29.78903589753599 L 366.25965217034735,31.697765181976738 L 365.9372507998703,32.30197256447642 L 363.88247068539016,36.148211952208854 L 361.931299452163,37.608247613199794 L 359.69041923029056,39.282852775240244 L 357.207394507521,38.20399919460543 L 357.8132797235348,35.256749549235536 z" id="c47171"/>
		<path d="M 215.69693168895876,49.00462477744633 L 217.98604345036048,48.0818687853533 L 216.55513934105605,41.04868929713231 L 217.39033801259131,38.57596054422264 L 223.67963191811612,34.75151113887616 L 232.82860301882738,37.555539806361764 L 234.9309298529152,40.513973681953566 L 235.95126862514158,44.25547308516454 L 235.73639478202713,50.73845133558015 L 234.77206558037258,51.04970775872833 L 234.9583171192714,49.427318167071014 L 227.6586047926787,49.88918426354657 L 225.2990694359146,49.45080238535191 L 224.1406446657711,50.37218688099473 L 223.30991507005524,49.848984549806616 L 222.88479883594826,50.33488530260043 L 223.20340927908816,51.19561811709269 L 222.11936162262282,50.903210191818324 L 219.56810081832919,50.40522858672402 L 219.36343821327594,51.04730320808314 L 216.5528501146892,49.66324820800481 L 215.69693168895876,49.00462477744633 z" id="c47185"/>
		<path d="M 198.26838843245278,34.58015741151091 L 205.15239517872288,32.82671045584763 L 207.27512160654084,34.13516437503888 L 209.8763903193115,31.988693785616274 L 211.73768457992705,35.47201827502868 L 217.39033801259131,38.57596054422264 L 216.55513934105605,41.04868929713231 L 217.98604345036048,48.0818687853533 L 215.69693168895876,49.00462477744633 L 207.10301501313631,48.167758974929725 L 206.31941264283753,48.54879460316223 L 206.13107811665932,47.53481203063873 L 200.33210513498355,41.66748429347719 L 198.09716635918673,35.485811867792215 L 198.26838843245278,34.58015741151091 z" id="c47041"/>
		<path d="M 325.73471292126663,43.13062100882935 L 326.48020390686037,37.27967119899917 L 327.31949824295015,37.633888334643444 L 328.2947938483354,32.83539275483659 L 327.7169659221191,30.63345886282842 L 330.962757585832,30.361471356390023 L 330.3200336367858,27.677296388602112 L 331.28933889583163,27.314650041324708 L 331.03420601996964,28.672253783770298 L 334.3001378548281,30.629701061996492 L 344.2488284046681,40.93691470257949 L 343.48421228049705,41.35415048257306 L 344.08022311336714,44.30415613829977 L 342.42412789509007,47.03885234913674 L 341.1317366174054,48.88745073276621 L 340.61096979161493,49.63179256528122 L 337.36396029041873,49.441799872027794 L 335.1361430338837,50.16874894714727 L 332.1849673208209,50.97603944549225 L 330.54956962134236,53.17145943873065 L 327.92582721814665,53.77135730845834 L 327.8910406534282,53.83507043349522 L 327.45484989265725,47.61286139177535 L 325.08358042093533,43.6609960502485 L 325.73471292126663,43.13062100882935 z" id="c47029"/>
		<path d="M 42.79157971796081,23.317216384981002 L 47.00820763626064,13.60460573904121 L 47.87049090940361,8.409485052437846 L 54.00104326411335,8.371648879851467 L 65.29615150539372,8.923297639401028 L 71.24041052421747,9.11141260059203 L 71.57959427276032,9.121908433263483 L 71.92310362105198,14.308507436720353 L 65.839406726189,14.165170707142975 L 65.02906705729744,24.765929025361405 L 64.92871557005704,25.965666791040167 L 56.05698427665024,25.515726145279267 L 40.98300681074389,24.551496527783947 L 42.79157971796081,23.317216384981002 z" id="c47131"/>
		<path d="M 219.36343821327594,51.04730320808314 L 219.56810081832919,50.40522858672402 L 222.11936162262282,50.903210191818324 L 223.20340927908816,51.19561811709269 L 222.88479883594826,50.33488530260043 L 223.30991507005524,49.848984549806616 L 224.1406446657711,50.37218688099473 L 225.2990694359146,49.45080238535191 L 227.6586047926787,49.88918426354657 L 234.9583171192714,49.427318167071014 L 234.77206558037258,51.04970775872833 L 235.49077377928924,52.619454748883086 L 234.98627758666154,55.139604109953396 L 227.7122887752532,63.910601526289916 L 226.04842775434267,65.08663683739826 L 221.52530838174292,65.89601489674432 L 219.78589652578455,61.088086007473585 L 218.8033134108881,52.973705614504695 L 219.36343821327594,51.04730320808314 z" id="c47175"/>
		<path d="M 188.01923138557677,74.17567166485708 L 189.05916604842122,72.75955947007203 L 190.13301258932495,70.47798281815082 L 189.66711323803108,60.31802153752965 L 190.76615416721555,56.095184248033824 L 191.43572792464172,56.24629710024301 L 196.90241242319746,59.48489681438758 L 201.70797861336635,58.7333850083141 L 203.3978677105589,63.62916736437062 L 206.72025254140024,66.44243893551838 L 207.07804567991207,74.58810856292958 L 205.03394219817875,79.76438840766929 L 199.76039391853206,76.66723004716988 L 193.67680227247473,75.59714414664218 L 188.86621868634765,77.23284084180365 L 188.01923138557677,74.17567166485708 z" id="c47031"/>
		<path d="M 162.49533665564965,81.04978025507802 L 166.27630519480604,81.6925743998814 L 173.01324376656015,77.53517665981947 L 173.17210218347495,75.38493261242984 L 176.61409753911565,75.98491691405066 L 176.50920600072382,78.43297926039199 L 182.77062576394107,82.78072920791796 L 184.08818605580856,89.15662042172897 L 186.19447024394864,88.93963122837049 L 186.1417551154703,96.64605042549128 L 179.18689025261656,96.64002345807931 L 164.44949111156913,96.47588565652795 L 164.448558688627,96.47587376680539 L 161.99272906012118,96.40575988957612 L 162.49533665564965,81.04978025507802 z" id="c47103"/>
		<path d="M 186.19447024394864,88.93963122837049 L 186.77626514512602,83.0333472938606 L 189.61641139935756,77.77506049352718 L 188.86621868634765,77.23284084180365 L 193.67680227247473,75.59714414664218 L 199.76039391853206,76.66723004716988 L 205.03394219817875,79.76438840766929 L 206.92488097789388,83.49498099172337 L 207.37747863790406,84.19194451359117 L 207.3659544511028,96.89538622695162 L 186.49112643497287,96.64607380011688 L 186.1417551154703,96.64605042549128 L 186.19447024394864,88.93963122837049 z" id="c47051"/>
		<path d="M 99.22399835738636,31.48708754607542 L 105.24572002758997,24.025542495705764 L 105.17439056739055,23.244789864347663 L 104.9725814663104,22.826386366648514 L 104.94035697620814,22.494704633542558 L 105.1181709552084,22.07175773317836 L 104.90055504317314,21.81342995088017 L 105.03715785242858,21.712996524736745 L 104.51156446915583,20.789411862182032 L 105.02402541566894,19.133663850082346 L 104.88194338207084,18.055652101401346 L 107.82183407592976,18.086798014712897 L 109.69609170645927,18.106943372335074 L 110.15513500795419,18.50346753272276 L 111.72632207787947,23.590823530817133 L 111.45884584228563,24.777654521723456 L 112.73670916590204,31.218800975451526 L 107.79074885345904,40.43445296922635 L 112.20156323470019,42.53050433900171 L 110.39802433215837,47.57157702816055 L 110.00001898082552,48.99377728813044 L 106.29881629166886,46.973961156994655 L 100.47386083564105,47.082550947926386 L 98.64801474761524,46.99951402460678 L 99.22399835738636,31.48708754607542 z" id="c47005"/>
		<path d="M 209.7874499622889,27.73465095455565 L 211.1172238901199,25.95037798100983 L 221.3487257819746,26.757021770603604 L 224.19303468803028,22.257211881128207 L 226.93200336283599,25.368853456890633 L 237.61876541591351,30.66294763434123 L 241.5122705213537,31.070258982283303 L 242.40639716105343,31.411363026305906 L 240.0089410255554,33.6455019012947 L 235.70030350821207,33.61529710442668 L 234.9309298529152,40.513973681953566 L 232.82860301882738,37.555539806361764 L 223.67963191811612,34.75151113887616 L 217.39033801259131,38.57596054422264 L 211.73768457992705,35.47201827502868 L 209.8763903193115,31.988693785616274 L 209.7874499622889,27.73465095455565 z" id="c47141"/>
		<path d="M 169.28162509792335,55.790149265376876 L 172.67996869039553,51.26026892077219 L 172.48669867753557,41.17107215152883 L 175.84401949521975,34.408983269115225 L 177.28831359675524,33.691326667387955 L 189.41117017853415,41.64801731582662 L 193.95248166742,42.03973760462065 L 194.47702406225204,44.31025153161309 L 191.43572792464172,56.24629710024301 L 190.76615416721555,56.095184248033824 L 189.66711323803108,60.31802153752965 L 185.19347251693924,58.47041226490977 L 182.3699645319654,61.05042896428489 L 175.89466239464713,56.53677202441317 L 171.43506380870005,57.174257606609316 L 169.28162509792335,55.790149265376876 z" id="c47149"/>
		<path d="M 156.41863752594512,72.29865642098035 L 161.6349605580318,66.19457011697952 L 164.8485243693566,55.95287574808688 L 166.24845494169122,56.53930944681062 L 169.28162509792335,55.790149265376876 L 171.43506380870005,57.174257606609316 L 170.21640931529762,68.17442566997131 L 172.2861131179112,75.2404348799416 L 173.17210218347495,75.38493261242984 L 173.01324376656015,77.53517665981947 L 166.27630519480604,81.6925743998814 L 162.49533665564965,81.04978025507802 L 158.8851191989497,78.15786276269804 L 156.41863752594512,72.29865642098035 z" id="c47117"/>
		<path d="M 210.29770137703963,4.839225796467683 L 210.68389940411384,4.1895465139000345 L 213.27617197263382,4.25595821742647 L 224.4111327793019,4.519869341932145 L 226.78541781730846,4.336107724352907 L 233.21013283962722,3.8324647106321494 L 233.44707080733386,3.8137122861252495 L 234.1027196495431,3.8255004305126916 L 234.5472027626121,6.8238124313873625 L 233.7493297025399,9.20880899319253 L 226.36819050027142,11.146673437575144 L 224.1498825493956,16.540835603788032 L 220.44066957334618,12.670945498499508 L 214.56342497549832,9.812587797282198 L 209.53906658789117,11.125030309973162 L 210.29770137703963,4.839225796467683 z" id="c47027"/>
		<path d="M 293.05431993906006,5.075494215734197 L 295.6562849387824,5.128905199539985 L 297.3195627720556,5.162253979828075 L 306.6400767074814,5.173250538432984 L 307.31522989100847,4.1228221491186545 L 316.61258135395417,3.9682123796285365 L 320.0834641221887,7.541955494962414 L 321.52123708474085,11.798439189412166 L 320.7940529714582,14.427769358201035 L 314.2025932394855,17.99161870175708 L 308.4758488360762,19.346568057332156 L 308.0278202753875,18.653878525855006 L 305.0179900592767,18.69063846549444 L 301.57670259786227,13.61246055682672 L 297.00868272792263,14.614556649421237 L 296.2211574437406,14.188865252427828 L 295.22626779991134,11.612575552335139 L 294.5601838983242,10.038631577787184 L 293.2244509930587,6.723428884142435 L 293.05431993906006,5.075494215734197 z" id="c47025"/>
		<path d="M 148.38621270182472,7.003839040355986 L 150.05419446707697,2.637448032709087 L 152.53071212774344,2.6293085537522365 L 163.85719109575373,2.5746046448569273 L 166.13123903657424,2.532017939351128 L 173.30314404423012,2.3901278215047994 L 175.32523220791856,3.046567642456911 L 169.233389728167,16.252130181716723 L 166.41313918221744,16.329667970254068 L 163.16561611804173,19.46135084746631 L 159.1376417836466,17.565058116905444 L 155.69862602048516,18.29545824077346 L 152.28721945493058,15.295583910040287 L 149.68307430816765,13.335534645025573 L 148.38621270182472,7.003839040355986 z" id="c47147"/>
		<path d="M 46.89153789580865,44.639890630872074 L 46.77719843407742,43.57687725583638 L 49.67680420280683,43.36398124699978 L 54.09907119135824,37.07920242894046 L 56.47682419500229,38.96707422179616 L 57.5153063147395,45.000191507957595 L 66.31537480656152,48.9464756328597 L 61.23722231797489,55.9606734469122 L 59.047596288946,54.65993856962837 L 46.79016908511746,48.77812977422554 L 46.04513463138778,47.143393319527945 L 46.89153789580865,44.639890630872074 z" id="c47033"/>
		<path d="M 227.7122887752532,63.910601526289916 L 234.98627758666154,55.139604109953396 L 235.49077377928924,52.619454748883086 L 250.53286909126447,52.31317628759261 L 251.11346509096833,52.68163156822377 L 242.35238702013064,63.57751551621341 L 240.6023276785234,68.13306627239918 L 241.13816155658031,69.97982742224487 L 239.60352822038524,70.16523265164913 L 236.97783108525948,75.93324588304054 L 228.68831437186867,68.16571659837471 L 227.1489472168683,65.3914588561303 L 227.7122887752532,63.910601526289916 z" id="c47007"/>
		<path d="M 205.03394219817875,79.76438840766929 L 207.07804567991207,74.58810856292958 L 206.72025254140024,66.44243893551838 L 209.3473367931843,67.54536079438324 L 219.2177690002705,65.98105126609796 L 224.89625823497383,73.06234945621704 L 221.5328709608292,78.01293174809169 L 214.52646521777334,79.74259005361678 L 213.11052874219692,83.94018724807896 L 206.92488097789388,83.49498099172337 L 205.03394219817875,79.76438840766929 z" id="c47061"/>
		<path d="M 241.33886087499022,16.187314094111574 L 244.76275994545963,7.555096044851682 L 249.36009616280566,6.232779974585996 L 259.06684740744186,9.32770133448966 L 262.4961800922788,16.624622441984858 L 260.6040958245341,18.03398706309091 L 256.2035196739764,22.2833924856848 L 252.63148145084483,22.99521791372441 L 251.24789404218149,30.31573901946582 L 245.6429234946585,29.572877657791956 L 242.40639716105343,31.411363026305906 L 241.5122705213537,31.070258982283303 L 243.19067149032574,28.136839434924568 L 241.30851352787778,22.0046765937007 L 241.33886087499022,16.187314094111574 z" id="c47049"/>
		<path d="M 246.67988754726042,72.72658915086953 L 248.84545976842514,69.45010127386767 L 251.49558415424357,70.7825623533544 L 253.88170045869367,67.67043449862308 L 253.1969394265819,64.6646029761565 L 256.85900173882607,64.48868627525614 L 257.38034927907296,57.600112452494116 L 260.0781865434783,56.671860928714494 L 260.0030827538972,53.08726802193303 L 264.88390106488936,55.573903483706566 L 264.89589262348034,59.15950847933684 L 256.63735707415793,70.01307270015896 L 253.96880862307466,76.00537930527976 L 250.8813248785399,79.51106615892994 L 250.00369860215028,79.58592671040357 L 246.0016597313393,74.42384295488564 L 246.67988754726042,72.72658915086953 z" id="c47121"/>
		<path d="M 240.6023276785234,68.13306627239918 L 242.35238702013064,63.57751551621341 L 251.11346509096833,52.68163156822377 L 256.35951820882246,49.15394616219945 L 257.2692264361318,49.03303610594805 L 258.5868026584216,53.02078948657575 L 260.0030827538972,53.08726802193303 L 260.0781865434783,56.671860928714494 L 257.38034927907296,57.600112452494116 L 256.85900173882607,64.48868627525614 L 253.1969394265819,64.6646029761565 L 253.88170045869367,67.67043449862308 L 251.49558415424357,70.7825623533544 L 248.84545976842514,69.45010127386767 L 246.67988754726042,72.72658915086953 L 242.68634781957147,71.67881746774992 L 241.13816155658031,69.97982742224487 L 240.6023276785234,68.13306627239918 z" id="c47143"/>
		<path d="M 53.21319724732735,71.24124088805216 L 53.3436386237686,69.22064488413156 L 58.15015654018434,69.45319945818481 L 69.15080046938243,69.99038241210982 L 71.25656917778741,75.64650552454869 L 71.63643809642257,80.2863039695056 L 71.00385164987313,94.58255731322132 L 69.30416318611046,94.53638217694916 L 60.251668218732334,94.27978542410185 L 59.81262167855006,94.266883646941 L 51.80151508065086,94.04070405585368 L 53.21319724732735,71.24124088805216 z" id="c47069"/>
		<path d="M 191.10275048380078,10.69667778999832 L 191.6203161382817,3.1955427714447606 L 197.2707755957411,3.5100652297278936 L 202.12698683707993,3.80702074220456 L 206.78381758322092,4.086796417695853 L 210.68389940411384,4.1895465139000345 L 210.29770137703963,4.839225796467683 L 209.53906658789117,11.125030309973162 L 208.90027176421444,16.096607914138424 L 205.7965828311193,15.606433210007697 L 201.98409539724398,15.295978092486099 L 193.30647894880605,14.256100569176331 L 190.55489731412973,11.801579667078522 L 191.10275048380078,10.69667778999832 z" id="c47111"/>
		<path d="M 53.31764748056108,36.36973411602828 L 55.3188206488437,35.62748932582969 L 56.05698427665024,25.515726145279267 L 64.92871557005704,25.965666791040167 L 65.02906705729744,24.765929025361405 L 69.32195188393622,29.727299864230815 L 77.049151773518,34.19556485986075 L 75.9740499092269,49.577559636718135 L 66.31537480656152,48.9464756328597 L 57.5153063147395,45.000191507957595 L 56.47682419500229,38.96707422179616 L 54.09907119135824,37.07920242894046 L 53.31764748056108,36.36973411602828 z" id="c47053"/>
		<path d="M 287.3570346825464,58.63118011108848 L 285.51342185516216,54.959218049058634 L 285.71793940798455,49.71768771317301 L 286.62193408513104,47.17790050233058 L 292.5962114640735,47.63291226099166 L 293.5513541168946,45.10359079684289 L 300.11986590722876,47.381118743868406 L 302.7929991195211,44.71324879538618 L 307.13342813745453,54.5705623646965 L 309.123821498577,55.71244473802876 L 309.28558817533747,62.674971046151164 L 304.25238574289943,63.114658521522124 L 300.74981495734517,65.62395177829889 L 297.63937862600517,68.28024435820019 L 295.9660339348105,69.08640175498044 L 295.7047869402711,69.21217995508212 L 296.61432013043554,67.4987836070874 L 293.9790476445164,64.02419108139726 L 289.92336432302636,64.60291960342678 L 284.90367653477904,60.76722258336643 L 287.3570346825464,58.63118011108848 z" id="c47009"/>
		<path d="M 370.67944001993175,15.204039272582337 L 370.6300603903819,13.766318514816513 L 375.7165526384133,13.349504973941 L 384.84817563059585,6.859271638761533 L 381.73384440360076,14.97802614729796 L 387.68520137390465,20.569367297953725 L 386.5900544645973,22.6913411636315 L 383.6776766851253,28.7026321298399 L 381.35687186254086,29.85202146830836 L 381.31068085234,29.855454944742462 L 379.19847204996836,30.01194931989461 L 378.49735493865285,28.23493154411984 L 375.2111058348377,27.069642385186313 L 374.8087972333918,27.379865018637787 L 371.63674064398634,21.947219322219844 L 369.0744582901077,21.98018624615759 L 370.67944001993175,15.204039272582337 z" id="c47019"/>
		<path d="M 277.6946918850817,22.63774361091379 L 276.60270709527305,12.377830240899344 L 277.4273383474786,9.942386811169209 L 280.3616217353021,9.737201007712638 L 281.0595900521142,8.449466053467791 L 280.53429042837035,5.136793436730888 L 282.08917713163805,5.1407041485819 L 282.09549109999216,5.140674158743771 L 293.0437452758134,5.075274057201461 L 293.05431993906006,5.075494215734197 L 293.2244509930587,6.723428884142435 L 294.5601838983242,10.038631577787184 L 295.22626779991134,11.612575552335139 L 296.2211574437406,14.188865252427828 L 297.00868272792263,14.614556649421237 L 296.3334167177219,16.449912974127816 L 294.7891410599615,16.49697558705707 L 293.71228072203627,22.34194852604666 L 292.65951746761516,23.19172025907569 L 291.32884386427315,21.43746968992352 L 289.6922161266144,25.52017725291478 L 282.4369750093286,24.83491005971634 L 281.84881628121326,28.662871518925495 L 275.79402562942175,26.54419755397034 L 277.6946918850817,22.63774361091379 z" id="c47013"/>
		<path d="M 20.08158939012462,49.73734713927256 L 22.44917192015824,50.24719276043831 L 25.612822577942357,48.38167187421675 L 29.07000737827361,46.997464760661636 L 28.87149928219525,44.819306030918334 L 29.24530126454945,43.353218140132235 L 32.76594898195837,42.28268595162588 L 32.70887445904849,41.7889341851423 L 43.94872389814217,39.753397590206454 L 46.77719843407742,43.57687725583638 L 46.89153789580865,44.639890630872074 L 46.04513463138778,47.143393319527945 L 43.94226300910591,46.785812798834215 L 38.82135077754743,60.338423464802645 L 33.354680764198555,56.07117442203918 L 25.374423753740285,56.73472061334544 L 19.853111711295995,62.04322642413681 L 18.28539403068059,60.70941800585419 L 18.961054351296177,58.037732522621106 L 21.592183671027115,57.07653935355872 L 20.612205378686497,55.66135065266214 L 18.047269889798866,53.02828584593168 L 20.08158939012462,49.73734713927256 z" id="c47097"/>
		<path d="M 306.0843423907606,28.37741041366857 L 308.0278202753875,18.653878525855006 L 308.4758488360762,19.346568057332156 L 314.2025932394855,17.99161870175708 L 320.7940529714582,14.427769358201035 L 324.618306955628,15.74223604287058 L 325.68993103569466,15.343795615696465 L 325.33443974687225,16.255767335965462 L 327.0175976159523,21.297842233054194 L 323.65534168239134,20.959838357342953 L 318.2093813478303,25.57005764189323 L 317.46445540245855,28.045884262829052 L 314.05261282584996,27.7188475882537 L 308.0102132848797,31.098849985080786 L 308.3819543429411,33.60981688390922 L 306.87332147005134,32.00718780387903 L 305.2690177866522,28.918256797956843 L 306.0843423907606,28.37741041366857 z" id="c47057"/>
		<path d="M 331.28933889583163,27.314650041324708 L 332.3767048842031,26.914472143128545 L 335.03539012192266,23.720848570460063 L 341.5353542962583,18.273763326979843 L 352.15093336718786,13.637996029945878 L 355.3778671640517,13.053082878016452 L 355.17426769232856,28.516444997282665 L 357.69599589663505,31.277836769790614 L 357.32268374111595,34.63902105967375 L 356.2309012373908,33.26352944636815 L 351.86426703445517,35.902874899343956 L 349.4105166837539,37.442144974254845 L 349.1139982763708,39.7411853622301 L 347.84498763114937,41.38137396024569 L 345.746550707686,40.11903969272625 L 344.2488284046681,40.93691470257949 L 334.3001378548281,30.629701061996492 L 331.03420601996964,28.672253783770298 L 331.28933889583163,27.314650041324708 z" id="c47059"/>
		<path d="M 90.63231919691886,77.58516714558434 L 91.31175101520756,73.23622760047098 L 91.44461385560098,71.08530018808126 L 96.1943363625737,71.32690283604228 L 96.97934086561627,70.97208239865847 L 99.0218243812334,73.49712018815187 L 105.35343955000539,71.5346715488479 L 107.00962273297394,72.94649273575405 L 108.90210989008648,78.46563119882055 L 108.41406184657279,94.89016115219505 L 107.70898582764714,94.8741669416599 L 98.24600276409778,94.55245606514679 L 98.36523772533869,95.25811391969819 L 95.6571087482725,95.2061206115476 L 90.73975031137218,95.07389769071804 L 89.94854919086947,95.05212801197865 L 90.63231919691886,77.58516714558434 z" id="c47071"/>
		<path d="M 107.79074885345904,40.43445296922635 L 112.73670916590204,31.218800975451526 L 111.45884584228563,24.777654521723456 L 118.40046084344756,24.820179226128566 L 128.12646569514453,27.678020655091245 L 128.98257628877008,28.796513557920726 L 129.4772614935387,37.970975966589975 L 130.30168754772916,39.297681237706094 L 122.29416361469687,44.117422911815304 L 121.75138253041963,47.908157582710366 L 115.43887148360703,49.77530511292229 L 110.39802433215837,47.57157702816055 L 112.20156323470019,42.53050433900171 L 107.79074885345904,40.43445296922635 z" id="c47085"/>
		<path d="M 306.44195715847275,32.93824324702068 L 308.3819543429411,33.60981688390922 L 308.0102132848797,31.098849985080786 L 314.05261282584996,27.7188475882537 L 317.46445540245855,28.045884262829052 L 319.38846382797914,29.138156810708402 L 326.3859756018114,30.296297128604223 L 328.2947938483354,32.83539275483659 L 327.31949824295015,37.633888334643444 L 326.48020390686037,37.27967119899917 L 325.73471292126663,43.13062100882935 L 325.08358042093533,43.6609960502485 L 317.474127816615,42.32945016217137 L 308.1700868929979,36.00304811725058 L 306.44195715847275,32.93824324702068 z" id="c47089"/>
		<path d="M 280.6589615467421,42.1303431959169 L 288.7637497385712,34.69699406231923 L 295.63418197739287,27.89489993386977 L 297.34464445482064,29.303463430642925 L 305.2690177866522,28.918256797956843 L 306.87332147005134,32.00718780387903 L 308.3819543429411,33.60981688390922 L 306.44195715847275,32.93824324702068 L 308.1700868929979,36.00304811725058 L 309.2696634532169,38.93315377063518 L 302.7929991195211,44.71324879538618 L 300.11986590722876,47.381118743868406 L 293.5513541168946,45.10359079684289 L 292.5962114640735,47.63291226099166 L 286.62193408513104,47.17790050233058 L 285.71793940798455,49.71768771317301 L 285.0770547503854,48.87176330179845 L 281.1401743704961,44.59272847041971 L 280.74845627155753,43.84959282663977 L 280.6589615467421,42.1303431959169 z" id="c47093"/>
		<path d="M 384.84817563059585,6.859271638761533 L 389.76592176806184,1.335396843066169 L 391.7779703258598,0.5287942745248558 L 400.0,0.329438420383064 L 398.6601697658935,1.7401555207742712 L 397.76313331348166,4.691476602435969 L 398.14767024713046,8.587088777661558 L 396.49763103533445,11.757315046888126 L 396.9654724477616,13.07682669121419 L 397.98197970895484,15.941255982163439 L 395.0872690491088,15.922881912479644 L 392.12795977507653,15.692471003943334 L 388.8005127976789,18.405824283487583 L 388.36240874866854,19.255983997623876 L 387.68520137390465,20.569367297953725 L 381.73384440360076,14.97802614729796 L 384.84817563059585,6.859271638761533 z" id="c47091"/>
		<path d="M 153.05615460874057,36.86141221208208 L 156.7745388103889,24.099722047267942 L 159.4490613718924,18.498276003719084 L 159.1376417836466,17.565058116905444 L 163.16561611804173,19.46135084746631 L 166.41313918221744,16.329667970254068 L 171.66162247368302,24.896442225211942 L 173.71633028348825,25.47652064028634 L 175.39981819204274,31.732964270682814 L 177.28831359675524,33.691326667387955 L 175.84401949521975,34.408983269115225 L 172.48669867753557,41.17107215152883 L 164.590081725887,37.23008347789993 L 158.24354810684437,36.254070444567986 L 153.12333605278158,39.81261165045168 L 152.48953657120697,36.61318622998799 L 153.05615460874057,36.86141221208208 z" id="c47037"/>
		<path d="M 32.099824183122145,22.20465481116448 L 35.55228657021778,22.9107416253933 L 37.84158710248048,20.744627139004873 L 35.26718473565345,18.871935238721797 L 35.85507961322187,16.969891135034818 L 38.40303693262699,16.989943792401878 L 39.428236338320254,16.99760409091229 L 40.061160093383826,15.115409200879474 L 38.682205925376394,12.696496867705216 L 39.74396670404111,10.360817623403468 L 38.98403581236707,8.290280087150933 L 44.56649752067609,8.426395424096842 L 47.87049090940361,8.409485052437846 L 47.00820763626064,13.60460573904121 L 42.79157971796081,23.317216384981002 L 40.98300681074389,24.551496527783947 L 40.688281914094375,25.966200010647118 L 34.28158975705046,25.85142956963213 L 31.38046245904132,23.501293618832342 L 32.099824183122145,22.20465481116448 z" id="c47095"/>
		<path d="M 85.80584457238393,9.538980586038948 L 86.0089849337555,9.544608617788908 L 87.05438213597874,9.581155169970621 L 103.60853577490654,10.127317006640542 L 106.99931152875051,10.11713917738075 L 106.56263349954072,13.285003065935957 L 109.69609170645927,18.106943372335074 L 107.82183407592976,18.086798014712897 L 104.88194338207084,18.055652101401346 L 105.02402541566894,19.133663850082346 L 104.51156446915583,20.789411862182032 L 105.03715785242858,21.712996524736745 L 104.90055504317314,21.81342995088017 L 105.1181709552084,22.07175773317836 L 104.94035697620814,22.494704633542558 L 104.9725814663104,22.826386366648514 L 105.17439056739055,23.244789864347663 L 105.24572002758997,24.025542495705764 L 99.22399835738636,31.48708754607542 L 99.29651677121802,30.031811437756904 L 84.65432466240742,29.333869775679272 L 85.80584457238393,9.538980586038948 z" id="c47079"/>
		<path d="M 352.0779351533998,11.08188076480606 L 356.1700394716782,7.321337348596414 L 356.0665691042168,3.0237089498683267 L 361.6387824645683,2.785534355991828 L 370.46590778206,2.502356807398455 L 372.78579350904766,2.4250406550558834 L 375.9582014279391,2.3173623460518042 L 377.2566021477418,2.2690375271768635 L 386.91940049529813,1.8975435236337004 L 387.39293865498047,0.6289329047872801 L 391.7779703258598,0.5287942745248558 L 389.76592176806184,1.335396843066169 L 384.84817563059585,6.859271638761533 L 375.7165526384133,13.349504973941 L 370.6300603903819,13.766318514816513 L 364.94808536379384,11.09747879758763 L 356.75735821473637,12.754656708479029 L 353.11267466233585,12.391756823932859 L 352.0779351533998,11.08188076480606 z" id="c47163"/>
		<path d="M 107.00962273297394,72.94649273575405 L 109.39541178550274,72.27772252496203 L 107.83643755509141,71.20113213314372 L 108.74444077254388,69.50203128451524 L 121.36082930773321,68.05762492496152 L 124.6739403113314,68.71582924912474 L 127.87793695233543,72.98174083313754 L 127.68035257763603,92.7936991991461 L 126.083132449886,95.34993877289864 L 125.20035533102211,95.32331505638454 L 114.61929510943763,95.02622410588016 L 108.41406184657279,94.89016115219505 L 108.90210989008648,78.46563119882055 L 107.00962273297394,72.94649273575405 z" id="c47181"/>
		<path d="M 252.63148145084483,22.99521791372441 L 256.2035196739764,22.2833924856848 L 260.6040958245341,18.03398706309091 L 266.5468733708177,25.93984083312377 L 272.70373979779646,29.617603571532353 L 272.3232983623538,30.86014748620202 L 277.37592457008265,36.03500506301344 L 272.63273522387755,39.68557396710689 L 265.3815567266038,41.615682500109706 L 261.8817744548359,44.240425167881966 L 259.96817682212304,39.362445437079955 L 255.99754886162114,33.9915650484124 L 251.24789404218149,30.31573901946582 L 252.63148145084483,22.99521791372441 z" id="c47129"/>
		<path d="M 325.68993103569466,15.343795615696465 L 332.8073552822821,8.377225874948863 L 337.7630073648184,5.402352989891962 L 340.55582503692517,6.4899874560656095 L 345.95565758945884,3.438122164420727 L 356.0665691042168,3.0237089498683267 L 356.1700394716782,7.321337348596414 L 352.0779351533998,11.08188076480606 L 353.11267466233585,12.391756823932859 L 352.15093336718786,13.637996029945878 L 341.5353542962583,18.273763326979843 L 335.03539012192266,23.720848570460063 L 331.1796884950147,17.99053842751967 L 327.0175976159523,21.297842233054194 L 325.33443974687225,16.255767335965462 L 325.68993103569466,15.343795615696465 z" id="c47073"/>
		<path d="M 233.7493297025399,9.20880899319253 L 234.5472027626121,6.8238124313873625 L 234.1027196495431,3.8255004305126916 L 242.34082784580562,3.9654222955368494 L 247.88919844768492,4.3588243775279265 L 249.30416496697185,4.458038306523894 L 256.55982154000344,4.895350767013525 L 259.06684740744186,9.32770133448966 L 249.36009616280566,6.232779974585996 L 244.76275994545963,7.555096044851682 L 241.33886087499022,16.187314094111574 L 234.48859896736099,8.715675812245099 L 233.7493297025399,9.20880899319253 z" id="c47137"/>
		<path d="M 256.63735707415793,70.01307270015896 L 264.89589262348034,59.15950847933684 L 266.534122178247,59.148981689417 L 267.35797201929154,59.96786430967395 L 269.26451393640747,60.25639036123332 L 274.87144214044025,72.9744681822386 L 275.31515409726774,76.82384829017326 L 270.9633974223314,79.4392933158642 L 262.9867512186613,80.54342815471529 L 261.3233001416452,82.09680352918667 L 261.5824997765392,81.40548250470833 L 259.4069963572773,80.80727963364636 L 260.3818338455379,79.58972006522161 L 253.96880862307466,76.00537930527976 L 256.63735707415793,70.01307270015896 z" id="c47107"/>
		<path d="M 270.2272079655462,57.87804323194621 L 280.11663033061166,58.33659425363002 L 284.90367653477904,60.76722258336643 L 289.92336432302636,64.60291960342678 L 293.9790476445164,64.02419108139726 L 296.61432013043554,67.4987836070874 L 295.7047869402711,69.21217995508212 L 295.04990542705286,69.52737837695445 L 292.84670734411105,72.13398698742002 L 293.5468778587498,74.14776546480948 L 292.1573248128295,75.49720102235678 L 292.8943352463167,78.4644678138754 L 292.6384909519799,78.67716274250832 L 289.5083094273169,81.27664597744716 L 285.7478596542337,81.72835457735621 L 283.61617661275045,80.15693300195394 L 280.8918159041926,82.61591555616313 L 280.75531552636915,83.7989973026961 L 278.9215418526736,83.05838328401016 L 277.45627217893,82.27229250608953 L 270.9633974223314,79.4392933158642 L 275.31515409726774,76.82384829017326 L 274.87144214044025,72.9744681822386 L 269.26451393640747,60.25639036123332 L 270.2272079655462,57.87804323194621 z" id="c47123"/>
		<path d="M 97.0525267161276,64.98449986138706 L 99.59153385938619,60.49143856557373 L 100.37633952864742,48.72845263009667 L 100.47386083564105,47.082550947926386 L 106.29881629166886,46.973961156994655 L 110.00001898082552,48.99377728813044 L 106.9262945109677,54.51439729050576 L 106.76524550707204,59.92314404622504 L 109.4831708002682,65.69666359352367 L 106.25489979274484,69.96397633034786 L 107.83643755509141,71.20113213314372 L 109.39541178550274,72.27772252496203 L 107.00962273297394,72.94649273575405 L 105.35343955000539,71.5346715488479 L 99.0218243812334,73.49712018815187 L 96.97934086561627,70.97208239865847 L 96.74193914950402,70.05726044224909 L 97.0525267161276,64.98449986138706 z" id="c47039"/>
		<path d="M 71.63643809642257,80.2863039695056 L 74.51957935449282,80.36946035797695 L 78.35854866591774,74.03818390846588 L 81.83552868190712,72.92487218952915 L 91.31175101520756,73.23622760047098 L 90.63231919691886,77.58516714558434 L 89.94854919086947,95.05212801197865 L 85.77929446514929,94.93514512665153 L 71.00385164987313,94.58255731322132 L 71.63643809642257,80.2863039695056 z" id="c47109"/>
		<path d="M 258.1429150577883,96.49112447826602 L 261.5467917645318,86.06738173225656 L 261.3233001416452,82.09680352918667 L 262.9867512186613,80.54342815471529 L 270.9633974223314,79.4392933158642 L 277.45627217893,82.27229250608953 L 278.9215418526736,83.05838328401016 L 280.75531552636915,83.7989973026961 L 279.3253666428654,96.1503174425629 L 270.59165953527975,96.3130007004431 L 265.3452004447067,96.37313228848215 L 260.4015138194348,96.45761795244518 L 258.1429150577883,96.49112447826602 z" id="c47139"/>
		<path d="M 246.35578163249357,88.21743253757812 L 250.00369860215028,79.58592671040357 L 250.8813248785399,79.51106615892994 L 253.96880862307466,76.00537930527976 L 260.3818338455379,79.58972006522161 L 259.4069963572773,80.80727963364636 L 261.5824997765392,81.40548250470833 L 261.3233001416452,82.09680352918667 L 261.5467917645318,86.06738173225656 L 258.1429150577883,96.49112447826602 L 256.5265510075426,96.51441747870015 L 254.15439705797468,96.54756585583742 L 248.75758427219165,96.63956040840243 L 249.4793564507454,95.04668130461107 L 247.22685964433984,90.67436787714577 L 246.35578163249357,88.21743253757812 z" id="c47011"/>
		<path d="M 221.52530838174292,65.89601489674432 L 226.04842775434267,65.08663683739826 L 227.7122887752532,63.910601526289916 L 227.1489472168683,65.3914588561303 L 228.68831437186867,68.16571659837471 L 236.97783108525948,75.93324588304054 L 236.05819970879966,77.93640971918818 L 229.56253926607033,87.72987857741056 L 228.7992879693809,83.42857955952596 L 221.5328709608292,78.01293174809169 L 224.89625823497383,73.06234945621704 L 219.2177690002705,65.98105126609796 L 221.52530838174292,65.89601489674432 z" id="c47153"/>
		<path d="M 127.68035257763603,92.7936991991461 L 127.87793695233543,72.98174083313754 L 133.77058885205255,71.81562518796576 L 133.817373752631,69.70544438741078 L 140.94927823220573,70.55215043369546 L 144.0285812521545,71.46197657025341 L 145.0222748379719,71.25459098039155 L 143.73976159422566,79.2063146457974 L 144.51431722130903,79.56072996975087 L 143.90354171015522,95.85084158081021 L 126.083132449886,95.34993877289864 L 127.68035257763603,92.7936991991461 z" id="c47099"/>
		<path d="M 0.4833577100745402,90.1248777282053 L 2.1614005074779556,89.54563421199965 L 5.362079934552817,89.09166400694818 L 6.194755754980334,86.81904836034902 L 7.27811903299842,84.74093379745332 L 10.485510198824745,85.47457567341215 L 10.168461945817931,82.84001295620493 L 10.56250497691628,80.65401661255022 L 10.456566861633734,77.99912734393044 L 7.325681583055162,76.47040818848146 L 9.475290864037445,74.86185121597029 L 11.191596920154328,71.60044095977939 L 10.161577947279504,68.896472383472 L 12.138493970052583,68.23353875154787 L 13.290721357017222,68.72719195454076 L 13.50291905186061,69.80881099896196 L 21.574413305254506,70.46191474390798 L 29.177226609964535,69.745137564941 L 32.34189004288061,71.72271954313408 L 31.01274498343775,93.33546373599782 L 27.270279808544945,93.18769934602993 L 25.624538141015893,93.12174707462756 L 23.965880588434985,93.05467567117891 L 0.0,91.98228490264002 L 0.4833577100745402,90.1248777282053 z" id="c47157"/>
		<path d="M 13.962904826205353,61.099369158394026 L 17.606422887934087,61.73783706804295 L 18.28539403068059,60.70941800585419 L 19.853111711295995,62.04322642413681 L 25.374423753740285,56.73472061334544 L 33.354680764198555,56.07117442203918 L 38.82135077754743,60.338423464802645 L 40.24615902857778,62.32149704525464 L 39.75774447602966,70.44788126901553 L 33.13919123256353,71.02379470175136 L 32.34189004288061,71.72271954313408 L 29.177226609964535,69.745137564941 L 21.574413305254506,70.46191474390798 L 13.50291905186061,69.80881099896196 L 13.290721357017222,68.72719195454076 L 14.466385545466691,66.39548172708592 L 13.457627295135742,64.13156577529259 L 13.962904826205353,61.099369158394026 z" id="c47167"/>
		<path d="M 126.00216404381105,2.6451163162029254 L 139.41265765103995,2.6568180361042364 L 139.95285027100323,2.6564447403853357 L 150.05419446707697,2.637448032709087 L 148.38621270182472,7.003839040355986 L 149.68307430816765,13.335534645025573 L 142.240208557864,19.06731979812978 L 141.97591512013608,20.814238393513257 L 141.2056922357909,21.342359047550367 L 131.56882145374928,19.94048295239565 L 128.20657725759054,19.48637530595818 L 127.98268219064745,18.014620891317474 L 126.00216404381105,2.6451163162029254 z" id="c47125"/>
		<path d="M 106.25489979274484,69.96397633034786 L 109.4831708002682,65.69666359352367 L 106.76524550707204,59.92314404622504 L 106.9262945109677,54.51439729050576 L 110.00001898082552,48.99377728813044 L 110.39802433215837,47.57157702816055 L 115.43887148360703,49.77530511292229 L 121.75138253041963,47.908157582710366 L 120.32874813341365,57.79662033560094 L 124.23503613204085,60.961250769425256 L 124.52874014478452,63.26802119030557 L 121.36082930773321,68.05762492496152 L 108.74444077254388,69.50203128451524 L 107.83643755509141,71.20113213314372 L 106.25489979274484,69.96397633034786 z" id="c47135"/>
		<path d="M 302.7929991195211,44.71324879538618 L 309.2696634532169,38.93315377063518 L 308.1700868929979,36.00304811725058 L 317.474127816615,42.32945016217137 L 325.08358042093533,43.6609960502485 L 327.45484989265725,47.61286139177535 L 327.8910406534282,53.83507043349522 L 327.5124348974923,54.528364791924794 L 326.0849747880427,57.14001596368068 L 323.7627236098792,57.04904891946121 L 320.39853927960127,59.93485495609117 L 318.98247033629343,60.44094433460925 L 316.91522302727094,62.75965300340067 L 312.76447804319065,62.63800803451018 L 309.73662633103424,62.63529305631696 L 309.28558817533747,62.674971046151164 L 309.123821498577,55.71244473802876 L 307.13342813745453,54.5705623646965 L 302.7929991195211,44.71324879538618 z" id="c47155"/>
		<path d="M 30.95198288661702,35.08785481528235 L 31.65534365811253,31.596643311438516 L 33.402357143051056,30.463149317765925 L 35.81064756963857,28.73528570218169 L 34.45299069411504,25.99014101615591 L 34.28158975705046,25.85142956963213 L 40.688281914094375,25.966200010647118 L 40.98300681074389,24.551496527783947 L 56.05698427665024,25.515726145279267 L 55.3188206488437,35.62748932582969 L 53.31764748056108,36.36973411602828 L 54.09907119135824,37.07920242894046 L 49.67680420280683,43.36398124699978 L 46.77719843407742,43.57687725583638 L 43.94872389814217,39.753397590206454 L 32.70887445904849,41.7889341851423 L 32.59114391024842,40.769991789496835 L 31.050308933015085,39.22234244166318 L 29.037244132415573,36.14443602477772 L 30.95198288661702,35.08785481528235 z" id="c47045"/>
		<path d="M 353.11267466233585,12.391756823932859 L 356.75735821473637,12.754656708479029 L 364.94808536379384,11.09747879758763 L 370.6300603903819,13.766318514816513 L 370.67944001993175,15.204039272582337 L 369.0744582901077,21.98018624615759 L 365.57883171896526,27.194332232202477 L 360.69279436938245,28.17942615013262 L 357.69599589663505,31.277836769790614 L 355.17426769232856,28.516444997282665 L 355.3778671640517,13.053082878016452 L 352.15093336718786,13.637996029945878 L 353.11267466233585,12.391756823932859 z" id="c47179"/>
		<path d="M 145.6145360224291,42.48890550536712 L 145.4976696805594,41.43222823117057 L 146.12767656241311,40.49295713717054 L 146.5586628264805,36.31040546222047 L 151.0312200552073,36.698026240965085 L 152.48953657120697,36.61318622998799 L 153.12333605278158,39.81261165045168 L 158.24354810684437,36.254070444567986 L 164.590081725887,37.23008347789993 L 172.48669867753557,41.17107215152883 L 172.67996869039553,51.26026892077219 L 169.28162509792335,55.790149265376876 L 166.24845494169122,56.53930944681062 L 164.8485243693566,55.95287574808688 L 157.7692856453657,52.824895219630264 L 154.62613648426412,51.7520635669792 L 153.17070472027564,50.762349281701574 L 144.92074314143105,47.58028999312988 L 145.6145360224291,42.48890550536712 z" id="c47187"/>
		<path d="M 208.90027176421444,16.096607914138424 L 209.53906658789117,11.125030309973162 L 214.56342497549832,9.812587797282198 L 220.44066957334618,12.670945498499508 L 224.1498825493956,16.540835603788032 L 224.05878430861836,18.130634699735822 L 224.19303468803028,22.257211881128207 L 221.3487257819746,26.757021770603604 L 211.1172238901199,25.95037798100983 L 208.93268573385137,24.9758487252936 L 208.90027176421444,16.096607914138424 z" id="c47087"/>
		<path d="M 32.34189004288061,71.72271954313408 L 33.13919123256353,71.02379470175136 L 39.75774447602966,70.44788126901553 L 53.21319724732735,71.24124088805216 L 51.80151508065086,94.04070405585368 L 44.60029646695922,93.82538111692502 L 40.76292051612684,93.70599592813235 L 31.01274498343775,93.33546373599782 L 32.34189004288061,71.72271954313408 z" id="c47047"/>
		<path d="M 316.61258135395417,3.9682123796285365 L 325.5656190008784,3.8010658216343067 L 338.9119450647476,3.574007857377496 L 345.95565758945884,3.438122164420727 L 340.55582503692517,6.4899874560656095 L 337.7630073648184,5.402352989891962 L 332.8073552822821,8.377225874948863 L 325.68993103569466,15.343795615696465 L 324.618306955628,15.74223604287058 L 320.7940529714582,14.427769358201035 L 321.52123708474085,11.798439189412166 L 320.0834641221887,7.541955494962414 L 316.61258135395417,3.9682123796285365 z" id="c47067"/>
		<path d="M 176.61409753911565,75.98491691405066 L 181.38856684344745,78.04214102579908 L 189.05916604842122,72.75955947007203 L 188.01923138557677,74.17567166485708 L 188.86621868634765,77.23284084180365 L 189.61641139935756,77.77506049352718 L 186.77626514512602,83.0333472938606 L 186.19447024394864,88.93963122837049 L 184.08818605580856,89.15662042172897 L 182.77062576394107,82.78072920791796 L 176.50920600072382,78.43297926039199 L 176.61409753911565,75.98491691405066 z" id="c47127"/>
		<path d="M 224.1498825493956,16.540835603788032 L 226.36819050027142,11.146673437575144 L 233.7493297025399,9.20880899319253 L 234.48859896736099,8.715675812245099 L 241.33886087499022,16.187314094111574 L 241.30851352787778,22.0046765937007 L 243.19067149032574,28.136839434924568 L 241.5122705213537,31.070258982283303 L 237.61876541591351,30.66294763434123 L 226.93200336283599,25.368853456890633 L 224.19303468803028,22.257211881128207 L 224.05878430861836,18.130634699735822 L 224.1498825493956,16.540835603788032 z" id="c47133"/>
		<path d="M 257.2692264361318,49.03303610594805 L 259.6582439336472,47.10952881288076 L 261.8817744548359,44.240425167881966 L 265.3815567266038,41.615682500109706 L 272.63273522387755,39.68557396710689 L 277.37592457008265,36.03500506301344 L 278.4333448413334,39.2708156781548 L 280.74845627155753,43.84959282663977 L 281.1401743704961,44.59272847041971 L 278.07221381764765,44.875034295441125 L 277.31568920713016,48.32123217698611 L 266.534122178247,59.148981689417 L 264.89589262348034,59.15950847933684 L 264.88390106488936,55.573903483706566 L 260.0030827538972,53.08726802193303 L 258.5868026584216,53.02078948657575 L 257.2692264361318,49.03303610594805 z" id="c47145"/>
	</g>
</svg>