<?xml version="1.0" encoding="UTF-8"?>
<svg baseProfile="full" fill="#d0d0d0" height="400.0" stroke="#ffffff" stroke-width="1" version="1.1" width="242.79057195870413" xmlns="http://www.w3.org/2000/svg" xmlns:ev="http://www.w3.org/2001/xml-events" xmlns:xlink="http://www.w3.org/1999/xlink">
	<defs/>
	<g id="counties"><path d="M 2.070805906172061,236.76255240926486 L 4.787501712159792,229.63427902002152 L 9.017190340732522,220.2436769475534 L 28.627410348552186,218.0646156122156 L 27.135720011014737,205.73852559836692 L 51.03538143677217,204.27321493465988 L 52.646103522361045,211.57567713116964 L 59.998527089455365,207.84937358405577 L 69.73176959541574,202.87168695347702 L 70.81507685693708,205.61798007340434 L 75.32837470971614,207.46306652568146 L 76.1567388533803,205.7484581559196 L 81.25792190045873,208.41675342976652 L 82.23825018626012,211.82600271539403 L 77.67307546329769,221.94224472996237 L 79.2581059495475,222.62480830830094 L 77.47118820053659,227.08720323802683 L 92.53926873527833,233.07150851808828 L 83.47682527150789,268.83282786621186 L 89.51454707634046,271.6736308019463 L 84.90265751389445,290.4376528340984 L 72.9854015522711,287.43767397943896 L 71.08920867612245,299.7092362535499 L 57.27695796430247,301.2284287144443 L 21.706107812410494,296.9380172453249 L 22.104660375732113,288.4243398170077 L 23.745702333820706,258.50585379128734 L 17.4680594888153,249.79001829151628 L 13.02320325036354,242.51695288261618 L 4.281588329793253,252.52364720452482 L 0.6329383377385553,247.12499285852246 L 2.070805906172061,236.76255240926486 z" id="c50021"/>
		<path d="M 113.94542553057904,32.20225717718183 L 111.27772637067325,1.4434177650048021 L 113.97440927442385,1.725634143968597 L 136.76062532649465,2.0992322870753894 L 177.06065553999636,1.7392046575613052 L 190.47461347095205,1.47683809837421 L 192.61720275183666,1.412013825598991 L 188.92569023079704,19.03870544291363 L 195.67850235820381,24.388267555241946 L 183.37718119737002,40.169368011485105 L 187.67409986309914,43.19463128447893 L 178.71993454245074,55.51380508227932 L 165.973707550984,46.710095107634004 L 147.603823507122,82.97920053611074 L 133.627599982066,75.71271251965918 L 120.2079305214923,67.02748086678423 L 128.29548698568573,51.48655988206179 L 108.27988106671299,41.23883765287047 L 113.94542553057904,32.20225717718183 z" id="c50019"/>
		<path d="M 183.37718119737002,40.169368011485105 L 195.67850235820381,24.388267555241946 L 188.92569023079704,19.03870544291363 L 192.61720275183666,1.412013825598991 L 218.1091114798467,0.6055908281929014 L 228.2720116465197,0.27374894673434796 L 241.74250945685137,0.0 L 238.04014504493952,6.569390172409108 L 242.79057195870413,17.722549901240534 L 239.3824142590758,23.18326893506118 L 233.57246808913212,36.44433184638543 L 226.6561049297319,46.660009321073034 L 232.08535287817844,60.89966757348711 L 236.2561960680999,67.4456268001507 L 237.20296839079606,75.87374640298967 L 231.8782746863877,81.42350867554079 L 232.9806157358217,89.45750356314682 L 224.7201857779151,95.29447740310844 L 219.2543368946214,103.66903201739336 L 210.23746559100536,106.83926379209598 L 208.31286853698214,107.51464722500053 L 203.34506159139403,115.74050198847657 L 200.97775345364025,116.66352710943448 L 188.8987934253495,100.44196196383902 L 198.4125534397381,90.76606641033568 L 191.84644520260855,81.92640168614487 L 199.98887468358936,70.6725101077642 L 191.51737272117913,64.47246593654141 L 200.51745265799585,52.24850641789165 L 187.67409986309914,43.19463128447893 L 183.37718119737002,40.169368011485105 z" id="c50009"/>
		<path d="M 23.89788691743025,44.67147960018402 L 32.025162568841274,18.676610837180867 L 27.3400117265821,15.3630836341155 L 26.19422384768271,11.134144705091375 L 32.23962518868565,0.4865730869868709 L 35.01325317884246,0.45749517836909076 L 50.070871708548,0.2862542929137404 L 63.93747727534189,0.46188576907221657 L 107.7970149377814,1.0780554874655284 L 111.27772637067325,1.4434177650048021 L 113.94542553057904,32.20225717718183 L 108.27988106671299,41.23883765287047 L 104.06329164444016,37.739664670505604 L 96.13571828934825,39.01337941127222 L 87.23822270874244,40.39481340303469 L 81.19109668038162,56.784963893787705 L 74.28400609388036,53.46222072264134 L 65.11721467956637,67.0433571487264 L 50.93351021548008,63.797736158663255 L 27.258197807406702,51.0903515497036 L 23.89788691743025,44.67147960018402 z" id="c50011"/>
		<path d="M 57.36222421269075,198.04837108586335 L 70.46213236726025,194.59298310618186 L 71.85359252305493,201.7772267911798 L 81.25729239445845,184.31894444701737 L 82.26271321262438,190.0649975842522 L 108.59832368045132,199.8334456626851 L 123.03977867864573,205.95757421735578 L 154.50209343402585,217.2918259229822 L 153.17289088797494,219.59911829929152 L 145.25163885560832,226.5144235832586 L 139.6292112017467,246.07688187147804 L 139.11327032953463,246.5670908568492 L 133.3049476276821,252.08082195503118 L 133.1405458307472,266.16650908197755 L 131.12112028165464,277.40289105232796 L 131.11704737301025,277.4255284676677 L 129.03538279328828,288.98249770968874 L 129.86512690872271,293.39734228446923 L 130.42547945916343,296.3767269140262 L 128.0063597321808,306.31993016374014 L 126.4759157067398,311.6527949592909 L 94.29986399642013,313.4470880906937 L 77.24769791583789,307.63370368643393 L 77.20902145146687,300.0019010626554 L 71.08920867612245,299.7092362535499 L 72.9854015522711,287.43767397943896 L 84.90265751389445,290.4376528340984 L 89.51454707634046,271.6736308019463 L 83.47682527150789,268.83282786621186 L 92.53926873527833,233.07150851808828 L 77.47118820053659,227.08720323802683 L 79.2581059495475,222.62480830830094 L 77.67307546329769,221.94224472996237 L 82.23825018626012,211.82600271539403 L 81.25792190045873,208.41675342976652 L 76.1567388533803,205.7484581559196 L 75.32837470971614,207.46306652568146 L 70.81507685693708,205.61798007340434 L 69.73176959541574,202.87168695347702 L 59.998527089455365,207.84937358405577 L 57.36222421269075,198.04837108586335 z" id="c50027"/>
		<path d="M 54.446836471972674,331.3365778688843 L 70.83844681338405,332.45599066096537 L 77.24769791583789,307.63370368643393 L 94.29986399642013,313.4470880906937 L 126.4759157067398,311.6527949592909 L 125.59068185771535,314.7348569501341 L 124.34069915530331,324.17027969532626 L 124.16177635858347,325.51947824393187 L 126.29400803785319,337.19129247856813 L 122.83516431907728,344.5970086326814 L 124.1555567401688,348.737195737768 L 125.05121302107743,351.54368152608174 L 118.9502502975185,357.96482595187274 L 113.87385740852503,360.1817302409362 L 113.96207804791953,370.1317240977786 L 110.79544723936739,375.6637457091674 L 111.07832234589284,377.09899767674165 L 112.91081848171878,386.38723757976845 L 120.88060783302349,393.9971036600082 L 123.33994762709001,400.0 L 115.85038752113074,399.71922568129145 L 78.22300264860948,398.230275139185 L 71.12316989139435,398.0041889096302 L 63.041212709692445,397.7411692344847 L 62.635083638465225,397.7277931462336 L 63.94247205411265,364.9619845421566 L 52.824780656922776,364.32531977149057 L 54.446836471972674,331.3365778688843 z" id="c50025"/>
		<path d="M 133.627599982066,75.71271251965918 L 147.603823507122,82.97920053611074 L 165.973707550984,46.710095107634004 L 178.71993454245074,55.51380508227932 L 187.67409986309914,43.19463128447893 L 200.51745265799585,52.24850641789165 L 191.51737272117913,64.47246593654141 L 199.98887468358936,70.6725101077642 L 191.84644520260855,81.92640168614487 L 198.4125534397381,90.76606641033568 L 188.8987934253495,100.44196196383902 L 200.97775345364025,116.66352710943448 L 196.22099840470767,118.51605377584376 L 187.53553928244173,118.51319740606495 L 180.3867870561905,120.80704947669905 L 174.9045917186,126.58189073691841 L 173.98310330733048,134.45490990168446 L 173.1185815641275,145.28168483040318 L 174.08616132102668,149.66534634948812 L 159.42766172542775,144.10553471816118 L 142.50594966978144,145.71433254132168 L 134.5371071977666,142.0793061522628 L 140.8728860773908,125.5960674192989 L 146.8432361509245,118.27443324294516 L 153.41056923850192,105.8801418358499 L 153.0087096943658,104.13895203517134 L 140.35184426865683,96.92646969375663 L 126.20945651763344,89.34691445316787 L 133.627599982066,75.71271251965918 z" id="c50005"/>
		<path d="M 65.11721467956637,67.0433571487264 L 74.28400609388036,53.46222072264134 L 81.19109668038162,56.784963893787705 L 87.23822270874244,40.39481340303469 L 96.13571828934825,39.01337941127222 L 104.06329164444016,37.739664670505604 L 108.27988106671299,41.23883765287047 L 128.29548698568573,51.48655988206179 L 120.2079305214923,67.02748086678423 L 133.627599982066,75.71271251965918 L 126.20945651763344,89.34691445316787 L 118.88789929440115,103.85577088777323 L 105.8981292036681,94.02402030966 L 98.67127313510471,108.1692483833037 L 84.74244249526576,100.38529817770058 L 79.85204693646233,98.7824707105172 L 75.64940373314003,97.44699105378963 L 79.37104631086717,81.97371119453531 L 73.60086579878848,76.83305454688818 L 65.11721467956637,67.0433571487264 z" id="c50015"/>
		<path d="M 65.00190672579828,138.78276664220067 L 68.32354079671886,129.3606983903297 L 66.39407878171262,128.39340664078154 L 73.45800373443316,113.79619908978705 L 77.14638871678609,114.9223187540118 L 75.54719276818483,107.20357614765507 L 79.85204693646233,98.7824707105172 L 84.74244249526576,100.38529817770058 L 98.67127313510471,108.1692483833037 L 105.8981292036681,94.02402030966 L 118.88789929440115,103.85577088777323 L 126.20945651763344,89.34691445316787 L 140.35184426865683,96.92646969375663 L 153.0087096943658,104.13895203517134 L 153.41056923850192,105.8801418358499 L 146.8432361509245,118.27443324294516 L 140.8728860773908,125.5960674192989 L 134.5371071977666,142.0793061522628 L 125.16591881027499,155.25387192501947 L 106.7718634250842,149.730201926041 L 105.25018284301107,154.16694279923655 L 101.77738527911238,162.2333812751344 L 94.84333944802803,175.4384615373318 L 87.47620444193518,172.5004575241266 L 65.53341296539509,165.03860964130436 L 61.164072472990874,149.40735896303875 L 65.00190672579828,138.78276664220067 z" id="c50023"/>
		<path d="M 7.002695180510751,68.92076660087626 L 10.196278983042095,54.864945796893885 L 11.272160791987329,46.01786091345782 L 14.255953333990709,37.11196312671238 L 13.323866515722951,36.07408066584634 L 10.415992642993563,32.834197197954026 L 8.71603858201748,27.47393742074347 L 13.898710970427931,16.93697395011225 L 13.27989195157609,7.7109436266231075 L 13.553581478252541,0.6624893670450956 L 32.23962518868565,0.4865730869868709 L 26.19422384768271,11.134144705091375 L 27.3400117265821,15.3630836341155 L 32.025162568841274,18.676610837180867 L 23.89788691743025,44.67147960018402 L 27.258197807406702,51.0903515497036 L 22.470889712895293,73.79471642837309 L 10.29998866562491,78.93986012931992 L 9.736120340505288,78.04497591613212 L 7.002695180510751,68.92076660087626 z" id="c50013"/>
		<path d="M 81.25729239445845,184.31894444701737 L 87.47620444193518,172.5004575241266 L 94.84333944802803,175.4384615373318 L 101.77738527911238,162.2333812751344 L 105.25018284301107,154.16694279923655 L 106.7718634250842,149.730201926041 L 125.16591881027499,155.25387192501947 L 134.5371071977666,142.0793061522628 L 142.50594966978144,145.71433254132168 L 159.42766172542775,144.10553471816118 L 174.08616132102668,149.66534634948812 L 176.2717707309711,159.55380294377213 L 171.47627704971129,171.5417264742553 L 170.9497969187109,172.30528267766076 L 170.91878904731226,172.3502491235281 L 166.31850172855664,179.01600894643815 L 167.71935069407203,186.4450890580044 L 159.71084350019666,199.74093062268395 L 158.04259306607747,211.14019860019073 L 154.50209343402585,217.2918259229822 L 123.03977867864573,205.95757421735578 L 108.59832368045132,199.8334456626851 L 82.26271321262438,190.0649975842522 L 81.25729239445845,184.31894444701737 z" id="c50017"/>
		<path d="M 2.700109996497605,159.72159339819768 L 4.8714112991422684,150.47879909058955 L 5.460728793877411,147.9674534065337 L 11.295363733510719,136.94827697694447 L 15.520237158930735,132.20388310310463 L 15.425079957207588,131.1982294851185 L 58.63836990181593,126.31706295410072 L 59.58780552276542,137.34014180563736 L 61.164072472990874,149.40735896303875 L 65.53341296539509,165.03860964130436 L 87.47620444193518,172.5004575241266 L 81.25729239445845,184.31894444701737 L 71.85359252305493,201.7772267911798 L 70.46213236726025,194.59298310618186 L 57.36222421269075,198.04837108586335 L 59.998527089455365,207.84937358405577 L 52.646103522361045,211.57567713116964 L 51.03538143677217,204.27321493465988 L 27.135720011014737,205.73852559836692 L 28.627410348552186,218.0646156122156 L 9.017190340732522,220.2436769475534 L 10.364361274023475,217.24895543975813 L 6.408550572040473,210.62498156863364 L 5.442620249776344,209.005995971051 L 7.604579898462284,198.8672831816938 L 3.453457446950862,189.33608025978526 L 3.099143342105841,181.3500368822462 L 3.8326121241782647,175.0907953513612 L 0.0,169.61811104746852 L 2.700109996497605,159.72159339819768 z" id="c50001"/>
		<path d="M 17.953618440088977,380.93727463958743 L 18.75239169329721,361.7009271766212 L 19.382170925396064,346.5026462042559 L 19.419803589284935,345.5935767395338 L 21.706107812410494,296.9380172453249 L 57.27695796430247,301.2284287144443 L 71.08920867612245,299.7092362535499 L 77.20902145146687,300.0019010626554 L 77.24769791583789,307.63370368643393 L 70.83844681338405,332.45599066096537 L 54.446836471972674,331.3365778688843 L 52.824780656922776,364.32531977149057 L 63.94247205411265,364.9619845421566 L 62.635083638465225,397.7277931462336 L 60.21958893819531,397.6479230935575 L 51.26352397985271,397.34708632667815 L 50.70139837374717,397.32795753398545 L 35.33078315882176,396.79360516025 L 19.577423839302675,396.2233191714016 L 16.325393517287058,386.419925388977 L 17.953618440088977,380.93727463958743 z" id="c50003"/>
		<path d="M 10.29998866562491,78.93986012931992 L 22.470889712895293,73.79471642837309 L 27.258197807406702,51.0903515497036 L 50.93351021548008,63.797736158663255 L 65.11721467956637,67.0433571487264 L 73.60086579878848,76.83305454688818 L 79.37104631086717,81.97371119453531 L 75.64940373314003,97.44699105378963 L 79.85204693646233,98.7824707105172 L 75.54719276818483,107.20357614765507 L 77.14638871678609,114.9223187540118 L 73.45800373443316,113.79619908978705 L 66.39407878171262,128.39340664078154 L 68.32354079671886,129.3606983903297 L 65.00190672579828,138.78276664220067 L 61.164072472990874,149.40735896303875 L 59.58780552276542,137.34014180563736 L 58.63836990181593,126.31706295410072 L 15.425079957207588,131.1982294851185 L 14.65675250946598,123.06984363008368 L 13.435057810176186,114.87501962908813 L 15.194441796644782,110.38851973171715 L 18.716307860961898,100.31340220393807 L 16.42278857607724,88.64461438812336 L 12.1056077538195,81.80416002376883 L 10.29998866562491,78.93986012931992 z" id="c50007"/>
	</g>
</svg>