<?xml version="1.0" encoding="UTF-8"?>
<svg baseProfile="full" fill="#d0d0d0" height="173.39598636005508" stroke="#ffffff" stroke-width="1" version="1.1" width="400.0" xmlns="http://www.w3.org/2000/svg" xmlns:ev="http://www.w3.org/2001/xml-events" xmlns:xlink="http://www.w3.org/1999/xlink">
	<defs/>
	<g id="counties"><path d="M 330.60211353287923,127.26388133295751 L 331.1987024961654,127.24113949033718 L 333.401048027742,127.98774672234391 L 333.5042429336002,129.56347686354928 L 334.2631067955877,130.46209658961976 L 330.606761225605,129.1822208470041 L 330.60211353287923,127.26388133295751 z" id="c51830"/>
		<path d="M 291.98020039441,163.56279690330717 L 294.30877324712645,162.5009275193876 L 294.64190072314125,164.57799277274415 L 293.8210659177037,165.336430653619 L 292.6640094219013,165.38757303580525 L 291.98020039441,163.56279690330717 z" id="c51595"/>
		<path d="M 34.96283944607686,160.25882625538773 L 41.05020897517415,157.1229719598474 L 43.700886304563134,153.30443690268885 L 51.24342483239511,148.85740369506235 L 61.0863764440756,149.03464706859342 L 61.276910347723735,149.55830535929698 L 63.429148949201895,155.37588317311017 L 64.41061147949647,159.62324846399548 L 65.34757449228945,164.96071975946853 L 65.94125694841685,166.44568036502636 L 56.719148643361976,166.0101569800143 L 50.89270302496504,165.79652555257053 L 40.32199131733729,165.38915393409698 L 32.97070183778904,164.9451870675033 L 34.96283944607686,160.25882625538773 z" id="c51169"/>
		<path d="M 170.5413824444264,128.49246726032715 L 175.21578380515336,127.31055876575314 L 174.63873708442694,129.9954218910492 L 172.36006581434685,129.7752195910837 L 170.5413824444264,128.49246726032715 z" id="c51775"/>
		<path d="M 260.01825264075524,128.60782502885542 L 279.2449243874696,134.0952813347852 L 280.68034898684385,134.64139920699387 L 275.7515961737077,137.56383991869154 L 276.3081774995119,146.75306287598946 L 272.5850564211855,146.8666902414403 L 270.884237799755,144.77376470150503 L 267.1614778655342,145.48206924713568 L 259.663351712555,139.0498933997335 L 260.01825264075524,128.60782502885542 z" id="c51135"/>
		<path d="M 347.2489713218805,149.13675480003695 L 347.94225786741026,147.92819055154 L 350.0049997503321,149.43900030192026 L 350.46049719179763,151.11296332067806 L 350.3143601915244,152.3816778912947 L 352.61946285171535,155.46858255476297 L 352.5488301786645,156.85711328744551 L 349.14640263750346,157.58161123770802 L 347.3845803740455,156.51726828274937 L 347.934318783567,153.79086132598744 L 346.3459781030045,152.9880765216367 L 347.2489713218805,149.13675480003695 z" id="c51740"/>
		<path d="M 355.6381063733593,154.33335862272318 L 357.0276668147792,154.99845432434358 L 357.15137076793997,152.072980754427 L 357.8448145482148,149.02424461729868 L 362.1100222217048,150.093889751507 L 364.2169430236782,148.91712613355415 L 366.45261039644436,149.18289265726068 L 368.3019863411835,156.37080117352787 L 370.3805173872607,162.71519581559465 L 371.953943774003,166.30657799297194 L 373.23172242604954,171.01535439591348 L 365.59476634146847,171.23972105002917 L 361.02291117270175,171.36057813842137 L 360.86488782451295,164.53208406580282 L 363.39922452821935,162.8744329051583 L 356.8073895405131,158.46779838493154 L 355.7838801834492,155.4656711275199 L 355.6381063733593,154.33335862272318 z" id="c51810"/>
		<path d="M 199.4547253941289,168.55803712111071 L 203.20342162542667,169.64943497988756 L 204.38061792833673,167.08066841400887 L 205.94087970300353,169.2444747152281 L 208.9102358332794,171.07199020182532 L 206.95127442962712,173.20614462714158 L 200.87782656132293,173.16436626788214 L 201.55013004743392,171.02875041524914 L 198.57762037985432,169.43206819203226 L 199.4547253941289,168.55803712111071 z" id="c51590"/>
		<path d="M 211.04270922520848,119.48572160609322 L 214.89202100194143,118.45201254779816 L 217.9559893868498,122.48297595205713 L 219.6173034502503,122.69021324118717 L 213.44986085502796,126.33933278313566 L 211.42444894234657,124.94566042921736 L 211.04270922520848,119.48572160609322 z" id="c51680"/>
		<path d="M 307.752902708473,33.18703302637893 L 308.0266067469056,33.349191897088275 L 308.7970954495788,33.517575559071794 L 309.85813473012695,34.54404770724774 L 309.4573358510774,34.69778313621463 L 308.7648449866846,34.386045084845016 L 308.0002623145547,34.42477267922491 L 307.7846425337124,33.956050571453815 L 307.98187453147455,33.46110997394077 L 307.752902708473,33.18703302637893 z" id="c51610"/>
		<path d="M 272.8743704899551,79.80968171974607 L 283.93492736493016,66.85118253146672 L 284.4933520440478,65.35995727883801 L 287.14856208075724,64.31254493137166 L 288.41494754709834,64.90946658095558 L 289.13479522345676,66.93990444659585 L 292.5787953702284,68.3446821097308 L 294.38903180554564,70.42691836909077 L 296.47901265869535,69.75762983238758 L 299.1359784289396,72.03966020327813 L 300.0959362956711,71.96944659916569 L 293.29959721403,80.41499220349402 L 287.51356776408164,87.27386556846736 L 285.3960439147531,86.27844275762754 L 278.28436049953314,80.50090871788052 L 272.8743704899551,79.80968171974607 z" id="c51177"/>
		<path d="M 289.24840689306154,153.22721931207224 L 299.669366131927,146.28822478918465 L 309.63438618668283,139.87578249237578 L 311.1244830895621,139.077486456107 L 320.2113809811077,142.34527358349806 L 320.87475157140193,148.86001227777462 L 298.36252854548866,163.22084948038437 L 295.49583262820704,162.46170205543297 L 296.8952097303842,154.0294372027894 L 294.4447753055806,155.11670481598426 L 289.24840689306154,153.22721931207224 z" id="c51183"/>
		<path d="M 110.31075908279672,146.8576495477639 L 117.83947255762452,141.42967245486116 L 123.03619020049751,143.0767439723803 L 132.6967544405142,140.33237400374253 L 133.54815625917615,143.07962110142142 L 140.59235653780027,152.05788671554635 L 137.11375897235732,153.4998122420985 L 126.09728757792807,155.98306776276456 L 123.83599091356717,158.23452183091516 L 115.55692485120818,158.2535172740072 L 112.70737558933429,150.05737856753834 L 110.31075908279672,146.8576495477639 z" id="c51197"/>
		<path d="M 71.4866372596732,164.78894066056765 L 74.63003831886633,164.2243733701935 L 73.90277597915428,161.8916055179327 L 75.20639732578799,163.7459993866545 L 73.03713223263786,166.7637873028288 L 71.68007051500264,166.70688917556316 L 68.36519910367319,166.55692711391077 L 71.4866372596732,164.78894066056765 z" id="c51520"/>
		<path d="M 228.0581519538029,144.8229150580103 L 231.9172040101894,133.98535193566164 L 234.14604179914073,132.5849930701137 L 238.6855821956079,131.4313785513338 L 238.16538824018522,134.10299815501983 L 245.05374356890627,137.26818421108666 L 249.96686085354307,141.48045962526143 L 247.6220683046428,152.635528210749 L 240.1980798564097,164.0907296966691 L 239.1214083404689,154.60028969663483 L 235.40286345800195,150.90929406394693 L 235.69410727163563,145.84874959640942 L 233.2612490382439,148.7732574036539 L 228.61153578703676,147.52830448154853 L 228.0581519538029,144.8229150580103 z" id="c51037"/>
		<path d="M 302.4460814690579,127.18908307809505 L 302.95509701832475,127.5257834750294 L 303.2051892110741,127.54919153715132 L 303.882835561019,127.33891725366543 L 304.33348094969057,127.45769903179105 L 304.27089624751386,127.27835781547675 L 304.585110792867,127.20219766875799 L 304.70397705780533,127.02420168637138 L 304.861558707717,127.2497653853757 L 306.37580975251916,128.3679895663872 L 305.9961217265795,129.026027894969 L 302.985147283885,129.95358899231076 L 302.41640814072855,127.2798661322301 L 302.4460814690579,127.18908307809505 z" id="c51670"/>
		<path d="M 335.56610147469036,85.98077416451163 L 340.5375206078512,83.55878034007576 L 341.4426092366816,84.8592207854102 L 344.5207055265295,87.17323052971936 L 349.76477994481536,89.54827828407687 L 353.5968309886435,92.16831604522723 L 352.9910964911859,95.50958078153137 L 350.27467145625,97.8415451215641 L 350.25992879837753,102.25972695503542 L 349.72733502626824,104.5114611671308 L 345.10114398393097,96.26690952239834 L 340.9299410664188,95.44777126112307 L 338.54768208013166,90.00233072038684 L 334.83543471540605,87.99806759974234 L 335.56610147469036,85.98077416451163 z" id="c51133"/>
		<path d="M 294.812940661112,40.34087913030562 L 295.6106437768886,40.856667273465725 L 295.06111895141686,43.51001892014455 L 292.6348291424401,44.130691379389425 L 294.812940661112,40.34087913030562 z" id="c51683"/>
		<path d="M 301.6093158164413,99.06448039387848 L 306.4109233832911,91.84444043055866 L 309.22632575874735,92.88700005946929 L 309.80476114886835,92.5590750665065 L 312.99967426230825,99.09236899515986 L 316.3461969431388,102.9067973731626 L 321.9146967699229,104.44357491099657 L 328.5613486481788,112.55724504675908 L 327.9199535517059,114.75403976874139 L 323.85112628571494,114.01070403254228 L 324.727154052681,111.13973197706595 L 318.9503640159657,111.97596180534448 L 312.17370499578476,108.53962733208554 L 307.0654359638022,103.4587771347975 L 302.72009782711456,102.33880717170645 L 301.6093158164413,99.06448039387848 z" id="c51101"/>
		<path d="M 226.19077098704236,82.73935374906225 L 228.37673563175454,80.95257163054188 L 230.21869405600526,81.2011678832301 L 230.21347162301888,83.14230562968551 L 229.9190804669122,84.47650721726967 L 227.5081681997292,85.00294457932422 L 226.19077098704236,82.73935374906225 z" id="c51820"/>
		<path d="M 301.56854683732786,35.29947967504516 L 304.2816565268258,35.217104792874466 L 304.28776329433515,36.683541944623364 L 302.78524208910244,37.18241459900203 L 301.7443568029755,36.397603277111955 L 301.56854683732786,35.29947967504516 z" id="c51600"/>
		<path d="M 130.29427848501965,164.60569387486981 L 130.5774345917871,163.8237476589908 L 131.13519969470877,164.1179206749003 L 131.70757692060428,163.7448025619709 L 131.92964203803322,162.8515052706157 L 133.13652720713142,162.72511107803942 L 133.7926857376212,162.96444916899628 L 133.21865101368616,163.94464896247328 L 131.96600267789157,165.40597364190046 L 131.8440806840499,166.64255739820283 L 131.1222896177185,166.85469685642764 L 131.59550052921622,165.79437134954887 L 130.35924990152012,165.47521901377215 L 130.29427848501965,164.60569387486981 z" id="c51640"/>
		<path d="M 180.2434845266296,164.4008690032448 L 181.35739503250602,162.79245020419057 L 182.0955570262211,162.74153093280788 L 183.44641089920754,163.26217445287156 L 183.11445144210325,165.13666289494813 L 183.9207409897945,165.92304342792903 L 183.67957589851815,166.69385259234335 L 183.3764912075198,165.92012522818385 L 183.09498159654345,166.82907137581955 L 182.3298304112035,166.43409111963763 L 182.3637432857131,165.7604429543288 L 180.70510890468773,165.12486609093227 L 180.2434845266296,164.4008690032448 z" id="c51690"/>
		<path d="M 234.13056434236367,82.08677436145696 L 235.6258026715419,74.64519207193412 L 240.03332589785472,71.46722164431395 L 239.66726955372658,70.42893863425897 L 253.43087995187912,75.99468667762883 L 254.69802643433502,76.4180352645377 L 260.8963538493663,79.11583235300589 L 258.81885841862965,83.17118182993836 L 256.3527481320961,86.51649263965433 L 247.69715002614456,98.9448951986972 L 247.39763646022976,100.95169422229152 L 240.5150035060685,102.7255588692438 L 239.35404312029027,103.22385876903687 L 238.68163289184068,99.81928009765214 L 231.4060793603441,84.07267097833727 L 234.13056434236367,82.08677436145696 z M 246.3834127023694,86.27675001830379 L 249.41566369171198,85.62869991699495 L 249.11942316681356,85.20592056287266 L 249.7890309494841,84.06960988547601 L 247.52277876392404,83.03701689772039 L 246.3834127023694,86.27675001830379 z" id="c51003"/>
		<path d="M 171.25494206600106,158.5956671356354 L 173.79201435520594,157.76064715436544 L 175.8321584931105,155.6448105103824 L 188.10856915828214,157.23998218627128 L 191.5692650049215,156.0383895472388 L 192.94837371817883,154.37774187376488 L 189.1667647534054,172.9896366404575 L 180.70817001303308,172.8338878576892 L 174.22172049134252,172.70341089115834 L 174.21837626621937,172.70333238121412 L 172.9691785704218,172.67382760527943 L 171.25494206600106,158.5956671356354 z M 180.70510890468773,165.12486609093227 L 182.3637432857131,165.7604429543288 L 182.3298304112035,166.43409111963763 L 183.09498159654345,166.82907137581955 L 183.3764912075198,165.92012522818385 L 183.67957589851815,166.69385259234335 L 183.9207409897945,165.92304342792903 L 183.11445144210325,165.13666289494813 L 183.44641089920754,163.26217445287156 L 182.0955570262211,162.74153093280788 L 181.35739503250602,162.79245020419057 L 180.2434845266296,164.4008690032448 L 180.70510890468773,165.12486609093227 z" id="c51089"/>
		<path d="M 126.09728757792807,155.98306776276456 L 137.11375897235732,153.4998122420985 L 140.59235653780027,152.05788671554635 L 143.3715988807883,151.16752859958763 L 145.7357688786674,149.05055726447515 L 153.53249834987494,162.4525662641927 L 150.52037989439413,166.21839484425226 L 146.83276915616287,165.62857491212554 L 146.26340361983875,171.21679698579712 L 141.83897316921218,170.86941771216118 L 135.36478703972188,170.73228442922075 L 131.96600267789157,165.40597364190046 L 133.21865101368616,163.94464896247328 L 133.7926857376212,162.96444916899628 L 133.13652720713142,162.72511107803942 L 131.92964203803322,162.8515052706157 L 131.70757692060428,163.7448025619709 L 131.13519969470877,164.1179206749003 L 126.09728757792807,155.98306776276456 z" id="c51035"/>
		<path d="M 256.5297455999665,30.967745971682994 L 255.88935766940915,27.15126599051083 L 262.8347413587177,26.542611947154633 L 263.39737071244855,25.431875895632178 L 267.70406481575753,26.446227817998892 L 270.22594637484383,28.790889976011904 L 267.5807487439581,33.992151841470296 L 264.4111052499193,35.61026793640945 L 261.1630676885451,40.85625412883123 L 257.27795736982085,41.88986034264303 L 257.0152866812421,40.64218918942543 L 252.1728790122935,38.136079332217555 L 256.5297455999665,30.967745971682994 z" id="c51187"/>
		<path d="M 244.8089598445338,67.06284073610462 L 247.95502810788452,61.92116485772662 L 249.48937334534838,58.72289651035228 L 250.57419172390053,65.17264029429792 L 254.3468037118243,70.46072965851836 L 257.15717269306515,70.73715170691734 L 253.43087995187912,75.99468667762883 L 239.66726955372658,70.42893863425897 L 244.8089598445338,67.06284073610462 z" id="c51079"/>
		<path d="M 246.9143619843973,22.379671471709894 L 251.262072341404,18.24071501487912 L 250.57976748294305,16.533782704962434 L 251.67088034981728,13.521743357913847 L 251.8144351095751,11.224360609903597 L 254.63269740622678,6.670779912999417 L 254.78090174031806,3.3694661605218545 L 254.31746835328823,0.0 L 259.7515935009031,4.45488941843767 L 261.6781401711184,6.030306618671231 L 268.80404316954247,11.89117895084687 L 268.8041252914099,11.89124633014572 L 265.67404980675485,21.292835511261913 L 263.39737071244855,25.431875895632178 L 262.8347413587177,26.542611947154633 L 255.88935766940915,27.15126599051083 L 254.83561310360884,21.580537247172686 L 252.29617281842937,21.590223838379256 L 249.4108116474853,25.98548777053573 L 245.79860060816577,24.50562748007551 L 246.9143619843973,22.379671471709894 z M 261.124793610463,16.947500175227248 L 261.91850045189756,19.84100748651423 L 264.0510873993916,16.670622365395154 L 262.976285809885,15.564440624318074 L 261.69070897559453,15.464012860999564 L 261.124793610463,16.947500175227248 z" id="c51069"/>
		<path d="M 148.9016990896339,147.40973956777904 L 150.09038850341045,146.01515645615214 L 151.24501774922206,144.46369424164334 L 159.4575451529069,144.02249481893125 L 167.62384395860258,138.7358340053008 L 169.98119046595002,138.21497359955845 L 169.53199591196892,147.58968349155782 L 164.63213948785776,152.98599025441925 L 157.328796052375,157.2568650694853 L 153.8376384844467,160.70129689519126 L 153.53249834987494,162.4525662641927 L 145.7357688786674,149.05055726447515 L 148.9016990896339,147.40973956777904 z" id="c51063"/>
		<path d="M 202.05666088069302,99.3363192077501 L 202.44910621859898,98.9372681516151 L 204.20473749982125,99.17037771551196 L 202.68631237614807,100.3644518754387 L 202.32185381823876,100.59203217960301 L 202.05666088069302,99.3363192077501 z" id="c51678"/>
		<path d="M 147.44757968845107,130.52457485501205 L 152.51611820502308,128.81340284634067 L 155.8764471026119,126.47011039260259 L 160.9606392843066,123.46405517303508 L 163.89332572589902,125.14036221729188 L 167.20343812256658,131.61287709262248 L 167.62384395860258,138.7358340053008 L 159.4575451529069,144.02249481893125 L 151.24501774922206,144.46369424164334 L 150.09038850341045,146.01515645615214 L 150.2120602091682,142.23313455925546 L 148.49429051499786,139.75169213085607 L 149.6470323495305,139.16525448592586 L 149.74221510155988,138.10877162066495 L 150.92625063220046,138.52516648073237 L 150.78398137592782,138.11744302907195 L 151.96916408039664,137.09875125878048 L 151.85449841256525,136.38031282887064 L 151.2154268597617,136.36086655340594 L 151.11945169467447,137.0445567604722 L 150.91288026884945,137.27278496216408 L 150.95973221953548,137.18719068001988 L 151.71236049400272,133.1676426592323 L 148.35713014493535,134.22799078705583 L 147.44757968845107,130.52457485501205 z" id="c51121"/>
		<path d="M 350.0049997503321,149.43900030192026 L 352.04966399162583,145.2975450285002 L 352.82474253331225,146.23048601241473 L 353.4623853011481,146.99760697753504 L 357.2213904242753,148.86750590278467 L 357.8448145482148,149.02424461729868 L 357.15137076793997,152.072980754427 L 357.0276668147792,154.99845432434358 L 355.6381063733593,154.33335862272318 L 352.61946285171535,155.46858255476297 L 350.3143601915244,152.3816778912947 L 350.46049719179763,151.11296332067806 L 350.0049997503321,149.43900030192026 z" id="c51710"/>
		<path d="M 311.6894849400063,36.427146566836484 L 312.7700088753947,37.36450755081805 L 315.0165839455955,36.50438993781582 L 315.06619718368165,39.44578516760992 L 315.0612983565352,39.81987744441871 L 310.22043386504146,38.69140920175814 L 311.6894849400063,36.427146566836484 z" id="c51510"/>
		<path d="M 269.8290034334674,159.29837489521708 L 270.884237799755,144.77376470150503 L 272.5850564211855,146.8666902414403 L 276.3081774995119,146.75306287598946 L 278.68192000322244,146.31607244337576 L 287.38159502704883,152.25640503630856 L 287.58477096336856,162.98450859030655 L 282.35348277568994,172.99649672351 L 276.0065692913353,173.0776646749833 L 269.00100194907475,173.15660463999842 L 269.8290034334674,159.29837489521708 z" id="c51025"/>
		<path d="M 322.49139535318096,162.86898593067048 L 327.40401528743,152.44471946552991 L 325.76112546751074,145.70587250009407 L 332.88734121734683,141.84061152073818 L 335.4658235577579,136.17491371163837 L 335.2990043283356,137.8783340938428 L 345.0583527832208,148.5373631182187 L 340.8947359434311,150.18978578349711 L 333.53750068977354,157.41684579175958 L 323.8477920230386,166.62161756564998 L 323.26647109803497,166.38711489720416 L 322.866469699991,165.5523878651253 L 323.1293787444054,164.93415939929847 L 322.4898978927439,164.3151243329171 L 323.09319794267293,163.41133744140816 L 322.45026202747323,163.4270958714719 L 322.49139535318096,162.86898593067048 z" id="c51093"/>
		<path d="M 248.94239888886875,126.05009075931278 L 259.1209106348082,108.49622074490435 L 259.5487939365884,105.23793046639231 L 262.3052614368445,102.00089939860572 L 263.32415528256575,101.7856876095498 L 266.1022913390636,103.67791836390207 L 267.4511828844228,107.1709116512305 L 266.64107363729676,108.23979024905626 L 264.6778197693423,119.19814709189241 L 262.17752403161893,119.80816063580802 L 259.82575829250374,124.34734549214524 L 254.27479204906433,128.29730400365935 L 248.94239888886875,126.05009075931278 z" id="c51049"/>
		<path d="M 287.64170034471596,59.075765031446316 L 292.3752755979211,53.682936690105706 L 294.3929052433654,51.568903848969555 L 302.5967645102999,56.80087409625259 L 302.15663553280484,58.86929537725585 L 302.46899424263967,63.8183784950823 L 304.0308460565493,65.69130781602541 L 301.90117741026665,66.77217883852276 L 302.135153066834,72.02922767423371 L 300.0959362956711,71.96944659916569 L 299.1359784289396,72.03966020327813 L 296.47901265869535,69.75762983238758 L 293.66557979911335,67.34016693464324 L 292.5787953702284,68.3446821097308 L 289.13479522345676,66.93990444659585 L 288.41494754709834,64.90946658095558 L 287.63471299139144,62.404548810636015 L 287.64170034471596,59.075765031446316 z" id="c51179"/>
		<path d="M 335.4658235577579,136.17491371163837 L 338.442022362747,134.14237418965945 L 337.77787585396135,132.60679463133084 L 339.0053703206899,132.14885232861485 L 345.2014726467179,139.49378401231937 L 345.0926129061214,143.9758889487051 L 347.94225786741026,147.92819055154 L 347.2489713218805,149.13675480003695 L 345.0583527832208,148.5373631182187 L 335.2990043283356,137.8783340938428 L 335.4658235577579,136.17491371163837 z" id="c51700"/>
		<path d="M 309.22632575874735,92.88700005946929 L 309.8376117523287,88.5841890781452 L 314.3865298299464,88.47542350430466 L 315.76219245301274,93.9138515249177 L 320.38410527754155,96.4755214699464 L 320.5231477200702,99.15385632805209 L 327.15416234040833,98.33841218116002 L 329.6224442982377,102.21208152502778 L 332.445878660359,108.1291936290606 L 334.3375069233968,109.5560621436227 L 334.82685215049884,116.78049049691897 L 331.79034977679277,119.79593207831293 L 330.3470656165986,117.7032656649028 L 327.9199535517059,114.75403976874139 L 328.5613486481788,112.55724504675908 L 321.9146967699229,104.44357491099657 L 316.3461969431388,102.9067973731626 L 312.99967426230825,99.09236899515986 L 309.80476114886835,92.5590750665065 L 309.22632575874735,92.88700005946929 z" id="c51097"/>
		<path d="M 175.21578380515336,127.31055876575314 L 177.52367213848052,125.7426996718657 L 182.00336934701025,128.39293719646415 L 178.6969118271831,133.01693919970845 L 174.63873708442694,129.9954218910492 L 175.21578380515336,127.31055876575314 z" id="c51770"/>
		<path d="M 249.96686085354307,141.48045962526143 L 257.9656591547273,140.03626129484456 L 259.663351712555,139.0498933997335 L 267.1614778655342,145.48206924713568 L 270.884237799755,144.77376470150503 L 269.8290034334674,159.29837489521708 L 251.0356194373896,154.9662406551002 L 247.6220683046428,152.635528210749 L 249.96686085354307,141.48045962526143 z" id="c51111"/>
		<path d="M 219.43291761143774,75.83149996940011 L 222.8331549107524,75.24357834456409 L 222.93419763032762,78.32168088890565 L 221.54478484211165,79.6501614925769 L 220.5286396971584,79.20158955370972 L 218.56029444780776,77.64939974173062 L 219.43291761143774,75.83149996940011 z" id="c51790"/>
		<path d="M 247.52277876392404,83.03701689772039 L 249.7890309494841,84.06960988547601 L 249.11942316681356,85.20592056287266 L 249.41566369171198,85.62869991699495 L 246.3834127023694,86.27675001830379 L 247.52277876392404,83.03701689772039 z" id="c51540"/>
		<path d="M 333.4651859900529,99.18584176594007 L 338.25739820450536,95.59541976706377 L 340.9299410664188,95.44777126112307 L 345.10114398393097,96.26690952239834 L 349.72733502626824,104.5114611671308 L 349.5636459858835,105.20298890263867 L 351.9789927973977,108.27291005376259 L 351.57851913970137,110.1126430644291 L 340.21661063903264,107.78999897165137 L 337.3237417440533,101.55643808508587 L 333.4651859900529,99.18584176594007 z" id="c51103"/>
		<path d="M 265.67404980675485,21.292835511261913 L 268.8041252914099,11.89124633014572 L 268.81997465163744,11.90425033312034 L 278.3036571457635,19.670061565401845 L 276.73084979236836,22.73109176939592 L 272.1624824180308,26.746902820463724 L 270.22594637484383,28.790889976011904 L 267.70406481575753,26.446227817998892 L 263.39737071244855,25.431875895632178 L 265.67404980675485,21.292835511261913 z" id="c51043"/>
		<path d="M 262.3789941082004,56.01374425167119 L 273.52005692641717,45.58353675735234 L 274.7225864882677,45.48812035770849 L 276.2676056896837,52.14256786272773 L 279.249410710079,55.3682700130549 L 282.94273700776705,62.27440805771087 L 287.63471299139144,62.404548810636015 L 288.41494754709834,64.90946658095558 L 287.14856208075724,64.31254493137166 L 284.4933520440478,65.35995727883801 L 281.3412066474413,63.480322236518965 L 280.77444347152664,65.17576097219381 L 274.8652638657544,64.20793501374335 L 268.77675179528035,68.38831225110367 L 266.227990127883,68.4195330635826 L 266.2090579879963,63.20414959805875 L 259.7772158234064,55.32582503169507 L 262.3789941082004,56.01374425167119 z" id="c51047"/>
		<path d="M 280.3713619702837,102.8251163268164 L 285.3960439147531,86.27844275762754 L 287.51356776408164,87.27386556846736 L 295.01159938974996,93.55886046297836 L 299.16710343590375,99.79909341480918 L 301.6093158164413,99.06448039387848 L 302.72009782711456,102.33880717170645 L 307.0654359638022,103.4587771347975 L 312.17370499578476,108.53962733208554 L 311.4130848931707,110.60874810520268 L 306.7157988187032,113.88174752495189 L 299.58181049454413,110.4104692819582 L 298.8189404850613,109.57032112918058 L 296.94699236521535,105.35187511185562 L 288.22930258708413,104.16179937800942 L 284.412731316133,104.15997950344314 L 280.3713619702837,102.8251163268164 z" id="c51085"/>
		<path d="M 297.89489138777685,129.51035340674906 L 300.4189190616773,128.9962604366027 L 300.88658577898235,128.15800905666998 L 301.1771055936724,129.12588966162815 L 300.3885901169207,130.0000577676431 L 300.2487866588397,131.4686123923469 L 299.2503970588087,131.8061770146011 L 299.1866819229021,131.88080475081583 L 299.12155293192365,131.9085551202577 L 299.0461145334806,131.97425004425196 L 298.99133422920494,131.99150071762514 L 298.95882881773565,132.02443350353158 L 298.804799562129,131.99460251245554 L 298.78416199234766,132.01310612525896 L 298.69606734218564,132.02321821146882 L 298.64524478222916,132.05867705828936 L 298.7250922077218,130.41315591889222 L 297.89489138777685,129.51035340674906 z" id="c51570"/>
		<path d="M 39.583940888489494,145.93548834574946 L 39.544397813879115,142.77260943976924 L 42.17521397301287,140.9377709311288 L 45.31021916083976,140.08052046568403 L 46.75387128448519,138.1388720114194 L 46.7091859201544,134.9379064698267 L 54.56662173054606,130.30542455519145 L 54.912590206764015,130.10090081660218 L 55.13242142808801,130.00117840745952 L 55.28856243300697,134.53749340350498 L 58.761288414969634,140.79994673738832 L 63.580357041409115,144.94670762475567 L 65.26073723269373,144.11136674183336 L 66.49019442898148,148.0323925132424 L 61.276910347723735,149.55830535929698 L 61.0863764440756,149.03464706859342 L 51.24342483239511,148.85740369506235 L 43.700886304563134,153.30443690268885 L 40.22609871199006,150.3141365218312 L 38.634045771637325,147.30235433417928 L 39.583940888489494,145.93548834574946 z M 49.955970261087195,146.76048483615406 L 51.44138686261676,147.42633881260696 L 51.16574121122242,146.10654378203864 L 52.652730747970516,145.68381388695448 L 52.58592437159089,144.45539569857988 L 50.68097932725424,144.59287389498195 L 49.16833415034726,146.37888484824217 L 49.955970261087195,146.76048483615406 z" id="c51195"/>
		<path d="M 66.94522497422949,124.65617437528108 L 72.21904190561787,120.41998395037537 L 83.61859616018299,111.21432543052889 L 85.26026968083202,112.8086469273117 L 82.64808362878476,116.12965407308408 L 84.83565473313358,118.25243671758004 L 84.92582309713536,120.0770725075235 L 86.57748357400747,123.53453174435502 L 88.65479630657914,126.38342877112248 L 92.1924794133376,127.12684122573596 L 93.58027336756705,129.0931800400706 L 93.8082865076454,129.2810157458764 L 92.64740478664434,131.46843030880672 L 85.93026197610041,134.74659297717668 L 80.81292165049983,135.8995121638192 L 78.86070709378899,140.16722905009587 L 73.90891306635622,140.2713912627064 L 73.66740643410965,136.1721772055678 L 67.73608701628466,124.3371174100591 L 66.70150190318662,124.86911281828773 L 66.94522497422949,124.65617437528108 z" id="c51027"/>
		<path d="M 291.97723230678633,36.447294821766604 L 296.71580005026897,30.152012773399345 L 298.1394484678222,28.260677479114182 L 301.36626007556316,23.972335519475482 L 302.2628060237096,24.194650345995296 L 305.1627001843377,25.644149427313728 L 305.16268427476024,25.645373674559625 L 305.1310683468837,28.075349052932474 L 307.33441018561814,29.111875752034795 L 309.92439198550954,29.293841027448714 L 311.1917203098106,31.04371099429528 L 310.959794987218,31.282475397227344 L 308.7970954495788,33.517575559071794 L 308.0266067469056,33.349191897088275 L 307.752902708473,33.18703302637893 L 307.98187453147455,33.46110997394077 L 307.7846425337124,33.956050571453815 L 308.0002623145547,34.42477267922491 L 308.7648449866846,34.386045084845016 L 309.4573358510774,34.69778313621463 L 309.85813473012695,34.54404770724774 L 311.6894849400063,36.427146566836484 L 310.22043386504146,38.69140920175814 L 315.0612983565352,39.81987744441871 L 315.03124834693926,42.1114046409041 L 315.02441259119144,42.63191388821979 L 314.48418246667626,44.30038020386524 L 313.263190677373,44.343163318057684 L 312.97514641425573,44.598603705824516 L 310.8332954478298,46.496437602297135 L 310.974522888567,48.794460464267644 L 306.6069703717172,48.84783801331838 L 305.5722958171024,46.66303903356149 L 303.85041577458225,45.25188632648548 L 303.0324792508307,44.7472575858032 L 300.39762194323464,43.57521542912978 L 299.2737982291727,43.76472111547381 L 296.31363892646186,38.99108848387768 L 295.1520403139691,39.44026463004259 L 294.1281941289868,38.6374699950191 L 293.24111233676797,36.807195583010895 L 291.97723230678633,36.447294821766604 z M 301.7443568029755,36.397603277111955 L 302.78524208910244,37.18241459900203 L 304.28776329433515,36.683541944623364 L 304.2816565268258,35.217104792874466 L 301.56854683732786,35.29947967504516 L 301.7443568029755,36.397603277111955 z" id="c51059"/>
		<path d="M 255.70381258099684,43.16470942016718 L 257.27795736982085,41.88986034264303 L 261.1630676885451,40.85625412883123 L 264.4111052499193,35.61026793640945 L 269.0118060608091,39.81927702320241 L 270.7137487667066,44.73583736888751 L 273.52005692641717,45.58353675735234 L 262.3789941082004,56.01374425167119 L 259.7772158234064,55.32582503169507 L 254.81463354936778,49.719683092897455 L 255.70381258099684,43.16470942016718 z" id="c51157"/>
		<path d="M 263.86489832532317,100.2768287805102 L 267.83809803800625,92.51045066542113 L 273.2246738724227,95.88757551265094 L 276.0465997116083,100.99184150709563 L 280.3713619702837,102.8251163268164 L 284.412731316133,104.15997950344314 L 288.22930258708413,104.16179937800942 L 288.97297457773385,111.74922407135648 L 287.14204292340554,112.57080199166853 L 279.59732880361685,110.11176642750164 L 274.6627959610318,105.09700544266457 L 271.7004992257011,109.11140668457196 L 267.4511828844228,107.1709116512305 L 266.1022913390636,103.67791836390207 L 263.32415528256575,101.7856876095498 L 263.86489832532317,100.2768287805102 z" id="c51075"/>
		<path d="M 64.41061147949647,159.62324846399548 L 75.50404235228902,154.7800284563298 L 76.83306460102598,151.4733111285791 L 83.1750606306374,151.13280306100734 L 88.49578746906558,147.50698237232788 L 94.74897717507679,156.01857912348808 L 97.99099278858283,164.6140011923484 L 98.91095861750796,165.13360115783186 L 96.89816140074596,166.61705351765858 L 88.31347643542216,166.14806031311346 L 83.73557185573945,165.89106423311856 L 83.13750437544873,167.1740537533214 L 73.03713223263786,166.7637873028288 L 75.20639732578799,163.7459993866545 L 73.90277597915428,161.8916055179327 L 74.63003831886633,164.2243733701935 L 71.4866372596732,164.78894066056765 L 68.36519910367319,166.55692711391077 L 65.94125694841685,166.44568036502636 L 65.34757449228945,164.96071975946853 L 64.41061147949647,159.62324846399548 z" id="c51191"/>
		<path d="M 344.6642458214658,114.60189372941961 L 346.21425930815195,113.31087983189295 L 351.6227107133461,113.15238399136271 L 352.43654958316233,115.54916695447614 L 353.63076296639167,119.87431249478723 L 353.79296539570436,122.6424357928939 L 352.60530416146634,126.53574060812608 L 348.19945193586744,122.81399140794912 L 346.88354250227013,121.57283857909341 L 346.4631074981689,121.78050257889629 L 344.2990454490635,120.20101264885346 L 344.6642458214658,114.60189372941961 z" id="c51115"/>
		<path d="M 61.276910347723735,149.55830535929698 L 66.49019442898148,148.0323925132424 L 65.26073723269373,144.11136674183336 L 67.36505305775826,142.5701126160842 L 73.90891306635622,140.2713912627064 L 78.86070709378899,140.16722905009587 L 80.81292165049983,135.8995121638192 L 85.93026197610041,134.74659297717668 L 86.3330243082761,136.50703619282686 L 91.24826036424047,145.8508685790606 L 88.49578746906558,147.50698237232788 L 83.1750606306374,151.13280306100734 L 76.83306460102598,151.4733111285791 L 75.50404235228902,154.7800284563298 L 64.41061147949647,159.62324846399548 L 63.429148949201895,155.37588317311017 L 61.276910347723735,149.55830535929698 z" id="c51167"/>
		<path d="M 267.5807487439581,33.992151841470296 L 270.22594637484383,28.790889976011904 L 272.1624824180308,26.746902820463724 L 286.40085567732547,30.85331326651088 L 283.6539672541852,37.42952839092905 L 285.35060084977243,40.59783769965845 L 287.93775060091184,45.45104066361393 L 292.3752755979211,53.682936690105706 L 287.64170034471596,59.075765031446316 L 287.63471299139144,62.404548810636015 L 282.94273700776705,62.27440805771087 L 279.249410710079,55.3682700130549 L 276.2676056896837,52.14256786272773 L 274.7225864882677,45.48812035770849 L 273.52005692641717,45.58353675735234 L 270.7137487667066,44.73583736888751 L 269.0118060608091,39.81927702320241 L 264.4111052499193,35.61026793640945 L 267.5807487439581,33.992151841470296 z" id="c51061"/>
		<path d="M 258.81885841862965,83.17118182993836 L 260.8963538493663,79.11583235300589 L 265.93020072504896,77.82617421870623 L 272.8743704899551,79.80968171974607 L 278.28436049953314,80.50090871788052 L 285.3960439147531,86.27844275762754 L 280.3713619702837,102.8251163268164 L 276.0465997116083,100.99184150709563 L 273.2246738724227,95.88757551265094 L 267.83809803800625,92.51045066542113 L 261.12884162716523,89.41614441902783 L 256.3527481320961,86.51649263965433 L 258.81885841862965,83.17118182993836 z" id="c51109"/>
		<path d="M 293.29959721403,80.41499220349402 L 300.0959362956711,71.96944659916569 L 302.135153066834,72.02922767423371 L 306.66594375373614,71.96465713100625 L 307.4284078427534,74.81006207919526 L 312.068258670475,77.53454915197352 L 309.59658857762815,81.74367683132282 L 314.23959311715305,86.70113067098363 L 314.3865298299464,88.47542350430466 L 309.8376117523287,88.5841890781452 L 309.22632575874735,92.88700005946929 L 306.4109233832911,91.84444043055866 L 301.6093158164413,99.06448039387848 L 299.16710343590375,99.79909341480918 L 295.01159938974996,93.55886046297836 L 287.51356776408164,87.27386556846736 L 293.29959721403,80.41499220349402 z" id="c51033"/>
		<path d="M 306.4322784889595,123.13883916188762 L 307.63492590437664,123.22775641668147 L 309.7611102931629,116.65409874759719 L 313.6562123737636,119.57865322526591 L 322.7531712971323,121.59217364511265 L 322.7633319343705,123.14268759435176 L 324.1967270812355,123.84308790584815 L 323.9328967497314,132.28854522214135 L 322.1098702229704,132.1849188541138 L 319.6759438007392,130.85293233788954 L 318.5084651414848,127.7609555246145 L 315.068263397035,129.66787051532836 L 312.41334280297065,127.74129571226077 L 305.4871554821146,126.78234199291286 L 306.4322784889595,123.13883916188762 z" id="c51036"/>
		<path d="M 297.18728759234955,132.676892536339 L 298.64524478222916,132.05867705828936 L 298.69606734218564,132.02321821146882 L 298.78416199234766,132.01310612525896 L 298.804799562129,131.99460251245554 L 298.95882881773565,132.02443350353158 L 298.99133422920494,131.99150071762514 L 299.0461145334806,131.97425004425196 L 299.12155293192365,131.9085551202577 L 299.1866819229021,131.88080475081583 L 299.2503970588087,131.8061770146011 L 300.0980198232049,131.74581748854925 L 300.5191500728443,131.34603412279776 L 302.7829938420795,134.12509658396567 L 299.5094124150745,135.74522861880266 L 298.3622941027563,136.10001498942012 L 297.18728759234955,132.676892536339 z" id="c51730"/>
		<path d="M 91.24826036424047,145.8508685790606 L 95.84355297552794,147.53695404330577 L 105.91326773693368,142.8006773805596 L 107.69385840989362,143.3527598667284 L 110.31075908279672,146.8576495477639 L 112.70737558933429,150.05737856753834 L 115.55692485120818,158.2535172740072 L 101.99213819884267,161.4734674053839 L 98.91095861750796,165.13360115783186 L 97.99099278858283,164.6140011923484 L 94.74897717507679,156.01857912348808 L 88.49578746906558,147.50698237232788 L 91.24826036424047,145.8508685790606 z" id="c51173"/>
		<path d="M 186.3898728503474,67.86994210875305 L 189.66906551467832,65.37775790021065 L 191.82306315898097,60.977364761547406 L 191.78203125622133,59.06180091395843 L 192.84095619310713,56.281016682779 L 193.83464600688478,51.513673725640444 L 198.76329584752273,53.84281331549152 L 201.77147411564474,59.566007515921136 L 206.7105159813075,61.393074960036955 L 209.45710586150858,61.93924071254347 L 209.5598720910171,64.05914885713564 L 203.42146019040578,73.86863874497405 L 199.93514825933107,75.95466644385408 L 190.88910183982532,73.4284298653647 L 186.68138821976288,70.6397051697648 L 187.12897100910968,70.28855696928623 L 186.3898728503474,67.86994210875305 z" id="c51091"/>
		<path d="M 299.5094124150745,135.74522861880266 L 302.7829938420795,134.12509658396567 L 300.5191500728443,131.34603412279776 L 300.4831566438777,130.71261475613406 L 301.2690862271183,129.4110276168341 L 301.59522681513147,127.66451644368806 L 302.41640814072855,127.2798661322301 L 302.985147283885,129.95358899231076 L 305.9961217265795,129.026027894969 L 306.37580975251916,128.3679895663872 L 304.861558707717,127.2497653853757 L 304.95455563886117,126.89283198456953 L 305.4871554821146,126.78234199291286 L 312.41334280297065,127.74129571226077 L 315.068263397035,129.66787051532836 L 318.5084651414848,127.7609555246145 L 319.6759438007392,130.85293233788954 L 317.802190516262,131.80965488842497 L 311.1244830895621,139.077486456107 L 309.63438618668283,139.87578249237578 L 299.669366131927,146.28822478918465 L 299.8220640729778,143.75191807592375 L 299.5094124150745,135.74522861880266 z" id="c51149"/>
		<path d="M 147.8444188867827,137.6340721135904 L 147.95689224579968,137.47410652699833 L 148.91199682808752,136.78363445153767 L 149.8436905238062,136.398165918774 L 150.0714234958702,136.41351334413505 L 150.95973221953548,137.18719068001988 L 150.91288026884945,137.27278496216408 L 151.11945169467447,137.0445567604722 L 151.2154268597617,136.36086655340594 L 151.85449841256525,136.38031282887064 L 151.96916408039664,137.09875125878048 L 150.78398137592782,138.11744302907195 L 150.92625063220046,138.52516648073237 L 149.74221510155988,138.10877162066495 L 149.6470323495305,139.16525448592586 L 148.49429051499786,139.75169213085607 L 148.03914430345532,139.00974673177683 L 147.77703725709264,138.0023068134357 L 147.8444188867827,137.6340721135904 z" id="c51750"/>
		<path d="M 345.2014726467179,139.49378401231937 L 346.99099309425685,139.3640919757117 L 347.1890085166588,138.68813765933038 L 347.7575815923673,138.41380321512855 L 352.0523870201928,138.15945147290245 L 353.1327567069107,139.88975841787317 L 352.5787433877201,141.78963190502157 L 351.6833248135867,144.85641022723243 L 352.04966399162583,145.2975450285002 L 350.0049997503321,149.43900030192026 L 347.94225786741026,147.92819055154 L 345.0926129061214,143.9758889487051 L 345.2014726467179,139.49378401231937 z" id="c51650"/>
		<path d="M 320.4097042009333,163.3281375769484 L 321.16309159485985,162.83518867040468 L 322.49139535318096,162.86898593067048 L 322.45026202747323,163.4270958714719 L 323.09319794267293,163.41133744140816 L 322.4898978927439,164.3151243329171 L 323.1293787444054,164.93415939929847 L 322.866469699991,165.5523878651253 L 323.26647109803497,166.38711489720416 L 322.0499388214102,165.7584567020572 L 320.73138908344623,165.28345932373557 L 321.4346315436364,164.7755879835471 L 320.61692549442444,164.61203943661405 L 320.4097042009333,163.3281375769484 z" id="c51620"/>
		<path d="M 308.7970954495788,33.517575559071794 L 310.959794987218,31.282475397227344 L 311.1917203098106,31.04371099429528 L 311.19314632108365,31.04567894713 L 312.5890067958741,32.81090038029095 L 314.9897526001428,34.9135569946876 L 315.0165839455955,36.50438993781582 L 312.7700088753947,37.36450755081805 L 311.6894849400063,36.427146566836484 L 309.85813473012695,34.54404770724774 L 308.7970954495788,33.517575559071794 z" id="c51013"/>
		<path d="M 276.73084979236836,22.73109176939592 L 278.3036571457635,19.670061565401845 L 278.3103848017613,19.675552844797966 L 279.1729460167856,17.520750760419087 L 280.57783599013163,13.908970041227718 L 283.23105049800137,8.432155013027844 L 285.158742901901,8.61532305595923 L 285.6918560848728,8.665820986267393 L 289.2878654945831,9.524127064094127 L 290.91942884297373,10.852726742339865 L 293.5413171441129,12.49821558487621 L 295.2471937811327,14.388477676013613 L 295.2557234428601,14.397923305279075 L 294.0743289623478,16.368684701231793 L 292.4635699192456,17.845130957868275 L 292.54864273060946,20.223544798007214 L 294.3434277544754,21.109139850756925 L 295.2250657581221,22.842890366984467 L 299.99077797147373,23.630844615615263 L 301.36626007556316,23.972335519475482 L 298.1394484678222,28.260677479114182 L 296.71580005026897,30.152012773399345 L 291.97723230678633,36.447294821766604 L 291.3861766525349,36.498455786651114 L 291.200026084774,34.13032700308485 L 286.40085567732547,30.85331326651088 L 272.1624824180308,26.746902820463724 L 276.73084979236836,22.73109176939592 z" id="c51107"/>
		<path d="M 238.6855821956079,131.4313785513338 L 242.81851828475024,125.73559098377656 L 242.82397597340506,122.59240523348126 L 246.73921392751868,126.63052342959968 L 248.94239888886875,126.05009075931278 L 254.27479204906433,128.29730400365935 L 259.82575829250374,124.34734549214524 L 260.01825264075524,128.60782502885542 L 259.663351712555,139.0498933997335 L 257.9656591547273,140.03626129484456 L 249.96686085354307,141.48045962526143 L 245.05374356890627,137.26818421108666 L 238.16538824018522,134.10299815501983 L 238.6855821956079,131.4313785513338 z" id="c51147"/>
		<path d="M 283.6539672541852,37.42952839092905 L 286.40085567732547,30.85331326651088 L 291.200026084774,34.13032700308485 L 291.3861766525349,36.498455786651114 L 291.97723230678633,36.447294821766604 L 293.24111233676797,36.807195583010895 L 294.1281941289868,38.6374699950191 L 295.1520403139691,39.44026463004259 L 296.31363892646186,38.99108848387768 L 299.2737982291727,43.76472111547381 L 300.39762194323464,43.57521542912978 L 303.0324792508307,44.7472575858032 L 303.85041577458225,45.25188632648548 L 305.5722958171024,46.66303903356149 L 306.6069703717172,48.84783801331838 L 305.5582333862433,48.85998947685615 L 303.3571068943561,53.22245055777858 L 303.1835734385387,54.039730847945876 L 302.5967645102999,56.80087409625259 L 294.3929052433654,51.568903848969555 L 292.3752755979211,53.682936690105706 L 287.93775060091184,45.45104066361393 L 285.35060084977243,40.59783769965845 L 283.6539672541852,37.42952839092905 z M 292.6348291424401,44.130691379389425 L 295.06111895141686,43.51001892014455 L 295.6106437768886,40.856667273465725 L 297.0789094366051,41.949576211471914 L 297.38619273851,41.430873948767534 L 296.45504223635106,40.18577357716774 L 296.25315983399145,40.957460738641444 L 294.937505461806,39.91147234343349 L 294.812940661112,40.34087913030562 L 292.6348291424401,44.130691379389425 z" id="c51153"/>
		<path d="M 301.90117741026665,66.77217883852276 L 304.0308460565493,65.69130781602541 L 304.9347494657583,66.7742416641711 L 309.71357398144636,65.94679204493974 L 312.92698289878535,65.49524683622928 L 315.04713446487693,65.02687792894585 L 316.34543795705895,66.83629484320709 L 316.1206447992273,68.41609045861563 L 317.5217909957743,69.78869290494394 L 315.3088594599816,70.93279081984427 L 314.5987922755502,76.80206657965536 L 314.0512368040974,78.0140071523895 L 312.068258670475,77.53454915197352 L 307.4284078427534,74.81006207919526 L 306.66594375373614,71.96465713100625 L 302.135153066834,72.02922767423371 L 301.90117741026665,66.77217883852276 z" id="c51099"/>
		<path d="M 3.0163857952958932,161.0804314470108 L 7.290376472569611,159.41642428250427 L 10.446171140378565,159.57959629171916 L 11.612337151542224,159.63931651666763 L 14.081025989623187,158.5600221538205 L 21.342843261481377,156.5484190954577 L 26.157866955704456,155.83264132269622 L 27.34995391555954,152.74649717763262 L 29.37306614717539,149.61260360323658 L 32.36159926446337,149.95653664869644 L 38.03549786357971,148.163129390099 L 38.634045771637325,147.30235433417928 L 40.22609871199006,150.3141365218312 L 43.700886304563134,153.30443690268885 L 41.05020897517415,157.1229719598474 L 34.96283944607686,160.25882625538773 L 32.97070183778904,164.9451870675033 L 19.044269793852383,164.07017507712715 L 9.70095811829437,163.49711325427546 L 0.0,162.88094456008963 L 3.0163857952958932,161.0804314470108 z" id="c51105"/>
		<path d="M 329.84019690956995,124.39414180421772 L 334.38695237937225,122.77840401773058 L 341.976921348319,130.82456360042147 L 347.8890675478774,130.23315506782936 L 347.1075332294331,131.69450443901042 L 349.3815217222601,133.74707388793735 L 346.3122461916111,135.82433532482443 L 347.1890085166588,138.68813765933038 L 346.99099309425685,139.3640919757117 L 345.2014726467179,139.49378401231937 L 339.0053703206899,132.14885232861485 L 337.77787585396135,132.60679463133084 L 337.2820892691343,131.13548377988263 L 333.5042429336002,129.56347686354928 L 333.401048027742,127.98774672234391 L 331.1987024961654,127.24113949033718 L 329.84019690956995,124.39414180421772 z" id="c51199"/>
		<path d="M 320.52088341147186,81.71790035442552 L 323.27731615909727,78.86696112599343 L 328.67394480963543,86.02327056679118 L 334.83543471540605,87.99806759974234 L 338.54768208013166,90.00233072038684 L 340.9299410664188,95.44777126112307 L 338.25739820450536,95.59541976706377 L 333.4651859900529,99.18584176594007 L 327.8996072729074,92.35156742418035 L 321.9203694975193,86.94619264449678 L 320.52088341147186,81.71790035442552 z" id="c51159"/>
		<path d="M 172.87499247504243,120.50470755462635 L 177.9562662506905,113.35985535761151 L 175.62786292816952,107.21376564720896 L 180.53126300240723,104.06692988332836 L 185.3641229451155,98.26270381424362 L 192.03962818417986,100.59877793190255 L 191.52027721495543,106.59887830639126 L 200.14722165240264,114.34644335110524 L 195.84871893114106,119.22973139154882 L 194.076143540937,118.87115987661075 L 193.69552771686284,118.76350281335594 L 192.55448670954468,117.09003591999283 L 191.07127856113786,117.58301211340725 L 189.67905310623064,119.1900661272635 L 186.27092251960653,121.52467494621844 L 185.1454018665806,121.8131846234519 L 186.16744716222135,123.18124875972873 L 186.81003633381744,123.13327557294632 L 186.33354226920179,124.94465658410432 L 183.49008767852303,127.3797787165104 L 182.67254353789025,126.23743789916811 L 178.8938217593901,124.1295199278396 L 173.40417984670745,121.3522851857229 L 172.87499247504243,120.50470755462635 z" id="c51023"/>
		<path d="M 183.49008767852303,127.3797787165104 L 186.33354226920179,124.94465658410432 L 186.81003633381744,123.13327557294632 L 186.16744716222135,123.18124875972873 L 185.1454018665806,121.8131846234519 L 186.27092251960653,121.52467494621844 L 189.67905310623064,119.1900661272635 L 191.07127856113786,117.58301211340725 L 192.55448670954468,117.09003591999283 L 193.69552771686284,118.76350281335594 L 194.076143540937,118.87115987661075 L 195.84871893114106,119.22973139154882 L 200.14722165240264,114.34644335110524 L 203.2218116540403,112.03551608197161 L 203.11304819523517,109.38288892703018 L 207.55139853061021,115.29692069256696 L 214.89202100194143,118.45201254779816 L 211.04270922520848,119.48572160609322 L 211.42444894234657,124.94566042921736 L 207.92992133102433,131.87486073415567 L 202.49265234081616,142.6445983657335 L 200.70028373970658,145.58016372804633 L 195.2989806352862,143.37469396431013 L 191.7490042503537,136.96269676907175 L 189.5129803465429,134.55632112059865 L 183.42932582578132,132.35564696604726 L 182.93565005821236,129.87325694996005 L 183.49008767852303,127.3797787165104 z" id="c51019"/>
		<path d="M 259.82575829250374,124.34734549214524 L 262.17752403161893,119.80816063580802 L 264.6778197693423,119.19814709189241 L 270.92383098958595,116.59800066205088 L 275.64649452704384,117.91113402314303 L 277.7778217338137,121.27902392275128 L 276.75801108198766,124.4392164142068 L 282.4130832259378,130.11497396775698 L 287.45620136572825,130.24294139991932 L 287.5319178962386,130.28433129321382 L 282.96765372759734,134.61513405261016 L 280.68034898684385,134.64139920699387 L 279.2449243874696,134.0952813347852 L 260.01825264075524,128.60782502885542 L 259.82575829250374,124.34734549214524 z" id="c51007"/>
		<path d="M 249.9611339964014,55.61915774524945 L 254.81463354936778,49.719683092897455 L 259.7772158234064,55.32582503169507 L 266.2090579879963,63.20414959805875 L 266.227990127883,68.4195330635826 L 259.8281112609571,73.22721058993099 L 258.84615000142384,72.99559787753694 L 258.1453975007015,71.26562232504983 L 257.15717269306515,70.73715170691734 L 254.3468037118243,70.46072965851836 L 250.57419172390053,65.17264029429792 L 249.48937334534838,58.72289651035228 L 249.9611339964014,55.61915774524945 z" id="c51113"/>
		<path d="M 330.90751962947166,100.52196249376375 L 333.4651859900529,99.18584176594007 L 337.3237417440533,101.55643808508587 L 340.21661063903264,107.78999897165137 L 351.57851913970137,110.1126430644291 L 351.19249558440805,111.88433100890826 L 351.6227107133461,113.15238399136271 L 346.21425930815195,113.31087983189295 L 344.6642458214658,114.60189372941961 L 339.02545920128557,112.31221729725328 L 334.3375069233968,109.5560621436227 L 332.445878660359,108.1291936290606 L 329.6224442982377,102.21208152502778 L 330.90751962947166,100.52196249376375 z" id="c51119"/>
		<path d="M 289.97485495248895,113.03202944621037 L 292.9282355235888,110.82437827883764 L 297.39367918546367,110.41447125797639 L 299.8966318626027,114.14276731610231 L 298.28890012665374,119.38286140712982 L 289.92170819856534,114.2832111593752 L 289.97485495248895,113.03202944621037 z" id="c51760"/>
		<path d="M 266.64107363729676,108.23979024905626 L 267.4511828844228,107.1709116512305 L 271.7004992257011,109.11140668457196 L 274.6627959610318,105.09700544266457 L 279.59732880361685,110.11176642750164 L 287.14204292340554,112.57080199166853 L 279.9559451440975,120.79659552371052 L 277.7778217338137,121.27902392275128 L 275.64649452704384,117.91113402314303 L 270.92383098958595,116.59800066205088 L 264.6778197693423,119.19814709189241 L 266.64107363729676,108.23979024905626 z" id="c51145"/>
		<path d="M 282.35348277568994,172.99649672351 L 287.58477096336856,162.98450859030655 L 287.38159502704883,152.25640503630856 L 289.24840689306154,153.22721931207224 L 294.4447753055806,155.11670481598426 L 296.8952097303842,154.0294372027894 L 295.49583262820704,162.46170205543297 L 298.36252854548866,163.22084948038437 L 294.95958128689256,165.4620578820063 L 299.1228794061445,166.38944323025143 L 302.05690995890586,172.28030855889935 L 304.7581465645638,172.72509783480808 L 283.18578541497203,172.98517234921383 L 282.35348277568994,172.99649672351 z M 292.6640094219013,165.38757303580525 L 293.8210659177037,165.336430653619 L 294.64190072314125,164.57799277274415 L 294.30877324712645,162.5009275193876 L 291.98020039441,163.56279690330717 L 292.6640094219013,165.38757303580525 z" id="c51081"/>
		<path d="M 175.20672029363428,88.20811860189824 L 178.32919742196148,83.72982067228752 L 178.7808748384639,82.59403588492444 L 179.90460010459066,79.76560998480255 L 181.03773127909432,75.4695603816492 L 184.16080894219925,72.61526575662394 L 186.68138821976288,70.6397051697648 L 190.88910183982532,73.4284298653647 L 199.93514825933107,75.95466644385408 L 203.4557796150184,77.03643483716888 L 201.2549460489798,81.56267211447634 L 198.80162469105977,86.43988453618519 L 193.37253423748425,94.00933142091637 L 191.22565265906715,95.76506139090442 L 188.5787163657885,93.30272991452736 L 182.1260492402164,92.76135538333524 L 179.92688055886254,89.08807600694128 L 174.27216700944203,89.14336471857413 L 175.20672029363428,88.20811860189824 z" id="c51017"/>
		<path d="M 192.03962818417986,100.59877793190255 L 195.3015296094858,94.76966203407082 L 193.37253423748425,94.00933142091637 L 198.80162469105977,86.43988453618519 L 201.2549460489798,81.56267211447634 L 215.1714871363401,91.87613271410511 L 216.41015448631057,93.2598318592739 L 217.00637064599798,95.33317609570689 L 215.67958205176095,98.46519520496791 L 212.8288519204291,97.86639170414242 L 207.4609136723901,106.84248352039394 L 203.11304819523517,109.38288892703018 L 203.2218116540403,112.03551608197161 L 200.14722165240264,114.34644335110524 L 191.52027721495543,106.59887830639126 L 192.03962818417986,100.59877793190255 z M 202.32185381823876,100.59203217960301 L 202.68631237614807,100.3644518754387 L 204.20473749982125,99.17037771551196 L 202.44910621859898,98.9372681516151 L 202.05666088069302,99.3363192077501 L 202.32185381823876,100.59203217960301 z M 206.4942347935114,102.87453224026598 L 206.23339927153486,104.74907058757897 L 208.075206444629,102.26498280993097 L 208.18711724551594,101.09842551134393 L 205.79806212546578,101.99433967959928 L 206.4942347935114,102.87453224026598 z" id="c51163"/>
		<path d="M 368.0126285610292,111.08028151473181 L 369.89778526895765,106.78233584096031 L 371.63905078801884,102.71890683727237 L 373.77613280153184,99.90591450000896 L 373.4222171748791,97.41406954355772 L 377.24479124226724,95.8262779965435 L 378.7344414343758,93.81840044321349 L 376.06487410332727,90.6817296237754 L 380.1094799540524,87.77867590947623 L 382.15731081656173,85.14041640059428 L 400.0,82.587164876609 L 395.7548074503125,90.57774635362739 L 393.86962108355135,93.20936157473342 L 391.0933131219623,92.25708516750782 L 388.80424508285444,94.51990273292638 L 386.0220497388892,99.61173334218603 L 384.29724144030075,104.70433493571936 L 383.33443145782337,107.93016685491092 L 383.74108329982533,110.79898022668529 L 380.8134603600528,115.45725534801997 L 381.1956531887091,116.41820780673375 L 378.96692165079827,117.51939800493524 L 376.55123747706034,116.79552044445668 L 375.96902419614275,117.32989812054718 L 374.224248018794,116.23644130143256 L 375.1082184157086,115.32437751895502 L 374.5307959435488,113.80610769890654 L 375.298317865414,112.94793822951999 L 373.02722539696873,111.5064966887768 L 369.946735080227,111.4157595130122 L 367.8298612226859,111.96289294546558 L 368.0126285610292,111.08028151473181 z" id="c51001"/>
		<path d="M 55.13242142808801,130.00117840745952 L 60.19009335643783,127.7025068604288 L 64.68545595514672,126.62920888425 L 66.70150190318662,124.86911281828773 L 67.73608701628466,124.3371174100591 L 73.66740643410965,136.1721772055678 L 73.90891306635622,140.2713912627064 L 67.36505305775826,142.5701126160842 L 65.26073723269373,144.11136674183336 L 63.580357041409115,144.94670762475567 L 58.761288414969634,140.79994673738832 L 55.28856243300697,134.53749340350498 L 55.13242142808801,130.00117840745952 z" id="c51051"/>
		<path d="M 207.4609136723901,106.84248352039394 L 212.8288519204291,97.86639170414242 L 215.67958205176095,98.46519520496791 L 217.29098686521652,97.82205593274253 L 220.40697168477325,99.96688619712056 L 220.576807390778,103.4087532962467 L 224.39872101779622,104.89531593779608 L 229.86204893818834,114.01685623170289 L 226.041938497828,116.30862987645918 L 222.62898336804102,120.67109877509584 L 220.42743738959336,123.23052603906189 L 219.6173034502503,122.69021324118717 L 217.9559893868498,122.48297595205713 L 214.89202100194143,118.45201254779816 L 207.55139853061021,115.29692069256696 L 203.11304819523517,109.38288892703018 L 207.4609136723901,106.84248352039394 z" id="c51009"/>
		<path d="M 240.69595497627134,51.060450608167955 L 245.0179441186469,43.13233680554031 L 246.86007712381863,43.89854890275356 L 252.1728790122935,38.136079332217555 L 257.0152866812421,40.64218918942543 L 257.27795736982085,41.88986034264303 L 255.70381258099684,43.16470942016718 L 254.81463354936778,49.719683092897455 L 249.9611339964014,55.61915774524945 L 249.48937334534838,58.72289651035228 L 247.95502810788452,61.92116485772662 L 238.3798618527374,56.67031337171923 L 240.69595497627134,51.060450608167955 z" id="c51139"/>
		<path d="M 346.3122461916111,135.82433532482443 L 349.3815217222601,133.74707388793735 L 349.57974854125644,133.9258530611524 L 351.16553157234904,136.73789043269326 L 352.0523870201928,138.15945147290245 L 347.7575815923673,138.41380321512855 L 347.1890085166588,138.68813765933038 L 346.3122461916111,135.82433532482443 z" id="c51735"/>
		<path d="M 232.3985511172346,37.62721956912533 L 234.6525508420864,33.914126363313294 L 238.88016305942833,32.02181575041143 L 241.71681777902432,28.66164856838775 L 244.4358067962211,27.09896211620015 L 245.79860060816577,24.50562748007551 L 249.4108116474853,25.98548777053573 L 252.29617281842937,21.590223838379256 L 254.83561310360884,21.580537247172686 L 255.88935766940915,27.15126599051083 L 256.5297455999665,30.967745971682994 L 252.1728790122935,38.136079332217555 L 246.86007712381863,43.89854890275356 L 245.0179441186469,43.13233680554031 L 240.69595497627134,51.060450608167955 L 230.15168558969071,41.649191709843194 L 232.3985511172346,37.62721956912533 z" id="c51171"/>
		<path d="M 162.97375444660594,104.69160270962335 L 164.5148618049367,102.67748810686102 L 166.44516227541425,98.9981331867673 L 167.38655293004223,96.39435234545542 L 170.63434889845044,92.77813201911906 L 174.27216700944203,89.14336471857413 L 179.92688055886254,89.08807600694128 L 182.1260492402164,92.76135538333524 L 188.5787163657885,93.30272991452736 L 191.22565265906715,95.76506139090442 L 193.37253423748425,94.00933142091637 L 195.3015296094858,94.76966203407082 L 192.03962818417986,100.59877793190255 L 185.3641229451155,98.26270381424362 L 180.53126300240723,104.06692988332836 L 175.62786292816952,107.21376564720896 L 169.68262580066772,110.13553962921344 L 166.00031854400393,108.43385075619246 L 162.8662190150317,104.83205472830599 L 162.97375444660594,104.69160270962335 z M 177.04393168729328,101.2612151352062 L 178.2281404075822,100.6536999544348 L 177.66659956074272,99.32572546052404 L 178.29597389647122,98.01135905748363 L 177.34969742340883,97.39264453846668 L 176.32881929030734,100.52409271533843 L 177.04393168729328,101.2612151352062 z" id="c51005"/>
		<path d="M 344.2939307797645,160.1561741026977 L 344.706254172924,155.9543970102333 L 346.3459781030045,152.9880765216367 L 347.934318783567,153.79086132598744 L 347.3845803740455,156.51726828274937 L 349.14640263750346,157.58161123770802 L 352.5488301786645,156.85711328744551 L 352.61946285171535,155.46858255476297 L 355.6381063733593,154.33335862272318 L 355.7838801834492,155.4656711275199 L 356.8073895405131,158.46779838493154 L 363.39922452821935,162.8744329051583 L 360.86488782451295,164.53208406580282 L 361.02291117270175,171.36057813842137 L 351.8948496154588,171.5876274884694 L 351.8906423258344,171.5877223984897 L 343.368611337652,171.77168807534622 L 344.2939307797645,160.1561741026977 z" id="c51550"/>
		<path d="M 107.69385840989362,143.3527598667284 L 115.73197883160627,138.72272053603209 L 113.08918637525912,135.88211423744394 L 118.14575987480342,130.34605886721963 L 123.54969309317848,127.91618258264819 L 129.10393993180188,126.82258466255165 L 129.8240514098078,126.76455519780897 L 128.20991024552364,128.21635833693372 L 135.56587163945758,136.0107057002426 L 131.9097534788167,137.83645415917806 L 132.6967544405142,140.33237400374253 L 123.03619020049751,143.0767439723803 L 117.83947255762452,141.42967245486116 L 110.31075908279672,146.8576495477639 L 107.69385840989362,143.3527598667284 z" id="c51021"/>
		<path d="M 203.42146019040578,73.86863874497405 L 209.5598720910171,64.05914885713564 L 209.45710586150858,61.93924071254347 L 210.08736822229778,62.06430196711496 L 213.198794352915,58.67569901915545 L 213.35044268016006,58.33899393652723 L 227.99779380001098,68.8682618414712 L 229.1555792464617,68.8705881321869 L 235.6258026715419,74.64519207193412 L 234.13056434236367,82.08677436145696 L 231.4060793603441,84.07267097833727 L 228.17314179042822,90.07055524758088 L 223.55926654982147,93.85712374807997 L 220.87922918771667,91.71299088405088 L 216.41015448631057,93.2598318592739 L 215.1714871363401,91.87613271410511 L 201.2549460489798,81.56267211447634 L 203.4557796150184,77.03643483716888 L 199.93514825933107,75.95466644385408 L 203.42146019040578,73.86863874497405 z M 218.56029444780776,77.64939974173062 L 220.5286396971584,79.20158955370972 L 221.54478484211165,79.6501614925769 L 222.93419763032762,78.32168088890565 L 222.8331549107524,75.24357834456409 L 219.43291761143774,75.83149996940011 L 218.56029444780776,77.64939974173062 z M 227.5081681997292,85.00294457932422 L 229.9190804669122,84.47650721726967 L 230.21347162301888,83.14230562968551 L 230.21869405600526,81.2011678832301 L 228.37673563175454,80.95257163054188 L 226.19077098704236,82.73935374906225 L 227.5081681997292,85.00294457932422 z" id="c51015"/>
		<path d="M 306.7157988187032,113.88174752495189 L 311.4130848931707,110.60874810520268 L 312.17370499578476,108.53962733208554 L 318.9503640159657,111.97596180534448 L 324.727154052681,111.13973197706595 L 323.85112628571494,114.01070403254228 L 327.9199535517059,114.75403976874139 L 330.3470656165986,117.7032656649028 L 323.3056657220842,119.8744427397095 L 322.7633319343705,123.14268759435176 L 322.7531712971323,121.59217364511265 L 313.6562123737636,119.57865322526591 L 309.7611102931629,116.65409874759719 L 307.6487279786391,114.15553710230012 L 306.7157988187032,113.88174752495189 z" id="c51127"/>
		<path d="M 164.64911590933525,124.41867954696043 L 172.87499247504243,120.50470755462635 L 173.40417984670745,121.3522851857229 L 178.8938217593901,124.1295199278396 L 182.67254353789025,126.23743789916811 L 183.49008767852303,127.3797787165104 L 182.93565005821236,129.87325694996005 L 183.42932582578132,132.35564696604726 L 177.91091968312503,137.49185206174312 L 172.198994313735,136.0003404040276 L 169.98119046595002,138.21497359955845 L 167.62384395860258,138.7358340053008 L 167.20343812256658,131.61287709262248 L 163.89332572589902,125.14036221729188 L 164.64911590933525,124.41867954696043 z M 172.36006581434685,129.7752195910837 L 174.63873708442694,129.9954218910492 L 178.6969118271831,133.01693919970845 L 182.00336934701025,128.39293719646415 L 177.52367213848052,125.7426996718657 L 175.21578380515336,127.31055876575314 L 170.5413824444264,128.49246726032715 L 172.36006581434685,129.7752195910837 z" id="c51161"/>
		<path d="M 275.7515961737077,137.56383991869154 L 280.68034898684385,134.64139920699387 L 282.96765372759734,134.61513405261016 L 287.5319178962386,130.28433129321382 L 293.67311592123474,133.07573382087153 L 297.18728759234955,132.676892536339 L 298.3622941027563,136.10001498942012 L 299.5094124150745,135.74522861880266 L 299.8220640729778,143.75191807592375 L 299.669366131927,146.28822478918465 L 289.24840689306154,153.22721931207224 L 287.38159502704883,152.25640503630856 L 278.68192000322244,146.31607244337576 L 276.3081774995119,146.75306287598946 L 275.7515961737077,137.56383991869154 z" id="c51053"/>
		<path d="M 205.79806212546578,101.99433967959928 L 208.18711724551594,101.09842551134393 L 208.075206444629,102.26498280993097 L 206.23339927153486,104.74907058757897 L 206.4942347935114,102.87453224026598 L 205.79806212546578,101.99433967959928 z" id="c51530"/>
		<path d="M 277.7778217338137,121.27902392275128 L 279.9559451440975,120.79659552371052 L 287.14204292340554,112.57080199166853 L 289.97485495248895,113.03202944621037 L 289.92170819856534,114.2832111593752 L 298.28890012665374,119.38286140712982 L 298.4149763993855,120.91349209466793 L 305.03942157014984,124.93192145210101 L 306.4322784889595,123.13883916188762 L 305.4871554821146,126.78234199291286 L 304.95455563886117,126.89283198456953 L 304.861558707717,127.2497653853757 L 304.70397705780533,127.02420168637138 L 304.585110792867,127.20219766875799 L 304.27089624751386,127.27835781547675 L 304.33348094969057,127.45769903179105 L 303.882835561019,127.33891725366543 L 303.2051892110741,127.54919153715132 L 302.95509701832475,127.5257834750294 L 302.4460814690579,127.18908307809505 L 302.41640814072855,127.2798661322301 L 301.59522681513147,127.66451644368806 L 301.2690862271183,129.4110276168341 L 300.4831566438777,130.71261475613406 L 300.5191500728443,131.34603412279776 L 300.0980198232049,131.74581748854925 L 299.2503970588087,131.8061770146011 L 300.2487866588397,131.4686123923469 L 300.3885901169207,130.0000577676431 L 301.1771055936724,129.12588966162815 L 300.88658577898235,128.15800905666998 L 300.4189190616773,128.9962604366027 L 297.89489138777685,129.51035340674906 L 298.7250922077218,130.41315591889222 L 298.64524478222916,132.05867705828936 L 297.18728759234955,132.676892536339 L 293.67311592123474,133.07573382087153 L 287.5319178962386,130.28433129321382 L 287.45620136572825,130.24294139991932 L 282.4130832259378,130.11497396775698 L 276.75801108198766,124.4392164142068 L 277.7778217338137,121.27902392275128 z" id="c51041"/>
		<path d="M 169.53199591196892,147.58968349155782 L 169.98119046595002,138.21497359955845 L 172.198994313735,136.0003404040276 L 177.91091968312503,137.49185206174312 L 183.42932582578132,132.35564696604726 L 189.5129803465429,134.55632112059865 L 191.7490042503537,136.96269676907175 L 195.2989806352862,143.37469396431013 L 192.94837371817883,154.37774187376488 L 191.5692650049215,156.0383895472388 L 188.10856915828214,157.23998218627128 L 175.8321584931105,155.6448105103824 L 173.79201435520594,157.76064715436544 L 172.6403462342402,154.94009153212951 L 164.63213948785776,152.98599025441925 L 169.53199591196892,147.58968349155782 z" id="c51067"/>
		<path d="M 226.041938497828,116.30862987645918 L 229.86204893818834,114.01685623170289 L 231.94132313869753,113.40528623069798 L 240.87344490659862,121.50999027860703 L 241.1326462588356,123.40385798210333 L 242.82397597340506,122.59240523348126 L 242.81851828475024,125.73559098377656 L 238.6855821956079,131.4313785513338 L 234.14604179914073,132.5849930701137 L 231.9172040101894,133.98535193566164 L 227.30724993208347,131.56276330973014 L 222.62898336804102,120.67109877509584 L 226.041938497828,116.30862987645918 z" id="c51011"/>
		<path d="M 85.93026197610041,134.74659297717668 L 92.64740478664434,131.46843030880672 L 93.8082865076454,129.2810157458764 L 96.59564511252623,131.57495224897207 L 102.19504401783179,131.51642090844183 L 103.53366763871792,130.56732474428912 L 105.93184824373478,129.03326969548704 L 108.60442106854292,127.90877743354434 L 111.84282014315856,124.05676316329195 L 118.14575987480342,130.34605886721963 L 113.08918637525912,135.88211423744394 L 115.73197883160627,138.72272053603209 L 107.69385840989362,143.3527598667284 L 105.91326773693368,142.8006773805596 L 95.84355297552794,147.53695404330577 L 91.24826036424047,145.8508685790606 L 86.3330243082761,136.50703619282686 L 85.93026197610041,134.74659297717668 z" id="c51185"/>
		<path d="M 232.08491243675107,108.77636621374228 L 236.0026756179973,108.73500998018781 L 240.5150035060685,102.7255588692438 L 247.39763646022976,100.95169422229152 L 247.69715002614456,98.9448951986972 L 249.00775229547364,101.14802558602807 L 259.5487939365884,105.23793046639231 L 259.1209106348082,108.49622074490435 L 248.94239888886875,126.05009075931278 L 246.73921392751868,126.63052342959968 L 242.82397597340506,122.59240523348126 L 241.1326462588356,123.40385798210333 L 240.87344490659862,121.50999027860703 L 231.94132313869753,113.40528623069798 L 232.08491243675107,108.77636621374228 z" id="c51029"/>
		<path d="M 331.79034977679277,119.79593207831293 L 334.82685215049884,116.78049049691897 L 334.3375069233968,109.5560621436227 L 339.02545920128557,112.31221729725328 L 344.6642458214658,114.60189372941961 L 344.2990454490635,120.20101264885346 L 346.4631074981689,121.78050257889629 L 344.84519435414194,122.57907141571788 L 347.29649706201945,126.79717776955866 L 348.554347222788,128.98827842828058 L 347.8890675478774,130.23315506782936 L 341.976921348319,130.82456360042147 L 334.38695237937225,122.77840401773058 L 331.79034977679277,119.79593207831293 z" id="c51073"/>
		<path d="M 237.1747366130549,167.45433769350475 L 239.95818111791993,164.50886230043955 L 244.9373463742964,168.32207012631076 L 240.1980798564097,164.0907296966691 L 247.6220683046428,152.635528210749 L 251.0356194373896,154.9662406551002 L 269.8290034334674,159.29837489521708 L 269.00100194907475,173.15660463999842 L 264.8529667883544,173.1980776321159 L 255.7242022105855,173.30748906528018 L 249.33412004022784,173.3727851218348 L 246.8132837699436,173.39598636005508 L 236.0884100615107,173.34948849911552 L 237.1747366130549,167.45433769350475 z" id="c51117"/>
		<path d="M 293.66557979911335,67.34016693464324 L 296.47901265869535,69.75762983238758 L 294.38903180554564,70.42691836909077 L 292.5787953702284,68.3446821097308 L 293.66557979911335,67.34016693464324 z" id="c51630"/>
		<path d="M 322.34049236477955,171.6574614510425 L 323.8477920230386,166.62161756564998 L 333.53750068977354,157.41684579175958 L 340.8947359434311,150.18978578349711 L 345.0583527832208,148.5373631182187 L 347.2489713218805,149.13675480003695 L 346.3459781030045,152.9880765216367 L 344.706254172924,155.9543970102333 L 344.2939307797645,160.1561741026977 L 343.368611337652,171.77168807534622 L 340.95402087249767,171.82080354376427 L 331.56183988921856,171.99921889239718 L 323.0814494519948,172.44408200190998 L 322.34049236477955,171.6574614510425 z" id="c51800"/>
		<path d="M 154.4121527736517,119.9309157147726 L 157.52581777406192,117.85195276460878 L 162.72483239735212,113.55785572287515 L 163.2155671004018,110.66378173402627 L 166.0426583654427,108.48245197323061 L 166.00031854400393,108.43385075619246 L 169.68262580066772,110.13553962921344 L 175.62786292816952,107.21376564720896 L 177.9562662506905,113.35985535761151 L 172.87499247504243,120.50470755462635 L 164.64911590933525,124.41867954696043 L 163.89332572589902,125.14036221729188 L 160.9606392843066,123.46405517303508 L 155.8764471026119,126.47011039260259 L 155.24461948342102,125.7396431448083 L 154.19136922640695,119.75534049172903 L 154.4121527736517,119.9309157147726 z" id="c51045"/>
		<path d="M 217.00637064599798,95.33317609570689 L 216.41015448631057,93.2598318592739 L 220.87922918771667,91.71299088405088 L 223.55926654982147,93.85712374807997 L 228.17314179042822,90.07055524758088 L 231.4060793603441,84.07267097833727 L 238.68163289184068,99.81928009765214 L 239.35404312029027,103.22385876903687 L 240.5150035060685,102.7255588692438 L 236.0026756179973,108.73500998018781 L 232.08491243675107,108.77636621374228 L 231.94132313869753,113.40528623069798 L 229.86204893818834,114.01685623170289 L 224.39872101779622,104.89531593779608 L 220.576807390778,103.4087532962467 L 220.40697168477325,99.96688619712056 L 217.29098686521652,97.82205593274253 L 215.67958205176095,98.46519520496791 L 217.00637064599798,95.33317609570689 z" id="c51125"/>
		<path d="M 312.068258670475,77.53454915197352 L 314.0512368040974,78.0140071523895 L 314.5987922755502,76.80206657965536 L 316.03611375286664,80.92292752505016 L 320.52088341147186,81.71790035442552 L 321.9203694975193,86.94619264449678 L 327.8996072729074,92.35156742418035 L 333.4651859900529,99.18584176594007 L 330.90751962947166,100.52196249376375 L 329.6224442982377,102.21208152502778 L 327.15416234040833,98.33841218116002 L 320.5231477200702,99.15385632805209 L 320.38410527754155,96.4755214699464 L 315.76219245301274,93.9138515249177 L 314.3865298299464,88.47542350430466 L 314.23959311715305,86.70113067098363 L 309.59658857762815,81.74367683132282 L 312.068258670475,77.53454915197352 z" id="c51057"/>
		<path d="M 146.83276915616287,165.62857491212554 L 150.52037989439413,166.21839484425226 L 153.53249834987494,162.4525662641927 L 153.8376384844467,160.70129689519126 L 157.328796052375,157.2568650694853 L 164.63213948785776,152.98599025441925 L 172.6403462342402,154.94009153212951 L 173.79201435520594,157.76064715436544 L 171.25494206600106,158.5956671356354 L 172.9691785704218,172.67382760527943 L 161.40440426041945,172.38379421924398 L 154.8894728823279,171.88111147629607 L 154.48356266591165,171.85023512572894 L 146.26340361983875,171.21679698579712 L 146.83276915616287,165.62857491212554 z" id="c51141"/>
		<path d="M 261.69070897559453,15.464012860999564 L 262.976285809885,15.564440624318074 L 264.0510873993916,16.670622365395154 L 261.91850045189756,19.84100748651423 L 261.124793610463,16.947500175227248 L 261.69070897559453,15.464012860999564 z" id="c51840"/>
		<path d="M 129.8240514098078,126.76455519780897 L 132.74772147821105,126.5277100609424 L 136.75671938102326,124.93201153503442 L 134.5719794209454,121.96382279505704 L 135.48280994851848,119.85304874277101 L 135.81528553415063,119.79756889845093 L 135.85278629941106,119.79130949254329 L 136.84601967312798,119.62539988916089 L 139.90620227038227,122.78510309389523 L 144.93592496082974,120.42502658655751 L 150.69447280935847,116.97109026676097 L 154.19136922640695,119.75534049172903 L 155.24461948342102,125.7396431448083 L 155.8764471026119,126.47011039260259 L 152.51611820502308,128.81340284634067 L 147.44757968845107,130.52457485501205 L 138.13439837537396,134.16937746319945 L 135.56587163945758,136.0107057002426 L 128.20991024552364,128.21635833693372 L 129.8240514098078,126.76455519780897 z" id="c51071"/>
		<path d="M 317.802190516262,131.80965488842497 L 319.6759438007392,130.85293233788954 L 322.1098702229704,132.1849188541138 L 323.9328967497314,132.28854522214135 L 327.99125576662226,132.74699743004294 L 329.8072330004875,134.9237685045618 L 334.5111422756285,133.210620126334 L 335.4658235577579,136.17491371163837 L 332.88734121734683,141.84061152073818 L 325.76112546751074,145.70587250009407 L 320.87475157140193,148.86001227777462 L 320.2113809811077,142.34527358349806 L 311.1244830895621,139.077486456107 L 317.802190516262,131.80965488842497 z" id="c51181"/>
		<path d="M 227.9217300313306,60.9363479290634 L 229.98934516914076,57.859152744187895 L 232.03998996214762,61.95492863171396 L 227.94895214712633,63.74540067936093 L 227.82500428991608,63.42570253122422 L 227.9217300313306,60.9363479290634 z" id="c51660"/>
		<path d="M 294.937505461806,39.91147234343349 L 296.25315983399145,40.957460738641444 L 296.45504223635106,40.18577357716774 L 297.38619273851,41.430873948767534 L 297.0789094366051,41.949576211471914 L 295.6106437768886,40.856667273465725 L 294.812940661112,40.34087913030562 L 294.937505461806,39.91147234343349 z" id="c51685"/>
		<path d="M 176.32881929030734,100.52409271533843 L 177.34969742340883,97.39264453846668 L 178.29597389647122,98.01135905748363 L 177.66659956074272,99.32572546052404 L 178.2281404075822,100.6536999544348 L 177.04393168729328,101.2612151352062 L 176.32881929030734,100.52409271533843 z" id="c51580"/>
		<path d="M 364.5704130247351,127.46846949725482 L 366.1625995094563,122.71197369812595 L 366.5410173842342,118.17526793365217 L 367.8298612226859,111.96289294546558 L 369.946735080227,111.4157595130122 L 373.02722539696873,111.5064966887768 L 375.298317865414,112.94793822951999 L 374.5307959435488,113.80610769890654 L 375.1082184157086,115.32437751895502 L 374.224248018794,116.23644130143256 L 375.96902419614275,117.32989812054718 L 376.55123747706034,116.79552044445668 L 378.96692165079827,117.51939800493524 L 381.1956531887091,116.41820780673375 L 381.55646079597864,117.32500067180722 L 378.75205119834095,122.07733952765012 L 378.1057783564283,124.33282450439316 L 376.1391505735651,126.65999988966549 L 375.4527953471398,129.65032783863575 L 374.4930431905227,132.86068922324662 L 370.83159398566596,137.43772295608153 L 368.73830753676424,139.1826069417638 L 366.95423532709077,138.58904463377712 L 365.9079266925727,133.38175619371393 L 364.5704130247351,127.46846949725482 z" id="c51131"/>
		<path d="M 298.36252854548866,163.22084948038437 L 320.87475157140193,148.86001227777462 L 325.76112546751074,145.70587250009407 L 327.40401528743,152.44471946552991 L 322.49139535318096,162.86898593067048 L 321.16309159485985,162.83518867040468 L 320.4097042009333,163.3281375769484 L 320.61692549442444,164.61203943661405 L 321.4346315436364,164.7755879835471 L 320.73138908344623,165.28345932373557 L 322.0499388214102,165.7584567020572 L 323.26647109803497,166.38711489720416 L 323.8477920230386,166.62161756564998 L 322.34049236477955,171.6574614510425 L 323.0814494519948,172.44408200190998 L 323.06682860698527,172.44483477475933 L 323.0056180245662,172.44798574884774 L 311.1897294119539,172.62947722904144 L 309.9530094742501,172.6466348998829 L 304.7581465645638,172.72509783480808 L 302.05690995890586,172.28030855889935 L 299.1228794061445,166.38944323025143 L 294.95958128689256,165.4620578820063 L 298.36252854548866,163.22084948038437 z" id="c51175"/>
		<path d="M 323.3056657220842,119.8744427397095 L 330.3470656165986,117.7032656649028 L 331.79034977679277,119.79593207831293 L 334.38695237937225,122.77840401773058 L 329.84019690956995,124.39414180421772 L 331.1987024961654,127.24113949033718 L 330.60211353287923,127.26388133295751 L 330.606761225605,129.1822208470041 L 334.2631067955877,130.46209658961976 L 333.5042429336002,129.56347686354928 L 337.2820892691343,131.13548377988263 L 337.77787585396135,132.60679463133084 L 338.442022362747,134.14237418965945 L 335.4658235577579,136.17491371163837 L 334.5111422756285,133.210620126334 L 329.8072330004875,134.9237685045618 L 327.99125576662226,132.74699743004294 L 323.9328967497314,132.28854522214135 L 324.1967270812355,123.84308790584815 L 322.7633319343705,123.14268759435176 L 323.3056657220842,119.8744427397095 z" id="c51095"/>
		<path d="M 131.9097534788167,137.83645415917806 L 135.56587163945758,136.0107057002426 L 138.13439837537396,134.16937746319945 L 147.44757968845107,130.52457485501205 L 148.35713014493535,134.22799078705583 L 151.71236049400272,133.1676426592323 L 150.95973221953548,137.18719068001988 L 150.0714234958702,136.41351334413505 L 149.8436905238062,136.398165918774 L 148.91199682808752,136.78363445153767 L 147.95689224579968,137.47410652699833 L 147.8444188867827,137.6340721135904 L 147.77703725709264,138.0023068134357 L 148.03914430345532,139.00974673177683 L 148.49429051499786,139.75169213085607 L 150.2120602091682,142.23313455925546 L 150.09038850341045,146.01515645615214 L 148.9016990896339,147.40973956777904 L 145.7357688786674,149.05055726447515 L 143.3715988807883,151.16752859958763 L 140.59235653780027,152.05788671554635 L 133.54815625917615,143.07962110142142 L 132.6967544405142,140.33237400374253 L 131.9097534788167,137.83645415917806 z" id="c51155"/>
		<path d="M 288.97297457773385,111.74922407135648 L 288.22930258708413,104.16179937800942 L 296.94699236521535,105.35187511185562 L 298.8189404850613,109.57032112918058 L 299.58181049454413,110.4104692819582 L 306.7157988187032,113.88174752495189 L 307.6487279786391,114.15553710230012 L 309.7611102931629,116.65409874759719 L 307.63492590437664,123.22775641668147 L 306.4322784889595,123.13883916188762 L 305.03942157014984,124.93192145210101 L 298.4149763993855,120.91349209466793 L 298.28890012665374,119.38286140712982 L 299.8966318626027,114.14276731610231 L 297.39367918546367,110.41447125797639 L 292.9282355235888,110.82437827883764 L 289.97485495248895,113.03202944621037 L 287.14204292340554,112.57080199166853 L 288.97297457773385,111.74922407135648 z" id="c51087"/>
		<path d="M 212.9156465878415,173.2389990985602 L 219.15208620887157,142.45006179618412 L 224.87763044388822,143.16132133708146 L 228.0581519538029,144.8229150580103 L 228.61153578703676,147.52830448154853 L 233.2612490382439,148.7732574036539 L 235.69410727163563,145.84874959640942 L 235.40286345800195,150.90929406394693 L 239.1214083404689,154.60028969663483 L 240.1980798564097,164.0907296966691 L 244.9373463742964,168.32207012631076 L 239.95818111791993,164.50886230043955 L 237.1747366130549,167.45433769350475 L 236.0884100615107,173.34948849911552 L 233.11481295334872,173.33195931920218 L 226.14225335542628,173.28296146325334 L 216.74897350786574,173.25583925467592 L 212.9156465878415,173.2389990985602 z" id="c51083"/>
		<path d="M 96.89816140074596,166.61705351765858 L 98.91095861750796,165.13360115783186 L 101.99213819884267,161.4734674053839 L 115.55692485120818,158.2535172740072 L 123.83599091356717,158.23452183091516 L 126.09728757792807,155.98306776276456 L 131.13519969470877,164.1179206749003 L 130.5774345917871,163.8237476589908 L 130.29427848501965,164.60569387486981 L 130.35924990152012,165.47521901377215 L 131.59550052921622,165.79437134954887 L 131.1222896177185,166.85469685642764 L 131.8440806840499,166.64255739820283 L 131.96600267789157,165.40597364190046 L 135.36478703972188,170.73228442922075 L 132.4263009517633,170.66689108704642 L 132.4231983150868,170.6668210006758 L 124.77485798279818,170.14747609240015 L 119.29262198381225,169.7000065499132 L 110.86272286625301,169.19023318711945 L 103.86191991810306,168.75450245787687 L 95.38584551934537,167.97699049631498 L 96.89816140074596,166.61705351765858 z" id="c51077"/>
		<path d="M 49.16833415034726,146.37888484824217 L 50.68097932725424,144.59287389498195 L 52.58592437159089,144.45539569857988 L 52.652730747970516,145.68381388695448 L 51.16574121122242,146.10654378203864 L 51.44138686261676,147.42633881260696 L 49.955970261087195,146.76048483615406 L 49.16833415034726,146.37888484824217 z" id="c51720"/>
		<path d="M 315.3088594599816,70.93279081984427 L 317.5217909957743,69.78869290494394 L 317.8322266197496,70.09262430356613 L 319.37933744223835,71.8899429574794 L 319.19720450418356,73.61857795889588 L 321.6217310056662,74.58519875831254 L 325.026859634934,76.51663502561492 L 329.19784666508224,76.51987065495628 L 332.2360957149388,76.79386546838145 L 335.56582943932733,77.19568290528116 L 336.22149947814034,79.46485293064856 L 339.31719900077803,81.80389387253497 L 340.5375206078512,83.55878034007576 L 335.56610147469036,85.98077416451163 L 334.83543471540605,87.99806759974234 L 328.67394480963543,86.02327056679118 L 323.27731615909727,78.86696112599343 L 320.52088341147186,81.71790035442552 L 316.03611375286664,80.92292752505016 L 314.5987922755502,76.80206657965536 L 315.3088594599816,70.93279081984427 z" id="c51193"/>
		<path d="M 247.69715002614456,98.9448951986972 L 256.3527481320961,86.51649263965433 L 261.12884162716523,89.41614441902783 L 267.83809803800625,92.51045066542113 L 263.86489832532317,100.2768287805102 L 263.32415528256575,101.7856876095498 L 262.3052614368445,102.00089939860572 L 259.5487939365884,105.23793046639231 L 249.00775229547364,101.14802558602807 L 247.69715002614456,98.9448951986972 z" id="c51065"/>
		<path d="M 192.94837371817883,154.37774187376488 L 195.2989806352862,143.37469396431013 L 200.70028373970658,145.58016372804633 L 202.49265234081616,142.6445983657335 L 207.3561887989011,137.87210820155826 L 213.24771866938917,139.00652604026243 L 214.29128713430072,142.75284417909828 L 219.15208620887157,142.45006179618412 L 212.9156465878415,173.2389990985602 L 206.95127442962712,173.20614462714158 L 208.9102358332794,171.07199020182532 L 205.94087970300353,169.2444747152281 L 204.38061792833673,167.08066841400887 L 203.20342162542667,169.64943497988756 L 199.4547253941289,168.55803712111071 L 198.57762037985432,169.43206819203226 L 201.55013004743392,171.02875041524914 L 200.87782656132293,173.16436626788214 L 198.9358003621095,173.14923524076218 L 198.79224658911934,173.14704732959103 L 189.1667647534054,172.9896366404575 L 192.94837371817883,154.37774187376488 z" id="c51143"/>
		<path d="M 214.62853511095136,55.4989437766285 L 216.8549230193921,50.85043541260294 L 219.73107333903485,47.72831366605588 L 219.97042749859804,45.91606342274195 L 221.42705147228074,41.69870584751189 L 223.02687500425398,39.50293542699647 L 224.15533562566307,37.051427714577706 L 230.15168558969071,41.649191709843194 L 240.69595497627134,51.060450608167955 L 238.3798618527374,56.67031337171923 L 247.95502810788452,61.92116485772662 L 244.8089598445338,67.06284073610462 L 239.66726955372658,70.42893863425897 L 240.03332589785472,71.46722164431395 L 235.6258026715419,74.64519207193412 L 229.1555792464617,68.8705881321869 L 227.99779380001098,68.8682618414712 L 213.35044268016006,58.33899393652723 L 214.62853511095136,55.4989437766285 z M 227.82500428991608,63.42570253122422 L 227.94895214712633,63.74540067936093 L 232.03998996214762,61.95492863171396 L 229.98934516914076,57.859152744187895 L 227.9217300313306,60.9363479290634 L 227.82500428991608,63.42570253122422 z" id="c51165"/>
		<path d="M 253.43087995187912,75.99468667762883 L 257.15717269306515,70.73715170691734 L 258.1453975007015,71.26562232504983 L 258.84615000142384,72.99559787753694 L 259.8281112609571,73.22721058993099 L 266.227990127883,68.4195330635826 L 268.77675179528035,68.38831225110367 L 274.8652638657544,64.20793501374335 L 280.77444347152664,65.17576097219381 L 281.3412066474413,63.480322236518965 L 284.4933520440478,65.35995727883801 L 283.93492736493016,66.85118253146672 L 272.8743704899551,79.80968171974607 L 265.93020072504896,77.82617421870623 L 260.8963538493663,79.11583235300589 L 254.69802643433502,76.4180352645377 L 253.43087995187912,75.99468667762883 z" id="c51137"/>
		<path d="M 202.49265234081616,142.6445983657335 L 207.92992133102433,131.87486073415567 L 211.42444894234657,124.94566042921736 L 213.44986085502796,126.33933278313566 L 219.6173034502503,122.69021324118717 L 220.42743738959336,123.23052603906189 L 222.62898336804102,120.67109877509584 L 227.30724993208347,131.56276330973014 L 231.9172040101894,133.98535193566164 L 228.0581519538029,144.8229150580103 L 224.87763044388822,143.16132133708146 L 219.15208620887157,142.45006179618412 L 214.29128713430072,142.75284417909828 L 213.24771866938917,139.00652604026243 L 207.3561887989011,137.87210820155826 L 202.49265234081616,142.6445983657335 z" id="c51031"/>
	</g>
</svg>