<?xml version="1.0" encoding="UTF-8"?>
<svg baseProfile="full" fill="#d0d0d0" height="263.2038096589818" stroke="#ffffff" stroke-width="1" version="1.1" width="400.0" xmlns="http://www.w3.org/2000/svg" xmlns:ev="http://www.w3.org/2001/xml-events" xmlns:xlink="http://www.w3.org/1999/xlink">
	<defs/>
	<g id="counties"><path d="M 289.4403198978794,212.32724538080245 L 297.8445179743764,209.43308070542062 L 302.6366341656547,205.8942502537427 L 303.58763515604505,201.24417583680454 L 309.30729409234686,196.9924106195023 L 310.05762179994997,190.17485911569378 L 317.29980603377606,182.99827083764237 L 329.873515297286,182.88522704486564 L 329.94283258700665,205.28176611788513 L 336.4799575568319,205.0268403671498 L 336.68512540363133,211.58353215504206 L 343.2026714853455,211.37418455718267 L 343.49073481033935,226.94906073200272 L 324.10372987334756,227.58476163918422 L 311.60712468466767,227.94772569882943 L 307.89030326904594,228.04818685594051 L 291.7206768893976,228.54977478392212 L 291.71562239451765,228.55400946790206 L 294.0650263130036,226.41511511667574 L 292.11937043173924,218.05411084900194 L 288.5404987175743,214.14923454014374 L 289.4403198978794,212.32724538080245 z" id="c53071"/>
		<path d="M 266.43200136562746,178.08148448231248 L 270.7724662139261,178.08112092585316 L 270.6738822727634,173.61608295477515 L 301.47555413067784,173.08355154211972 L 330.45239472703753,171.9429352140717 L 328.45962427814584,172.3628957733389 L 330.55566888290554,183.19530369701351 L 329.873515297286,182.88522704486564 L 317.29980603377606,182.99827083764237 L 310.05762179994997,190.17485911569378 L 309.30729409234686,196.9924106195023 L 303.58763515604505,201.24417583680454 L 302.6366341656547,205.8942502537427 L 297.8445179743764,209.43308070542062 L 289.4403198978794,212.32724538080245 L 288.5404987175743,214.14923454014374 L 276.8032861394255,208.4054051772924 L 276.1157571105684,189.75006758457133 L 269.1139156503466,183.00108985678372 L 266.43200136562746,178.08148448231248 z" id="c53021"/>
		<path d="M 75.72059705575936,26.464867582369184 L 84.03775650535897,25.476502447996126 L 86.60223953332327,23.94795863096429 L 88.72302455318757,19.47364331223452 L 90.80287384325077,18.884443794070087 L 96.6377048217019,22.469457160945822 L 100.22435715155443,28.764048527458424 L 97.33333692839632,32.99335682994464 L 98.63685567390134,36.198624243203504 L 98.14104451252356,40.20336823223218 L 96.15914708060143,42.03116295440832 L 96.77092572800119,46.18608206655649 L 93.2245412355738,46.88574974531092 L 90.57910758902136,45.18040548169351 L 85.07445881913459,43.52235428180908 L 80.07155182787524,39.97558687941812 L 77.21717590794923,33.512887244940956 L 75.72059705575936,26.464867582369184 z" id="c53055"/>
		<path d="M 44.931680448820664,197.9872616222918 L 64.04125217050027,198.72386033315223 L 69.19266849145104,198.93219064964688 L 71.33215006243296,198.83697218783604 L 71.11772930041133,214.93791265704047 L 67.52817527865626,216.79671881894384 L 63.17372707341066,216.55071006097046 L 62.773175067923546,216.52784206804745 L 59.76523784973153,213.76492627091127 L 60.053115624967894,210.20604009371846 L 57.44806868762021,207.12981140051158 L 53.883681382403,207.75823297349612 L 47.56640042242026,206.95032276685814 L 46.04777196834802,204.00665861318717 L 44.59781010571252,204.9994613835855 L 44.931680448820664,197.9872616222918 z" id="c53069"/>
		<path d="M 288.9088851662357,82.73091773188763 L 290.3403658675565,82.78109149454414 L 295.0066195503808,81.49096518001588 L 302.1870850708181,85.39476058827275 L 303.27927887073184,82.40916243122406 L 309.2487279295953,83.01883716321218 L 310.68254149515946,86.6055360776763 L 319.6356096306292,90.17910887679325 L 320.906136022939,85.5113647784069 L 325.56486250465247,81.6572490323826 L 327.2620724677018,81.45797405864738 L 334.4109796003403,92.12708694004046 L 344.2122447257685,88.20235541480923 L 347.3307901299718,89.71203011837103 L 348.8545560614837,132.1201739153003 L 341.84521928703805,132.36204966803984 L 289.82460184147703,133.8742109140708 L 288.9088851662357,82.73091773188763 z" id="c53043"/>
		<path d="M 27.02067397271751,166.53738797743685 L 64.39606477960866,168.09363425659697 L 64.04125217050027,198.72386033315223 L 44.931680448820664,197.9872616222918 L 44.59781010571252,204.9994613835855 L 42.905650194995744,206.1568205000674 L 40.50806024878488,205.42535940095308 L 36.770510310590794,208.5690353558448 L 35.029823198105355,208.07137352851856 L 32.78198375713849,205.6140482828631 L 32.042203302967,204.502565094661 L 26.183138212086853,206.0741279318974 L 27.2055813048348,201.63574444939326 L 28.12344695566145,189.17253118340693 L 27.906305109846134,178.84989911704884 L 33.550608677838994,178.65431574478922 L 35.590296478549135,176.00722026320642 L 33.03865172204967,172.80490736579893 L 27.64786969327275,171.00138455068108 L 27.02067397271751,166.53738797743685 z" id="c53049"/>
		<path d="M 370.1138209582787,216.72827767578215 L 373.26876383003844,216.5923278157368 L 372.407164879582,197.00917158193639 L 382.19374323882624,194.44653454024763 L 382.0497735177043,190.62630441078628 L 383.1956680740308,193.46775791985232 L 392.1017550464094,192.85815943788438 L 392.2183682873932,194.06125982823022 L 391.01522311965005,198.35737713765167 L 394.6028987299387,201.97250423729483 L 396.49912144575137,205.62488232836884 L 396.77483278472874,209.63903004237463 L 398.91475264170316,211.69206082501643 L 398.423284871619,213.85670113852171 L 396.2169949178277,218.2915144688485 L 398.3579486818203,219.98098324139198 L 400.0,224.82678835551974 L 377.11276881270953,225.85721199568405 L 370.52329217301406,226.05844182271673 L 370.1138209582787,216.72827767578215 z" id="c53003"/>
		<path d="M 292.78378249756304,29.309072915894145 L 294.40544980254356,29.264111819842718 L 293.7503905235332,3.2715495664277405 L 325.3041468529075,2.3140841569569446 L 324.2663323324971,7.103943507919767 L 325.8070163490923,14.288708019356315 L 329.1669061637689,18.9085561516045 L 330.7880836876504,28.174397032950246 L 328.912240114175,38.22268592619329 L 326.2111672693903,42.09073008271284 L 328.1431978517311,53.34753000306712 L 330.0064141404898,57.75334675220414 L 327.47218857226477,61.37472090580872 L 327.7691930205957,65.3439289487197 L 324.9583562640154,67.36394952710782 L 325.9066670178212,72.51018147918914 L 323.84307632447144,74.43513748383809 L 317.567889622999,75.53093685780694 L 320.3249992557097,79.7145024195325 L 320.906136022939,85.5113647784069 L 319.6356096306292,90.17910887679325 L 310.68254149515946,86.6055360776763 L 309.2487279295953,83.01883716321218 L 303.27927887073184,82.40916243122406 L 302.1870850708181,85.39476058827275 L 295.0066195503808,81.49096518001588 L 295.30694442203253,81.06498654419651 L 294.39727473764725,42.18610800354375 L 293.11913076681896,42.22742695452501 L 292.78378249756304,29.309072915894145 z" id="c53019"/>
		<path d="M 347.3307901299718,89.71203011837103 L 353.45648753784343,87.17663305776237 L 361.85489287885514,91.46800453448996 L 361.0405397639657,72.47766222381516 L 365.9819859139668,72.30556087378305 L 385.87979749057,71.506411570889 L 386.12652648132894,76.6035311349111 L 387.00492362811735,94.75219808252552 L 388.42776318551233,122.4231604930597 L 388.8392640682891,130.42292154134392 L 348.8545560614837,132.1201739153003 L 347.3307901299718,89.71203011837103 z" id="c53063"/>
		<path d="M 221.44384932192924,119.20186850224903 L 227.29338191176564,103.32554609512518 L 226.7289224217952,98.3718100236592 L 237.66685064901725,95.65690085189445 L 243.67393482615986,82.28170182012866 L 242.34448588973956,75.5752813013521 L 248.3634618790902,71.43222705857207 L 253.6671721731761,73.53048973020562 L 252.5081556241703,76.7879397886849 L 254.6203228736336,79.14511292135893 L 261.3327423872961,74.35384459235402 L 265.40292973724195,73.22595291204114 L 270.10483080550324,75.18328672606964 L 272.2664586581924,70.18348932250164 L 274.38378231630776,71.1507295089547 L 279.63126174285594,67.7342556640173 L 284.36690366877417,68.31030118127906 L 287.2345381929052,75.27673801968122 L 289.9155609822775,77.0418753635951 L 288.4353032391295,81.34546243536674 L 282.3071851906486,81.50771397926606 L 281.2711774967305,84.86786897555787 L 276.9648990688908,87.18201758713771 L 277.0930714478621,93.70967953905364 L 272.84252859390784,99.22791317577347 L 271.8962357218008,106.86631628222341 L 267.6107051112345,108.01095259486905 L 261.2405197948971,114.49367171755866 L 261.3383429789724,120.98695478052073 L 243.9018945092859,121.52152798512523 L 241.77020917439816,127.02653998176802 L 237.43295112455036,130.4134234293885 L 237.39248167813952,137.90721398380316 L 233.86648684873302,137.51090164247108 L 232.89524991749093,134.79941898540446 L 233.2557036674968,129.03438536949497 L 224.35718373806966,125.73784954278644 L 223.01499859451883,125.05586812389575 L 222.67240215540073,124.48382121509219 L 222.5014300071247,123.5565378894404 L 221.87645934334026,122.11965903657607 L 221.69674884049408,121.15293504055683 L 221.38033200120304,120.27716297953819 L 221.44384932192924,119.20186850224903 z" id="c53017"/>
		<path d="M 270.4637215663371,160.49596296777193 L 290.309953179009,160.15981726857964 L 289.82460184147703,133.8742109140708 L 341.84521928703805,132.36204966803984 L 342.89530410246726,158.28482575582882 L 340.3628781739362,168.13547902991064 L 330.45239472703753,171.9429352140717 L 301.47555413067784,173.08355154211972 L 270.6738822727634,173.61608295477515 L 270.4637215663371,160.49596296777193 z" id="c53001"/>
		<path d="M 64.39606477960866,168.09363425659697 L 65.40693061344008,168.02324107482818 L 75.2350220442065,168.34219904944493 L 75.15255838450247,170.52081428391153 L 124.52456148177431,171.8023243055232 L 143.11515909105617,174.6867453481248 L 147.46283362133292,170.58865822959086 L 163.0996912991457,170.74539578696087 L 168.30279740149876,176.2088491660278 L 163.15333239709165,189.49950886786328 L 166.05374562714795,200.30533991112407 L 159.37503125669915,200.3997230216032 L 159.37530202793334,200.36948010617377 L 132.90115079297746,200.10606763174857 L 128.63379734724342,200.1371345871381 L 122.27382436456546,200.0702593764041 L 122.05464578198352,200.10618782132306 L 71.33215006243296,198.83697218783604 L 69.19266849145104,198.93219064964688 L 64.04125217050027,198.72386033315223 L 64.39606477960866,168.09363425659697 z" id="c53041"/>
		<path d="M 113.78470131491811,56.41993176414291 L 126.66615590944642,56.67565202377522 L 186.72656654461716,57.397098221108266 L 191.4353211998812,67.37146456848934 L 185.97196362354566,73.99476373361924 L 179.05575938766637,76.60609981003623 L 180.80902994299174,79.80876760345924 L 177.6233970630156,87.1741957606558 L 183.16168540555026,92.60919731428066 L 180.69834293747866,96.1036326646099 L 123.82243605430622,95.69978088679919 L 122.44427543890384,95.66421912649366 L 119.60337702209002,95.56792542751457 L 113.99763690405406,95.4432701243299 L 114.50408194118627,91.68000391014637 L 116.15043346608851,89.19823336723888 L 119.52145523859564,83.89185496932043 L 118.88492222036363,72.83995171893565 L 115.62510115116316,65.99632173824646 L 116.97785426780594,61.009793938124275 L 113.78470131491811,56.41993176414291 z" id="c53061"/>
		<path d="M 92.62864070805578,239.5787081853003 L 96.24784225419752,238.17514591354438 L 96.36544025228265,233.49624944045618 L 99.60682691276136,233.95898745783217 L 109.1566107378767,229.67281254422414 L 115.35294566902874,232.14079399644706 L 121.34408154203152,224.9777482303823 L 120.47369070542905,262.7906950479788 L 119.75758277101751,263.2038096589818 L 116.13039946394849,262.8404573031109 L 113.59847288156578,260.7103418168827 L 110.5021856906762,261.5747485272659 L 107.70885308518274,260.0364753470427 L 99.76326761580208,257.8705081110619 L 94.86506159859661,255.16904668781314 L 93.93419315168077,253.77291896863835 L 93.01756622899532,252.3969884246804 L 93.5293519774912,248.7884274612095 L 93.8526434926335,246.50619695886283 L 92.15589453817012,242.6459030321041 L 92.62864070805578,239.5787081853003 z" id="c53011"/>
		<path d="M 98.99939057047882,58.90473715814348 L 101.3787193072777,54.818093447102875 L 103.55870300852413,47.57599475477186 L 107.55236345202066,47.339876240368746 L 113.78470131491811,56.41993176414291 L 116.97785426780594,61.009793938124275 L 115.62510115116316,65.99632173824646 L 118.88492222036363,72.83995171893565 L 119.52145523859564,83.89185496932043 L 116.15043346608851,89.19823336723888 L 114.50408194118627,91.68000391014637 L 111.02292592414854,83.97985406182956 L 107.43228678945121,82.30235064329631 L 108.81609199306273,81.1167278331249 L 109.06122240804017,78.93144415708913 L 105.87757237530981,76.26339032878876 L 106.46949608112676,70.30076338034073 L 104.81029690707226,66.30945650737993 L 100.93412470179716,63.94313141474252 L 98.99939057047882,58.90473715814348 z" id="c53029"/>
		<path d="M 237.7246973367805,144.95575970206463 L 237.39248167813952,137.90721398380316 L 237.43295112455036,130.4134234293885 L 241.77020917439816,127.02653998176802 L 243.9018945092859,121.52152798512523 L 261.3383429789724,120.98695478052073 L 261.2405197948971,114.49367171755866 L 267.6107051112345,108.01095259486905 L 271.8962357218008,106.86631628222341 L 272.84252859390784,99.22791317577347 L 277.0930714478621,93.70967953905364 L 276.9648990688908,87.18201758713771 L 281.2711774967305,84.86786897555787 L 282.3071851906486,81.50771397926606 L 288.4353032391295,81.34546243536674 L 288.9088851662357,82.73091773188763 L 289.82460184147703,133.8742109140708 L 290.309953179009,160.15981726857964 L 270.4637215663371,160.49596296777193 L 270.6738822727634,173.61608295477515 L 270.7724662139261,178.08112092585316 L 266.43200136562746,178.08148448231248 L 263.3642366463973,174.49952555521364 L 257.933944587502,180.60091904218245 L 244.7462238145756,182.2356668905979 L 243.18631943768258,181.51799208614744 L 239.53755861831422,174.1290019231491 L 241.83579560386153,169.5009874485566 L 239.71915553756088,158.62077046818456 L 235.67593710889662,148.93190411660456 L 237.7246973367805,144.95575970206463 z" id="c53025"/>
		<path d="M 121.34408154203152,224.9777482303823 L 122.05464578198352,200.10618782132306 L 122.27382436456546,200.0702593764041 L 128.63379734724342,200.1371345871381 L 132.90115079297746,200.10606763174857 L 159.37530202793334,200.36948010617377 L 159.37503125669915,200.3997230216032 L 159.14389685615774,226.23304487846772 L 154.44479361883836,226.1816973942746 L 154.4028958995072,245.81658830072783 L 158.84013583420355,250.26427792220645 L 158.3635350447635,250.0569184450631 L 151.23509478386143,251.59683146132156 L 147.7151325341501,252.38616372132853 L 143.71880682313372,251.3822390187007 L 140.76728911205856,252.35599170444166 L 138.9624386095096,254.6788941163383 L 137.74941628832644,255.23695576839984 L 136.26052780304252,255.92122719767758 L 133.49736284033904,258.05907237009916 L 128.2956047400029,260.4104149617744 L 123.9647787156083,260.7737240208972 L 120.47369070542905,262.7906950479788 L 121.34408154203152,224.9777482303823 z" id="c53059"/>
		<path d="M 102.56953102342943,42.71953508741778 L 104.6000381811161,38.76652709582434 L 105.08686327840654,34.41047150560683 L 103.75807678113284,30.103163001205004 L 106.88518626595422,31.61973550614853 L 108.973786952302,31.379157008159908 L 112.202974184409,30.29399583617286 L 126.40635473404019,30.54778003802083 L 158.8134042734211,31.244786154119296 L 191.42343255060254,31.522897996215686 L 199.20337000814212,30.31424810584758 L 197.3948443226003,32.70874226459651 L 202.366495056304,36.410609865351965 L 201.69717512514475,39.72247405642413 L 195.62247852252472,38.71935830303467 L 184.36031405552345,43.179131508664966 L 183.23011474030054,55.75252290271453 L 186.72656654461716,57.397098221108266 L 126.66615590944642,56.67565202377522 L 113.78470131491811,56.41993176414291 L 107.55236345202066,47.339876240368746 L 103.55870300852413,47.57599475477186 L 103.64795639048323,47.27892038649575 L 102.56953102342943,42.71953508741778 z" id="c53057"/>
		<path d="M 91.9966844085694,134.0543892191567 L 94.92003697409318,123.08785120067745 L 108.37483131440659,123.42560666582281 L 108.23448472658384,128.37709322998373 L 109.60580233536567,129.73705631876544 L 113.34572302553596,128.75880291374997 L 117.68111218771396,133.3402724473958 L 118.45311533953478,134.57479540582764 L 118.63654495604347,134.59555662521436 L 123.83762892478309,134.68038502306575 L 128.20551390328507,134.75810951009316 L 130.64216824174284,139.4927769029655 L 138.60524006571072,143.83681869091913 L 145.87644738068923,141.35774483050292 L 154.32719133873653,142.92114194903553 L 156.8260756977944,145.5624533914931 L 167.14048346227662,148.00541185834567 L 163.12127017119985,160.25642041039058 L 159.66219118178026,164.0384968829077 L 163.0996912991457,170.74539578696087 L 147.46283362133292,170.58865822959086 L 143.11515909105617,174.6867453481248 L 124.52456148177431,171.8023243055232 L 121.29059532575943,171.56248583277807 L 119.43834683838305,166.82590293604318 L 109.84789407592177,163.6402377550025 L 109.75195713693918,160.84214866615963 L 106.38968091646953,158.64864461015677 L 101.40476808727463,153.29699955523685 L 99.92040352078342,146.05741578335738 L 96.55081575074499,142.81394463361252 L 93.52767049797066,138.76609137542482 L 91.9966844085694,134.0543892191567 z" id="c53053"/>
		<path d="M 87.72942049790318,107.68021060022024 L 96.34643961742083,102.92060077117526 L 99.6619449350711,94.37849143059061 L 106.21619434568866,87.43132744347243 L 104.34153938031255,84.33041277296735 L 105.22261933321593,84.1930412865077 L 107.43228678945121,82.30235064329631 L 111.02292592414854,83.97985406182956 L 114.50408194118627,91.68000391014637 L 113.99763690405406,95.4432701243299 L 113.27765526088157,113.07239048083694 L 108.37483131440659,123.42560666582281 L 94.92003697409318,123.08785120067745 L 95.15366861693322,114.3250300616814 L 83.09172257392734,114.01069821461209 L 87.72942049790318,107.68021060022024 z" id="c53035"/>
		<path d="M 354.1371005812704,20.579968961285665 L 357.38977304037996,20.418521366537476 L 357.08873845848296,13.391985497884914 L 360.32330408850515,13.235904560407823 L 360.02006780410574,6.768960132593129 L 363.40872742011965,6.619855466243871 L 363.17297312379117,0.8349082021426096 L 371.15297305313976,0.5100958813401623 L 382.79164697634326,0.0 L 383.32771456338963,11.434796466360593 L 383.99440004505374,25.661056949820175 L 384.7809853791607,43.216711464259454 L 385.5915841375503,65.55259654645997 L 385.87979749057,71.506411570889 L 365.9819859139668,72.30556087378305 L 365.6604650665735,65.74912292612869 L 362.41161377261835,65.8896998924492 L 360.83736542957934,26.788741146476607 L 354.41711022449766,27.086768338888707 L 354.1371005812704,20.579968961285665 z" id="c53051"/>
		<path d="M 163.12127017119985,160.25642041039058 L 167.14048346227662,148.00541185834567 L 167.1549133561654,147.98698022280027 L 172.22730426658416,147.92698510932797 L 181.97384010385417,155.3044123792902 L 185.21573418288028,161.29425543843755 L 205.37568030588045,161.23185674943403 L 205.42234110853298,167.71156527112413 L 211.88004400796575,167.7581619201939 L 211.83559688792647,174.28050683649633 L 239.53755861831422,174.1290019231491 L 243.18631943768258,181.51799208614744 L 244.7462238145756,182.2356668905979 L 245.72501501882726,226.31263835537436 L 196.82941586950898,226.61847130370492 L 159.14389685615774,226.23304487846772 L 159.37503125669915,200.3997230216032 L 166.05374562714795,200.30533991112407 L 163.15333239709165,189.49950886786328 L 168.30279740149876,176.2088491660278 L 163.0996912991457,170.74539578696087 L 159.66219118178026,164.0384968829077 L 163.12127017119985,160.25642041039058 z" id="c53077"/>
		<path d="M 328.45962427814584,172.3628957733389 L 330.45239472703753,171.9429352140717 L 340.3628781739362,168.13547902991064 L 342.89530410246726,158.28482575582882 L 341.84521928703805,132.36204966803984 L 348.8545560614837,132.1201739153003 L 388.8392640682891,130.42292154134392 L 389.2422821221871,138.2564770756898 L 389.34396078281134,140.31478955811215 L 391.51192345121126,184.2008543686264 L 391.77085553126403,189.44233038643532 L 392.1017550464094,192.85815943788438 L 383.1956680740308,193.46775791985232 L 382.0497735177043,190.62630441078628 L 380.4065383072397,184.47980900452612 L 373.5268710668308,179.56565032821896 L 369.0104522311176,173.38545620557272 L 362.2345248611537,175.7105781818945 L 354.78386557292527,174.36177918483452 L 349.26124287553614,179.83028572688232 L 347.80445772088956,182.32543157622445 L 333.2478444337268,185.63994057785544 L 330.55566888290554,183.19530369701351 L 328.45962427814584,172.3628957733389 z" id="c53075"/>
		<path d="M 194.25628914938147,4.5293269424779545 L 200.91938649167068,4.555320649687056 L 217.7289046678648,4.453843501215812 L 236.24910586493718,4.3953071878185686 L 263.085973226292,3.9470473880391497 L 279.16220650983195,3.62555114153307 L 293.7503905235332,3.2715495664277405 L 294.40544980254356,29.264111819842718 L 292.78378249756304,29.309072915894145 L 293.11913076681896,42.22742695452501 L 294.39727473764725,42.18610800354375 L 295.30694442203253,81.06498654419651 L 295.0066195503808,81.49096518001588 L 290.3403658675565,82.78109149454414 L 288.9088851662357,82.73091773188763 L 288.4353032391295,81.34546243536674 L 289.9155609822775,77.0418753635951 L 287.2345381929052,75.27673801968122 L 284.36690366877417,68.31030118127906 L 279.63126174285594,67.7342556640173 L 274.38378231630776,71.1507295089547 L 272.2664586581924,70.18348932250164 L 270.10483080550324,75.18328672606964 L 265.40292973724195,73.22595291204114 L 261.3327423872961,74.35384459235402 L 254.6203228736336,79.14511292135893 L 252.5081556241703,76.7879397886849 L 253.6671721731761,73.53048973020562 L 248.3634618790902,71.43222705857207 L 242.34448588973956,75.5752813013521 L 243.67393482615986,82.28170182012866 L 233.79420464429617,81.94646531608669 L 229.87190945598667,74.59379168719248 L 226.3434692507961,73.56113897161298 L 218.8542079557503,67.72190291020013 L 219.58734275360567,64.53441345921505 L 211.42938611909972,56.29624883541609 L 207.67528287320198,55.65112903927372 L 208.81322841528333,52.50156581897091 L 204.31956967381802,49.73154755442883 L 204.17763206487777,39.31595489626755 L 201.69717512514475,39.72247405642413 L 202.366495056304,36.410609865351965 L 197.3948443226003,32.70874226459651 L 199.20337000814212,30.31424810584758 L 203.96708390370685,25.252511858470903 L 200.01022890134112,20.595632575674642 L 200.01002151606866,14.750090868804044 L 194.25628914938147,4.5293269424779545 z" id="c53047"/>
		<path d="M 108.37483131440659,123.42560666582281 L 113.27765526088157,113.07239048083694 L 113.99763690405406,95.4432701243299 L 119.60337702209002,95.56792542751457 L 122.44427543890384,95.66421912649366 L 123.82243605430622,95.69978088679919 L 180.69834293747866,96.1036326646099 L 183.37252160086746,101.089621920654 L 180.5500918206575,103.21026825866896 L 180.93215908781124,109.80898629685858 L 177.95158858125387,110.3397873839303 L 165.7459688711609,122.68635880230018 L 162.98598413509032,127.92638632657332 L 164.82151941690134,132.84389808771397 L 169.2228453097659,133.46173848146702 L 167.97133981965638,137.70763766922562 L 171.38712827797988,143.43290491105796 L 167.1549133561654,147.98698022280027 L 167.14048346227662,148.00541185834567 L 156.8260756977944,145.5624533914931 L 154.32719133873653,142.92114194903553 L 145.87644738068923,141.35774483050292 L 138.60524006571072,143.83681869091913 L 130.64216824174284,139.4927769029655 L 128.20551390328507,134.75810951009316 L 123.83762892478309,134.68038502306575 L 118.63654495604347,134.59555662521436 L 118.45311533953478,134.57479540582764 L 117.68111218771396,133.3402724473958 L 113.34572302553596,128.75880291374997 L 109.60580233536567,129.73705631876544 L 108.23448472658384,128.37709322998373 L 108.37483131440659,123.42560666582281 z" id="c53033"/>
		<path d="M 329.873515297286,182.88522704486564 L 330.55566888290554,183.19530369701351 L 333.2478444337268,185.63994057785544 L 347.80445772088956,182.32543157622445 L 349.26124287553614,179.83028572688232 L 349.1131898889266,191.4016118801631 L 355.64124095837894,191.0850889679619 L 359.28379396431336,200.98680731552096 L 362.5553994324707,200.78900046248722 L 364.06546546341974,226.24517177513647 L 358.0814244414389,226.40894304979784 L 344.50037201494945,226.91339251678562 L 343.49073481033935,226.94906073200272 L 343.2026714853455,211.37418455718267 L 336.68512540363133,211.58353215504206 L 336.4799575568319,205.0268403671498 L 329.94283258700665,205.28176611788513 L 329.873515297286,182.88522704486564 z" id="c53013"/>
		<path d="M 16.33540307181689,110.52764213796071 L 31.867216497161813,112.33506501519597 L 59.334575141153394,113.44673657351957 L 58.70508489288485,132.88373252187654 L 59.07056701039684,146.10199582427143 L 73.78092041758615,146.4011985784493 L 75.80856606091227,153.15842842154203 L 75.31619138129146,165.80884005262754 L 75.2350220442065,168.34219904944493 L 65.40693061344008,168.02324107482818 L 64.39606477960866,168.09363425659697 L 27.02067397271751,166.53738797743685 L 26.84508922357693,165.28534475454418 L 25.246618092227827,158.09110004102916 L 23.162491709170972,156.43701776950292 L 23.948923747764137,151.35255171931425 L 23.486498433726652,139.06378336676784 L 23.16363071713497,137.83739991066463 L 21.47145506071293,129.2543988864033 L 17.468600901169168,123.94730994120354 L 16.33540307181689,110.52764213796071 z" id="c53027"/>
		<path d="M 4.442620928076994,83.89471585359192 L 60.28123259671187,86.19884025422999 L 88.34053388418046,88.14242429345347 L 88.74897846851775,73.266526603736 L 91.37393849799653,73.33744908021562 L 90.77475428813631,69.97014323983554 L 94.7166413120113,68.22757243785166 L 98.38493546873735,67.65809518347257 L 101.4237973055807,70.7457166591968 L 101.09574248744208,77.26749143834638 L 101.04468197375327,80.50324249180777 L 103.48276063745352,84.46410464832444 L 104.34153938031255,84.33041277296735 L 106.21619434568866,87.43132744347243 L 99.6619449350711,94.37849143059061 L 96.34643961742083,102.92060077117526 L 87.72942049790318,107.68021060022024 L 59.56096835054271,106.9303998979786 L 59.334575141153394,113.44673657351957 L 31.867216497161813,112.33506501519597 L 16.33540307181689,110.52764213796071 L 16.25840818240261,109.61069384345511 L 13.916333755646473,98.57357904698004 L 11.169693163933054,92.75783412782879 L 7.974658444301469,87.34240925474613 L 4.442620928076994,83.89471585359192 z" id="c53031"/>
		<path d="M 73.78092041758615,146.4011985784493 L 78.84825218676804,146.53818540888912 L 80.29624897995788,146.1621393448914 L 80.39662477114823,145.0091861471312 L 81.08288537140237,144.4448699008049 L 82.44059843362758,144.40767473166198 L 83.41771328299697,143.7786118627479 L 83.71171134475867,142.32062804932465 L 84.13904960741883,141.73398530553635 L 85.86481954213413,141.01489082597618 L 86.71662018977,140.39455682561453 L 87.04392521911902,139.23723935290423 L 87.60211040257724,138.96609787522814 L 89.26902053081045,141.41897414988097 L 93.52767049797066,138.76609137542482 L 96.55081575074499,142.81394463361252 L 99.92040352078342,146.05741578335738 L 101.40476808727463,153.29699955523685 L 106.38968091646953,158.64864461015677 L 109.75195713693918,160.84214866615963 L 109.84789407592177,163.6402377550025 L 119.43834683838305,166.82590293604318 L 121.29059532575943,171.56248583277807 L 124.52456148177431,171.8023243055232 L 75.15255838450247,170.52081428391153 L 75.2350220442065,168.34219904944493 L 75.31619138129146,165.80884005262754 L 75.80856606091227,153.15842842154203 L 73.78092041758615,146.4011985784493 z" id="c53067"/>
		<path d="M 96.8606321098183,7.704548746422701 L 100.1191318820208,3.208410519880573 L 125.14810083961258,3.7417456928555595 L 132.68748539632526,3.89929649201325 L 149.822429004024,4.498667003121762 L 167.39041172848795,4.483569535426748 L 180.69011866603688,4.440295631237948 L 194.25628914938147,4.5293269424779545 L 200.01002151606866,14.750090868804044 L 200.01022890134112,20.595632575674642 L 203.96708390370685,25.252511858470903 L 199.20337000814212,30.31424810584758 L 191.42343255060254,31.522897996215686 L 158.8134042734211,31.244786154119296 L 126.40635473404019,30.54778003802083 L 112.202974184409,30.29399583617286 L 108.973786952302,31.379157008159908 L 106.88518626595422,31.61973550614853 L 103.75807678113284,30.103163001205004 L 101.96832752291365,24.284263526700695 L 101.60166057015095,19.24862715146532 L 101.07446809251495,15.564394232641892 L 98.1140667003694,12.109232763845132 L 96.8606321098183,7.704548746422701 z" id="c53073"/>
		<path d="M 59.56096835054271,106.9303998979786 L 87.72942049790318,107.68021060022024 L 83.09172257392734,114.01069821461209 L 95.15366861693322,114.3250300616814 L 94.92003697409318,123.08785120067745 L 91.9966844085694,134.0543892191567 L 93.52767049797066,138.76609137542482 L 89.26902053081045,141.41897414988097 L 87.60211040257724,138.96609787522814 L 87.04392521911902,139.23723935290423 L 86.71662018977,140.39455682561453 L 85.86481954213413,141.01489082597618 L 84.13904960741883,141.73398530553635 L 83.71171134475867,142.32062804932465 L 83.41771328299697,143.7786118627479 L 82.44059843362758,144.40767473166198 L 81.08288537140237,144.4448699008049 L 80.39662477114823,145.0091861471312 L 80.29624897995788,146.1621393448914 L 78.84825218676804,146.53818540888912 L 73.78092041758615,146.4011985784493 L 59.07056701039684,146.10199582427143 L 58.70508489288485,132.88373252187654 L 59.334575141153394,113.44673657351957 L 59.56096835054271,106.9303998979786 z" id="c53045"/>
		<path d="M 71.33215006243296,198.83697218783604 L 122.05464578198352,200.10618782132306 L 121.34408154203152,224.9777482303823 L 115.35294566902874,232.14079399644706 L 109.1566107378767,229.67281254422414 L 99.60682691276136,233.95898745783217 L 96.36544025228265,233.49624944045618 L 96.24784225419752,238.17514591354438 L 92.62864070805578,239.5787081853003 L 92.82089346418061,238.33024949340745 L 91.51941921791261,234.91612544371384 L 91.4823237640949,231.2915907759933 L 89.38158885828281,227.22102039411124 L 87.0141903067802,221.95734880490764 L 84.00051359058277,220.29209450763713 L 81.89342906408683,218.05530888398997 L 76.1834431475068,214.02728086748948 L 73.56000587653521,213.67038726571133 L 71.11772930041133,214.93791265704047 L 71.33215006243296,198.83697218783604 z" id="c53015"/>
		<path d="M 244.7462238145756,182.2356668905979 L 257.933944587502,180.60091904218245 L 263.3642366463973,174.49952555521364 L 266.43200136562746,178.08148448231248 L 269.1139156503466,183.00108985678372 L 276.1157571105684,189.75006758457133 L 276.8032861394255,208.4054051772924 L 288.5404987175743,214.14923454014374 L 292.11937043173924,218.05411084900194 L 294.0650263130036,226.41511511667574 L 291.71562239451765,228.55400946790206 L 287.9047999419261,231.7424196706123 L 284.56352860388756,233.74511596526645 L 277.6914701874457,233.36115964529398 L 272.1024981575617,234.8472202353863 L 268.5657977249422,235.5434982187945 L 265.6574401708278,236.11357843532284 L 261.24562868131744,234.75075201860645 L 259.73562749305154,235.21627321258566 L 256.175250677137,239.97978090803207 L 249.22119466377538,240.779869070777 L 245.79425600236326,241.52272550854704 L 245.72501501882726,226.31263835537436 L 244.7462238145756,182.2356668905979 z" id="c53005"/>
		<path d="M 154.44479361883836,226.1816973942746 L 159.14389685615774,226.23304487846772 L 196.82941586950898,226.61847130370492 L 245.72501501882726,226.31263835537436 L 245.79425600236326,241.52272550854704 L 240.68601447985216,242.62415299404483 L 238.9246069247939,243.59552132740689 L 235.2361521367514,245.625632162164 L 231.5049230402889,246.56175576851535 L 227.8879477687302,250.13607679190613 L 224.13646119872598,250.5175977144113 L 217.74112450679038,252.2099870700819 L 213.29140921160075,252.18257932015982 L 212.38049697935205,252.17636541475008 L 207.88238790291305,248.70233988847724 L 205.58042253882488,248.76147674203895 L 202.7253889425363,251.0199037366661 L 193.97897576531267,254.3525899024201 L 191.87723564762766,256.4984959255875 L 190.91083240104027,256.11316239305285 L 189.32992939809196,255.4821570490918 L 181.90721086128517,256.1067067686486 L 179.93601911233017,258.4890764929422 L 176.6852318488715,259.19824068038923 L 175.02648877143264,254.3257923897282 L 168.62271764923983,251.75813971075328 L 164.10247593792985,252.54870559607693 L 163.20570906984804,252.16007334623788 L 158.84013583420355,250.26427792220645 L 154.4028958995072,245.81658830072783 L 154.44479361883836,226.1816973942746 z" id="c53039"/>
		<path d="M 180.80902994299174,79.80876760345924 L 179.05575938766637,76.60609981003623 L 185.97196362354566,73.99476373361924 L 191.4353211998812,67.37146456848934 L 186.72656654461716,57.397098221108266 L 183.23011474030054,55.75252290271453 L 184.36031405552345,43.179131508664966 L 195.62247852252472,38.71935830303467 L 201.69717512514475,39.72247405642413 L 204.17763206487777,39.31595489626755 L 204.31956967381802,49.73154755442883 L 208.81322841528333,52.50156581897091 L 207.67528287320198,55.65112903927372 L 211.42938611909972,56.29624883541609 L 219.58734275360567,64.53441345921505 L 218.8542079557503,67.72190291020013 L 226.3434692507961,73.56113897161298 L 229.87190945598667,74.59379168719248 L 233.79420464429617,81.94646531608669 L 243.67393482615986,82.28170182012866 L 237.66685064901725,95.65690085189445 L 226.7289224217952,98.3718100236592 L 227.29338191176564,103.32554609512518 L 221.44384932192924,119.20186850224903 L 221.38033200120304,120.27716297953819 L 221.69674884049408,121.15293504055683 L 221.87645934334026,122.11965903657607 L 222.5014300071247,123.5565378894404 L 222.67240215540073,124.48382121509219 L 223.01499859451883,125.05586812389575 L 224.35718373806966,125.73784954278644 L 233.2557036674968,129.03438536949497 L 232.89524991749093,134.79941898540446 L 217.8413045080307,135.0069726684435 L 210.60190775775624,129.53512131001432 L 203.7720115095666,128.8824819284021 L 196.6870946805212,122.91053839913981 L 190.85923845459797,122.4411038700986 L 186.85718021157584,115.73438244667406 L 182.88021053069153,113.29690467719695 L 180.93215908781124,109.80898629685858 L 180.5500918206575,103.21026825866896 L 183.37252160086746,101.089621920654 L 180.69834293747866,96.1036326646099 L 183.16168540555026,92.60919731428066 L 177.6233970630156,87.1741957606558 L 180.80902994299174,79.80876760345924 z" id="c53007"/>
		<path d="M 162.98598413509032,127.92638632657332 L 165.7459688711609,122.68635880230018 L 177.95158858125387,110.3397873839303 L 180.93215908781124,109.80898629685858 L 182.88021053069153,113.29690467719695 L 186.85718021157584,115.73438244667406 L 190.85923845459797,122.4411038700986 L 196.6870946805212,122.91053839913981 L 203.7720115095666,128.8824819284021 L 210.60190775775624,129.53512131001432 L 217.8413045080307,135.0069726684435 L 232.89524991749093,134.79941898540446 L 233.86648684873302,137.51090164247108 L 237.39248167813952,137.90721398380316 L 237.7246973367805,144.95575970206463 L 235.67593710889662,148.93190411660456 L 239.71915553756088,158.62077046818456 L 241.83579560386153,169.5009874485566 L 239.53755861831422,174.1290019231491 L 211.83559688792647,174.28050683649633 L 211.88004400796575,167.7581619201939 L 205.42234110853298,167.71156527112413 L 205.37568030588045,161.23185674943403 L 185.21573418288028,161.29425543843755 L 181.97384010385417,155.3044123792902 L 172.22730426658416,147.92698510932797 L 167.1549133561654,147.98698022280027 L 171.38712827797988,143.43290491105796 L 167.97133981965638,137.70763766922562 L 169.2228453097659,133.46173848146702 L 164.82151941690134,132.84389808771397 L 162.98598413509032,127.92638632657332 z" id="c53037"/>
		<path d="M 317.567889622999,75.53093685780694 L 323.84307632447144,74.43513748383809 L 325.9066670178212,72.51018147918914 L 324.9583562640154,67.36394952710782 L 327.7691930205957,65.3439289487197 L 327.47218857226477,61.37472090580872 L 330.0064141404898,57.75334675220414 L 328.1431978517311,53.34753000306712 L 326.2111672693903,42.09073008271284 L 328.912240114175,38.22268592619329 L 330.7880836876504,28.174397032950246 L 329.1669061637689,18.9085561516045 L 325.8070163490923,14.288708019356315 L 324.2663323324971,7.103943507919767 L 325.3041468529075,2.3140841569569446 L 334.94415474248035,1.9692397607404082 L 354.42085072108006,1.1718365833895716 L 363.17297312379117,0.8349082021426096 L 363.40872742011965,6.619855466243871 L 360.02006780410574,6.768960132593129 L 360.32330408850515,13.235904560407823 L 357.08873845848296,13.391985497884914 L 357.38977304037996,20.418521366537476 L 354.1371005812704,20.579968961285665 L 354.41711022449766,27.086768338888707 L 360.83736542957934,26.788741146476607 L 362.41161377261835,65.8896998924492 L 365.6604650665735,65.74912292612869 L 365.9819859139668,72.30556087378305 L 361.0405397639657,72.47766222381516 L 361.85489287885514,91.46800453448996 L 353.45648753784343,87.17663305776237 L 347.3307901299718,89.71203011837103 L 344.2122447257685,88.20235541480923 L 334.4109796003403,92.12708694004046 L 327.2620724677018,81.45797405864738 L 325.56486250465247,81.6572490323826 L 320.906136022939,85.5113647784069 L 320.3249992557097,79.7145024195325 L 317.567889622999,75.53093685780694 z" id="c53065"/>
		<path d="M 349.26124287553614,179.83028572688232 L 354.78386557292527,174.36177918483452 L 362.2345248611537,175.7105781818945 L 369.0104522311176,173.38545620557272 L 373.5268710668308,179.56565032821896 L 380.4065383072397,184.47980900452612 L 382.0497735177043,190.62630441078628 L 382.19374323882624,194.44653454024763 L 372.407164879582,197.00917158193639 L 373.26876383003844,216.5923278157368 L 370.1138209582787,216.72827767578215 L 370.52329217301406,226.05844182271673 L 364.06546546341974,226.24517177513647 L 362.5553994324707,200.78900046248722 L 359.28379396431336,200.98680731552096 L 355.64124095837894,191.0850889679619 L 349.1131898889266,191.4016118801631 L 349.26124287553614,179.83028572688232 z" id="c53023"/>
		<path d="M 0.6770165269539434,45.733049224433834 L 4.318478720846001,45.56411400279044 L 9.524755835758501,48.606240682654835 L 17.549051748806068,54.16065583496946 L 23.986292083189277,55.94891722831707 L 31.29726929438834,59.8636811684592 L 33.731776884234314,62.905612504572645 L 42.23894541327457,64.53818959279278 L 49.836781474059094,64.66803775828728 L 52.66045283857264,64.77967364824477 L 58.716558500335644,65.84936832096128 L 64.12541317602198,68.07306705904885 L 70.49653345541137,69.07470249547163 L 74.29638783452266,68.85816188557938 L 79.16461440570572,64.67379904285396 L 82.98557670573946,68.95105898820789 L 86.04005370945542,71.28695934338735 L 88.97167865113701,70.76534635243277 L 90.77475428813631,69.97014323983554 L 91.37393849799653,73.33744908021562 L 88.74897846851775,73.266526603736 L 88.34053388418046,88.14242429345347 L 60.28123259671187,86.19884025422999 L 4.442620928076994,83.89471585359192 L 3.84461931835795,83.31005733600875 L 1.7658270963992972,77.46338899694395 L 1.4316836475378738,71.07393748671299 L 1.5314772985103702,67.36608385830128 L 0.0,63.192204011616205 L 1.8216208332703059,58.283127532021616 L 3.1659923917300086,52.59463565087649 L 0.6770165269539434,45.733049224433834 z" id="c53009"/>
	</g>
</svg>