<?xml version="1.0" encoding="UTF-8"?>
<svg baseProfile="full" fill="#d0d0d0" height="355.16465109625744" stroke="#ffffff" stroke-width="1" version="1.1" width="400.0" xmlns="http://www.w3.org/2000/svg" xmlns:ev="http://www.w3.org/2001/xml-events" xmlns:xlink="http://www.w3.org/1999/xlink">
	<defs/>
	<g id="counties"><path d="M 196.47072108750868,197.02400018753332 L 205.4770874686164,196.877246181783 L 208.9510647568143,175.98550541743754 L 224.28676401218388,173.3517721005993 L 230.0958338988852,158.5874360342722 L 233.25787211135852,166.73963579673247 L 255.68456544665264,173.2388172453715 L 267.9344807528483,174.33712297901096 L 268.5679819613196,175.06301400551573 L 254.81461614626022,181.8748252112419 L 255.57627401124574,193.4328614145473 L 246.0731273078265,205.5236526600968 L 236.92530962639768,203.9058612746488 L 233.90801580898852,197.64575570480747 L 226.77171758018594,217.24689096806486 L 213.18177631011716,226.69594832887648 L 206.03015653086658,225.1165187171563 L 195.45804742108268,233.91552456941974 L 200.6001905534438,219.73571668420416 L 192.91110715122835,202.07206538067413 L 196.47072108750868,197.02400018753332 z" id="c54083"/>
		<path d="M 87.80966099696421,165.98902101923073 L 100.73020024014201,154.90323349682842 L 111.0938344831244,149.9357068932368 L 108.53794238552318,153.3104762749654 L 114.67218459351915,165.66262858695762 L 121.74978488290233,166.2363067649347 L 112.62961590535981,175.85325508068775 L 112.12148564361915,178.07332448514077 L 106.76762252121983,179.96315538811933 L 98.41402396045011,175.00759712607478 L 93.94189078593632,177.37338000097876 L 91.75014405733243,168.23243712166072 L 87.80966099696421,165.98902101923073 z" id="c54105"/>
		<path d="M 286.1075522082793,189.98411767159251 L 293.1523662816223,178.12691038925308 L 289.6278307666826,166.61703436401018 L 298.3967857895908,145.86281513757075 L 327.2938206584724,158.00816953958557 L 332.3170928629977,156.61410599698996 L 336.6646977130847,161.01369997088253 L 334.75176857687137,164.75926283984182 L 332.41518983082955,169.32833972417623 L 327.68291948141746,172.11851217326628 L 322.77937457564343,178.0595132531634 L 315.41065535234185,181.45627644317935 L 311.53424657074504,188.0042079186412 L 307.6761611584026,195.09316405002212 L 297.08327961290263,187.15490802086927 L 295.15379858648595,191.4710590061634 L 292.3936233567817,195.34834470327888 L 286.1075522082793,189.98411767159251 z" id="c54031"/>
		<path d="M 129.62789324351138,116.62223901405528 L 132.78176630803256,113.72757917846815 L 140.42066899373003,106.70117629232625 L 148.23392778621943,107.42855895383506 L 157.10043328125857,118.93254850573126 L 166.3351925374543,123.33011455721874 L 158.68359868142397,125.32091873490768 L 144.339484372299,139.23288480991104 L 143.2093399254574,130.50949671204881 L 134.82969555249085,133.19847020068346 L 133.2550271517594,121.03841230812718 L 125.88511769380396,121.95272803631293 L 129.62789324351138,116.62223901405528 z" id="c54095"/>
		<path d="M 229.05002643819404,157.00521255512197 L 231.379735511532,146.67837576156703 L 241.2779408052653,142.46133305790545 L 257.43140486185666,150.42042332184457 L 272.03106684604745,148.91896732825762 L 268.0922964083446,161.6677730641932 L 272.73310830101315,163.0397700980033 L 267.9344807528483,174.33712297901096 L 255.68456544665264,173.2388172453715 L 233.25787211135852,166.73963579673247 L 230.0958338988852,158.5874360342722 L 229.05002643819404,157.00521255512197 z" id="c54093"/>
		<path d="M 110.7654939756812,224.04334974309995 L 118.201126890254,218.41160581704037 L 123.43944429908237,214.52896897910574 L 127.36047900067987,209.81776795911637 L 131.69840278303323,204.09145484804705 L 141.16584163104133,215.04961645680785 L 143.68866709638547,220.98638219711825 L 148.85152925621512,224.02318123418422 L 141.07986915820092,230.52831157825892 L 114.62889944280053,245.757064973786 L 110.7654939756812,224.04334974309995 z" id="c54015"/>
		<path d="M 224.2261964226607,120.54075929162029 L 233.16304065726118,105.84530677813552 L 235.2407725772717,95.77855687163408 L 258.26672896173153,95.77800615370913 L 257.8131385026989,115.44632807638473 L 257.65520677585124,134.9063452651299 L 257.45564068769306,149.27240147256015 L 257.43140486185666,150.42042332184457 L 241.2779408052653,142.46133305790545 L 231.379735511532,146.67837576156703 L 226.3804503985061,140.01402055929913 L 224.48112997059386,139.4798153440203 L 224.61160079685044,125.35660565601182 L 224.2261964226607,120.54075929162029 z" id="c54077"/>
		<path d="M 146.60028587075217,90.52972984724622 L 150.26120217560373,86.68583590641185 L 150.3872313132644,81.90288487958192 L 150.4586951978339,81.60551938215428 L 152.16659681042037,74.49167663592978 L 155.32433098145142,71.26619836603156 L 157.3002103279035,69.15996841041373 L 157.5424517160845,62.64546163525742 L 175.0130596735864,64.6445698610124 L 174.94593144309226,70.27438621722925 L 174.64770114998606,95.28071736884186 L 149.289615456736,95.17177479941121 L 146.60028587075217,90.52972984724622 z" id="c54051"/>
		<path d="M 339.95749226040596,115.55537285258374 L 341.742705165453,111.63603310533983 L 346.1051616646452,105.48438435137514 L 350.1257198431146,104.7808653725471 L 351.70862267812674,104.5032369983148 L 358.7301166916093,101.51169168779809 L 370.1724794688173,100.0639286222687 L 374.6423364479213,105.23823068141816 L 365.74608160091395,108.16830186969072 L 358.79870849350397,129.36736022770512 L 349.1941166972842,121.67147710218322 L 340.23316862877465,117.11905584142318 L 339.3686589776514,115.53751756851052 L 339.95749226040596,115.55537285258374 z" id="c54065"/>
		<path d="M 176.16371075332125,111.71515417834595 L 181.4962693712374,103.88301427929105 L 184.4671044772246,104.11525194037773 L 188.32354849361076,106.81989210401937 L 203.8997722430171,107.07869392815418 L 221.06165464796848,123.58747294340974 L 209.06485568318698,130.3989803683017 L 200.21017609740633,129.6117317143293 L 193.41750948060294,125.1667369256271 L 176.38377935230147,121.4517595841855 L 176.16371075332125,111.71515417834595 z" id="c54049"/>
		<path d="M 173.2171115134059,132.7858224485337 L 172.27562296493855,125.60908663433963 L 176.38377935230147,121.4517595841855 L 193.41750948060294,125.1667369256271 L 200.21017609740633,129.6117317143293 L 199.93241313037012,142.33079367162404 L 202.5836230838638,145.300997833486 L 197.8162041346218,152.66915896506384 L 197.56634923595695,158.70960901125437 L 191.64957952579468,159.5872059573054 L 169.26877139532638,152.72193765630124 L 167.7878421965707,152.77069250815418 L 173.26761910458148,149.86145544147584 L 167.33506716360887,139.8901583841616 L 173.2171115134059,132.7858224485337 z" id="c54033"/>
		<path d="M 134.36050184530757,185.6296620874779 L 132.14507052560046,168.604838107822 L 134.65643811666195,168.64717709368037 L 150.17251188224236,158.52360694209364 L 157.00049851674325,160.04530185402936 L 157.8091798342508,169.11758535024907 L 166.66990744164207,180.06032243444466 L 161.44844797200926,181.18632921586777 L 135.58810651482955,198.9575157435898 L 130.25263294798398,192.4177002907932 L 134.36050184530757,185.6296620874779 z" id="c54021"/>
		<path d="M 56.56830259201457,269.1735270143788 L 55.128866640533914,259.4175033042864 L 61.28848483745104,257.67939090534065 L 65.19906993797628,250.2633976955211 L 80.75884895001391,249.4888004746411 L 90.9936008745754,260.98692602231375 L 95.56771412243302,274.07945344801345 L 85.98212689935883,280.0564025474394 L 90.37770673234486,294.3376279948314 L 85.17654983746351,297.11805404743166 L 82.68265754817045,294.4210245700966 L 73.29177960418517,292.0337617537703 L 68.39540387324129,278.72625091586735 L 52.536034370474404,273.100456928035 L 56.56830259201457,269.1735270143788 z" id="c54005"/>
		<path d="M 114.62889944280053,245.757064973786 L 141.07986915820092,230.52831157825892 L 148.85152925621512,224.02318123418422 L 143.68866709638547,220.98638219711825 L 151.60122848583774,215.84800854765325 L 162.51757238651737,219.2217870615969 L 160.24246796493716,221.59123058584368 L 164.35454300806657,237.1295567838592 L 179.71582983645038,246.34781058791737 L 156.90050000130856,265.62295064312235 L 142.96589783526983,262.8947722361192 L 135.99838139311453,251.12690007393803 L 127.70995874798969,251.56646820192987 L 114.61195781018718,245.77772112446453 L 114.62889944280053,245.757064973786 z" id="c54067"/>
		<path d="M 47.45015066171381,208.38768263912982 L 56.450027927000065,203.51021201300688 L 71.40364421394644,201.46382082991406 L 74.0719593003282,202.10448208974293 L 77.49032665023009,207.26800825115677 L 72.98431042021203,210.83519024093184 L 74.9067665758999,223.68573134779328 L 60.255306040200175,230.4975684494436 L 58.8281606947942,238.04072841178552 L 51.98081242061086,243.97406582818724 L 47.81487990420799,241.42037446693183 L 48.18259193466882,232.67301740399134 L 47.82457050431132,222.2615093611842 L 47.45015066171381,208.38768263912982 z" id="c54079"/>
		<path d="M 143.93246858616126,333.7928959766265 L 160.31190294449684,304.1933391655859 L 160.42380962175758,301.75937108439604 L 177.91709533071594,306.93467357750643 L 182.58138092733716,303.5483057977233 L 191.17804065652786,306.8264632969996 L 190.99223671971464,307.07460011701846 L 196.55190797710299,313.32739379727127 L 196.62701613616747,313.41176575238853 L 191.71382713578862,317.2873662476868 L 190.90815652241525,322.3681614437411 L 181.87766689095847,329.9907086456944 L 176.45995155788088,333.6922494387557 L 176.06975298084407,333.38868381731737 L 169.88959159353908,328.5746740280136 L 159.86226813641014,334.73485807100184 L 151.09156200918957,338.9643409712338 L 145.6700158520517,333.4837404118781 L 143.93246858616126,333.7928959766265 z" id="c54063"/>
		<path d="M 197.8162041346218,152.66915896506384 L 202.5836230838638,145.300997833486 L 214.13232774939732,144.7949875265325 L 224.48112997059386,139.4798153440203 L 226.3804503985061,140.01402055929913 L 231.379735511532,146.67837576156703 L 229.05002643819404,157.00521255512197 L 230.0958338988852,158.5874360342722 L 224.28676401218388,173.3517721005993 L 208.9510647568143,175.98550541743754 L 211.47632849680974,166.83247957127512 L 205.518883643002,166.55794093463123 L 197.56634923595695,158.70960901125437 L 197.8162041346218,152.66915896506384 z" id="c54001"/>
		<path d="M 162.06698177774757,46.76462698777101 L 165.3042895135219,40.13235823511354 L 168.39575021341233,34.70724564801545 L 166.51455049558453,26.20730654245184 L 166.86342882181438,25.203732614009606 L 171.12396046987377,24.7797282337581 L 175.47177193761797,24.842209591519048 L 175.4032376864117,30.818675789735934 L 175.18468991161026,49.766004511506246 L 163.66249593468783,47.62384937930413 L 162.06698177774757,46.76462698777101 z" id="c54009"/>
		<path d="M 101.7579212039917,276.10222972051446 L 106.4480031209172,254.03336766631884 L 114.61195781018718,245.77772112446453 L 127.70995874798969,251.56646820192987 L 135.99838139311453,251.12690007393803 L 142.96589783526983,262.8947722361192 L 152.00937341850812,275.3047140300901 L 148.5845685372446,279.0084190601266 L 153.57097051569443,287.809692621295 L 148.83758905239694,287.3457691915226 L 137.329171449928,292.3421675784064 L 126.87396047663506,286.27176547988626 L 108.63756383898105,284.53300208380284 L 104.52796562973482,275.3701779328421 L 101.7579212039917,276.10222972051446 z" id="c54019"/>
		<path d="M 167.17158672192454,1.8573761292930973 L 170.61222023979875,2.358501132798037 L 175.756632869188,0.0 L 175.56434499243238,16.76928775870974 L 175.47177193761797,24.842209591519048 L 171.12396046987377,24.7797282337581 L 166.86342882181438,25.203732614009606 L 168.7134340684017,19.877144255206883 L 167.43641943074647,12.191419268175084 L 163.89270419008076,5.705203630728571 L 167.17158672192454,1.8573761292930973 z" id="c54029"/>
		<path d="M 162.51757238651737,219.2217870615969 L 174.25035413618264,207.00770038550007 L 178.53352542277844,197.33216725673952 L 183.74848771480134,198.5903617489153 L 189.7933997772457,203.14215007094634 L 192.91110715122835,202.07206538067413 L 200.6001905534438,219.73571668420416 L 195.45804742108268,233.91552456941974 L 186.69823133263242,238.31595531379608 L 185.9352091305391,250.71909743808934 L 179.71582983645038,246.34781058791737 L 164.35454300806657,237.1295567838592 L 160.24246796493716,221.59123058584368 L 162.51757238651737,219.2217870615969 z" id="c54101"/>
		<path d="M 374.59366536044473,140.80476354435598 L 378.33556764671044,136.39515393485124 L 379.96402264283284,131.47773362498165 L 382.8469044286377,129.97325163334284 L 389.4686381892587,123.06311091789874 L 392.27670298244834,117.38316617862742 L 393.35094198305006,119.96166444078796 L 398.1838279541843,127.55731618995556 L 397.80539909141544,132.59947474564663 L 400.0,135.87038403862798 L 395.46143867421364,145.5154944859404 L 393.07222543525006,151.86942212446084 L 391.6040327158401,155.66072989939093 L 391.59214021372486,155.6512446549935 L 374.8279717586803,142.23639325217283 L 374.7999556846143,142.21392897437087 L 374.7998105221439,142.21381257733302 L 374.59366536044473,140.80476354435598 z" id="c54037"/>
		<path d="M 91.90193319777183,179.0161646205192 L 93.94189078593632,177.37338000097876 L 98.41402396045011,175.00759712607478 L 106.76762252121983,179.96315538811933 L 112.12148564361915,178.07332448514077 L 116.6536623543282,185.56339944888063 L 121.32232900580595,206.3793858785836 L 127.36047900067987,209.81776795911637 L 123.43944429908237,214.52896897910574 L 118.201126890254,218.41160581704037 L 95.60726717448138,216.0079716572942 L 91.6439403844139,209.02152264331764 L 89.79214410928647,202.78436754878018 L 91.90193319777183,179.0161646205192 z" id="c54087"/>
		<path d="M 85.98212689935883,280.0564025474394 L 95.56771412243302,274.07945344801345 L 97.01206252044902,276.1157116868537 L 101.7579212039917,276.10222972051446 L 104.52796562973482,275.3701779328421 L 108.63756383898105,284.53300208380284 L 126.87396047663506,286.27176547988626 L 137.329171449928,292.3421675784064 L 142.66614642681068,306.29655851888765 L 136.99696993764204,303.10680359768645 L 126.81421232000037,310.7926609385241 L 124.58439115971859,316.06915047177137 L 115.94330408206585,317.2743879618231 L 113.89154737146144,324.0009951342592 L 106.36045710141921,315.748617416837 L 94.99333376524771,295.16696108695 L 90.37770673234486,294.3376279948314 L 85.98212689935883,280.0564025474394 z" id="c54081"/>
		<path d="M 38.44287962406444,208.07309244965802 L 37.75442788411998,202.74362589798125 L 36.769351129231815,192.24267509612042 L 36.2717042410012,187.83296597479804 L 40.21524863940824,185.6693899917057 L 42.63821259678961,177.33113082142827 L 45.7159908078465,171.6756570237916 L 46.5555295056499,170.13131153882915 L 50.52753355520699,165.89184969086142 L 53.35529873035157,164.75585195595644 L 58.534614510800566,168.66781126039578 L 61.87057165330408,175.3742546680455 L 60.737103570798475,180.91548440720595 L 70.04296637670623,196.00031478892845 L 71.40364421394644,201.46382082991406 L 56.450027927000065,203.51021201300688 L 47.45015066171381,208.38768263912982 L 47.82457050431132,222.2615093611842 L 34.822672773009494,209.70992889460683 L 38.44287962406444,208.07309244965802 z" id="c54053"/>
		<path d="M 74.35025139794223,149.20025001734206 L 76.94542869737306,146.53446759826264 L 77.76128464203877,145.69582398646153 L 80.58744738003574,140.10077028593219 L 85.79072985620653,140.06055485359863 L 89.71829736691943,140.0650854988897 L 90.30014853252932,134.40702481447042 L 94.95062280888328,130.10089317095628 L 98.82309749411236,126.44349938580416 L 102.2891143444419,128.04048666243955 L 103.71868669213237,132.52807401226187 L 105.5987449441869,132.87963008034455 L 106.0822743442382,135.8186592740614 L 115.99035301049113,141.43656109521473 L 114.38613970050845,141.52964607857072 L 111.0938344831244,149.9357068932368 L 100.73020024014201,154.90323349682842 L 87.80966099696421,165.98902101923073 L 76.68403942909431,159.69270963356567 L 74.34144822967237,157.57729088692815 L 74.93964026807765,157.3276954397263 L 74.37769177499247,149.57918658763091 L 74.35025139794223,149.20025001734206 z" id="c54107"/>
		<path d="M 35.21031527835562,273.8196927369688 L 51.94570091820895,269.09592377769013 L 56.56830259201457,269.1735270143788 L 52.536034370474404,273.100456928035 L 68.39540387324129,278.72625091586735 L 73.29177960418517,292.0337617537703 L 82.68265754817045,294.4210245700966 L 69.85727272524183,297.47558538035247 L 74.69740179617332,303.30015805364627 L 66.23853461176218,307.33797693055266 L 55.79003722994142,304.82825409156055 L 50.45463771229005,308.9845122007575 L 43.27103710779401,302.44692734052535 L 41.27612234858902,286.5449342371744 L 35.21031527835562,273.8196927369688 z" id="c54045"/>
		<path d="M 105.5987449441869,132.87963008034455 L 107.43226719108654,133.22198300155011 L 115.4606540623435,128.78946000254746 L 120.62716206394062,124.65682072121183 L 125.28516589235856,122.80628469381257 L 125.88511769380396,121.95272803631293 L 133.2550271517594,121.03841230812718 L 134.82969555249085,133.19847020068346 L 117.53341708708491,137.34831692601458 L 115.99035301049113,141.43656109521473 L 106.0822743442382,135.8186592740614 L 105.5987449441869,132.87963008034455 z" id="c54073"/>
		<path d="M 112.62961590535981,175.85325508068775 L 121.74978488290233,166.2363067649347 L 123.88179895453233,164.76912723978177 L 132.14507052560046,168.604838107822 L 134.36050184530757,185.6296620874779 L 130.25263294798398,192.4177002907932 L 135.58810651482955,198.9575157435898 L 131.69840278303323,204.09145484804705 L 127.36047900067987,209.81776795911637 L 121.32232900580595,206.3793858785836 L 116.6536623543282,185.56339944888063 L 112.12148564361915,178.07332448514077 L 112.62961590535981,175.85325508068775 z" id="c54013"/>
		<path d="M 61.55910520759683,318.8131619316411 L 66.77246608771236,310.36495514152506 L 66.23853461176218,307.33797693055266 L 74.69740179617332,303.30015805364627 L 69.85727272524183,297.47558538035247 L 82.68265754817045,294.4210245700966 L 85.17654983746351,297.11805404743166 L 90.37770673234486,294.3376279948314 L 94.99333376524771,295.16696108695 L 106.36045710141921,315.748617416837 L 113.89154737146144,324.0009951342592 L 106.73037828483605,329.15215003425294 L 107.95607386603578,333.862412132751 L 106.34134190117433,332.77868539382376 L 93.66824239141653,326.2575577586485 L 78.1566908342113,321.8899016277787 L 64.58779938287218,323.2876695348354 L 61.55910520759683,318.8131619316411 z" id="c54109"/>
		<path d="M 157.72189412787867,57.81492614517431 L 160.2795047183933,50.420804949864376 L 160.55966914516915,49.848018344752084 L 162.06698177774757,46.76462698777101 L 163.66249593468783,47.62384937930413 L 175.18468991161026,49.766004511506246 L 175.0130596735864,64.6445698610124 L 157.5424517160845,62.64546163525742 L 157.72189412787867,57.81492614517431 z" id="c54069"/>
		<path d="M 257.45564068769306,149.27240147256015 L 262.50007755137017,146.96348759396363 L 268.1989577687251,141.77783771862056 L 273.84295579885895,138.484786011571 L 275.55923563978064,136.7561901392409 L 285.8836351683584,138.1486887700925 L 298.3967857895908,145.86281513757075 L 289.6278307666826,166.61703436401018 L 293.1523662816223,178.12691038925308 L 286.1075522082793,189.98411767159251 L 268.5679819613196,175.06301400551573 L 267.9344807528483,174.33712297901096 L 272.73310830101315,163.0397700980033 L 268.0922964083446,161.6677730641932 L 272.03106684604745,148.91896732825762 L 257.43140486185666,150.42042332184457 L 257.45564068769306,149.27240147256015 z" id="c54023"/>
		<path d="M 157.00049851674325,160.04530185402936 L 159.20105822127346,160.63597950259143 L 167.7878421965707,152.77069250815418 L 169.26877139532638,152.72193765630124 L 191.64957952579468,159.5872059573054 L 190.11450778160497,174.6534424714236 L 184.39352460171978,183.30591043707375 L 182.45097289373876,194.34473247904424 L 183.74848771480134,198.5903617489153 L 178.53352542277844,197.33216725673952 L 177.2750204257504,187.53205943263734 L 168.42325415701697,184.78585575798533 L 166.66990744164207,180.06032243444466 L 157.8091798342508,169.11758535024907 L 157.00049851674325,160.04530185402936 z" id="c54041"/>
		<path d="M 135.58810651482955,198.9575157435898 L 161.44844797200926,181.18632921586777 L 166.66990744164207,180.06032243444466 L 168.42325415701697,184.78585575798533 L 177.2750204257504,187.53205943263734 L 178.53352542277844,197.33216725673952 L 174.25035413618264,207.00770038550007 L 162.51757238651737,219.2217870615969 L 151.60122848583774,215.84800854765325 L 143.68866709638547,220.98638219711825 L 141.16584163104133,215.04961645680785 L 131.69840278303323,204.09145484804705 L 135.58810651482955,198.9575157435898 z" id="c54007"/>
		<path d="M 35.29685780835137,266.38901718621685 L 28.133584591728326,256.2347102189463 L 29.92647335538905,247.22283984376259 L 33.78905843393262,238.90256449369076 L 48.18259193466882,232.67301740399134 L 47.81487990420799,241.42037446693183 L 51.98081242061086,243.97406582818724 L 58.8281606947942,238.04072841178552 L 67.16252418747776,239.73429489133062 L 65.19906993797628,250.2633976955211 L 61.28848483745104,257.67939090534065 L 55.128866640533914,259.4175033042864 L 56.56830259201457,269.1735270143788 L 51.94570091820895,269.09592377769013 L 35.21031527835562,273.8196927369688 L 25.598535815446912,276.7611819869388 L 35.29685780835137,266.38901718621685 z" id="c54043"/>
		<path d="M 144.339484372299,139.23288480991104 L 158.68359868142397,125.32091873490768 L 166.3351925374543,123.33011455721874 L 169.19748782278631,123.2571804688675 L 172.27562296493855,125.60908663433963 L 173.2171115134059,132.7858224485337 L 167.33506716360887,139.8901583841616 L 173.26761910458148,149.86145544147584 L 167.7878421965707,152.77069250815418 L 159.20105822127346,160.63597950259143 L 157.00049851674325,160.04530185402936 L 150.17251188224236,158.52360694209364 L 142.27980033957283,141.41825259642658 L 144.339484372299,139.23288480991104 z" id="c54017"/>
		<path d="M 283.26481372952975,128.98006836723386 L 289.2871440299884,121.52802256044947 L 291.2090502038467,121.47730796889138 L 293.77012785198303,121.40893217389471 L 300.13878859368845,124.80857025251672 L 301.25144413528847,120.71524690725494 L 308.5673339012688,112.93646552018947 L 314.91742526381563,104.12846308641242 L 317.51920450892135,107.08647153421896 L 320.135066633619,112.65534718685377 L 324.33131427812276,113.8087925438963 L 315.37580626737895,123.97612151802551 L 308.743631466191,136.1124195101007 L 298.3967857895908,145.86281513757075 L 285.8836351683584,138.1486887700925 L 275.55923563978064,136.7561901392409 L 283.26481372952975,128.98006836723386 z" id="c54057"/>
		<path d="M 111.0938344831244,149.9357068932368 L 114.38613970050845,141.52964607857072 L 115.99035301049113,141.43656109521473 L 117.53341708708491,137.34831692601458 L 134.82969555249085,133.19847020068346 L 143.2093399254574,130.50949671204881 L 144.339484372299,139.23288480991104 L 142.27980033957283,141.41825259642658 L 150.17251188224236,158.52360694209364 L 134.65643811666195,168.64717709368037 L 132.14507052560046,168.604838107822 L 123.88179895453233,164.76912723978177 L 121.74978488290233,166.2363067649347 L 114.67218459351915,165.66262858695762 L 108.53794238552318,153.3104762749654 L 111.0938344831244,149.9357068932368 z" id="c54085"/>
		<path d="M 50.62565956908504,328.3489412136029 L 55.1434045601258,322.4818488291553 L 58.59680529889856,321.06669643464346 L 61.55910520759683,318.8131619316411 L 64.58779938287218,323.2876695348354 L 78.1566908342113,321.8899016277787 L 93.66824239141653,326.2575577586485 L 106.34134190117433,332.77868539382376 L 101.93348507461671,341.71033699888466 L 96.32853817647351,348.5204221149782 L 91.66522471519845,350.54000957449773 L 87.49022262413364,353.2723359917003 L 85.16147078982625,354.9601254876219 L 75.34904647451498,355.16465109625744 L 70.42227466571116,351.19496663088904 L 70.01925355866351,350.8699094004872 L 67.55136418258654,347.4489492367634 L 61.33789320463188,346.210196978527 L 57.645747201152936,341.2549791842512 L 54.68866654409114,335.2255893422117 L 54.49766990814604,332.0295560086272 L 50.62565956908504,328.3489412136029 z" id="c54047"/>
		<path d="M 200.21017609740633,129.6117317143293 L 209.06485568318698,130.3989803683017 L 221.06165464796848,123.58747294340974 L 224.61160079685044,125.35660565601182 L 224.48112997059386,139.4798153440203 L 214.13232774939732,144.7949875265325 L 202.5836230838638,145.300997833486 L 199.93241313037012,142.33079367162404 L 200.21017609740633,129.6117317143293 z" id="c54091"/>
		<path d="M 146.7904110336556,101.0025897084739 L 149.73993933292158,95.94837870355691 L 149.289615456736,95.17177479941121 L 174.64770114998606,95.28071736884186 L 182.50272218443718,95.38779138148824 L 183.62022931332686,95.75612626906157 L 184.4671044772246,104.11525194037773 L 181.4962693712374,103.88301427929105 L 176.16371075332125,111.71515417834595 L 176.38377935230147,121.4517595841855 L 172.27562296493855,125.60908663433963 L 169.19748782278631,123.2571804688675 L 166.3351925374543,123.33011455721874 L 157.10043328125857,118.93254850573126 L 148.23392778621943,107.42855895383506 L 140.42066899373003,106.70117629232625 L 146.7904110336556,101.0025897084739 z" id="c54103"/>
		<path d="M 61.87057165330408,175.3742546680455 L 67.68085634623893,173.83435734832372 L 71.95721175970812,170.32486308322723 L 70.69157075013283,164.09979882452882 L 69.62990823872777,159.54084874275628 L 74.34144822967237,157.57729088692815 L 76.68403942909431,159.69270963356567 L 87.80966099696421,165.98902101923073 L 91.75014405733243,168.23243712166072 L 93.94189078593632,177.37338000097876 L 91.90193319777183,179.0161646205192 L 89.79214410928647,202.78436754878018 L 91.6439403844139,209.02152264331764 L 82.48746566332075,214.83948990269332 L 77.49032665023009,207.26800825115677 L 74.0719593003282,202.10448208974293 L 71.40364421394644,201.46382082991406 L 70.04296637670623,196.00031478892845 L 60.737103570798475,180.91548440720595 L 61.87057165330408,175.3742546680455 z" id="c54035"/>
		<path d="M 308.743631466191,136.1124195101007 L 315.37580626737895,123.97612151802551 L 324.33131427812276,113.8087925438963 L 329.522475060698,115.23182324941133 L 339.3686589776514,115.53751756851052 L 340.23316862877465,117.11905584142318 L 349.1941166972842,121.67147710218322 L 350.0716866151037,127.56368970733816 L 349.876703080928,133.34860525237102 L 345.02964154405566,141.37913919359218 L 344.82309099678264,145.4058000174912 L 342.9708166328641,150.70275844606073 L 344.1992389158587,153.67919500035183 L 336.6646977130847,161.01369997088253 L 332.3170928629977,156.61410599698996 L 327.2938206584724,158.00816953958557 L 298.3967857895908,145.86281513757075 L 308.743631466191,136.1124195101007 z" id="c54027"/>
		<path d="M 60.255306040200175,230.4975684494436 L 74.9067665758999,223.68573134779328 L 72.98431042021203,210.83519024093184 L 77.49032665023009,207.26800825115677 L 82.48746566332075,214.83948990269332 L 91.6439403844139,209.02152264331764 L 95.60726717448138,216.0079716572942 L 118.201126890254,218.41160581704037 L 110.7654939756812,224.04334974309995 L 114.62889944280053,245.757064973786 L 114.61195781018718,245.77772112446453 L 106.4480031209172,254.03336766631884 L 101.7579212039917,276.10222972051446 L 97.01206252044902,276.1157116868537 L 95.56771412243302,274.07945344801345 L 90.9936008745754,260.98692602231375 L 80.75884895001391,249.4888004746411 L 65.19906993797628,250.2633976955211 L 67.16252418747776,239.73429489133062 L 58.8281606947942,238.04072841178552 L 60.255306040200175,230.4975684494436 z" id="c54039"/>
		<path d="M 185.9352091305391,250.71909743808934 L 186.69823133263242,238.31595531379608 L 195.45804742108268,233.91552456941974 L 206.03015653086658,225.1165187171563 L 213.18177631011716,226.69594832887648 L 226.77171758018594,217.24689096806486 L 233.90801580898852,197.64575570480747 L 236.92530962639768,203.9058612746488 L 246.0731273078265,205.5236526600968 L 246.68593994187643,210.0314142039977 L 244.2448545001265,213.07054676566796 L 242.59469272018632,221.4412513335973 L 240.79240835152788,226.33307211513173 L 240.90069867070568,229.68823377755672 L 237.21056601849997,237.43847524133201 L 231.51272354690963,241.86698163348842 L 232.85349670808657,246.09041934701781 L 232.07597786292533,246.71412869088826 L 227.69726174243596,250.2231543125394 L 222.279457486652,255.28316044300573 L 220.37533332901637,262.83166721970997 L 218.4598779051587,267.8086619395033 L 201.4259543506021,270.55726589095775 L 193.59185404217519,269.4036441686991 L 185.55791281736325,262.29763867698523 L 185.9352091305391,250.71909743808934 z" id="c54075"/>
		<path d="M 126.81421232000037,310.7926609385241 L 136.99696993764204,303.10680359768645 L 142.66614642681068,306.29655851888765 L 137.329171449928,292.3421675784064 L 148.83758905239694,287.3457691915226 L 160.063489512552,298.5063281653472 L 160.42380962175758,301.75937108439604 L 160.31190294449684,304.1933391655859 L 143.93246858616126,333.7928959766265 L 143.866865170832,333.8045600983858 L 143.1643360133852,332.38273765792655 L 124.58439115971859,316.06915047177137 L 126.81421232000037,310.7926609385241 z" id="c54089"/>
		<path d="M 106.34134190117433,332.77868539382376 L 107.95607386603578,333.862412132751 L 106.73037828483605,329.15215003425294 L 113.89154737146144,324.0009951342592 L 115.94330408206585,317.2743879618231 L 124.58439115971859,316.06915047177137 L 143.1643360133852,332.38273765792655 L 143.866865170832,333.8045600983858 L 143.2852356567888,333.9079454411479 L 141.72809779007488,337.62392245797304 L 145.61186196142313,342.78524349285965 L 138.61550527633628,345.6559870890132 L 133.49602762800717,346.12511321574743 L 132.23507211382935,346.2401123863901 L 122.52114231690372,348.25912851875336 L 113.0950782999988,352.61705252285964 L 101.93348507461671,341.71033699888466 L 106.34134190117433,332.77868539382376 z" id="c54055"/>
		<path d="M 142.96589783526983,262.8947722361192 L 156.90050000130856,265.62295064312235 L 179.71582983645038,246.34781058791737 L 185.9352091305391,250.71909743808934 L 185.55791281736325,262.29763867698523 L 193.59185404217519,269.4036441686991 L 201.4259543506021,270.55726589095775 L 218.4598779051587,267.8086619395033 L 217.689931221938,269.80725310866336 L 212.30335824291566,277.71293018157706 L 210.68347786252966,279.36928746423456 L 204.37771688432582,285.8067142016808 L 198.75479418494442,292.2043181398226 L 197.1541482477951,296.78455096868527 L 193.84077330431415,303.2681507676436 L 191.17804065652786,306.8264632969996 L 182.58138092733716,303.5483057977233 L 177.91709533071594,306.93467357750643 L 160.42380962175758,301.75937108439604 L 160.063489512552,298.5063281653472 L 148.83758905239694,287.3457691915226 L 153.57097051569443,287.809692621295 L 148.5845685372446,279.0084190601266 L 152.00937341850812,275.3047140300901 L 142.96589783526983,262.8947722361192 z" id="c54025"/>
		<path d="M 2.4766183283038368,249.25617687614348 L 3.778108152658895,245.19559342293087 L 4.044105130608697,244.3651778634765 L 5.094554390203117,237.4191512313277 L 3.064372056979021,234.32256536475947 L 3.357806603743586,230.59374323254082 L 3.6913114426888436,226.35314976266736 L 6.324768561168802,228.25885531918362 L 10.582902787200103,227.33185143277655 L 23.70249828796658,239.13058357954984 L 28.471137125311444,237.62006641412094 L 29.92647335538905,247.22283984376259 L 28.133584591728326,256.2347102189463 L 35.29685780835137,266.38901718621685 L 25.598535815446912,276.7611819869388 L 17.32405267099798,284.8891700589156 L 17.691990305919486,286.9628638714265 L 16.125856193609007,283.8650402000952 L 10.61283559931466,279.0487866060779 L 11.3562657174883,276.8300454537625 L 12.674122757282023,272.8938350190675 L 6.041307274037564,263.713341184079 L 0.0,256.0469624163786 L 2.4766183283038368,249.25617687614348 z" id="c54099"/>
		<path d="M 17.32405267099798,284.8891700589156 L 25.598535815446912,276.7611819869388 L 35.21031527835562,273.8196927369688 L 41.27612234858902,286.5449342371744 L 43.27103710779401,302.44692734052535 L 50.45463771229005,308.9845122007575 L 55.79003722994142,304.82825409156055 L 66.23853461176218,307.33797693055266 L 66.77246608771236,310.36495514152506 L 61.55910520759683,318.8131619316411 L 58.59680529889856,321.06669643464346 L 55.1434045601258,322.4818488291553 L 52.23768165340412,319.7175696888278 L 44.3093744510414,318.79728817936746 L 38.086392809874425,313.35318744278743 L 31.283023187354512,307.1299713152361 L 25.610889413738448,303.5175438178807 L 23.779658811153844,297.2464370832408 L 23.282037927430938,295.5402482418214 L 19.90059395915856,291.3263542057133 L 17.691990305919486,286.9628638714265 L 17.32405267099798,284.8891700589156 z" id="c54059"/>
		<path d="M 182.50272218443718,95.38779138148824 L 210.20558742997093,95.60194039017267 L 223.03128434689478,95.70329049663877 L 235.2407725772717,95.77855687163408 L 233.16304065726118,105.84530677813552 L 224.2261964226607,120.54075929162029 L 224.61160079685044,125.35660565601182 L 221.06165464796848,123.58747294340974 L 203.8997722430171,107.07869392815418 L 188.32354849361076,106.81989210401937 L 184.4671044772246,104.11525194037773 L 183.62022931332686,95.75612626906157 L 182.50272218443718,95.38779138148824 z" id="c54061"/>
		<path d="M 246.68593994187643,210.0314142039977 L 246.0731273078265,205.5236526600968 L 255.57627401124574,193.4328614145473 L 254.81461614626022,181.8748252112419 L 268.5679819613196,175.06301400551573 L 286.1075522082793,189.98411767159251 L 292.3936233567817,195.34834470327888 L 289.9231653178136,202.7642973099357 L 289.53875536820215,205.94362477291887 L 284.5602917778653,211.46839869248888 L 280.7492896494643,219.6547595549327 L 278.5647347214544,224.6547924746217 L 278.30552325004425,225.24758280606775 L 272.9195145577606,231.24387470103275 L 271.8129305587224,231.03685358695773 L 266.99059497214563,230.13260092777332 L 258.3027845282774,227.02611302450052 L 252.92355029666732,217.05703056876675 L 244.2448545001265,213.07054676566796 L 246.68593994187643,210.0314142039977 z" id="c54071"/>
		<path d="M 182.45097289373876,194.34473247904424 L 184.39352460171978,183.30591043707375 L 190.11450778160497,174.6534424714236 L 191.64957952579468,159.5872059573054 L 197.56634923595695,158.70960901125437 L 205.518883643002,166.55794093463123 L 211.47632849680974,166.83247957127512 L 208.9510647568143,175.98550541743754 L 205.4770874686164,196.877246181783 L 196.47072108750868,197.02400018753332 L 192.91110715122835,202.07206538067413 L 189.7933997772457,203.14215007094634 L 183.74848771480134,198.5903617489153 L 182.45097289373876,194.34473247904424 z" id="c54097"/>
		<path d="M 358.79870849350397,129.36736022770512 L 365.74608160091395,108.16830186969072 L 374.6423364479213,105.23823068141816 L 376.3536317974068,107.21654090808333 L 382.8280837161548,106.45113030066001 L 390.59172226906145,108.42504930548881 L 391.1968645108266,114.78928035401287 L 392.27670298244834,117.38316617862742 L 389.4686381892587,123.06311091789874 L 382.8469044286377,129.97325163334284 L 379.96402264283284,131.47773362498165 L 378.33556764671044,136.39515393485124 L 374.59366536044473,140.80476354435598 L 374.7998105221439,142.21381257733302 L 362.2038277084339,132.0887984236042 L 358.79870849350397,129.36736022770512 z" id="c54003"/>
		<path d="M 15.679166236552735,226.21880943280067 L 21.037219954190082,225.5821169111979 L 25.801400352099744,224.22840971903096 L 27.56814624062141,219.39621731715357 L 28.668089793302478,212.78345822639463 L 29.638771983276257,210.77946589932824 L 30.323785998008827,209.36454501959923 L 34.822672773009494,209.70992889460683 L 47.82457050431132,222.2615093611842 L 48.18259193466882,232.67301740399134 L 33.78905843393262,238.90256449369076 L 29.92647335538905,247.22283984376259 L 28.471137125311444,237.62006641412094 L 23.70249828796658,239.13058357954984 L 10.582902787200103,227.33185143277655 L 15.679166236552735,226.21880943280067 z" id="c54011"/>
	</g>
</svg>