<?xml version="1.0" encoding="UTF-8"?>
<svg baseProfile="full" fill="#d0d0d0" height="400.0" stroke="#ffffff" stroke-width="1" version="1.1" width="375.2592845816977" xmlns="http://www.w3.org/2000/svg" xmlns:ev="http://www.w3.org/2001/xml-events" xmlns:xlink="http://www.w3.org/1999/xlink">
	<defs/>
	<g id="counties"><path d="M 175.20198006118804,147.06579108897515 L 175.13952349347144,131.85947514314446 L 213.07958482710387,131.71226128048016 L 213.3462106968615,139.45244714345463 L 213.4913471112006,170.006636763644 L 175.10227265197412,170.03403580577017 L 175.20198006118804,147.06579108897515 z" id="c55069"/>
		<path d="M 203.29756538876242,269.8661395103021 L 230.50604114775237,269.59507068678835 L 228.77214628144407,284.5482335951614 L 230.74739103240293,288.6568851676714 L 225.82326835318125,289.21673856012194 L 225.91452943164248,299.4622216535893 L 203.34328922611783,299.661982923993 L 203.29756538876242,269.8661395103021 z" id="c55077"/>
		<path d="M 150.21351090226835,338.4238672143711 L 155.31029296171528,337.6717998276567 L 157.83806190644432,337.9550239934106 L 161.11386826665083,338.7555642062736 L 165.36259345525585,341.68413526979015 L 174.04640898322467,343.3807696696734 L 177.80923642898185,339.0513748184358 L 188.21135244307678,338.0373658255609 L 188.27029880247673,368.6463959958228 L 188.26221990705756,372.474214558935 L 150.22211626194414,372.4943384158574 L 150.21351090226835,338.4238672143711 z" id="c55049"/>
		<path d="M 150.22211626194414,372.4943384158574 L 188.26221990705756,372.474214558935 L 188.36915093111284,399.595930259898 L 182.59483371205897,399.527354889381 L 182.5936546962046,399.527340241967 L 163.31641799974068,399.33588378637336 L 150.11512440957964,399.3346526385596 L 150.22211626194414,372.4943384158574 z" id="c55065"/>
		<path d="M 226.4260446632565,208.32227163083382 L 265.1633657548721,208.07071618716103 L 265.2378105486869,215.77828607165796 L 257.04023142171235,215.90451575366535 L 257.3271544403705,246.38641611250804 L 255.65968722708817,246.40649450352785 L 248.06023702439498,246.58163687496918 L 226.72612553096417,246.76205012241977 L 226.4260446632565,208.32227163083382 z" id="c55135"/>
		<path d="M 318.05484776655754,209.0497952218061 L 318.8299830501592,207.84964314004472 L 319.48439836247303,206.96307001655413 L 342.15373993228684,206.4124247468807 L 340.64212984675777,210.35318820354937 L 337.92618045464974,214.38375453517142 L 335.02449378054246,225.50232802199898 L 332.57176821461707,237.2712525832707 L 318.54765794855354,237.70528244880396 L 318.05484776655754,209.0497952218061 z" id="c55061"/>
		<path d="M 97.80760717733074,291.8183762709139 L 119.85158894625401,292.1411191151905 L 157.9468428085087,291.8885793100555 L 157.90291994614836,299.8312704075537 L 157.95876708617803,307.4677904802011 L 134.9390278456624,307.42812634127205 L 135.04250381979273,318.828418281746 L 102.10104330572479,318.4507356154121 L 100.3560598449861,318.7388756206066 L 99.01530929148328,315.95244846025184 L 100.01224718176204,311.61335910887215 L 99.13280074893311,305.95607142287554 L 97.8972291707534,302.8188925966161 L 96.6919968004279,296.98344514673937 L 97.80760717733074,291.8183762709139 z" id="c55123"/>
		<path d="M 258.62502679376604,90.95080064085148 L 259.96759847154823,93.05851295805317 L 262.7009625671756,92.89489681898789 L 263.83885691495345,90.72325936535435 L 267.93956913858636,90.1508340100669 L 275.1545419561153,93.6272766616914 L 276.95021634616063,92.5408683882533 L 281.33320326577984,95.28696644432735 L 285.19658995499145,94.88761928788841 L 289.40914867155465,96.1888583496321 L 293.2033229278376,98.23649130327583 L 293.29708483619925,98.28703410018998 L 295.9305500723241,102.31960160675797 L 292.2915897156912,107.13827683796755 L 294.1518690769002,109.10241914073578 L 297.1591353216967,110.24876205837674 L 297.1727364903144,116.56413513428176 L 274.6476480566775,116.22955394056255 L 259.2436798673825,116.46291104061696 L 258.3728859700316,90.87342737870463 L 258.62502679376604,90.95080064085148 z" id="c55037"/>
		<path d="M 278.5032104822439,245.94383093208054 L 291.8461418153114,245.85336963517753 L 301.27023725143613,245.7164675644857 L 302.1007422177457,276.3658492696756 L 294.4558138285798,276.56045590312294 L 294.4034210155041,272.50801712950687 L 279.0234306215933,272.78789084188327 L 278.5032104822439,245.94383093208054 z" id="c55015"/>
		<path d="M 279.090686991017,322.65471491043274 L 279.94425239043,307.4179939262786 L 295.2375862265336,307.14584931817956 L 302.92089054496046,307.01721055355114 L 303.3254551942019,322.3386326611334 L 302.19705750634455,337.7882081665446 L 279.4197070818879,338.0552289724849 L 279.090686991017,322.65471491043274 z" id="c55131"/>
		<path d="M 83.15531737429498,78.10211766900021 L 121.39289594050433,78.8984106358815 L 121.18319481183057,94.13767825743894 L 136.3769169732327,94.2437495783939 L 136.01596477897175,124.38276239872872 L 82.96067614943854,123.7156647697804 L 83.15531737429498,78.10211766900021 z" id="c55113"/>
		<path d="M 175.12625961885558,94.38116163047883 L 182.17335801379642,94.37831282874902 L 182.13132089037765,66.45760119479992 L 199.84893970229405,71.33826709879956 L 233.26781874719902,80.32428251776957 L 239.44292667281417,83.93707378181657 L 243.04149861276153,86.03643153158407 L 243.1174034501338,93.92415868908643 L 236.10436068525757,94.00528676733806 L 236.20581777309906,101.6428364503501 L 228.21742523868207,101.38266434183687 L 228.4152217823978,105.13293793272838 L 220.69883868120928,101.26423682173392 L 175.18973263060712,101.8170216423369 L 175.12625961885558,94.38116163047883 z" id="c55125"/>
		<path d="M 157.9378468538336,231.06093392871475 L 158.0144905047887,208.18347908089603 L 180.0705335487714,208.2500666974234 L 187.52706323260364,208.23111337401727 L 187.58031324819038,223.45419504705566 L 194.98004647018738,223.46195766629452 L 195.18273383672562,246.58997340226242 L 183.9503159591794,246.45818729181124 L 172.71823609335192,246.4998707129534 L 158.09073009935622,246.4873373352951 L 157.77249319143533,244.97645276789885 L 157.9378468538336,231.06093392871475 z" id="c55141"/>
		<path d="M 191.52864152771497,299.845887038958 L 203.34328922611783,299.661982923993 L 225.91452943164248,299.4622216535893 L 233.46355644725185,300.38366436246116 L 241.1327900717453,300.17958636121807 L 241.36662658332318,315.4761745799631 L 241.35970006066356,330.7450305251663 L 218.66464792138996,331.28195462854035 L 195.7413779734431,330.3773002996416 L 198.46521955581494,324.3880754470154 L 203.38094514018363,322.657211075556 L 203.39203545346214,307.08723980990237 L 194.90567407096978,305.91215591412407 L 191.4707615836728,299.84621558298426 L 191.52864152771497,299.845887038958 z" id="c55021"/>
		<path d="M 256.8250913700768,369.35275479654536 L 261.92576573842183,369.2787216917075 L 272.04042029416973,369.07500605705536 L 287.2318138902561,368.85924905615815 L 287.68727224612684,389.1608027246729 L 287.97620701092853,399.2733796607253 L 274.83894702505944,399.5950140985168 L 261.8154055988882,399.93224314690974 L 261.81275178704783,399.9322568760329 L 257.323681473501,399.95356978498546 L 256.8319998719157,370.07319769101883 L 256.8250913700768,369.35275479654536 z" id="c55127"/>
		<path d="M 303.3254551942019,322.3386326611334 L 302.92089054496046,307.01721055355114 L 318.84561081864075,306.55092513687794 L 318.82379591916333,310.9624291997101 L 315.9438508322919,317.37153378622503 L 313.1154574292183,327.37078748210445 L 312.91317476242176,337.08328715231124 L 312.905650805392,337.52021809740666 L 311.1024613296763,337.5657138872917 L 308.8806739654473,337.5990277896798 L 302.19705750634455,337.7882081665446 L 303.3254551942019,322.3386326611334 z" id="c55089"/>
		<path d="M 136.01596477897175,124.38276239872872 L 136.3769169732327,94.2437495783939 L 159.32627946058108,94.40009553682786 L 175.12625961885558,94.38116163047883 L 175.18973263060712,101.8170216423369 L 175.13952349347144,131.85947514314446 L 175.20198006118804,147.06579108897515 L 135.8234346841426,147.23850328291329 L 136.01596477897175,124.38276239872872 z" id="c55099"/>
		<path d="M 120.57088516161274,146.96116804354705 L 135.8234346841426,147.23850328291329 L 175.20198006118804,147.06579108897515 L 175.10227265197412,170.03403580577017 L 165.52685624672495,169.9855664711876 L 165.5237633005332,177.6190858333464 L 158.2093017405812,177.5794117195547 L 120.34588124875984,177.52646292897094 L 120.49106669848015,154.62333571909497 L 120.57088516161274,146.96116804354705 z" id="c55119"/>
		<path d="M 157.99948340225998,269.95390558051463 L 158.06909711590473,254.69834954692374 L 158.09073009935622,246.4873373352951 L 172.71823609335192,246.4998707129534 L 183.9503159591794,246.45818729181124 L 182.65849814728458,254.97824267086347 L 179.68198191683933,253.69014620610182 L 176.17540124240867,260.3050952350565 L 179.04342181095436,276.6415529715255 L 186.3935617082612,287.36114134627724 L 191.38755788220004,297.5554988085723 L 191.52864152771497,299.845887038958 L 191.4707615836728,299.84621558298426 L 157.90291994614836,299.8312704075537 L 157.9468428085087,291.8885793100555 L 157.99953021814017,269.9582065671181 L 157.99948340225998,269.95390558051463 z" id="c55057"/>
		<path d="M 158.2093017405812,177.5794117195547 L 165.5237633005332,177.6190858333464 L 165.52685624672495,169.9855664711876 L 175.10227265197412,170.03403580577017 L 213.4913471112006,170.006636763644 L 226.0300635025338,169.9490341163622 L 226.12986244388387,177.78882892120336 L 226.4260446632565,208.32227163083382 L 187.52706323260364,208.23111337401727 L 180.0705335487714,208.2500666974234 L 158.0144905047887,208.18347908089603 L 158.2093017405812,177.5794117195547 z" id="c55073"/>
		<path d="M 104.72143689323792,215.43594195410716 L 112.35890100514808,215.57030913925303 L 119.9753455271227,215.69297932316945 L 119.85530922847938,223.2801292442034 L 127.47714276237956,223.37501536887873 L 127.37684725176169,231.03136674350333 L 142.6718249813017,231.17987497477776 L 157.9378468538336,231.06093392871475 L 157.77249319143533,244.97645276789885 L 158.09073009935622,246.4873373352951 L 158.06909711590473,254.69834954692374 L 150.28640368139213,254.14192415229505 L 142.85004876188282,254.17685536837882 L 120.66151506428533,254.1459165676161 L 116.0378909705158,256.61062701995456 L 116.23984775132787,261.76781207213367 L 105.92919356876132,261.6217887775616 L 104.93560649316835,260.84894120747146 L 104.28555509681502,246.1121360099348 L 104.72143689323792,215.43594195410716 z" id="c55053"/>
		<path d="M 74.78300079072787,192.18362694878851 L 120.24199021271687,192.78458986833465 L 119.9753455271227,215.69297932316945 L 112.35890100514808,215.57030913925303 L 104.72143689323792,215.43594195410716 L 81.92863253016955,215.12707173748868 L 74.33343029078894,214.93868707243448 L 74.481498934898,207.30542899480784 L 74.78300079072787,192.18362694878851 z" id="c55035"/>
		<path d="M 120.34588124875984,177.52646292897094 L 158.2093017405812,177.5794117195547 L 158.0144905047887,208.18347908089603 L 157.9378468538336,231.06093392871475 L 142.6718249813017,231.17987497477776 L 127.37684725176169,231.03136674350333 L 127.47714276237956,223.37501536887873 L 119.85530922847938,223.2801292442034 L 119.9753455271227,215.69297932316945 L 120.24199021271687,192.78458986833465 L 120.30253013508676,185.1379576074279 L 120.34588124875984,177.52646292897094 z" id="c55019"/>
		<path d="M 188.21135244307678,338.0373658255609 L 195.0302697087666,333.9683891222557 L 195.7413779734431,330.3773002996416 L 218.66464792138996,331.28195462854035 L 241.35970006066356,330.7450305251663 L 241.47271680666398,338.39074920199647 L 241.54101505697753,369.12728015059764 L 218.57464525910305,369.58374704999943 L 217.9769316242646,368.5927105230302 L 188.27029880247673,368.6463959958228 L 188.21135244307678,338.0373658255609 z" id="c55025"/>
		<path d="M 134.9390278456624,307.42812634127205 L 157.95876708617803,307.4677904802011 L 165.5625147409953,307.40312580670053 L 165.52788402544496,322.75671044290914 L 165.36259345525585,341.68413526979015 L 161.11386826665083,338.7555642062736 L 157.83806190644432,337.9550239934106 L 155.31029296171528,337.6717998276567 L 150.21351090226835,338.4238672143711 L 142.79699912331125,337.4562545837458 L 134.97498987846566,340.8811230569821 L 135.04250381979273,318.828418281746 L 134.9390278456624,307.42812634127205 z" id="c55103"/>
		<path d="M 87.60429627033267,268.94562687836464 L 94.03138109422542,269.03980016544443 L 95.07427510475941,261.9977787491655 L 104.93560649316835,260.84894120747146 L 105.92919356876132,261.6217887775616 L 116.23984775132787,261.76781207213367 L 120.04901637447526,261.7558726240236 L 119.85158894625401,292.1411191151905 L 97.80760717733074,291.8183762709139 L 98.7015952440684,287.6723036738625 L 96.02548049650761,281.1329478954701 L 95.8208463069175,280.6321428805558 L 91.6970246896196,274.9030292406574 L 87.60429627033267,268.94562687836464 z" id="c55063"/>
		<path d="M 188.27029880247673,368.6463959958228 L 217.9769316242646,368.5927105230302 L 218.57464525910305,369.58374704999943 L 219.02632357111835,399.87446596792614 L 216.7116951163697,399.855508260088 L 210.7462919303478,399.80196766851645 L 188.36915093111284,399.595930259898 L 188.26221990705756,372.474214558935 L 188.27029880247673,368.6463959958228 z" id="c55045"/>
		<path d="M 45.12451591551025,122.66699013459872 L 52.72632585284815,122.84664585740477 L 82.96067614943854,123.7156647697804 L 82.32190000345236,154.02964578710666 L 82.12256569777797,161.54853077641988 L 74.46852318226887,161.26975874044268 L 44.02466315105885,160.41592331206678 L 45.12451591551025,122.66699013459872 z" id="c55005"/>
		<path d="M 257.04023142171235,215.90451575366535 L 265.2378105486869,215.77828607165796 L 287.8784202080181,215.84572681630146 L 291.3070904666876,215.59022994856844 L 291.8461418153114,245.85336963517753 L 278.5032104822439,245.94383093208054 L 270.88799970008154,246.09434768113078 L 257.3271544403705,246.38641611250804 L 257.04023142171235,215.90451575366535 z" id="c55087"/>
		<path d="M 218.57464525910305,369.58374704999943 L 241.54101505697753,369.12728015059764 L 247.67374146127338,369.181691954318 L 256.8250913700768,369.35275479654536 L 256.8319998719157,370.07319769101883 L 257.323681473501,399.95356978498546 L 246.67289180619716,399.9888571192672 L 243.28216628241807,399.9955795041254 L 240.01087934614847,400.0 L 219.02632357111835,399.87446596792614 L 218.57464525910305,369.58374704999943 z" id="c55105"/>
		<path d="M 294.4558138285798,276.56045590312294 L 302.1007422177457,276.3658492696756 L 321.97377126464687,275.8027924685334 L 321.54710812029765,277.43805946533195 L 322.31252401021317,282.9727179918669 L 324.0815046864849,286.70696792180325 L 323.68714564859766,290.6216548316245 L 323.92067365880615,294.42185359701455 L 318.85424628720864,304.7911178352065 L 318.84561081864075,306.55092513687794 L 302.92089054496046,307.01721055355114 L 295.2375862265336,307.14584931817956 L 294.4558138285798,276.56045590312294 z" id="c55117"/>
		<path d="M 175.18973263060712,101.8170216423369 L 220.69883868120928,101.26423682173392 L 228.4152217823978,105.13293793272838 L 228.21742523868207,101.38266434183687 L 236.20581777309906,101.6428364503501 L 236.71814966348813,139.4718572427764 L 217.09838718922154,139.18567573130554 L 213.3462106968615,139.45244714345463 L 213.07958482710387,131.71226128048016 L 175.13952349347144,131.85947514314446 L 175.18973263060712,101.8170216423369 z" id="c55085"/>
		<path d="M 248.54025527563604,277.0727000037403 L 279.1643824388323,276.7551776166261 L 279.0234306215933,272.78789084188327 L 294.4034210155041,272.50801712950687 L 294.4558138285798,276.56045590312294 L 295.2375862265336,307.14584931817956 L 279.94425239043,307.4179939262786 L 279.7539407731404,299.7485269889077 L 248.8327514364449,300.03622836260837 L 248.54025527563604,277.0727000037403 z" id="c55039"/>
		<path d="M 301.27023725143613,245.7164675644857 L 311.0580735416746,245.520113307958 L 310.8945448743413,237.8745880725126 L 318.54765794855354,237.70528244880396 L 332.57176821461707,237.2712525832707 L 332.4585975455625,237.8127616289582 L 334.11115998113416,243.156552717056 L 335.14740240130357,247.441078262906 L 333.23121469147185,251.9877937678135 L 329.4549267721721,254.55903076924938 L 326.14996093341546,259.02849906433875 L 323.6722780951749,269.2812636547167 L 321.97377126464687,275.8027924685334 L 302.1007422177457,276.3658492696756 L 301.27023725143613,245.7164675644857 z" id="c55071"/>
		<path d="M 241.071450191332,169.83031693543273 L 262.26443559325475,169.57994371286824 L 272.04765697577153,169.4470303213256 L 272.137991678072,192.39767574939438 L 256.71532470383505,192.57945984563207 L 256.6370179196158,184.96075512960664 L 241.31820829466898,185.21413112764236 L 241.20085622109863,177.65117785011967 L 241.071450191332,169.83031693543273 z" id="c55078"/>
		<path d="M 2.4467137798712604,197.88930498178493 L 4.998233549492981,190.42335309061556 L 5.1104987719061015,189.79948070335993 L 5.117747869010805,189.7591921416104 L 44.460393113625656,191.30992880100996 L 44.13159602631768,206.53282143527943 L 43.79131900528886,219.23697725921784 L 32.393010912173594,218.9511190186277 L 29.64556024415074,217.14575727382848 L 27.27516757511925,217.13271297657636 L 17.920018223711246,215.14298107636225 L 13.709130142615964,211.92084792901434 L 9.015472458880735,205.04330485590958 L 6.8921998361669665,202.7340415668449 L 3.2261693900443733,198.73972923970288 L 2.4467137798712604,197.88930498178493 z" id="c55093"/>
		<path d="M 187.52706323260364,208.23111337401727 L 226.4260446632565,208.32227163083382 L 226.72612553096417,246.76205012241977 L 203.18111263034365,246.72803400042108 L 195.18273383672562,246.58997340226242 L 194.98004647018738,223.46195766629452 L 187.58031324819038,223.45419504705566 L 187.52706323260364,208.23111337401727 z" id="c55097"/>
		<path d="M 241.35970006066356,330.7450305251663 L 241.36662658332318,315.4761745799631 L 241.1327900717453,300.17958636121807 L 248.8327514364449,300.03622836260837 L 279.7539407731404,299.7485269889077 L 279.94425239043,307.4179939262786 L 279.090686991017,322.65471491043274 L 279.4197070818879,338.0552289724849 L 271.8492854464014,338.0786192479627 L 241.47271680666398,338.39074920199647 L 241.35970006066356,330.7450305251663 z" id="c55027"/>
		<path d="M 302.31619221152636,358.83820023612355 L 302.3047609668784,358.24087114909173 L 302.20923357929115,345.5062233449368 L 302.2028612396281,344.06132698230476 L 302.19089470050363,343.6454685467948 L 302.19705750634455,337.7882081665446 L 308.8806739654473,337.5990277896798 L 311.1024613296763,337.5657138872917 L 312.905650805392,337.52021809740666 L 312.8051640047104,343.3383970586262 L 314.8945024622912,348.6846224552529 L 313.35777070428963,352.99257496548444 L 316.9447485903112,359.19512938218134 L 317.6523520360495,366.85221297167334 L 318.1485705928329,367.52348857583905 L 318.5720183336588,368.09615368588516 L 302.50285609236346,368.41061990521854 L 302.31619221152636,358.83820023612355 z" id="c55079"/>
		<path d="M 274.6476480566775,116.22955394056255 L 297.1727364903144,116.56413513428176 L 297.1591353216967,110.24876205837674 L 297.6860262622672,110.44936532561256 L 300.8907171074963,109.23957850083475 L 302.7345160817111,111.95270557988596 L 308.10969215891396,112.62129313987445 L 311.05790486626336,115.36188746024968 L 312.8230624055311,117.00046672509353 L 314.3741953886882,119.55993848186984 L 311.7361818789904,121.45136589596305 L 314.7349471717747,125.23508657428088 L 314.2243819888076,128.26124599753882 L 313.30134757158595,132.69765309080958 L 313.3267384103276,137.22299672266348 L 310.822172636726,139.8334626709151 L 310.3597423447931,144.33060551252848 L 310.0405912828245,147.85919207664915 L 313.93871658566565,147.70345787272265 L 317.00007695268687,147.49409049377996 L 319.66088048865487,144.89133469448308 L 322.75487387060554,146.12689447311828 L 322.2638690517709,150.74212948432853 L 319.71229366956555,157.06177763500764 L 317.95011939473164,161.34145614927618 L 320.96634948202563,165.34261025270249 L 323.98827836640095,169.13331921465422 L 327.61995012422926,170.00192144619555 L 325.5398470084431,174.46339359301237 L 325.43173733867354,180.46353856930008 L 321.31602385251813,180.81312008027044 L 317.2241950102876,181.93568668506424 L 317.31688432063635,179.49398319944413 L 305.8607218337189,177.17278085243268 L 294.76652917917943,177.16397457375248 L 294.73187861477305,169.5597996409331 L 290.355908004016,169.51468304459632 L 290.3667729335393,161.9521135275473 L 282.7464141544017,161.799967353409 L 282.6313132364611,146.61001586418885 L 275.0624551269379,146.55152174606133 L 274.6476480566775,116.22955394056255 z" id="c55075"/>
		<path d="M 32.393010912173594,218.9511190186277 L 43.79131900528886,219.23697725921784 L 44.13159602631768,206.53282143527943 L 74.481498934898,207.30542899480784 L 74.33343029078894,214.93868707243448 L 50.96318824607946,214.94822563212728 L 46.67331239193669,231.16182131693515 L 45.024238922379496,230.2997210848077 L 37.46650854604971,227.33303424612004 L 36.677577578413185,226.5371040631619 L 33.88674184109153,223.7185066936772 L 32.569450196975765,219.06696384299622 L 32.393010912173594,218.9511190186277 z" id="c55091"/>
		<path d="M 3.494960824707049,171.83714727717322 L 7.516600151534324,167.75928509283935 L 7.340762408281043,166.851312287967 L 6.11961647600568,160.53487117210395 L 6.2163337845441555,159.22853767946626 L 44.02466315105885,160.41592331206678 L 45.08350013271541,168.18580406198868 L 44.460393113625656,191.30992880100996 L 5.117747869010805,189.7591921416104 L 6.366390359431896,182.81160071417668 L 5.916170097670908,175.69115041735222 L 3.494960824707049,171.83714727717322 z" id="c55109"/>
		<path d="M 157.90291994614836,299.8312704075537 L 191.4707615836728,299.84621558298426 L 194.90567407096978,305.91215591412407 L 203.39203545346214,307.08723980990237 L 203.38094514018363,322.657211075556 L 198.46521955581494,324.3880754470154 L 195.7413779734431,330.3773002996416 L 195.0302697087666,333.9683891222557 L 188.21135244307678,338.0373658255609 L 177.80923642898185,339.0513748184358 L 174.04640898322467,343.3807696696734 L 165.36259345525585,341.68413526979015 L 165.52788402544496,322.75671044290914 L 165.5625147409953,307.40312580670053 L 157.95876708617803,307.4677904802011 L 157.90291994614836,299.8312704075537 z" id="c55111"/>
		<path d="M 82.96067614943854,123.7156647697804 L 136.01596477897175,124.38276239872872 L 135.8234346841426,147.23850328291329 L 120.57088516161274,146.96116804354705 L 120.49106669848015,154.62333571909497 L 82.32190000345236,154.02964578710666 L 82.96067614943854,123.7156647697804 z" id="c55107"/>
		<path d="M 38.08253411449785,69.39279066530577 L 38.5642332579333,54.191099404539564 L 38.78212074348979,47.311502170401035 L 39.20862306579416,32.590769713715794 L 44.453620747549415,32.604330290618094 L 45.8798763817619,29.962604697267068 L 48.36611148841358,26.834005707189913 L 50.974080852499284,26.651709419596123 L 53.905998411862896,28.8294787228943 L 56.04340290019918,29.23872135877115 L 59.2187341394055,31.41929939386686 L 63.76292335053905,30.85286520874904 L 67.80799518390491,30.948285900394772 L 78.43472081340525,27.259949499653178 L 82.7738110187252,25.34656260725871 L 84.15912828875898,25.374343526788195 L 84.10752219823316,26.19616583896884 L 83.15531737429498,78.10211766900021 L 52.75182012361802,77.37941490270651 L 37.85454734674309,77.00512460302858 L 38.08253411449785,69.39279066530577 z" id="c55031"/>
		<path d="M 248.06023702439498,246.58163687496918 L 255.65968722708817,246.40649450352785 L 257.3271544403705,246.38641611250804 L 270.88799970008154,246.09434768113078 L 278.5032104822439,245.94383093208054 L 279.0234306215933,272.78789084188327 L 279.1643824388323,276.7551776166261 L 248.54025527563604,277.0727000037403 L 248.4027795939673,269.34568487474223 L 248.06023702439498,246.58163687496918 z" id="c55139"/>
		<path d="M 271.75946432335667,353.59148356561155 L 271.8492854464014,338.0786192479627 L 279.4197070818879,338.0552289724849 L 302.19705750634455,337.7882081665446 L 302.19089470050363,343.6454685467948 L 302.2028612396281,344.06132698230476 L 302.20923357929115,345.5062233449368 L 302.3047609668784,358.24087114909173 L 302.31619221152636,358.83820023612355 L 302.50285609236346,368.41061990521854 L 287.2318138902561,368.85924905615815 L 272.04042029416973,369.07500605705536 L 271.75946432335667,353.59148356561155 z" id="c55133"/>
		<path d="M 225.82326835318125,289.21673856012194 L 230.74739103240293,288.6568851676714 L 228.77214628144407,284.5482335951614 L 230.50604114775237,269.59507068678835 L 248.4027795939673,269.34568487474223 L 248.54025527563604,277.0727000037403 L 248.8327514364449,300.03622836260837 L 241.1327900717453,300.17958636121807 L 233.46355644725185,300.38366436246116 L 225.91452943164248,299.4622216535893 L 225.82326835318125,289.21673856012194 z" id="c55047"/>
		<path d="M 100.3560598449861,318.7388756206066 L 102.10104330572479,318.4507356154121 L 135.04250381979273,318.828418281746 L 134.97498987846566,340.8811230569821 L 123.39079129087715,349.0389632796003 L 117.303917052219,350.3541796238583 L 109.36362723464389,356.343268554984 L 103.11473683777604,356.70331185888114 L 102.17396384375145,352.19133053104775 L 102.21109512991079,348.54405839665276 L 102.25974886857273,343.7681838131467 L 104.94934425227213,340.3174376057959 L 108.00643428373799,336.19029234626976 L 109.93975402949093,333.3997309670779 L 106.84646559489406,328.11939751748196 L 103.82407276300829,326.21780832480846 L 100.50720218552705,322.76039358176797 L 101.05487633458368,320.1898535729597 L 100.3560598449861,318.7388756206066 z" id="c55023"/>
		<path d="M 116.0378909705158,256.61062701995456 L 120.66151506428533,254.1459165676161 L 142.85004876188282,254.17685536837882 L 150.28640368139213,254.14192415229505 L 158.06909711590473,254.69834954692374 L 157.99948340225998,269.95390558051463 L 157.99953021814017,269.9582065671181 L 157.9468428085087,291.8885793100555 L 119.85158894625401,292.1411191151905 L 120.04901637447526,261.7558726240236 L 116.23984775132787,261.76781207213367 L 116.0378909705158,256.61062701995456 z" id="c55081"/>
		<path d="M 0.09186228469436965,120.881606565776 L 22.094325363687844,121.7976004827815 L 22.386962154762593,114.19959795365833 L 45.351915347598464,115.13103963588077 L 45.12451591551025,122.66699013459872 L 44.02466315105885,160.41592331206678 L 6.2163337845441555,159.22853767946626 L 6.701866775970355,152.66498056858373 L 7.5772051639733675,151.71786166008206 L 10.747575414398638,148.28328835884395 L 13.423996520561285,143.12940442208958 L 14.268131380993895,139.4793241219297 L 11.895535772402969,136.38495364981736 L 9.507751212759034,131.6164483637192 L 7.82135517141018,128.7620202181583 L 5.0887220543963725,128.1980637910537 L 0.21380196893994183,127.1002181895723 L 0.0,121.33005993494461 L 0.09186228469436965,120.881606565776 z" id="c55095"/>
		<path d="M 287.2318138902561,368.85924905615815 L 302.50285609236346,368.41061990521854 L 318.5720183336588,368.09615368588516 L 322.2296436329484,373.0362745453003 L 321.24154155010416,380.44817056661253 L 320.2220657163232,383.33124411130524 L 295.19657464541234,383.8264387298214 L 295.3193050215255,388.93990167463954 L 287.68727224612684,389.1608027246729 L 287.2318138902561,368.85924905615815 z" id="c55101"/>
		<path d="M 367.29839744932474,140.040784519875 L 373.28564864567824,137.25988048586683 L 375.2592845816977,140.45821282329345 L 371.6390255357427,145.85619420052168 L 369.8446268810957,151.00975136526642 L 366.1715762576551,146.1572414219283 L 367.29839744932474,140.040784519875 z M 320.55811674933835,205.5075712262063 L 320.4116114041527,202.7631663959889 L 324.88832637956295,196.12085011151584 L 328.8096218984099,191.3470263693616 L 331.9341276443423,190.757170471566 L 332.89097346101613,189.6602356217276 L 337.1292222622177,188.0785988124813 L 340.3031957202452,183.7374690158722 L 343.62407426561623,176.67970140019656 L 347.8777980707615,170.58094821661416 L 349.2779665599096,162.98919900135968 L 353.1796701268345,162.34629716343912 L 356.3825824155248,159.00735102804248 L 357.0328562852109,154.8365889313453 L 360.0859707775132,151.5791634824129 L 362.57862112890757,150.9245904378374 L 365.0369710855953,151.5864635487972 L 365.18320695835024,157.14594755529794 L 361.2574894889236,160.8380899630476 L 361.3254940206866,165.39957510215527 L 360.42127244667137,170.32231553478556 L 355.89005415184425,176.3470786225449 L 353.03755154407025,182.1106884625544 L 352.109480917287,187.60109659402974 L 347.915210851907,192.3762161546428 L 345.4132469592586,197.89084367677756 L 342.15373993228684,206.4124247468807 L 319.48439836247303,206.96307001655413 L 320.55811674933835,205.5075712262063 z" id="c55029"/>
		<path d="M 203.18111263034365,246.72803400042108 L 226.72612553096417,246.76205012241977 L 248.06023702439498,246.58163687496918 L 248.4027795939673,269.34568487474223 L 230.50604114775237,269.59507068678835 L 203.29756538876242,269.8661395103021 L 203.18111263034365,246.72803400042108 z" id="c55137"/>
		<path d="M 287.68727224612684,389.1608027246729 L 295.3193050215255,388.93990167463954 L 295.19657464541234,383.8264387298214 L 320.2220657163232,383.33124411130524 L 319.4594975315672,385.4854776234195 L 319.7034842891393,391.17084218288727 L 320.7411670829756,398.81142663272584 L 314.4035632258924,398.8969736031398 L 294.8176834584252,399.11322844532185 L 293.6793240541557,399.1235616224968 L 287.97620701092853,399.2733796607253 L 287.68727224612684,389.1608027246729 z" id="c55059"/>
		<path d="M 259.60189091857853,146.68014985273027 L 275.0624551269379,146.55152174606133 L 282.6313132364611,146.61001586418885 L 282.7464141544017,161.799967353409 L 290.3667729335393,161.9521135275473 L 290.355908004016,169.51468304459632 L 294.73187861477305,169.5597996409331 L 294.76652917917943,177.16397457375248 L 305.8607218337189,177.17278085243268 L 317.31688432063635,179.49398319944413 L 317.2241950102876,181.93568668506424 L 314.10834501436153,182.78796002515506 L 312.28069716248604,185.44101774090558 L 312.71466317606576,189.85206398544685 L 311.73392288519,191.30192156979123 L 308.71421476527155,194.8093403327378 L 306.5448032245215,200.36499438391303 L 303.9945932163318,203.57960632125892 L 303.20583742939425,207.3333869597363 L 289.0014413974902,208.12916686889653 L 287.85604953142587,207.51609855836787 L 287.1823259129246,192.33297146714688 L 272.137991678072,192.39767574939438 L 272.04765697577153,169.4470303213256 L 262.26443559325475,169.57994371286824 L 259.72166344150594,161.92713593220765 L 259.60189091857853,146.68014985273027 z" id="c55083"/>
		<path d="M 241.47271680666398,338.39074920199647 L 271.8492854464014,338.0786192479627 L 271.75946432335667,353.59148356561155 L 272.04042029416973,369.07500605705536 L 261.92576573842183,369.2787216917075 L 256.8250913700768,369.35275479654536 L 247.67374146127338,369.181691954318 L 241.54101505697753,369.12728015059764 L 241.47271680666398,338.39074920199647 z" id="c55055"/>
		<path d="M 144.59482187198137,41.19932850437042 L 147.18073469357742,40.91941161015047 L 151.30421986093268,43.413623196522636 L 152.48532647649782,43.01560812972299 L 154.34421796355724,45.87352417497742 L 157.70589038903722,44.165464407992715 L 160.4935910460518,47.200484370557 L 164.78455703582742,48.87371546412857 L 168.20550975702358,55.860924696368016 L 170.48768181806668,63.21014301326392 L 182.13132089037765,66.45760119479992 L 182.17335801379642,94.37831282874902 L 175.12625961885558,94.38116163047883 L 159.32627946058108,94.40009553682786 L 159.3213750016235,79.16465829382965 L 151.8023414955644,79.20105697248891 L 151.86020761338136,71.61378554495997 L 144.16758134967824,71.53223486213197 L 144.59482187198137,41.19932850437042 z" id="c55051"/>
		<path d="M 287.27975566394025,208.5999510449913 L 287.85604953142587,207.51609855836787 L 289.0014413974902,208.12916686889653 L 303.20583742939425,207.3333869597363 L 302.95281448502726,208.53621583065834 L 303.282195592255,213.3347689213487 L 300.69688196418804,216.62058038467842 L 303.0068920379551,219.49367117905953 L 306.9010947999412,220.23262175422474 L 309.6191013337525,216.261056728765 L 311.54717082783884,213.1993041666105 L 317.22198346761456,210.33854522514142 L 318.05484776655754,209.0497952218061 L 318.54765794855354,237.70528244880396 L 310.8945448743413,237.8745880725126 L 311.0580735416746,245.520113307958 L 301.27023725143613,245.7164675644857 L 291.8461418153114,245.85336963517753 L 291.3070904666876,215.59022994856844 L 287.8784202080181,215.84572681630146 L 287.27975566394025,208.5999510449913 z" id="c55009"/>
		<path d="M 213.3462106968615,139.45244714345463 L 217.09838718922154,139.18567573130554 L 236.71814966348813,139.4718572427764 L 244.34141277752894,139.31526470961467 L 244.25882014385166,146.91055813914144 L 259.60189091857853,146.68014985273027 L 259.72166344150594,161.92713593220765 L 262.26443559325475,169.57994371286824 L 241.071450191332,169.83031693543273 L 241.20085622109863,177.65117785011967 L 226.12986244388387,177.78882892120336 L 226.0300635025338,169.9490341163622 L 213.4913471112006,170.006636763644 L 213.3462106968615,139.45244714345463 z" id="c55067"/>
		<path d="M 52.75182012361802,77.37941490270651 L 83.15531737429498,78.10211766900021 L 82.96067614943854,123.7156647697804 L 52.72632585284815,122.84664585740477 L 53.360099834539106,92.65480109682316 L 52.75182012361802,77.37941490270651 z" id="c55129"/>
		<path d="M 226.12986244388387,177.78882892120336 L 241.20085622109863,177.65117785011967 L 241.31820829466898,185.21413112764236 L 256.6370179196158,184.96075512960664 L 256.71532470383505,192.57945984563207 L 272.137991678072,192.39767574939438 L 287.1823259129246,192.33297146714688 L 287.85604953142587,207.51609855836787 L 287.27975566394025,208.5999510449913 L 287.8784202080181,215.84572681630146 L 265.2378105486869,215.77828607165796 L 265.1633657548721,208.07071618716103 L 226.4260446632565,208.32227163083382 L 226.12986244388387,177.78882892120336 z" id="c55115"/>
		<path d="M 176.17540124240867,260.3050952350565 L 179.68198191683933,253.69014620610182 L 182.65849814728458,254.97824267086347 L 183.9503159591794,246.45818729181124 L 195.18273383672562,246.58997340226242 L 203.18111263034365,246.72803400042108 L 203.29756538876242,269.8661395103021 L 203.34328922611783,299.661982923993 L 191.52864152771497,299.845887038958 L 191.38755788220004,297.5554988085723 L 186.3935617082612,287.36114134627724 L 179.04342181095436,276.6415529715255 L 176.17540124240867,260.3050952350565 z" id="c55001"/>
		<path d="M 74.46852318226887,161.26975874044268 L 82.12256569777797,161.54853077641988 L 82.32190000345236,154.02964578710666 L 120.49106669848015,154.62333571909497 L 120.34588124875984,177.52646292897094 L 120.30253013508676,185.1379576074279 L 120.24199021271687,192.78458986833465 L 74.78300079072787,192.18362694878851 L 75.03490759980114,176.92762807424216 L 74.26467614749288,168.9187646806266 L 74.46852318226887,161.26975874044268 z" id="c55017"/>
		<path d="M 75.93000927902392,252.1965059794666 L 81.31079670445253,245.78945570232733 L 81.92863253016955,215.12707173748868 L 104.72143689323792,215.43594195410716 L 104.28555509681502,246.1121360099348 L 104.93560649316835,260.84894120747146 L 95.07427510475941,261.9977787491655 L 94.03138109422542,269.03980016544443 L 87.60429627033267,268.94562687836464 L 86.5559610431367,267.4168829389263 L 79.07650227220364,265.2852550004776 L 80.77775829086254,259.0113889258851 L 75.93000927902392,252.1965059794666 z" id="c55121"/>
		<path d="M 44.02466315105885,160.41592331206678 L 74.46852318226887,161.26975874044268 L 74.26467614749288,168.9187646806266 L 75.03490759980114,176.92762807424216 L 74.78300079072787,192.18362694878851 L 74.481498934898,207.30542899480784 L 44.13159602631768,206.53282143527943 L 44.460393113625656,191.30992880100996 L 45.08350013271541,168.18580406198868 L 44.02466315105885,160.41592331206678 z" id="c55033"/>
		<path d="M 84.15912828875898,25.374343526788195 L 86.58966889073294,25.422138769350575 L 92.6318620720207,22.7027447174787 L 95.72101770442197,22.00897691733212 L 98.53605542468475,19.534556436251933 L 102.05338238881272,18.706136636695046 L 104.80886012192794,16.117532379531408 L 107.43481142655233,18.094701233176558 L 109.70347850282288,15.908353274227336 L 112.31240905686178,15.112497029271939 L 115.52176248132632,13.082338529732155 L 118.55051228617367,11.138650413858837 L 118.32479732988539,6.156084487566743 L 122.26761726288777,4.478994035144358 L 126.51629562184635,7.981478185915724 L 129.29614181124788,10.102912117316876 L 132.92956748012043,14.046247089196658 L 129.63816068498758,20.262883701368185 L 125.83924498358991,25.276938070397758 L 124.61988142719721,27.519464167796862 L 126.28187157281559,31.08428500239839 L 122.46706789329993,34.659756628346756 L 121.36877649604875,38.25907564746335 L 119.94965422937008,40.42056522069861 L 121.78661330473892,40.88238164653606 L 121.39289594050433,78.8984106358815 L 83.15531737429498,78.10211766900021 L 84.10752219823316,26.19616583896884 L 84.15912828875898,25.374343526788195 z" id="c55007"/>
		<path d="M 131.1348252467034,2.6003408886288333 L 133.3518292107682,1.5858092820026655 L 138.75686772060453,0.0 L 144.12002133404516,1.5922903364339986 L 145.07326551120144,3.3237050076341133 L 147.0405050051596,8.255050990050393 L 146.2780122649247,10.512119138583483 L 144.75857447479962,12.277202158944498 L 139.45344792853246,13.00611831164976 L 136.94138385148202,8.653270563530201 L 135.00356390074234,6.068435642888586 L 131.6534607915177,4.538211417345662 L 131.1348252467034,2.6003408886288333 z M 121.78661330473892,40.88238164653606 L 123.41255322372601,41.29050268427071 L 127.63765948051196,38.43512911457479 L 129.7186644973286,37.676299486021065 L 132.12578421031793,35.823917329314924 L 133.25297298089214,31.79516377777281 L 137.69138011992638,35.95712800619044 L 143.56560732648325,41.31035012360663 L 144.59482187198137,41.19932850437042 L 144.16758134967824,71.53223486213197 L 151.86020761338136,71.61378554495997 L 151.8023414955644,79.20105697248891 L 159.3213750016235,79.16465829382965 L 159.32627946058108,94.40009553682786 L 136.3769169732327,94.2437495783939 L 121.18319481183057,94.13767825743894 L 121.39289594050433,78.8984106358815 L 121.78661330473892,40.88238164653606 z" id="c55003"/>
		<path d="M 1.358784912279892,114.68968377741108 L 3.1817839789452464,113.5015151999125 L 4.109050636270203,112.89667856482353 L 7.311707768263807,108.31914295362736 L 8.492824155262769,104.37738092527593 L 10.986486870449784,100.20389125943042 L 15.087030033717086,96.76965447196862 L 19.775547981796255,95.00502536837442 L 21.97687319086841,92.97772083228328 L 26.447090025003344,92.86693101257929 L 27.940221615854522,90.33824822776614 L 31.468262395402885,88.92475516081467 L 33.9606966218456,89.33623639470136 L 34.8797274299973,86.15954541498978 L 37.63646395268239,84.28553078575072 L 37.85454734674309,77.00512460302858 L 52.75182012361802,77.37941490270651 L 53.360099834539106,92.65480109682316 L 52.72632585284815,122.84664585740477 L 45.12451591551025,122.66699013459872 L 45.351915347598464,115.13103963588077 L 22.386962154762593,114.19959795365833 L 22.094325363687844,121.7976004827815 L 0.09186228469436965,120.881606565776 L 1.358784912279892,114.68968377741108 z" id="c55013"/>
		<path d="M 103.11473683777604,356.70331185888114 L 109.36362723464389,356.343268554984 L 117.303917052219,350.3541796238583 L 123.39079129087715,349.0389632796003 L 134.97498987846566,340.8811230569821 L 142.79699912331125,337.4562545837458 L 150.21351090226835,338.4238672143711 L 150.22211626194414,372.4943384158574 L 150.11512440957964,399.3346526385596 L 149.4242154385812,399.3336785662302 L 136.05232335830414,399.12762465264115 L 134.16038756889085,393.1306777007619 L 132.37277012649784,388.73856879984163 L 129.61164992750727,387.03553912369904 L 122.57588509625977,385.27501144596795 L 119.7039042166764,384.4102317042697 L 116.82381913720035,383.5411593295392 L 111.96143538253497,380.3457912898115 L 108.56430360329426,375.39047551003284 L 106.8523113276626,367.5599893178178 L 104.37053654135119,364.07063107433055 L 103.32988283297455,357.7339842375123 L 103.11473683777604,356.70331185888114 z" id="c55043"/>
		<path d="M 50.96318824607946,214.94822563212728 L 74.33343029078894,214.93868707243448 L 81.92863253016955,215.12707173748868 L 81.31079670445253,245.78945570232733 L 75.93000927902392,252.1965059794666 L 80.77775829086254,259.0113889258851 L 79.07650227220364,265.2852550004776 L 78.1903398739203,265.0318662329317 L 73.53389322317766,261.67309523608645 L 69.1475372504101,255.89833582441676 L 63.010187572040834,252.6584649397485 L 60.726756386621304,249.7104324796914 L 58.384721879728566,246.6820901190342 L 57.08269537051012,239.01445616828892 L 54.189560011150135,235.0807817540453 L 46.67331239193669,231.16182131693515 L 50.96318824607946,214.94822563212728 z" id="c55011"/>
		<path d="M 236.10436068525757,94.00528676733806 L 243.1174034501338,93.92415868908643 L 243.04149861276153,86.03643153158407 L 250.48987068813025,90.36769189406853 L 254.88316453138367,89.80098143151649 L 258.3728859700316,90.87342737870463 L 259.2436798673825,116.46291104061696 L 274.6476480566775,116.22955394056255 L 275.0624551269379,146.55152174606133 L 259.60189091857853,146.68014985273027 L 244.25882014385166,146.91055813914144 L 244.34141277752894,139.31526470961467 L 236.71814966348813,139.4718572427764 L 236.20581777309906,101.6428364503501 L 236.10436068525757,94.00528676733806 z" id="c55041"/>
	</g>
</svg>